<svg width="85" height="45" viewBox="0 0 85 45" fill="none" xmlns="http://www.w3.org/2000/svg">
<g filter="url(#filter0_dii_12_8684)">
<path d="M9.39546 12.8488C9.47023 16.4887 9.37291 18.9732 9.35148 22.3498C9.32849 25.8473 9.31756 29.8694 9.30951 33.9399L8.94287 33.5733C13.5234 33.5823 18.1653 33.5877 22.1906 33.5989C27.9448 33.6147 33.7918 33.6339 39.5113 33.6512C39.8046 33.6521 39.9797 33.659 40.1127 33.6594C41.365 33.6631 43.4649 33.6624 44.7072 33.6663C47.3204 33.6743 51.8672 33.6844 54.2607 33.6954C55.277 33.7001 56.3195 33.7035 56.7146 33.7176C57.0859 33.7191 57.2886 33.7076 57.3856 33.7072C57.3867 33.7072 57.3878 33.7072 57.3889 33.7072C57.7013 33.706 58.49 33.7161 58.664 33.7159C58.6901 33.7159 58.5298 33.707 58.9521 33.7106C58.9897 33.7109 58.955 33.7166 59.3105 33.7175C59.4031 33.7177 60.5922 33.7116 60.9321 33.7119C62.063 33.7129 64.7639 33.7259 66.116 33.7288C66.3228 33.7293 66.4419 33.7264 66.6603 33.7269C66.7731 33.7271 66.9422 33.7309 66.9769 33.7309C67.129 33.7312 67.7936 33.7175 67.5551 33.747C68.2489 33.7465 68.0445 33.7363 68.0602 33.7299C68.8134 33.7307 69.1764 33.7454 69.3731 33.7312C69.8964 33.7327 70.4196 33.7342 70.9429 33.7356L70.7386 33.9399C70.7475 30.7592 70.7563 27.5785 70.765 24.3978C70.7629 24.3967 70.7608 24.3956 70.7587 24.3944C70.7696 23.3027 70.7565 22.9282 70.7699 22.3049C70.7681 21.9206 70.7665 21.5363 70.7648 21.152C70.7778 17.0758 70.7875 13.0036 70.7965 8.93994L70.9429 9.08634C65.1597 9.07365 59.3937 9.06206 53.6582 9.0481C53.2461 9.0471 53.1431 9.04431 52.4634 9.04269C51.713 9.04093 50.6574 9.04122 49.6684 9.03876C48.8008 9.03661 47.5208 9.0314 46.5534 9.02882C46.335 9.02824 46.177 9.02922 46.1524 9.02915C46.0079 9.02875 46.0006 9.0266 45.8604 9.02621C45.6926 9.02575 45.49 9.02684 45.2962 9.02628C44.572 9.02422 43.7829 9.02287 43.6912 9.02262C43.2496 9.02137 43.1521 9.01922 43.1158 9.01911C42.6244 9.01774 42.8087 9.01989 42.6863 9.0195C42.0514 9.01744 41.6027 9.01234 40.7335 9.01424C40.7572 9.0128 40.7809 9.01135 40.8046 9.0099C40.1394 9.00761 40.5787 9.01252 40.4428 9.01293C40.3873 9.01306 38.9556 9.00927 38.8451 9.00896C38.4606 9.00782 38.4503 9.00596 38.417 9.00586C38.336 9.00564 37.3685 9.00547 36.8725 9.00281C36.2856 8.99971 36.9764 8.99768 36.8306 8.99669C36.806 8.99653 36.1916 8.99563 36.1091 8.99438C36.0181 8.99304 36.5494 8.9941 36.5412 8.99359C36.5354 8.99322 35.6533 8.98915 35.8224 8.98788C35.9583 8.98651 37.1552 8.99072 37.4088 8.99039C37.4506 8.99033 37.3717 8.9881 37.4088 8.98809C37.5577 8.98806 40.3153 8.99262 40.4415 8.99322C40.2979 8.99403 40.1543 8.99483 40.0107 8.99562C40.2016 8.99606 40.3926 8.99651 40.5835 8.99696C40.312 8.99733 40.0406 8.99767 39.7691 8.99798C40.1725 9.00734 41.3877 9.00105 41.4378 8.99652C41.4595 8.99444 40.7166 8.98805 41.4079 8.98597C41.3028 8.98529 41.1977 8.98461 41.0926 8.98394C40.876 8.98451 40.6594 8.98506 40.4428 8.9856C40.5871 8.98634 40.7313 8.98709 40.8756 8.98785C40.8225 8.98838 40.7694 8.98891 40.7163 8.98944C40.3114 8.98978 39.9065 8.99009 39.5016 8.99036C39.2934 8.98959 39.3367 8.98794 39.1936 8.98738C37.4091 8.98053 38.5731 8.98752 37.4048 8.98493C37.238 8.9838 37.0711 8.98268 36.9043 8.98159C36.9632 8.98519 36.4457 8.9822 35.8197 8.98268C35.8945 8.98171 35.9693 8.98073 36.0441 8.97973C35.1373 8.97888 33.2992 8.97116 33.7953 8.97745C33.5875 8.97666 33.3797 8.97588 33.172 8.97512C32.9965 8.97575 32.8211 8.97637 32.6456 8.97696C32.4032 8.97649 32.1607 8.97601 31.9182 8.97554C31.9171 8.97508 31.916 8.97462 31.9148 8.97416C32.1082 8.97445 32.3016 8.97473 32.495 8.97502C32.3498 8.97338 32.2047 8.97176 32.0595 8.97017C31.9168 8.97022 31.7741 8.97026 31.6314 8.97029C32.23 8.97242 31.4408 8.97348 31.2498 8.97493C30.7451 8.97478 30.4227 8.97203 30.2535 8.97169C30.1739 8.97156 29.237 8.97389 29.6043 8.9703C29.1222 8.9701 28.6401 8.96986 28.158 8.96958C27.9695 8.969 27.781 8.96842 27.5925 8.96785C28.0016 8.96665 26.8159 8.96299 27.6894 8.96339C28.3416 8.96364 28.5023 8.96554 28.8118 8.96594C29.0908 8.9663 29.2383 8.9653 29.5419 8.96562C31.5839 8.96782 33.2472 8.97005 35.1865 8.97319C35.5697 8.97382 35.9181 8.97348 36.1755 8.97391C36.466 8.9744 36.102 8.97596 36.4722 8.97595C36.861 8.97594 36.945 8.97434 37.0477 8.97443C37.1116 8.97449 37.314 8.97628 37.5004 8.97652C38.2661 8.97752 39.3881 8.97735 39.4969 8.97748C39.6198 8.97763 41.7854 8.9819 41.8891 8.98235C41.9441 8.98257 41.8301 8.98909 42.3073 8.98261C42.4562 8.98267 42.6051 8.98272 42.754 8.98278C42.7299 8.9841 42.7058 8.98543 42.6817 8.98675C43.5638 8.98278 43.2604 8.98523 44.1107 8.98595C46.1469 8.98756 49.1505 8.99273 51.3775 8.99507C51.8749 8.99559 52.0643 8.99376 52.6526 8.99434C53.1992 8.99483 54.6264 9.00317 54.316 8.99377C55.5322 9.00316 55.7276 8.98961 56.3365 8.99902C56.4101 8.99784 56.4838 8.99665 56.5575 8.99546C57.2184 9.00176 57.4223 8.99718 58.1439 8.99731C58.4548 8.99736 58.0964 9.00303 58.724 8.99699C58.8439 8.99763 58.9638 8.99828 59.0838 8.99893C59.0559 9.00039 59.028 9.00184 59.0001 9.00329C59.6972 9.00295 59.7421 9.00378 59.6626 8.99804C59.9991 8.99946 60.3356 9.00089 60.6721 9.00234C60.714 9.0005 60.7558 8.99866 60.7976 8.99682C60.6364 8.99312 52.9953 8.9901 51.9311 8.99005C50.6832 8.98513 48.1761 8.98656 47.168 8.98454C46.7645 8.98376 46.5863 8.98044 45.9991 8.97945C45.4122 8.97848 44.6735 8.98038 44.361 8.98011C43.3197 8.97919 38.3867 8.97324 41.7418 8.97353C41.6453 8.97212 41.5488 8.97071 41.4524 8.96932C40.1191 8.97249 40.6019 8.97018 39.4956 8.96873C39.0299 8.96813 37.9224 8.96967 37.9842 8.96443C38.849 8.96415 39.7678 8.96666 40.5198 8.96725C40.5943 8.96733 41.4847 8.96538 41.9429 8.96647C42.3563 8.96746 42.0717 8.97312 42.9711 8.96727C43.639 8.97438 44.0252 8.96879 44.2017 8.96824C44.5066 8.96735 44.54 8.97072 44.8448 8.97139C45.1769 8.97212 45.4055 8.97004 45.4509 8.97006C45.9062 8.97039 48.2779 8.97199 48.3867 8.97359C48.2913 8.97417 48.1959 8.97474 48.1006 8.97531C48.7165 8.97693 48.5878 8.973 48.7497 8.97267C48.8703 8.97278 48.9909 8.9729 49.1115 8.97301C49.0637 8.97377 49.0159 8.97453 48.9681 8.97529C49.6955 8.97576 49.1389 8.97248 50.1715 8.97339C50.8271 8.97395 51.5043 8.97776 51.568 8.97759C51.5868 8.97753 51.3804 8.97517 51.6477 8.9751C52.0901 8.97498 52.8551 8.97564 52.9407 8.9788C53.1574 8.97856 53.1389 8.97551 53.1677 8.97546C53.2935 8.97528 55.4582 8.97592 55.846 8.97602C56.9204 8.97631 58.1167 8.97794 59.2809 8.97826C59.4006 8.97829 59.3242 8.98045 59.4442 8.98047C59.6368 8.98053 60.6254 8.97775 60.773 8.97759C61.1416 8.97723 62.1113 8.97938 62.2638 8.97843C62.2855 8.97829 61.9664 8.97492 62.3395 8.97418C62.7537 8.97335 62.5307 8.97749 62.5532 8.97755C63.3962 8.97962 63.9285 8.97698 64.504 8.97675C64.6905 8.97668 65.0347 8.98028 65.2979 8.97947C65.3281 8.97938 65.2681 8.97621 65.2979 8.97607C65.6955 8.97467 66.0676 8.98078 66.2397 8.9813C66.6608 8.98254 66.4315 8.978 66.4535 8.97799C66.734 8.97803 67.1115 8.97987 67.538 8.97996C68.744 8.98018 69.8092 8.98054 70.9429 8.98121L70.9016 8.93994C70.9012 9.59398 70.9007 10.2708 70.9001 11.0104C70.8999 11.2643 70.8963 11.5657 70.8962 11.6045C70.8962 11.7245 70.9003 11.6902 70.8999 12.0373C70.8993 12.769 70.899 13.4474 70.8984 14.1719C70.8983 14.3178 70.8943 14.38 70.8942 14.4912C70.8936 14.8642 70.9033 16.1363 70.8901 16.1572C70.9013 16.8976 70.8909 17.3894 70.8905 17.9852C70.8897 19.3967 70.8907 21.6067 70.888 23.0138C70.8875 23.3101 70.8836 23.4491 70.8833 23.6139C70.8827 23.9094 70.8835 25.5991 70.8829 25.6874C70.8816 25.861 70.8646 25.757 70.8787 26.6492C70.8794 27.1723 70.8724 27.1106 70.8719 27.2187C70.8682 28.0618 70.8836 28.8821 70.869 28.7288C70.8721 29.7104 70.88 30.3467 70.8655 30.7473C70.8724 30.7421 70.8762 31.2037 70.8731 31.7602C70.8618 31.1904 70.8544 31.2609 70.8579 29.8831C70.858 29.8614 70.8629 29.9028 70.8629 29.8811C70.8634 29.6843 70.8614 29.2739 70.862 28.9385C70.8626 28.6031 70.8657 28.7894 70.8658 28.6551C70.8658 28.5322 70.8612 28.5363 70.8613 28.3584C70.8617 27.7814 70.8609 27.2709 70.8612 26.9426C70.8614 26.7358 70.8656 26.5044 70.8657 26.3439C70.8663 25.7235 70.8645 24.4087 70.8658 23.6192C70.866 23.4547 70.8703 23.5237 70.871 23.1638C70.871 23.1218 70.8667 22.9685 70.8661 22.6534C70.8655 22.3382 70.868 22.0939 70.8677 21.8914C70.8675 21.7222 70.8635 21.7929 70.8637 21.446C70.8638 21.1568 70.87 17.881 70.8707 17.7031C70.8718 17.4472 70.8771 17.3256 70.8766 17.1694C70.8765 17.1419 70.8716 17.0954 70.8713 17.0002C70.8672 15.4296 70.8774 11.9535 70.8791 10.1588C70.8795 9.74934 70.8799 9.34332 70.8802 8.93994L70.9429 9.00261C67.6511 8.99981 64.5367 8.99858 61.1653 8.99572C61.0978 8.99629 61.0303 8.99685 60.9629 8.99742C61.3454 8.99786 61.728 8.99831 62.1105 8.99876C62.1129 9.00053 62.1154 9.0023 62.1178 9.00407C62.635 9.00498 62.5665 9.00067 62.5519 8.99812C62.7433 8.99941 62.9347 9.0007 63.126 9.00201C63.2911 8.99593 64.5675 9.00147 65.2255 9.00223C65.6535 9.00271 66.1628 9.00074 66.3884 9.00118C66.8652 9.00209 66.8527 9.00622 66.8902 9.00632C66.9538 9.0065 67.6195 9.00357 68.0996 9.00422C68.8094 9.00517 68.8862 9.0119 69.8579 9.00735C70.2101 9.00872 70.573 9.0097 70.9429 9.01042L70.8724 8.93994C70.8706 9.87751 70.8705 10.8592 70.8698 11.8216C70.8636 11.5661 70.8684 12.7687 70.8677 13.311C70.8633 16.6198 70.8556 20.6865 70.8484 24.0387C70.8474 24.4695 70.8424 24.7949 70.8422 25.035C70.8421 25.1651 70.8476 25.2219 70.8466 25.4027C70.8464 25.4344 70.8413 25.4565 70.84 25.793C70.8369 26.6303 70.8432 28.716 70.8321 29.2439C70.8309 30.8092 70.8297 32.3746 70.8286 33.9399L70.9429 33.8257C69.6454 33.8247 68.348 33.8238 67.0506 33.823C66.9787 33.8204 66.9068 33.8179 66.8349 33.8153C66.291 33.8271 64.1411 33.817 63.0926 33.8162C61.2474 33.8149 58.8929 33.8161 57.2761 33.8146C56.9248 33.8142 56.6369 33.8099 56.3044 33.8096C56.1613 33.8094 55.9833 33.8143 55.8344 33.8142C54.1627 33.8126 51.8992 33.8043 50.2144 33.8022C46.3893 33.7976 42.787 33.7921 38.9113 33.7874C28.8833 33.7752 18.8998 33.7687 8.94287 33.7577L9.12508 33.9399C9.12844 30.9334 9.13229 27.9293 9.13708 24.9272C9.13735 24.7537 9.14654 24.7623 9.14677 24.6278C9.14827 23.8339 9.14285 22.061 9.14437 21.1644C9.14555 20.45 9.16155 19.3161 9.14721 19.0702C9.12194 21.6082 9.12082 24.2896 9.11196 26.9317C9.11134 27.1196 9.10271 27.1429 9.10253 27.1661C9.0991 27.5938 9.11122 27.3237 9.11108 27.944C9.11095 28.1513 9.08195 30.0662 9.10908 29.8383C9.09874 30.2578 9.09078 32.9978 9.09169 33.9399L8.94287 33.7911C9.03082 33.791 9.10309 33.7909 9.15636 33.7906C9.3458 33.7898 9.21168 33.7819 9.24928 33.7815C9.41257 33.78 9.48632 33.7907 9.63227 33.7912C10.0213 33.7922 11.0107 33.7846 11.1987 33.7849C11.6313 33.7855 12.9281 33.7953 13.4993 33.7939C14.0228 33.7926 13.9248 33.7817 14.3775 33.7812C14.7342 33.7809 14.3456 33.7895 15.1421 33.793C15.5369 33.7948 16.9179 33.7898 17.2535 33.7902C17.589 33.7905 17.9623 33.7972 18.4251 33.7972C19.0917 33.7972 20.5418 33.7952 21.2201 33.794C21.2606 33.7939 21.3593 33.7861 21.4591 33.7864C21.6658 33.7869 21.6037 33.7967 21.7598 33.7978C21.9159 33.799 24.6205 33.8006 25.0799 33.8012C25.3965 33.8016 25.6152 33.7961 25.7901 33.7964C25.9274 33.7966 25.9421 33.8045 26.0822 33.8048C26.1256 33.8048 26.4946 33.7983 26.8634 33.7989C27.2118 33.7994 28.5348 33.8073 28.6881 33.8075C28.7879 33.8076 28.6785 33.802 28.9735 33.8024C29.2423 33.8028 29.419 33.8101 29.5722 33.8104C29.9278 33.811 30.3253 33.8054 30.7026 33.8057C31.7872 33.8068 31.7314 33.8154 31.7965 33.8157C31.9769 33.8167 32.0492 33.8089 32.1084 33.8088C32.3585 33.8084 32.9714 33.8076 33.1943 33.8075C33.472 33.8074 33.5896 33.815 33.8846 33.8153C34.1045 33.8155 34.5485 33.8087 35.0502 33.8089C36.1811 33.8093 37.5259 33.8095 38.6365 33.8109C38.9676 33.8114 39.0185 33.8179 39.1197 33.8182C39.6517 33.8196 39.9495 33.8127 40.1014 33.813C41.1846 33.8148 43.1167 33.8279 44.1218 33.8297C44.5311 33.8305 46.3228 33.8273 47.3337 33.8292C47.4493 33.8294 47.3411 33.834 47.4698 33.8334C47.7776 33.8319 47.749 33.8223 47.9052 33.8228C47.9805 33.823 48.1524 33.8286 48.3718 33.8293C49.5099 33.8332 50.2926 33.8299 50.8118 33.8307C55.7981 33.8385 60.8827 33.8457 65.5392 33.8509C66.0584 33.8514 66.7022 33.8474 67.486 33.8527C67.5101 33.8552 67.5342 33.8576 67.5584 33.8601C67.5858 33.8577 67.6132 33.8553 67.6407 33.853C68.5285 33.8525 68.864 33.8498 69.7707 33.8537C69.8488 33.8541 70.0871 33.8651 70.2346 33.8518C70.8512 33.8591 70.8122 33.8565 70.9429 33.8541L70.857 33.9399C70.856 33.8803 70.8549 33.7852 70.8548 33.5762C70.8546 32.9096 70.8582 32.2618 70.8595 31.6155C70.8644 31.2612 70.8739 32.7478 70.8738 32.8447C70.8737 33.0008 70.867 33.163 70.8665 33.3134C70.8658 33.5399 70.8667 33.7626 70.8669 33.9399L70.9429 33.864C70.7717 33.8643 70.6428 33.8639 70.5937 33.861C70.0183 33.8668 70.7347 33.8643 70.6628 33.8698C70.2787 33.8672 69.8946 33.8645 69.5105 33.8618C69.3148 33.8812 67.1925 33.8538 67.34 33.869C67.1712 33.8658 67.0024 33.8626 66.8335 33.8594C66.0933 33.878 65.6579 33.8643 64.6704 33.8575C64.7416 33.8601 64.8129 33.8626 64.8841 33.8652C64.8639 33.8662 63.9924 33.8696 64.304 33.8591C63.4105 33.8725 63.4482 33.8488 62.6472 33.8654C62.1714 33.8673 62.4575 33.8574 61.6058 33.8568C61.1011 33.8565 60.4746 33.8613 59.9106 33.8613C59.7806 33.8612 59.7242 33.8552 59.6086 33.8551C59.493 33.855 59.4366 33.8608 59.2966 33.8609C59.0074 33.861 58.6324 33.8565 58.4516 33.8567C58.2896 33.857 58.0581 33.862 57.6677 33.8626C56.3043 33.8645 56.7162 33.8572 56.5008 33.8544C56.2695 33.8514 56.1032 33.8614 55.6419 33.8599C55.5957 33.8597 55.7153 33.8535 55.5649 33.8536C55.4436 33.8537 55.3826 33.8605 54.9808 33.8615C54.8208 33.8619 52.3371 33.8616 51.9587 33.8614C51.3788 33.8612 50.0871 33.8541 49.4869 33.8537C49.2556 33.8535 49.0085 33.8592 48.7628 33.8589C47.9486 33.8582 46.6451 33.8567 45.6126 33.8557C44.6828 33.8548 43.0505 33.8398 42.5414 33.8517C41.2358 33.8524 40.9186 33.8414 40.8202 33.8411C40.5541 33.8405 40.4309 33.8476 40.0954 33.8476C35.7497 33.8485 30.0273 33.8392 25.9116 33.8365C20.2687 33.833 14.6075 33.8307 8.94287 33.8273L9.05555 33.9399C9.05794 30.0205 9.0609 26.0993 9.06551 22.1812C9.06119 22.1556 9.05687 22.1299 9.05254 22.1042C9.04895 23.2366 9.04064 24.5673 9.03829 25.6852C9.03529 27.1776 9.05102 29.3915 9.02222 30.4862C9.01997 30.0422 9.03122 29.3189 9.01663 29.3319C9.01521 30.1255 9.0138 30.9192 9.01241 31.7128C9.01905 31.6891 9.0257 31.6654 9.03234 31.6418C9.03366 32.4009 9.03213 33.1759 9.03221 33.9399L8.94287 33.8506C9.0128 33.8506 9.08265 33.8506 9.15237 33.8505C9.29681 33.8505 9.19452 33.8445 9.3203 33.8445C9.46103 33.8446 9.36563 33.8506 9.39199 33.8506C9.74767 33.8509 9.85504 33.8449 9.89844 33.845C10.0098 33.8453 9.92321 33.8511 10.2443 33.8529C10.8398 33.8562 11.2663 33.8412 11.1264 33.8665C11.3187 33.8666 11.5109 33.8667 11.7032 33.8668C11.753 33.8599 11.8028 33.8531 11.8525 33.8463C13.0352 33.8746 13.5805 33.8267 14.2341 33.8652C14.4496 33.8595 14.6651 33.8538 14.8806 33.8482C15.0021 33.855 15.1235 33.8618 15.245 33.8686C15.2687 33.8628 15.2924 33.8571 15.316 33.8513C16.4772 33.8563 17.7135 33.8502 18.824 33.8516C19.5976 33.8525 19.7829 33.8548 20.4681 33.8548C21.9923 33.8548 20.4787 33.8649 21.7452 33.8774C21.6792 33.8706 21.6133 33.8638 21.5474 33.857C21.7571 33.8547 21.9669 33.8524 22.1766 33.85C22.3226 33.8556 22.4687 33.8612 22.6147 33.8667C23.2625 33.8388 23.6821 33.8619 23.7703 33.8619C23.8416 33.8619 24.0863 33.8452 24.8529 33.8599C24.535 33.8368 25.4377 33.8602 25.51 33.8603C25.5787 33.8605 26.4576 33.8559 26.8143 33.8564C27.0949 33.8567 27.6934 33.8619 28.1113 33.8619C28.4802 33.8619 28.4428 33.8544 28.4697 33.8543C28.9238 33.854 28.6392 33.8596 28.9675 33.8601C29.2958 33.8606 29.5505 33.8544 29.6213 33.855C29.657 33.8553 29.5378 33.8623 29.701 33.863C30.1392 33.8651 30.9317 33.8595 31.4334 33.86C31.6112 33.8602 31.8354 33.8662 32.0334 33.8665C32.3371 33.8669 32.4789 33.8593 32.6554 33.8596C32.7167 33.8598 33.1084 33.8718 33.5952 33.8703C33.6879 33.8699 33.9599 33.8453 34.3214 33.8807C34.3493 33.8757 34.3771 33.8708 34.405 33.8659C36.0377 33.8548 36.4921 33.8945 37.218 33.86C38.4035 33.8647 37.5897 33.8776 37.7198 33.8798C37.8039 33.8812 38.1904 33.8776 38.2329 33.8779C38.3081 33.8783 38.2952 33.8826 38.3776 33.8827C39.8888 33.8826 39.2178 33.8742 39.6965 33.8694C40.8346 33.858 41.7225 33.8852 39.743 33.8761C39.743 33.8785 39.743 33.8808 39.743 33.8832C40.2304 33.8812 41.4677 33.8829 41.0545 33.8946C40.7292 33.9039 37.7937 33.8968 39.4562 33.9106C39.8337 33.9137 40.0292 33.9049 40.6828 33.9217C41.1151 33.9226 41.1774 33.9013 41.7628 33.91C41.6665 33.9025 41.5703 33.8951 41.474 33.8876C42.2723 33.8783 43.2571 33.8917 43.8702 33.8878C44.0785 33.8864 44.8291 33.8523 44.6541 33.8868C45.0044 33.8848 46.6541 33.8919 46.9607 33.8889C47.0344 33.8882 47.1304 33.8703 48.1972 33.8772C48.2713 33.8795 48.3455 33.8817 48.4196 33.884C47.4438 33.89 49.167 33.8974 48.699 33.914C48.54 33.9064 47.7662 33.9015 47.6417 33.8976C47.4291 33.8909 48.0623 33.8827 47.2554 33.8846C46.7467 33.9129 48.2011 33.9003 47.9789 33.9271C49.0383 33.9148 49.1442 33.9267 49.384 33.9272C50.4092 33.9293 51.0545 33.9266 52.0218 33.9298C52.2575 33.9245 50.5063 33.9165 50.2894 33.9187C51.0877 33.8998 49.7137 33.8984 49.1338 33.9098C49.0851 33.9039 49.0364 33.898 48.9878 33.8921C49.7426 33.8956 50.479 33.8975 51.2266 33.8931C51.2753 33.8953 51.324 33.8974 51.3727 33.8996C51.2049 33.9028 51.0372 33.906 50.8695 33.9091C51.4913 33.9146 51.1184 33.8978 51.9468 33.9127C51.9725 33.9062 51.9981 33.8998 52.0238 33.8934C52.8181 33.8959 53.6124 33.8983 54.4067 33.9007C54.8202 33.8883 56.3486 33.8938 56.0687 33.9096C56.6857 33.9109 55.924 33.9022 56.5022 33.8985C56.7538 33.8969 57.2456 33.8967 57.367 33.901C57.3147 33.916 56.5788 33.9177 56.3561 33.9281C56.4912 33.9314 59.9137 33.9213 59.6086 33.9385C59.8818 33.9405 59.7562 33.9317 60.2491 33.9295C61.6302 33.9235 63.7693 33.9405 64.8814 33.9197C63.5756 33.9078 63.1893 33.92 62.1886 33.9204C61.5494 33.9205 57.6521 33.9219 58.5226 33.9063C58.3795 33.9083 58.2363 33.9102 58.0932 33.9122C57.9485 33.9075 57.8038 33.9027 57.6591 33.8979C58.0669 33.8974 58.4746 33.8969 58.8824 33.8964C58.9797 33.9011 59.0771 33.9058 59.1745 33.9105C59.2194 33.9072 59.2643 33.9039 59.3092 33.9006C59.4809 33.9 59.6526 33.8994 59.8243 33.8988C59.776 33.9028 59.7278 33.9067 59.6796 33.9106C59.9442 33.9114 60.2088 33.9122 60.4734 33.9129C60.4022 33.9076 60.3309 33.9023 60.2597 33.897C61.5059 33.8963 61.0838 33.8994 61.7751 33.9093C62.2911 33.9105 61.4194 33.9002 62.5112 33.8982C63.7807 33.8958 62.9478 33.9111 64.592 33.9083C64.6157 33.9058 64.6394 33.9033 64.6631 33.9008C65.0246 33.9035 65.3861 33.9061 65.7476 33.9087C65.6999 33.9056 65.6521 33.9025 65.6043 33.8994C66.3505 33.9009 67.3788 33.8956 67.6261 33.9075C66.8697 33.9015 66.8771 33.9224 67.0738 33.9262C67.2915 33.9305 69.1172 33.9305 70.9429 33.9296L70.9326 33.9399C70.9318 32.361 70.9305 30.782 70.9303 30.2428C70.93 28.7563 70.936 27.6327 70.9272 26.2749C70.9197 27.195 70.925 30.4308 70.9195 31.044C70.919 31.1047 70.9013 31.0876 70.9211 31.4781C70.9189 32.2245 70.9198 33.0575 70.9208 33.9399L70.9429 33.9179C70.3381 33.9185 69.7102 33.9192 69.0711 33.9188C69.1191 33.9134 69.1671 33.9081 69.2151 33.9028C70.0412 33.9128 70.8148 33.8964 70.9429 33.9042L70.9072 33.9399C70.9085 33.9183 70.9105 33.9151 70.9135 33.9333C70.9135 33.741 70.9136 33.5488 70.9137 33.3565C70.9102 33.3565 70.9067 33.3565 70.9032 33.3565C70.9033 33.0667 70.9034 32.7768 70.9036 32.487C70.907 32.487 70.9105 32.487 70.9139 32.487C70.914 32.2469 70.9141 32.0069 70.9142 31.7668C70.9108 31.7418 70.9074 31.7168 70.904 31.6918C70.9113 30.9729 70.8938 28.5223 70.9132 29.5996C70.9134 29.262 70.9135 28.9244 70.9136 28.5867C70.9112 28.5878 70.9088 28.589 70.9064 28.5901C70.9061 28.4449 70.9058 28.2998 70.9056 28.1546C70.9077 28.2024 70.9099 28.2502 70.9121 28.298C70.9085 27.6329 70.92 27.0023 70.9127 26.5656C70.911 26.8537 70.9093 27.1417 70.9075 27.4298C70.9108 26.8773 70.9049 25.8595 70.905 25.7684C70.9051 25.4908 70.9099 25.3444 70.9102 25.0436C70.9105 24.7721 70.9069 24.8094 70.9071 24.7589C70.9114 23.2942 70.9301 23.8524 70.9079 23.1685C70.911 23.0957 70.9141 23.0229 70.9172 22.9501C70.9147 22.8532 70.9121 22.7563 70.9096 22.6594C70.9101 22.2268 70.9105 21.7943 70.9109 21.3617C70.9071 21.506 70.9033 21.6503 70.8994 21.7945C70.8982 21.1461 70.9058 20.8438 70.906 20.781C70.9065 20.6032 70.9019 20.5219 70.9019 20.467C70.9037 17.8249 70.9071 19.4297 70.9245 18.1093C70.918 17.6385 70.9112 18.1148 70.9044 18.1817C70.9079 17.5557 70.9061 17.3603 70.9069 16.6995C70.907 16.5276 70.9107 16.3427 70.9108 16.2342C70.9109 16.1402 70.9073 15.8465 70.9074 15.6209C70.9075 15.2449 70.91 14.7445 70.9102 14.2297C70.9103 13.8016 70.9084 12.4913 70.9089 11.5773C70.9091 11.1873 70.912 11.2778 70.912 11.177C70.9121 11.1351 70.9087 10.8312 70.9089 10.581C70.9091 10.037 70.9096 9.48941 70.9101 8.93994L70.9429 8.97275C69.4313 8.97137 67.9056 8.96951 66.4017 8.9688C64.957 8.96814 63.489 8.96978 62.0415 8.96873C61.7334 8.96851 61.8965 8.96648 61.762 8.96634C61.7158 8.9663 61.6602 8.96995 61.1839 8.96821C61.0118 8.96759 61.2097 8.96515 61.0405 8.96494C60.9582 8.96484 60.9232 8.96801 60.4418 8.96846C59.567 8.96926 59.0968 8.96489 59.0187 8.96499C58.8715 8.96515 58.9145 8.9677 58.7194 8.96768C57.7651 8.9676 56.9684 8.96755 56.1168 8.96726C55.7191 8.96713 52.9771 8.96598 52.8265 8.96549C52.4896 8.96441 52.8032 8.95995 52.3712 8.95991C52.2502 8.96102 52.1291 8.96212 52.0081 8.9632C52.2004 8.96418 52.3926 8.96517 52.5849 8.96618C52.0556 8.96439 51.4555 8.96611 51.0636 8.96578C50.9912 8.96571 50.3248 8.96332 49.985 8.96335C50.1295 8.96262 50.2739 8.96187 50.4184 8.96112C50.3673 8.96039 50.3162 8.95967 50.2651 8.95894C49.5855 8.95969 48.8666 8.95929 48.1696 8.95882C47.9183 8.95865 48.0032 8.95708 47.7488 8.95691C46.2667 8.95603 46.6411 8.9623 45.2152 8.95004C45.6967 8.95125 47.453 8.95023 47.7083 8.9507C47.8862 8.95099 48.576 8.96196 48.3229 8.95088C49.7459 8.95133 48.5099 8.9571 49.839 8.95626C49.8124 8.95486 49.7858 8.95346 49.7593 8.95207C50.2233 8.95133 50.5659 8.95068 50.8479 8.95329C50.9424 8.9464 52.5188 8.95079 53.3834 8.95056C54.6329 8.95017 56.0445 8.94858 57.2823 8.94843C57.7088 8.94839 57.9503 8.9516 58.0038 8.95161C58.082 8.95161 58.3017 8.94886 58.4578 8.94887C59.0407 8.94883 60.8138 8.95422 61.2549 8.94607C57.787 8.94566 54.3191 8.94526 50.8512 8.94485C51.2872 8.9482 47.7793 8.94779 47.6014 8.9476C47.4368 8.94744 47.5754 8.94537 47.5264 8.94523C47.162 8.9443 46.8509 8.94725 46.7352 8.94722C46.647 8.9472 46.4689 8.94578 46.1551 8.94576C46.0975 8.94576 46.0816 8.94721 46.0197 8.9472C45.6104 8.94712 45.2064 8.94702 44.7957 8.94695C44.7707 8.94693 44.6671 8.94487 44.5634 8.94485C44.4594 8.94484 44.3567 8.94684 44.3304 8.94684C44.0022 8.94676 43.4394 8.94537 43.127 8.94531C43.0187 8.9453 43.0938 8.94673 42.9724 8.9467C42.5993 8.94658 42.7222 8.94385 42.2608 8.9445C42.1062 8.94471 42.1162 8.94679 41.8201 8.94646C41.6104 8.94622 41.633 8.94258 41.5997 8.94245C41.5538 8.9423 40.8302 8.94504 40.5935 8.94269C41.1107 8.9366 40.0277 8.94238 40.0797 8.94487C39.793 8.94418 39.5062 8.94352 39.2195 8.94287C39.1217 8.94349 39.0239 8.94409 38.9261 8.94469C37.7692 8.94178 37.0634 8.94337 35.9253 8.94245C35.8703 8.94239 34.9114 8.94112 34.9562 8.94038C35.5302 8.93909 36.1029 8.93895 36.4702 8.9415C37.0747 8.93666 37.0851 8.94051 38.0612 8.93988C38.3881 8.93965 38.4113 8.93824 38.4489 8.93822C39.7199 8.93749 41.7557 8.93646 42.612 8.94118C42.852 8.93991 41.9891 8.93942 42.3246 8.93849C42.5076 8.93801 46.9116 8.93608 45.5046 8.94203C45.6506 8.94188 45.7967 8.94172 45.9427 8.94156C46.0888 8.93597 46.815 8.93716 46.7326 8.94288C46.8014 8.94172 46.8702 8.94055 46.939 8.93938C47.0749 8.93839 47.2358 8.93784 47.4614 8.93751C48.3252 8.93618 53.4646 8.93801 53.7379 8.93708C53.7441 8.93548 53.7503 8.93387 53.7564 8.93227C51.486 8.93098 49.2834 8.93488 46.8076 8.93141C46.8795 8.93267 46.9514 8.93393 47.0233 8.9352C46.0354 8.93353 45.0475 8.932 44.0596 8.93062C45.1052 8.92824 46.7686 8.92564 47.8663 8.9272C48.0614 8.92749 47.9184 8.92936 47.9632 8.92957C48.0803 8.93011 48.2062 8.9269 48.6269 8.92644C49.0478 8.92596 50.1051 8.92796 50.202 8.92788C50.3888 8.92771 50.893 8.92366 51.2109 8.92357C51.6289 8.92348 51.3488 8.92603 51.4326 8.92605C51.7796 8.92618 52.0907 8.92485 52.3626 8.92494C52.7661 8.92504 53.6045 8.92933 53.8865 8.92257C53.5983 8.92237 53.31 8.92219 53.0217 8.922C54.585 8.91887 55.8072 8.92734 57.3474 8.91977C57.6973 8.91086 56.4248 8.91281 57.5007 8.90843C57.3053 8.90868 57.11 8.90893 56.9146 8.90918C56.8688 8.91102 56.823 8.91285 56.7772 8.91467C56.4407 8.91356 56.1042 8.91248 55.7676 8.91143C55.8637 8.91294 55.9597 8.91446 56.0557 8.91599C54.8626 8.91782 53.6579 8.9198 53.2414 8.91208C53.2168 8.91403 53.1923 8.91597 53.1677 8.91791C52.06 8.91623 50.3972 8.92481 50.7078 8.91451C50.6554 8.91508 50.6029 8.91564 50.5505 8.91621C49.8809 8.91455 50.1669 8.91852 49.9153 8.91912C49.8434 8.91926 48.542 8.91789 49.1188 8.91467C47.8492 8.91331 48.2406 8.92197 47.8908 8.92252C47.0781 8.91858 45.6162 8.92568 46.2308 8.91874C46.1097 8.91856 45.9887 8.91838 45.8677 8.91821C45.47 8.92357 45.078 8.91796 44.647 8.91638C44.501 8.91637 44.355 8.91635 44.209 8.91634C44.1112 8.91806 44.0134 8.91977 43.9156 8.92147C42.5417 8.9146 42.9767 8.93502 42.3491 8.91809C42.4469 8.917 42.5447 8.9159 42.6425 8.91479C42.8744 8.91412 43.1062 8.91344 43.3381 8.91276C42.4029 8.91303 41.4676 8.91334 40.5324 8.91369C39.3453 8.91025 38.6698 8.91558 37.351 8.91344C37.2276 8.91395 37.1041 8.91445 36.9806 8.91494C37.1065 8.91157 37.5855 8.91153 36.6932 8.91099C36.6172 8.9088 37.2197 8.9078 37.4944 8.90931C37.5606 8.90968 36.9972 8.91204 37.6305 8.91147C38.061 8.91109 37.2792 8.90904 38.569 8.90874C38.5212 8.9082 38.4734 8.90766 38.4256 8.90712C38.5655 8.90698 38.7053 8.90684 38.8451 8.9067C38.9695 8.90796 39.0938 8.90923 39.2182 8.91051C39.5378 8.90817 39.7172 8.90506 40.4474 8.90487C40.2494 8.906 40.5181 8.90865 40.8796 8.90825C40.8796 8.90717 40.8796 8.9061 40.8796 8.90502C41.7545 8.90335 41.4524 8.90693 42.1799 8.9036C42.2526 8.90441 42.3254 8.90523 42.3982 8.90605C42.7945 8.902 44.2534 8.89762 43.9873 8.90374C44.3965 8.89767 45.256 8.89915 45.5756 8.90358C45.6002 8.90233 45.6248 8.90107 45.6493 8.89982C45.8195 8.89939 45.9896 8.89895 46.1597 8.89851C46.2547 8.89915 46.3496 8.89981 46.4445 8.90046C46.5651 8.89958 46.6857 8.89869 46.8062 8.89779C46.879 8.89898 46.9518 8.90017 47.0246 8.90138C47.2184 8.89965 47.4123 8.8979 47.6061 8.89612C47.7247 8.89702 47.8433 8.89793 47.9618 8.89885C47.9741 8.89613 49.149 8.89415 49.4772 8.89565C49.575 8.89472 49.6728 8.89378 49.7706 8.89284C49.8184 8.89414 49.8662 8.89545 49.914 8.89677C49.9867 8.8956 50.0595 8.89443 50.1323 8.89324C50.3 8.89415 50.4677 8.89507 50.6355 8.89601C51.3195 8.88842 51.3415 8.89439 51.4977 8.8942C51.7872 8.89384 52.7732 8.88829 52.938 8.8883C53.1027 8.88834 53.1822 8.89084 53.315 8.89094C55.5059 8.89272 54.6053 8.88655 55.0448 8.88488C55.2819 8.88396 55.4498 8.8863 55.6594 8.88578C56.0181 8.88493 57.8274 8.87926 57.9315 8.87945C58.0831 8.87978 57.7262 8.89281 58.2189 8.88904C58.2352 8.88219 59.2888 8.88794 58.7964 8.87888C59.2302 8.87919 59.6641 8.87953 60.098 8.87988C60.0488 8.87155 60.5838 8.87627 61.1666 8.87509C61.9925 8.87347 63.8518 8.86513 63.7838 8.87446C63.9816 8.8721 64.1794 8.86972 64.3772 8.86731C65.7307 8.86852 67.0582 8.8637 68.4016 8.86177C69.236 8.8606 70.0852 8.85951 70.9429 8.85851L71.0245 8.85874L71.0243 8.93994C71.0281 12.1805 71.0306 15.5417 71.0326 18.6795C71.0328 18.8703 71.0288 18.8428 71.0288 18.9802C71.0292 19.7018 71.0344 21.5775 71.0347 22.5884C71.0348 22.9122 71.0309 23.0698 71.0308 23.1725C71.0306 23.521 71.0359 23.4387 71.0359 23.5993C71.036 23.8525 71.0325 25.1916 71.0325 25.6529C71.0325 25.8813 71.0372 26.1515 71.0362 26.4189C71.0361 26.4419 71.0314 26.3994 71.0314 26.4189C71.0313 26.9063 71.035 26.6131 71.035 26.778C71.0348 27.9537 71.0362 29.2103 71.0366 30.4857C71.0367 30.8025 71.0338 31.2872 71.0338 31.559C71.0338 31.6627 71.0373 31.4767 71.0374 31.8352C71.0374 31.9579 71.0326 31.9999 71.0324 32.1385C71.0317 32.7357 71.0477 32.9355 71.0355 33.4488C71.0358 33.5977 71.0362 33.7632 71.0366 33.9399L71.0364 34.034L70.9429 34.0337C69.9436 34.0362 68.5832 34.0408 67.8152 34.0417C67.6014 34.042 67.4973 34.039 67.2935 34.0393C67.1489 34.0395 66.8945 34.0445 66.6689 34.0449C66.4433 34.0452 66.0872 34.041 65.6534 34.0417C65.1966 34.0423 64.6286 34.0457 64.5257 34.0458C64.4013 34.046 64.3433 34.0401 64.219 34.0403C63.843 34.0409 62.8363 34.0479 62.3519 34.0491C61.8313 34.0504 61.5188 34.0478 61.341 34.048C61.1762 34.0483 60.9841 34.0537 60.9089 34.0538C60.7918 34.054 60.7642 34.048 60.6155 34.0482C60.3726 34.0486 60.1222 34.0527 59.7579 34.0532C53.1981 34.0627 46.7667 34.0669 40.3848 34.0685C39.6734 34.0687 39.2713 34.0743 38.223 34.0731C37.7979 34.0726 37.977 34.0647 37.6461 34.0665C37.4987 34.0673 37.536 34.0734 37.3494 34.0739C36.5251 34.0761 35.5647 34.0714 35.2075 34.0719C35.0658 34.0721 34.9039 34.0793 34.6134 34.0797C32.4486 34.083 29.8874 34.0838 27.5577 34.0878C26.3241 34.0898 24.4566 34.0958 23.0408 34.098C19.1291 34.1041 14.9209 34.1072 11.3534 34.1122C10.5494 34.1133 9.74589 34.1146 8.94287 34.1159L8.76636 34.1154L8.76686 33.9399C8.75926 29.3629 8.74869 24.8002 8.7519 20.2271C8.73242 22.742 8.73905 26.1664 8.74033 28.9662C8.74115 30.6049 8.74282 32.2652 8.74499 33.9399L8.74443 34.1372L8.94287 34.1378C15.5324 34.1291 22.3459 34.1132 28.9542 34.1052C31.8378 34.1016 35.4736 34.0966 38.6305 34.0963C38.7737 34.0963 39.0704 34.0907 39.3799 34.0909C39.4456 34.0909 40.2608 34.0993 40.5355 34.099C40.2752 34.0826 41.3512 34.0962 41.6838 34.0953C42.1033 34.0942 42.9781 34.0848 43.9598 34.0882C44.8506 34.0912 44.6049 34.0977 44.6541 34.098C44.9692 34.1001 45.0791 34.09 45.3205 34.0886C46.3068 34.0834 51.3799 34.0824 52.7957 34.0808C53.1616 34.0804 53.172 34.0862 53.2544 34.0861C53.4727 34.0859 53.7835 34.0796 54.1332 34.0792C54.7637 34.0785 55.49 34.0829 55.8371 34.0825C56.6672 34.0813 58.2423 34.0729 59.3211 34.0714C59.6245 34.0709 59.606 34.0767 59.7433 34.0765C60.3479 34.0755 61.9226 34.0667 62.6731 34.0657C63.8922 34.064 65.1462 34.0658 66.3855 34.0624C66.4641 34.0647 66.5426 34.067 66.6211 34.0692C66.745 34.0666 66.8689 34.0639 66.9929 34.0612C68.3019 34.0607 69.6256 34.0573 70.9429 34.0543L71.0569 34.0546L71.0572 33.9399C71.0554 33.1486 71.0538 32.3597 71.0529 31.5776C71.0526 31.3375 71.0552 30.149 71.0549 29.9508C71.0547 29.7859 71.0492 29.6237 71.0496 29.3793C71.0503 29.0369 71.0608 29.3591 71.0572 28.7998C71.0562 28.6494 71.0521 28.7952 71.0503 28.4931C71.0497 28.3934 71.0455 26.4567 71.0457 26.3525C71.0459 26.1791 71.0546 26.0243 71.0548 25.9795C71.0554 25.7467 71.0486 25.7567 71.0478 25.6005C71.0453 25.1397 71.0491 24.5377 71.0489 24.4628C71.0463 23.5575 71.0389 21.8652 71.0407 20.915C71.041 20.7836 71.0458 20.7994 71.0459 20.7763C71.0467 20.6274 71.0411 20.5349 71.0408 20.3933C71.0392 19.6312 71.0412 18.4377 71.041 17.6713C71.041 17.583 71.0382 17.3966 71.0383 17.2391C71.0384 16.3483 71.0428 16.6373 71.0429 16.5867C71.0431 16.4666 71.0385 16.2556 71.0378 15.9362C71.0359 15.1133 71.0344 13.5354 71.0335 12.6532C71.0328 11.9924 71.0375 12.0023 71.0375 11.959C71.0375 11.8663 71.0335 11.6088 71.0325 11.1737C71.0305 10.3366 71.0342 10.4319 71.0335 10.0878C71.0335 10.0589 71.0301 10.1092 71.0292 9.7274C71.0287 9.52289 71.0285 9.2477 71.0283 8.93994L71.0286 8.85473L70.9429 8.85448C70.1406 8.85488 69.1169 8.85464 68.5463 8.85558C68.2426 8.85607 68.1716 8.85932 67.8606 8.8598C67.3677 8.86055 66.2551 8.85878 66.1674 8.85893C66.1428 8.85896 66.0876 8.86253 65.943 8.86272C65.784 8.86294 65.6275 8.86137 65.5089 8.86155C64.8337 8.86256 63.6703 8.86999 63.9936 8.85756C63.7772 8.86085 63.5608 8.8641 63.3444 8.86731C61.9301 8.86863 60.5561 8.87162 59.1548 8.874C58.8396 8.87453 58.5765 8.87283 58.3105 8.87329C58.0445 8.87377 56.8711 8.87862 56.675 8.87891C56.325 8.87947 54.3363 8.88233 54.089 8.88242C53.606 8.8826 53.1374 8.87924 52.9407 8.88029C52.7831 8.88113 52.9289 8.88317 52.6281 8.88418C52.1074 8.88591 51.2226 8.88425 51.0636 8.88452C50.9957 8.88463 51.1228 8.88613 50.4868 8.88706C50.144 8.88756 49.96 8.88601 49.8356 8.88618C49.797 8.88624 49.855 8.88906 49.1765 8.88952C48.708 8.88983 48.5082 8.88793 48.459 8.88799C48.3852 8.88808 48.2071 8.89059 47.9107 8.89088C47.218 8.89153 45.9515 8.89067 45.2935 8.89139C45.1663 8.89152 45.2096 8.89401 44.7021 8.89442C44.3392 8.89472 44.4026 8.89266 44.2667 8.89276C44.0512 8.89293 43.7302 8.89575 43.2545 8.89626C42.6558 8.89685 38.2103 8.90043 37.9803 8.9003C37.8255 8.90015 37.646 8.90038 37.5694 8.89962C37.6351 8.89869 37.7008 8.89776 37.7665 8.89682C38.4473 8.89878 38.1726 8.89579 38.3533 8.89529C38.6151 8.89457 39.6015 8.89353 39.8401 8.89236C39.9251 8.89194 39.7305 8.89034 40.1873 8.8886C40.6774 8.8867 40.8954 8.88989 41.0906 8.88471C41.7862 8.88899 42.4544 8.88203 41.6488 8.88186C41.1992 8.88171 36.7882 8.888 35.8874 8.88951C35.1571 8.8907 33.7892 8.89438 32.8912 8.89574C32.3634 8.89655 31.0634 8.89877 31.1183 8.8969C30.6498 8.89759 31.1457 8.89839 31.0473 8.89883C30.8417 8.89971 29.3793 8.90126 29.1025 8.90185C27.7373 8.90472 26.0146 8.90933 24.6885 8.91017C24.7502 8.90972 24.812 8.90926 24.8737 8.90879C25.1716 8.90756 26.5541 8.90582 26.7103 8.90367C24.6885 8.9078 22.6667 8.91192 20.6449 8.91605C20.6825 8.91704 18.1748 8.92187 18.0563 8.92176C18.1003 8.92129 18.1443 8.92081 18.1883 8.92032C19.6054 8.91895 19.4783 8.91703 20.4299 8.91627C20.8172 8.91549 20.7003 8.91491 20.8912 8.91434C22.791 8.90858 20.9216 8.91607 22.376 8.91225C21.9382 8.91182 23.1293 8.90875 23.663 8.90736C23.7845 8.90704 25.3799 8.90392 25.5693 8.90349C26.6337 8.90105 28.4615 8.89586 29.5187 8.89465C30.3516 8.89296 30.8101 8.89039 31.5664 8.88826C32.1404 8.88666 31.9758 8.88821 32.2461 8.88762C32.813 8.88641 32.9995 8.88218 33.3625 8.88665C33.7468 8.88515 34.1311 8.88362 34.5154 8.88206C34.5154 8.88292 34.5154 8.88378 34.5154 8.88464C34.7568 8.88412 34.9982 8.8836 35.2396 8.88307C35.3106 8.88204 35.3816 8.881 35.4527 8.87995C36.2188 8.87944 35.8989 8.88237 36.0421 8.88464C36.2076 8.88448 36.3731 8.88432 36.5386 8.88417C36.6667 8.88189 36.7948 8.87958 36.9229 8.87725C37.6619 8.87576 38.4009 8.87428 39.1398 8.87282C39.1876 8.87373 39.2354 8.87464 39.2832 8.87555C39.2848 8.87453 39.2863 8.87351 39.2879 8.87249C40.5393 8.8695 41.7907 8.86648 43.0421 8.86344C43.3749 8.86082 41.3699 8.8641 41.2181 8.86437C40.3734 8.86582 38.1305 8.87264 38.1276 8.86917C37.6026 8.87306 36.022 8.87601 35.5303 8.87441C36.2766 8.87274 37.0229 8.87108 37.7692 8.86944C37.7451 8.86835 37.721 8.86725 37.6968 8.86616C38.6267 8.86845 38.7627 8.86811 39.7186 8.86097C39.7195 8.86263 39.7204 8.86428 39.7213 8.86593C40.3878 8.85844 41.566 8.86569 41.5997 8.85813C41.9546 8.85785 42.3095 8.85759 42.6644 8.85735C43.4307 8.85451 42.2407 8.85145 45.2411 8.8461C45.4479 8.84575 45.4048 8.848 45.7157 8.84707C45.8054 8.84681 46.3188 8.84232 47.3007 8.84008C47.454 8.83973 47.4656 8.84167 47.6247 8.84152C47.9919 8.84119 48.7234 8.83534 48.3913 8.84268C49.8459 8.84102 49.2431 8.83708 49.6943 8.83373C49.995 8.83149 49.9344 8.83564 50.1947 8.83407C50.5168 8.83211 50.2804 8.82864 51.57 8.82711C51.4253 8.82778 51.2806 8.82844 51.1359 8.8291C51.2087 8.83004 51.2815 8.83098 51.3543 8.83192C52.0904 8.8273 52.0208 8.83152 52.3679 8.82412C52.9029 8.82559 53.3659 8.82467 54.0976 8.82221C55.5192 8.81748 54.7904 8.81172 56.4128 8.81771C56.6757 8.81558 56.9385 8.81343 57.2013 8.81126C57.6334 8.81322 57.2839 8.81802 57.9288 8.81719C57.4241 8.81073 58.7848 8.81006 59.0147 8.80235C59.0388 8.80397 59.063 8.80559 59.0871 8.80721C59.2311 8.80683 59.3752 8.80645 59.5192 8.80607C59.5196 8.8047 59.5201 8.80334 59.5205 8.80197C59.7123 8.80247 59.9042 8.80298 60.096 8.8035C60.2402 8.80175 60.3845 8.79998 60.5288 8.79821C60.7659 8.80047 61.0031 8.80277 61.2403 8.80511C61.3892 8.80493 61.5381 8.80475 61.687 8.80457C61.6399 8.80257 61.5928 8.80057 61.5456 8.79858C61.737 8.79878 61.9284 8.79898 62.1198 8.79919C61.8971 8.79627 62.0371 8.79181 62.6329 8.79024C63.1245 8.78896 62.5707 8.79792 63.6278 8.79195C63.7016 8.79153 63.8321 8.78581 64.8312 8.78213C66.0295 8.77772 65.4474 8.78339 65.6609 8.78293C65.7029 8.78284 66.0689 8.77901 66.4116 8.77763C66.6062 8.77684 66.7935 8.77862 66.8192 8.77855C66.9392 8.77811 66.9742 8.77473 67.1404 8.77414C67.5626 8.77265 68.1294 8.77267 68.543 8.77134C68.731 8.77073 68.9078 8.76823 68.9917 8.76796C69.1218 8.76756 69.2869 8.77017 69.4185 8.76979C69.9043 8.76841 70.6418 8.75579 70.8674 8.76973C70.8913 8.76898 70.9165 8.7683 70.9429 8.76769L71.1156 8.76819L71.1151 8.93994C71.1265 9.42887 71.1147 10.3064 71.1232 10.2385C71.1231 11.4867 71.1446 14.8158 71.1278 14.7182C71.1439 15.4251 71.1335 15.362 71.1345 15.6581C71.1357 15.9892 71.138 15.8177 71.1386 16.0809C71.14 16.6954 71.1405 17.2826 71.1421 17.8943C71.1395 17.7982 71.1369 17.7022 71.1342 17.6062C71.1352 18.2483 71.1401 18.0272 71.143 18.6822C71.1484 19.8868 71.1425 19.3792 71.1366 19.557C71.1426 19.5093 71.1455 20.9297 71.1451 21.0743C71.1448 21.1606 71.1357 20.7826 71.1407 21.6525C71.143 21.6049 71.1454 21.5573 71.1478 21.5098C71.1454 21.9061 71.1528 22.9825 71.1524 23.1652C71.1523 23.249 71.1327 23.6977 71.1502 24.1084C71.1478 24.1579 71.1453 24.2075 71.1429 24.257C71.1472 24.713 71.1515 25.1691 71.1559 25.6251C71.1514 25.6978 71.1468 25.7706 71.1422 25.8434C71.1426 25.9881 71.1429 26.1328 71.1433 26.2775C71.1473 26.1815 71.1513 26.0855 71.1553 25.9895C71.1557 26.8829 71.1656 27.9745 71.1513 28.1586C71.1545 28.35 71.1578 28.5414 71.161 28.7328C71.1564 28.8573 71.1518 28.9819 71.1472 29.1065C71.1506 29.9927 71.154 30.0073 71.1609 30.6132C71.1569 30.5895 71.153 30.5658 71.149 30.5422C71.1556 30.989 71.1629 31.8048 71.1653 32.4498C71.1664 32.7564 71.1622 33.2829 71.1629 33.3552C71.1633 33.4012 71.173 33.703 71.1754 33.9399L71.1747 34.1731L70.9429 34.1724C70.8034 34.1739 70.6864 34.1727 70.6575 34.1657C69.5989 34.177 69.1329 34.1695 68.7034 34.1708C68.4243 34.1716 68.2971 34.1767 67.9818 34.178C67.5307 34.1799 67.0766 34.1788 66.8163 34.1798C66.6673 34.1804 66.6395 34.1852 66.5368 34.1856C66.0514 34.1877 66.3358 34.1821 65.824 34.1837C65.7768 34.1839 65.4026 34.1907 64.981 34.1911C64.7453 34.1914 64.1353 34.1864 64.0816 34.1865C63.843 34.1872 64.0337 34.2001 63.2181 34.1868C63.2417 34.1893 63.2654 34.1918 63.2891 34.1943C62.2797 34.2035 62.1203 34.1925 61.9164 34.1922C61.8904 34.1922 61.6446 34.1973 61.4976 34.1971C61.2492 34.1967 61.149 34.1908 61.094 34.1907C60.9003 34.1902 60.2476 34.1947 59.821 34.1897C59.9106 34.2071 58.4157 34.2178 58.0846 34.1982C57.82 34.2029 57.5553 34.2077 57.2907 34.2124C57.171 34.2094 57.0513 34.2063 56.9316 34.2032C56.8588 34.2068 56.786 34.2104 56.7132 34.214C56.3276 34.2075 55.9419 34.201 55.5563 34.1944C55.5318 34.202 55.5072 34.2097 55.4826 34.2173C55.3747 34.2168 55.2667 34.2162 55.1587 34.2156C55.0744 34.2098 54.9901 34.204 54.9058 34.1981C54.7709 34.1996 54.6359 34.2011 54.5009 34.2026C54.4675 34.2071 54.4341 34.2116 54.4007 34.2161C53.6752 34.2232 54.048 34.1797 52.6656 34.2207C52.4506 34.2177 52.2355 34.2148 52.0205 34.2118C51.7776 34.2297 51.3224 34.2204 50.9551 34.2234C50.6963 34.2254 50.7104 34.2323 50.3578 34.2335C50.0049 34.2346 50.0175 34.2278 49.99 34.2279C49.7024 34.2282 49.4856 34.2347 49.2745 34.2341C49.2427 34.234 49.1631 34.2262 48.8942 34.2264C48.6252 34.2266 48.4631 34.2356 48.0625 34.2351C47.8572 34.2348 47.7979 34.2282 47.6158 34.228C46.7481 34.2272 45.8744 34.2649 45.2236 34.2247C45.0769 34.2303 44.0129 34.2519 43.5576 34.2521C42.8494 34.2523 43.1223 34.2431 42.8407 34.2423C42.8002 34.2422 42.5846 34.2456 41.9904 34.2467C41.8841 34.2469 41.9088 34.2516 41.8935 34.2517C41.2009 34.2535 39.8559 34.2533 39.0951 34.2546C39.0272 34.2546 38.6713 34.2694 38.0683 34.2524C37.1747 34.2687 35.4914 34.2431 34.3128 34.2673C34.1494 34.2682 33.951 34.2636 33.8787 34.264C33.2554 34.2671 33.4838 34.2823 32.0752 34.263C32.1893 34.2707 31.8597 34.2788 31.3942 34.2795C30.6943 34.2804 31.1915 34.264 30.6289 34.2667C30.6289 34.271 30.6289 34.2752 30.6289 34.2795C29.3348 34.2714 29.0773 34.2905 27.7787 34.2942C27.3116 34.2955 26.6216 34.2876 26.5103 34.2878C26.4672 34.288 25.9564 34.3 25.9076 34.3002C25.6328 34.3013 25.4777 34.2968 25.2405 34.2974C24.4568 34.2994 23.5215 34.316 23.6907 34.2899C23.4752 34.2959 23.2597 34.3019 23.0442 34.3079C22.23 34.2825 21.6211 34.3223 21.4505 34.2958C21.3049 34.3017 21.1593 34.3077 21.0137 34.3137C17.5217 34.3204 14.0297 34.3269 10.5376 34.3332C10.4218 34.3413 9.34266 34.3432 8.94287 34.3429L8.53877 34.3417L8.53992 33.9399C8.53999 33.8605 8.54015 33.8079 8.54036 33.795C8.5461 33.4364 8.56786 33.8152 8.56125 33.0835C8.55191 33.0025 8.54256 32.9215 8.5332 32.8405C8.5277 31.9208 8.53803 32.3632 8.54329 32.0002C8.54176 31.8485 8.53475 31.8975 8.53367 31.6922C8.52781 30.5787 8.52123 28.2954 8.51731 27.0778C8.51651 26.8322 8.52351 26.8693 8.52332 26.793C8.5227 26.5834 8.51286 26.1697 8.51169 25.7489C8.50461 23.1474 8.4995 19.4609 8.50031 16.842C8.50037 16.6641 8.50908 16.6421 8.50921 16.522C8.50935 16.3557 8.50127 15.9841 8.50155 15.8092C8.50179 15.6444 8.50821 15.5388 8.50854 15.3625C8.51016 14.5555 8.49582 13.4706 8.5137 12.6072C8.51517 12.5346 8.54925 11.63 8.55164 11.6096C8.56558 11.4895 8.58935 12.2934 8.60749 10.973C8.62793 12.1531 8.65885 11.7845 8.67222 10.2515C8.67749 11.0204 8.6827 11.7892 8.68785 12.5581C8.69162 12.5592 8.69539 12.5603 8.69915 12.5614C8.71682 11.8615 8.72223 11.1671 8.72261 10.1028C8.72619 10.136 8.72977 10.1692 8.73334 10.2024C8.75212 11.1424 8.75661 12.2763 8.78102 12.9922C8.79757 11.9423 8.81444 10.8925 8.83163 9.84265C8.83446 9.89509 8.83728 9.94753 8.84011 9.99996C8.84766 10.5032 8.85247 11.6025 8.85935 12.0204C8.88546 13.6167 8.87786 10.6234 8.89369 11.1151C8.89361 12.8004 8.89354 14.4856 8.89349 16.1709C8.90435 16.23 8.93473 9.74666 8.97019 9.81345C8.97246 10.3431 8.9747 10.8728 8.97692 11.4025C8.98577 11.1664 8.99466 10.9303 9.00359 10.6943C9.00636 10.7593 9.00914 10.8243 9.01191 10.8894C9.01841 11.783 9.0248 12.6767 9.03109 13.5703C9.02571 10.8533 9.03096 9.59074 9.10192 8.93994C9.10364 9.01362 9.10536 9.0873 9.10708 9.16097C9.06256 9.74956 9.07493 12.5279 9.08212 14.0044C9.0949 13.7035 9.08632 12.4034 9.09415 12.1286C9.09641 12.0508 9.10493 12.3223 9.1096 12.1419C9.12168 11.6705 9.13909 9.66156 9.1533 9.9535C9.16247 10.1415 9.17085 13.3739 9.16899 14.0044C9.18736 12.5265 9.19433 11.0037 9.21702 9.52139C9.24401 10.457 9.2769 11.2857 9.27502 12.9935C9.28847 13.5141 9.31645 9.89865 9.3249 9.81477C9.33224 10.4405 9.33949 11.0662 9.34664 11.6919C9.34559 11.1626 9.34451 10.6334 9.34341 10.1042C9.34633 10.1026 9.34924 10.1011 9.35216 10.0995C9.36247 11.4705 9.3837 12.7247 9.37795 14.2938C9.3931 14.2432 9.39412 13.3043 9.39546 12.8488ZM28.8855 8.89197C28.8538 8.89058 29.4291 8.88939 29.753 8.88863C29.7043 8.88847 29.6556 8.88831 29.607 8.88815C30.2982 8.88669 31.585 8.88418 31.6327 8.88078C32.1259 8.87909 31.9078 8.88252 32.0668 8.88245C32.129 8.88245 32.7727 8.87908 33.2875 8.87994C33.4099 8.87963 33.5322 8.87931 33.6546 8.879C33.6782 8.87778 33.7019 8.87656 33.7256 8.87533C33.8962 8.8763 34.0668 8.8773 34.2373 8.87833C32.4543 8.88293 30.6712 8.88747 28.8881 8.89196C28.8872 8.89196 28.8863 8.89197 28.8855 8.89197ZM46.6589 8.84692C47.3082 8.84631 48.3028 8.84556 48.1019 8.841C47.6917 8.8423 47.2815 8.8436 46.8713 8.84488C46.8005 8.84557 46.7297 8.84625 46.6589 8.84692ZM55.632 34.1819C55.0897 34.1702 54.5903 34.1826 53.7516 34.1822C53.7527 34.185 53.7538 34.1877 53.7549 34.1905C54.0979 34.183 55.0045 34.1853 55.632 34.1819ZM12.7734 8.93258C12.6539 8.93277 12.5345 8.93297 12.415 8.93317C12.9009 8.93169 12.9879 8.93186 13.5374 8.93072C13.5705 8.93065 13.559 8.93052 13.5706 8.93049C13.7051 8.93021 13.8294 8.93015 13.9509 8.9299C14.1852 8.92943 14.3762 8.92883 14.7912 8.92798C15.1122 8.92733 15.1152 8.92772 15.228 8.92749C15.3241 8.92733 16.2765 8.92414 16.8894 8.9234C18.055 8.92231 13.1292 8.93199 12.7734 8.93258ZM9.31856 8.93917C9.43384 8.93894 9.5491 8.9387 9.66437 8.93847C9.31775 8.93922 10.0173 8.93784 10.5306 8.93683C10.5147 8.93701 9.42878 8.93901 8.94287 8.93994C9.0681 8.93971 9.19333 8.93945 9.31856 8.93917ZM23.896 8.91242C23.4449 8.91338 23.5201 8.91156 23.5389 8.91101C23.6825 8.91073 23.8261 8.91045 23.9697 8.91016C23.9451 8.91092 23.9205 8.91167 23.896 8.91242ZM20.5035 8.91913C20.6438 8.91798 21.623 8.91569 22.0873 8.9147C22.1075 8.91466 21.98 8.91547 22.3083 8.9148C22.4069 8.91464 23.3766 8.91053 23.1632 8.91348C22.2771 8.91542 21.391 8.9173 20.5049 8.91913C20.5044 8.91913 20.504 8.91913 20.5035 8.91913ZM19.5145 8.92042C19.6991 8.91981 19.8836 8.9192 20.0681 8.91857C20.1635 8.9188 20.2588 8.91904 20.3542 8.91929C20.1442 8.91977 19.9343 8.92025 19.7243 8.92073C19.6544 8.92062 19.5844 8.92052 19.5145 8.92042ZM8.68267 33.5375C8.67683 33.5804 8.67099 33.6233 8.66515 33.6662C8.66416 33.7157 8.66588 33.8218 8.66889 33.9399L8.66811 34.2131L8.94287 34.2139C9.22207 34.2068 9.56789 34.1925 9.38801 34.1893C9.23963 34.1912 9.09125 34.1931 8.94287 34.195L8.68709 34.1943L8.68782 33.9399C8.68611 33.8058 8.68439 33.6716 8.68267 33.5375ZM8.68943 30.1231C8.69221 29.9549 8.695 29.7868 8.69779 29.6186C8.68717 29.4253 8.67652 29.2319 8.66582 29.0385C8.66035 29.8785 8.65411 30.7723 8.68402 30.6282C8.68435 30.8205 8.68467 31.0128 8.685 31.205C8.67229 31.0431 8.66819 31.0649 8.66125 31.5681C8.67871 31.6781 8.67085 32.1985 8.67569 32.7941C8.67592 32.3608 8.67616 31.9276 8.67641 31.4944C8.67945 31.4944 8.6825 31.4944 8.68554 31.4944C8.68606 32.46 8.70339 31.2599 8.69022 30.6309C8.69422 30.5813 8.69822 30.5317 8.70222 30.4822C8.69797 30.3625 8.6937 30.2428 8.68943 30.1231ZM71.0839 29.9607C71.0825 30.0804 71.081 30.2001 71.0795 30.3198C71.1022 30.7837 71.0799 29.8393 71.0959 29.1669C71.0832 29.389 71.082 28.364 71.081 28.3053C71.0769 28.4232 71.0727 28.5412 71.0686 28.6591C71.0736 29.093 71.0787 29.5268 71.0839 29.9607ZM71.074 33.3538C71.0788 33.1667 71.0823 33.4784 71.0845 33.9399L71.0841 34.082L70.9429 34.0816C70.3808 34.0843 69.5967 34.0852 69.2211 34.0844C69.0547 34.084 68.7583 34.0781 68.6383 34.0791C68.5655 34.0816 68.4927 34.0841 68.4199 34.0866C68.3337 34.0784 66.998 34.0899 66.4718 34.0953C66.4222 34.0923 66.3727 34.0894 66.3231 34.0864C66.1313 34.0879 65.9395 34.0894 65.7476 34.091C65.7718 34.0878 65.7959 34.0847 65.82 34.0816C65.6749 34.0855 65.5297 34.0895 65.3846 34.0934C64.8148 34.0985 65.1661 34.081 64.7381 34.087C64.2623 34.0937 65.0419 34.1025 65.0275 34.1091C65.4136 34.1067 66.2917 34.1013 66.6835 34.1005C66.9086 34.1 66.6535 34.1119 67.6234 34.097C67.836 34.0997 68.0487 34.1024 68.2613 34.105C68.6516 34.0995 69.0419 34.094 69.4322 34.0886C69.505 34.0926 69.5777 34.0966 69.6505 34.1006C69.6922 34.1012 70.5948 34.0902 70.5466 34.0872C70.6503 34.0893 70.7851 34.0908 70.9429 34.0918L71.0943 34.0922L71.0947 33.9399C71.0973 33.5414 71.0971 32.9956 71.0964 32.4292C71.0941 32.3531 71.0918 32.277 71.0894 32.2009C71.0955 32.9657 71.0876 32.4442 71.0838 32.6722C71.0816 32.8038 71.0775 33.2063 71.074 33.3538ZM13.8684 34.1761C12.5842 34.1947 13.3793 34.1798 11.9913 34.182C12.0882 34.1907 12.1851 34.1994 12.282 34.208C12.9644 34.1907 14.0874 34.1994 13.8697 34.1761C13.8693 34.1761 13.8688 34.1761 13.8684 34.1761ZM8.65276 25.283C8.65987 26.0175 8.67403 25.6489 8.68032 26.58C8.68032 26.5804 8.68032 26.5808 8.68032 26.5813C8.68057 26.0998 8.68084 25.6184 8.68111 25.1369C8.67165 25.1856 8.6622 25.2343 8.65276 25.283ZM43.225 34.1426C43.9293 34.1444 43.7907 34.1393 44.4297 34.1488C45.3813 34.1342 44.5758 34.1375 44.5758 34.1257C44.3583 34.1295 44.1408 34.1333 43.9233 34.1372C43.396 34.127 43.8961 34.1206 43.8961 34.1195C43.8956 34.1195 43.8952 34.1195 43.8948 34.1195C43.8948 34.116 43.9118 34.1152 43.7096 34.1134C43.5481 34.1231 43.3865 34.1328 43.225 34.1426ZM46.2392 34.123C45.9976 34.1311 45.889 34.1412 46.5239 34.145C46.5243 34.145 46.5248 34.145 46.5252 34.145C46.5762 34.1277 47.1849 34.1405 47.4625 34.1388C47.5352 34.1368 47.608 34.1349 47.6808 34.1329C47.2003 34.1297 46.7197 34.1264 46.2392 34.123ZM56.8593 34.0913C56.862 34.1084 56.3291 34.1111 57.079 34.1255C57.2246 34.125 57.3701 34.1244 57.5157 34.1238C57.6113 34.1199 57.7069 34.116 57.8025 34.1121C59.6492 34.1394 60.1998 34.0866 57.079 34.1113C57.0785 34.1113 57.0781 34.1113 57.0776 34.1113C57.0049 34.1047 56.9321 34.098 56.8593 34.0913ZM53.6069 34.0977C53.5834 34.107 53.56 34.1164 53.5365 34.1257C53.1287 34.1039 52.6018 34.1264 51.8021 34.1117C51.7298 34.1146 51.6574 34.1177 51.5851 34.1207C51.2862 34.1148 48.3505 34.1177 48.9864 34.1316C49.2641 34.1377 49.8689 34.1278 49.921 34.1279C50.0974 34.1283 50.3275 34.1362 50.6253 34.1351C50.7974 34.1345 51.1601 34.1242 51.5114 34.1237C52.2966 34.1225 53.7299 34.145 54.7625 34.1194C54.8368 34.1221 54.9111 34.1247 54.9855 34.1273C55.7517 34.1242 55.4959 34.116 56.2088 34.1251C56.7013 34.0811 53.343 34.1322 54.0423 34.0955C54.0418 34.0955 54.0414 34.0955 54.041 34.0955C53.8963 34.0962 53.7516 34.097 53.6069 34.0977ZM32.5107 34.1455C32.4644 34.136 31.5757 34.1522 31.7845 34.1289C31.4944 34.1373 31.2044 34.1458 30.9143 34.1544C30.9165 34.1565 30.9187 34.1587 30.921 34.1608C31.2093 34.1587 31.4975 34.1565 31.7858 34.1543C31.7869 34.1577 31.788 34.1611 31.7892 34.1645C32.2187 34.1514 34.0116 34.1538 33.957 34.1656C34.0528 34.1605 34.1486 34.1553 34.2444 34.1502C35.102 34.1622 35.8398 34.1466 36.774 34.158C36.8463 34.1538 36.9187 34.1497 36.991 34.1455C37.0381 34.1487 37.0853 34.1518 37.1324 34.155C37.4727 34.1548 37.813 34.1546 38.1533 34.1544C39.2622 34.1396 37.1076 34.1263 36.8463 34.1286C36.8116 34.1289 36.817 34.1373 36.6001 34.139C36.2148 34.142 34.0582 34.137 33.3915 34.1438C33.3857 34.138 33.38 34.1323 33.3742 34.1265C33.0864 34.1328 32.7985 34.1391 32.5107 34.1455ZM60.9799 34.1028C61.0286 34.1072 61.0772 34.1117 61.1259 34.1162C61.9659 34.1101 62.4949 34.1131 62.2795 34.0986C62.2791 34.0986 62.2786 34.0986 62.2782 34.0986C61.8454 34.1 61.4126 34.1014 60.9799 34.1028ZM43.4775 8.88057C43.4995 8.88374 43.9011 8.88435 44.42 8.88113C44.395 8.88021 44.37 8.87929 44.345 8.87837C44.0746 8.88164 43.7371 8.87735 42.9027 8.8795C42.9027 8.8811 42.9027 8.88269 42.9027 8.88429C43.0943 8.88306 43.2859 8.88183 43.4775 8.88057ZM60.2551 34.102C59.999 34.097 59.2804 34.1147 59.7533 34.1147C60.1148 34.1147 60.3924 34.1047 60.2551 34.102ZM8.66203 22.3936C8.66078 22.5835 8.65954 22.7733 8.65831 22.9631C8.66488 23.062 8.67144 23.1609 8.67799 23.2598C8.67799 23.2594 8.67799 23.259 8.67799 23.2585C8.6727 22.9702 8.66737 22.6819 8.66203 22.3936ZM40.8176 34.1478C41.4614 34.146 42.1053 34.1441 42.7491 34.1423C42.7555 34.1393 42.7619 34.1363 42.7684 34.1333C42.1234 34.1454 41.8641 34.134 41.7137 34.1335C41.7143 34.1335 41.715 34.1335 41.7156 34.1335C41.2327 34.1319 40.7727 34.1309 40.3158 34.1279C40.483 34.1346 40.6503 34.1412 40.8176 34.1478ZM38.6106 34.1321C38.7191 34.1539 38.8607 34.1561 39.8498 34.1391C39.8107 34.1365 39.7715 34.1338 39.7323 34.1312C39.2198 34.1336 38.9208 34.1392 39.0108 34.1276C38.8774 34.1291 38.744 34.1306 38.6106 34.1321ZM48.6931 34.1223C48.5743 34.1161 47.6323 34.1241 47.6835 34.1272C47.7037 34.1285 48.9244 34.1344 48.6931 34.1223ZM36.3255 8.89398C36.5426 8.89399 36.7596 8.894 36.9767 8.89402C36.6879 8.89505 36.3992 8.89607 36.1105 8.89707C36.1821 8.89605 36.2538 8.89502 36.3255 8.89398ZM33.9426 8.90453C33.7879 8.90419 34.291 8.89922 33.3658 8.89969C34.0391 8.89849 34.7124 8.89729 35.3856 8.89608C35.0699 8.89731 34.7542 8.89852 34.4385 8.8997C34.4936 8.90082 34.5486 8.90196 34.6037 8.9031C34.3834 8.90358 34.163 8.90406 33.9426 8.90453ZM33.2198 8.90261C33.5824 8.90517 31.6732 8.90806 31.4954 8.90797C31.4557 8.90794 31.2674 8.90607 31.198 8.90573C31.4863 8.90528 31.7746 8.90483 32.0629 8.90439C31.9664 8.90384 31.8699 8.9033 31.7735 8.90277C32.1109 8.90199 32.4483 8.9012 32.7857 8.90039C32.6414 8.90135 32.4972 8.90229 32.3529 8.90323C32.6419 8.90301 32.9308 8.90281 33.2198 8.90261ZM40.8796 8.88985C40.6382 8.89013 40.3968 8.89041 40.1554 8.8907C40.2036 8.89209 40.2519 8.89348 40.3001 8.89489C40.4446 8.89468 40.589 8.89447 40.7335 8.89427C40.7822 8.8928 40.8309 8.89133 40.8796 8.88985ZM35.9611 8.89921C36.3125 8.89245 37.2702 8.9047 36.1509 8.90124C36.0381 8.90089 35.9279 8.89985 35.9611 8.89921ZM30.7798 8.90839C30.0293 8.91301 30.1986 8.90498 30.9073 8.90617C30.9429 8.90624 30.8362 8.90805 30.7798 8.90839ZM25.1525 8.91661C25.0917 8.91666 24.9854 8.91496 24.4051 8.91757C24.3093 8.9175 24.2135 8.91744 24.1177 8.91738C24.3419 8.91624 26.2598 8.91267 25.9948 8.91509C25.7012 8.91555 25.4562 8.91623 25.1525 8.91661ZM27.0097 8.92182C27.2975 8.92147 27.5854 8.92112 27.8732 8.92076C27.7783 8.92016 27.6834 8.91957 27.5885 8.91899C27.7301 8.91864 27.8717 8.91829 28.0133 8.91793C28.2553 8.91887 28.4974 8.91985 28.7394 8.92088C28.1137 8.92168 27.488 8.92247 26.8623 8.92323C26.9114 8.92276 26.9606 8.92229 27.0097 8.92182ZM34.6628 8.91648C34.1089 8.91581 33.4303 8.9177 32.5308 8.91831C32.5304 8.91831 32.5299 8.91831 32.5295 8.91831C32.4846 8.91833 32.4051 8.91721 32.2607 8.91731C32.1376 8.91743 29.7083 8.92092 29.8977 8.91893C30.8376 8.91632 31.1888 8.91855 31.4144 8.91402C31.4602 8.91487 31.506 8.91573 31.5518 8.91659C32.4556 8.91728 32.7135 8.91378 33.2211 8.91193C33.2191 8.91267 33.2171 8.91341 33.2152 8.91415C33.5541 8.91387 33.8931 8.91358 34.232 8.9133C34.1842 8.91285 34.1364 8.91239 34.0887 8.91195C34.2086 8.91181 34.3285 8.91168 34.4484 8.91154C34.7405 8.91351 35.1109 8.91374 34.6628 8.91648ZM25.7041 8.92229C25.438 8.9264 22.8449 8.92622 21.6605 8.92808C22.2823 8.9257 23.2457 8.92594 23.9239 8.92535C25.235 8.92411 24.3287 8.92367 24.5511 8.92287C24.661 8.92243 25.4047 8.92406 25.7041 8.92229ZM36.6859 8.91352C36.0323 8.91365 35.6663 8.91539 35.1009 8.91372C35.1482 8.91323 35.1956 8.91274 35.2429 8.91225C35.4366 8.91242 37.0155 8.91216 36.6859 8.91352ZM19.9247 8.92904C21.1872 8.92876 20.5645 8.92689 21.2211 8.92813C20.7889 8.92867 20.3568 8.92919 19.9247 8.9297C19.9247 8.92948 19.9247 8.92926 19.9247 8.92904ZM58.8101 34.0184C58.278 34.0183 57.6838 34.0145 57.3657 34.0235C57.7272 34.0246 58.0888 34.0256 58.4503 34.0266C58.5702 34.0239 58.6901 34.0211 58.8101 34.0184ZM70.938 30.9006C70.9362 31.0221 70.9414 31.5025 70.9414 31.5531C70.9414 31.6471 70.9388 31.6214 70.9381 31.6228C70.9386 32.2383 70.9466 31.6704 70.9483 32.1259C70.9486 32.2038 70.9447 33.2737 70.945 33.709C70.9451 33.7862 70.9451 33.8634 70.9451 33.9399C70.3556 33.9425 69.8068 33.9421 69.5855 33.9422C69.1632 33.9425 68.3792 33.9488 67.6852 33.9492C67.399 33.9494 67.2991 33.9443 67.0114 33.9444C65.1647 33.9453 61.5291 33.9531 59.8906 33.9498C59.4858 33.949 59.0998 33.9417 58.8857 33.9423C58.7169 33.945 58.5481 33.9476 58.3793 33.9504C57.8601 33.9261 57.6864 33.9477 57.1268 33.9501C56.7712 33.9515 56.605 33.9443 56.5573 33.9443C56.2406 33.9444 56.0844 33.9479 55.8358 33.9485C55.5566 33.9492 55.1556 33.9459 55.0558 33.9465C54.9946 33.9469 55.1902 33.9567 54.1073 33.9567C53.0037 33.9567 51.9142 33.9558 50.7919 33.9555C51.1662 33.9864 51.4886 33.9651 51.9468 33.9639C52.0697 33.9636 51.9918 33.9684 52.0988 33.9682C52.4011 33.9675 52.9797 33.9627 53.2298 33.9637C53.5 33.9649 53.4077 33.9761 53.7502 33.9718C53.7676 33.9716 53.7128 33.9671 53.7934 33.9663C54.6032 33.9585 54.8683 33.9664 55.8922 33.9664C56.5706 33.9663 60.6905 33.961 60.8319 33.9638C61.5694 33.9784 57.2281 33.9803 56.7205 33.9792C56.5428 33.9789 56.7292 33.9739 56.5672 33.973C56.4986 33.9726 55.8814 33.9823 55.2716 33.9833C54.534 33.9846 53.0519 33.9787 52.349 33.9791C46.3071 33.9836 40.3489 33.9794 34.3128 33.9811C34.1841 33.9812 34.0146 33.9881 33.5952 33.9883C25.7686 33.9914 17.6569 33.9882 9.73051 33.9948C9.46768 33.995 9.20519 33.9954 8.94287 33.9959L8.88678 33.9957L8.88694 33.9399C8.88432 32.4775 8.8788 31.0204 8.88357 29.5416C8.87728 29.3253 8.87097 29.1089 8.86462 28.8925C8.86983 29.446 8.85635 30.4602 8.85622 30.5525C8.85618 30.5858 8.86324 30.7957 8.86305 31.134C8.8628 31.6098 8.85694 31.8184 8.85696 31.8575C8.85701 31.9785 8.86332 31.8992 8.86335 32.0148C8.8635 32.73 8.865 33.3109 8.86577 33.9399L8.86555 34.0168L8.94287 34.017C9.07189 34.0169 9.20293 34.0168 9.33756 34.0167C10.2312 34.0162 10.6841 34.0274 11.3348 34.0145C11.4085 34.0193 11.4822 34.0242 11.5558 34.0291C12.042 34.0075 14.9371 34.0086 16.1099 34.0091C16.4799 34.0093 16.415 34.0176 16.5393 34.0176C16.6187 34.0175 16.5874 34.0066 17.5555 34.0083C18.0429 34.0091 18.1707 34.0169 18.4151 34.0165C18.5479 34.0163 18.5263 34.0086 18.7171 34.0085C19.8205 34.0079 20.7214 34.01 21.8016 34.0108C22.1053 34.011 22.1087 34.0174 22.1766 34.0172C22.4269 34.0168 22.8621 34.0059 23.4982 34.0056C24.5452 34.0052 26.6319 34.0042 27.488 34.0088C27.6138 34.0094 27.718 34.0167 27.8106 34.0165C27.9507 34.0162 28.0057 34.0086 28.0303 34.0086C28.4989 34.0082 28.217 34.0154 28.5308 34.0135C28.6999 34.0125 28.8763 34.0038 29.2695 34.0026C29.7887 34.0011 29.6865 34.0113 29.9034 34.0101C29.9263 34.01 29.9332 34.0029 30.1464 34.0026C30.9547 34.0014 32.1274 33.9992 32.8923 33.9989C33.1121 33.9988 33.2755 34.0033 33.582 34.0032C34.1995 34.0031 37.7094 33.9985 37.9973 34.0009C38.0276 34.0011 37.7155 34.011 38.213 34.0104C38.3575 34.0063 38.502 34.0022 38.6464 33.9981C38.888 34.0044 39.1296 34.0107 39.3713 34.0169C39.3626 33.9948 40.7839 33.9909 40.7698 34.0131C40.9253 34.014 41.0809 34.0148 41.2364 34.0156C41.5603 34 41.776 34.0055 42.402 33.9963C42.4996 34.0009 42.5971 34.0055 42.6947 34.0101C42.7192 34.007 42.7438 34.0039 42.7684 34.0007C43.1024 34.0173 43.6504 34.0002 43.7169 34.0001C43.9727 33.9996 44.165 34.0037 44.285 34.0035C44.7333 34.0028 45.7037 33.9965 46.2272 33.9989C46.2518 33.999 46.2276 34.006 46.3765 34.0068C46.6452 34.0082 46.6714 33.998 47.0297 34.0097C47.102 34.0067 47.1744 34.0037 47.2467 34.0006C47.3235 34.0021 47.4003 34.0036 47.4771 34.0051C47.9302 34.0041 48.3833 34.003 48.8364 34.002C48.4243 34.0138 48.8986 34.0199 49.3469 34.0105C49.4986 34.0074 49.364 34.0005 49.4146 33.9994C49.484 33.9979 51.5176 34.0004 51.6521 34.0047C51.7483 34.0025 51.8446 34.0003 51.9408 33.9981C51.9895 34.0023 52.0382 34.0066 52.0869 34.0108C52.1399 34.0093 52.1931 34.0078 52.2462 34.0062C52.7754 34.0134 54.1491 33.9954 54.3981 33.9967C54.5311 33.9973 54.4114 34.0152 55.0492 34.013C55.0713 34.0081 55.0935 34.0032 55.1156 33.9983C55.2616 33.9975 55.4076 33.9967 55.5537 33.996C55.8277 33.9963 56.2265 34.0044 56.2393 34.0101C56.3249 34.0066 56.4106 34.0031 56.4962 33.9997C56.7261 34.0107 57.9524 34.0058 58.4456 33.9986C58.5899 34.0019 58.7342 34.005 58.8784 34.0082C59.0722 34.0041 59.2661 34 59.4599 33.9959C59.9089 33.9945 59.4345 34.0013 59.5302 34.0018C59.7327 34.0028 60.7644 33.9912 60.6964 34.0049C60.8372 34.0049 60.9779 34.0048 61.1186 34.0047C61.1909 34.0008 61.2633 33.9969 61.3356 33.9929C61.5772 34.0062 61.9951 34.0012 62.8523 34.0055C62.9242 34.0024 62.9961 33.9993 63.0681 33.9962C63.3331 34.0004 63.5982 34.0045 63.8632 34.0086C63.9177 34.0035 63.9721 33.9985 64.0265 33.9935C64.1418 33.9928 64.2571 33.992 64.3723 33.9912C64.6065 34.0021 65.0271 33.99 65.2412 33.9944C65.5536 34.0008 65.312 34.0088 64.7321 34.0108C64.7755 34.0188 66.5029 34.0137 66.9013 34.0128C66.8749 34.0113 66.8486 34.0098 66.8223 34.0082C66.4149 34.0098 66.0076 34.0113 65.6003 34.0129C65.259 33.993 66.3651 33.9977 66.8727 33.9949C66.9191 33.9946 67.1822 33.987 67.6938 33.9874C67.8919 33.9876 68.6647 33.9979 68.8122 33.9984C70.0035 34.0024 69.1275 33.9879 70.2931 34.0004C70.107 33.9927 70.4561 33.9956 70.9429 33.9963L70.9991 33.9965L70.9992 33.9399C70.9995 33.7911 70.9995 33.6293 70.9989 33.466C70.9985 33.3474 70.9898 32.3412 70.9896 32.2732C70.9881 31.8495 70.9971 32.3108 70.9944 31.6978C70.9921 31.6241 70.9898 31.5504 70.9875 31.4767C70.9874 31.334 70.9874 31.1913 70.9873 31.0486C71.0068 30.1826 70.9919 29.9812 70.9899 29.6733C70.9891 29.5489 70.9943 29.7091 70.993 29.3866C70.9925 29.2651 70.9882 29.1305 70.9877 28.8038C70.9863 27.7815 71.0038 27.4345 70.9848 26.4946C70.9874 26.3503 70.99 26.2061 70.9925 26.0618C70.9893 25.9645 70.9861 25.8671 70.9829 25.7698C70.9916 25.0251 70.9824 25.294 70.9824 25.025C70.9823 24.3149 70.9833 22.8616 70.9905 22.7344C70.9735 22.1213 70.9918 21.3883 70.991 21.1467C70.9889 21.0031 70.9868 20.8595 70.9848 20.7159C70.9867 20.5471 70.9885 20.3783 70.9904 20.2095C70.9746 20.2915 70.9897 19.4172 70.9898 19.3333C70.99 19.2364 70.9845 17.8917 70.9843 17.3911C70.9841 16.8913 70.9877 16.0202 70.9876 15.9435C70.9876 15.8553 70.983 15.0044 70.9827 14.3392C70.9824 13.7571 70.9856 10.3086 70.9796 10.5259C70.9781 10.7515 70.9767 11.0726 70.9761 11.3503C70.9741 12.2123 70.973 17.2712 70.9724 18.564C70.9713 21.1568 70.9727 23.861 70.972 26.4654C70.972 26.6186 70.9675 26.6419 70.9675 26.7734C70.9674 26.9729 70.9721 27.4794 70.972 27.6761C70.9719 28.4107 70.9715 29.3045 70.9715 29.6979C70.9716 30.577 70.9689 31.18 70.9687 31.8451C70.9686 32.0534 70.9749 33.1061 70.9726 33.8278C70.9722 33.8652 70.9719 33.9025 70.9715 33.9399L70.9714 33.9686L70.9429 33.9685C70.8495 33.9676 70.7561 33.9666 70.6628 33.9657C70.7357 33.9654 70.8319 33.9649 70.9429 33.9644L70.9673 33.9645L70.9673 33.9399C70.9653 33.4857 70.9624 32.7844 70.962 32.4206C70.9612 31.7469 70.9649 31.3956 70.9648 31.1469C70.9647 30.9386 70.9601 29.8745 70.9599 29.3899C70.9598 29.2395 70.9647 29.2086 70.9646 29.0799C70.9643 28.3814 70.9639 27.4615 70.9592 26.8557C70.9608 27.103 70.9633 25.5587 70.9632 25.4777C70.9632 25.3389 70.9588 25.1883 70.9588 24.9049C70.9587 24.3599 70.9676 24.429 70.9585 23.7479C70.9611 23.5794 70.9636 23.4108 70.9661 23.2422C70.9545 23.2318 70.9695 21.1014 70.9556 20.4955C70.9541 20.4796 70.95 23.248 70.9497 23.4765C70.9484 24.8473 70.9516 26.876 70.9495 28.2064C70.9489 28.6068 70.9413 29.8657 70.9414 29.9607C70.9416 30.1139 70.946 29.9755 70.9462 30.0417C70.9496 31.3963 70.9406 30.7205 70.938 30.9006ZM33.2211 8.92025C33.6327 8.92007 34.0442 8.9199 34.4557 8.91973C34.4259 8.92062 34.396 8.9215 34.3661 8.92237C34.1776 8.92217 33.9891 8.92198 33.8006 8.92179C33.6557 8.92239 33.5107 8.92299 33.3658 8.92358C33.3176 8.92246 33.2694 8.92135 33.2211 8.92025ZM32.2069 8.92435C31.85 8.92498 31.8326 8.92337 31.7502 8.92335C31.5044 8.92329 31.2918 8.92409 31.0533 8.92424C31.3281 8.92031 31.9133 8.92146 32.2069 8.92435ZM39.5779 8.92128C39.4975 8.92103 38.9603 8.916 38.3493 8.92142C37.8922 8.92013 37.4351 8.91891 36.978 8.91777C37.7546 8.91949 38.8292 8.91624 39.2095 8.916C39.354 8.91592 39.3815 8.9176 39.4969 8.91754C40.1622 8.91723 40.8089 8.91269 40.8769 8.91853C40.2478 8.91728 39.6806 8.92154 39.5779 8.92128ZM35.5635 8.92198C35.4571 8.92102 35.3507 8.92008 35.2443 8.91915C35.6288 8.91884 36.0133 8.91854 36.3979 8.91823C36.2939 8.91939 36.1899 8.92053 36.0859 8.92166C35.9118 8.92177 35.7376 8.92187 35.5635 8.92198ZM65.1465 8.90919C64.9093 8.90929 64.6722 8.90939 64.435 8.9095C64.448 8.91105 64.7193 8.9109 64.8193 8.91191C64.8188 8.91191 64.8184 8.91191 64.818 8.91191C64.9293 8.91306 64.8817 8.9151 65.0841 8.91592C65.1049 8.91367 65.1257 8.91143 65.1465 8.90919ZM8.8831 28.6051C8.88326 28.2075 8.88192 24.5361 8.86579 24.8489C8.85777 25.0065 8.86547 26.2622 8.86551 26.6324C8.86554 27.1315 8.84916 28.4793 8.8831 28.6051ZM8.8838 22.1029C8.86729 22.0393 8.86584 24.3338 8.86876 24.5582C8.87104 24.5105 8.87615 24.4371 8.87729 24.3736C8.88275 24.0642 8.8795 22.5976 8.8838 22.1029ZM70.9604 16.426C70.9639 16.2411 70.9675 16.0561 70.9709 15.8711C70.9663 15.9198 70.9617 15.9685 70.9571 16.0172C70.9582 16.1535 70.9593 16.2897 70.9604 16.426ZM70.5141 33.9685C67.4327 33.9692 64.3513 33.9699 61.2699 33.9705C61.541 33.9677 61.812 33.965 62.083 33.9622C64.7382 33.9626 67.5697 33.9643 70.1338 33.9599C70.2605 33.9628 70.3873 33.9656 70.5141 33.9685ZM40.4461 8.93028C41.2356 8.9301 41.8951 8.92821 42.754 8.93059C41.9355 8.93334 41.5302 8.92961 40.7349 8.93339C40.7344 8.93339 40.734 8.93339 40.7335 8.93339C40.6377 8.93235 40.5419 8.93131 40.4461 8.93028ZM58.0729 8.92588C57.8328 8.92826 57.5927 8.9306 57.3527 8.93291C57.6414 8.93287 57.9302 8.93283 58.2189 8.93278C58.1702 8.93048 58.1215 8.92817 58.0729 8.92588ZM43.6359 33.9474C42.8101 33.9593 40.6975 33.9378 40.0264 33.9524C39.983 33.9533 40.382 33.9594 39.737 33.9714C40.2242 33.9688 40.5682 33.9663 40.6045 33.957C40.7492 33.9601 40.8939 33.9632 41.0386 33.9664C41.2787 33.9639 41.5187 33.9615 41.7588 33.9591C41.7328 33.9683 41.7518 33.9678 42.1205 33.9614C42.2887 33.9637 42.4568 33.966 42.625 33.9683C42.6962 33.9644 42.7675 33.9605 42.8387 33.9567C42.9843 33.962 43.1299 33.9674 43.2755 33.9727C43.8429 33.9667 43.4973 33.9565 43.6359 33.9474ZM46.5266 33.9493C46.3923 33.9473 42.5636 33.9542 44.3036 33.9719C44.7559 33.9712 45.2081 33.9705 45.6604 33.9698C45.2858 33.9406 46.5183 33.9666 46.6195 33.9671C47.1038 33.9698 47.7211 33.9628 48.0724 33.9631C48.3747 33.9633 48.5542 33.9684 48.7667 33.9682C49.4908 33.9676 50.6345 33.9671 50.7919 33.9555C50.2291 33.9553 49.6573 33.9553 49.0721 33.9557C48.4531 33.9561 47.909 33.9449 46.7463 33.9605C46.4588 33.9589 46.5613 33.9498 46.5266 33.9493ZM56.6299 8.9325C56.6587 8.9273 55.1975 8.92893 55.1882 8.93089C55.1853 8.93205 55.6612 8.93194 55.7291 8.93237C55.7296 8.93237 55.73 8.93237 55.7305 8.93237C55.7588 8.93257 55.615 8.93452 55.8387 8.93504C56.1024 8.9342 56.3661 8.93336 56.6299 8.9325ZM9.31831 33.9615C9.28745 33.9601 9.15125 33.959 8.94287 33.9581L8.92462 33.9581L8.92467 33.9399C8.92917 32.8147 8.92596 29.5848 8.92214 29.4726C8.9209 29.4365 8.91681 29.4869 8.91444 29.4726C8.92775 30.5253 8.91247 32.0218 8.91174 33.0211C8.91152 33.2996 8.91796 33.2164 8.91808 33.2321C8.91808 33.2328 8.91808 33.2335 8.91808 33.2341C8.9181 33.335 8.91176 33.662 8.91208 33.9399L8.91199 33.9706L8.94287 33.9707C9.10055 33.9706 9.24244 33.9683 9.31831 33.9615ZM38.5814 33.9584C38.7732 33.9604 38.965 33.9624 39.1569 33.9644C39.2055 33.9604 39.2542 33.9564 39.3029 33.9524C39.3024 33.9524 39.302 33.9524 39.3016 33.9524C39.0615 33.9544 38.8214 33.9564 38.5814 33.9584ZM31.9352 33.9455C31.9819 33.9485 32.0285 33.9515 32.0752 33.9544C32.5582 33.9548 33.0412 33.9551 33.5242 33.9555C33.4755 33.9571 33.4269 33.9588 33.3782 33.9605C34.1085 33.9648 34.4109 33.9544 34.8 33.9559C34.7995 33.9559 34.7991 33.9559 34.7986 33.9559C34.8405 33.9561 34.8912 33.9621 35.0469 33.9623C35.4039 33.9627 36.4273 33.9647 36.5509 33.9587C36.8126 33.9458 34.7532 33.9521 34.3692 33.9516C34.1956 33.9513 33.9869 33.946 33.8813 33.9459C33.7657 33.9457 33.6081 33.953 33.3264 33.9528C33.244 33.9527 32.3301 33.9442 31.9352 33.9455ZM23.4099 33.9554C23.5588 33.9625 23.8698 33.9556 23.984 33.9567C24.0113 33.957 23.7991 33.963 24.0564 33.9647C24.1292 33.9607 24.202 33.9566 24.2748 33.9525C23.9865 33.9535 23.6982 33.9544 23.4099 33.9554ZM54.1746 8.9352C54.2166 8.93571 55.0011 8.93545 55.0388 8.93511C55.5088 8.93054 53.8839 8.93134 54.1746 8.9352ZM34.3767 8.9401C34.7376 8.94368 30.456 8.93998 30.0411 8.94028C30.0618 8.93841 31.0803 8.94027 30.5468 8.93767C31.0559 8.93907 32.4632 8.93822 32.7943 8.93864C32.9953 8.93891 33.046 8.94076 33.0764 8.94082C33.1956 8.94106 34.2495 8.93885 34.3767 8.9401ZM26.5032 8.93916C26.9101 8.93944 27.317 8.93974 27.7239 8.94006C27.2438 8.94025 26.7636 8.94042 26.2835 8.94057C26.3568 8.94011 26.43 8.93964 26.5032 8.93916ZM25.9915 8.93988C26.0045 8.94134 24.6234 8.94018 24.2604 8.9405C24.6696 8.93824 25.3523 8.94037 25.9915 8.93988ZM48.9708 8.94463C49.6071 8.94703 49.8805 8.93637 49.1068 8.94098C49.0833 8.94114 48.9442 8.94451 48.9708 8.94463ZM43.4394 33.9051C43.331 33.9049 41.9816 33.8946 41.9035 33.8995C41.6565 33.915 42.542 33.909 42.8387 33.9149C43.3174 33.9245 42.6134 33.9321 43.7819 33.9266C43.7341 33.9296 43.6863 33.9327 43.6385 33.9358C44.3224 33.9368 44.0986 33.9156 44.2213 33.9129C44.2589 33.9121 44.6864 33.914 44.7636 33.9126C45.7273 33.896 43.54 33.9053 43.4394 33.9051ZM64.7224 8.94759C65.9892 8.95222 65.4442 8.94562 66.7442 8.94614C66.7876 8.94272 64.8872 8.94475 64.7224 8.94759ZM55.7747 33.9197C54.4646 33.9219 53.3871 33.9135 52.1652 33.9243C52.2447 33.9412 56.1145 33.9238 55.7747 33.9197ZM9.00179 19.2136C8.95855 23.7897 8.96689 28.9963 8.96814 33.9399L8.94287 33.9147C9.50619 33.9145 10.0661 33.9144 10.6213 33.9144C11.2127 33.9145 11.2695 33.9238 11.4835 33.9228C11.6237 33.9221 11.5992 33.9147 11.7855 33.9147C18.5202 33.9144 24.9688 33.907 31.4201 33.9124C31.8265 33.9129 33.8034 33.9268 34.2258 33.9064C34.5453 33.891 33.125 33.9026 32.8883 33.9024C32.7105 33.9023 32.7029 33.8949 32.5843 33.8948C32.4585 33.8948 32.5625 33.8998 32.4164 33.8999C31.7975 33.9 31.1221 33.8978 30.5625 33.8981C25.0744 33.9005 19.7351 33.8979 14.2759 33.8953C13.6151 33.895 13.751 33.8882 13.7177 33.8882C13.7173 33.8882 13.7168 33.8882 13.7164 33.8882C12.1968 33.8874 10.5847 33.8895 8.94287 33.8917L8.99107 33.9399C8.98814 31.7535 8.98492 29.5145 8.98914 27.3712C8.99498 24.7285 9.00108 22.0859 9.00744 19.4432C9.00556 19.3667 9.00368 19.2901 9.00179 19.2136ZM46.2372 33.9246C45.9074 33.9046 45.8337 33.9247 44.6508 33.9163C44.5545 33.9197 44.4583 33.9232 44.362 33.9266C44.9877 33.9259 45.6135 33.9252 46.2392 33.9246C46.2385 33.9246 46.2378 33.9246 46.2372 33.9246ZM38.4241 33.9158C38.2242 33.8869 35.5789 33.9064 34.3878 33.9005C34.1694 33.9154 35.901 33.9091 36.3093 33.9108C36.5132 33.9117 37.6053 33.9268 38.4354 33.9187C38.4316 33.9177 38.4278 33.9167 38.4241 33.9158ZM38.8564 8.95071C39.0489 8.95057 39.2414 8.95042 39.4339 8.95027C38.9522 8.9493 38.4706 8.94836 37.9889 8.94746C38.7573 8.94816 39.5257 8.9489 40.2941 8.94967C40.151 8.95119 40.0078 8.95269 39.8647 8.95417C39.5286 8.95298 39.1925 8.95183 38.8564 8.95071ZM41.3495 8.95077C40.0039 8.95094 41.4086 8.94709 41.7444 8.94909C41.9454 8.95032 41.4869 8.95076 41.3495 8.95077ZM44.8495 8.95503C44.2219 8.9579 42.9537 8.95742 43.4045 8.95162C44.0827 8.95471 44.5199 8.95248 45.5033 8.95456C45.3597 8.95573 45.2161 8.95688 45.0725 8.95802C45.0718 8.95802 45.0712 8.95802 45.0705 8.95802C44.9968 8.95702 44.9232 8.95602 44.8495 8.95503ZM40.7349 8.95394C39.8535 8.9504 42.4051 8.95245 41.6031 8.95432C41.5655 8.9544 40.7696 8.95407 40.7349 8.95394ZM9.02838 24.8489C9.01938 24.7427 9.01922 25.4206 9.01851 25.646C9.01538 26.6236 9.01867 27.8772 9.01695 28.8938C9.01988 28.8173 9.02283 28.7407 9.02577 28.6642C9.02663 27.3924 9.0275 26.1206 9.02838 24.8489ZM9.01537 32.0739C9.01507 32.6959 9.01477 33.3179 9.01447 33.9399L8.94287 33.8683C9.01934 33.8684 9.09582 33.8684 9.17229 33.8685C9.23736 33.8685 9.5427 33.8613 9.31566 33.8595C9.1914 33.8599 9.06713 33.8603 8.94287 33.8608L9.02205 33.9399C9.01985 33.3179 9.01762 32.6959 9.01537 32.0739ZM50.6465 33.8884C50.1109 33.8846 51.6531 33.868 51.5837 33.8867C51.2713 33.8872 50.9589 33.8878 50.6465 33.8884ZM55.63 33.8836C55.2941 33.8851 54.9583 33.8867 54.6224 33.8882C54.622 33.8861 54.6215 33.884 54.6211 33.882C54.9574 33.8825 55.2937 33.8831 55.63 33.8836ZM9.03635 22.1029C9.02501 22.4587 9.02631 23.3074 9.0258 23.8366C9.03546 23.4721 9.03129 22.6032 9.03635 22.1029ZM42.6223 33.8764C42.6657 33.8818 40.5354 33.8793 41.2729 33.87C41.7227 33.8722 42.1725 33.8743 42.6223 33.8764ZM38.2953 33.8656C38.7522 33.8647 39.1061 33.8668 39.0122 33.8756C38.7699 33.8751 38.5276 33.8746 38.2853 33.874C38.2887 33.8712 38.292 33.8684 38.2953 33.8656ZM47.2383 8.96143C48.0083 8.96161 48.7783 8.96177 49.5482 8.96192C49.5197 8.96272 49.4911 8.96353 49.4626 8.96433C48.7203 8.96415 47.978 8.96395 47.2357 8.96374C47.2366 8.96297 47.2375 8.9622 47.2383 8.96143ZM9.0659 21.6675C9.06418 21.1387 9.06243 20.6099 9.06066 20.0811C9.05807 20.6103 9.0555 21.1396 9.05295 21.6688C9.05729 21.6688 9.06162 21.6688 9.06596 21.6688C9.06594 21.6684 9.06592 21.6679 9.0659 21.6675ZM36.6906 8.96278C39.0428 8.96752 36.0415 8.96751 35.4208 8.96321C35.4202 8.96321 35.4195 8.96321 35.4188 8.96321C35.3645 8.96284 35.4794 8.96137 35.389 8.96066C35.6283 8.96156 35.8677 8.96247 36.1071 8.96341C36.3255 8.96269 36.5439 8.96195 36.7623 8.96119C36.8342 8.96161 36.9061 8.96204 36.978 8.96246C36.8822 8.96257 36.7864 8.96268 36.6906 8.96278ZM27.1975 8.95593C25.0647 8.95393 27.247 8.95306 28.3027 8.95608C28.2951 8.95661 27.394 8.95612 27.1975 8.95593ZM32.787 8.96006C33.1231 8.96003 33.4592 8.95998 33.7953 8.95991C33.8382 8.96037 33.8811 8.96083 33.924 8.96129C33.6661 8.96149 33.4081 8.96167 33.1501 8.96185C33.0291 8.96125 32.908 8.96065 32.787 8.96006ZM43.8399 8.97852C44.3807 8.97981 45.0707 8.97377 43.3341 8.97383C43.335 8.97452 43.3359 8.97522 43.3368 8.97592C43.406 8.97588 43.6091 8.97543 43.6202 8.97549C43.652 8.9757 43.6145 8.978 43.8399 8.97852ZM23.2482 8.96009C23.1874 8.96014 23.1544 8.96304 22.5227 8.95908C22.3317 8.95899 22.1408 8.95889 21.9499 8.95879C21.9005 8.95811 21.8512 8.95743 21.8018 8.95677C22.5408 8.95822 22.6192 8.95704 22.6727 8.95707C22.9183 8.95725 22.7365 8.9577 22.895 8.95792C23.3043 8.95847 24.2341 8.95918 23.8124 8.96071C23.6605 8.96124 23.3089 8.96006 23.2482 8.96009ZM24.6932 8.96404C24.6035 8.96363 24.8923 8.96307 24.8246 8.96269C24.7653 8.96234 23.8747 8.96014 24.1157 8.95887C24.262 8.95912 24.4082 8.95937 24.5544 8.95963C24.604 8.96014 24.6536 8.96066 24.7031 8.96118C24.8447 8.96095 24.9863 8.96071 25.1279 8.96046C25.3665 8.96189 25.8743 8.96419 25.2713 8.96426C25.493 8.96449 25.7147 8.96472 25.9364 8.96494C26.0512 8.96453 26.166 8.96411 26.2809 8.96367C26.2207 8.96449 26.1605 8.9653 26.1003 8.9661C25.6313 8.96542 25.1622 8.96473 24.6932 8.96404ZM17.8206 8.95335C17.8476 8.95315 17.8746 8.95295 17.9016 8.95275C17.0874 8.95202 15.8195 8.95028 16.5396 8.95004C17.6425 8.9514 18.7455 8.95272 19.8484 8.95398C19.9216 8.9543 19.9949 8.95462 20.0681 8.95494C19.2453 8.95302 19.4996 8.95684 18.7837 8.95477C18.6631 8.95443 19.0133 8.95381 18.2547 8.95343C18.2817 8.95372 18.3087 8.95402 18.3357 8.95431C18.164 8.95399 17.9923 8.95367 17.8206 8.95335ZM10.8213 8.9427C12.2154 8.94487 10.6798 8.94275 10.4224 8.9422C10.4228 8.9422 10.4233 8.9422 10.4237 8.9422C9.71824 8.94088 11.2352 8.94315 11.3278 8.9433C11.4508 8.94351 11.7372 8.94334 12.4064 8.94507C11.878 8.94427 11.3496 8.94348 10.8213 8.9427ZM15.3727 8.94965C15.2556 8.9495 15.3204 8.94934 15.2698 8.94927C15.2694 8.94927 15.2689 8.94927 15.2685 8.94927C14.5223 8.94825 12.7474 8.94568 12.555 8.94496C13.1074 8.94571 15.579 8.94887 15.7285 8.9497C15.6099 8.94969 15.4913 8.94968 15.3727 8.94965ZM20.6237 8.95644C21.0818 8.95811 20.0504 8.95669 19.78 8.95586C19.729 8.95571 20.1491 8.95477 20.6237 8.95644ZM55.765 9.01631C56.7729 9.01552 55.4486 9.01104 55.907 9.00801C55.7145 9.00805 55.522 9.00808 55.3296 9.00812C55.4747 9.01082 55.6198 9.01355 55.765 9.01631ZM65.1662 33.7737C64.9312 33.7724 65.0426 33.7771 65.0222 33.7771C64.8678 33.7767 64.7223 33.7728 64.6631 33.7731C63.568 33.7786 64.2962 33.7838 64.3073 33.7847C64.3304 33.7892 64.0426 33.794 64.4414 33.7998C64.6834 33.7986 64.9255 33.7973 65.1675 33.7961C65.2877 33.7988 65.4078 33.8015 65.5279 33.8041C66.0088 33.7995 65.3796 33.7971 65.3082 33.79C65.2808 33.7871 65.7331 33.7846 65.1662 33.7737ZM57.5711 9.0271C57.7345 9.0233 58.135 9.01868 57.7416 9.01392C57.7412 9.01392 57.7408 9.01392 57.7403 9.01392C57.6676 9.01305 57.3713 9.01219 57.2803 9.011C56.6315 9.01548 56.88 9.02132 57.5711 9.0271ZM69.5078 33.7681C69.8981 33.7706 70.2884 33.7731 70.6787 33.7755C70.6721 33.7799 70.6654 33.7843 70.6588 33.7888C70.4499 33.7872 70.2411 33.7856 70.0322 33.7841C69.959 33.786 69.8857 33.7879 69.8125 33.7898C70.0718 33.7953 70.3311 33.8008 70.5904 33.8063C70.7079 33.8058 70.8254 33.8053 70.9429 33.8048L70.8078 33.9399C70.807 33.745 70.8062 33.5501 70.8054 33.3552C70.8029 33.4988 70.8003 33.6424 70.7977 33.7859C70.7965 33.0224 70.8069 33.1886 70.8119 32.5567C70.8082 32.3403 70.8045 32.1239 70.8009 31.9075C70.8054 31.5942 70.8099 31.2809 70.8144 30.9676C70.8133 30.4412 70.8104 30.395 70.8053 30.7493C70.8006 30.4875 70.8092 30.2009 70.8076 29.8857C70.8075 29.8597 70.8026 29.9087 70.8026 29.8857C70.8021 28.2559 70.8144 28.3426 70.8153 28.0823C70.8159 27.8986 70.8088 27.1653 70.8061 27.1537C70.8024 27.1396 70.7844 28.6648 70.7887 26.2762C70.7759 27.5111 70.7837 28.9151 70.8008 28.0073C70.7986 28.3981 70.7994 30.1216 70.7988 30.2315C70.7978 30.3917 70.7919 30.3355 70.7914 30.5362C70.7911 30.6548 70.8043 30.969 70.7906 31.9075C70.7926 32.0274 70.7947 32.1474 70.7968 32.2673C70.7947 32.3797 70.7927 32.4921 70.7906 32.6045C70.7842 32.373 70.7779 32.1416 70.7717 31.9102C70.7765 32.7189 70.7652 33.406 70.7697 33.9399L70.9429 33.7668C70.8715 33.7674 70.8029 33.7683 70.7371 33.7695C70.2545 33.7672 70.02 33.7654 70.2273 33.7597C70.0824 33.7594 69.9375 33.7591 69.7926 33.7588C69.6977 33.7619 69.6028 33.765 69.5078 33.7681ZM60.5327 9.02617C61.0124 9.03106 61.1849 9.02251 61.1102 9.02188C60.6895 9.01849 60.2831 9.02365 60.5327 9.02617ZM66.037 33.7835C66.5663 33.7884 67.0955 33.7933 67.6247 33.7981C67.6247 33.7932 67.6247 33.7884 67.6247 33.7835C67.0955 33.7835 66.5663 33.7835 66.037 33.7835ZM55.6176 9.0217C55.5689 9.01974 55.5203 9.01778 55.4716 9.01583C54.8919 9.02166 54.3164 9.01101 54.0299 9.01256C53.9678 9.01289 54.0933 9.0163 54.2118 9.01719C54.2855 9.01773 55.5149 9.02214 55.6176 9.0217ZM31.4854 8.97899C31.7013 8.97876 31.9173 8.97851 32.1332 8.97824C32.1213 8.97927 32.1093 8.9803 32.0974 8.98132C31.9907 8.98133 31.8841 8.98133 31.7775 8.98133C31.6801 8.98054 31.5828 8.97976 31.4854 8.97899ZM33.9426 8.98145C34.3278 8.98218 34.713 8.98292 35.0982 8.98366C33.629 8.98225 34.8348 8.98483 33.9426 8.98474C33.9426 8.98365 33.9426 8.98255 33.9426 8.98145ZM37.8415 8.99057C37.7942 8.99127 37.7468 8.99196 37.6995 8.99265C37.3143 8.99195 36.9291 8.99124 36.5439 8.99054C36.7875 8.99357 37.0311 8.99667 37.2747 8.99985C37.4158 9.00015 37.557 9.00046 37.6982 9.00076C37.746 8.99738 37.7937 8.99399 37.8415 8.99057ZM54.7611 33.7342C54.5283 33.7336 53.7182 33.7405 53.7529 33.7437C54.0894 33.7482 54.4259 33.7527 54.7625 33.7571C54.764 33.7516 54.7656 33.746 54.7671 33.7405C54.8147 33.7433 54.8623 33.7462 54.9098 33.749C55.1012 33.7473 55.2926 33.7456 55.484 33.7439C55.5804 33.7489 55.6769 33.7539 55.7734 33.7589C55.8703 33.7535 55.9672 33.7482 56.0641 33.743C55.14 33.7314 55.1718 33.7412 54.9795 33.7408C54.882 33.7405 54.8203 33.737 54.7857 33.7352C54.7775 33.7349 54.7693 33.7345 54.7611 33.7342ZM66.4028 33.7528C65.2994 33.7493 64.6688 33.7613 63.8705 33.7486C64.3825 33.7731 67.6884 33.7556 68.854 33.7767C68.975 33.7733 69.0961 33.7699 69.2171 33.7666C68.5824 33.7686 68.1426 33.7603 67.8332 33.7585C67.5873 33.7572 67.613 33.7611 67.5942 33.761C67.5933 33.761 67.5924 33.761 67.5916 33.761C67.016 33.7583 66.838 33.7542 66.4028 33.7528ZM54.7979 9.02934C55.0944 9.03285 55.6132 9.03362 55.6189 9.02927C55.3302 9.02745 55.0415 9.02566 54.7527 9.0239C54.812 9.0251 54.7473 9.02874 54.7979 9.02934ZM38.2896 8.99901C38.521 9.00037 39.0676 9.00068 38.8319 8.9978C38.7895 8.99729 38.245 8.99793 38.5644 8.99423C38.0339 8.99333 38.158 8.99822 38.2896 8.99901ZM70.8082 19.6254C70.8083 19.4306 70.8085 19.2359 70.8087 19.0412C70.806 18.9959 70.8034 18.9505 70.8008 18.9052C70.8032 19.1452 70.8057 19.3853 70.8082 19.6254ZM52.2955 9.02726C52.0367 9.01879 51.5945 9.02562 51.1087 9.01827C50.9293 9.01789 50.7498 9.01751 50.5704 9.01712C50.57 9.01712 50.5695 9.01712 50.5691 9.01712C50.5642 9.01921 50.5593 9.02129 50.5545 9.02337C51.1348 9.02466 51.7152 9.02596 52.2955 9.02726ZM70.778 31.7655C70.7802 31.6456 70.7824 31.5256 70.7846 31.4057C70.7827 31.1922 70.7808 30.9787 70.7789 30.7652C70.7771 30.8807 70.7752 30.9962 70.7733 31.1117C70.7749 31.3296 70.7764 31.5475 70.778 31.7655ZM49.1413 9.02154C49.769 9.02377 50.005 9.01765 49.2024 9.01613C48.8641 9.01551 48.4838 9.01924 49.1413 9.02154ZM42.771 33.7172C42.9861 33.7192 43.2011 33.7212 43.4162 33.7231C43.4894 33.7194 43.5627 33.7157 43.6359 33.712C43.3476 33.7137 43.0593 33.7154 42.771 33.7172ZM35.3133 8.99254C35.3385 8.9917 35.3637 8.99086 35.389 8.99001C35.5808 8.99056 35.7726 8.9911 35.9644 8.99165C35.9162 8.99247 35.868 8.99327 35.8197 8.99407C35.6509 8.99356 35.4821 8.99304 35.3133 8.99254ZM44.218 33.7223C44.3899 33.7234 44.5618 33.7245 44.7337 33.7255C44.8492 33.7239 44.9647 33.7222 45.0802 33.7206C44.9194 33.7185 44.7585 33.7163 44.5977 33.7142C44.4711 33.7169 44.3446 33.7196 44.218 33.7223ZM43.1921 9.00893C43.4336 9.01084 44.3982 9.00833 43.5293 9.00554C42.9756 9.00379 43.1558 9.00864 43.1921 9.00893ZM41.8905 9.00764C42.8102 9.01206 42.1206 8.99776 41.0229 9.00391C42.1279 9.00497 41.8364 9.00738 41.8905 9.00764ZM33.8026 8.99604C33.7794 8.99599 33.7604 8.99455 33.5756 8.99409C32.9103 8.99244 32.0322 8.99001 31.5564 8.98891C30.4126 8.98636 26.909 8.98047 26.4993 8.97674C26.4139 8.97596 26.6103 8.97456 26.5756 8.9744C26.4738 8.97395 25.8877 8.97365 25.9961 8.97258C26.5712 8.97369 27.1462 8.9748 27.7212 8.97591C27.5801 8.97664 27.4389 8.97734 27.2978 8.97802C28.7306 8.98045 28.2563 8.97954 28.6684 8.97809C28.9109 8.97944 29.1534 8.98083 29.3959 8.98225C29.9238 8.98242 30.4517 8.98252 30.9796 8.98255C30.8599 8.98306 30.7402 8.98355 30.6205 8.98404C31.4159 8.98702 31.1949 8.98571 31.6301 8.98473C31.631 8.98549 31.6319 8.98625 31.6327 8.98702C32.4007 8.98672 32.5502 8.98935 32.718 8.98974C33.0621 8.99066 33.5008 8.98145 34.8135 8.99413C35.367 8.9903 35.3544 9.00047 35.6797 8.99595C36.6165 9.00375 34.8348 8.99769 33.9917 8.99565C33.9913 8.99565 33.9909 8.99565 33.9904 8.99565C33.9268 8.99549 34.0278 8.99662 33.8026 8.99604ZM38.6148 9.00107C38.0477 9.00499 40.2882 9.01045 39.5467 9.00112C39.4363 9.00065 39.3259 9.00018 39.2155 8.99971C39.0148 9.00018 38.8142 9.00063 38.6135 9.00106C38.6139 9.00106 38.6144 9.00107 38.6148 9.00107ZM59.6665 9.0503C61.7418 9.05111 60.5619 9.04337 59.859 9.04696C59.7188 9.04765 59.642 9.04883 59.6665 9.0503ZM64.8263 33.7371C64.796 33.739 64.7657 33.7409 64.7354 33.7428C65.4313 33.7425 66.777 33.7527 66.7585 33.7398C66.1145 33.7389 65.4704 33.738 64.8263 33.7371ZM70.3316 33.741C70.1821 33.7399 69.5715 33.7368 69.6452 33.7416C69.9098 33.7455 70.1745 33.7494 70.4391 33.7532C70.5623 33.7514 70.6856 33.7496 70.8088 33.7479C70.6367 33.7468 70.372 33.7413 70.3316 33.741Z" fill="#DCCEBD"/>
<path d="M19.7029 34.4199C17.3562 34.4199 15.4495 34.0333 13.9829 33.2599C12.5162 32.4599 11.4095 31.4199 10.6629 30.1399C9.9162 28.8599 9.44954 27.4599 9.26287 25.9399C9.10287 24.3933 9.1562 22.8599 9.42287 21.3399C9.7962 19.3399 10.4629 17.5533 11.4229 15.9799C12.3829 14.3799 13.5562 13.0333 14.9429 11.9399C16.3295 10.8199 17.8229 9.96661 19.4229 9.37994C21.0495 8.79327 22.6895 8.49994 24.3429 8.49994C25.4362 8.49994 26.5429 8.61994 27.6629 8.85994C28.7829 9.09994 29.6495 9.39327 30.2629 9.73994C30.4495 9.84661 30.5562 9.95327 30.5829 10.0599C30.6095 10.1666 30.6095 10.3666 30.5829 10.6599L30.0229 15.6999C30.0229 15.8066 29.9562 15.8599 29.8229 15.8599C29.6895 15.8599 29.6095 15.8066 29.5829 15.6999C29.2095 13.6999 28.4229 12.1666 27.2229 11.0999C26.0229 10.0333 24.5295 9.49994 22.7429 9.49994C21.1695 9.49994 19.7295 9.92661 18.4229 10.7799C17.1162 11.6333 16.0229 12.8599 15.1429 14.4599C14.2895 16.0333 13.6895 17.9133 13.3429 20.0999C13.0495 21.9399 12.9962 23.6866 13.1829 25.3399C13.3695 26.9666 13.7429 28.4066 14.3029 29.6599C14.8895 30.9133 15.6495 31.8999 16.5829 32.6199C17.5429 33.3399 18.6629 33.6999 19.9429 33.6999C21.3295 33.6999 22.7295 33.2066 24.1429 32.2199C25.5562 31.2333 26.9695 29.7133 28.3829 27.6599C28.4629 27.5533 28.5562 27.5399 28.6629 27.6199C28.7962 27.6733 28.8495 27.7266 28.8229 27.7799L27.7029 32.2999C27.5962 32.6199 27.5029 32.8466 27.4229 32.9799C27.3695 33.0866 27.2229 33.1666 26.9829 33.2199C25.6762 33.6733 24.3962 33.9799 23.1429 34.1399C21.8895 34.3266 20.7429 34.4199 19.7029 34.4199ZM33.6994 34.4599C32.8194 34.4599 32.1261 34.1399 31.6194 33.4999C31.1128 32.8333 30.9661 31.7666 31.1794 30.2999C31.3661 28.9133 31.8194 27.4999 32.5394 26.0599C33.2861 24.6199 34.1794 23.2866 35.2194 22.0599C36.2861 20.8333 37.4194 19.8466 38.6194 19.0999C39.8194 18.3533 40.9661 17.9799 42.0594 17.9799C42.5661 17.9799 43.0861 18.0733 43.6194 18.2599C44.1528 18.4466 44.6061 18.7666 44.9794 19.2199C45.3794 19.6466 45.6061 20.2066 45.6594 20.8999L43.4994 19.6599C43.8994 19.6066 44.3394 19.3933 44.8194 19.0199C45.2994 18.6466 45.6728 18.1933 45.9394 17.6599C45.9928 17.5799 46.0861 17.5666 46.2194 17.6199C46.3794 17.6466 46.4461 17.6866 46.4194 17.7399L44.0994 30.3799C43.8594 31.7399 44.0328 32.4199 44.6194 32.4199C44.8861 32.4199 45.2194 32.2866 45.6194 32.0199C46.0194 31.7266 46.4594 31.3399 46.9394 30.8599C47.0194 30.7799 47.1128 30.7933 47.2194 30.8999C47.3261 31.0066 47.3394 31.0999 47.2594 31.1799C46.4328 32.1666 45.6461 32.9399 44.8994 33.4999C44.1794 34.0333 43.4728 34.2999 42.7794 34.2999C42.0061 34.2999 41.4861 33.9933 41.2194 33.3799C40.9528 32.7666 40.9261 31.7666 41.1394 30.3799L42.1394 24.7799L42.9394 24.0999C42.2461 26.2333 41.3794 28.0733 40.3394 29.6199C39.2994 31.1666 38.2061 32.3666 37.0594 33.2199C35.9128 34.0466 34.7928 34.4599 33.6994 34.4599ZM35.8994 31.8599C36.5661 31.8599 37.2461 31.5933 37.9394 31.0599C38.6328 30.5266 39.2861 29.8333 39.8994 28.9799C40.5128 28.1266 41.0328 27.2199 41.4594 26.2599C41.9128 25.2733 42.2194 24.3533 42.3794 23.4999C42.5928 22.3533 42.4994 21.4466 42.0994 20.7799C41.7261 20.0866 41.1128 19.7399 40.2594 19.7399C39.4594 19.7666 38.6461 20.1266 37.8194 20.8199C37.0194 21.4866 36.3128 22.4066 35.6994 23.5799C35.0861 24.7266 34.6461 26.0466 34.3794 27.5399C34.1394 29.1133 34.1661 30.2333 34.4594 30.8999C34.7794 31.5399 35.2594 31.8599 35.8994 31.8599ZM53.0757 33.5399L52.6757 33.4999C52.9424 32.1399 53.249 30.7533 53.5957 29.3399C53.969 27.8999 54.369 26.5133 54.7957 25.1799C55.249 23.8466 55.7424 22.6599 56.2757 21.6199C56.809 20.5533 57.369 19.7133 57.9557 19.0999C58.569 18.4599 59.1957 18.1399 59.8357 18.1399C60.2357 18.1399 60.649 18.2466 61.0757 18.4599C61.5024 18.6733 61.849 18.9666 62.1157 19.3399C62.3824 19.6866 62.4757 20.0733 62.3957 20.4999C62.3424 20.8466 62.169 21.1799 61.8757 21.4999C61.609 21.8199 61.249 21.9799 60.7957 21.9799C60.3957 21.9799 60.0624 21.8733 59.7957 21.6599C59.5557 21.4466 59.3157 21.2333 59.0757 21.0199C58.8624 20.8066 58.6224 20.6999 58.3557 20.6999C58.0357 20.6999 57.6757 21.0066 57.2757 21.6199C56.8757 22.2066 56.4624 22.9799 56.0357 23.9399C55.609 24.8999 55.1957 25.9533 54.7957 27.0999C54.4224 28.2466 54.089 29.3933 53.7957 30.5399C53.5024 31.6599 53.2624 32.6599 53.0757 33.5399ZM51.1957 34.2599C50.7157 34.2599 50.3957 34.2333 50.2357 34.1799C50.0757 34.1266 49.9957 34.0599 49.9957 33.9799C49.9957 33.8733 50.0757 33.5133 50.2357 32.8999C50.3957 32.2866 50.529 31.6466 50.6357 30.9799L52.1557 22.5799C52.289 21.9133 52.329 21.3933 52.2757 21.0199C52.249 20.6466 52.169 20.3799 52.0357 20.2199C51.9024 20.0599 51.729 19.9799 51.5157 19.9799C51.2224 19.9799 50.8757 20.1266 50.4757 20.4199C50.0757 20.6866 49.6357 21.0599 49.1557 21.5399C49.0757 21.6199 48.9824 21.6066 48.8757 21.4999C48.769 21.3933 48.7557 21.2866 48.8357 21.1799C49.7424 20.1133 50.569 19.3399 51.3157 18.8599C52.0624 18.3799 52.7957 18.1399 53.5157 18.1399C54.0757 18.1399 54.489 18.2866 54.7557 18.5799C55.049 18.8466 55.2224 19.2866 55.2757 19.8999C55.329 20.4866 55.2757 21.2733 55.1157 22.2599L53.0757 33.5399C53.0224 34.0199 52.3957 34.2599 51.1957 34.2599ZM67.0201 34.4199C66.4334 34.4199 65.8734 34.3133 65.3401 34.0999C64.8067 33.8866 64.4201 33.4999 64.1801 32.9399C63.9401 32.3533 63.9134 31.5266 64.1001 30.4599L65.7001 21.6999C65.8601 20.7933 65.8601 20.2066 65.7001 19.9399C65.5667 19.6733 65.1134 19.5399 64.3401 19.5399C64.2334 19.5399 64.1801 19.4466 64.1801 19.2599C64.2067 19.0733 64.2601 18.9799 64.3401 18.9799C65.5134 18.9799 66.4734 18.6466 67.2201 17.9799C67.9934 17.2866 68.5801 16.4866 68.9801 15.5799C69.0067 15.4999 69.1401 15.4733 69.3801 15.4999C69.6201 15.5266 69.7267 15.5933 69.7001 15.6999L67.2201 29.5799C67.0334 30.5666 67.1001 31.2999 67.4201 31.7799C67.7401 32.2333 68.3134 32.4599 69.1401 32.4599C69.7534 32.4599 70.3401 32.3266 70.9001 32.0599C71.4867 31.7666 72.0734 31.3666 72.6601 30.8599C72.7134 30.8066 72.7934 30.8333 72.9001 30.9399C73.0334 31.0466 73.0601 31.1399 72.9801 31.2199C71.7801 32.3666 70.7134 33.1933 69.7801 33.6999C68.8467 34.1799 67.9267 34.4199 67.0201 34.4199ZM73.0201 20.3799C72.9667 20.3799 72.6867 20.3533 72.1801 20.2999C71.6734 20.2199 71.0601 20.1399 70.3401 20.0599C69.6467 19.9799 68.9401 19.9399 68.2201 19.9399L68.3001 18.8599C69.1267 18.8599 69.9267 18.8333 70.7001 18.7799C71.4734 18.7266 72.1534 18.6733 72.7401 18.6199C73.3534 18.5666 73.7801 18.5399 74.0201 18.5399C74.1534 18.5399 74.2334 18.5933 74.2601 18.6999C74.3134 18.7799 74.3267 18.8733 74.3001 18.9799C74.2734 19.1933 74.1134 19.4866 73.8201 19.8599C73.5534 20.2066 73.2867 20.3799 73.0201 20.3799Z" fill="#DCCEBD"/>
</g>
<defs>
<filter id="filter0_dii_12_8684" x="0" y="0" width="84.8398" height="44.96" filterUnits="userSpaceOnUse" color-interpolation-filters="sRGB">
<feFlood flood-opacity="0" result="BackgroundImageFix"/>
<feColorMatrix in="SourceAlpha" type="matrix" values="0 0 0 0 0 0 0 0 0 0 0 0 0 0 0 0 0 0 127 0" result="hardAlpha"/>
<feOffset dx="1" dy="1"/>
<feGaussianBlur stdDeviation="4.75"/>
<feColorMatrix type="matrix" values="0 0 0 0 0 0 0 0 0 0 0 0 0 0 0 0 0 0 0.5 0"/>
<feBlend mode="normal" in2="BackgroundImageFix" result="effect1_dropShadow_12_8684"/>
<feBlend mode="normal" in="SourceGraphic" in2="effect1_dropShadow_12_8684" result="shape"/>
<feColorMatrix in="SourceAlpha" type="matrix" values="0 0 0 0 0 0 0 0 0 0 0 0 0 0 0 0 0 0 127 0" result="hardAlpha"/>
<feOffset dx="-0.5" dy="-0.5"/>
<feComposite in2="hardAlpha" operator="arithmetic" k2="-1" k3="1"/>
<feColorMatrix type="matrix" values="0 0 0 0 0.0862745 0 0 0 0 0.0862745 0 0 0 0 0.0862745 0 0 0 1 0"/>
<feBlend mode="normal" in2="shape" result="effect2_innerShadow_12_8684"/>
<feColorMatrix in="SourceAlpha" type="matrix" values="0 0 0 0 0 0 0 0 0 0 0 0 0 0 0 0 0 0 127 0" result="hardAlpha"/>
<feOffset dx="0.75" dy="0.75"/>
<feComposite in2="hardAlpha" operator="arithmetic" k2="-1" k3="1"/>
<feColorMatrix type="matrix" values="0 0 0 0 1 0 0 0 0 0.909804 0 0 0 0 0.811765 0 0 0 1 0"/>
<feBlend mode="normal" in2="effect2_innerShadow_12_8684" result="effect3_innerShadow_12_8684"/>
</filter>
</defs>
</svg>
