<svg width="165" height="49" viewBox="0 0 165 49" fill="none" xmlns="http://www.w3.org/2000/svg">
<g filter="url(#filter0_dii_12_11402)">
<path d="M12.5127 19.9934C12.5858 26.7403 12.4943 31.3941 12.4703 37.5801L12.0601 37.1698C12.2034 37.1704 12.3476 37.171 12.4926 37.1715C26.59 37.2196 45.1804 37.2172 59.5988 37.239C70.512 37.2549 81.6011 37.2741 92.4485 37.2914C93.0048 37.2923 93.3367 37.2992 93.589 37.2996C95.964 37.3033 99.9467 37.3026 102.303 37.3064C107.259 37.3144 115.882 37.3245 120.421 37.3355C122.349 37.3402 124.326 37.3436 125.075 37.3577C125.78 37.3592 126.164 37.3477 126.348 37.3473C126.35 37.3473 126.352 37.3473 126.354 37.3474C126.947 37.3461 128.442 37.3562 128.773 37.3561C128.822 37.356 128.518 37.3472 129.319 37.3507C129.39 37.351 129.324 37.3567 129.999 37.3576C130.174 37.3578 132.43 37.3518 133.074 37.3521C135.219 37.353 140.341 37.366 142.906 37.3689C143.298 37.3694 143.524 37.3666 143.938 37.367C144.152 37.3673 144.473 37.371 144.538 37.3711C144.827 37.3713 146.087 37.3576 145.635 37.3871C146.951 37.3867 146.563 37.3764 146.593 37.37C148.021 37.3709 148.71 37.3856 149.083 37.3713C150.075 37.3728 151.068 37.3743 152.06 37.3758L151.856 37.5801C151.865 31.5477 151.874 25.5153 151.882 19.4828C151.88 19.4808 151.878 19.4787 151.876 19.4766C151.887 17.406 151.874 16.6957 151.887 15.5137C151.885 14.7848 151.884 14.0559 151.882 13.3271C151.882 13.0781 151.883 12.8291 151.883 12.5801L152.06 12.7569C133.578 12.7269 115.14 12.7122 96.865 12.6882C96.0833 12.6872 95.8882 12.6844 94.5991 12.6828C93.1758 12.6811 91.1739 12.6814 89.2981 12.6789C87.6526 12.6768 85.2251 12.6715 83.3903 12.669C82.9761 12.6684 82.6766 12.6694 82.6299 12.6693C82.3558 12.6689 82.342 12.6667 82.076 12.6663C81.7579 12.6659 81.3735 12.667 81.006 12.6664C79.6326 12.6644 78.136 12.663 77.9621 12.6628C77.1245 12.6615 76.9396 12.6594 76.8707 12.6592C75.9389 12.6579 76.2883 12.66 76.0562 12.6596C74.8522 12.6576 74.0011 12.6525 72.3527 12.6544C72.3976 12.6529 72.4425 12.6515 72.4874 12.65C71.2259 12.6477 72.0591 12.6527 71.8013 12.6531C71.6961 12.6532 68.9807 12.6494 68.7713 12.6491C68.0419 12.648 68.0223 12.6461 67.9593 12.646C67.8057 12.6458 65.9707 12.6456 65.03 12.6429C63.9169 12.6398 65.227 12.6378 64.9506 12.6368C64.904 12.6367 63.7387 12.6358 63.5823 12.6345C63.4096 12.6332 64.4173 12.6342 64.4018 12.6337C64.3908 12.6334 62.7177 12.6293 63.0385 12.628C63.2963 12.6266 65.5662 12.6309 66.0471 12.6305C66.1265 12.6305 65.9768 12.6282 66.0471 12.6282C66.3295 12.6282 71.5595 12.6328 71.7988 12.6334C71.5265 12.6342 71.2541 12.635 70.9818 12.6358C71.3439 12.6362 71.706 12.6366 72.0682 12.6371C71.5533 12.6375 71.0385 12.6378 70.5236 12.6381C71.2887 12.6475 73.5934 12.6412 73.6883 12.6367C73.7295 12.6346 72.3207 12.6282 73.6317 12.6261C73.4323 12.6254 73.233 12.6248 73.0337 12.6241C72.6229 12.6246 72.2121 12.6252 71.8013 12.6257C72.0749 12.6265 72.3485 12.6272 72.6221 12.628C72.5214 12.6285 72.4207 12.629 72.32 12.6296C71.5521 12.6299 70.7841 12.6302 70.0163 12.6305C69.6214 12.6297 69.7035 12.6281 69.4321 12.6275C66.0478 12.6207 68.2553 12.6277 66.0395 12.6251C65.7232 12.6239 65.4068 12.6228 65.0904 12.6217C65.202 12.6253 64.2206 12.6223 63.0334 12.6228C63.1753 12.6218 63.3171 12.6209 63.4589 12.6199C61.7392 12.619 58.2532 12.6113 59.1939 12.6176C58.7999 12.6168 58.4059 12.616 58.0119 12.6153C57.6791 12.6159 57.3463 12.6165 57.0136 12.6171C56.5537 12.6166 56.0938 12.6161 55.6339 12.6157C55.6318 12.6152 55.6297 12.6148 55.6276 12.6143C55.9944 12.6146 56.3611 12.6149 56.7278 12.6152C56.4526 12.6135 56.1773 12.6119 55.902 12.6103C55.6314 12.6104 55.3607 12.6104 55.0901 12.6104C56.2254 12.6126 54.7286 12.6136 54.3662 12.6151C53.4092 12.6149 52.7976 12.6122 52.4767 12.6118C52.3258 12.6117 50.5489 12.614 51.2455 12.6104C50.3312 12.6102 49.4169 12.61 48.5025 12.6097C48.145 12.6091 47.7875 12.6086 47.43 12.608C48.2058 12.6068 45.9572 12.6031 47.6138 12.6035C48.8507 12.6038 49.1555 12.6057 49.7425 12.6061C50.2716 12.6064 50.5514 12.6054 51.1272 12.6058C54.9999 12.608 58.1545 12.6102 61.8325 12.6133C62.5591 12.614 63.2201 12.6136 63.7082 12.614C64.2592 12.6145 63.5688 12.6161 64.2709 12.6161C65.0082 12.6161 65.1676 12.6145 65.3623 12.6146C65.4834 12.6146 65.8674 12.6164 66.2208 12.6167C67.6731 12.6177 69.8011 12.6175 70.0074 12.6176C70.2405 12.6178 74.3477 12.622 74.5443 12.6225C74.6486 12.6227 74.4323 12.6292 75.3374 12.6227C75.6198 12.6228 75.9022 12.6229 76.1846 12.6229C76.1389 12.6242 76.0931 12.6256 76.0474 12.6269C77.7204 12.6229 77.145 12.6254 78.7577 12.6261C82.6194 12.6277 88.316 12.6329 92.5396 12.6352C93.4828 12.6357 93.8421 12.6339 94.9579 12.6345C95.9945 12.635 98.7012 12.6433 98.1125 12.6339C100.419 12.6433 100.79 12.6297 101.944 12.6392C102.084 12.638 102.224 12.6368 102.364 12.6356C103.617 12.6419 104.004 12.6373 105.372 12.6374C105.962 12.6375 105.282 12.6432 106.473 12.6371C106.7 12.6378 106.927 12.6384 107.155 12.6391C107.102 12.6405 107.049 12.642 106.996 12.6434C108.318 12.6431 108.403 12.6439 108.253 12.6382C108.891 12.6396 109.529 12.641 110.167 12.6425C110.247 12.6406 110.326 12.6388 110.405 12.637C110.099 12.6333 95.6078 12.6302 93.5895 12.6302C91.2227 12.6253 86.468 12.6267 84.556 12.6247C83.7908 12.6239 83.4527 12.6206 82.3391 12.6196C81.2259 12.6186 79.825 12.6205 79.2323 12.6202C77.2576 12.6193 67.9018 12.6134 74.2649 12.6137C74.0819 12.6123 73.899 12.6108 73.716 12.6095C71.1875 12.6126 72.1031 12.6103 70.0049 12.6089C69.1217 12.6083 67.0213 12.6098 67.1385 12.6046C68.7787 12.6043 70.5211 12.6068 71.9473 12.6074C72.0887 12.6075 73.7773 12.6055 74.6463 12.6066C75.4303 12.6076 74.8905 12.6133 76.5963 12.6074C77.8631 12.6145 78.5956 12.6089 78.9302 12.6084C79.5085 12.6075 79.5719 12.6109 80.15 12.6115C80.7798 12.6123 81.2133 12.6102 81.2993 12.6102C82.163 12.6105 86.661 12.6121 86.8672 12.6137C86.6864 12.6143 86.5055 12.6149 86.3247 12.6154C87.4928 12.6171 87.2486 12.6131 87.5558 12.6128C87.7845 12.6129 88.0132 12.613 88.2419 12.6131C88.1513 12.6139 88.0606 12.6147 87.97 12.6154C89.3496 12.6159 88.294 12.6126 90.2523 12.6135C91.4957 12.6141 92.78 12.6179 92.9009 12.6177C92.9365 12.6177 92.5451 12.6153 93.052 12.6152C93.8911 12.6151 95.3419 12.6158 95.5042 12.6189C95.9152 12.6187 95.8801 12.6156 95.9347 12.6156C96.1733 12.6154 100.279 12.6161 101.014 12.6162C103.052 12.6164 105.321 12.6181 107.529 12.6184C107.756 12.6184 107.611 12.6206 107.838 12.6206C108.204 12.6207 110.079 12.6179 110.359 12.6177C111.058 12.6174 112.897 12.6195 113.186 12.6186C113.227 12.6184 112.622 12.6151 113.33 12.6143C114.115 12.6135 113.692 12.6176 113.735 12.6177C115.334 12.6198 116.343 12.6171 117.435 12.6169C117.788 12.6168 118.441 12.6204 118.94 12.6196C118.998 12.6195 118.884 12.6163 118.94 12.6162C119.694 12.6148 120.4 12.6209 120.727 12.6214C121.525 12.6227 121.09 12.6181 121.132 12.6181C121.664 12.6182 122.38 12.62 123.189 12.6201C126.795 12.6204 129.739 12.6211 133.573 12.6228C134.055 12.623 134.626 12.6267 134.7 12.6267C134.927 12.6268 134.862 12.6227 135.521 12.623C136.908 12.6237 138.195 12.6239 139.569 12.6245C139.846 12.6246 139.964 12.6286 140.174 12.6288C140.882 12.6293 143.295 12.6196 143.334 12.6328C144.738 12.6216 145.671 12.6321 146.801 12.6324C148.266 12.6329 150.185 12.6328 152.06 12.633L152.007 12.5801C152.007 14.1303 152.006 15.6502 152.005 16.8581C152.005 17.42 152.001 17.6836 152 17.9961C152 18.5567 152.001 21.7612 152 21.9288C151.999 22.2579 151.982 22.0606 151.996 23.7529C151.997 24.745 151.99 24.6278 151.989 24.833C151.985 26.432 152.001 27.9876 151.986 27.6968C151.989 29.5586 151.997 30.7653 151.983 31.525C151.99 31.5151 151.993 32.3907 151.99 33.446C151.979 32.3655 151.972 32.4992 151.975 29.886C151.975 29.8448 151.98 29.9233 151.98 29.8822C151.981 29.5091 151.979 28.7307 151.979 28.0946C151.98 27.4585 151.983 27.8117 151.983 27.5571C151.983 27.324 151.978 27.3318 151.978 26.9944C151.979 25.9001 151.978 24.9318 151.978 24.3093C151.979 23.9171 151.983 23.4782 151.983 23.1738C151.983 21.9971 151.982 19.5036 151.983 18.0062C151.983 17.6942 151.987 17.8252 151.988 17.1426C151.988 17.0629 151.984 16.7722 151.983 16.1746C151.983 15.5768 151.985 15.1134 151.985 14.7294C151.985 14.4086 151.981 14.5427 151.981 13.8847C151.981 13.7468 151.981 13.2508 151.982 12.5801L152.06 12.6582C150.063 12.6564 146.519 12.6528 146.266 12.6523C145.781 12.6511 145.55 12.6459 145.254 12.6464C145.202 12.6465 145.114 12.6514 144.933 12.6516C141.954 12.6558 135.362 12.6455 131.958 12.6439C124.844 12.6402 118.28 12.6391 111.103 12.6359C110.975 12.6364 110.847 12.637 110.719 12.6376C111.444 12.638 112.17 12.6384 112.895 12.6389C112.9 12.6407 112.904 12.6424 112.909 12.6442C113.89 12.6451 113.76 12.6408 113.732 12.6383C114.095 12.6395 114.458 12.6408 114.821 12.6421C115.134 12.6361 117.555 12.6416 118.803 12.6424C119.615 12.6428 120.581 12.6409 121.008 12.6413C121.913 12.6422 121.889 12.6464 121.96 12.6465C122.081 12.6466 123.343 12.6437 124.254 12.6444C125.6 12.6453 125.746 12.652 127.589 12.6475C129.95 12.6524 132.566 12.6522 135.111 12.6531C134.627 12.6594 136.908 12.6546 137.936 12.6552C142.266 12.6583 147.279 12.6629 152.06 12.6678L151.972 12.5801C151.97 14.7288 151.968 16.8305 151.966 18.8018C151.965 19.6188 151.96 20.2361 151.959 20.6913C151.959 20.9382 151.965 21.0459 151.964 21.3887C151.964 21.449 151.958 21.4908 151.957 22.129C151.954 23.717 151.96 27.6726 151.949 28.6737C151.948 31.6425 151.947 34.6113 151.946 37.5801L152.06 37.4658C149.599 37.4649 147.139 37.464 144.678 37.4631C144.542 37.4606 144.405 37.458 144.269 37.4555C143.238 37.4673 139.16 37.4572 137.172 37.4563C133.672 37.455 129.207 37.4562 126.14 37.4547C125.474 37.4544 124.928 37.4501 124.297 37.4497C124.026 37.4496 123.688 37.4545 123.406 37.4543C120.236 37.4527 115.943 37.4444 112.747 37.4423C105.493 37.4378 98.6609 37.4323 91.3105 37.4276C66.5493 37.4114 41.9307 37.4061 17.3807 37.3859C17.0516 37.3856 17.068 37.3764 16.813 37.3762C15.7445 37.3751 13.7411 37.3775 12.0601 37.3785L12.2617 37.5801C12.2613 36.8921 12.2611 36.2581 12.2616 35.7643C12.2627 34.4094 12.2787 32.2589 12.2644 31.7926C12.2544 33.6867 12.2483 35.6229 12.2439 37.5801L12.0601 37.3963C15.0767 37.403 18.1433 37.4057 21.1824 37.411C21.5387 37.4116 21.583 37.4202 21.6268 37.4204C22.4381 37.4238 21.9258 37.4117 23.1022 37.4119C23.4954 37.412 27.127 37.441 26.695 37.4139C27.5647 37.4252 33.6956 37.4336 34.8787 37.4308C35.238 37.4299 34.9837 37.422 35.055 37.4217C35.3647 37.4202 35.5045 37.4309 35.7813 37.4313C36.5191 37.4323 38.3957 37.4248 38.7522 37.425C39.5726 37.4256 42.0321 37.4354 43.1154 37.434C44.1083 37.4327 43.9224 37.4218 44.7809 37.4214C45.4575 37.421 44.7204 37.4296 46.231 37.4332C46.9798 37.4349 49.5988 37.4299 50.2355 37.4303C50.8718 37.4307 51.5797 37.4373 52.4573 37.4373C53.7216 37.4373 56.4718 37.4354 57.7583 37.4341C57.8351 37.4341 58.0223 37.4262 58.2115 37.4265C58.6035 37.4271 58.4858 37.4368 58.7818 37.438C59.0779 37.4391 64.2073 37.4407 65.0786 37.4413C65.679 37.4417 66.0937 37.4363 66.4255 37.4365C66.6859 37.4367 66.7138 37.4447 66.9794 37.4449C67.0617 37.4449 67.7617 37.4385 68.4611 37.439C69.1219 37.4396 71.631 37.4474 71.9217 37.4476C72.1109 37.4477 71.9035 37.4421 72.463 37.4426C72.9729 37.443 73.3078 37.4503 73.5984 37.4505C74.2729 37.4511 75.0267 37.4455 75.7423 37.4459C77.7993 37.447 77.6934 37.4555 77.8169 37.4559C78.159 37.4568 78.2962 37.449 78.4085 37.4489C78.8828 37.4485 80.0452 37.4477 80.468 37.4476C80.9946 37.4475 81.2177 37.4551 81.7772 37.4554C82.1943 37.4556 83.0363 37.4489 83.9877 37.4491C86.1325 37.4495 88.683 37.4496 90.7893 37.4511C91.4174 37.4515 91.5138 37.458 91.7057 37.4583C92.7147 37.4597 93.2796 37.4528 93.5676 37.4531C95.6219 37.455 99.2863 37.468 101.192 37.4699C101.969 37.4706 105.367 37.4674 107.284 37.4693C107.503 37.4695 107.298 37.4741 107.542 37.4735C108.126 37.472 108.072 37.4624 108.368 37.4629C108.511 37.4632 108.837 37.4687 109.253 37.4695C111.411 37.4734 112.896 37.47 113.88 37.4708C123.337 37.4787 132.98 37.4858 141.812 37.491C142.796 37.4916 144.017 37.4875 145.504 37.4928C145.55 37.4953 145.595 37.4978 145.641 37.5002C145.693 37.4978 145.745 37.4955 145.797 37.4931C147.481 37.4926 148.117 37.49 149.837 37.4939C149.985 37.4942 150.437 37.5052 150.717 37.4919C151.886 37.4992 151.812 37.4966 152.06 37.4943L151.974 37.5801C151.973 37.4669 151.972 37.2866 151.972 36.8902C151.972 35.626 151.975 34.3974 151.977 33.1716C151.982 32.4996 151.991 35.3192 151.991 35.503C151.991 35.799 151.984 36.1066 151.984 36.3917C151.983 36.8213 151.984 37.2438 151.984 37.5801L152.06 37.5041C151.735 37.5044 151.491 37.5041 151.398 37.5011C150.307 37.5069 151.665 37.5044 151.529 37.51C150.8 37.5073 150.072 37.5047 149.343 37.5019C148.972 37.5213 144.947 37.4939 145.227 37.5091C144.907 37.506 144.587 37.5028 144.267 37.4996C142.863 37.5181 142.037 37.5044 140.164 37.4976C140.299 37.5002 140.434 37.5028 140.569 37.5053C140.531 37.5064 138.878 37.5097 139.469 37.4992C137.775 37.5127 137.846 37.489 136.327 37.5055C135.425 37.5074 135.967 37.4976 134.352 37.497C133.395 37.4966 132.206 37.5015 131.137 37.5014C130.89 37.5014 130.783 37.4953 130.564 37.4952C130.345 37.4951 130.238 37.501 129.972 37.501C129.424 37.5011 128.713 37.4966 128.37 37.4969C128.063 37.4971 127.623 37.5022 126.883 37.5027C124.297 37.5046 125.078 37.4973 124.67 37.4945C124.231 37.4916 123.916 37.5016 123.041 37.5C122.953 37.4999 123.18 37.4936 122.895 37.4938C122.665 37.4938 122.549 37.5007 121.787 37.5017C121.484 37.5021 116.773 37.5017 116.056 37.5016C114.956 37.5014 112.506 37.4943 111.368 37.4938C110.929 37.4936 110.46 37.4993 109.994 37.4991C108.45 37.4983 105.978 37.4969 104.02 37.4958C102.256 37.4949 99.1608 37.4799 98.1951 37.4919C95.719 37.4925 95.1176 37.4815 94.9309 37.4813C94.4263 37.4806 94.1926 37.4877 93.5563 37.4878C85.3145 37.4887 74.4615 37.4794 66.6559 37.4767C48.5488 37.4706 30.343 37.4686 12.1729 37.4574C12.1353 37.4608 12.0977 37.4641 12.0601 37.4675L12.1727 37.5801C12.1717 37.569 12.1707 37.5579 12.1697 37.5469C12.1697 37.5579 12.1697 37.569 12.1697 37.5801L12.0601 37.4705C14.2004 37.4741 16.7091 37.4823 18.8183 37.4847C21.6487 37.4877 25.8474 37.4719 27.9236 37.5007C27.0816 37.503 25.7099 37.4917 25.7345 37.5063C27.2396 37.5077 28.7448 37.5091 30.2499 37.5105C30.205 37.5039 30.1602 37.4973 30.1152 37.4906C31.6868 37.4892 33.2942 37.4911 34.8712 37.4907C35.1451 37.4906 34.9511 37.4846 35.1897 37.4847C35.4566 37.4848 35.2756 37.4907 35.3256 37.4908C36.0002 37.491 36.2038 37.485 36.2861 37.4852C36.4973 37.4855 36.3331 37.4912 36.942 37.493C38.0715 37.4963 38.8803 37.4814 38.615 37.5066C38.9797 37.5067 39.3443 37.5068 39.7089 37.5069C39.8034 37.5001 39.8978 37.4932 39.9922 37.4864C42.2352 37.5147 43.2694 37.4669 44.5089 37.5053C44.9176 37.4996 45.3264 37.494 45.7351 37.4883C45.9654 37.4952 46.1958 37.5019 46.4262 37.5087C46.4711 37.503 46.516 37.4972 46.5609 37.4915C48.763 37.4964 51.1077 37.4903 53.2139 37.4917C54.681 37.4927 55.0325 37.495 56.3321 37.495C59.2227 37.4949 56.3521 37.5051 58.7541 37.5175C58.629 37.5107 58.504 37.504 58.379 37.4972C58.7768 37.4948 59.1745 37.4925 59.5723 37.4902C59.8493 37.4957 60.1262 37.5013 60.4032 37.5068C61.6317 37.4789 62.4276 37.502 62.5948 37.5021C62.73 37.502 63.1941 37.4854 64.648 37.5001C64.0451 37.4769 65.7572 37.5003 65.8943 37.5005C66.0246 37.5006 67.6914 37.4961 68.3679 37.4965C68.9001 37.4969 70.0352 37.5021 70.8277 37.5021C71.5274 37.5021 71.4564 37.4945 71.5075 37.4944C72.3687 37.4941 71.8291 37.4998 72.4516 37.5003C73.0742 37.5008 73.5572 37.4945 73.6916 37.4951C73.7592 37.4955 73.5332 37.5024 73.8427 37.5032C74.6738 37.5053 76.1767 37.4997 77.1283 37.5002C77.4656 37.5003 77.8907 37.5063 78.2663 37.5066C78.8421 37.507 79.1112 37.4994 79.4458 37.4997C79.5622 37.4999 80.305 37.512 81.2283 37.5104C81.404 37.5101 81.92 37.4855 82.6055 37.5208C82.6584 37.5159 82.7113 37.5109 82.7641 37.506C85.8606 37.495 86.7223 37.5346 88.0991 37.5002C90.3475 37.5048 88.804 37.5178 89.0508 37.5199C89.2103 37.5213 89.9433 37.5178 90.0239 37.518C90.1665 37.5185 90.142 37.5228 90.2984 37.5228C93.1645 37.5227 91.8919 37.5143 92.7997 37.5095C94.9582 37.4981 96.6422 37.5253 92.8878 37.5162C92.8878 37.5186 92.8878 37.521 92.8878 37.5234C93.8122 37.5213 96.1589 37.523 95.3753 37.5347C94.7582 37.544 89.1909 37.5369 92.344 37.5508C93.0598 37.5539 93.4306 37.5451 94.6703 37.5618C95.4902 37.5628 95.6083 37.5414 96.7185 37.5501C96.5359 37.5427 96.3534 37.5352 96.1709 37.5277C97.6848 37.5184 99.5526 37.5318 100.715 37.5279C101.11 37.5266 102.534 37.4925 102.202 37.5269C102.866 37.5249 105.995 37.532 106.577 37.5291C106.716 37.5284 106.898 37.5105 108.922 37.5173C109.062 37.5196 109.203 37.5219 109.343 37.5241C107.493 37.5302 110.761 37.5375 109.873 37.5541C109.572 37.5466 108.104 37.5417 107.868 37.5378C107.465 37.531 108.666 37.5228 107.135 37.5248C106.171 37.5531 108.929 37.5405 108.508 37.5673C110.517 37.5549 110.718 37.5669 111.173 37.5674C113.117 37.5695 114.341 37.5668 116.175 37.5699C116.622 37.5647 113.301 37.5566 112.89 37.5589C114.404 37.54 111.798 37.5386 110.698 37.5499C110.606 37.544 110.513 37.5382 110.421 37.5323C111.853 37.5358 113.249 37.5376 114.667 37.5333C114.76 37.5354 114.852 37.5376 114.944 37.5397C114.626 37.5429 114.308 37.5461 113.99 37.5493C115.169 37.5547 114.462 37.538 116.033 37.5528C116.082 37.5464 116.13 37.54 116.179 37.5336C117.685 37.536 119.192 37.5385 120.698 37.5409C121.483 37.5285 124.381 37.5339 123.85 37.5497C125.021 37.5511 123.576 37.5423 124.673 37.5386C125.15 37.537 126.082 37.5368 126.313 37.5411C126.214 37.5561 124.818 37.5578 124.396 37.5683C124.652 37.5716 131.143 37.5614 130.564 37.5786C131.082 37.5807 130.844 37.5718 131.779 37.5696C134.398 37.5636 138.455 37.5806 140.564 37.5599C138.088 37.5479 137.355 37.5601 135.457 37.5605C134.245 37.5607 126.853 37.562 128.504 37.5465C128.233 37.5484 127.961 37.5504 127.69 37.5523C127.416 37.5476 127.141 37.5428 126.867 37.538C127.64 37.5375 128.413 37.537 129.187 37.5365C129.371 37.5412 129.556 37.5459 129.741 37.5506C129.826 37.5473 129.911 37.544 129.996 37.5407C130.322 37.5401 130.647 37.5395 130.973 37.539C130.882 37.5429 130.79 37.5468 130.699 37.5508C131.2 37.5515 131.702 37.5523 132.204 37.553C132.069 37.5478 131.934 37.5425 131.799 37.5372C134.162 37.5364 133.362 37.5395 134.673 37.5495C135.652 37.5507 133.998 37.5404 136.069 37.5383C138.477 37.536 136.897 37.5512 140.015 37.5485C140.06 37.5459 140.105 37.5434 140.15 37.5409C140.836 37.5436 141.521 37.5462 142.207 37.5488C142.116 37.5457 142.026 37.5426 141.935 37.5395C143.35 37.541 145.301 37.5357 145.77 37.5477C144.335 37.5416 144.349 37.5625 144.722 37.5664C145.135 37.5706 148.597 37.5706 152.06 37.5698L152.05 37.5801C152.049 34.5855 152.048 31.5908 152.048 30.5683C152.047 27.749 152.053 25.6181 152.044 23.0429C152.037 24.788 152.042 30.9248 152.037 32.0877C152.036 32.2029 152.018 32.1705 152.038 32.911C152.036 34.3267 152.037 35.9066 152.038 37.5801L152.06 37.558C150.913 37.5587 149.722 37.5593 148.51 37.5589C148.601 37.5536 148.692 37.5482 148.783 37.5429C150.35 37.5529 151.817 37.5365 152.06 37.5444L152.024 37.5801C152.026 37.5389 152.028 37.5329 152.031 37.5675C152.031 37.2028 152.031 36.8382 152.031 36.4735C152.027 36.4735 152.024 36.4735 152.02 36.4735C152.02 35.9239 152.021 35.3742 152.021 34.8245C152.024 34.8245 152.028 34.8245 152.031 34.8245C152.031 34.3692 152.031 33.9139 152.031 33.4586C152.028 33.4112 152.025 33.3638 152.021 33.3164C152.028 31.953 152.011 27.3052 152.03 29.3485C152.031 28.7081 152.031 28.0678 152.031 27.4275C152.028 27.4296 152.026 27.4316 152.024 27.4337C152.023 27.1585 152.023 26.8832 152.023 26.6079C152.025 26.6986 152.027 26.7892 152.029 26.8799C152.026 25.6184 152.037 24.4225 152.03 23.5943C152.028 24.1406 152.026 24.6869 152.025 25.2333C152.028 24.1855 152.022 22.2551 152.022 22.0824C152.022 21.5558 152.027 21.2782 152.027 20.7077C152.028 20.1927 152.024 20.2636 152.024 20.1677C152.029 17.3898 152.047 18.4485 152.025 17.1515C152.028 17.0134 152.031 16.8754 152.034 16.7373C152.032 16.5535 152.029 16.3697 152.027 16.1859C152.027 15.3656 152.028 14.5452 152.028 13.7249C152.024 13.9985 152.02 14.272 152.017 14.5456C152.015 13.316 152.023 12.7425 152.023 12.6234C152.023 12.6086 152.023 12.5942 152.023 12.5801L152.06 12.6169C151.753 12.6168 151.608 12.6211 151.508 12.621C146.497 12.6192 149.541 12.6159 147.036 12.5984C146.144 12.6049 147.047 12.6117 147.174 12.6185C145.986 12.615 145.616 12.6168 144.363 12.6161C144.037 12.6159 143.686 12.6123 143.48 12.6122C143.302 12.6121 142.745 12.6157 142.317 12.6156C141.604 12.6154 140.655 12.613 139.679 12.6128C138.867 12.6126 136.382 12.6145 134.648 12.614C133.908 12.6138 134.08 12.611 133.889 12.6109C133.81 12.6109 133.233 12.6142 132.759 12.6141C128.889 12.6131 124.923 12.6099 121.034 12.6089C118.294 12.6083 115.51 12.6099 112.764 12.6089C112.18 12.6087 112.489 12.6066 112.234 12.6065C112.147 12.6064 112.041 12.6101 111.138 12.6084C110.811 12.6077 111.187 12.6053 110.866 12.6051C110.71 12.605 110.643 12.6082 109.73 12.6086C108.071 12.6094 107.18 12.605 107.031 12.6051C106.752 12.6053 106.834 12.6078 106.464 12.6078C104.654 12.6077 103.143 12.6077 101.528 12.6074C100.774 12.6073 95.5733 12.6061 95.2877 12.6056C94.6488 12.6046 95.2435 12.6001 94.4241 12.6C94.1946 12.6012 93.965 12.6023 93.7355 12.6033C94.1002 12.6043 94.4648 12.6053 94.8295 12.6063C93.8256 12.6045 92.6874 12.6062 91.9442 12.6059C91.8068 12.6058 90.5431 12.6035 89.8985 12.6035C90.1726 12.6028 90.4465 12.602 90.7206 12.6013C90.6236 12.6005 90.5267 12.5998 90.4298 12.5991C89.1408 12.5998 87.7774 12.5994 86.4556 12.599C85.9789 12.5988 86.14 12.5972 85.6575 12.5971C82.8467 12.5962 83.5566 12.6024 80.8524 12.5902C81.7655 12.5914 85.0965 12.5904 85.5807 12.5908C85.918 12.5911 87.2263 12.6021 86.7464 12.591C89.4452 12.5915 87.101 12.5972 89.6216 12.5964C89.5712 12.595 89.5209 12.5936 89.4705 12.5922C90.3505 12.5915 91.0004 12.5908 91.535 12.5934C91.7144 12.5865 94.704 12.5909 96.3438 12.5907C98.7135 12.5903 101.391 12.5887 103.738 12.5886C104.547 12.5885 105.005 12.5917 105.107 12.5917C105.255 12.5917 105.672 12.589 105.968 12.589C107.073 12.589 110.436 12.5944 111.273 12.5862C104.695 12.5858 98.1184 12.5854 91.5413 12.585C92.3683 12.5883 85.7153 12.5879 85.378 12.5877C85.0658 12.5876 85.3285 12.5855 85.2358 12.5854C84.5446 12.5844 83.9546 12.5874 83.7352 12.5874C83.5679 12.5873 83.23 12.5859 82.635 12.5859C82.5258 12.5859 82.4955 12.5873 82.3782 12.5873C81.602 12.5873 80.8358 12.5872 80.0568 12.5871C80.0094 12.5871 79.8129 12.585 79.6162 12.585C79.4191 12.585 79.2242 12.587 79.1744 12.587C78.5518 12.5869 77.4845 12.5855 76.8921 12.5854C76.6866 12.5854 76.8291 12.5869 76.5988 12.5868C75.8912 12.5867 76.1242 12.584 75.2493 12.5846C74.956 12.5849 74.975 12.5869 74.4134 12.5866C74.0157 12.5864 74.0586 12.5827 73.9955 12.5826C73.9084 12.5824 72.536 12.5852 72.0871 12.5828C73.068 12.5767 71.0139 12.5825 71.1127 12.585C70.5689 12.5843 70.0251 12.5837 69.4813 12.583C69.2958 12.5836 69.1103 12.5842 68.9248 12.5848C66.7307 12.5819 65.3921 12.5835 63.2336 12.5826C63.1293 12.5825 61.3106 12.5813 61.3956 12.5805C62.4843 12.5792 63.5704 12.5791 64.2671 12.5816C65.4136 12.5768 65.4332 12.5807 67.2846 12.58C67.9044 12.5798 67.9484 12.5784 68.0197 12.5784C70.4303 12.5776 74.2913 12.5766 75.9152 12.5813C76.3705 12.58 74.7338 12.5796 75.3701 12.5786C75.7172 12.5781 84.0697 12.5762 81.4013 12.5822C81.6782 12.582 81.9552 12.5819 82.2321 12.5817C82.5091 12.5761 83.8865 12.5773 83.7302 12.583C83.8607 12.5819 83.9912 12.5807 84.1217 12.5795C84.3795 12.5785 84.6845 12.578 85.1124 12.5776C86.7507 12.5763 96.4977 12.5781 97.0161 12.5772C97.0278 12.5756 97.0396 12.574 97.0513 12.5724C92.7453 12.5711 88.5679 12.575 83.8724 12.5716C84.0088 12.5728 84.1452 12.5741 84.2815 12.5753C82.408 12.5737 80.5344 12.5721 78.6608 12.5708C80.6438 12.5684 83.7986 12.5658 85.8803 12.5673C86.2503 12.5676 85.9791 12.5695 86.0641 12.5697C86.2862 12.5702 86.525 12.567 87.3229 12.5666C88.1212 12.5661 90.1264 12.5681 90.3102 12.568C90.6644 12.5678 91.6206 12.5638 92.2236 12.5637C93.0163 12.5636 92.485 12.5662 92.6441 12.5662C93.3021 12.5663 93.8922 12.565 94.4077 12.5651C95.1731 12.5652 96.7632 12.5695 97.2981 12.5627C96.7513 12.5625 96.2045 12.5623 95.6578 12.5621C98.6226 12.559 100.941 12.5675 103.862 12.5599C104.525 12.551 102.112 12.5529 104.152 12.5486C103.782 12.5488 103.411 12.5491 103.041 12.5493C102.954 12.5512 102.867 12.553 102.78 12.5548C102.142 12.5537 101.504 12.5526 100.866 12.5516C101.048 12.5531 101.23 12.5546 101.412 12.5561C99.1493 12.558 96.8643 12.5599 96.0745 12.5522C96.0279 12.5542 95.9813 12.5561 95.9347 12.558C93.8339 12.5564 90.6802 12.5649 91.2694 12.5546C91.17 12.5552 91.0705 12.5558 90.9711 12.5563C89.7012 12.5547 90.2436 12.5587 89.7664 12.5593C89.6301 12.5594 87.1619 12.558 88.2557 12.5548C85.8478 12.5534 86.5903 12.5621 85.9269 12.5627C84.3855 12.5587 81.6128 12.5658 82.7785 12.5589C82.549 12.5587 82.3194 12.5585 82.0899 12.5583C81.3356 12.5637 80.5922 12.5581 79.7749 12.5565C79.4979 12.5565 79.221 12.5565 78.944 12.5565C78.7585 12.5582 78.5731 12.5599 78.3876 12.5616C75.782 12.5547 76.6071 12.5752 75.4167 12.5582C75.6022 12.5571 75.7877 12.556 75.9731 12.5549C76.4129 12.5543 76.8527 12.5536 77.2924 12.5529C75.5187 12.5532 73.745 12.5535 71.9713 12.5538C69.7199 12.5504 68.4387 12.5557 65.9376 12.5536C65.7035 12.5541 65.4693 12.5546 65.2351 12.5551C65.4737 12.5517 66.3822 12.5517 64.6901 12.5511C64.5459 12.5489 65.6886 12.5479 66.2095 12.5494C66.335 12.5498 65.2666 12.5522 66.4676 12.5516C67.2841 12.5512 65.8014 12.5492 68.2476 12.5489C68.1569 12.5483 68.0663 12.5478 67.9757 12.5473C68.2409 12.5471 68.5061 12.547 68.7713 12.5468C69.0071 12.5481 69.2429 12.5494 69.4787 12.5507C70.0848 12.5483 70.4251 12.5452 71.8101 12.545C71.4344 12.5461 71.9442 12.5488 72.6296 12.5484C72.6296 12.5473 72.6296 12.5462 72.6296 12.5452C74.289 12.5435 73.7161 12.5471 75.0957 12.5437C75.2338 12.5445 75.3718 12.5454 75.5099 12.5462C76.2614 12.5421 79.0282 12.5378 78.5236 12.5439C79.2997 12.5378 80.9298 12.5393 81.536 12.5437C81.5826 12.5425 81.6291 12.5412 81.6757 12.54C81.9984 12.5395 82.3211 12.5391 82.6438 12.5386C82.8238 12.5393 83.0038 12.5399 83.1838 12.5406C83.4125 12.5397 83.6412 12.5388 83.8699 12.5379C84.0079 12.5391 84.146 12.5403 84.2841 12.5415C84.6516 12.5398 85.0192 12.538 85.3868 12.5363C85.6117 12.5372 85.8367 12.5381 86.0616 12.539C86.0848 12.5363 88.3131 12.5343 88.9355 12.5358C89.121 12.5349 89.3065 12.5339 89.4919 12.533C89.5826 12.5343 89.6732 12.5356 89.7638 12.5369C89.9019 12.5357 90.0399 12.5346 90.178 12.5334C90.4961 12.5343 90.8141 12.5352 91.1322 12.5361C92.4295 12.5286 92.4713 12.5345 92.7675 12.5343C93.3166 12.534 95.1866 12.5284 95.4992 12.5284C95.8114 12.5285 95.9622 12.531 96.2142 12.5311C100.369 12.5329 98.6612 12.5267 99.4948 12.525C99.9445 12.5241 100.263 12.5264 100.66 12.5259C101.341 12.5251 104.772 12.5194 104.969 12.5196C105.257 12.5199 104.58 12.5329 105.515 12.5292C105.546 12.5223 107.544 12.5281 106.61 12.519C107.433 12.5193 108.256 12.5197 109.078 12.52C108.985 12.5117 110 12.5164 111.105 12.5152C112.671 12.5136 116.198 12.5053 116.069 12.5146C116.444 12.5122 116.819 12.5099 117.194 12.5075C119.761 12.5087 122.279 12.5038 124.827 12.5019C132.388 12.4963 140.592 12.4929 148.118 12.4903C148.48 12.4902 148.428 12.4942 148.688 12.4941C149.4 12.4939 150.703 12.4924 152.06 12.491L152.149 12.4911L152.149 12.5801C152.15 13.8327 152.152 15.1309 152.152 16.0512C152.152 16.6653 152.148 16.9643 152.148 17.159C152.148 17.82 152.153 17.664 152.153 17.9685C152.153 18.4487 152.15 20.9885 152.15 21.8633C152.15 22.2965 152.154 22.8089 152.153 23.316C152.153 23.3597 152.149 23.2791 152.149 23.316C152.149 24.2403 152.152 23.6844 152.152 23.9971C152.152 26.2268 152.153 28.6101 152.154 31.029C152.154 31.6297 152.151 32.549 152.151 33.0646C152.151 33.2613 152.154 32.9085 152.155 33.5883C152.155 33.8211 152.15 33.9007 152.15 34.1636C152.149 35.2961 152.165 35.6752 152.153 36.6485C152.153 36.9309 152.153 37.2448 152.154 37.5801L152.154 37.674L152.06 37.6739C150.165 37.6763 147.585 37.6809 146.128 37.6818C145.723 37.6821 145.525 37.6792 145.139 37.6794C144.865 37.6796 144.382 37.6847 143.954 37.685C143.526 37.6853 142.851 37.6812 142.028 37.6818C141.162 37.6825 140.085 37.6858 139.889 37.686C139.654 37.6861 139.544 37.6803 139.308 37.6805C138.595 37.6811 136.686 37.688 135.767 37.6892C134.78 37.6905 134.187 37.6879 133.85 37.6882C133.537 37.6884 133.173 37.6938 133.03 37.6939C132.808 37.6941 132.756 37.6882 132.474 37.6884C132.013 37.6887 131.538 37.6928 130.847 37.6934C118.406 37.7029 106.209 37.707 94.1051 37.7087C92.7558 37.7088 91.9933 37.7144 90.005 37.7132C89.1989 37.7127 89.5385 37.7049 88.9111 37.7067C88.6314 37.7075 88.7021 37.7135 88.3484 37.714C86.7851 37.7162 84.9635 37.7116 84.2861 37.712C84.0174 37.7122 83.7103 37.7194 83.1594 37.7199C79.0537 37.7231 74.1962 37.724 69.7778 37.7279C67.4383 37.73 63.8965 37.736 61.2114 37.7382C53.7926 37.7442 45.8116 37.7473 39.0455 37.7523C30.0296 37.7589 21.0519 37.7712 12.0601 37.7716L11.8682 37.7714L11.8685 37.5801C11.8684 36.3826 11.8686 35.1849 11.8691 33.9868C11.8645 35.1026 11.8614 36.3127 11.8593 37.5801L11.859 37.7805L12.0601 37.7808C16.2101 37.7877 20.9732 37.7836 25.0408 37.7826C40.3779 37.7783 56.7081 37.7552 72.4265 37.7453C77.8953 37.7417 84.7907 37.7368 90.778 37.7365C91.0495 37.7365 91.6123 37.7308 92.1992 37.731C92.3239 37.7311 93.87 37.7395 94.3909 37.7392C93.8972 37.7228 95.9379 37.7363 96.5687 37.7354C97.3643 37.7343 99.0234 37.725 100.885 37.7283C102.575 37.7313 102.109 37.7378 102.202 37.7382C102.8 37.7402 103.008 37.7301 103.466 37.7288C105.336 37.7235 114.958 37.7225 117.643 37.7209C118.337 37.7205 118.357 37.7264 118.513 37.7263C118.927 37.726 119.516 37.7198 120.18 37.7194C121.376 37.7186 122.753 37.7231 123.411 37.7226C124.985 37.7215 127.973 37.713 130.019 37.7115C130.594 37.7111 130.559 37.7168 130.819 37.7166C131.966 37.7156 134.953 37.7068 136.376 37.7058C138.688 37.7041 141.066 37.706 143.417 37.7025C143.566 37.7048 143.715 37.7071 143.864 37.7094C144.099 37.7067 144.334 37.704 144.569 37.7014C147.051 37.7008 149.562 37.6974 152.06 37.6944L152.174 37.6946L152.174 37.5801C152.173 36.0793 152.171 34.583 152.17 33.0998C152.17 32.6445 152.172 30.3903 152.172 30.0144C152.172 29.7017 152.166 29.394 152.167 28.9305C152.167 28.2812 152.178 28.8922 152.174 27.8315C152.173 27.5463 152.169 27.8229 152.168 27.25C152.167 27.0607 152.163 23.3876 152.163 23.1902C152.163 22.8612 152.172 22.5677 152.172 22.4827C152.173 22.0413 152.166 22.0601 152.165 21.7639C152.163 20.89 152.166 19.7482 152.166 19.6062C152.164 17.8893 152.156 14.6796 152.158 12.8777C152.158 12.6285 152.163 12.6583 152.163 12.6146C152.163 12.6029 152.163 12.5914 152.163 12.5801L152.163 12.4771L152.06 12.477C151.798 12.4767 151.626 12.4818 151.368 12.4821C149.923 12.4837 147.659 12.4818 146.206 12.482C146.038 12.482 145.685 12.4847 145.386 12.4847C143.697 12.4845 144.245 12.4802 144.149 12.4801C143.921 12.4798 143.521 12.4845 142.915 12.4852C141.354 12.487 138.362 12.4886 136.689 12.4895C135.435 12.4901 135.454 12.4855 135.372 12.4854C135.196 12.4854 134.708 12.4895 133.883 12.4905C132.295 12.4925 132.476 12.4888 131.823 12.4894C131.768 12.4895 131.864 12.4929 131.14 12.4937C129.741 12.4954 126.598 12.4944 125.101 12.4957C124.525 12.4962 124.39 12.4995 123.801 12.4999C122.866 12.5007 120.756 12.4989 120.589 12.4991C120.543 12.4991 120.438 12.5027 120.164 12.5029C119.862 12.5031 119.565 12.5015 119.341 12.5017C118.06 12.5027 115.853 12.5101 116.467 12.4977C116.056 12.501 115.646 12.5042 115.235 12.5074C112.553 12.5088 109.947 12.5118 107.29 12.5141C106.692 12.5147 106.193 12.513 105.688 12.5134C105.184 12.5139 102.958 12.5188 102.586 12.519C101.923 12.5196 98.1511 12.5225 97.682 12.5226C96.7659 12.5227 95.8772 12.5194 95.5042 12.5204C95.2052 12.5213 95.4818 12.5233 94.9113 12.5243C93.9238 12.526 92.2458 12.5244 91.9442 12.5247C91.8154 12.5248 92.0565 12.5263 90.8502 12.5272C90.2002 12.5277 89.8512 12.5261 89.6153 12.5263C89.542 12.5264 89.652 12.5292 88.3653 12.5297C87.4766 12.53 87.0977 12.5281 87.0044 12.5281C86.8645 12.5282 86.5267 12.5307 85.9646 12.531C84.6508 12.5317 82.2488 12.5308 81.001 12.5315C80.7597 12.5317 80.8417 12.5341 79.8793 12.5346C79.191 12.5349 79.3113 12.5328 79.0535 12.5329C78.6449 12.5331 78.036 12.5359 77.1338 12.5364C75.9983 12.537 67.5672 12.5406 67.131 12.5404C66.8375 12.5403 66.4971 12.5405 66.3517 12.5398C66.4764 12.5388 66.601 12.5379 66.7256 12.537C68.0168 12.5389 67.4958 12.5359 67.8384 12.5354C68.3349 12.5347 70.2057 12.5337 70.6583 12.5325C70.8195 12.5321 70.4504 12.5305 71.3166 12.5287C72.2462 12.5268 72.6597 12.53 73.0299 12.5248C74.3492 12.5291 75.6163 12.5222 74.0886 12.522C73.2358 12.5218 64.8702 12.5281 63.1618 12.5296C61.7767 12.5308 59.1824 12.5345 57.4794 12.5359C56.4783 12.5367 54.0128 12.5389 54.117 12.537C53.2284 12.5377 54.1688 12.5385 53.9823 12.539C53.5923 12.5398 50.8187 12.5414 50.2939 12.542C47.7047 12.5449 44.4376 12.5495 41.9225 12.5503C42.0396 12.5499 42.1566 12.5494 42.2737 12.5489C42.8387 12.5477 45.4607 12.546 45.757 12.5438C41.9225 12.5479 38.088 12.5521 34.2536 12.5562C34.3249 12.5572 29.569 12.562 29.3441 12.5619C29.4276 12.5614 29.5111 12.5609 29.5946 12.5605C32.2821 12.5591 32.0411 12.5572 33.8457 12.5564C34.5804 12.5556 34.3586 12.555 34.7206 12.5545C38.3238 12.5487 34.7784 12.5562 37.5367 12.5524C36.7064 12.552 38.9653 12.5489 39.9776 12.5475C40.208 12.5472 43.2337 12.5441 43.593 12.5436C45.6116 12.5412 49.0782 12.536 51.0832 12.5348C52.6629 12.5331 53.5324 12.5305 54.9667 12.5284C56.0554 12.5268 55.7433 12.5283 56.2558 12.5278C57.3309 12.5265 57.6847 12.5223 58.3731 12.5268C59.102 12.5253 59.8309 12.5238 60.5598 12.5222C60.5598 12.5231 60.5598 12.5239 60.5598 12.5248C61.0176 12.5243 61.4754 12.5237 61.9332 12.5232C62.0679 12.5222 62.2026 12.5211 62.3373 12.5201C63.7902 12.5196 63.1836 12.5225 63.4551 12.5248C63.769 12.5246 64.0829 12.5245 64.3968 12.5243C64.6397 12.522 64.8827 12.5197 65.1256 12.5174C66.5272 12.5159 67.9287 12.5144 69.3302 12.513C69.4208 12.5139 69.5115 12.5148 69.6021 12.5157C69.605 12.5147 69.608 12.5136 69.6109 12.5126C71.9843 12.5096 74.3576 12.5066 76.731 12.5036C77.3623 12.501 73.5595 12.5042 73.2716 12.5045C71.6698 12.506 67.4159 12.5128 67.4104 12.5093C66.4147 12.5132 63.417 12.5161 62.4846 12.5145C63.8999 12.5129 65.3153 12.5112 66.7307 12.5096C66.6849 12.5085 66.6392 12.5074 66.5934 12.5063C68.3569 12.5086 68.615 12.5082 70.4279 12.5011C70.4296 12.5028 70.4313 12.5044 70.4329 12.5061C71.697 12.4986 73.9314 12.5058 73.9955 12.4983C74.6685 12.498 75.3416 12.4977 76.0147 12.4975C77.468 12.4946 75.2112 12.4916 80.9015 12.4862C81.2937 12.4859 81.212 12.4881 81.8016 12.4872C81.9717 12.4869 82.9454 12.4825 84.8077 12.4802C85.0984 12.4799 85.1204 12.4818 85.4221 12.4817C86.1186 12.4813 87.506 12.4755 86.876 12.4828C89.6348 12.4812 88.4915 12.4772 89.3472 12.4739C89.9175 12.4716 89.8027 12.4758 90.2963 12.4742C90.9072 12.4722 90.4589 12.4688 92.9047 12.4672C92.6302 12.4679 92.3558 12.4686 92.0814 12.4692C92.2194 12.4702 92.3575 12.4711 92.4955 12.4721C93.8915 12.4674 93.7596 12.4717 94.4178 12.4643C95.4326 12.4657 96.3106 12.4648 97.6984 12.4623C100.394 12.4576 99.0122 12.4519 102.089 12.4578C102.588 12.4557 103.086 12.4536 103.585 12.4514C104.404 12.4534 103.741 12.4582 104.964 12.4573C104.007 12.4509 106.588 12.4502 107.024 12.4425C107.07 12.4441 107.115 12.4457 107.161 12.4474C107.434 12.447 107.707 12.4466 107.981 12.4462C107.981 12.4448 107.982 12.4435 107.983 12.4421C108.347 12.4426 108.711 12.4431 109.075 12.4436C109.348 12.4419 109.622 12.4401 109.895 12.4383C110.345 12.4406 110.795 12.4429 111.245 12.4452C111.527 12.4451 111.81 12.4449 112.092 12.4447C112.003 12.4427 111.913 12.4407 111.824 12.4387C112.187 12.4389 112.55 12.4391 112.913 12.4393C112.49 12.4364 112.756 12.4319 113.886 12.4304C114.818 12.4291 113.768 12.4381 115.773 12.4321C115.913 12.4317 116.16 12.4259 118.055 12.4223C120.328 12.4179 119.224 12.4235 119.629 12.4231C119.708 12.423 120.403 12.4191 121.053 12.4178C121.421 12.417 121.777 12.4188 121.825 12.4187C122.053 12.4182 122.119 12.4149 122.435 12.4143C123.235 12.4128 124.31 12.4128 125.095 12.4115C125.451 12.4109 125.787 12.4084 125.946 12.4081C126.193 12.4077 126.506 12.4103 126.755 12.4099C127.677 12.4086 129.075 12.3959 129.503 12.4099C130.389 12.3951 132.245 12.4087 132.109 12.3998C134.476 12.3999 140.79 12.3784 140.605 12.3952C141.946 12.379 141.826 12.3895 142.388 12.3884C143.016 12.3873 142.69 12.385 143.189 12.3844C144.355 12.3829 145.469 12.3825 146.629 12.3808C146.447 12.3835 146.264 12.3861 146.082 12.3887C147.3 12.3877 146.881 12.3828 148.123 12.3799C150.407 12.3746 149.445 12.3805 149.782 12.3864C149.715 12.3819 151.188 12.3791 152.06 12.3782L152.262 12.3785L152.262 12.5801C152.262 12.8805 152.262 13.1095 152.262 13.1798C152.262 13.3433 152.253 12.6266 152.258 14.2762C152.26 14.186 152.263 14.0958 152.265 14.0056C152.263 14.7572 152.27 16.7987 152.27 17.1452C152.269 17.3042 152.25 18.1551 152.267 18.934C152.265 19.028 152.263 19.122 152.26 19.216C152.264 20.0808 152.269 20.9456 152.273 21.8105C152.269 21.9485 152.264 22.0866 152.259 22.2246C152.26 22.4991 152.26 22.7735 152.26 23.0479C152.264 22.8658 152.268 22.6837 152.272 22.5016C152.273 24.1961 152.283 26.2663 152.269 26.6155C152.272 26.9785 152.275 27.3414 152.278 27.7044C152.274 27.9406 152.269 28.1769 152.264 28.4131C152.268 30.0939 152.271 30.1217 152.278 31.2707C152.274 31.2258 152.27 31.1809 152.266 31.136C152.273 31.9835 152.28 33.5307 152.282 34.754C152.284 35.3354 152.279 36.3339 152.28 36.471C152.281 36.5583 152.29 37.1308 152.293 37.5801L152.292 37.8129L152.06 37.8126C151.795 37.814 151.574 37.8129 151.519 37.8058C149.511 37.8171 148.627 37.8096 147.813 37.8109C147.284 37.8118 147.042 37.8168 146.444 37.8182C145.589 37.8201 144.727 37.819 144.234 37.82C143.951 37.8206 143.899 37.8253 143.704 37.8258C142.783 37.8278 143.322 37.8222 142.352 37.8239C142.262 37.824 141.553 37.8309 140.753 37.8313C140.306 37.8315 139.149 37.8265 139.047 37.8266C138.595 37.8274 138.956 37.8402 137.41 37.827C137.454 37.8294 137.499 37.8319 137.544 37.8344C135.63 37.8436 135.328 37.8326 134.941 37.8323C134.892 37.8323 134.425 37.8374 134.147 37.8372C133.676 37.8368 133.486 37.831 133.381 37.8308C133.014 37.8304 131.776 37.8348 130.967 37.8299C131.137 37.8473 128.302 37.8579 127.674 37.8383C127.172 37.843 126.67 37.8478 126.168 37.8526C125.941 37.8495 125.714 37.8464 125.487 37.8433C125.349 37.8469 125.211 37.8505 125.073 37.8541C124.341 37.8477 123.61 37.8411 122.879 37.8345C122.832 37.8422 122.786 37.8498 122.739 37.8575C122.534 37.8569 122.329 37.8563 122.125 37.8557C121.965 37.8499 121.805 37.8441 121.645 37.8382C121.389 37.8397 121.133 37.8412 120.877 37.8427C120.814 37.8472 120.75 37.8517 120.687 37.8562C119.311 37.8633 120.018 37.8198 117.396 37.8608C116.988 37.8579 116.581 37.8549 116.173 37.8519C115.712 37.8698 114.849 37.8606 114.152 37.8635C113.661 37.8656 113.688 37.8725 113.019 37.8736C112.35 37.8747 112.374 37.868 112.322 37.868C111.776 37.8684 111.365 37.8749 110.965 37.8743C110.905 37.8742 110.754 37.8664 110.244 37.8666C109.733 37.8668 109.426 37.8758 108.666 37.8752C108.277 37.875 108.164 37.8683 107.819 37.8682C106.173 37.8673 104.516 37.9051 103.282 37.8648C103.004 37.8704 100.986 37.892 100.122 37.8922C98.7793 37.8924 99.2968 37.8833 98.7629 37.8825C98.6861 37.8824 98.2771 37.8858 97.1503 37.8868C96.9487 37.887 96.9954 37.8917 96.9665 37.8918C95.6529 37.8936 93.1019 37.8934 91.6592 37.8947C91.5303 37.8948 90.8553 37.9095 89.7117 37.8926C88.0169 37.9088 84.8244 37.8832 82.5892 37.9074C82.2793 37.9083 81.9031 37.9038 81.7659 37.9041C80.5838 37.9073 81.017 37.9224 78.3456 37.9031C78.5618 37.9109 77.9369 37.919 77.054 37.9196C75.7265 37.9206 76.6694 37.9042 75.6025 37.9068C75.6025 37.9111 75.6025 37.9154 75.6025 37.9197C73.1482 37.9115 72.6599 37.9306 70.197 37.9343C69.3111 37.9356 68.0026 37.9277 67.7914 37.928C67.7097 37.9281 66.7408 37.9401 66.6483 37.9404C66.1272 37.9414 65.833 37.9369 65.3832 37.9375C63.8967 37.9395 62.1229 37.9562 62.4438 37.9301C62.0351 37.936 61.6264 37.942 61.2177 37.9481C59.6735 37.9226 58.5188 37.9624 58.1952 37.9359C57.9191 37.9419 57.6429 37.9479 57.3668 37.9539C50.744 37.9606 44.1212 37.967 37.4984 37.9733C37.2351 37.9831 34.3471 37.9839 34.199 37.9826C33.5189 37.9768 34.2372 37.9551 32.8495 37.9617C32.6959 37.971 32.5423 37.9804 32.3887 37.9897C30.6445 37.9952 31.4834 37.9849 30.795 37.9797C30.5074 37.9812 30.6003 37.9882 30.2109 37.9893C28.0991 37.9951 23.7688 38.0017 21.4594 38.0056C20.9937 38.0064 21.064 37.9994 20.9193 37.9996C20.5218 38.0002 19.7371 38.0101 18.9392 38.0113C16.9013 38.0142 14.5124 38.0168 12.0601 38.0188L11.6207 38.0181L11.6214 37.5801C11.6186 34.0951 11.617 30.4822 11.6175 27.5667C11.6176 27.2293 11.6263 27.1876 11.6264 26.9599C11.6265 26.6444 11.6185 25.9397 11.6187 25.6079C11.619 25.2954 11.6254 25.0951 11.6257 24.7607C11.6273 23.2303 11.613 21.1726 11.6309 19.5352C11.6324 19.3975 11.6664 17.682 11.6688 17.6432C11.6828 17.4155 11.7065 18.94 11.7247 16.4359C11.7451 18.674 11.776 17.9748 11.7894 15.0676C11.7947 16.5257 11.7999 17.9839 11.805 19.4421C11.8088 19.4442 11.8126 19.4463 11.8163 19.4484C11.834 18.121 11.8394 16.804 11.8398 14.7856C11.8434 14.8485 11.847 14.9115 11.8505 14.9744C11.8693 16.7572 11.8738 18.9077 11.8982 20.2654C11.9148 18.2743 11.9316 16.2832 11.9488 14.2921C11.9516 14.3916 11.9545 14.491 11.9573 14.5905C11.9648 15.5449 11.9697 17.6298 11.9765 18.4224C12.0026 21.4497 11.995 15.7728 12.0109 16.7053C12.0108 19.9016 12.0107 23.0978 12.0107 26.294C12.0215 26.4061 12.0519 14.1101 12.0874 14.2367C12.0896 15.2413 12.0919 16.2458 12.0941 17.2504C12.103 16.8027 12.1118 16.3549 12.1208 15.9072C12.1236 16.0306 12.1263 16.154 12.1291 16.2773C12.1356 17.9722 12.142 19.667 12.1483 21.3618C12.1429 16.2089 12.1482 13.8143 12.2191 12.5801C12.2208 12.7198 12.2225 12.8595 12.2243 12.9993C12.1797 14.1156 12.1921 19.3848 12.1993 22.1851C12.2121 21.6144 12.2035 19.1487 12.2113 18.6276C12.2136 18.4799 12.2221 18.9949 12.2268 18.6528C12.2389 17.7587 12.2563 13.9487 12.2705 14.5023C12.2797 14.8589 12.288 20.9893 12.2862 22.1851C12.3045 19.3821 12.3115 16.494 12.3342 13.6828C12.3612 15.4573 12.3941 17.0288 12.3922 20.2679C12.4057 21.2551 12.4336 14.3983 12.4421 14.2392C12.4494 15.4259 12.4567 16.6126 12.4638 17.7993C12.4628 16.7955 12.4617 15.7918 12.4606 14.7881C12.4635 14.7852 12.4664 14.7822 12.4693 14.7793C12.4797 17.3794 12.5009 19.7581 12.4951 22.734C12.5103 22.638 12.5113 20.8574 12.5127 19.9934ZM49.8822 12.5321C49.8222 12.5307 50.9132 12.5295 51.5275 12.5288C51.4352 12.5286 51.3429 12.5284 51.2506 12.5283C52.5616 12.5268 55.0021 12.5243 55.0926 12.5209C56.0278 12.5192 55.6143 12.5227 55.9159 12.5226C56.0338 12.5226 57.2545 12.5192 58.2309 12.5201C58.4629 12.5198 58.695 12.5195 58.927 12.5191C58.972 12.5179 59.0168 12.5167 59.0617 12.5155C59.3853 12.5164 59.7088 12.5174 60.0323 12.5185C56.6506 12.5231 53.2689 12.5276 49.8872 12.5321C49.8856 12.5321 49.8839 12.5321 49.8822 12.5321ZM83.5904 12.4871C84.8219 12.4864 86.7082 12.4857 86.3272 12.4811C85.5492 12.4824 84.7712 12.4837 83.9933 12.485C83.859 12.4857 83.7247 12.4864 83.5904 12.4871ZM123.022 37.822C121.994 37.8103 121.047 37.8227 119.456 37.8223C119.458 37.8251 119.46 37.8279 119.462 37.8307C120.113 37.8232 121.832 37.8255 123.022 37.822ZM19.3249 12.5727C19.0983 12.5729 18.8717 12.5731 18.6451 12.5733C19.5666 12.5718 19.7316 12.572 20.7738 12.5709C20.8366 12.5708 20.8149 12.5707 20.8368 12.5706C21.0918 12.5703 21.3277 12.5703 21.5581 12.57C22.0024 12.5696 22.3647 12.569 23.1518 12.5681C23.7604 12.5675 23.7662 12.5679 23.9801 12.5676C24.1624 12.5675 25.9686 12.5643 27.131 12.5635C29.3416 12.5625 19.9996 12.5721 19.3249 12.5727ZM12.7726 12.5793C12.9912 12.5791 13.2098 12.5788 13.4284 12.5786C12.771 12.5794 14.0978 12.578 15.0712 12.577C15.041 12.5771 12.9816 12.5791 12.0601 12.5801C12.2976 12.5798 12.535 12.5796 12.7726 12.5793ZM40.4194 12.5526C39.564 12.5535 39.7065 12.5517 39.7422 12.5512C40.0145 12.5509 40.2869 12.5506 40.5592 12.5503C40.5126 12.5511 40.466 12.5518 40.4194 12.5526ZM33.9855 12.5593C34.2515 12.5581 36.1087 12.5558 36.9891 12.5548C37.0275 12.5548 36.7857 12.5556 37.4083 12.5549C37.5952 12.5548 39.4343 12.5507 39.0297 12.5536C37.3491 12.5556 35.6685 12.5574 33.988 12.5593C33.9871 12.5593 33.9863 12.5593 33.9855 12.5593ZM32.1098 12.5606C32.4597 12.56 32.8097 12.5593 33.1596 12.5587C33.3405 12.5589 33.5213 12.5592 33.7022 12.5594C33.304 12.5599 32.9058 12.5604 32.5076 12.5609C32.375 12.5608 32.2424 12.5607 32.1098 12.5606ZM33.7105 37.8403C33.7919 37.8461 33.8733 37.852 33.9547 37.8578C34.2702 37.8611 35.8035 37.834 35.3181 37.8295C34.7822 37.8331 34.2464 37.8367 33.7105 37.8403ZM27.235 37.8335C26.9161 37.8307 26.5972 37.828 26.2783 37.8252C25.9115 37.8358 25.5448 37.8464 25.178 37.8571C26.7712 37.8626 28.4663 37.8688 28.193 37.8389C28.5576 37.8386 28.9223 37.8383 29.2869 37.8379C28.9799 37.8507 29.0212 37.8548 29.9755 37.8617C30.1842 37.8442 31.171 37.8521 32.3006 37.8473C31.479 37.847 30.6574 37.8468 29.8358 37.8465C29.8358 37.8435 29.8358 37.8405 29.8358 37.8374C31.6671 37.8369 29.391 37.8196 28.198 37.8327C28.104 37.8287 28.01 37.8247 27.916 37.8207C27.689 37.825 27.462 37.8292 27.235 37.8335ZM152.201 30.0333C152.2 30.2603 152.198 30.4873 152.197 30.7143C152.219 31.5941 152.197 29.8029 152.213 28.5277C152.2 28.949 152.199 27.0049 152.198 26.8937C152.194 27.1174 152.19 27.341 152.186 27.5647C152.191 28.3875 152.196 29.2104 152.201 30.0333ZM152.191 36.4685C152.196 36.1136 152.199 36.7048 152.202 37.5801L152.201 37.7219L152.06 37.7217C150.994 37.7244 149.507 37.7253 148.795 37.7245C148.479 37.7242 147.917 37.7182 147.689 37.7192C147.551 37.7217 147.413 37.7242 147.275 37.7267C147.112 37.7186 144.578 37.73 143.58 37.7355C143.486 37.7325 143.392 37.7295 143.298 37.7265C142.935 37.728 142.571 37.7296 142.207 37.7311C142.253 37.728 142.299 37.7249 142.344 37.7217C142.069 37.7257 141.794 37.7296 141.518 37.7336C140.438 37.7387 141.104 37.7212 140.292 37.7271C139.39 37.7338 140.869 37.7426 140.841 37.7492C141.574 37.7468 143.239 37.7415 143.982 37.7406C144.409 37.7401 143.925 37.7521 145.765 37.7372C146.168 37.7398 146.571 37.7425 146.974 37.7452C147.714 37.7396 148.455 37.7341 149.195 37.7287C149.333 37.7327 149.471 37.7367 149.609 37.7408C149.688 37.7413 151.4 37.7304 151.309 37.7274C151.505 37.7294 151.761 37.7309 152.06 37.7319L152.212 37.7322L152.212 37.5801C152.215 36.8243 152.214 35.7891 152.214 34.7149C152.211 34.5706 152.209 34.4262 152.207 34.2819C152.213 35.7323 152.205 34.7434 152.201 35.1757C152.199 35.4253 152.195 36.1888 152.191 36.4685ZM43.8153 37.8162C41.3799 37.8348 42.8877 37.8199 40.2553 37.8222C40.4391 37.8309 40.6229 37.8395 40.8067 37.8482C42.101 37.8308 44.2306 37.8395 43.8178 37.8162C43.817 37.8162 43.8162 37.8162 43.8153 37.8162ZM18.0555 37.8702C19.4485 37.8631 18.7495 37.8489 20.5153 37.8426C20.5161 37.8426 20.5169 37.8426 20.5178 37.8426C19.6047 37.8424 18.6916 37.8421 17.7785 37.8418C17.8708 37.8513 17.9632 37.8608 18.0555 37.8702ZM99.4917 37.7828C100.827 37.7845 100.564 37.7794 101.777 37.789C103.581 37.7743 102.053 37.7776 102.053 37.7658C101.641 37.7696 101.229 37.7735 100.816 37.7773C99.8161 37.7671 100.764 37.7607 100.764 37.7597C100.764 37.7597 100.763 37.7597 100.762 37.7597C100.762 37.7561 100.794 37.7553 100.411 37.7535C100.104 37.7632 99.798 37.773 99.4917 37.7828ZM105.208 37.7631C104.75 37.7712 104.544 37.7814 105.748 37.7851C105.749 37.7851 105.75 37.7851 105.751 37.7851C105.847 37.7679 107.002 37.7806 107.528 37.779C107.666 37.777 107.804 37.775 107.942 37.773C107.031 37.7698 106.12 37.7665 105.208 37.7631ZM125.35 37.7314C125.355 37.7486 124.344 37.7512 125.766 37.7657C126.043 37.7651 126.319 37.7645 126.595 37.764C126.776 37.76 126.957 37.7561 127.139 37.7522C130.641 37.7795 131.685 37.7267 125.766 37.7514C125.766 37.7514 125.765 37.7514 125.764 37.7515C125.626 37.7448 125.488 37.7381 125.35 37.7314ZM119.181 37.7378C119.137 37.7472 119.092 37.7565 119.048 37.7659C118.275 37.7441 117.275 37.7665 115.759 37.7518C115.621 37.7548 115.484 37.7578 115.347 37.7608C114.78 37.755 109.212 37.7579 110.419 37.7718C110.945 37.7778 112.092 37.7679 112.191 37.768C112.526 37.7684 112.962 37.7763 113.527 37.7753C113.853 37.7747 114.541 37.7644 115.207 37.7638C116.696 37.7626 119.415 37.7851 121.373 37.7596C121.514 37.7622 121.655 37.7648 121.796 37.7675C123.249 37.7644 122.764 37.7562 124.116 37.7652C125.05 37.7212 118.681 37.7724 120.007 37.7357C120.006 37.7357 120.006 37.7357 120.005 37.7357C119.73 37.7364 119.456 37.7371 119.181 37.7378ZM79.1714 37.7856C79.0836 37.7762 77.3982 37.7924 77.7942 37.769C77.2441 37.7775 76.694 37.786 76.1438 37.7945C76.148 37.7967 76.1523 37.7988 76.1564 37.801C76.7032 37.7988 77.2499 37.7966 77.7967 37.7944C77.7988 37.7978 77.8009 37.8012 77.803 37.8046C78.6177 37.7916 82.018 37.7939 81.9144 37.8058C82.0961 37.8006 82.2778 37.7954 82.4595 37.7903C84.0859 37.8023 85.4852 37.7868 87.257 37.7981C87.3942 37.7939 87.5314 37.7898 87.6686 37.7856C87.758 37.7888 87.8474 37.792 87.9368 37.7951C88.5821 37.7949 89.2275 37.7947 89.8729 37.7945C91.976 37.7797 87.8896 37.7665 87.3942 37.7687C87.3283 37.769 87.3386 37.7775 86.9272 37.7791C86.1965 37.7822 82.1064 37.7771 80.8419 37.7839C80.831 37.7781 80.82 37.7724 80.8091 37.7667C80.2632 37.7729 79.7173 37.7793 79.1714 37.7856ZM133.165 37.7429C133.257 37.7474 133.349 37.7518 133.442 37.7563C135.035 37.7502 136.038 37.7533 135.63 37.7388C135.629 37.7388 135.628 37.7388 135.627 37.7388C134.806 37.7401 133.985 37.7415 133.165 37.7429ZM77.5568 12.5207C77.5986 12.5239 78.3602 12.5245 79.3443 12.5213C79.2969 12.5203 79.2495 12.5194 79.2021 12.5185C78.6892 12.5218 78.0491 12.5175 76.4666 12.5196C76.4666 12.5212 76.4666 12.5228 76.4666 12.5244C76.83 12.5232 77.1934 12.522 77.5568 12.5207ZM131.79 37.7421C131.304 37.7371 129.942 37.7548 130.838 37.7548C131.524 37.7548 132.051 37.7448 131.79 37.7421ZM12.5757 37.8609C12.9357 37.8622 13.2958 37.8634 13.6558 37.8646C13.8434 37.8581 14.0309 37.8515 14.2185 37.845C14.2177 37.845 14.2168 37.845 14.216 37.845C13.6692 37.8503 13.1225 37.8556 12.5757 37.8609ZM94.9259 37.7879C96.147 37.7861 97.368 37.7843 98.5891 37.7825C98.6013 37.7795 98.6135 37.7764 98.6256 37.7734C97.4024 37.7855 96.9106 37.7741 96.6253 37.7736C96.6266 37.7736 96.6279 37.7736 96.6291 37.7736C95.7132 37.772 94.8407 37.771 93.9742 37.7681C94.2914 37.7747 94.6087 37.7813 94.9259 37.7879ZM90.7402 37.7722C90.9459 37.794 91.2145 37.7962 93.0905 37.7792C93.0162 37.7766 92.9419 37.774 92.8677 37.7714C91.8956 37.7738 91.3286 37.7793 91.4993 37.7678C91.2463 37.7692 90.9932 37.7707 90.7402 37.7722ZM109.862 37.7624C109.637 37.7562 107.85 37.7642 107.947 37.7674C107.986 37.7687 110.301 37.7746 109.862 37.7624ZM63.9927 12.5341C64.4043 12.5341 64.816 12.5341 65.2276 12.5342C64.68 12.5352 64.1324 12.5362 63.5848 12.5372C63.7207 12.5362 63.8567 12.5352 63.9927 12.5341ZM59.4734 12.5447C59.18 12.5443 60.134 12.5394 58.3795 12.5398C59.6563 12.5386 60.9332 12.5374 62.2101 12.5362C61.6113 12.5374 61.0125 12.5387 60.4138 12.5398C60.5182 12.541 60.6227 12.5421 60.7272 12.5432C60.3093 12.5437 59.8913 12.5442 59.4734 12.5447ZM58.1025 12.5427C58.7901 12.5453 55.1693 12.5482 54.832 12.5481C54.7569 12.5481 54.3997 12.5462 54.268 12.5459C54.8148 12.5454 55.3616 12.545 55.9083 12.5445C55.7254 12.544 55.5424 12.5434 55.3595 12.5429C55.9994 12.5421 56.6393 12.5413 57.2792 12.5405C57.0056 12.5415 56.732 12.5424 56.4584 12.5434C57.0065 12.5431 57.5545 12.5429 58.1025 12.5427ZM72.6296 12.53C72.1718 12.5303 71.714 12.5305 71.2562 12.5308C71.3477 12.5322 71.4392 12.5336 71.5307 12.535C71.8046 12.5348 72.0787 12.5346 72.3527 12.5344C72.445 12.5329 72.5373 12.5315 72.6296 12.53ZM63.3016 12.5393C63.968 12.5326 65.7844 12.5448 63.6616 12.5414C63.4477 12.541 63.2385 12.54 63.3016 12.5393ZM53.475 12.5485C52.0515 12.5531 52.3727 12.5451 53.7167 12.5463C53.7842 12.5464 53.5818 12.5482 53.475 12.5485ZM42.8024 12.5567C42.6871 12.5568 42.4856 12.5551 41.385 12.5577C41.2033 12.5576 41.0216 12.5576 40.8399 12.5575C41.2651 12.5564 44.9025 12.5528 44.3999 12.5552C43.8431 12.5557 43.3784 12.5564 42.8024 12.5567ZM46.3247 12.562C46.8706 12.5616 47.4166 12.5613 47.9625 12.5609C47.7825 12.5603 47.6024 12.5597 47.4224 12.5591C47.691 12.5588 47.9595 12.5584 48.2281 12.5581C48.6871 12.559 49.1462 12.56 49.6053 12.561C48.4186 12.5618 47.2319 12.5626 46.0452 12.5634C46.1384 12.5629 46.2315 12.5624 46.3247 12.562ZM60.8392 12.5566C59.7888 12.556 58.5018 12.5578 56.7958 12.5584C56.795 12.5584 56.7941 12.5584 56.7933 12.5584C56.7082 12.5585 56.5574 12.5574 56.2835 12.5574C56.05 12.5576 51.4427 12.5611 51.802 12.5591C53.5846 12.5565 54.2506 12.5587 54.6784 12.5542C54.7653 12.555 54.8521 12.5559 54.939 12.5567C56.6532 12.5574 57.1423 12.5539 58.105 12.5521C58.1013 12.5528 58.0975 12.5535 58.0937 12.5543C58.7365 12.554 59.3794 12.5537 60.0222 12.5534C59.9316 12.553 59.841 12.5525 59.7503 12.5521C59.9778 12.5519 60.2052 12.5518 60.4326 12.5517C60.9866 12.5536 61.689 12.5539 60.8392 12.5566ZM43.8485 12.5624C43.3439 12.5665 38.426 12.5664 36.1796 12.5682C37.359 12.5658 39.186 12.5661 40.4723 12.5655C42.9589 12.5642 41.2401 12.5638 41.6619 12.563C41.8704 12.5626 43.2808 12.5642 43.8485 12.5624ZM64.6762 12.5537C63.4365 12.5538 62.7425 12.5555 61.6701 12.5539C61.7599 12.5534 61.8497 12.5529 61.9395 12.5524C62.3067 12.5526 65.3012 12.5523 64.6762 12.5537ZM32.8877 12.5692C35.2821 12.5689 34.1011 12.567 35.3463 12.5683C34.5268 12.5688 33.7072 12.5693 32.8877 12.5698C32.8877 12.5696 32.8877 12.5694 32.8877 12.5692ZM129.05 37.6585C128.04 37.6584 126.914 37.6547 126.31 37.6637C126.996 37.6647 127.682 37.6657 128.367 37.6668C128.595 37.664 128.822 37.6613 129.05 37.6585ZM152.055 31.8158C152.053 32.0462 152.059 32.9573 152.059 33.0533C152.059 33.2316 152.056 33.1829 152.055 33.1854C152.056 34.3529 152.064 33.2758 152.066 34.1396C152.066 34.2873 152.062 36.3166 152.062 37.142C152.062 37.2885 152.062 37.4349 152.062 37.5801C150.946 37.5826 149.905 37.5822 149.486 37.5824C148.685 37.5826 147.198 37.5889 145.882 37.5894C145.339 37.5895 145.15 37.5844 144.604 37.5845C141.101 37.5854 134.206 37.5932 131.099 37.5899C130.331 37.5891 129.599 37.5818 129.193 37.5824C128.873 37.5851 128.553 37.5878 128.233 37.5905C127.248 37.5663 126.918 37.5878 125.857 37.5902C125.183 37.5917 124.868 37.5844 124.777 37.5844C124.176 37.5846 123.88 37.5881 123.409 37.5887C122.879 37.5893 122.119 37.586 121.929 37.5866C121.813 37.5871 122.184 37.5969 120.131 37.5969C118.038 37.5969 115.971 37.596 113.843 37.5956C114.553 37.6265 115.164 37.6052 116.033 37.604C116.266 37.6037 116.118 37.6086 116.321 37.6083C116.895 37.6077 117.992 37.6028 118.466 37.6039C118.979 37.6051 118.804 37.6162 119.453 37.612C119.486 37.6118 119.382 37.6072 119.535 37.6064C121.071 37.5987 121.574 37.6066 123.516 37.6065C124.802 37.6064 132.616 37.6012 132.884 37.6039C134.283 37.6185 126.049 37.6204 125.087 37.6194C124.75 37.619 125.103 37.614 124.796 37.6132C124.666 37.6128 123.495 37.6224 122.339 37.6235C120.94 37.6248 118.129 37.6188 116.796 37.6193C105.337 37.6237 94.037 37.6196 82.5892 37.6213C82.3451 37.6213 82.0236 37.6282 81.2283 37.6284C66.3848 37.6315 51.0004 37.6283 35.9676 37.6349C32.6902 37.6364 29.4398 37.645 26.1322 37.6394C25.7219 37.6457 25.3115 37.652 24.9011 37.6583C25.9508 37.6531 27.8743 37.6666 28.0495 37.6667C28.1126 37.6668 28.5105 37.6597 29.1522 37.6599C30.0546 37.6601 30.4503 37.666 30.5244 37.666C30.7539 37.6659 30.6035 37.6596 30.8227 37.6596C32.4574 37.6594 33.7221 37.6573 35.2224 37.6568C36.9171 37.6563 37.7762 37.6676 39.0103 37.6546C39.15 37.6595 39.2898 37.6644 39.4295 37.6692C40.3516 37.6476 45.8423 37.6488 48.0665 37.6492C48.7682 37.6494 48.6451 37.6578 48.8809 37.6577C49.0315 37.6576 48.9721 37.6468 50.8082 37.6484C51.7325 37.6493 51.9749 37.6571 52.4384 37.6567C52.6903 37.6565 52.6494 37.6487 53.0112 37.6486C55.1038 37.6481 56.8124 37.6501 58.8611 37.6509C59.437 37.6512 59.4434 37.6575 59.5723 37.6574C60.0469 37.6569 60.8724 37.646 62.0787 37.6458C64.0644 37.6453 68.0219 37.6444 69.6457 37.6489C69.8843 37.6496 70.0819 37.6568 70.2575 37.6566C70.5232 37.6564 70.6275 37.6488 70.6741 37.6487C71.5628 37.6483 71.0282 37.6555 71.6233 37.6536C71.9441 37.6526 72.2787 37.6439 73.0244 37.6428C74.0091 37.6413 73.8152 37.6514 74.2266 37.6503C74.2701 37.6501 74.283 37.6431 74.6874 37.6427C76.2205 37.6415 78.4445 37.6394 79.8952 37.639C80.312 37.6389 80.622 37.6435 81.2032 37.6434C82.3743 37.6432 89.0311 37.6386 89.577 37.641C89.6346 37.6412 89.0427 37.6511 89.9862 37.6506C90.2602 37.6464 90.5342 37.6423 90.8082 37.6382C91.2664 37.6446 91.7246 37.6508 92.1829 37.6571C92.1664 37.6349 94.8621 37.631 94.8353 37.6533C95.1302 37.6541 95.4252 37.6549 95.7202 37.6557C96.3345 37.6401 96.7435 37.6457 97.9308 37.6364C98.1158 37.641 98.3009 37.6456 98.4859 37.6502C98.5325 37.6471 98.5791 37.644 98.6256 37.6409C99.2592 37.6575 100.298 37.6403 100.425 37.6402C100.91 37.6397 101.274 37.6438 101.502 37.6436C102.352 37.6429 104.193 37.6367 105.186 37.6391C105.232 37.6392 105.186 37.6462 105.469 37.6469C105.978 37.6483 106.028 37.6382 106.707 37.6498C106.845 37.6468 106.982 37.6438 107.119 37.6408C107.265 37.6423 107.41 37.6438 107.556 37.6453C108.415 37.6442 109.275 37.6432 110.134 37.6421C109.352 37.6539 110.252 37.66 111.102 37.6507C111.39 37.6475 111.135 37.6406 111.231 37.6395C111.362 37.6381 115.219 37.6405 115.474 37.6448C115.657 37.6426 115.839 37.6404 116.022 37.6382C116.114 37.6425 116.206 37.6467 116.299 37.651C116.399 37.6494 116.5 37.6479 116.601 37.6464C117.604 37.6535 120.21 37.6355 120.682 37.6368C120.934 37.6375 120.707 37.6554 121.917 37.6531C121.959 37.6482 122.001 37.6433 122.043 37.6384C122.32 37.6377 122.597 37.6369 122.874 37.6361C123.393 37.6364 124.15 37.6445 124.174 37.6502C124.336 37.6467 124.499 37.6433 124.661 37.6398C125.097 37.6508 127.423 37.646 128.358 37.6388C128.632 37.642 128.906 37.6452 129.179 37.6484C129.547 37.6442 129.914 37.6401 130.282 37.6361C131.134 37.6346 130.234 37.6415 130.415 37.642C130.799 37.643 132.756 37.6313 132.627 37.6451C132.894 37.645 133.161 37.6449 133.428 37.6449C133.565 37.6409 133.702 37.637 133.839 37.6331C134.298 37.6463 135.09 37.6413 136.716 37.6456C136.852 37.6425 136.989 37.6394 137.125 37.6364C137.628 37.6405 138.13 37.6446 138.633 37.6487C138.736 37.6437 138.84 37.6387 138.943 37.6337C139.161 37.6329 139.38 37.6321 139.599 37.6313C140.043 37.6423 140.84 37.6301 141.247 37.6345C141.839 37.6409 141.381 37.6489 140.281 37.6509C140.363 37.6589 143.639 37.6538 144.395 37.6529C144.345 37.6514 144.295 37.6499 144.245 37.6484C143.473 37.6499 142.7 37.6514 141.928 37.653C141.28 37.6332 143.378 37.6379 144.341 37.635C144.429 37.6347 144.928 37.6271 145.898 37.6275C146.274 37.6277 147.739 37.638 148.019 37.6385C150.278 37.6426 148.617 37.628 150.828 37.6405C150.475 37.6329 151.137 37.6358 152.06 37.6365L152.116 37.6365L152.116 37.5801C152.117 37.2977 152.117 36.9909 152.116 36.6813C152.116 36.4562 152.107 34.548 152.107 34.4191C152.105 33.6155 152.114 34.4903 152.112 33.3277C152.109 33.188 152.107 33.0482 152.105 32.9085C152.105 32.6378 152.105 32.3672 152.104 32.0965C152.124 30.4541 152.109 30.0721 152.107 29.4882C152.106 29.2523 152.111 29.556 152.11 28.9444C152.11 28.7141 152.105 28.4587 152.105 27.8391C152.104 25.9003 152.121 25.2421 152.102 23.4596C152.105 23.186 152.107 22.9124 152.11 22.6388C152.107 22.4542 152.103 22.2695 152.1 22.0849C152.109 20.6727 152.1 21.1826 152.1 20.6725C152.1 19.3257 152.101 16.5695 152.108 16.3282C152.091 15.1655 152.109 13.7753 152.108 13.317C152.106 13.0714 152.104 12.8257 152.103 12.5801L152.103 12.5376L152.06 12.5376C152.033 12.5378 152.007 12.538 151.98 12.5382C151.66 12.5363 151.34 12.5344 151.019 12.5326C151.175 12.5484 149.517 12.5333 149.358 12.5331C149.174 12.533 146.624 12.5384 145.674 12.5386C144.726 12.5388 143.074 12.5353 142.929 12.5353C142.762 12.5354 141.148 12.54 139.886 12.5403C138.782 12.5405 132.242 12.5373 132.654 12.5433C133.082 12.5449 133.691 12.5462 134.218 12.5469C135.852 12.5488 145.447 12.5499 147.899 12.5505C149.272 12.5508 150.662 12.551 152.06 12.551L152.089 12.551L152.089 12.5801C152.089 16.1865 152.09 19.8445 152.089 23.4042C152.089 23.6948 152.085 23.739 152.085 23.9883C152.085 24.3668 152.089 25.3273 152.089 25.7003C152.089 27.0936 152.089 28.7888 152.089 29.5348C152.089 31.202 152.086 32.3457 152.086 33.6071C152.086 34.0021 152.092 35.9987 152.09 37.3673C152.089 37.4382 152.089 37.5092 152.089 37.5801L152.089 37.6087L152.06 37.6087C151.883 37.6077 151.706 37.6068 151.529 37.6058C151.667 37.6055 151.85 37.605 152.06 37.6046L152.085 37.6046L152.085 37.5801C152.083 36.7186 152.08 35.3885 152.079 34.6986C152.078 33.4209 152.082 32.7545 152.082 32.2828C152.082 31.888 152.077 29.8697 152.077 28.9507C152.077 28.6654 152.082 28.6069 152.082 28.3628C152.082 27.0381 152.081 25.2934 152.076 24.1444C152.078 24.6134 152.08 21.6846 152.08 21.531C152.08 21.2677 152.076 20.9821 152.076 20.4446C152.076 19.411 152.085 19.5421 152.076 18.2504C152.078 17.9307 152.081 17.6109 152.083 17.2912C152.073 17.2738 152.084 14.1036 152.077 12.5801L152.077 12.5636L152.06 12.5636C151.863 12.5645 151.694 12.5657 151.562 12.5673C151.556 12.5676 151.746 12.568 152.06 12.5685L152.072 12.5685L152.072 12.5801C152.07 13.8955 152.067 17.3857 152.067 17.7356C152.066 20.3355 152.069 24.1829 152.067 26.7061C152.066 27.4655 152.058 29.8531 152.059 30.0333C152.059 30.3238 152.063 30.0614 152.063 30.1869C152.067 32.7559 152.058 31.4742 152.055 31.8158ZM58.105 12.5604C58.8855 12.5602 59.666 12.56 60.4465 12.5599C60.3898 12.5608 60.3332 12.5616 60.2765 12.5625C59.919 12.5623 59.5615 12.5621 59.204 12.5619C58.9291 12.5625 58.6543 12.5631 58.3795 12.5637C58.288 12.5626 58.1965 12.5615 58.105 12.5604ZM56.1815 12.5645C55.5047 12.5651 55.4716 12.5635 55.3154 12.5635C54.8492 12.5634 54.4461 12.5642 53.9936 12.5644C54.5147 12.5604 55.6247 12.5616 56.1815 12.5645ZM70.161 12.5614C70.0084 12.5612 68.9896 12.5561 67.8309 12.5616C66.964 12.5603 66.097 12.559 65.2301 12.5579C66.703 12.5596 68.741 12.5564 69.4624 12.5561C69.7363 12.5561 69.7886 12.5577 70.0074 12.5577C71.2691 12.5574 72.4957 12.5528 72.6246 12.5587C71.4315 12.5574 70.3558 12.5617 70.161 12.5614ZM62.5475 12.5621C62.3457 12.5612 62.1438 12.5602 61.942 12.5593C62.6713 12.559 63.4006 12.5587 64.1299 12.5584C63.9327 12.5595 63.7354 12.5607 63.5382 12.5618C63.208 12.5619 62.8777 12.562 62.5475 12.5621ZM118.653 12.5493C118.203 12.5494 117.754 12.5495 117.304 12.5496C117.328 12.5512 117.843 12.551 118.033 12.552C118.032 12.552 118.031 12.552 118.03 12.552C118.241 12.5532 118.151 12.5552 118.535 12.5561C118.574 12.5538 118.614 12.5516 118.653 12.5493ZM24.356 37.6398C23.602 37.6397 16.639 37.641 17.2322 37.6572C17.5311 37.6652 19.9126 37.6575 20.6147 37.6574C21.5612 37.6574 24.1174 37.6738 24.356 37.6398ZM12.001 37.5443C11.9999 37.536 11.9988 37.5489 11.9978 37.5801L11.9977 37.6422L12.0601 37.6423C12.4831 37.6559 16.2846 37.6569 16.6808 37.6542C16.5905 37.6519 16.4512 37.6468 16.3308 37.6457C15.7512 37.6403 13.0311 37.6434 12.0601 37.6393L12.0007 37.6392L12.0008 37.5801C12.0009 37.5679 12.0009 37.556 12.001 37.5443ZM143.844 12.5626C143.493 12.559 143.142 12.5555 142.792 12.552C142.884 12.5566 142.976 12.5612 143.069 12.5659C143.327 12.5648 143.586 12.5637 143.844 12.5626ZM151.247 37.6086C145.403 37.6093 139.559 37.61 133.715 37.6107C134.229 37.6079 134.743 37.6051 135.257 37.6024C140.293 37.6028 145.663 37.6045 150.526 37.6001C150.766 37.6029 151.006 37.6058 151.247 37.6086ZM71.8076 12.5704C73.305 12.5702 74.5556 12.5683 76.1846 12.5707C74.6323 12.5735 73.8637 12.5697 72.3552 12.5735C72.3544 12.5735 72.3535 12.5735 72.3527 12.5735C72.171 12.5725 71.9893 12.5714 71.8076 12.5704ZM105.238 12.566C104.782 12.5684 104.327 12.5707 103.872 12.573C104.419 12.573 104.967 12.573 105.515 12.5729C105.422 12.5706 105.33 12.5683 105.238 12.566ZM100.271 37.5875C98.7048 37.5994 94.6982 37.578 93.4253 37.5925C93.343 37.5935 94.0997 37.5995 92.8765 37.6116C93.8005 37.609 94.4529 37.6064 94.5218 37.5971C94.7962 37.6003 95.0707 37.6034 95.3451 37.6065C95.8004 37.6041 96.2557 37.6016 96.7109 37.5992C96.6616 37.6084 96.6976 37.6079 97.397 37.6016C97.7159 37.6039 98.0348 37.6061 98.3537 37.6084C98.4889 37.6045 98.6239 37.6007 98.7591 37.5968C99.0352 37.6022 99.3113 37.6075 99.5874 37.6128C100.664 37.6069 100.008 37.5966 100.271 37.5875ZM105.753 37.5895C105.499 37.5875 98.2373 37.5944 101.537 37.612C102.395 37.6113 103.253 37.6106 104.11 37.6099C103.4 37.5807 105.737 37.6067 105.929 37.6072C106.848 37.6099 108.019 37.6029 108.685 37.6032C109.258 37.6035 109.599 37.6085 110.002 37.6083C111.375 37.6077 113.544 37.6072 113.843 37.5956C112.775 37.5955 111.691 37.5954 110.581 37.5958C109.407 37.5963 108.375 37.585 106.17 37.6007C105.625 37.5991 105.819 37.59 105.753 37.5895ZM102.501 12.5726C102.556 12.5674 99.7844 12.5691 99.7667 12.571C99.7612 12.5722 100.664 12.5721 100.793 12.5725C100.793 12.5725 100.794 12.5725 100.795 12.5725C100.849 12.5727 100.576 12.5747 101 12.5752C101.501 12.5743 102.001 12.5735 102.501 12.5726ZM35.1859 37.6016C34.8113 37.5926 26.2534 37.5963 26.0013 37.6008C25.9329 37.6021 26.0283 37.6061 26.0013 37.6085C27.9978 37.5952 30.836 37.6105 32.7311 37.6112C33.2594 37.6114 33.1015 37.605 33.1315 37.6049C33.1327 37.6049 33.134 37.6049 33.1352 37.6049C33.435 37.6049 34.7883 37.6204 35.1859 37.6016ZM90.6848 37.5985C91.0486 37.6005 91.4124 37.6025 91.7762 37.6045C91.8686 37.6005 91.9609 37.5965 92.0532 37.5925C92.0524 37.5925 92.0515 37.5925 92.0507 37.5925C91.5954 37.5945 91.1401 37.5965 90.6848 37.5985ZM78.08 37.5857C78.1685 37.5886 78.257 37.5916 78.3456 37.5946C79.2616 37.5949 80.1776 37.5953 81.0936 37.5956C81.0013 37.5973 80.909 37.5989 80.8167 37.6006C82.2018 37.6049 82.7754 37.5946 83.5132 37.596C83.5123 37.596 83.5115 37.596 83.5106 37.596C83.59 37.5962 83.6861 37.6022 83.9814 37.6024C84.6586 37.6028 86.5995 37.6048 86.834 37.5988C87.3303 37.586 83.4244 37.5922 82.6962 37.5917C82.367 37.5914 81.9711 37.5861 81.7709 37.586C81.5516 37.5859 81.2528 37.5931 80.7185 37.5929C80.5622 37.5929 78.8289 37.5844 78.08 37.5857ZM61.9113 37.5955C62.1938 37.6027 62.7835 37.5957 63.0002 37.5969C63.0519 37.5971 62.6494 37.6031 63.1374 37.6049C63.2755 37.6008 63.4135 37.5967 63.5516 37.5926C63.0048 37.5936 62.458 37.5946 61.9113 37.5955ZM97.8444 12.5753C97.9241 12.5758 99.4119 12.5756 99.4834 12.5752C100.375 12.5707 97.2931 12.5715 97.8444 12.5753ZM60.2967 12.5802C60.9811 12.5838 52.8608 12.5801 52.0739 12.5804C52.1132 12.5785 54.0449 12.5804 53.0331 12.5778C53.9985 12.5792 56.6675 12.5784 57.2956 12.5788C57.6768 12.579 57.773 12.5809 57.8306 12.581C58.0566 12.5812 60.0554 12.579 60.2967 12.5802ZM45.3642 12.5793C46.1359 12.5796 46.9075 12.5799 47.6792 12.5802C46.7687 12.5804 45.8581 12.5806 44.9475 12.5807C45.0864 12.5802 45.2253 12.5798 45.3642 12.5793ZM44.3936 12.58C44.4183 12.5815 41.799 12.5803 41.1105 12.5806C41.8867 12.5784 43.1814 12.5805 44.3936 12.58ZM87.975 12.5848C89.1818 12.5872 89.7004 12.5765 88.2331 12.5811C88.1885 12.5813 87.9247 12.5846 87.975 12.5848ZM99.8983 37.5453C99.6927 37.5451 97.1335 37.5348 96.9854 37.5396C96.517 37.5551 98.1963 37.5491 98.7591 37.555C99.6669 37.5646 98.3318 37.5723 100.548 37.5667C100.457 37.5698 100.367 37.5728 100.276 37.5759C101.573 37.5769 101.149 37.5557 101.381 37.553C101.453 37.5522 102.263 37.5541 102.41 37.5528C104.237 37.5361 100.089 37.5454 99.8983 37.5453ZM117.849 12.5877C120.251 12.5924 119.218 12.5858 121.683 12.5863C121.766 12.5829 118.161 12.5849 117.849 12.5877ZM123.293 37.5599C120.808 37.5621 118.765 37.5537 116.447 37.5644C116.598 37.5813 123.937 37.564 123.293 37.5599ZM12.119 32.0646C12.11 33.857 12.1033 35.7005 12.0983 37.5801L12.0601 37.5419C20.318 37.5637 29.2723 37.5541 37.657 37.5546C38.7788 37.5546 38.8863 37.5639 39.2923 37.5629C39.5582 37.5623 39.5117 37.5548 39.865 37.5548C52.6378 37.5546 64.8679 37.5471 77.1031 37.5526C77.8738 37.553 81.6232 37.5669 82.4242 37.5465C83.0301 37.5311 80.3366 37.5428 79.8877 37.5426C79.5503 37.5424 79.536 37.535 79.3111 37.535C79.0725 37.5349 79.2696 37.54 78.9926 37.54C77.8188 37.5402 76.538 37.538 75.4767 37.5382C65.0681 37.5407 54.9419 37.538 44.5882 37.5354C43.335 37.5351 43.5926 37.5284 43.5296 37.5283C43.5287 37.5283 43.5279 37.5284 43.527 37.5284C36.8074 37.5263 29.1331 37.541 22.0158 37.5338C18.6972 37.5299 15.3786 37.526 12.0601 37.5219L12.1183 37.5801C12.1204 35.8868 12.1225 34.1934 12.1246 32.5001C12.1227 32.3549 12.1209 32.2097 12.119 32.0646ZM105.204 37.5647C104.579 37.5447 104.439 37.5648 102.196 37.5564C102.013 37.5599 101.831 37.5633 101.648 37.5667C102.835 37.5661 104.021 37.5654 105.208 37.5647C105.207 37.5647 105.206 37.5647 105.204 37.5647ZM90.3865 37.5559C90.0073 37.5271 84.9904 37.5466 82.7314 37.5407C82.3173 37.5556 85.6014 37.5493 86.3758 37.5509C86.7625 37.5518 88.8336 37.567 90.4079 37.5588C90.4008 37.5578 90.3936 37.5569 90.3865 37.5559ZM68.7927 12.5908C69.1577 12.5907 69.5228 12.5906 69.8879 12.5904C68.9744 12.5894 68.0608 12.5885 67.1473 12.5876C68.6047 12.5883 70.062 12.589 71.5193 12.5898C71.2478 12.5913 70.9763 12.5928 70.7048 12.5943C70.0675 12.5931 69.4301 12.592 68.7927 12.5908ZM73.5209 12.5909C70.9689 12.5911 73.633 12.5872 74.2699 12.5892C74.6512 12.5905 73.7815 12.5909 73.5209 12.5909ZM80.1588 12.5952C78.9686 12.598 76.5633 12.5976 77.4183 12.5918C78.7046 12.5948 79.5337 12.5926 81.3988 12.5947C81.1265 12.5959 80.8541 12.597 80.5818 12.5982C80.5805 12.5982 80.5793 12.5982 80.578 12.5982C80.4383 12.5972 80.2985 12.5962 80.1588 12.5952ZM72.3552 12.5941C70.6837 12.5905 75.5229 12.5926 74.0018 12.5945C73.9305 12.5945 72.421 12.5942 72.3552 12.5941ZM17.2322 37.4946C17.0308 37.5036 18.3164 37.5037 18.7441 37.5044C20.598 37.5076 22.9756 37.5043 24.9036 37.506C24.7584 37.5031 24.6132 37.5001 24.468 37.4972C22.0561 37.4963 19.6441 37.4954 17.2322 37.4946ZM30.9348 37.5076C32.2595 37.5079 33.5842 37.5083 34.909 37.5086C35.0324 37.5086 35.6115 37.5015 35.1809 37.4996C33.7655 37.5022 32.3501 37.5049 30.9348 37.5076ZM113.567 37.5285C112.551 37.5248 115.476 37.5081 115.344 37.5268C114.752 37.5274 114.159 37.5279 113.567 37.5285ZM123.018 37.5237C122.381 37.5253 121.744 37.5268 121.107 37.5284C121.107 37.5263 121.106 37.5242 121.105 37.5221C121.743 37.5226 122.381 37.5232 123.018 37.5237ZM12.1535 37.5443C12.1533 37.556 12.1531 37.5679 12.153 37.5801L12.0601 37.4872C12.7544 37.4979 14.326 37.4967 15.3124 37.4972C14.6297 37.4876 13.014 37.4916 12.0601 37.4868L12.1534 37.5801C12.1534 37.5681 12.1535 37.5561 12.1535 37.5443ZM98.3487 37.5165C98.431 37.522 94.3907 37.5195 95.7895 37.5102C96.6425 37.5123 97.4956 37.5144 98.3487 37.5165ZM90.1423 37.5058C91.0089 37.5048 91.6801 37.507 91.5018 37.5157C91.0423 37.5152 90.5829 37.5147 90.1234 37.5142C90.1297 37.5114 90.136 37.5086 90.1423 37.5058ZM84.6894 12.6016C86.1497 12.6017 87.6099 12.6019 89.0702 12.6021C89.0161 12.6029 88.962 12.6037 88.9078 12.6045C87.5 12.6043 86.0922 12.6041 84.6844 12.6039C84.6861 12.6031 84.6877 12.6023 84.6894 12.6016ZM12.1831 36.7185C12.1814 35.7156 12.1796 34.7128 12.1778 33.7099C12.1753 34.7136 12.1727 35.7173 12.1701 36.721C12.1745 36.721 12.1788 36.721 12.1831 36.721C12.1831 36.7202 12.1831 36.7194 12.1831 36.7185ZM64.685 12.6029C69.146 12.6077 63.454 12.6076 62.2768 12.6033C62.2756 12.6033 62.2743 12.6033 62.2731 12.6034C62.17 12.603 62.388 12.6015 62.2164 12.6008C62.6705 12.6017 63.1245 12.6026 63.5785 12.6035C63.9927 12.6028 64.4068 12.6021 64.821 12.6013C64.9573 12.6017 65.0937 12.6022 65.2301 12.6026C65.0484 12.6027 64.8667 12.6028 64.685 12.6029ZM46.681 12.5961C42.636 12.5941 46.7748 12.5932 48.7769 12.5962C48.7625 12.5967 47.0536 12.5963 46.681 12.5961ZM57.2817 12.6002C57.9191 12.6002 58.5565 12.6001 59.1939 12.6C59.2753 12.6005 59.3567 12.601 59.4381 12.6014C58.9489 12.6016 58.4596 12.6018 57.9703 12.602C57.7408 12.6014 57.5113 12.6008 57.2817 12.6002ZM78.2441 12.6187C79.2698 12.6199 80.5783 12.6139 77.2849 12.614C77.2865 12.6147 77.2882 12.6154 77.2899 12.6161C77.4212 12.616 77.8064 12.6156 77.8274 12.6156C77.8877 12.6158 77.8166 12.6181 78.2441 12.6187ZM39.1908 12.6002C39.0756 12.6003 39.0129 12.6032 37.8149 12.5992C37.4528 12.5991 37.0906 12.599 36.7285 12.5989C36.6349 12.5982 36.5413 12.5976 36.4478 12.5969C37.8493 12.5984 37.9979 12.5972 38.0994 12.5972C38.5653 12.5974 38.2205 12.5978 38.5211 12.5981C39.2972 12.5986 41.0607 12.5993 40.2608 12.6008C39.9728 12.6014 39.306 12.6002 39.1908 12.6002ZM41.9313 12.6042C41.7613 12.6038 42.3089 12.6032 42.1806 12.6028C42.0681 12.6025 40.3789 12.6003 40.8361 12.599C41.1135 12.5993 41.3909 12.5995 41.6682 12.5998C41.7622 12.6003 41.8562 12.6008 41.9502 12.6013C42.2188 12.6011 42.4873 12.6008 42.7559 12.6006C43.2084 12.602 44.1715 12.6043 43.0278 12.6044C43.4482 12.6046 43.8687 12.6049 44.2891 12.6051C44.5069 12.6047 44.7247 12.6042 44.9425 12.6038C44.8283 12.6046 44.7142 12.6054 44.6001 12.6062C43.7105 12.6056 42.8209 12.6049 41.9313 12.6042ZM28.8972 12.5935C28.9484 12.5933 28.9995 12.5931 29.0508 12.5929C27.5066 12.5922 25.1019 12.5904 26.4676 12.5902C28.5594 12.5915 30.6512 12.5929 32.743 12.5941C32.8819 12.5944 33.0207 12.5948 33.1596 12.5951C31.5991 12.5932 32.0814 12.597 30.7238 12.5949C30.4949 12.5946 31.1591 12.5939 29.7205 12.5936C29.7717 12.5939 29.8229 12.5942 29.874 12.5944C29.5484 12.5941 29.2228 12.5938 28.8972 12.5935ZM15.6226 12.5828C18.2666 12.585 15.3542 12.5829 14.866 12.5823C14.8669 12.5823 14.8677 12.5823 14.8686 12.5823C13.5306 12.581 16.4076 12.5833 16.5831 12.5834C16.8164 12.5836 17.3597 12.5835 18.6287 12.5852C17.6267 12.5844 16.6247 12.5836 15.6226 12.5828ZM24.2545 12.5898C24.0324 12.5896 24.1554 12.5895 24.0594 12.5894C24.0586 12.5894 24.0577 12.5894 24.0569 12.5894C22.6417 12.5884 19.2755 12.5858 18.9107 12.5851C19.9583 12.5859 24.6459 12.589 24.9293 12.5898C24.7044 12.5898 24.4795 12.5898 24.2545 12.5898ZM34.2133 12.5966C35.0821 12.5982 33.1261 12.5968 32.6133 12.596C32.5165 12.5959 33.3132 12.5949 34.2133 12.5966ZM100.861 12.6564C102.772 12.6557 100.261 12.6512 101.13 12.6481C100.765 12.6482 100.4 12.6482 100.035 12.6483C100.31 12.651 100.585 12.6537 100.861 12.6564ZM141.104 37.4138C140.659 37.4125 140.87 37.4172 140.831 37.4173C140.538 37.4169 140.262 37.4129 140.15 37.4132C138.073 37.4188 139.454 37.4239 139.475 37.4248C139.519 37.4293 138.973 37.4342 139.73 37.4399C140.189 37.4387 140.648 37.4375 141.107 37.4363C141.335 37.4389 141.563 37.4416 141.79 37.4443C142.702 37.4397 141.509 37.4373 141.374 37.4301C141.322 37.4273 142.179 37.4247 141.104 37.4138ZM104.286 12.6672C104.596 12.6634 105.355 12.6588 104.609 12.6541C104.609 12.6541 104.608 12.6541 104.607 12.6541C104.469 12.6532 103.907 12.6523 103.735 12.6511C102.504 12.6556 102.975 12.6615 104.286 12.6672ZM149.338 37.4082C150.079 37.4107 150.819 37.4132 151.559 37.4156C151.546 37.4201 151.534 37.4245 151.521 37.4289C151.125 37.4273 150.729 37.4258 150.333 37.4242C150.194 37.4261 150.055 37.428 149.916 37.4299C150.408 37.4355 150.9 37.441 151.392 37.4464C151.614 37.4459 151.837 37.4455 152.06 37.445L151.925 37.5801C151.924 37.2104 151.923 36.8407 151.923 36.471C151.92 36.7434 151.917 37.0157 151.915 37.288C151.914 35.8399 151.924 36.1552 151.929 34.9566C151.925 34.5462 151.922 34.1359 151.918 33.7255C151.923 33.1313 151.927 32.5371 151.932 31.9429C151.93 30.9446 151.928 30.8568 151.923 31.5288C151.918 31.0324 151.926 30.4889 151.925 29.891C151.925 29.8417 151.92 29.9346 151.92 29.891C151.919 26.8 151.932 26.9644 151.932 26.4707C151.933 26.1223 151.926 24.7315 151.923 24.7096C151.92 24.6828 151.902 27.5754 151.906 23.0454C151.893 25.3875 151.901 28.0501 151.918 26.3285C151.916 27.0697 151.917 30.3385 151.916 30.5469C151.915 30.8507 151.909 30.7441 151.909 31.1247C151.908 31.3496 151.922 31.9455 151.908 33.7255C151.91 33.9529 151.912 34.1803 151.914 34.4078C151.912 34.6209 151.91 34.8341 151.908 35.0473C151.901 34.6084 151.895 34.1694 151.889 33.7305C151.894 35.2642 151.882 36.5675 151.887 37.5801L152.06 37.4069C151.925 37.4075 151.795 37.4084 151.67 37.4097C150.754 37.4074 150.31 37.4055 150.703 37.3998C150.428 37.3995 150.153 37.3992 149.878 37.399C149.698 37.402 149.518 37.4051 149.338 37.4082ZM109.903 12.6663C110.813 12.6712 111.14 12.6626 110.998 12.662C110.2 12.6586 109.43 12.6638 109.903 12.6663ZM142.756 37.4237C143.76 37.4286 144.763 37.4334 145.767 37.4382C145.767 37.4334 145.767 37.4285 145.767 37.4237C144.763 37.4237 143.76 37.4237 142.756 37.4237ZM100.581 12.6618C100.489 12.6599 100.397 12.6579 100.304 12.656C99.2048 12.6618 98.1132 12.6511 97.57 12.6527C97.4521 12.653 97.6901 12.6564 97.9149 12.6573C98.0548 12.6579 100.386 12.6623 100.581 12.6618ZM54.8131 12.6191C55.2227 12.6189 55.6322 12.6186 56.0418 12.6184C56.0191 12.6194 55.9965 12.6204 55.9738 12.6215C55.7715 12.6215 55.5693 12.6215 55.367 12.6215C55.1824 12.6207 54.9978 12.6199 54.8131 12.6191ZM59.4734 12.6216C60.2039 12.6223 60.9345 12.6231 61.6651 12.6238C58.8785 12.6224 61.1654 12.625 59.4734 12.6249C59.4734 12.6238 59.4734 12.6227 59.4734 12.6216ZM66.8679 12.6307C66.7781 12.6314 66.6883 12.6321 66.5985 12.6328C65.8679 12.6321 65.1374 12.6314 64.4068 12.6307C64.8688 12.6337 65.3308 12.6368 65.7928 12.64C66.0605 12.6403 66.3282 12.6406 66.596 12.6409C66.6866 12.6375 66.7772 12.6341 66.8679 12.6307ZM121.371 37.3744C120.929 37.3737 119.393 37.3806 119.458 37.3839C120.097 37.3884 120.735 37.3928 121.373 37.3972C121.376 37.3917 121.379 37.3861 121.382 37.3806C121.472 37.3835 121.562 37.3863 121.653 37.3892C122.015 37.3874 122.378 37.3857 122.741 37.384C122.924 37.389 123.107 37.394 123.29 37.399C123.474 37.3937 123.658 37.3884 123.842 37.3831C122.089 37.3716 122.149 37.3814 121.785 37.3809C121.6 37.3807 121.483 37.3771 121.417 37.3753C121.402 37.375 121.386 37.3747 121.371 37.3744ZM143.45 37.3929C141.357 37.3894 140.161 37.4014 138.647 37.3887C139.618 37.4133 145.888 37.3957 148.098 37.4168C148.328 37.4135 148.558 37.4101 148.787 37.4067C147.583 37.4087 146.749 37.4004 146.162 37.3987C145.696 37.3973 145.745 37.4012 145.709 37.4011C145.707 37.4011 145.706 37.4011 145.704 37.4011C144.613 37.3984 144.275 37.3943 143.45 37.3929ZM99.0265 12.6695C99.5888 12.673 100.573 12.6738 100.584 12.6694C100.036 12.6676 99.4885 12.6658 98.9409 12.664C99.0533 12.6652 98.9305 12.6689 99.0265 12.6695ZM67.7176 12.6391C68.1564 12.6405 69.1931 12.6408 68.7461 12.6379C68.6657 12.6374 67.6331 12.6381 68.2388 12.6344C67.2326 12.6335 67.4681 12.6384 67.7176 12.6391ZM149.912 12.7148C149.542 12.7146 149.173 12.7144 148.804 12.7143C148.718 12.7169 148.632 12.7195 148.546 12.7221C149.001 12.7197 149.456 12.7173 149.912 12.7148ZM94.2806 12.6674C93.7897 12.6589 92.951 12.6658 92.0298 12.6584C91.6895 12.658 91.3492 12.6576 91.0088 12.6573C91.008 12.6573 91.0072 12.6573 91.0063 12.6573C90.9971 12.6593 90.9879 12.6614 90.9786 12.6635C92.0793 12.6648 93.1799 12.6661 94.2806 12.6674ZM151.895 33.4561C151.897 33.2287 151.9 33.0012 151.902 32.7738C151.9 32.3689 151.898 31.9639 151.896 31.559C151.894 31.778 151.892 31.9971 151.891 32.2161C151.892 32.6294 151.894 33.0428 151.895 33.4561ZM88.2985 12.6617C89.4889 12.6639 89.9365 12.6578 88.4144 12.6563C87.7727 12.6556 87.0514 12.6594 88.2985 12.6617ZM98.6307 37.3573C99.0386 37.3593 99.4464 37.3613 99.8543 37.3633C99.9932 37.3596 100.132 37.3558 100.271 37.3521C99.7242 37.3539 99.1775 37.3556 98.6307 37.3573ZM62.0729 12.6327C62.1208 12.6318 62.1686 12.631 62.2164 12.6302C62.5802 12.6307 62.944 12.6312 63.3078 12.6318C63.2164 12.6326 63.1249 12.6334 63.0334 12.6342C62.7132 12.6337 62.3931 12.6332 62.0729 12.6327ZM101.375 37.3625C101.701 37.3635 102.027 37.3646 102.353 37.3656C102.572 37.364 102.791 37.3624 103.01 37.3608C102.705 37.3586 102.4 37.3565 102.095 37.3543C101.855 37.357 101.615 37.3597 101.375 37.3625ZM77.0155 12.6491C77.4735 12.651 79.3029 12.6485 77.655 12.6457C76.6049 12.6439 76.9467 12.6488 77.0155 12.6491ZM74.5469 12.6478C76.2912 12.6522 74.9833 12.6379 72.9015 12.644C74.9972 12.6451 74.4444 12.6475 74.5469 12.6478ZM59.2078 12.6362C59.1639 12.6361 59.1278 12.6347 58.7772 12.6342C57.5156 12.6326 55.8502 12.6301 54.9478 12.629C52.7785 12.6265 46.1338 12.6206 45.3566 12.6169C45.1948 12.6161 45.5672 12.6147 45.5014 12.6145C45.3083 12.6141 44.1969 12.6138 44.4024 12.6127C45.493 12.6138 46.5836 12.6149 47.6742 12.616C47.4065 12.6168 47.1387 12.6175 46.871 12.6182C49.5884 12.6206 48.6889 12.6197 49.4706 12.6182C49.9305 12.6196 50.3904 12.621 50.8503 12.6224C51.8515 12.6226 52.8527 12.6227 53.8539 12.6227C53.6269 12.6232 53.3999 12.6237 53.1728 12.6242C54.6813 12.6272 54.2622 12.6258 55.0876 12.6249C55.0892 12.6256 55.0909 12.6264 55.0926 12.6272C56.549 12.6269 56.8327 12.6295 57.1508 12.6299C57.8035 12.6308 58.6354 12.6216 61.125 12.6343C62.1748 12.6304 62.1508 12.6406 62.7678 12.6361C64.5445 12.6439 61.1655 12.6378 59.5665 12.6358C59.5657 12.6358 59.5649 12.6358 59.564 12.6358C59.4434 12.6356 59.6349 12.6368 59.2078 12.6362ZM68.3344 12.6412C67.2588 12.6451 71.5081 12.6506 70.1019 12.6413C69.8925 12.6408 69.6831 12.6403 69.4737 12.6398C69.0931 12.6403 68.7125 12.6408 68.3319 12.6412C68.3328 12.6412 68.3336 12.6412 68.3344 12.6412ZM108.26 12.6904C112.196 12.6912 109.958 12.6835 108.625 12.6871C108.359 12.6878 108.214 12.689 108.26 12.6904ZM140.46 37.3772C140.402 37.3791 140.345 37.381 140.287 37.3829C141.607 37.3826 144.159 37.3928 144.124 37.3799C142.903 37.379 141.681 37.3781 140.46 37.3772ZM150.901 37.3812C150.617 37.3801 149.459 37.3769 149.599 37.3817C150.101 37.3856 150.603 37.3895 151.105 37.3933C151.338 37.3916 151.572 37.3898 151.806 37.388C151.479 37.387 150.977 37.3814 150.901 37.3812Z" fill="#DCCEBD"/>
<path d="M20.3801 24.1401L20.9001 23.4601C22.6601 23.4601 24.1267 23.7667 25.3001 24.3801C26.4734 24.9934 27.3134 25.8334 27.8201 26.9001C28.3534 27.9401 28.4867 29.1401 28.2201 30.5001C27.9534 31.8601 27.3401 33.0867 26.3801 34.1801C25.4467 35.2734 24.2734 36.1401 22.8601 36.7801C21.4467 37.4201 19.9267 37.7401 18.3001 37.7401C17.6067 37.7401 16.7667 37.7001 15.7801 37.6201C14.7934 37.5401 13.9001 37.5001 13.1001 37.5001C12.2467 37.5001 11.4334 37.5134 10.6601 37.5401C9.88673 37.5667 9.19339 37.5801 8.58006 37.5801C8.52673 37.5801 8.50006 37.5001 8.50006 37.3401C8.52673 37.1801 8.55339 37.1001 8.58006 37.1001C9.35339 37.1001 9.95339 37.0201 10.3801 36.8601C10.8067 36.7001 11.1401 36.4201 11.3801 36.0201C11.6201 35.5934 11.8067 35.0067 11.9401 34.2601L15.2201 15.7401C15.4067 14.5667 15.3534 13.8334 15.0601 13.5401C14.7667 13.2201 14.0734 13.0601 12.9801 13.0601C12.8734 13.0601 12.8334 12.9801 12.8601 12.8201C12.8867 12.6601 12.9267 12.5801 12.9801 12.5801C13.6201 12.5801 14.3001 12.6067 15.0201 12.6601C15.7667 12.6867 16.5534 12.7001 17.3801 12.7001C18.0734 12.7001 18.8067 12.6601 19.5801 12.5801C20.3534 12.5001 21.1001 12.4601 21.8201 12.4601C23.4467 12.4601 24.7667 12.6867 25.7801 13.1401C26.8201 13.5667 27.5534 14.1801 27.9801 14.9801C28.4067 15.7801 28.5001 16.7401 28.2601 17.8601C27.9401 19.3267 27.1134 20.6201 25.7801 21.7401C24.4467 22.8601 22.6467 23.6601 20.3801 24.1401ZM21.1401 13.1801C20.6334 13.1801 20.2067 13.2601 19.8601 13.4201C19.5401 13.5801 19.2734 13.8734 19.0601 14.3001C18.8734 14.7001 18.7134 15.2734 18.5801 16.0201L17.2201 23.7401L16.0201 23.4601C16.7934 23.4867 17.4334 23.5134 17.9401 23.5401C18.4467 23.5401 18.7134 23.5401 18.7401 23.5401C20.4467 23.5401 21.8201 22.9801 22.8601 21.8601C23.9267 20.7401 24.6201 19.3801 24.9401 17.7801C25.1534 16.8201 25.1534 16.0067 24.9401 15.3401C24.7267 14.6467 24.3001 14.1134 23.6601 13.7401C23.0467 13.3667 22.2067 13.1801 21.1401 13.1801ZM17.7001 36.9401C19.7001 36.9401 21.2467 36.4201 22.3401 35.3801C23.4334 34.3134 24.1534 32.8734 24.5001 31.0601C24.9001 29.1134 24.6867 27.5401 23.8601 26.3401C23.0601 25.1401 21.5401 24.5401 19.3001 24.5401C18.9001 24.5401 18.4067 24.5534 17.8201 24.5801C17.2334 24.5801 16.5934 24.6467 15.9001 24.7801L17.1001 24.3001L15.3001 34.4601C15.1401 35.3401 15.1934 35.9801 15.4601 36.3801C15.7267 36.7534 16.4734 36.9401 17.7001 36.9401ZM36.2551 38.0601C34.7617 38.0601 33.5884 37.6867 32.7351 36.9401C31.8817 36.1667 31.3217 35.1801 31.0551 33.9801C30.8151 32.7801 30.8284 31.5134 31.0951 30.1801C31.2817 29.1667 31.6551 28.1534 32.2151 27.1401C32.7751 26.1001 33.4684 25.1667 34.2951 24.3401C35.1484 23.5134 36.1084 22.8601 37.1751 22.3801C38.2417 21.8734 39.3884 21.6201 40.6151 21.6201C41.6551 21.6201 42.4284 21.8067 42.9351 22.1801C43.4684 22.5534 43.6951 23.0867 43.6151 23.7801C43.5351 24.4467 43.1751 25.1001 42.5351 25.7401C41.9217 26.3534 41.0951 26.9134 40.0551 27.4201C39.0417 27.9001 37.9084 28.3134 36.6551 28.6601C35.4017 29.0067 34.1084 29.2601 32.7751 29.4201L32.8551 28.9001C34.8017 28.6067 36.4284 28.1267 37.7351 27.4601C39.0684 26.7667 39.8417 25.8201 40.0551 24.6201C40.1884 23.9801 40.1084 23.5001 39.8151 23.1801C39.5217 22.8601 39.1217 22.7001 38.6151 22.7001C37.9217 22.7001 37.2951 22.9801 36.7351 23.5401C36.1751 24.0734 35.6951 24.8067 35.2951 25.7401C34.9217 26.6734 34.6417 27.7134 34.4551 28.8601C34.2151 30.2734 34.1884 31.5534 34.3751 32.7001C34.5884 33.8201 35.0284 34.7267 35.6951 35.4201C36.3617 36.0867 37.2417 36.4201 38.3351 36.4201C38.8951 36.4201 39.5084 36.3267 40.1751 36.1401C40.8417 35.9534 41.4817 35.6334 42.0951 35.1801C42.1484 35.1267 42.2151 35.1534 42.2951 35.2601C42.4017 35.3667 42.4284 35.4467 42.3751 35.5001C41.3617 36.4334 40.3351 37.1001 39.2951 37.5001C38.2551 37.8734 37.2417 38.0601 36.2551 38.0601ZM48.2376 38.0201C47.0909 38.0201 46.1176 37.7534 45.3176 37.2201C44.5176 36.6867 44.1709 36.0334 44.2776 35.2601C44.3576 34.8067 44.5442 34.4601 44.8376 34.2201C45.1576 33.9534 45.5042 33.8201 45.8776 33.8201C46.3309 33.8201 46.6776 33.9801 46.9176 34.3001C47.1842 34.5934 47.4242 34.9401 47.6376 35.3401C47.8776 35.7134 48.1576 36.0601 48.4776 36.3801C48.8242 36.6734 49.2909 36.8201 49.8776 36.8201C50.4376 36.8201 50.8642 36.6734 51.1576 36.3801C51.4509 36.0601 51.6509 35.5801 51.7576 34.9401C51.8642 34.0867 51.7309 33.3667 51.3576 32.7801C50.9842 32.1667 50.4776 31.6201 49.8376 31.1401C49.2242 30.6601 48.6242 30.1667 48.0376 29.6601C47.4509 29.1534 46.9842 28.5934 46.6376 27.9801C46.2909 27.3401 46.1976 26.5934 46.3576 25.7401C46.4909 25.0201 46.8242 24.3667 47.3576 23.7801C47.8909 23.1667 48.5709 22.6734 49.3976 22.3001C50.2242 21.9267 51.1176 21.7401 52.0776 21.7401C53.2242 21.7401 54.1442 21.9534 54.8376 22.3801C55.5309 22.7801 55.8376 23.3134 55.7576 23.9801C55.7042 24.4601 55.5042 24.8334 55.1576 25.1001C54.8376 25.3401 54.5042 25.4601 54.1576 25.4601C53.6242 25.4601 53.2242 25.3267 52.9576 25.0601C52.7176 24.7934 52.5176 24.4867 52.3576 24.1401C52.1976 23.7667 51.9842 23.4467 51.7176 23.1801C51.4776 22.9134 51.0642 22.7801 50.4776 22.7801C49.9709 22.7801 49.5842 22.9134 49.3176 23.1801C49.0509 23.4467 48.8776 23.7667 48.7976 24.1401C48.6642 24.9134 48.7842 25.5934 49.1576 26.1801C49.5309 26.7667 50.0242 27.3134 50.6376 27.8201C51.2776 28.3001 51.8909 28.8067 52.4776 29.3401C53.0909 29.8734 53.5709 30.4601 53.9176 31.1001C54.2909 31.7401 54.4109 32.4867 54.2776 33.3401C54.1442 34.0334 53.7976 34.7534 53.2376 35.5001C52.7042 36.2201 52.0109 36.8201 51.1576 37.3001C50.3042 37.7801 49.3309 38.0201 48.2376 38.0201ZM61.3794 38.0601C60.7928 38.0601 60.2328 37.9534 59.6994 37.7401C59.1661 37.5267 58.7794 37.1401 58.5394 36.5801C58.2994 35.9934 58.2728 35.1667 58.4594 34.1001L60.0594 25.3401C60.2194 24.4334 60.2194 23.8467 60.0594 23.5801C59.9261 23.3134 59.4728 23.1801 58.6994 23.1801C58.5928 23.1801 58.5394 23.0867 58.5394 22.9001C58.5661 22.7134 58.6194 22.6201 58.6994 22.6201C59.8728 22.6201 60.8328 22.2867 61.5794 21.6201C62.3528 20.9267 62.9394 20.1267 63.3394 19.2201C63.3661 19.1401 63.4994 19.1134 63.7394 19.1401C63.9794 19.1667 64.0861 19.2334 64.0594 19.3401L61.5794 33.2201C61.3928 34.2067 61.4594 34.9401 61.7794 35.4201C62.0994 35.8734 62.6728 36.1001 63.4994 36.1001C64.1128 36.1001 64.6994 35.9667 65.2594 35.7001C65.8461 35.4067 66.4328 35.0067 67.0194 34.5001C67.0728 34.4467 67.1528 34.4734 67.2594 34.5801C67.3928 34.6867 67.4194 34.7801 67.3394 34.8601C66.1394 36.0067 65.0728 36.8334 64.1394 37.3401C63.2061 37.8201 62.2861 38.0601 61.3794 38.0601ZM67.3794 24.0201C67.3261 24.0201 67.0461 23.9934 66.5394 23.9401C66.0328 23.8601 65.4194 23.7801 64.6994 23.7001C64.0061 23.6201 63.2994 23.5801 62.5794 23.5801L62.6594 22.5001C63.4861 22.5001 64.2861 22.4734 65.0594 22.4201C65.8328 22.3667 66.5128 22.3134 67.0994 22.2601C67.7128 22.2067 68.1394 22.1801 68.3794 22.1801C68.5128 22.1801 68.5928 22.2334 68.6194 22.3401C68.6728 22.4201 68.6861 22.5134 68.6594 22.6201C68.6328 22.8334 68.4728 23.1267 68.1794 23.5001C67.9128 23.8467 67.6461 24.0201 67.3794 24.0201ZM72.6126 38.0201C71.4659 38.0201 70.4926 37.7534 69.6926 37.2201C68.8926 36.6867 68.5459 36.0334 68.6526 35.2601C68.7326 34.8067 68.9192 34.4601 69.2126 34.2201C69.5326 33.9534 69.8792 33.8201 70.2526 33.8201C70.7059 33.8201 71.0526 33.9801 71.2926 34.3001C71.5592 34.5934 71.7992 34.9401 72.0126 35.3401C72.2526 35.7134 72.5326 36.0601 72.8526 36.3801C73.1992 36.6734 73.6659 36.8201 74.2526 36.8201C74.8126 36.8201 75.2392 36.6734 75.5326 36.3801C75.8259 36.0601 76.0259 35.5801 76.1326 34.9401C76.2392 34.0867 76.1059 33.3667 75.7326 32.7801C75.3592 32.1667 74.8526 31.6201 74.2126 31.1401C73.5992 30.6601 72.9992 30.1667 72.4126 29.6601C71.8259 29.1534 71.3592 28.5934 71.0126 27.9801C70.6659 27.3401 70.5726 26.5934 70.7326 25.7401C70.8659 25.0201 71.1992 24.3667 71.7326 23.7801C72.2659 23.1667 72.9459 22.6734 73.7726 22.3001C74.5992 21.9267 75.4926 21.7401 76.4526 21.7401C77.5992 21.7401 78.5192 21.9534 79.2126 22.3801C79.9059 22.7801 80.2126 23.3134 80.1326 23.9801C80.0792 24.4601 79.8792 24.8334 79.5326 25.1001C79.2126 25.3401 78.8792 25.4601 78.5326 25.4601C77.9992 25.4601 77.5992 25.3267 77.3326 25.0601C77.0926 24.7934 76.8926 24.4867 76.7326 24.1401C76.5726 23.7667 76.3592 23.4467 76.0926 23.1801C75.8526 22.9134 75.4392 22.7801 74.8526 22.7801C74.3459 22.7801 73.9592 22.9134 73.6926 23.1801C73.4259 23.4467 73.2526 23.7667 73.1726 24.1401C73.0392 24.9134 73.1592 25.5934 73.5326 26.1801C73.9059 26.7667 74.3992 27.3134 75.0126 27.8201C75.6526 28.3001 76.2659 28.8067 76.8526 29.3401C77.4659 29.8734 77.9459 30.4601 78.2926 31.1001C78.6659 31.7401 78.7859 32.4867 78.6526 33.3401C78.5192 34.0334 78.1726 34.7534 77.6126 35.5001C77.0792 36.2201 76.3859 36.8201 75.5326 37.3001C74.6792 37.7801 73.7059 38.0201 72.6126 38.0201ZM87.1144 38.0601C85.6211 38.0601 84.4478 37.6867 83.5944 36.9401C82.7411 36.1667 82.1811 35.1801 81.9144 33.9801C81.6744 32.7801 81.6878 31.5134 81.9544 30.1801C82.1411 29.1667 82.5144 28.1534 83.0744 27.1401C83.6344 26.1001 84.3278 25.1667 85.1544 24.3401C86.0078 23.5134 86.9678 22.8601 88.0344 22.3801C89.1011 21.8734 90.2478 21.6201 91.4744 21.6201C92.5144 21.6201 93.2878 21.8067 93.7944 22.1801C94.3278 22.5534 94.5544 23.0867 94.4744 23.7801C94.3944 24.4467 94.0344 25.1001 93.3944 25.7401C92.7811 26.3534 91.9544 26.9134 90.9144 27.4201C89.9011 27.9001 88.7678 28.3134 87.5144 28.6601C86.2611 29.0067 84.9678 29.2601 83.6344 29.4201L83.7144 28.9001C85.6611 28.6067 87.2878 28.1267 88.5944 27.4601C89.9278 26.7667 90.7011 25.8201 90.9144 24.6201C91.0478 23.9801 90.9678 23.5001 90.6744 23.1801C90.3811 22.8601 89.9811 22.7001 89.4744 22.7001C88.7811 22.7001 88.1544 22.9801 87.5944 23.5401C87.0344 24.0734 86.5544 24.8067 86.1544 25.7401C85.7811 26.6734 85.5011 27.7134 85.3144 28.8601C85.0744 30.2734 85.0478 31.5534 85.2344 32.7001C85.4478 33.8201 85.8878 34.7267 86.5544 35.4201C87.2211 36.0867 88.1011 36.4201 89.1944 36.4201C89.7544 36.4201 90.3678 36.3267 91.0344 36.1401C91.7011 35.9534 92.3411 35.6334 92.9544 35.1801C93.0078 35.1267 93.0744 35.1534 93.1544 35.2601C93.2611 35.3667 93.2878 35.4467 93.2344 35.5001C92.2211 36.4334 91.1944 37.1001 90.1544 37.5001C89.1144 37.8734 88.1011 38.0601 87.1144 38.0601ZM98.5769 37.9401C97.7503 37.9401 97.2169 37.6201 96.9769 36.9801C96.7636 36.3401 96.7769 35.3534 97.0169 34.0201L100.777 13.6201C100.99 12.4467 100.924 11.7267 100.577 11.4601C100.23 11.1934 99.4836 11.3401 98.3369 11.9001C98.2303 11.9534 98.1503 11.9001 98.0969 11.7401C98.0436 11.5801 98.0703 11.4867 98.1769 11.4601L104.017 8.58008C104.15 8.52674 104.27 8.55341 104.377 8.66008C104.484 8.76674 104.524 8.84674 104.497 8.90008L99.9769 34.0201C99.7903 34.7934 99.7636 35.3267 99.8969 35.6201C100.057 35.9134 100.257 36.0601 100.497 36.0601C100.79 36.0601 101.124 35.9134 101.497 35.6201C101.897 35.3267 102.324 34.9534 102.777 34.5001C102.884 34.3934 102.99 34.3934 103.097 34.5001C103.204 34.6067 103.204 34.7134 103.097 34.8201C102.27 35.8067 101.497 36.5801 100.777 37.1401C100.057 37.6734 99.3236 37.9401 98.5769 37.9401ZM108.343 37.9401C107.516 37.9401 106.983 37.6201 106.743 36.9801C106.529 36.3401 106.543 35.3534 106.783 34.0201L110.543 13.6201C110.756 12.4467 110.689 11.7267 110.343 11.4601C109.996 11.1934 109.249 11.3401 108.103 11.9001C107.996 11.9534 107.916 11.9001 107.863 11.7401C107.809 11.5801 107.836 11.4867 107.943 11.4601L113.783 8.58008C113.916 8.52674 114.036 8.55341 114.143 8.66008C114.249 8.76674 114.289 8.84674 114.263 8.90008L109.743 34.0201C109.556 34.7934 109.529 35.3267 109.663 35.6201C109.823 35.9134 110.023 36.0601 110.263 36.0601C110.556 36.0601 110.889 35.9134 111.263 35.6201C111.663 35.3267 112.089 34.9534 112.543 34.5001C112.649 34.3934 112.756 34.3934 112.863 34.5001C112.969 34.6067 112.969 34.7134 112.863 34.8201C112.036 35.8067 111.263 36.5801 110.543 37.1401C109.823 37.6734 109.089 37.9401 108.343 37.9401ZM120.708 38.0601C119.215 38.0601 118.042 37.6867 117.188 36.9401C116.335 36.1667 115.775 35.1801 115.508 33.9801C115.268 32.7801 115.282 31.5134 115.548 30.1801C115.735 29.1667 116.108 28.1534 116.668 27.1401C117.228 26.1001 117.922 25.1667 118.748 24.3401C119.602 23.5134 120.562 22.8601 121.628 22.3801C122.695 21.8734 123.842 21.6201 125.068 21.6201C126.108 21.6201 126.882 21.8067 127.388 22.1801C127.922 22.5534 128.148 23.0867 128.068 23.7801C127.988 24.4467 127.628 25.1001 126.988 25.7401C126.375 26.3534 125.548 26.9134 124.508 27.4201C123.495 27.9001 122.362 28.3134 121.108 28.6601C119.855 29.0067 118.562 29.2601 117.228 29.4201L117.308 28.9001C119.255 28.6067 120.882 28.1267 122.188 27.4601C123.522 26.7667 124.295 25.8201 124.508 24.6201C124.642 23.9801 124.562 23.5001 124.268 23.1801C123.975 22.8601 123.575 22.7001 123.068 22.7001C122.375 22.7001 121.748 22.9801 121.188 23.5401C120.628 24.0734 120.148 24.8067 119.748 25.7401C119.375 26.6734 119.095 27.7134 118.908 28.8601C118.668 30.2734 118.642 31.5534 118.828 32.7001C119.042 33.8201 119.482 34.7267 120.148 35.4201C120.815 36.0867 121.695 36.4201 122.788 36.4201C123.348 36.4201 123.962 36.3267 124.628 36.1401C125.295 35.9534 125.935 35.6334 126.548 35.1801C126.602 35.1267 126.668 35.1534 126.748 35.2601C126.855 35.3667 126.882 35.4467 126.828 35.5001C125.815 36.4334 124.788 37.1001 123.748 37.5001C122.708 37.8734 121.695 38.0601 120.708 38.0601ZM133.451 37.1801L133.051 37.1401C133.317 35.7801 133.624 34.3934 133.971 32.9801C134.344 31.5401 134.744 30.1534 135.171 28.8201C135.624 27.4867 136.117 26.3001 136.651 25.2601C137.184 24.1934 137.744 23.3534 138.331 22.7401C138.944 22.1001 139.571 21.7801 140.211 21.7801C140.611 21.7801 141.024 21.8867 141.451 22.1001C141.877 22.3134 142.224 22.6067 142.491 22.9801C142.757 23.3267 142.851 23.7134 142.771 24.1401C142.717 24.4867 142.544 24.8201 142.251 25.1401C141.984 25.4601 141.624 25.6201 141.171 25.6201C140.771 25.6201 140.437 25.5134 140.171 25.3001C139.931 25.0867 139.691 24.8734 139.451 24.6601C139.237 24.4467 138.997 24.3401 138.731 24.3401C138.411 24.3401 138.051 24.6467 137.651 25.2601C137.251 25.8467 136.837 26.6201 136.411 27.5801C135.984 28.5401 135.571 29.5934 135.171 30.7401C134.797 31.8867 134.464 33.0334 134.171 34.1801C133.877 35.3001 133.637 36.3001 133.451 37.1801ZM131.571 37.9001C131.091 37.9001 130.771 37.8734 130.611 37.8201C130.451 37.7667 130.371 37.7001 130.371 37.6201C130.371 37.5134 130.451 37.1534 130.611 36.5401C130.771 35.9267 130.904 35.2867 131.011 34.6201L132.531 26.2201C132.664 25.5534 132.704 25.0334 132.651 24.6601C132.624 24.2867 132.544 24.0201 132.411 23.8601C132.277 23.7001 132.104 23.6201 131.891 23.6201C131.597 23.6201 131.251 23.7667 130.851 24.0601C130.451 24.3267 130.011 24.7001 129.531 25.1801C129.451 25.2601 129.357 25.2467 129.251 25.1401C129.144 25.0334 129.131 24.9267 129.211 24.8201C130.117 23.7534 130.944 22.9801 131.691 22.5001C132.437 22.0201 133.171 21.7801 133.891 21.7801C134.451 21.7801 134.864 21.9267 135.131 22.2201C135.424 22.4867 135.597 22.9267 135.651 23.5401C135.704 24.1267 135.651 24.9134 135.491 25.9001L133.451 37.1801C133.397 37.6601 132.771 37.9001 131.571 37.9001ZM146.675 38.0201C145.528 38.0201 144.555 37.7534 143.755 37.2201C142.955 36.6867 142.608 36.0334 142.715 35.2601C142.795 34.8067 142.982 34.4601 143.275 34.2201C143.595 33.9534 143.942 33.8201 144.315 33.8201C144.768 33.8201 145.115 33.9801 145.355 34.3001C145.622 34.5934 145.862 34.9401 146.075 35.3401C146.315 35.7134 146.595 36.0601 146.915 36.3801C147.262 36.6734 147.728 36.8201 148.315 36.8201C148.875 36.8201 149.302 36.6734 149.595 36.3801C149.888 36.0601 150.088 35.5801 150.195 34.9401C150.302 34.0867 150.168 33.3667 149.795 32.7801C149.422 32.1667 148.915 31.6201 148.275 31.1401C147.662 30.6601 147.062 30.1667 146.475 29.6601C145.888 29.1534 145.422 28.5934 145.075 27.9801C144.728 27.3401 144.635 26.5934 144.795 25.7401C144.928 25.0201 145.262 24.3667 145.795 23.7801C146.328 23.1667 147.008 22.6734 147.835 22.3001C148.662 21.9267 149.555 21.7401 150.515 21.7401C151.662 21.7401 152.582 21.9534 153.275 22.3801C153.968 22.7801 154.275 23.3134 154.195 23.9801C154.142 24.4601 153.942 24.8334 153.595 25.1001C153.275 25.3401 152.942 25.4601 152.595 25.4601C152.062 25.4601 151.662 25.3267 151.395 25.0601C151.155 24.7934 150.955 24.4867 150.795 24.1401C150.635 23.7667 150.422 23.4467 150.155 23.1801C149.915 22.9134 149.502 22.7801 148.915 22.7801C148.408 22.7801 148.022 22.9134 147.755 23.1801C147.488 23.4467 147.315 23.7667 147.235 24.1401C147.102 24.9134 147.222 25.5934 147.595 26.1801C147.968 26.7667 148.462 27.3134 149.075 27.8201C149.715 28.3001 150.328 28.8067 150.915 29.3401C151.528 29.8734 152.008 30.4601 152.355 31.1001C152.728 31.7401 152.848 32.4867 152.715 33.3401C152.582 34.0334 152.235 34.7534 151.675 35.5001C151.142 36.2201 150.448 36.8201 149.595 37.3001C148.742 37.7801 147.768 38.0201 146.675 38.0201Z" fill="#DCCEBD"/>
</g>
<defs>
<filter id="filter0_dii_12_11402" x="0" y="0" width="164.815" height="48.5601" filterUnits="userSpaceOnUse" color-interpolation-filters="sRGB">
<feFlood flood-opacity="0" result="BackgroundImageFix"/>
<feColorMatrix in="SourceAlpha" type="matrix" values="0 0 0 0 0 0 0 0 0 0 0 0 0 0 0 0 0 0 127 0" result="hardAlpha"/>
<feOffset dx="1" dy="1"/>
<feGaussianBlur stdDeviation="4.75"/>
<feColorMatrix type="matrix" values="0 0 0 0 0 0 0 0 0 0 0 0 0 0 0 0 0 0 0.5 0"/>
<feBlend mode="normal" in2="BackgroundImageFix" result="effect1_dropShadow_12_11402"/>
<feBlend mode="normal" in="SourceGraphic" in2="effect1_dropShadow_12_11402" result="shape"/>
<feColorMatrix in="SourceAlpha" type="matrix" values="0 0 0 0 0 0 0 0 0 0 0 0 0 0 0 0 0 0 127 0" result="hardAlpha"/>
<feOffset dx="-0.5" dy="-0.5"/>
<feComposite in2="hardAlpha" operator="arithmetic" k2="-1" k3="1"/>
<feColorMatrix type="matrix" values="0 0 0 0 0.0862745 0 0 0 0 0.0862745 0 0 0 0 0.0862745 0 0 0 1 0"/>
<feBlend mode="normal" in2="shape" result="effect2_innerShadow_12_11402"/>
<feColorMatrix in="SourceAlpha" type="matrix" values="0 0 0 0 0 0 0 0 0 0 0 0 0 0 0 0 0 0 127 0" result="hardAlpha"/>
<feOffset dx="0.75" dy="0.75"/>
<feComposite in2="hardAlpha" operator="arithmetic" k2="-1" k3="1"/>
<feColorMatrix type="matrix" values="0 0 0 0 1 0 0 0 0 0.909804 0 0 0 0 0.811765 0 0 0 1 0"/>
<feBlend mode="normal" in2="effect2_innerShadow_12_11402" result="effect3_innerShadow_12_11402"/>
</filter>
</defs>
</svg>
