<svg width="136" height="45" viewBox="0 0 136 45" fill="none" xmlns="http://www.w3.org/2000/svg">
<g filter="url(#filter0_dii_12_8313)">
<path d="M12.3925 14.8546C12.4673 20.5863 12.37 24.4987 12.3486 29.8159C12.3433 31.0705 12.3387 32.3678 12.3346 33.6992L11.9399 33.3046C23.0307 33.3381 36.4805 33.3389 47.1691 33.3581C56.2303 33.374 65.4377 33.3932 74.4443 33.4105C74.9062 33.4114 75.1818 33.4183 75.3912 33.4187C77.3632 33.4224 80.6701 33.4217 82.6263 33.4256C86.7413 33.4335 93.9013 33.4437 97.6702 33.4547C99.2707 33.4593 100.912 33.4627 101.534 33.4769C102.119 33.4784 102.438 33.4669 102.591 33.4665C102.593 33.4665 102.595 33.4665 102.596 33.4665C103.088 33.4652 104.33 33.4753 104.604 33.4752C104.645 33.4752 104.393 33.4663 105.058 33.4698C105.117 33.4701 105.062 33.4758 105.622 33.4767C105.768 33.4769 107.641 33.4709 108.176 33.4712C109.957 33.4722 114.21 33.4852 116.339 33.4881C116.665 33.4886 116.852 33.4857 117.196 33.4862C117.374 33.4864 117.64 33.4902 117.695 33.4902C117.934 33.4904 118.981 33.4768 118.605 33.5062C119.698 33.5058 119.376 33.4955 119.401 33.4892C120.587 33.49 121.158 33.5047 121.468 33.4905C122.292 33.492 123.116 33.4934 123.94 33.4949L123.736 33.6992C123.745 28.6905 123.753 23.6818 123.762 18.673C123.76 18.6713 123.758 18.6696 123.756 18.6678C123.767 16.9486 123.754 16.3589 123.767 15.3774C123.765 14.7722 123.764 14.1671 123.762 13.5619C123.765 11.9406 123.768 10.3196 123.771 8.69922L123.94 8.86801C110.016 8.84352 96.1289 8.82898 82.3538 8.80738C81.7047 8.80638 81.5427 8.80359 80.4723 8.80197C79.2906 8.8002 77.6284 8.8005 76.0709 8.79804C74.7047 8.79589 72.6891 8.79068 71.1656 8.7881C70.8218 8.78751 70.573 8.78849 70.5343 8.78843C70.3067 8.78803 70.2952 8.78587 70.0744 8.78549C69.8103 8.78503 69.4911 8.78612 69.186 8.78556C68.0457 8.7835 66.803 8.78215 66.6586 8.78189C65.9631 8.78065 65.8096 8.77849 65.7524 8.77839C64.9787 8.77702 65.2688 8.77917 65.0761 8.77878C64.0764 8.77672 63.3697 8.77162 62.0011 8.77352C62.0384 8.77207 62.0756 8.77063 62.1129 8.76918C61.0655 8.76688 61.7573 8.7718 61.5433 8.77221C61.456 8.77234 59.2013 8.76855 59.0274 8.76823C58.4218 8.7671 58.4056 8.76524 58.3532 8.76514C58.2257 8.76492 56.7021 8.76475 55.921 8.76208C54.9968 8.75898 56.0847 8.75696 55.8552 8.75596C55.8164 8.7558 54.8489 8.7549 54.719 8.75366C54.5756 8.75231 55.4123 8.75338 55.3994 8.75287C55.3903 8.75249 54.0011 8.74843 54.2675 8.74716C54.4815 8.74578 56.3663 8.75 56.7655 8.74967C56.8315 8.74961 56.7072 8.74738 56.7655 8.74736C57 8.74734 61.3425 8.75189 61.5412 8.75249C61.3151 8.75331 61.089 8.75411 60.8628 8.75489C61.1635 8.75534 61.4642 8.75579 61.7649 8.75624C61.3374 8.7566 60.9099 8.75694 60.4824 8.75726C61.1177 8.76662 63.0312 8.76032 63.1101 8.7558C63.1442 8.75372 61.9745 8.74732 63.063 8.74525C62.8976 8.74457 62.7321 8.74389 62.5666 8.74322C62.2255 8.74379 61.8844 8.74434 61.5433 8.74487C61.7704 8.74562 61.9976 8.74637 62.2248 8.74712C62.1412 8.74766 62.0575 8.74819 61.9739 8.74871C61.3363 8.74906 60.6987 8.74937 60.0611 8.74964C59.7333 8.74886 59.8015 8.74722 59.5762 8.74666C56.7661 8.73981 58.599 8.7468 56.7593 8.7442C56.4966 8.74307 56.2339 8.74196 55.9712 8.74086C56.0639 8.74447 55.249 8.74148 54.2633 8.74196C54.381 8.74099 54.4988 8.74 54.6166 8.73901C53.1887 8.73816 50.2942 8.73044 51.0753 8.73673C50.7482 8.73594 50.421 8.73516 50.0939 8.73439C49.8176 8.73503 49.5413 8.73564 49.265 8.73624C48.8831 8.73576 48.5013 8.73529 48.1194 8.73481C48.1177 8.73436 48.1159 8.7339 48.1142 8.73344C48.4187 8.73372 48.7232 8.73401 49.0277 8.7343C48.7992 8.73265 48.5706 8.73104 48.3421 8.72945C48.1173 8.72949 47.8926 8.72953 47.6679 8.72957C48.6105 8.73169 47.3678 8.73276 47.0669 8.73421C46.2722 8.73406 45.7645 8.7313 45.498 8.73096C45.3727 8.73083 43.8973 8.73317 44.4758 8.72958C43.7166 8.72937 42.9574 8.72913 42.1982 8.72886C41.9014 8.72827 41.6045 8.72769 41.3077 8.72712C41.9519 8.72593 40.0849 8.72226 41.4603 8.72267C42.4873 8.72292 42.7404 8.72482 43.2278 8.72522C43.6671 8.72558 43.8994 8.72458 44.3775 8.7249C47.593 8.7271 50.2123 8.72932 53.2661 8.73247C53.8695 8.7331 54.4182 8.73276 54.8235 8.73319C55.281 8.73368 54.7078 8.73524 55.2907 8.73523C55.9029 8.73521 56.0353 8.73362 56.1969 8.73371C56.2975 8.73377 56.6163 8.73556 56.9098 8.7358C58.1156 8.7368 59.8825 8.73663 60.0538 8.73676C60.2473 8.7369 63.6576 8.74117 63.8208 8.74163C63.9074 8.74185 63.7278 8.74837 64.4793 8.74189C64.7138 8.74195 64.9483 8.742 65.1828 8.74206C65.1448 8.74338 65.1068 8.7447 65.0688 8.74602C66.4579 8.74206 65.9802 8.74451 67.3192 8.74523C70.5256 8.74684 75.2555 8.75201 78.7624 8.75435C79.5455 8.75486 79.8438 8.75304 80.7702 8.75362C81.6309 8.75411 83.8783 8.76245 83.3896 8.75304C85.3047 8.76244 85.6125 8.74888 86.5712 8.7583C86.6873 8.75712 86.8033 8.75593 86.9193 8.75473C87.96 8.76103 88.2812 8.75645 89.4174 8.75658C89.907 8.75664 89.3426 8.76231 90.3309 8.75626C90.5198 8.75691 90.7086 8.75756 90.8974 8.75821C90.8535 8.75966 90.8096 8.76112 90.7657 8.76257C91.8634 8.76223 91.9341 8.76305 91.8089 8.75732C92.3388 8.75873 92.8687 8.76017 93.3987 8.76162C93.4645 8.75978 93.5304 8.75794 93.5962 8.75609C93.3423 8.7524 81.3099 8.74938 79.6341 8.74932C77.6689 8.74441 73.7211 8.74583 72.1335 8.74381C71.4982 8.74303 71.2175 8.73972 70.2929 8.73873C69.3686 8.73776 68.2054 8.73966 67.7133 8.73938C66.0736 8.73846 58.3055 8.73252 63.5888 8.73281C63.4369 8.73139 63.285 8.72999 63.1331 8.72859C61.0336 8.73177 61.7938 8.72945 60.0517 8.728C59.3184 8.72741 57.5744 8.72894 57.6718 8.72371C59.0336 8.72342 60.4803 8.72594 61.6645 8.72653C61.7819 8.72661 63.184 8.72466 63.9055 8.72575C64.5564 8.72674 64.1083 8.7324 65.5246 8.72655C66.5765 8.73365 67.1846 8.72806 67.4624 8.72751C67.9426 8.72663 67.9952 8.73 68.4752 8.73066C68.9981 8.7314 69.3581 8.72932 69.4295 8.72934C70.1466 8.72967 73.8813 8.73126 74.0526 8.73287C73.9024 8.73344 73.7522 8.73402 73.6021 8.73459C74.572 8.73621 74.3693 8.73227 74.6243 8.73195C74.8142 8.73206 75.0041 8.73217 75.1939 8.73229C75.1187 8.73305 75.0434 8.73381 74.9682 8.73457C76.1136 8.73504 75.2372 8.73176 76.8632 8.73267C77.8956 8.73323 78.962 8.73704 79.0623 8.73687C79.0919 8.73681 78.7669 8.73445 79.1878 8.73437C79.8845 8.73426 81.0891 8.73491 81.2239 8.73808C81.5651 8.73783 81.536 8.73479 81.5813 8.73474C81.7794 8.73456 85.1881 8.7352 85.7988 8.7353C87.4908 8.73559 89.3747 8.73722 91.2079 8.73753C91.3964 8.73757 91.2761 8.73972 91.465 8.73975C91.7683 8.73981 93.325 8.73703 93.5575 8.73687C94.138 8.73651 95.6649 8.73866 95.9051 8.73771C95.9393 8.73757 95.4367 8.7342 96.0243 8.73346C96.6766 8.73263 96.3254 8.73677 96.3608 8.73683C97.6884 8.7389 98.5265 8.73626 99.4328 8.73603C99.7264 8.73596 100.268 8.73956 100.683 8.73875C100.731 8.73866 100.636 8.73549 100.683 8.73535C101.309 8.73395 101.895 8.74006 102.166 8.74058C102.829 8.74182 102.468 8.73728 102.503 8.73726C102.944 8.7373 103.539 8.73915 104.21 8.73923C107.205 8.73958 109.649 8.74029 112.833 8.74196C113.232 8.74216 113.707 8.74584 113.768 8.74587C113.957 8.74593 113.903 8.74183 114.45 8.74214C115.602 8.74284 116.67 8.74309 117.811 8.74365C118.041 8.74376 118.139 8.74774 118.314 8.74791C118.901 8.74848 120.904 8.73876 120.937 8.75195C122.103 8.74078 122.878 8.7512 123.816 8.75157C123.857 8.75159 123.898 8.7516 123.94 8.75162L123.888 8.69922C123.887 10.9255 123.888 14.3188 123.885 16.4937C123.885 16.9602 123.881 17.1791 123.88 17.4386C123.88 17.904 123.881 20.5648 123.88 20.7039C123.879 20.9772 123.862 20.8134 123.876 22.2184C123.876 23.0422 123.869 22.9449 123.869 23.1152C123.865 24.4429 123.881 25.7345 123.866 25.4931C123.869 27.039 123.877 28.0408 123.863 28.6717C123.869 28.6635 123.873 29.3905 123.87 30.2667C123.859 29.3695 123.851 29.4806 123.855 27.3108C123.855 27.2766 123.86 27.3418 123.86 27.3077C123.861 26.9978 123.858 26.3515 123.859 25.8234C123.86 25.2953 123.863 25.5885 123.863 25.3771C123.863 25.1836 123.858 25.19 123.858 24.9099C123.859 24.0013 123.858 23.1973 123.858 22.6804C123.858 22.3548 123.863 21.9904 123.863 21.7376C123.863 20.7606 123.862 18.6903 123.863 17.447C123.863 17.1879 123.867 17.2967 123.868 16.73C123.868 16.6638 123.864 16.4224 123.863 15.9262C123.863 15.4298 123.865 15.045 123.865 14.7263C123.865 14.4599 123.861 14.5712 123.861 14.0249C123.861 13.6513 123.865 10.1136 123.867 8.69922L123.94 8.77226C123.63 8.77184 123.422 8.77154 123.372 8.7714C122.969 8.77029 122.777 8.76503 122.531 8.76551C122.488 8.76562 122.415 8.77052 122.265 8.77078C119.792 8.77492 114.318 8.76466 111.492 8.76301C105.584 8.75934 100.135 8.75822 94.1753 8.755C94.069 8.75556 93.9627 8.75613 93.8565 8.75669C94.4589 8.75714 95.0613 8.75759 95.6637 8.75804C95.6675 8.75981 95.6713 8.76157 95.6752 8.76334C96.4896 8.76425 96.3817 8.75995 96.3587 8.7574C96.6601 8.75868 96.9615 8.75998 97.2629 8.76129C97.5229 8.7552 99.5328 8.76075 100.569 8.7615C101.243 8.76199 102.045 8.76002 102.4 8.76045C103.151 8.76136 103.131 8.76549 103.19 8.7656C103.291 8.76578 104.339 8.76285 105.095 8.7635C106.213 8.76445 106.333 8.77118 107.864 8.76663C109.824 8.7715 111.997 8.77137 114.11 8.77225C113.708 8.77853 115.601 8.7737 116.455 8.77439C118.781 8.77636 121.345 8.77896 123.94 8.78191L123.857 8.69922C123.854 11.9179 123.849 15.1852 123.845 18.1076C123.845 18.7859 123.839 19.2985 123.839 19.6765C123.839 19.8814 123.845 19.9708 123.844 20.2555C123.844 20.3055 123.838 20.3403 123.837 20.8701C123.834 22.1886 123.84 25.473 123.829 26.3042C123.828 28.7692 123.827 31.2342 123.826 33.6992L123.94 33.5849C121.897 33.584 119.854 33.5831 117.811 33.5822C117.698 33.5797 117.584 33.5772 117.471 33.5746C116.615 33.5864 113.229 33.5763 111.578 33.5755C108.672 33.5741 104.965 33.5754 102.419 33.5738C101.865 33.5735 101.412 33.5692 100.889 33.5688C100.663 33.5687 100.383 33.5736 100.148 33.5735C97.5159 33.5718 93.9516 33.5636 91.2985 33.5615C85.2752 33.5569 79.6025 33.5514 73.4994 33.5467C52.9401 33.5305 32.4992 33.5252 12.1153 33.505C12.0376 33.5049 11.983 33.5041 11.9399 33.503L12.1361 33.6992C12.1389 33.5908 12.1437 33.5547 12.1438 33.4032C12.1453 32.153 12.1399 29.3611 12.1414 27.9492C12.1426 26.8242 12.1586 25.0386 12.1443 24.6515C12.1257 27.5837 12.1203 30.6375 12.1151 33.6992L11.9399 33.5241C13.0513 33.526 14.1638 33.5278 15.2719 33.5301C15.5676 33.5308 15.6044 33.5394 15.6408 33.5396C16.3144 33.543 15.8891 33.5309 16.8658 33.531C17.1923 33.5311 20.2077 33.5601 19.8489 33.533C20.5711 33.5443 25.6616 33.5528 26.6439 33.5499C26.9423 33.549 26.7311 33.5412 26.7903 33.5408C27.0474 33.5393 27.1635 33.55 27.3934 33.5504C28.006 33.5515 29.5641 33.5439 29.8601 33.5442C30.5413 33.5448 32.5834 33.5546 33.4829 33.5532C34.3072 33.5519 34.1529 33.541 34.8657 33.5405C35.4275 33.5401 34.8155 33.5488 36.0698 33.5523C36.6914 33.554 38.8661 33.5491 39.3947 33.5494C39.923 33.5498 40.5108 33.5565 41.2395 33.5565C42.2892 33.5565 44.5727 33.5545 45.6409 33.5533C45.7047 33.5532 45.8601 33.5454 46.0172 33.5456C46.3427 33.5462 46.2449 33.556 46.4907 33.5571C46.7366 33.5583 50.9956 33.5599 51.7189 33.5605C52.2175 33.5609 52.5618 33.5554 52.8373 33.5557C53.0536 33.5559 53.0767 33.5638 53.2972 33.564C53.3655 33.5641 53.9468 33.5576 54.5275 33.5582C55.0761 33.5587 57.1595 33.5665 57.4008 33.5667C57.5579 33.5669 57.3857 33.5613 57.8502 33.5617C58.2736 33.5621 58.5517 33.5694 58.793 33.5697C59.353 33.5703 59.9789 33.5646 60.5731 33.565C62.281 33.5661 62.1931 33.5747 62.2956 33.575C62.5797 33.576 62.6936 33.5681 62.7868 33.568C63.1807 33.5676 64.1458 33.5668 64.4968 33.5668C64.9341 33.5667 65.1193 33.5742 65.5839 33.5746C65.9301 33.5748 66.6293 33.568 67.4193 33.5682C69.2001 33.5686 71.3178 33.5687 73.0666 33.5702C73.5881 33.5706 73.6682 33.5772 73.8276 33.5774C74.6653 33.5789 75.1344 33.572 75.3735 33.5722C77.0792 33.5741 80.1217 33.5872 81.7044 33.589C82.3489 33.5897 85.1705 33.5865 86.7623 33.5885C86.9444 33.5887 86.7739 33.5933 86.9765 33.5927C87.4613 33.5912 87.4163 33.5816 87.6622 33.582C87.7808 33.5823 88.0514 33.5879 88.397 33.5886C90.1892 33.5925 91.4217 33.5892 92.2393 33.59C100.091 33.5978 108.098 33.605 115.431 33.6102C116.248 33.6107 117.262 33.6066 118.496 33.612C118.534 33.6144 118.572 33.6169 118.61 33.6194C118.654 33.617 118.697 33.6146 118.74 33.6122C120.138 33.6118 120.666 33.6091 122.094 33.613C122.217 33.6133 122.592 33.6244 122.825 33.6111C123.795 33.6184 123.734 33.6158 123.94 33.6134L123.854 33.6992C123.853 33.6052 123.852 33.4556 123.852 33.1264C123.852 32.0767 123.855 31.0566 123.857 30.0388C123.862 29.4809 123.871 31.822 123.871 31.9746C123.871 32.2204 123.864 32.4758 123.864 32.7125C123.863 33.0692 123.864 33.42 123.864 33.6992L123.94 33.6233C123.67 33.6235 123.467 33.6232 123.39 33.6203C122.484 33.626 123.612 33.6235 123.499 33.6291C122.894 33.6265 122.289 33.6238 121.684 33.6211C121.376 33.6405 118.034 33.6131 118.266 33.6283C118.001 33.6251 117.735 33.6219 117.469 33.6187C116.303 33.6373 115.618 33.6235 114.063 33.6168C114.175 33.6193 114.287 33.6219 114.399 33.6245C114.367 33.6255 112.995 33.6288 113.486 33.6184C112.079 33.6318 112.138 33.6081 110.877 33.6247C110.127 33.6265 110.578 33.6167 109.237 33.6161C108.442 33.6158 107.455 33.6206 106.567 33.6205C106.363 33.6205 106.274 33.6145 106.092 33.6144C105.91 33.6143 105.821 33.6201 105.6 33.6202C105.145 33.6203 104.554 33.6158 104.27 33.616C104.015 33.6162 103.65 33.6213 103.035 33.6218C100.888 33.6238 101.537 33.6164 101.198 33.6137C100.834 33.6107 100.572 33.6207 99.8454 33.6192C99.7725 33.619 99.961 33.6128 99.7241 33.6129C99.5331 33.613 99.437 33.6198 98.8043 33.6208C98.5524 33.6212 94.6412 33.6208 94.0454 33.6207C93.1322 33.6205 91.0981 33.6134 90.153 33.6129C89.7888 33.6128 89.3996 33.6184 89.0126 33.6182C87.7305 33.6175 85.678 33.616 84.052 33.6149C82.5878 33.614 80.0175 33.599 79.2157 33.611C77.1598 33.6117 76.6604 33.6007 76.5054 33.6004C76.0864 33.5998 75.8924 33.6068 75.3641 33.6069C68.5209 33.6078 59.5096 33.5985 53.0286 33.5958C39.3722 33.5903 25.648 33.5881 11.9399 33.5794L12.0597 33.6992C12.0606 32.3161 12.0615 30.9332 12.0626 29.5505C12.0583 29.51 12.0539 29.4696 12.0496 29.4292C12.0469 30.7678 12.0415 32.2825 12.0381 33.6992L11.9399 33.6011C12.4104 33.6023 12.8701 33.6032 13.3089 33.6038C15.659 33.6068 19.1452 33.5911 20.8691 33.6199C20.1699 33.6221 19.031 33.6109 19.0514 33.6255C20.3012 33.6269 21.5509 33.6283 22.8006 33.6297C22.7634 33.623 22.7261 33.6164 22.6888 33.6097C23.9936 33.6083 25.3283 33.6103 26.6377 33.6098C26.8651 33.6098 26.704 33.6038 26.9021 33.6038C27.1237 33.6039 26.9735 33.6098 27.015 33.6099C27.5751 33.6102 27.7442 33.6042 27.8125 33.6043C27.9879 33.6046 27.8515 33.6103 28.3571 33.6121C29.2949 33.6155 29.9665 33.6005 29.7462 33.6258C30.0489 33.6259 30.3517 33.626 30.6545 33.6261C30.7329 33.6192 30.8113 33.6124 30.8896 33.6055C32.752 33.6338 33.6107 33.586 34.6399 33.6245C34.9793 33.6188 35.3186 33.6131 35.658 33.6075C35.8493 33.6143 36.0405 33.6211 36.2318 33.6278C36.2691 33.6221 36.3064 33.6164 36.3436 33.6106C38.1721 33.6156 40.1189 33.6095 41.8677 33.6108C43.0858 33.6118 43.3777 33.6141 44.4567 33.6141C46.8568 33.6141 44.4733 33.6242 46.4677 33.6366C46.3639 33.6299 46.2601 33.6231 46.1562 33.6163C46.4865 33.614 46.8168 33.6116 47.1471 33.6093C47.3771 33.6149 47.607 33.6204 47.837 33.626C48.857 33.5981 49.5178 33.6212 49.6567 33.6212C49.7689 33.6212 50.1543 33.6045 51.3615 33.6192C50.8609 33.5961 52.2824 33.6195 52.3962 33.6196C52.5044 33.6197 53.8884 33.6152 54.4501 33.6156C54.892 33.616 55.8345 33.6212 56.4925 33.6212C57.0734 33.6212 57.0145 33.6136 57.0569 33.6136C57.772 33.6132 57.3239 33.6189 57.8408 33.6194C58.3577 33.6199 58.7588 33.6137 58.8704 33.6143C58.9265 33.6146 58.7388 33.6215 58.9958 33.6223C59.6859 33.6244 60.9338 33.6188 61.7238 33.6193C62.0039 33.6195 62.3569 33.6254 62.6687 33.6257C63.1469 33.6262 63.3703 33.6185 63.6481 33.6189C63.7447 33.619 64.3615 33.6311 65.1282 33.6296C65.274 33.6292 65.7024 33.6046 66.2716 33.6399C66.3155 33.635 66.3594 33.6301 66.4033 33.6252C68.9744 33.6141 69.6898 33.6538 70.833 33.6193C72.6998 33.624 71.4183 33.6369 71.6232 33.6391C71.7556 33.6404 72.3642 33.6369 72.4312 33.6372C72.5496 33.6376 72.5292 33.6419 72.659 33.6419C75.0387 33.6419 73.9821 33.6335 74.7359 33.6286C76.528 33.6173 77.9263 33.6445 74.809 33.6354C74.809 33.6378 74.809 33.6401 74.809 33.6425C75.5766 33.6405 77.5251 33.6422 76.8744 33.6539C76.362 33.6631 71.7395 33.6561 74.3575 33.6699C74.9519 33.673 75.2598 33.6642 76.2891 33.681C76.9698 33.6819 77.0679 33.6605 77.9897 33.6693C77.8381 33.6618 77.6866 33.6543 77.535 33.6468C78.792 33.6376 80.3428 33.6509 81.3083 33.6471C81.6364 33.6457 82.8182 33.6116 82.5427 33.6461C83.0943 33.6441 85.6921 33.6511 86.1748 33.6482C86.291 33.6475 86.4421 33.6296 88.1221 33.6365C88.2388 33.6388 88.3555 33.641 88.4723 33.6433C86.9357 33.6493 89.6493 33.6567 88.9123 33.6733C88.6618 33.6657 87.4434 33.6608 87.2472 33.6569C86.9125 33.6502 87.9097 33.642 86.6389 33.6439C85.8379 33.6722 88.1282 33.6596 87.7782 33.6864C89.4465 33.6741 89.6133 33.686 89.991 33.6865C91.6054 33.6886 92.6214 33.6859 94.1447 33.689C94.5159 33.6838 91.7583 33.6757 91.4167 33.678C92.6737 33.6591 90.5101 33.6577 89.5969 33.669C89.5203 33.6632 89.4436 33.6573 89.367 33.6514C90.5557 33.6549 91.7152 33.6568 92.8925 33.6524C92.9692 33.6546 93.0458 33.6567 93.1225 33.6589C92.8584 33.6621 92.5943 33.6652 92.3302 33.6684C93.3093 33.6739 92.7221 33.6571 94.0266 33.6719C94.067 33.6655 94.1074 33.6591 94.1478 33.6527C95.3986 33.6552 96.6494 33.6576 97.9002 33.66C98.5514 33.6476 100.958 33.653 100.517 33.6689C101.489 33.6702 100.29 33.6614 101.2 33.6578C101.596 33.6562 102.371 33.6559 102.562 33.6602C102.48 33.6753 101.321 33.677 100.97 33.6874C101.183 33.6907 106.572 33.6806 106.092 33.6977C106.522 33.6998 106.324 33.6909 107.1 33.6887C109.275 33.6828 112.644 33.6997 114.395 33.679C112.339 33.6671 111.73 33.6793 110.154 33.6796C109.148 33.6798 103.011 33.6812 104.382 33.6656C104.156 33.6676 103.931 33.6695 103.705 33.6715C103.478 33.6667 103.25 33.662 103.022 33.6572C103.664 33.6567 104.306 33.6562 104.948 33.6557C105.101 33.6604 105.255 33.6651 105.408 33.6697C105.479 33.6664 105.55 33.6631 105.62 33.6598C105.891 33.6593 106.161 33.6587 106.431 33.6581C106.355 33.662 106.279 33.666 106.203 33.6699C106.62 33.6707 107.037 33.6714 107.454 33.6722C107.341 33.6669 107.229 33.6616 107.117 33.6563C109.079 33.6555 108.415 33.6587 109.503 33.6686C110.316 33.6698 108.943 33.6595 110.662 33.6574C112.662 33.6551 111.35 33.6704 113.939 33.6676C113.976 33.6651 114.014 33.6626 114.051 33.6601C114.62 33.6627 115.19 33.6654 115.759 33.668C115.684 33.6649 115.608 33.6618 115.533 33.6587C116.708 33.6602 118.328 33.6549 118.717 33.6668C117.526 33.6608 117.538 33.6817 117.847 33.6855C118.19 33.6898 121.065 33.6898 123.94 33.6889L123.93 33.6992C123.929 31.2128 123.928 28.7263 123.927 27.8773C123.927 25.5364 123.933 23.7671 123.924 21.6289C123.917 23.0779 123.922 28.1733 123.917 29.1389C123.916 29.2345 123.898 29.2076 123.918 29.8225C123.916 30.9979 123.917 32.3097 123.918 33.6992L123.94 33.6771C122.988 33.6778 121.999 33.6785 120.992 33.6781C121.068 33.6727 121.144 33.6674 121.219 33.662C122.52 33.672 123.738 33.6556 123.94 33.6635L123.904 33.6992C123.906 33.6651 123.908 33.6601 123.911 33.6888C123.911 33.386 123.911 33.0832 123.911 32.7805C123.907 32.7805 123.904 32.7805 123.9 32.7805C123.9 32.324 123.901 31.8676 123.901 31.4112C123.904 31.4112 123.908 31.4112 123.911 31.4112C123.911 31.0332 123.911 30.6552 123.911 30.2771C123.908 30.2378 123.904 30.1984 123.901 30.159C123.908 29.027 123.891 25.168 123.91 26.8645C123.91 26.3328 123.911 25.8011 123.911 25.2695C123.908 25.2712 123.906 25.2729 123.903 25.2747C123.903 25.0461 123.903 24.8176 123.903 24.589C123.905 24.6643 123.907 24.7395 123.909 24.8148C123.906 23.7674 123.917 22.7745 123.91 22.0867C123.908 22.5404 123.906 22.994 123.905 23.4476C123.908 22.5776 123.902 20.9749 123.902 20.8314C123.902 20.3942 123.907 20.1637 123.907 19.69C123.908 19.2625 123.904 19.3213 123.904 19.2416C123.908 16.9352 123.927 17.8142 123.905 16.7373C123.908 16.6226 123.911 16.508 123.914 16.3934C123.912 16.2408 123.909 16.0882 123.907 15.9356C123.907 15.2544 123.908 14.5733 123.908 13.8922C123.904 14.1193 123.9 14.3465 123.897 14.5737C123.895 13.5527 123.903 13.0765 123.903 12.9776C123.904 12.6977 123.899 12.5697 123.899 12.4832C123.901 8.32261 123.904 10.8497 123.922 8.77055C123.921 8.74504 123.921 8.72129 123.921 8.69922L123.94 8.71826C123.495 8.72279 123.733 8.72742 123.94 8.73214L123.907 8.69922C123.905 8.77999 123.903 8.85594 123.901 8.88448C123.902 8.81995 123.902 8.75833 123.902 8.69922L123.94 8.73705C123.096 8.7344 122.764 8.7359 121.791 8.73524C121.52 8.73504 121.229 8.7314 121.059 8.7313C120.911 8.73122 120.448 8.73483 120.093 8.73473C119.501 8.73455 118.713 8.7321 117.902 8.73191C117.228 8.73177 115.164 8.73365 113.725 8.73318C113.111 8.73297 113.254 8.7301 113.095 8.73004C113.029 8.73002 112.55 8.73336 112.156 8.73324C108.943 8.7322 105.65 8.72902 102.421 8.72808C100.146 8.72741 97.8345 8.72906 95.555 8.72801C95.0699 8.72779 95.3267 8.72576 95.1149 8.72562C95.0421 8.72558 94.9546 8.72923 94.2045 8.72749C93.9335 8.72687 94.2452 8.72443 93.9788 8.72422C93.8491 8.72412 93.794 8.72729 93.036 8.72774C91.6583 8.72854 90.918 8.72417 90.795 8.72426C90.5631 8.72443 90.6309 8.72698 90.3236 8.72696C88.8209 8.72687 87.5663 8.72683 86.2253 8.72654C85.599 8.72641 81.2812 8.72526 81.0441 8.72477C80.5136 8.72369 81.0074 8.71923 80.3271 8.71919C80.1365 8.7203 79.9459 8.72139 79.7553 8.72248C80.0581 8.72346 80.3609 8.72445 80.6636 8.72546C79.8301 8.72367 78.8851 8.72539 78.268 8.72506C78.1539 8.72499 77.1047 8.72259 76.5695 8.72263C76.797 8.72189 77.0245 8.72115 77.252 8.7204C77.1715 8.71967 77.091 8.71894 77.0106 8.71822C75.9403 8.71897 74.8083 8.71857 73.7108 8.7181C73.315 8.71793 73.4488 8.71636 73.0481 8.71619C70.7143 8.7153 71.3037 8.72158 69.0585 8.70932C69.8166 8.71053 72.5823 8.70951 72.9843 8.70997C73.2644 8.71027 74.3507 8.72123 73.9522 8.71016C76.1931 8.71061 74.2467 8.71638 76.3395 8.71554C76.2977 8.71414 76.2559 8.71274 76.2141 8.71134C76.9447 8.71061 77.4843 8.70996 77.9283 8.71256C78.0772 8.70568 80.5595 8.71006 81.921 8.70983C83.8885 8.70945 86.1114 8.70785 88.0607 8.70771C88.7322 8.70766 89.1126 8.71088 89.1969 8.71088C89.32 8.71088 89.666 8.70814 89.9118 8.70814C90.8296 8.7081 93.6218 8.7135 94.3164 8.70535C88.8554 8.70494 83.3944 8.70453 77.9335 8.70413C78.6201 8.70748 73.0961 8.70707 72.8161 8.70688C72.5568 8.70671 72.775 8.70464 72.6979 8.70451C72.1241 8.70357 71.6342 8.70653 71.452 8.7065C71.3131 8.70648 71.0326 8.70505 70.5385 8.70504C70.4479 8.70503 70.4227 8.70648 70.3253 8.70647C69.6808 8.70639 69.0446 8.7063 68.3979 8.70622C68.3585 8.7062 68.1953 8.70414 68.0321 8.70413C67.8683 8.70412 67.7065 8.70612 67.6652 8.70612C67.1482 8.70603 66.2621 8.70465 65.7702 8.70459C65.5995 8.70457 65.7178 8.70601 65.5266 8.70597C64.9391 8.70586 65.1326 8.70313 64.4062 8.70378C64.1627 8.70399 64.1784 8.70607 63.7121 8.70573C63.3819 8.7055 63.4175 8.70186 63.3651 8.70173C63.2928 8.70158 62.1533 8.70432 61.7805 8.70197C62.595 8.69588 60.8895 8.70166 60.9715 8.70414C60.52 8.70346 60.0685 8.7028 59.6169 8.70215C59.463 8.70276 59.3089 8.70337 59.1549 8.70397C57.3331 8.70106 56.2217 8.70265 54.4295 8.70173C54.3429 8.70167 52.8328 8.70039 52.9034 8.69966C53.8073 8.69837 54.7092 8.69823 55.2876 8.70078C56.2395 8.69593 56.2559 8.69979 57.793 8.69916C58.3077 8.69893 58.3442 8.69752 58.4034 8.6975C60.4049 8.69676 63.6107 8.69574 64.9591 8.70046C65.3371 8.69919 63.9782 8.6987 64.5065 8.69777C64.7947 8.69729 71.7298 8.69536 69.5142 8.70131C69.7441 8.70115 69.9741 8.701 70.204 8.70084C70.434 8.69525 71.5777 8.69643 71.4479 8.70216C71.5562 8.701 71.6646 8.69983 71.7729 8.69866C71.987 8.69766 72.2402 8.69712 72.5955 8.69679C73.9558 8.69546 82.0488 8.69729 82.4792 8.69636C82.4889 8.69475 82.4987 8.69315 82.5084 8.69155C78.9331 8.69026 75.4646 8.69416 71.566 8.69069C71.6792 8.69195 71.7924 8.69321 71.9057 8.69448C70.35 8.69281 68.7944 8.69128 67.2387 8.68989C68.8852 8.68752 71.5047 8.68491 73.2331 8.68648C73.5403 8.68676 73.3151 8.68864 73.3857 8.68884C73.5701 8.68939 73.7684 8.68618 74.4309 8.68572C75.0937 8.68524 76.7587 8.68724 76.9113 8.68716C77.2054 8.68698 77.9993 8.68294 78.5 8.68285C79.1581 8.68276 78.717 8.68531 78.8491 8.68533C79.3955 8.68546 79.8855 8.68413 80.3135 8.68422C80.9489 8.68432 82.2692 8.68861 82.7133 8.68184C82.2593 8.68165 81.8054 8.68146 81.3514 8.68128C83.8131 8.67814 85.7378 8.68661 88.1631 8.67905C88.7142 8.67014 86.7103 8.67209 88.4046 8.66771C88.0969 8.66796 87.7893 8.66821 87.4816 8.66846C87.4095 8.67029 87.3374 8.67212 87.2653 8.67395C86.7353 8.67284 86.2054 8.67176 85.6755 8.6707C85.8267 8.67222 85.9779 8.67374 86.1291 8.67527C84.2504 8.6771 82.3532 8.67908 81.6973 8.67136C81.6587 8.6733 81.62 8.67525 81.5813 8.67719C79.837 8.6755 77.2185 8.68408 77.7077 8.67379C77.6252 8.67435 77.5426 8.67492 77.46 8.67549C76.4056 8.67382 76.856 8.6778 76.4597 8.67839C76.3466 8.67854 74.2972 8.67717 75.2054 8.67395C73.2062 8.67259 73.8226 8.68125 73.2718 8.6818C71.9919 8.67786 69.6898 8.68496 70.6577 8.67802C70.4671 8.67784 70.2765 8.67766 70.0859 8.67748C69.4597 8.68285 68.8424 8.67723 68.1637 8.67566C67.9338 8.67564 67.7038 8.67563 67.4739 8.67562C67.3199 8.67734 67.1659 8.67905 67.0119 8.68074C64.8485 8.67388 65.5335 8.6943 64.5452 8.67736C64.6992 8.67627 64.8532 8.67517 65.0072 8.67406C65.3723 8.6734 65.7374 8.67272 66.1026 8.67204C64.6298 8.67231 63.1571 8.67262 61.6844 8.67297C59.8151 8.66952 58.7513 8.67485 56.6746 8.67272C56.4802 8.67323 56.2858 8.67372 56.0914 8.67422C56.2895 8.67085 57.0438 8.6708 55.6388 8.67027C55.5191 8.66808 56.4679 8.66708 56.9004 8.66858C57.0046 8.66896 56.1174 8.67132 57.1147 8.67075C57.7926 8.67036 56.5616 8.66832 58.5926 8.66802C58.5173 8.66748 58.4421 8.66693 58.3668 8.66639C58.587 8.66626 58.8072 8.66612 59.0274 8.66598C59.2232 8.66723 59.419 8.6685 59.6148 8.66979C60.1181 8.66745 60.4006 8.66434 61.5506 8.66414C61.2387 8.66528 61.6619 8.66792 62.231 8.66753C62.231 8.66645 62.231 8.66538 62.231 8.6643C63.6088 8.66263 63.1332 8.66621 64.2786 8.66288C64.3932 8.66369 64.5079 8.66451 64.6225 8.66533C65.2465 8.66127 67.5438 8.6569 67.1248 8.66302C67.7693 8.65695 69.1227 8.65843 69.626 8.66285C69.6647 8.6616 69.7034 8.66035 69.742 8.6591C70.01 8.65866 70.2779 8.65822 70.5458 8.65778C70.6953 8.65843 70.8448 8.65908 70.9942 8.65974C71.1841 8.65886 71.374 8.65796 71.5639 8.65706C71.6785 8.65825 71.7931 8.65945 71.9078 8.66065C72.213 8.65893 72.5182 8.65717 72.8234 8.6554C73.0101 8.6563 73.1969 8.65721 73.3836 8.65813C73.4029 8.65541 75.2531 8.65342 75.7699 8.65493C75.9239 8.654 76.0779 8.65306 76.2319 8.65212C76.3071 8.65342 76.3824 8.65473 76.4576 8.65605C76.5723 8.65488 76.6869 8.6537 76.8015 8.65252C77.0656 8.65343 77.3297 8.65435 77.5938 8.65529C78.6709 8.6477 78.7056 8.65367 78.9515 8.65348C79.4075 8.65312 80.9601 8.64757 81.2197 8.64758C81.4789 8.64762 81.6041 8.65012 81.8134 8.65022C85.2633 8.652 83.8451 8.64582 84.5372 8.64416C84.9107 8.64324 85.175 8.64558 85.5051 8.64506C86.0699 8.64421 88.919 8.63854 89.0829 8.63873C89.3216 8.63906 88.7597 8.65209 89.5355 8.64831C89.5613 8.64147 91.2203 8.64722 90.4449 8.63815C91.1281 8.63847 91.8113 8.6388 92.4945 8.63916C92.4171 8.63083 93.2596 8.63555 94.1774 8.63437C95.4778 8.63274 98.4057 8.6244 98.2987 8.63374C98.6102 8.63138 98.9216 8.629 99.2331 8.62659C101.364 8.6278 103.455 8.62298 105.57 8.62105C111.526 8.61569 117.961 8.61235 123.94 8.60986L124.029 8.61002L124.029 8.69922C124.029 9.02367 124.03 9.34678 124.03 9.6684C124.03 9.9688 124.026 9.92561 124.026 10.1419C124.026 11.2783 124.031 14.2319 124.032 15.8237C124.032 16.3337 124.028 16.5819 124.028 16.7435C124.028 17.2924 124.033 17.1628 124.033 17.4156C124.033 17.8143 124.03 19.9232 124.03 20.6496C124.03 21.0092 124.034 21.4347 124.033 21.8558C124.033 21.892 124.028 21.8251 124.028 21.8558C124.028 22.6232 124.032 22.1616 124.032 22.4212C124.032 24.2726 124.033 26.2514 124.034 28.2599C124.034 28.7586 124.031 29.5219 124.031 29.95C124.031 30.1133 124.034 29.8204 124.034 30.3848C124.034 30.5781 124.03 30.6442 124.029 30.8625C124.029 31.8029 124.045 32.1176 124.033 32.9258C124.033 33.1602 124.033 33.4208 124.034 33.6992L124.034 33.7932L123.94 33.793C122.366 33.7955 120.224 33.8 119.015 33.801C118.678 33.8012 118.514 33.7983 118.193 33.7986C117.966 33.7988 117.565 33.8038 117.21 33.8041C116.854 33.8045 116.294 33.8003 115.611 33.8009C114.891 33.8016 113.997 33.805 113.835 33.8051C113.639 33.8052 113.548 33.7994 113.352 33.7996C112.76 33.8002 111.174 33.8072 110.412 33.8084C109.592 33.8096 109.1 33.8071 108.82 33.8073C108.56 33.8076 108.258 33.8129 108.139 33.8131C107.955 33.8133 107.911 33.8073 107.677 33.8075C107.295 33.8079 106.9 33.812 106.327 33.8125C95.9971 33.822 85.8694 33.8262 75.8198 33.8278C74.6994 33.828 74.0664 33.8336 72.4155 33.8324C71.7461 33.8319 72.0281 33.824 71.5072 33.8258C71.2749 33.8266 71.3336 33.8326 71.04 33.8331C69.7419 33.8353 68.2295 33.8307 67.667 33.8312C67.4439 33.8314 67.1889 33.8386 66.7315 33.839C63.3226 33.8423 59.2894 33.8431 55.6208 33.847C53.6783 33.8491 50.7374 33.8551 48.508 33.8573C42.3481 33.8634 35.7215 33.8665 30.1036 33.8715C24.0359 33.8768 17.9891 33.8858 11.9399 33.8894L11.7494 33.8891L11.7498 33.6992C11.7484 31.2914 11.7479 28.8833 11.749 26.4733C11.7385 28.5947 11.7356 31.1271 11.7353 33.6992L11.735 33.9035L11.9399 33.9038C14.1693 33.9041 16.4284 33.9024 18.4755 33.9018C31.2099 33.8974 44.7689 33.8744 57.8199 33.8645C62.3607 33.8609 68.086 33.8559 73.0572 33.8556C73.2827 33.8556 73.75 33.85 74.2373 33.8501C74.3408 33.8502 75.6246 33.8586 76.057 33.8583C75.6471 33.8419 77.3415 33.8554 77.8653 33.8546C78.5259 33.8534 79.9034 33.8441 81.4494 33.8475C82.8521 33.8505 82.4652 33.857 82.5427 33.8573C83.0388 33.8594 83.212 33.8492 83.5921 33.8479C85.1452 33.8426 93.1339 33.8417 95.3634 33.84C95.9396 33.8396 95.9559 33.8455 96.0857 33.8454C96.4295 33.8451 96.9188 33.8389 97.4696 33.8385C98.4625 33.8378 99.6061 33.8422 100.153 33.8417C101.46 33.8406 103.94 33.8322 105.639 33.8306C106.117 33.8302 106.088 33.836 106.304 33.8358C107.256 33.8348 109.736 33.826 110.917 33.825C112.837 33.8233 114.812 33.8251 116.763 33.8217C116.887 33.824 117.011 33.8262 117.134 33.8285C117.33 33.8258 117.525 33.8232 117.72 33.8205C119.781 33.8199 121.866 33.8165 123.94 33.8136L124.054 33.8138L124.054 33.6992C124.052 32.4531 124.051 31.2107 124.05 29.9793C124.05 29.6012 124.052 27.7295 124.052 27.4174C124.052 27.1578 124.046 26.9023 124.047 26.5175C124.047 25.9784 124.058 26.4857 124.054 25.605C124.053 25.3682 124.049 25.5978 124.047 25.1221C124.047 24.965 124.043 21.9152 124.043 21.7512C124.043 21.4781 124.052 21.2344 124.052 21.1638C124.053 20.7973 124.046 20.8129 124.045 20.567C124.042 19.8414 124.046 18.8934 124.046 18.7755C124.043 17.3499 124.036 14.6849 124.038 13.1887C124.038 12.9818 124.043 13.0066 124.043 12.9703C124.044 12.7358 124.038 12.5901 124.038 12.3672C124.037 11.3571 124.038 9.86577 124.038 8.69922L124.038 8.60132L123.94 8.60114C123.72 8.60109 123.513 8.60106 123.321 8.60109C123.182 8.60112 122.889 8.60387 122.641 8.60384C121.238 8.60365 121.693 8.59933 121.614 8.59923C121.424 8.59898 121.092 8.60362 120.589 8.60432C119.293 8.60616 116.809 8.6077 115.42 8.60861C114.379 8.60926 114.395 8.6046 114.326 8.60457C114.18 8.60454 113.775 8.60862 113.09 8.60963C111.771 8.61161 111.922 8.60791 111.38 8.60856C111.334 8.6086 111.413 8.61201 110.812 8.61288C109.651 8.61456 107.041 8.61354 105.798 8.61486C105.32 8.61535 105.208 8.61859 104.718 8.61907C103.942 8.61983 102.19 8.61806 102.052 8.6182C102.013 8.61824 101.927 8.62181 101.699 8.622C101.448 8.62221 101.202 8.62065 101.015 8.62082C99.9519 8.62184 98.1199 8.62927 98.629 8.61684C98.2882 8.62013 97.9475 8.62338 97.6068 8.62659C95.3796 8.62791 93.216 8.6309 91.0093 8.63328C90.513 8.63381 90.0986 8.6321 89.6797 8.63257C89.2609 8.63305 87.4131 8.6379 87.1043 8.63819C86.5532 8.63875 83.4216 8.64161 83.0321 8.6417C82.2715 8.64188 81.5336 8.63852 81.2239 8.63957C80.9756 8.6404 81.2052 8.64244 80.7316 8.64346C79.9117 8.64519 78.5184 8.64353 78.268 8.6438C78.161 8.6439 78.3612 8.64541 77.3597 8.64634C76.8199 8.64683 76.5301 8.64528 76.3343 8.64546C76.2734 8.64552 76.3647 8.64833 75.2964 8.64879C74.5585 8.64911 74.2439 8.64721 74.1665 8.64727C74.0503 8.64735 73.7698 8.64987 73.3031 8.65016C72.2123 8.65081 70.2179 8.64994 69.1818 8.65066C68.9814 8.6508 69.0496 8.65329 68.2505 8.6537C67.679 8.65399 67.7788 8.65193 67.5648 8.65204C67.2255 8.65221 66.72 8.65502 65.9709 8.65554C65.0281 8.65613 58.0277 8.65971 57.6655 8.65958C57.4218 8.65943 57.1392 8.65965 57.0185 8.65889C57.122 8.65797 57.2255 8.65703 57.3289 8.6561C58.401 8.65806 57.9684 8.65507 58.2529 8.65457C58.6651 8.65385 60.2185 8.65281 60.5942 8.65164C60.7281 8.65121 60.4216 8.64962 61.1409 8.64787C61.9127 8.64598 62.256 8.64917 62.5634 8.64399C63.6588 8.64827 64.7109 8.64131 63.4425 8.64113C62.7343 8.64099 55.7884 8.64728 54.3699 8.64879C53.2198 8.64997 51.0658 8.65366 49.6517 8.65502C48.8205 8.65582 46.7734 8.65805 46.8599 8.65618C46.1221 8.65686 46.9029 8.65767 46.7481 8.65811C46.4243 8.65899 44.1214 8.66054 43.6856 8.66113C41.5358 8.66399 38.8231 8.66861 36.7348 8.66945C36.832 8.66899 36.9292 8.66853 37.0264 8.66807C37.4956 8.66684 39.6726 8.6651 39.9186 8.66295C36.7348 8.66707 33.551 8.6712 30.3673 8.67533C30.4265 8.67632 26.4776 8.68115 26.2909 8.68104C26.3602 8.68057 26.4296 8.68009 26.4989 8.6796C28.7304 8.67822 28.5302 8.6763 30.0286 8.67555C30.6386 8.67477 30.4545 8.67418 30.7551 8.67362C33.7468 8.66786 30.8031 8.67535 33.0933 8.67153C32.4038 8.6711 34.2795 8.66802 35.1199 8.66663C35.3112 8.66631 37.8235 8.6632 38.1218 8.66277C39.7979 8.66033 42.6762 8.65513 44.3409 8.65392C45.6526 8.65224 46.3746 8.64966 47.5655 8.64754C48.4694 8.64594 48.2103 8.64749 48.6358 8.6469C49.5285 8.64569 49.8223 8.64146 50.3938 8.64592C50.999 8.64442 51.6042 8.6429 52.2094 8.64133C52.2094 8.6422 52.2094 8.64306 52.2094 8.64392C52.5895 8.6434 52.9696 8.64287 53.3497 8.64235C53.4616 8.64132 53.5734 8.64027 53.6853 8.63922C54.8917 8.63872 54.388 8.64164 54.6134 8.64392C54.874 8.64375 55.1346 8.6436 55.3953 8.64344C55.597 8.64117 55.7987 8.63886 56.0004 8.63652C57.1641 8.63503 58.3278 8.63356 59.4915 8.6321C59.5667 8.633 59.642 8.63391 59.7173 8.63483C59.7197 8.63381 59.7221 8.63279 59.7246 8.63177C61.6952 8.62878 63.6658 8.62576 65.6364 8.62272C66.1606 8.62009 63.0032 8.62338 62.7641 8.62365C61.4341 8.62509 57.9021 8.63192 57.8975 8.62845C57.0708 8.63234 54.5818 8.63529 53.8076 8.63368C54.9827 8.63202 56.1579 8.63036 57.3331 8.62872C57.2951 8.62762 57.2572 8.62653 57.2192 8.62544C58.6834 8.62773 58.8977 8.62739 60.4029 8.62025C60.4043 8.6219 60.4057 8.62356 60.4071 8.62521C61.4567 8.61772 63.3119 8.62496 63.3651 8.61741C63.924 8.61713 64.4828 8.61687 65.0417 8.61663C66.2484 8.61379 64.3745 8.61073 69.0992 8.60538C69.4249 8.60502 69.357 8.60728 69.8466 8.60635C69.9878 8.60609 70.7963 8.6016 72.3426 8.59936C72.5839 8.59901 72.6022 8.60095 72.8526 8.60079C73.431 8.60047 74.5829 8.59462 74.0599 8.60196C76.3505 8.6003 75.4012 8.59636 76.1117 8.59301C76.5852 8.59077 76.4899 8.59491 76.8998 8.59334C77.4069 8.59139 77.0347 8.58791 79.0655 8.58639C78.8376 8.58706 78.6097 8.58772 78.3819 8.58838C78.4965 8.58931 78.6111 8.59025 78.7258 8.5912C79.8848 8.58658 79.7753 8.5908 80.3218 8.58339C81.1644 8.58487 81.8934 8.58395 83.0457 8.58149C85.2842 8.57676 84.1366 8.571 86.6914 8.57698C87.1054 8.57486 87.5193 8.57271 87.9332 8.57054C88.6136 8.5725 88.0632 8.57729 89.0787 8.57646C88.284 8.57 90.4266 8.56934 90.7887 8.56162C90.8267 8.56324 90.8647 8.56487 90.9027 8.56649C91.1295 8.56611 91.3563 8.56573 91.5831 8.56535C91.5838 8.56398 91.5845 8.56261 91.5852 8.56125C91.8873 8.56175 92.1893 8.56226 92.4914 8.56278C92.7186 8.56103 92.9457 8.55926 93.1729 8.55748C93.5464 8.55974 93.9199 8.56205 94.2934 8.56439C94.5279 8.56421 94.7623 8.56403 94.9968 8.56385C94.9226 8.56185 94.8484 8.55985 94.7742 8.55786C95.0756 8.55806 95.3769 8.55826 95.6783 8.55846C95.3276 8.55555 95.548 8.55108 96.4863 8.54952C97.2605 8.54823 96.3884 8.55719 98.0531 8.55123C98.1692 8.55081 98.3748 8.54509 99.9481 8.54141C101.835 8.53699 100.918 8.54266 101.255 8.54221C101.321 8.54212 101.897 8.53829 102.437 8.5369C102.743 8.53612 103.038 8.5379 103.079 8.53782C103.268 8.53738 103.323 8.53401 103.584 8.53342C104.249 8.53193 105.142 8.53194 105.793 8.53061C106.089 8.53001 106.367 8.5275 106.5 8.52724C106.704 8.52684 106.964 8.52945 107.172 8.52907C107.937 8.52769 109.098 8.51507 109.453 8.52901C110.189 8.51423 111.73 8.52785 111.617 8.51891C113.582 8.519 118.825 8.49752 118.671 8.51432C119.784 8.49818 119.685 8.5086 120.151 8.50759C120.673 8.50643 120.403 8.50412 120.817 8.5035C121.785 8.50205 122.709 8.50162 123.673 8.49996C123.521 8.5026 123.37 8.50524 123.219 8.50786C123.609 8.50748 123.797 8.50652 123.94 8.50531L124.134 8.50566L124.134 8.69922C124.136 8.92618 124.138 9.03949 124.14 9.67258C124.145 11.5695 124.14 10.7702 124.134 11.0502C124.14 10.975 124.143 13.2119 124.142 13.4396C124.142 13.5753 124.133 12.9802 124.138 14.35C124.14 14.2751 124.142 14.2002 124.145 14.1253C124.143 14.7493 124.15 16.4444 124.149 16.732C124.149 16.8641 124.13 17.5706 124.147 18.2173C124.145 18.2954 124.142 18.3734 124.14 18.4514C124.144 19.1695 124.149 19.8876 124.153 20.6057C124.148 20.7203 124.144 20.8349 124.139 20.9495C124.14 21.1774 124.14 21.4053 124.14 21.6331C124.144 21.4819 124.148 21.3307 124.152 21.1795C124.153 22.5865 124.163 24.3054 124.148 24.5953C124.152 24.8967 124.155 25.198 124.158 25.4994C124.154 25.6956 124.149 25.8917 124.144 26.0879C124.148 27.4834 124.151 27.5065 124.158 28.4605C124.154 28.4233 124.15 28.386 124.146 28.3487C124.153 29.0524 124.16 30.337 124.162 31.3527C124.163 31.8355 124.159 32.6645 124.16 32.7784C124.16 32.8508 124.17 33.3262 124.172 33.6992L124.172 33.9321L123.94 33.9317C123.72 33.9331 123.536 33.932 123.49 33.925C121.824 33.9363 121.09 33.9288 120.413 33.93C119.974 33.9309 119.774 33.936 119.277 33.9373C118.567 33.9392 117.852 33.9381 117.442 33.9391C117.207 33.9397 117.163 33.9445 117.002 33.9449C116.237 33.9469 116.685 33.9413 115.879 33.943C115.805 33.9432 115.216 33.95 114.552 33.9504C114.18 33.9506 113.22 33.9456 113.135 33.9458C112.76 33.9465 113.06 33.9594 111.776 33.9461C111.813 33.9486 111.85 33.9511 111.887 33.9535C110.298 33.9628 110.047 33.9518 109.726 33.9515C109.685 33.9515 109.298 33.9566 109.066 33.9564C108.675 33.956 108.517 33.9501 108.431 33.95C108.126 33.9495 107.098 33.9539 106.426 33.949C106.567 33.9664 104.213 33.977 103.692 33.9575C103.275 33.9622 102.858 33.9669 102.442 33.9717C102.253 33.9686 102.065 33.9656 101.876 33.9625C101.762 33.9661 101.647 33.9696 101.532 33.9732C100.925 33.9668 100.318 33.9603 99.7105 33.9537C99.6719 33.9613 99.6332 33.969 99.5945 33.9766C99.4245 33.976 99.2545 33.9755 99.0844 33.9749C98.9517 33.9691 98.8189 33.9632 98.6862 33.9574C98.4737 33.9589 98.2612 33.9604 98.0486 33.9619C97.996 33.9664 97.9434 33.9709 97.8908 33.9754C96.7482 33.9825 97.3353 33.939 95.1586 33.98C94.8199 33.977 94.4813 33.974 94.1426 33.971C93.7601 33.989 93.0434 33.9797 92.465 33.9826C92.0575 33.9847 92.0796 33.9916 91.5243 33.9927C90.9687 33.9939 90.9885 33.9871 90.9453 33.9872C90.4923 33.9875 90.1508 33.994 89.8185 33.9934C89.7684 33.9933 89.643 33.9855 89.2196 33.9857C88.796 33.9859 88.5407 33.9949 87.9099 33.9944C87.5867 33.9941 87.4932 33.9874 87.2065 33.9873C85.8401 33.9865 84.4642 34.0242 83.4395 33.9839C83.2085 33.9896 81.533 34.0112 80.816 34.0114C79.7008 34.0116 80.1305 34.0024 79.6871 34.0016C79.6234 34.0015 79.2838 34.0049 78.3482 34.006C78.1808 34.0062 78.2196 34.0109 78.1956 34.011C77.1049 34.0128 74.9868 34.0125 73.7889 34.0138C73.6819 34.0139 73.1215 34.0287 72.1719 34.0117C70.7647 34.0279 68.114 34.0023 66.258 34.0266C66.0008 34.0275 65.6884 34.0229 65.5745 34.0233C64.593 34.0264 64.9526 34.0416 62.7346 34.0223C62.9141 34.03 62.3952 34.0381 61.6622 34.0388C60.56 34.0397 61.3429 34.0233 60.457 34.026C60.457 34.0303 60.457 34.0345 60.457 34.0388C58.4192 34.0307 58.0137 34.0497 55.9688 34.0534C55.2333 34.0547 54.1467 34.0469 53.9714 34.0471C53.9035 34.0472 53.0991 34.0593 53.0223 34.0595C52.5897 34.0606 52.3453 34.0561 51.9719 34.0567C50.7377 34.0586 49.2649 34.0753 49.5313 34.0492C49.1919 34.0552 48.8526 34.0612 48.5132 34.0672C47.2311 34.0418 46.2723 34.0816 46.0036 34.055C45.7744 34.061 45.5451 34.067 45.3159 34.073C39.8169 34.0797 34.318 34.0862 28.8191 34.0924C28.6004 34.1022 26.2025 34.103 26.0795 34.1017C25.5149 34.096 26.1113 34.0742 24.959 34.0808C24.8315 34.0902 24.704 34.0995 24.5765 34.1089C23.1282 34.1144 23.8248 34.1041 23.2532 34.0988C23.0144 34.1003 23.0915 34.1073 22.7682 34.1084C21.0147 34.1143 17.4193 34.1209 15.5018 34.1248C15.1152 34.1256 15.1735 34.1186 15.0534 34.1188C14.7233 34.1194 14.0718 34.1292 13.4093 34.1304C12.9402 34.1312 12.4487 34.132 11.9399 34.1327L11.5056 34.132L11.5064 33.6992C11.5006 29.7645 11.4967 24.7946 11.4974 21.1426C11.4974 20.8625 11.5062 20.8279 11.5063 20.6388C11.5064 20.3769 11.4983 19.7918 11.4986 19.5163C11.4989 19.2567 11.5053 19.0905 11.5056 18.8128C11.5072 17.5421 11.4929 15.8336 11.5108 14.4741C11.5122 14.3598 11.5463 12.9354 11.5487 12.9031C11.5626 12.7141 11.5864 13.9799 11.6046 11.9007C11.625 13.759 11.6559 13.1785 11.6693 10.7646C11.6746 11.9753 11.6798 13.186 11.6849 14.3968C11.6887 14.3985 11.6925 14.4002 11.6962 14.402C11.7139 13.2998 11.7193 12.2064 11.7197 10.5305C11.7233 10.5827 11.7268 10.635 11.7304 10.6872C11.7492 12.1675 11.7537 13.9531 11.7781 15.0803C11.7946 13.4271 11.8115 11.7739 11.8287 10.1207C11.8315 10.2033 11.8344 10.2859 11.8372 10.3684C11.8447 11.1609 11.8495 12.892 11.8564 13.5501C11.8825 16.0637 11.8749 11.3502 11.8908 12.1244C11.8907 14.7783 11.8906 17.4321 11.8906 20.0859C11.9014 20.179 11.9318 9.96957 11.9673 10.0747C11.9695 10.9088 11.9718 11.7429 11.974 12.577C11.9828 12.2053 11.9917 11.8335 12.0007 11.4618C12.0034 11.5642 12.0062 11.6666 12.009 11.7691C12.0155 13.1763 12.0219 14.5835 12.0282 15.9907C12.0228 11.7123 12.028 9.72403 12.099 8.69922C12.1007 8.81524 12.1024 8.93126 12.1042 9.04728C12.0596 9.97413 12.072 14.3492 12.0792 16.6743C12.092 16.2004 12.0834 14.1531 12.0912 13.7205C12.0935 13.5979 12.102 14.0254 12.1067 13.7414C12.1188 12.999 12.1362 9.83556 12.1504 10.2953C12.1595 10.5913 12.1679 15.6814 12.1661 16.6743C12.1844 14.347 12.1914 11.949 12.2141 9.61484C12.2411 11.0882 12.274 12.393 12.2721 15.0824C12.2855 15.9022 12.3135 10.2089 12.322 10.0768C12.3293 11.0621 12.3366 12.0474 12.3437 13.0327C12.3427 12.1993 12.3416 11.3659 12.3405 10.5325C12.3434 10.5301 12.3463 10.5277 12.3492 10.5252C12.3595 12.6841 12.3808 14.6592 12.375 17.13C12.3902 17.0503 12.3912 15.5719 12.3925 14.8546ZM43.3438 8.65125C43.2939 8.64986 44.1998 8.64867 44.7099 8.6479C44.6333 8.64774 44.5566 8.64759 44.4799 8.64743C45.5685 8.64597 47.5948 8.64346 47.67 8.64006C48.4465 8.63836 48.1032 8.6418 48.3536 8.64173C48.4515 8.64172 49.465 8.63836 50.2757 8.63921C50.4684 8.6389 50.6611 8.63859 50.8537 8.63828C50.891 8.63706 50.9283 8.63584 50.9656 8.63461C51.2342 8.63558 51.5028 8.63658 51.7715 8.63761C48.9636 8.64221 46.1558 8.64675 43.348 8.65124C43.3466 8.65124 43.3452 8.65124 43.3438 8.65125ZM71.3318 8.6062C72.3543 8.60559 73.9206 8.60484 73.6042 8.60028C72.9582 8.60158 72.3123 8.60288 71.6663 8.60416C71.5548 8.60484 71.4433 8.60552 71.3318 8.6062ZM99.8297 33.9412C98.9757 33.9295 98.1894 33.9418 96.8686 33.9415C96.8703 33.9442 96.872 33.947 96.8738 33.9498C97.4139 33.9423 98.8417 33.9446 99.8297 33.9412ZM17.9719 8.69186C17.7838 8.69205 17.5957 8.69225 17.4075 8.69244C18.1727 8.69096 18.3096 8.69114 19.175 8.69C19.2272 8.68992 19.2091 8.6898 19.2273 8.68977C19.439 8.68948 19.6349 8.68942 19.8262 8.68918C20.1951 8.68871 20.4959 8.68811 21.1494 8.68726C21.6548 8.68661 21.6596 8.687 21.8372 8.68676C21.9886 8.68661 23.4882 8.68341 24.4534 8.68267C26.2889 8.68159 18.5321 8.69127 17.9719 8.69186ZM12.5315 8.69845C12.7131 8.69822 12.8946 8.69798 13.0761 8.69775C12.5303 8.6985 13.6319 8.69711 14.4401 8.6961C14.4151 8.69629 12.7051 8.69829 11.9399 8.69922C12.1371 8.69898 12.3343 8.69873 12.5315 8.69845ZM35.4868 8.6717C34.7765 8.67266 34.8949 8.67084 34.9245 8.67029C35.1506 8.67001 35.3767 8.66972 35.6028 8.66944C35.5641 8.67019 35.5255 8.67095 35.4868 8.6717ZM30.1447 8.67841C30.3656 8.67726 31.9076 8.67496 32.6386 8.67398C32.6705 8.67394 32.4697 8.67475 32.9866 8.67408C33.1419 8.67391 34.6689 8.6698 34.3329 8.67276C32.9375 8.67469 31.5421 8.67658 30.1468 8.67841C30.146 8.67841 30.1454 8.67841 30.1447 8.67841ZM28.5873 8.67969C28.8779 8.67909 29.1684 8.67848 29.459 8.67785C29.6092 8.67807 29.7593 8.67831 29.9095 8.67856C29.5789 8.67905 29.2482 8.67953 28.9176 8.68001C28.8075 8.6799 28.6974 8.67979 28.5873 8.67969ZM25.674 33.9594C25.7416 33.9653 25.8091 33.9711 25.8767 33.9769C26.1386 33.9802 27.4118 33.9531 27.0087 33.9486C26.5638 33.9522 26.1189 33.9558 25.674 33.9594ZM20.2973 33.9527C20.0325 33.9499 19.7677 33.9471 19.5029 33.9443C19.1984 33.9549 18.8939 33.9656 18.5894 33.9763C19.9122 33.9817 21.3197 33.988 21.0927 33.9581C21.3955 33.9577 21.6983 33.9574 22.001 33.9571C21.7461 33.9698 21.7804 33.9739 22.5728 33.9808C22.7461 33.9634 23.5654 33.9712 24.5033 33.9664C23.8211 33.9662 23.1389 33.9659 22.4568 33.9657C22.4568 33.9626 22.4568 33.9596 22.4568 33.9565C23.9773 33.956 22.0875 33.9387 21.0969 33.9519C21.0189 33.9479 20.9408 33.9439 20.8628 33.9399C20.6743 33.9441 20.4858 33.9484 20.2973 33.9527ZM124.081 27.4331C124.08 27.6216 124.078 27.8101 124.077 27.9986C124.099 28.729 124.077 27.2418 124.093 26.183C124.08 26.5328 124.079 24.9187 124.078 24.8263C124.074 25.012 124.07 25.1977 124.066 25.3834C124.071 26.0666 124.076 26.7499 124.081 27.4331ZM124.071 32.7763C124.076 32.4816 124.079 32.9725 124.082 33.6992L124.081 33.8411L123.94 33.8408C123.055 33.8436 121.82 33.8445 121.229 33.8437C120.967 33.8433 120.5 33.8373 120.311 33.8383C120.196 33.8408 120.082 33.8433 119.967 33.8458C119.831 33.8377 117.728 33.8491 116.899 33.8546C116.821 33.8516 116.743 33.8486 116.665 33.8456C116.363 33.8472 116.061 33.8487 115.759 33.8502C115.797 33.8471 115.835 33.844 115.873 33.8409C115.644 33.8448 115.416 33.8488 115.187 33.8527C114.29 33.8578 114.843 33.8403 114.169 33.8463C113.42 33.8529 114.648 33.8618 114.625 33.8683C115.233 33.8659 116.616 33.8606 117.233 33.8598C117.587 33.8593 117.185 33.8712 118.713 33.8563C119.048 33.859 119.382 33.8617 119.717 33.8643C120.332 33.8588 120.946 33.8533 121.561 33.8478C121.676 33.8519 121.79 33.8559 121.905 33.8599C121.971 33.8604 123.392 33.8495 123.316 33.8465C123.479 33.8486 123.691 33.85 123.94 33.8511L124.092 33.8513L124.092 33.6992C124.094 33.0717 124.094 32.2122 124.093 31.3203C124.091 31.2004 124.089 31.0806 124.087 30.9607C124.093 32.165 124.085 31.3439 124.081 31.7028C124.079 31.9101 124.075 32.544 124.071 32.7763ZM34.064 33.9353C32.0419 33.954 33.2938 33.939 31.1081 33.9413C31.2607 33.95 31.4133 33.9587 31.5659 33.9673C32.6406 33.95 34.4088 33.9587 34.0661 33.9353C34.0654 33.9353 34.0647 33.9353 34.064 33.9353ZM12.6755 33.9893C13.8322 33.9822 13.2517 33.9681 14.7179 33.9618C14.7186 33.9618 14.7193 33.9618 14.72 33.9618C13.9618 33.9615 13.2037 33.9613 12.4456 33.961C12.5222 33.9704 12.5989 33.9799 12.6755 33.9893ZM80.2923 33.9019C81.4013 33.9037 81.183 33.8986 82.1894 33.9081C83.6878 33.8934 82.4193 33.8967 82.4193 33.885C82.0768 33.8888 81.7344 33.8926 81.3919 33.8964C80.5616 33.8863 81.349 33.8798 81.349 33.8788C81.3484 33.8788 81.3476 33.8788 81.3469 33.8788C81.347 33.8753 81.3738 33.8745 81.0553 33.8726C80.801 33.8824 80.5467 33.8921 80.2923 33.9019ZM85.0387 33.8823C84.6584 33.8904 84.4874 33.9005 85.4871 33.9042C85.4878 33.9042 85.4885 33.9042 85.4892 33.9042C85.5694 33.887 86.5279 33.8998 86.965 33.8981C87.0796 33.8961 87.1943 33.8941 87.3089 33.8922C86.5522 33.8889 85.7954 33.8856 85.0387 33.8823ZM101.762 33.8506C101.767 33.8677 100.927 33.8704 102.108 33.8848C102.338 33.8842 102.567 33.8837 102.796 33.8831C102.947 33.8792 103.097 33.8753 103.248 33.8714C106.156 33.8986 107.023 33.8459 102.108 33.8706C102.108 33.8706 102.107 33.8706 102.106 33.8706C101.992 33.8639 101.877 33.8573 101.762 33.8506ZM96.6407 33.857C96.6038 33.8663 96.5668 33.8757 96.5299 33.885C95.8877 33.8632 95.0581 33.8857 93.7987 33.8709C93.6848 33.8739 93.5709 33.8769 93.4569 33.8799C92.9863 33.8741 88.3634 33.877 89.3649 33.8909C89.8021 33.8969 90.7546 33.887 90.8366 33.8872C91.1143 33.8876 91.4766 33.8954 91.9455 33.8944C92.2166 33.8938 92.7878 33.8835 93.3409 33.8829C94.5774 33.8818 96.8345 33.9043 98.4604 33.8787C98.5775 33.8813 98.6946 33.884 98.8116 33.8866C100.018 33.8835 99.6154 33.8753 100.738 33.8844C101.514 33.8404 96.2252 33.8915 97.3264 33.8548C97.3257 33.8548 97.325 33.8548 97.3243 33.8548C97.0964 33.8555 96.8686 33.8562 96.6407 33.857ZM63.4202 33.9048C63.3474 33.8953 61.9479 33.9115 62.2768 33.8882C61.82 33.8966 61.3633 33.9051 60.9065 33.9137C60.91 33.9158 60.9134 33.918 60.9169 33.9201C61.3709 33.9179 61.8249 33.9157 62.2789 33.9136C62.2806 33.917 62.2824 33.9204 62.2841 33.9237C62.9606 33.9107 65.7838 33.913 65.6978 33.9249C65.8487 33.9197 65.9995 33.9146 66.1504 33.9094C67.5008 33.9215 68.6626 33.9059 70.1337 33.9173C70.2477 33.9131 70.3616 33.9089 70.4755 33.9048C70.5497 33.9079 70.624 33.9111 70.6982 33.9143C71.234 33.9141 71.7699 33.9139 72.3057 33.9137C74.0519 33.8989 70.659 33.8856 70.2477 33.8879C70.193 33.8882 70.2015 33.8966 69.8599 33.8983C69.2532 33.9013 65.8573 33.8963 64.8073 33.903C64.7982 33.8973 64.7892 33.8915 64.7801 33.8858C64.3268 33.8921 63.8735 33.8984 63.4202 33.9048ZM108.251 33.862C108.328 33.8665 108.404 33.871 108.481 33.8754C109.804 33.8694 110.637 33.8724 110.298 33.8579C110.297 33.8579 110.296 33.8579 110.296 33.8579C109.614 33.8593 108.933 33.8606 108.251 33.862ZM66.3221 8.63985C66.3568 8.64302 66.9891 8.64363 67.8063 8.64041C67.7669 8.63949 67.7275 8.63857 67.6882 8.63765C67.2623 8.64092 66.7309 8.63663 65.4169 8.63878C65.4169 8.64037 65.4169 8.64197 65.4169 8.64357C65.7186 8.64234 66.0203 8.6411 66.3221 8.63985ZM107.11 33.8613C106.707 33.8562 105.575 33.874 106.32 33.874C106.889 33.8739 107.326 33.8639 107.11 33.8613ZM11.6591 29.8849C11.6579 30.1839 11.6566 30.4828 11.6554 30.7817C11.662 30.9375 11.6685 31.0932 11.6751 31.2489C11.6751 31.2483 11.6751 31.2476 11.6751 31.2469C11.6698 30.7929 11.6644 30.3389 11.6591 29.8849ZM76.5013 33.9071C77.5151 33.9052 78.529 33.9034 79.5429 33.9016C79.553 33.8986 79.5631 33.8956 79.5732 33.8926C78.5575 33.9046 78.1491 33.8933 77.9123 33.8928C77.9134 33.8928 77.9144 33.8928 77.9155 33.8927C77.155 33.8912 76.4305 33.8901 75.7111 33.8872C75.9745 33.8939 76.2379 33.9005 76.5013 33.9071ZM73.0259 33.8913C73.1967 33.9132 73.4197 33.9154 74.9773 33.8983C74.9157 33.8957 74.854 33.8931 74.7923 33.8905C73.9852 33.8929 73.5144 33.8985 73.6562 33.8869C73.4461 33.8884 73.236 33.8899 73.0259 33.8913ZM88.9029 33.8816C88.7159 33.8753 87.2325 33.8833 87.3131 33.8865C87.345 33.8878 89.2673 33.8937 88.9029 33.8816ZM55.0597 8.65326C55.4015 8.65326 55.7433 8.65328 56.0851 8.6533C55.6304 8.65433 55.1758 8.65535 54.7211 8.65634C54.834 8.65532 54.9468 8.65429 55.0597 8.65326ZM51.3074 8.66381C51.0637 8.66347 51.8559 8.65849 50.3991 8.65896C51.4593 8.65777 52.5195 8.65657 53.5797 8.65536C53.0825 8.65659 52.5853 8.65779 52.0882 8.65897C52.1749 8.6601 52.2617 8.66124 52.3484 8.66238C52.0014 8.66286 51.6544 8.66334 51.3074 8.66381ZM50.1691 8.66189C50.7401 8.66445 47.7337 8.66734 47.4536 8.66724C47.3912 8.66721 47.0946 8.66535 46.9854 8.665C47.4393 8.66456 47.8933 8.66411 48.3473 8.66367C48.1954 8.66312 48.0435 8.66258 47.8916 8.66205C48.4229 8.66127 48.9542 8.66047 49.4855 8.65967C49.2584 8.66063 49.0312 8.66157 48.8041 8.6625C49.2591 8.66229 49.7141 8.66208 50.1691 8.66189ZM62.231 8.64913C61.8509 8.64941 61.4708 8.64969 61.0907 8.64997C61.1667 8.65136 61.2426 8.65276 61.3186 8.65417C61.5461 8.65396 61.7736 8.65375 62.0011 8.65354C62.0777 8.65208 62.1544 8.65061 62.231 8.64913ZM54.4859 8.65849C55.0393 8.65173 56.5474 8.66398 54.7848 8.66052C54.6072 8.66017 54.4335 8.65913 54.4859 8.65849ZM46.3269 8.66767C45.145 8.67228 45.4117 8.66426 46.5275 8.66545C46.5837 8.66552 46.4156 8.66732 46.3269 8.66767ZM37.4654 8.67588C37.3697 8.67594 37.2024 8.67424 36.2885 8.67685C36.1377 8.67678 35.9868 8.67672 35.8359 8.67665C36.189 8.67552 39.2091 8.67195 38.7918 8.67437C38.3295 8.67483 37.9437 8.67551 37.4654 8.67588ZM40.39 8.68109C40.8432 8.68075 41.2966 8.6804 41.7498 8.68004C41.6004 8.67944 41.4509 8.67885 41.3014 8.67826C41.5244 8.67792 41.7474 8.67757 41.9704 8.67721C42.3515 8.67815 42.7327 8.67913 43.1138 8.68016C42.1285 8.68096 41.1432 8.68175 40.1579 8.68251C40.2353 8.68204 40.3126 8.68157 40.39 8.68109ZM52.4414 8.67576C51.5692 8.67509 50.5007 8.67697 49.0842 8.67759C49.0835 8.67759 49.0828 8.67759 49.0821 8.67758C49.0114 8.67761 48.8862 8.67649 48.6588 8.67659C48.465 8.6767 44.6394 8.68019 44.9378 8.67821C46.4179 8.6756 46.9708 8.67783 47.3261 8.67329C47.3982 8.67415 47.4703 8.67501 47.5425 8.67587C48.9657 8.67656 49.3719 8.67306 50.1712 8.67121C50.1681 8.67195 50.1649 8.67269 50.1618 8.67343C50.6956 8.67314 51.2293 8.67286 51.7631 8.67258C51.6878 8.67212 51.6126 8.67167 51.5373 8.67122C51.7262 8.67109 51.915 8.67096 52.1038 8.67082C52.5638 8.67279 53.147 8.67302 52.4414 8.67576ZM38.334 8.68156C37.915 8.68568 33.8317 8.68549 31.9665 8.68736C32.9457 8.68498 34.4627 8.68522 35.5307 8.68463C37.5953 8.68339 36.1682 8.68295 36.5185 8.68215C36.6915 8.68171 37.8626 8.68334 38.334 8.68156ZM55.6273 8.6728C54.598 8.67292 54.0217 8.67466 53.1313 8.67299C53.2058 8.67251 53.2804 8.67202 53.355 8.67152C53.6599 8.6717 56.1462 8.67144 55.6273 8.6728ZM29.2332 8.68832C31.2213 8.68804 30.2407 8.68617 31.2745 8.6874C30.5941 8.68794 29.9137 8.68847 29.2332 8.68898C29.2332 8.68876 29.2332 8.68854 29.2332 8.68832ZM104.834 33.7777C103.996 33.7776 103.061 33.7738 102.56 33.7828C103.129 33.7838 103.698 33.7849 104.268 33.7859C104.457 33.7832 104.645 33.7804 104.834 33.7777ZM123.935 28.9131C123.933 29.1044 123.938 29.8609 123.938 29.9406C123.938 30.0887 123.936 30.0482 123.935 30.0503C123.936 31.0197 123.944 30.1254 123.945 30.8426C123.946 30.9653 123.942 32.6501 123.942 33.3355C123.942 33.4571 123.942 33.5787 123.942 33.6992C123.015 33.7018 122.151 33.7014 121.802 33.7015C121.137 33.7017 119.903 33.7081 118.81 33.7085C118.359 33.7087 118.202 33.7035 117.749 33.7037C114.841 33.7045 109.116 33.7123 106.536 33.7091C105.898 33.7082 105.29 33.701 104.953 33.7015C104.688 33.7042 104.422 33.7069 104.156 33.7096C103.338 33.6854 103.065 33.7069 102.184 33.7093C101.624 33.7108 101.362 33.7035 101.287 33.7036C100.788 33.7037 100.542 33.7072 100.151 33.7078C99.7111 33.7085 99.0796 33.7052 98.9224 33.7058C98.826 33.7062 99.134 33.716 97.4288 33.716C95.6909 33.716 93.9753 33.7151 92.2079 33.7148C92.7974 33.7457 93.305 33.7243 94.0266 33.7232C94.2202 33.7228 94.0974 33.7277 94.2659 33.7275C94.7419 33.7268 95.6531 33.7219 96.047 33.723C96.4724 33.7242 96.327 33.7353 96.8665 33.7311C96.8938 33.7309 96.8075 33.7263 96.9344 33.7256C98.2097 33.7178 98.6271 33.7257 100.239 33.7256C101.308 33.7256 107.795 33.7203 108.018 33.7231C109.179 33.7377 102.343 33.7396 101.544 33.7385C101.264 33.7382 101.557 33.7332 101.302 33.7323C101.194 33.7319 100.223 33.7415 99.2621 33.7426C98.1007 33.7439 95.7668 33.7379 94.66 33.7384C85.1457 33.7428 75.7632 33.7387 66.258 33.7404C66.0554 33.7405 65.7885 33.7474 65.1282 33.7475C52.8035 33.7506 40.0298 33.7474 27.5481 33.7541C24.8268 33.7555 22.128 33.7641 19.3817 33.7585C19.041 33.7648 18.7002 33.7711 18.3595 33.7775C19.231 33.7723 20.8281 33.7857 20.9736 33.7859C21.026 33.7859 21.3564 33.7788 21.8892 33.779C22.6384 33.7793 22.967 33.7852 23.0285 33.7851C23.2191 33.7851 23.0942 33.7788 23.2762 33.7787C24.6335 33.7786 25.6836 33.7764 26.9293 33.776C28.3364 33.7755 29.0497 33.7867 30.0744 33.7737C30.1904 33.7786 30.3064 33.7835 30.4224 33.7884C31.188 33.7668 35.747 33.7679 37.5937 33.7684C38.1764 33.7685 38.0742 33.7769 38.27 33.7768C38.395 33.7768 38.3457 33.7659 39.8702 33.7676C40.6377 33.7684 40.8389 33.7762 41.2238 33.7758C41.4329 33.7756 41.399 33.7678 41.6994 33.7677C43.4369 33.7672 44.8555 33.7693 46.5566 33.7701C47.0348 33.7703 47.0401 33.7766 47.1471 33.7765C47.5412 33.7761 48.2265 33.7652 49.2282 33.7649C50.8769 33.7645 54.1628 33.7635 55.511 33.768C55.7091 33.7687 55.8732 33.7759 56.019 33.7758C56.2396 33.7755 56.3262 33.7679 56.365 33.7678C57.1028 33.7675 56.6589 33.7746 57.1531 33.7728C57.4195 33.7717 57.6972 33.7631 58.3164 33.7619C59.1339 33.7604 58.973 33.7706 59.3146 33.7694C59.3507 33.7692 59.3614 33.7622 59.6972 33.7619C60.9701 33.7607 62.8167 33.7585 64.0213 33.7582C64.3673 33.7581 64.6247 33.7626 65.1072 33.7625C66.0796 33.7623 71.6068 33.7577 72.0601 33.7601C72.1079 33.7604 71.6164 33.7703 72.3998 33.7697C72.6273 33.7656 72.8548 33.7615 73.0823 33.7574C73.4628 33.7637 73.8433 33.77 74.2237 33.7762C74.2101 33.7541 76.4483 33.7501 76.426 33.7724C76.671 33.7732 76.9159 33.774 77.1608 33.7748C77.6709 33.7593 78.0104 33.7648 78.9962 33.7556C79.1499 33.7602 79.3035 33.7648 79.4572 33.7694C79.4958 33.7662 79.5345 33.7631 79.5732 33.76C80.0993 33.7766 80.9621 33.7595 81.0668 33.7594C81.4697 33.7589 81.7725 33.763 81.9615 33.7628C82.6674 33.7621 84.1954 33.7558 85.0199 33.7582C85.0586 33.7583 85.0205 33.7653 85.255 33.7661C85.6781 33.7674 85.7194 33.7573 86.2835 33.769C86.3975 33.7659 86.5114 33.7629 86.6253 33.7599C86.7462 33.7614 86.8671 33.7629 86.988 33.7644C87.7016 33.7633 88.4151 33.7623 89.1287 33.7613C88.4796 33.773 89.2265 33.7791 89.9324 33.7698C90.1713 33.7667 89.9594 33.7598 90.039 33.7587C90.1484 33.7572 93.3507 33.7596 93.5625 33.7639C93.7141 33.7617 93.8656 33.7595 94.0172 33.7573C94.0938 33.7616 94.1705 33.7659 94.2471 33.7701C94.3307 33.7686 94.4144 33.767 94.498 33.7655C95.3314 33.7726 97.4945 33.7547 97.8866 33.756C98.0961 33.7566 97.9077 33.7745 98.912 33.7722C98.9468 33.7673 98.9817 33.7625 99.0165 33.7576C99.2465 33.7568 99.4764 33.756 99.7064 33.7552C100.138 33.7555 100.766 33.7637 100.786 33.7694C100.921 33.7659 101.056 33.7624 101.191 33.7589C101.553 33.7699 103.484 33.7651 104.26 33.7579C104.488 33.7611 104.715 33.7643 104.942 33.7675C105.247 33.7634 105.552 33.7593 105.858 33.7552C106.565 33.7538 105.818 33.7606 105.968 33.7611C106.287 33.7621 107.912 33.7505 107.805 33.7642C108.026 33.7641 108.248 33.7641 108.47 33.764C108.583 33.7601 108.697 33.7561 108.811 33.7522C109.192 33.7655 109.85 33.7605 111.2 33.7647C111.313 33.7616 111.426 33.7586 111.539 33.7555C111.957 33.7596 112.374 33.7638 112.792 33.7678C112.877 33.7628 112.963 33.7578 113.049 33.7528C113.23 33.752 113.412 33.7513 113.593 33.7505C113.962 33.7614 114.624 33.7492 114.961 33.7537C115.453 33.7601 115.073 33.7681 114.16 33.77C114.228 33.7781 116.948 33.7729 117.576 33.7721C117.534 33.7706 117.493 33.769 117.451 33.7675C116.81 33.769 116.168 33.7706 115.527 33.7721C114.989 33.7523 116.731 33.757 117.531 33.7541C117.604 33.7539 118.018 33.7462 118.824 33.7467C119.136 33.7469 120.352 33.7572 120.585 33.7577C122.461 33.7617 121.081 33.7472 122.917 33.7596C122.624 33.752 123.173 33.7549 123.94 33.7556L123.996 33.7557L123.996 33.6992C123.997 33.4648 123.997 33.21 123.996 32.9529C123.996 32.7661 123.987 31.1816 123.987 31.0747C123.985 30.4074 123.994 31.1338 123.991 30.1684C123.989 30.0524 123.987 29.9364 123.985 29.8204C123.984 29.5957 123.984 29.3709 123.984 29.1462C124.004 27.7825 123.989 27.4653 123.987 26.9805C123.986 26.7847 123.991 27.0368 123.99 26.529C123.99 26.3377 123.985 26.1257 123.985 25.6113C123.983 24.0014 124.001 23.455 123.982 21.9749C123.984 21.7477 123.987 21.5206 123.99 21.2934C123.986 21.1401 123.983 20.9868 123.98 20.8335C123.989 19.661 123.979 20.0843 123.979 19.6608C123.979 18.5426 123.98 16.2541 123.988 16.0537C123.971 15.0883 123.989 13.9341 123.988 13.5535C123.986 13.3274 123.984 13.1013 123.982 12.8752C123.984 12.6093 123.986 12.3435 123.987 12.0777C123.972 12.2069 123.987 10.8301 123.987 10.698C123.987 10.5943 123.984 9.58376 123.983 8.69922L123.983 8.65639L123.94 8.65632C123.522 8.65709 123.133 8.65768 122.88 8.65775C122.093 8.65794 120.721 8.65441 120.601 8.65446C120.462 8.65453 119.122 8.65909 118.074 8.65943C117.158 8.65965 111.727 8.65645 112.07 8.66246C112.425 8.66403 112.93 8.66534 113.368 8.66601C114.588 8.66778 121.147 8.66878 123.94 8.66947L123.97 8.66953L123.97 8.69922C123.97 9.01373 123.97 9.2805 123.969 9.48653C123.968 13.5695 123.97 17.8278 123.969 21.9289C123.969 22.1702 123.965 22.2069 123.965 22.4139C123.964 22.7282 123.969 23.5257 123.969 23.8354C123.969 24.9922 123.969 26.3998 123.969 27.0192C123.969 28.4035 123.966 29.3531 123.966 30.4005C123.966 30.7284 123.972 32.3862 123.97 33.5226C123.969 33.5815 123.969 33.6403 123.969 33.6992L123.968 33.7279L123.94 33.7278C123.793 33.7269 123.646 33.7259 123.499 33.725C123.614 33.7246 123.765 33.7242 123.94 33.7237L123.964 33.7237L123.964 33.6992C123.962 32.9839 123.959 31.8796 123.959 31.3067C123.958 30.2459 123.962 29.6926 123.962 29.3009C123.962 28.973 123.957 27.2973 123.957 26.5342C123.957 26.2973 123.962 26.2487 123.962 26.0461C123.961 24.9462 123.961 23.4976 123.956 22.5435C123.958 22.9329 123.96 20.5011 123.96 20.3736C123.96 20.155 123.956 19.9179 123.956 19.4716C123.956 18.6134 123.965 18.7222 123.956 17.6498C123.958 17.3843 123.961 17.1188 123.963 16.8533C123.952 16.837 123.967 13.4823 123.953 12.5281C123.951 12.5031 123.947 16.8624 123.947 17.2223C123.945 19.381 123.949 22.5755 123.947 24.6705C123.946 25.3011 123.938 27.2835 123.938 27.4331C123.939 27.6743 123.943 27.4564 123.943 27.5606C123.947 29.6937 123.938 28.6295 123.935 28.9131ZM50.1712 8.67953C50.8193 8.67935 51.4673 8.67918 52.1153 8.67901C52.0683 8.67989 52.0213 8.68077 51.9742 8.68165C51.6774 8.68145 51.3805 8.68125 51.0837 8.68106C50.8555 8.68167 50.6273 8.68227 50.3991 8.68286C50.3231 8.68174 50.2472 8.68063 50.1712 8.67953ZM48.5741 8.68363C48.0121 8.68426 47.9847 8.68264 47.855 8.68263C47.4679 8.68257 47.1332 8.68337 46.7575 8.68351C47.1902 8.67958 48.1118 8.68074 48.5741 8.68363ZM60.1814 8.68055C60.0546 8.68031 59.2087 8.67528 58.2466 8.68069C57.5268 8.6794 56.807 8.67819 56.0872 8.67704C57.3101 8.67877 59.0023 8.67552 59.6013 8.67528C59.8287 8.6752 59.8721 8.67687 60.0538 8.67682C61.1014 8.6765 62.1198 8.67196 62.2269 8.67781C61.2362 8.67656 60.343 8.68082 60.1814 8.68055ZM53.8598 8.68125C53.6922 8.6803 53.5246 8.67935 53.3571 8.67842C53.9626 8.67812 54.5681 8.67782 55.1737 8.67751C55.0099 8.67867 54.8462 8.67981 54.6824 8.68094C54.4082 8.68104 54.134 8.68115 53.8598 8.68125ZM100.445 8.66846C100.071 8.66857 99.6976 8.66867 99.3241 8.66877C99.3445 8.67033 99.7719 8.67018 99.9292 8.67119C99.9286 8.67119 99.9279 8.67119 99.9272 8.67119C100.103 8.67234 100.027 8.67438 100.346 8.67519C100.379 8.67295 100.412 8.67071 100.445 8.66846ZM17.9069 33.759C17.2808 33.7588 11.4994 33.7602 11.9919 33.7763C12.2402 33.7843 14.2175 33.7766 14.8005 33.7766C15.5864 33.7766 17.7088 33.7929 17.9069 33.759ZM11.8809 29.4271C11.8644 29.327 11.8629 32.9401 11.8658 33.2934C11.8681 33.2184 11.8732 33.1028 11.8744 33.0028C11.8798 32.5155 11.8766 30.206 11.8809 29.4271ZM121.361 8.68169C121.069 8.67815 120.778 8.67463 120.487 8.67115C120.563 8.67576 120.64 8.68038 120.717 8.68502C120.931 8.68392 121.146 8.68281 121.361 8.68169ZM123.265 33.7277C118.412 33.7285 113.56 33.7291 108.708 33.7298C109.135 33.727 109.561 33.7243 109.988 33.7215C114.169 33.7219 118.628 33.7236 122.666 33.7192C122.865 33.7221 123.065 33.7249 123.265 33.7277ZM61.5485 8.68956C62.7918 8.68938 63.8302 8.68748 65.1828 8.68987C63.8938 8.69261 63.2557 8.68888 62.0032 8.69267C62.0025 8.69267 62.0018 8.69267 62.0011 8.69267C61.8502 8.69163 61.6994 8.69059 61.5485 8.68956ZM89.3056 8.68516C88.9275 8.68753 88.5495 8.68988 88.1715 8.69219C88.6262 8.69215 89.0808 8.6921 89.5355 8.69206C89.4589 8.68975 89.3822 8.68745 89.3056 8.68516ZM80.9393 33.7066C79.6389 33.7185 76.3122 33.6971 75.2554 33.7116C75.187 33.7126 75.8153 33.7186 74.7996 33.7307C75.5669 33.7281 76.1085 33.7256 76.1657 33.7163C76.3936 33.7194 76.6215 33.7225 76.8493 33.7256C77.2273 33.7232 77.6054 33.7208 77.9834 33.7184C77.9424 33.7276 77.9723 33.7271 78.553 33.7207C78.8178 33.723 79.0826 33.7253 79.3474 33.7275C79.4596 33.7237 79.5718 33.7198 79.684 33.7159C79.9133 33.7213 80.1425 33.7266 80.3717 33.732C81.2653 33.726 80.7211 33.7157 80.9393 33.7066ZM85.4913 33.7086C85.2799 33.7066 79.2507 33.7135 81.9908 33.7311C82.7029 33.7305 83.4151 33.7298 84.1272 33.7291C83.5374 33.6999 85.4782 33.7258 85.6376 33.7264C86.4003 33.7291 87.3723 33.7221 87.9256 33.7223C88.4015 33.7226 88.6842 33.7277 89.0189 33.7275C90.1591 33.7269 91.96 33.7264 92.2079 33.7148C91.3216 33.7146 90.4213 33.7146 89.4997 33.715C88.525 33.7154 87.6682 33.7041 85.8372 33.7198C85.3845 33.7182 85.5459 33.7091 85.4913 33.7086ZM87.0332 8.69177C87.0787 8.68658 84.7777 8.68821 84.763 8.69017C84.7584 8.69133 85.5078 8.69122 85.6149 8.69165C85.6156 8.69165 85.6162 8.69165 85.617 8.69165C85.6616 8.69184 85.4352 8.6938 85.7873 8.69432C86.2026 8.69348 86.6179 8.69263 87.0332 8.69177ZM26.899 33.7208C26.5879 33.7118 19.4823 33.7154 19.273 33.7199C19.2161 33.7212 19.2954 33.7253 19.273 33.7276C20.9307 33.7143 23.2873 33.7296 24.8608 33.7304C25.2994 33.7306 25.1683 33.7241 25.1932 33.724C25.1942 33.724 25.1953 33.724 25.1963 33.724C25.4452 33.724 26.5689 33.7395 26.899 33.7208ZM72.9799 33.7177C73.282 33.7197 73.584 33.7217 73.8861 33.7236C73.9628 33.7196 74.0394 33.7157 74.1161 33.7117C74.1154 33.7117 74.1147 33.7117 74.114 33.7117C73.7359 33.7137 73.3579 33.7157 72.9799 33.7177ZM62.514 33.7048C62.5876 33.7078 62.6611 33.7107 62.7346 33.7137C63.4952 33.7141 64.2557 33.7144 65.0163 33.7148C64.9397 33.7164 64.863 33.7181 64.7864 33.7198C65.9364 33.7241 66.4127 33.7137 67.0252 33.7152C67.0245 33.7152 67.0238 33.7152 67.0231 33.7152C67.0891 33.7153 67.1689 33.7214 67.4141 33.7216C67.9763 33.722 69.5878 33.724 69.7825 33.718C70.1946 33.7051 66.9516 33.7114 66.3469 33.7108C66.0736 33.7106 65.7449 33.7053 65.5786 33.7051C65.3965 33.705 65.1484 33.7123 64.7048 33.7121C64.5751 33.712 63.1359 33.7035 62.514 33.7048ZM49.0891 33.7147C49.3237 33.7218 49.8134 33.7148 49.9933 33.716C50.0362 33.7163 49.702 33.7223 50.1072 33.724C50.2218 33.7199 50.3364 33.7159 50.4511 33.7118C49.9971 33.7127 49.5431 33.7137 49.0891 33.7147ZM83.1669 8.69447C83.2331 8.69499 84.4685 8.69472 84.5278 8.69438C85.2679 8.68982 82.7092 8.69062 83.1669 8.69447ZM51.991 8.69938C52.5592 8.70296 45.8169 8.69926 45.1635 8.69956C45.1962 8.69769 46.8001 8.69955 45.96 8.69694C46.7616 8.69835 48.9776 8.69749 49.4991 8.69792C49.8156 8.69819 49.8955 8.70004 49.9434 8.7001C50.131 8.70034 51.7906 8.69813 51.991 8.69938ZM39.5925 8.69844C40.2332 8.69872 40.8739 8.69902 41.5146 8.69934C40.7586 8.69952 40.0025 8.69969 39.2465 8.69985C39.3618 8.69939 39.4771 8.69892 39.5925 8.69844ZM38.7866 8.69915C38.8071 8.70062 36.6322 8.69946 36.0606 8.69978C36.7051 8.69751 37.7801 8.69965 38.7866 8.69915ZM74.9724 8.70391C75.9744 8.7063 76.405 8.69564 75.1866 8.70026C75.1496 8.70041 74.9305 8.70379 74.9724 8.70391ZM80.6299 33.6644C80.4591 33.6642 78.3342 33.6539 78.2113 33.6588C77.8223 33.6743 79.2167 33.6683 79.684 33.6742C80.4378 33.6837 79.3292 33.6914 81.1693 33.6858C81.094 33.6889 81.0187 33.692 80.9435 33.6951C82.0204 33.6961 81.6679 33.6749 81.8612 33.6722C81.9203 33.6714 82.5936 33.6732 82.7151 33.6719C84.2327 33.6552 80.7884 33.6645 80.6299 33.6644ZM99.7766 8.70687C101.771 8.71149 100.913 8.7049 102.96 8.70542C103.029 8.702 100.036 8.70403 99.7766 8.70687ZM100.054 33.679C97.9913 33.6812 96.2947 33.6728 94.3705 33.6836C94.4957 33.7004 100.59 33.6831 100.054 33.679ZM11.9989 24.8772C11.9819 27.6942 11.973 30.6629 11.9683 33.6992L11.9399 33.6708C17.556 33.6792 23.4035 33.6734 28.9508 33.6737C29.8822 33.6737 29.9715 33.6831 30.3085 33.6821C30.5293 33.6814 30.4907 33.674 30.7841 33.6739C41.3893 33.6737 51.544 33.6662 61.7029 33.6717C62.3428 33.6721 65.456 33.6861 66.1211 33.6657C66.6242 33.6503 64.3877 33.6619 64.015 33.6617C63.7349 33.6616 63.723 33.6542 63.5363 33.6541C63.3381 33.654 63.5018 33.6591 63.2718 33.6592C62.2972 33.6593 61.2337 33.6571 60.3525 33.6574C51.7103 33.6598 43.3025 33.6571 34.7058 33.6546C33.6652 33.6543 33.8791 33.6475 33.8267 33.6475C33.826 33.6475 33.8253 33.6475 33.8246 33.6475C28.2453 33.6454 21.8733 33.6602 15.9638 33.653C14.6225 33.6511 13.2812 33.6492 11.9399 33.6472L11.9919 33.6992C11.996 30.8791 12.0002 28.059 12.0045 25.2389C12.0026 25.1183 12.0007 24.9978 11.9989 24.8772ZM85.0355 33.6839C84.5163 33.6639 84.4003 33.684 82.5375 33.6756C82.3859 33.679 82.2343 33.6824 82.0828 33.6859C83.0681 33.6852 84.0534 33.6845 85.0387 33.6839C85.0376 33.6839 85.0366 33.6839 85.0355 33.6839ZM72.7322 33.675C72.4174 33.6462 68.2518 33.6657 66.3762 33.6598C66.0324 33.6747 68.7591 33.6684 69.4021 33.6701C69.7232 33.6709 71.4428 33.6861 72.7499 33.678C72.744 33.677 72.7381 33.676 72.7322 33.675ZM59.0452 8.70998C59.3483 8.70984 59.6514 8.7097 59.9545 8.70955C59.1961 8.70857 58.4375 8.70764 57.6791 8.70674C58.8891 8.70744 60.0991 8.70817 61.3092 8.70895C61.0837 8.71047 60.8583 8.71197 60.6329 8.71345C60.1037 8.71226 59.5744 8.7111 59.0452 8.70998ZM62.9711 8.71005C60.8521 8.71022 63.0641 8.70637 63.593 8.70836C63.9095 8.7096 63.1874 8.71003 62.9711 8.71005ZM68.4825 8.71431C67.4943 8.71718 65.4972 8.7167 66.2071 8.71089C67.2751 8.71398 67.9635 8.71176 69.5121 8.71384C69.286 8.71501 69.0599 8.71616 68.8337 8.7173C68.8327 8.7173 68.8316 8.7173 68.8306 8.7173C68.7146 8.7163 68.5986 8.7153 68.4825 8.71431ZM62.0032 8.71321C60.6153 8.70968 64.6333 8.71173 63.3703 8.7136C63.3111 8.71368 62.0578 8.71335 62.0032 8.71321ZM11.9919 33.6137C11.8247 33.6227 12.8922 33.6229 13.2473 33.6236C14.7866 33.6267 16.7607 33.6234 18.3616 33.6251C18.241 33.6222 18.1205 33.6193 17.9999 33.6163C15.9973 33.6155 13.9946 33.6146 11.9919 33.6137ZM23.3692 33.6267C24.4692 33.6271 25.5691 33.6274 26.669 33.6277C26.7715 33.6278 27.2523 33.6206 26.8948 33.6187C25.7196 33.6213 24.5444 33.624 23.3692 33.6267ZM91.979 33.6477C91.1356 33.6439 93.5641 33.6273 93.4548 33.6459C92.9629 33.6465 92.4709 33.6471 91.979 33.6477ZM99.8266 33.6429C99.2977 33.6444 98.7688 33.6459 98.2399 33.6475C98.2392 33.6454 98.2385 33.6433 98.2378 33.6412C98.7674 33.6418 99.297 33.6423 99.8266 33.6429ZM12.0334 29.4271C12.0221 29.9873 12.0234 31.3238 12.0229 32.1572C12.0325 31.5832 12.0284 30.2149 12.0334 29.4271ZM79.3432 33.6356C79.4116 33.6411 76.0569 33.6386 77.2183 33.6293C77.9266 33.6314 78.6349 33.6336 79.3432 33.6356ZM72.5294 33.6249C73.249 33.624 73.8063 33.6261 73.6582 33.6349C73.2767 33.6343 72.8952 33.6338 72.5137 33.6333C72.519 33.6305 72.5242 33.6277 72.5294 33.6249ZM72.2443 8.72071C73.4568 8.72089 74.6692 8.72105 75.8817 8.72119C75.8368 8.722 75.7918 8.7228 75.7469 8.72361C74.578 8.72343 73.409 8.72323 72.2401 8.72302C72.2415 8.72225 72.2429 8.72148 72.2443 8.72071ZM12.063 28.7414C12.0612 27.9088 12.0595 27.0761 12.0577 26.2434C12.0551 27.0768 12.0526 27.9101 12.05 28.7435C12.0544 28.7435 12.0587 28.7435 12.063 28.7435C12.063 28.7428 12.063 28.7421 12.063 28.7414ZM55.6346 8.72206C59.3386 8.7268 54.6125 8.72678 53.6351 8.72248C53.634 8.72249 53.633 8.72249 53.632 8.72249C53.5464 8.72212 53.7273 8.72065 53.5849 8.71994C53.9619 8.72084 54.3389 8.72175 54.7159 8.72269C55.0597 8.72197 55.4036 8.72123 55.7475 8.72047C55.8607 8.72089 55.974 8.72131 56.0872 8.72174C55.9363 8.72185 55.7855 8.72196 55.6346 8.72206ZM40.6858 8.71521C37.3272 8.7132 40.7637 8.71233 42.4261 8.71536C42.4141 8.71589 40.9952 8.7154 40.6858 8.71521ZM49.4876 8.71934C50.0169 8.7193 50.5461 8.71925 51.0753 8.71919C51.1429 8.71965 51.2105 8.7201 51.2781 8.72056C50.8718 8.72076 50.4656 8.72095 50.0594 8.72113C49.8688 8.72052 49.6782 8.71993 49.4876 8.71934ZM66.8928 8.7378C67.7444 8.73909 68.8308 8.73305 66.0963 8.7331C66.0977 8.7338 66.0991 8.7345 66.1005 8.73519C66.2095 8.73516 66.5293 8.73471 66.5468 8.73477C66.5969 8.73498 66.5378 8.73728 66.8928 8.7378ZM34.4667 8.71937C34.3711 8.71942 34.319 8.72231 33.3242 8.71835C33.0236 8.71827 32.7229 8.71817 32.4222 8.71807C32.3445 8.71739 32.2668 8.71671 32.1891 8.71604C33.3528 8.7175 33.4762 8.71632 33.5605 8.71635C33.9473 8.71653 33.661 8.71698 33.9106 8.71719C34.555 8.71775 36.0193 8.71846 35.3551 8.71999C35.116 8.72051 34.5623 8.71934 34.4667 8.71937ZM36.7421 8.72332C36.601 8.7229 37.0557 8.72235 36.9491 8.72196C36.8557 8.72162 35.4532 8.71941 35.8328 8.71815C36.0631 8.7184 36.2934 8.71865 36.5237 8.7189C36.6017 8.71942 36.6798 8.71994 36.7578 8.72046C36.9808 8.72023 37.2038 8.71999 37.4268 8.71974C37.8025 8.72117 38.6022 8.72347 37.6525 8.72354C38.0016 8.72377 38.3507 8.72399 38.6998 8.72422C38.8807 8.72381 39.0615 8.72338 39.2423 8.72295C39.1475 8.72377 39.0528 8.72458 38.958 8.72538C38.2194 8.72469 37.4808 8.72401 36.7421 8.72332ZM25.9199 8.71262C25.9624 8.71243 26.0049 8.71223 26.0474 8.71202C24.7653 8.71129 22.7686 8.70956 23.9026 8.70932C25.6394 8.71068 27.3762 8.71199 29.113 8.71326C29.2283 8.71358 29.3437 8.7139 29.459 8.71422C28.1633 8.7123 28.5637 8.71611 27.4365 8.71405C27.2464 8.71371 27.7979 8.71309 26.6034 8.71271C26.646 8.713 26.6884 8.71329 26.7309 8.71359C26.4606 8.71326 26.1902 8.71294 25.9199 8.71262ZM14.8979 8.70198C17.0932 8.70415 14.6751 8.70203 14.2698 8.70148C14.2705 8.70148 14.2711 8.70148 14.2718 8.70148C13.1609 8.70016 15.5497 8.70243 15.6954 8.70258C15.8892 8.70279 16.3403 8.70262 17.3939 8.70434C16.5619 8.70355 15.7299 8.70276 14.8979 8.70198ZM22.0651 8.70893C21.8806 8.70878 21.9827 8.70862 21.903 8.70855C21.9024 8.70855 21.9016 8.70855 21.901 8.70855C20.7259 8.70753 17.9309 8.70496 17.6281 8.70424C18.4979 8.70499 22.39 8.70815 22.6253 8.70898C22.4385 8.70897 22.2518 8.70895 22.0651 8.70893ZM30.3338 8.71571C31.0552 8.71738 29.4312 8.71597 29.0054 8.71514C28.925 8.71499 29.5865 8.71405 30.3338 8.71571ZM85.6713 8.77559C87.2586 8.7748 85.1731 8.77032 85.895 8.76729C85.5919 8.76733 85.2887 8.76736 84.9856 8.76739C85.2142 8.7701 85.4427 8.77283 85.6713 8.77559ZM114.843 33.533C114.473 33.5317 114.649 33.5364 114.617 33.5364C114.373 33.536 114.144 33.5321 114.051 33.5324C112.327 33.5379 113.473 33.543 113.491 33.5439C113.527 33.5485 113.074 33.5533 113.702 33.5591C114.083 33.5578 114.464 33.5566 114.845 33.5554C115.035 33.5581 115.224 33.5607 115.413 33.5634C116.17 33.5588 115.179 33.5564 115.067 33.5492C115.024 33.5464 115.736 33.5439 114.843 33.533ZM88.5154 8.78638C88.7727 8.78258 89.4034 8.77796 88.784 8.7732C88.7833 8.7732 88.7826 8.7732 88.7819 8.77319C88.6674 8.77232 88.2009 8.77147 88.0576 8.77028C87.0358 8.77476 87.4272 8.7806 88.5154 8.78638ZM121.68 33.5273C122.295 33.5298 122.909 33.5323 123.524 33.5348C123.513 33.5392 123.503 33.5436 123.493 33.548C123.164 33.5465 122.835 33.5449 122.506 33.5433C122.391 33.5452 122.275 33.5472 122.16 33.5491C122.568 33.5546 122.977 33.5601 123.385 33.5656C123.57 33.5651 123.755 33.5646 123.94 33.5641L123.805 33.6992C123.804 33.3923 123.803 33.0853 123.802 32.7784C123.8 33.0045 123.797 33.2306 123.795 33.4567C123.794 32.2543 123.804 32.5161 123.809 31.521C123.805 31.1802 123.802 30.8395 123.798 30.4987C123.802 30.0054 123.807 29.512 123.811 29.0187C123.81 28.1898 123.807 28.1169 123.802 28.6748C123.798 28.2627 123.806 27.8114 123.805 27.315C123.805 27.274 123.8 27.3512 123.8 27.315C123.799 24.7485 123.811 24.885 123.812 24.4751C123.813 24.1858 123.806 23.031 123.803 23.0128C123.799 22.9906 123.781 25.3923 123.786 21.631C123.773 23.5757 123.781 25.7865 123.798 24.357C123.796 24.9724 123.796 27.6865 123.796 27.8595C123.795 28.1118 123.789 28.0233 123.788 28.3393C123.788 28.526 123.801 29.0208 123.788 30.4987C123.79 30.6876 123.792 30.8764 123.794 31.0652C123.792 31.2422 123.79 31.4192 123.788 31.5962C123.781 31.2318 123.775 30.8673 123.769 30.5029C123.774 31.7764 123.762 32.8584 123.767 33.6992L123.94 33.526C123.828 33.5266 123.72 33.5275 123.616 33.5288C122.856 33.5265 122.487 33.5246 122.813 33.519C122.585 33.5187 122.357 33.5184 122.129 33.5181C121.979 33.5212 121.83 33.5242 121.68 33.5273ZM93.1792 8.78544C93.9345 8.79034 94.2061 8.78179 94.0885 8.78116C93.4261 8.77777 92.7861 8.78293 93.1792 8.78544ZM116.215 33.5428C117.048 33.5477 117.881 33.5526 118.715 33.5574C118.715 33.5525 118.715 33.5477 118.715 33.5428C117.881 33.5428 117.048 33.5428 116.215 33.5428ZM85.4393 8.78098C85.3626 8.77902 85.286 8.77706 85.2093 8.77511C84.2965 8.78093 83.3901 8.77029 82.9391 8.77184C82.8412 8.77217 83.0388 8.77557 83.2255 8.77647C83.3416 8.77701 85.2776 8.78142 85.4393 8.78098ZM47.4379 8.73827C47.778 8.73804 48.118 8.73778 48.4581 8.73751C48.4392 8.73854 48.4205 8.73957 48.4016 8.7406C48.2337 8.7406 48.0658 8.7406 47.8978 8.7406C47.7445 8.73982 47.5912 8.73904 47.4379 8.73827ZM51.3074 8.74073C51.914 8.74146 52.5205 8.7422 53.1271 8.74293C50.8135 8.74153 52.7123 8.7441 51.3074 8.74402C51.3074 8.74292 51.3074 8.74183 51.3074 8.74073ZM57.447 8.74985C57.3725 8.75055 57.2979 8.75124 57.2234 8.75193C56.6168 8.75123 56.0102 8.75052 55.4036 8.74981C55.7872 8.75285 56.1708 8.75595 56.5544 8.75912C56.7767 8.75943 56.999 8.75973 57.2213 8.76004C57.2965 8.75666 57.3718 8.75326 57.447 8.74985ZM98.4584 33.4935C98.0917 33.4929 96.816 33.4998 96.8707 33.503C97.4006 33.5075 97.9305 33.512 98.4604 33.5164C98.4629 33.5108 98.4653 33.5053 98.4678 33.4997C98.5427 33.5026 98.6176 33.5054 98.6925 33.5083C98.9938 33.5066 99.2952 33.5049 99.5966 33.5032C99.7485 33.5082 99.9004 33.5132 100.052 33.5181C100.205 33.5128 100.358 33.5075 100.51 33.5022C99.055 33.4907 99.1051 33.5005 98.8022 33.5C98.6486 33.4998 98.5515 33.4963 98.497 33.4945C98.4841 33.4941 98.4712 33.4938 98.4584 33.4935ZM116.791 33.5121C115.053 33.5085 114.06 33.5205 112.803 33.5078C113.609 33.5324 118.815 33.5148 120.651 33.536C120.841 33.5326 121.032 33.5292 121.222 33.5259C120.223 33.5278 119.53 33.5195 119.043 33.5178C118.656 33.5165 118.696 33.5204 118.667 33.5203C118.665 33.5203 118.664 33.5203 118.663 33.5203C117.756 33.5175 117.476 33.5135 116.791 33.5121ZM84.1484 8.78861C84.6153 8.79213 85.4322 8.7929 85.4414 8.78855C84.9867 8.78673 84.532 8.78494 84.0773 8.78318C84.1707 8.78438 84.0687 8.78802 84.1484 8.78861ZM58.1526 8.75828C58.5169 8.75965 59.3777 8.75996 59.0065 8.75708C58.9398 8.75657 58.0824 8.7572 58.5853 8.75351C57.7499 8.75261 57.9454 8.7575 58.1526 8.75828ZM123.805 11.1579C123.805 10.8513 123.806 10.5447 123.806 10.2381C123.803 10.1666 123.8 10.0952 123.798 10.0238C123.8 10.4018 123.803 10.7798 123.805 11.1579ZM80.2079 8.78653C79.8003 8.77807 79.104 8.78489 78.339 8.77755C78.0565 8.77716 77.7739 8.77678 77.4914 8.7764C77.4907 8.7764 77.49 8.7764 77.4893 8.7764C77.4816 8.77848 77.4739 8.78057 77.4663 8.78265C78.3801 8.78394 79.294 8.78523 80.2079 8.78653ZM123.775 30.2751C123.777 30.0862 123.779 29.8974 123.782 29.7085C123.78 29.3723 123.778 29.0361 123.776 28.6999C123.774 28.8818 123.772 29.0636 123.77 29.2455C123.772 29.5887 123.773 29.9319 123.775 30.2751ZM75.241 8.78082C76.2293 8.78305 76.601 8.77693 75.3371 8.7754C74.8043 8.77478 74.2055 8.77852 75.241 8.78082ZM79.5774 33.4765C79.916 33.4785 80.2547 33.4804 80.5933 33.4824C80.7087 33.4787 80.824 33.475 80.9393 33.4713C80.4853 33.473 80.0313 33.4747 79.5774 33.4765ZM53.4658 8.75181C53.5055 8.75097 53.5452 8.75013 53.5849 8.74929C53.887 8.74983 54.1891 8.75038 54.4911 8.75093C54.4152 8.75174 54.3392 8.75255 54.2633 8.75335C53.9974 8.75283 53.7316 8.75232 53.4658 8.75181ZM81.856 33.4816C82.1267 33.4827 82.3974 33.4837 82.6681 33.4848C82.85 33.4832 83.0319 33.4815 83.2137 33.4799C82.9604 33.4778 82.7071 33.4756 82.4538 33.4734C82.2546 33.4762 82.0552 33.4789 81.856 33.4816ZM65.8726 8.76821C66.2529 8.77012 67.7719 8.7676 66.4036 8.76481C65.5317 8.76307 65.8155 8.76792 65.8726 8.76821ZM63.8229 8.76692C65.2713 8.77133 64.1853 8.75703 62.4568 8.76319C64.1968 8.76425 63.7378 8.76666 63.8229 8.76692ZM51.0868 8.75532C51.0504 8.75526 51.0204 8.75382 50.7294 8.75337C49.6818 8.75172 48.299 8.74929 47.5498 8.74818C45.7486 8.74564 40.2315 8.73975 39.5862 8.73601C39.4519 8.73524 39.761 8.73384 39.7064 8.73367C39.5461 8.73322 38.6232 8.73293 38.7939 8.73185C39.6994 8.73296 40.6049 8.73408 41.5105 8.73519C41.2882 8.73592 41.0659 8.73662 40.8436 8.7373C43.0999 8.73973 42.353 8.73882 43.002 8.73737C43.3839 8.73872 43.7657 8.74011 44.1476 8.74152C44.9789 8.7417 45.8102 8.7418 46.6415 8.74182C46.453 8.74233 46.2645 8.74283 46.076 8.74331C47.3285 8.7463 46.9805 8.74499 47.6658 8.74401C47.6672 8.74477 47.6686 8.74553 47.67 8.74629C48.8792 8.746 49.1148 8.74863 49.3789 8.74902C49.9208 8.74993 50.6116 8.74072 52.6787 8.75341C53.5503 8.74958 53.5305 8.75974 54.0427 8.75523C55.5179 8.76303 52.7123 8.75697 51.3847 8.75493C51.384 8.75493 51.3833 8.75493 51.3826 8.75493C51.2825 8.75477 51.4415 8.7559 51.0868 8.75532ZM58.6647 8.76034C57.7717 8.76426 61.2999 8.76973 60.1322 8.7604C59.9584 8.75992 59.7845 8.75946 59.6107 8.75899C59.2946 8.75946 58.9786 8.75991 58.6626 8.76034C58.6633 8.76034 58.664 8.76034 58.6647 8.76034ZM91.8151 8.80958C95.083 8.81038 93.225 8.80264 92.1183 8.80623C91.8974 8.80693 91.7764 8.80811 91.8151 8.80958ZM114.308 33.4964C114.26 33.4983 114.213 33.5002 114.165 33.502C115.261 33.5017 117.38 33.5119 117.351 33.499C116.337 33.4981 115.322 33.4973 114.308 33.4964ZM122.977 33.5003C122.742 33.4992 121.78 33.496 121.897 33.5009C122.313 33.5048 122.73 33.5086 123.147 33.5125C123.341 33.5107 123.535 33.5089 123.729 33.5072C123.458 33.5061 123.041 33.5006 122.977 33.5003Z" fill="#DCCEBD"/>
<path d="M8.65994 33.6992C8.55327 33.6992 8.49994 33.6192 8.49994 33.4592C8.49994 33.2992 8.55327 33.2192 8.65994 33.2192C9.45994 33.2192 10.0866 33.1526 10.5399 33.0192C10.9933 32.8592 11.3266 32.5792 11.5399 32.1792C11.7533 31.7792 11.9266 31.2059 12.0599 30.4592L15.3399 11.9392C15.4733 11.1659 15.5133 10.5926 15.4599 10.2192C15.4066 9.81922 15.1933 9.55255 14.8199 9.41922C14.4733 9.25922 13.8999 9.17922 13.0999 9.17922C12.9933 9.17922 12.9399 9.09922 12.9399 8.93922C12.9399 8.77922 12.9933 8.69922 13.0999 8.69922C13.6866 8.69922 14.3533 8.72589 15.0999 8.77922C15.8733 8.80588 16.6866 8.81922 17.5399 8.81922C18.1533 8.81922 18.8866 8.77922 19.7399 8.69922C20.5933 8.61922 21.2866 8.57922 21.8199 8.57922C24.1399 8.57922 25.8066 9.03255 26.8199 9.93922C27.8333 10.8192 28.1666 12.0326 27.8199 13.5792C27.5799 14.8859 26.9533 16.1126 25.9399 17.2592C24.9533 18.4059 23.7533 19.3259 22.3399 20.0192C20.9266 20.6859 19.4466 21.0192 17.8999 21.0192C17.7666 21.0192 17.6199 21.0192 17.4599 21.0192C17.3266 20.9926 17.2199 20.9659 17.1399 20.9392L15.4199 30.4592C15.2866 31.2059 15.2466 31.7792 15.2999 32.1792C15.3533 32.5792 15.5533 32.8592 15.8999 33.0192C16.2733 33.1526 16.8466 33.2192 17.6199 33.2192C17.7266 33.2192 17.7799 33.2992 17.7799 33.4592C17.7799 33.6192 17.7399 33.6992 17.6599 33.6992C17.0466 33.6992 16.3666 33.6859 15.6199 33.6592C14.8733 33.6326 14.0599 33.6192 13.1799 33.6192C12.3533 33.6192 11.5399 33.6326 10.7399 33.6592C9.93994 33.6859 9.24661 33.6992 8.65994 33.6992ZM26.6199 33.6992C26.2466 33.6992 25.7399 33.2326 25.0999 32.2992C24.4599 31.3659 23.7133 29.9126 22.8599 27.9392C22.0333 25.9659 21.1266 23.4459 20.1399 20.3792L22.8999 19.4192C24.2599 22.8326 25.4466 25.5526 26.4599 27.5792C27.4733 29.6059 28.4199 31.0592 29.2999 31.9392C30.2066 32.7926 31.1266 33.2192 32.0599 33.2192C32.1399 33.2192 32.1799 33.2992 32.1799 33.4592C32.1799 33.6192 32.1399 33.6992 32.0599 33.6992C30.6199 33.6992 29.4599 33.6992 28.5799 33.6992C27.6999 33.6992 27.0466 33.6992 26.6199 33.6992ZM18.6599 20.0192C20.2866 20.0192 21.5266 19.6326 22.3799 18.8592C23.2599 18.0592 23.8333 16.7526 24.0999 14.9392C24.4199 12.8592 24.2733 11.4059 23.6599 10.5792C23.0466 9.75255 22.2466 9.33922 21.2599 9.33922C20.6733 9.33922 20.2199 9.37922 19.8999 9.45922C19.6066 9.53922 19.3666 9.76588 19.1799 10.1392C19.0199 10.5126 18.8599 11.1392 18.6999 12.0192L17.2999 19.8992C17.5133 19.9259 17.7399 19.9526 17.9799 19.9792C18.2199 20.0059 18.4466 20.0192 18.6599 20.0192ZM38.674 34.1792C37.1807 34.1792 36.0073 33.8059 35.154 33.0592C34.3007 32.2859 33.7407 31.2992 33.474 30.0992C33.234 28.8992 33.2473 27.6326 33.514 26.2992C33.7007 25.2859 34.074 24.2726 34.634 23.2592C35.194 22.2192 35.8873 21.2859 36.714 20.4592C37.5673 19.6326 38.5273 18.9792 39.594 18.4992C40.6607 17.9926 41.8073 17.7392 43.034 17.7392C44.074 17.7392 44.8473 17.9259 45.354 18.2992C45.8873 18.6726 46.114 19.2059 46.034 19.8992C45.954 20.5659 45.594 21.2192 44.954 21.8592C44.3407 22.4726 43.514 23.0326 42.474 23.5392C41.4607 24.0192 40.3273 24.4326 39.074 24.7792C37.8207 25.1259 36.5273 25.3792 35.194 25.5392L35.274 25.0192C37.2207 24.7259 38.8473 24.2459 40.154 23.5792C41.4873 22.8859 42.2607 21.9392 42.474 20.7392C42.6073 20.0992 42.5273 19.6192 42.234 19.2992C41.9407 18.9792 41.5407 18.8192 41.034 18.8192C40.3407 18.8192 39.714 19.0992 39.154 19.6592C38.594 20.1926 38.114 20.9259 37.714 21.8592C37.3407 22.7926 37.0607 23.8326 36.874 24.9792C36.634 26.3926 36.6073 27.6726 36.794 28.8192C37.0073 29.9392 37.4473 30.8459 38.114 31.5392C38.7807 32.2059 39.6607 32.5392 40.754 32.5392C41.314 32.5392 41.9273 32.4459 42.594 32.2592C43.2607 32.0726 43.9007 31.7526 44.514 31.2992C44.5673 31.2459 44.634 31.2726 44.714 31.3792C44.8207 31.4859 44.8473 31.5659 44.794 31.6192C43.7807 32.5526 42.754 33.2192 41.714 33.6192C40.674 33.9926 39.6607 34.1792 38.674 34.1792ZM53.9365 34.2192C53.0832 34.2192 52.3365 33.9792 51.6965 33.4992C51.0832 33.0192 50.6165 32.4059 50.2965 31.6592C50.0032 30.8859 49.8965 30.0592 49.9765 29.1792C50.0832 28.0592 50.4565 26.8992 51.0965 25.6992C51.7365 24.4992 52.3365 23.2726 52.8965 22.0192C53.0832 21.6459 53.1632 21.3792 53.1365 21.2192C53.1365 21.0326 52.9898 20.9392 52.6965 20.9392H50.7365C50.0698 20.9392 49.5498 21.0059 49.1765 21.1392C48.8032 21.2459 48.5098 21.4326 48.2965 21.6992C48.0832 21.9659 47.8965 22.3259 47.7365 22.7792C47.6832 22.8859 47.5765 22.9259 47.4165 22.8992C47.2565 22.8726 47.2032 22.7926 47.2565 22.6592C47.6565 21.5126 48.0165 20.6192 48.3365 19.9792C48.6565 19.3392 49.0432 18.8859 49.4965 18.6192C49.9765 18.3526 50.6032 18.2192 51.3765 18.2192H55.0565C55.2698 18.2192 55.4032 18.2459 55.4565 18.2992C55.5098 18.3526 55.4832 18.4859 55.3765 18.6992C54.8432 19.9792 54.3098 21.3526 53.7765 22.8192C53.2698 24.2592 52.9365 25.5126 52.7765 26.5792C52.5632 28.1259 52.7232 29.3392 53.2565 30.2192C53.8165 31.0992 54.6032 31.5392 55.6165 31.5392C56.3898 31.5392 57.1365 31.2992 57.8565 30.8192C58.6032 30.3392 59.2565 29.6726 59.8165 28.8192C60.3765 27.9659 60.7632 26.9526 60.9765 25.7792C61.1365 24.9526 61.1632 24.2859 61.0565 23.7792C60.9765 23.2459 60.8165 22.8059 60.5765 22.4592C60.3632 22.1126 60.1098 21.7792 59.8165 21.4592C59.5765 21.2192 59.3498 20.9526 59.1365 20.6592C58.9232 20.3659 58.8165 20.0192 58.8165 19.6192C58.8165 18.9792 59.0165 18.5259 59.4165 18.2592C59.8165 17.9926 60.2698 17.8592 60.7765 17.8592C61.3632 17.8592 61.8165 18.0592 62.1365 18.4592C62.4565 18.8326 62.6565 19.4192 62.7365 20.2192C62.8432 21.0192 62.8298 22.0326 62.6965 23.2592C62.5098 24.7792 62.1232 26.2192 61.5365 27.5792C60.9765 28.9126 60.2698 30.0726 59.4165 31.0592C58.5632 32.0459 57.6565 32.8192 56.6965 33.3792C55.7632 33.9392 54.8432 34.2192 53.9365 34.2192ZM68.3918 34.0592C67.5918 34.0592 67.0718 33.7526 66.8318 33.1392C66.5918 32.4992 66.6051 31.4992 66.8718 30.1392L68.5118 21.8192C68.7785 20.4326 68.5651 19.7392 67.8718 19.7392C67.6051 19.7392 67.2585 19.8859 66.8318 20.1792C66.4051 20.4459 65.9385 20.8592 65.4318 21.4192C65.3251 21.5259 65.2185 21.5259 65.1118 21.4192C65.0051 21.2859 64.9918 21.1659 65.0718 21.0592C66.0318 19.9392 66.8851 19.1392 67.6318 18.6592C68.4051 18.1526 69.1518 17.8992 69.8718 17.8992C70.6718 17.8992 71.1918 18.1926 71.4318 18.7792C71.6718 19.3659 71.6718 20.2592 71.4318 21.4592L69.7518 30.1392C69.6185 30.9126 69.6185 31.4459 69.7518 31.7392C69.8852 32.0326 70.0852 32.1792 70.3518 32.1792C70.6452 32.1792 70.9785 32.0459 71.3518 31.7792C71.7518 31.4859 72.1918 31.1126 72.6718 30.6592C72.7785 30.5526 72.8852 30.5526 72.9918 30.6592C73.0985 30.7659 73.0985 30.8726 72.9918 30.9792C72.1385 31.9659 71.3518 32.7259 70.6318 33.2592C69.9118 33.7926 69.1652 34.0592 68.3918 34.0592ZM71.0318 13.5392C70.3918 13.5392 69.8718 13.3659 69.4718 13.0192C69.0985 12.6459 68.9118 12.1126 68.9118 11.4192C68.9118 10.8326 69.0985 10.3659 69.4718 10.0192C69.8718 9.64589 70.3918 9.45922 71.0318 9.45922C71.6718 9.45922 72.1652 9.64589 72.5118 10.0192C72.8585 10.3659 73.0318 10.8326 73.0318 11.4192C73.0318 12.8326 72.3651 13.5392 71.0318 13.5392ZM80.3146 34.1792C78.8213 34.1792 77.648 33.8059 76.7946 33.0592C75.9413 32.2859 75.3813 31.2992 75.1146 30.0992C74.8746 28.8992 74.888 27.6326 75.1546 26.2992C75.3413 25.2859 75.7146 24.2726 76.2746 23.2592C76.8346 22.2192 77.528 21.2859 78.3546 20.4592C79.208 19.6326 80.168 18.9792 81.2346 18.4992C82.3013 17.9926 83.448 17.7392 84.6746 17.7392C85.7146 17.7392 86.488 17.9259 86.9946 18.2992C87.528 18.6726 87.7546 19.2059 87.6746 19.8992C87.5946 20.5659 87.2346 21.2192 86.5946 21.8592C85.9813 22.4726 85.1546 23.0326 84.1146 23.5392C83.1013 24.0192 81.968 24.4326 80.7146 24.7792C79.4613 25.1259 78.168 25.3792 76.8346 25.5392L76.9146 25.0192C78.8613 24.7259 80.488 24.2459 81.7946 23.5792C83.128 22.8859 83.9013 21.9392 84.1146 20.7392C84.248 20.0992 84.168 19.6192 83.8746 19.2992C83.5813 18.9792 83.1813 18.8192 82.6746 18.8192C81.9813 18.8192 81.3546 19.0992 80.7946 19.6592C80.2346 20.1926 79.7546 20.9259 79.3546 21.8592C78.9813 22.7926 78.7013 23.8326 78.5146 24.9792C78.2746 26.3926 78.248 27.6726 78.4346 28.8192C78.648 29.9392 79.088 30.8459 79.7546 31.5392C80.4213 32.2059 81.3013 32.5392 82.3946 32.5392C82.9546 32.5392 83.568 32.4459 84.2346 32.2592C84.9013 32.0726 85.5413 31.7526 86.1546 31.2992C86.208 31.2459 86.2746 31.2726 86.3546 31.3792C86.4613 31.4859 86.488 31.5659 86.4346 31.6192C85.4213 32.5526 84.3946 33.2192 83.3546 33.6192C82.3146 33.9926 81.3013 34.1792 80.3146 34.1792ZM95.5771 34.2192C94.6438 34.2192 93.8838 33.9792 93.2971 33.4992C92.7105 32.9926 92.2971 32.3126 92.0571 31.4592C91.8438 30.5792 91.8171 29.5926 91.9771 28.4992C92.1638 27.4592 92.4971 26.3792 92.9771 25.2592C93.4571 24.1126 93.9771 23.0326 94.5371 22.0192C94.7505 21.6459 94.8438 21.3792 94.8171 21.2192C94.7905 21.0326 94.6305 20.9392 94.3371 20.9392H92.3771C91.7105 20.9392 91.1905 21.0059 90.8171 21.1392C90.4438 21.2459 90.1505 21.4326 89.9371 21.6992C89.7238 21.9659 89.5371 22.3259 89.3771 22.7792C89.3238 22.8859 89.2171 22.9259 89.0571 22.8992C88.8971 22.8726 88.8438 22.7926 88.8971 22.6592C89.2971 21.5126 89.6571 20.6192 89.9771 19.9792C90.2971 19.3392 90.6838 18.8859 91.1371 18.6192C91.6171 18.3526 92.2438 18.2192 93.0171 18.2192H96.6971C96.9105 18.2192 97.0438 18.2459 97.0971 18.2992C97.1505 18.3526 97.1238 18.4859 97.0171 18.6992C96.4838 19.9792 95.9638 21.3526 95.4571 22.8192C94.9505 24.2592 94.6171 25.5126 94.4571 26.5792C94.2438 28.1259 94.4038 29.3526 94.9371 30.2592C95.4705 31.1392 96.2438 31.5792 97.2571 31.5792C97.9238 31.5792 98.5771 31.3392 99.2171 30.8592C99.8571 30.3792 100.457 29.7526 101.017 28.9792C101.577 28.2059 102.044 27.3526 102.417 26.4192C102.817 25.4859 103.084 24.5659 103.217 23.6592C103.35 22.8059 103.31 22.1926 103.097 21.8192C102.91 21.4192 102.604 21.2192 102.177 21.2192C101.804 21.2192 101.484 21.3926 101.217 21.7392C100.977 22.0592 100.804 22.5526 100.697 23.2192C100.537 24.1259 100.51 25.0726 100.617 26.0592C100.724 27.0192 100.964 27.9259 101.337 28.7792C101.737 29.6059 102.257 30.2859 102.897 30.8192C103.564 31.3259 104.337 31.5792 105.217 31.5792C105.884 31.5792 106.537 31.3392 107.177 30.8592C107.844 30.3792 108.417 29.7126 108.897 28.8592C109.404 27.9792 109.724 26.9526 109.857 25.7792C109.99 24.9792 110.004 24.3259 109.897 23.8192C109.817 23.3126 109.657 22.8726 109.417 22.4992C109.204 22.1259 108.937 21.7659 108.617 21.4192C108.377 21.1526 108.164 20.8859 107.977 20.6192C107.79 20.3259 107.697 19.9926 107.697 19.6192C107.697 18.9792 107.897 18.5259 108.297 18.2592C108.724 17.9926 109.19 17.8592 109.697 17.8592C110.257 17.8592 110.697 18.0592 111.017 18.4592C111.337 18.8326 111.55 19.4192 111.657 20.2192C111.764 21.0192 111.75 22.0326 111.617 23.2592C111.457 24.7792 111.097 26.2192 110.537 27.5792C110.004 28.9126 109.35 30.0726 108.577 31.0592C107.83 32.0459 107.017 32.8192 106.137 33.3792C105.257 33.9392 104.404 34.2192 103.577 34.2192C102.75 34.2192 102.03 33.9526 101.417 33.4192C100.83 32.8592 100.364 32.1126 100.017 31.1792C99.6971 30.2192 99.5105 29.1126 99.4571 27.8592C99.4038 26.5792 99.5105 25.2059 99.7771 23.7392C99.9905 22.4859 100.257 21.4326 100.577 20.5792C100.897 19.7259 101.27 19.0859 101.697 18.6592C102.15 18.2326 102.617 18.0192 103.097 18.0192C103.79 18.0192 104.257 18.3792 104.497 19.0992C104.737 19.7926 104.75 20.7792 104.537 22.0592C104.297 23.7392 103.87 25.3126 103.257 26.7792C102.644 28.2192 101.91 29.5126 101.057 30.6592C100.23 31.7792 99.3371 32.6592 98.3771 33.2992C97.4438 33.9126 96.5105 34.2192 95.5771 34.2192ZM117.297 34.1392C116.15 34.1392 115.177 33.8726 114.377 33.3392C113.577 32.8059 113.23 32.1526 113.337 31.3792C113.417 30.9259 113.604 30.5792 113.897 30.3392C114.217 30.0726 114.564 29.9392 114.937 29.9392C115.39 29.9392 115.737 30.0992 115.977 30.4192C116.244 30.7126 116.484 31.0592 116.697 31.4592C116.937 31.8326 117.217 32.1792 117.537 32.4992C117.884 32.7926 118.35 32.9392 118.937 32.9392C119.497 32.9392 119.924 32.7926 120.217 32.4992C120.51 32.1792 120.71 31.6992 120.817 31.0592C120.924 30.2059 120.79 29.4859 120.417 28.8992C120.044 28.2859 119.537 27.7392 118.897 27.2592C118.284 26.7792 117.684 26.2859 117.097 25.7792C116.51 25.2726 116.044 24.7126 115.697 24.0992C115.35 23.4592 115.257 22.7126 115.417 21.8592C115.55 21.1392 115.884 20.4859 116.417 19.8992C116.95 19.2859 117.63 18.7926 118.457 18.4192C119.284 18.0459 120.177 17.8592 121.137 17.8592C122.284 17.8592 123.204 18.0726 123.897 18.4992C124.59 18.8992 124.897 19.4326 124.817 20.0992C124.764 20.5792 124.564 20.9526 124.217 21.2192C123.897 21.4592 123.564 21.5792 123.217 21.5792C122.684 21.5792 122.284 21.4459 122.017 21.1792C121.777 20.9126 121.577 20.6059 121.417 20.2592C121.257 19.8859 121.044 19.5659 120.777 19.2992C120.537 19.0326 120.124 18.8992 119.537 18.8992C119.03 18.8992 118.644 19.0326 118.377 19.2992C118.11 19.5659 117.937 19.8859 117.857 20.2592C117.724 21.0326 117.844 21.7126 118.217 22.2992C118.59 22.8859 119.084 23.4326 119.697 23.9392C120.337 24.4192 120.95 24.9259 121.537 25.4592C122.15 25.9926 122.63 26.5792 122.977 27.2192C123.35 27.8592 123.47 28.6059 123.337 29.4592C123.204 30.1526 122.857 30.8726 122.297 31.6192C121.764 32.3392 121.07 32.9392 120.217 33.4192C119.364 33.8992 118.39 34.1392 117.297 34.1392Z" fill="#DCCEBD"/>
</g>
<defs>
<filter id="filter0_dii_12_8313" x="0" y="0" width="135.437" height="44.7192" filterUnits="userSpaceOnUse" color-interpolation-filters="sRGB">
<feFlood flood-opacity="0" result="BackgroundImageFix"/>
<feColorMatrix in="SourceAlpha" type="matrix" values="0 0 0 0 0 0 0 0 0 0 0 0 0 0 0 0 0 0 127 0" result="hardAlpha"/>
<feOffset dx="1" dy="1"/>
<feGaussianBlur stdDeviation="4.75"/>
<feColorMatrix type="matrix" values="0 0 0 0 0 0 0 0 0 0 0 0 0 0 0 0 0 0 0.5 0"/>
<feBlend mode="normal" in2="BackgroundImageFix" result="effect1_dropShadow_12_8313"/>
<feBlend mode="normal" in="SourceGraphic" in2="effect1_dropShadow_12_8313" result="shape"/>
<feColorMatrix in="SourceAlpha" type="matrix" values="0 0 0 0 0 0 0 0 0 0 0 0 0 0 0 0 0 0 127 0" result="hardAlpha"/>
<feOffset dx="-0.5" dy="-0.5"/>
<feComposite in2="hardAlpha" operator="arithmetic" k2="-1" k3="1"/>
<feColorMatrix type="matrix" values="0 0 0 0 0.0862745 0 0 0 0 0.0862745 0 0 0 0 0.0862745 0 0 0 1 0"/>
<feBlend mode="normal" in2="shape" result="effect2_innerShadow_12_8313"/>
<feColorMatrix in="SourceAlpha" type="matrix" values="0 0 0 0 0 0 0 0 0 0 0 0 0 0 0 0 0 0 127 0" result="hardAlpha"/>
<feOffset dx="0.75" dy="0.75"/>
<feComposite in2="hardAlpha" operator="arithmetic" k2="-1" k3="1"/>
<feColorMatrix type="matrix" values="0 0 0 0 1 0 0 0 0 0.909804 0 0 0 0 0.811765 0 0 0 1 0"/>
<feBlend mode="normal" in2="effect2_innerShadow_12_8313" result="effect3_innerShadow_12_8313"/>
</filter>
</defs>
</svg>
