<svg width="98" height="49" viewBox="0 0 98 49" fill="none" xmlns="http://www.w3.org/2000/svg">
<g filter="url(#filter0_dii_90_3309)">
<path d="M9.39522 17.0729C9.46999 21.2567 9.37266 24.1125 9.35124 27.9936C9.33439 30.9374 9.32405 34.2044 9.31652 37.58L8.94263 37.2061C15.364 37.2202 22.1779 37.225 27.9055 37.2389C34.5195 37.2547 41.2402 37.2739 47.8144 37.2912C48.1515 37.2921 48.3527 37.2991 48.5056 37.2994C49.945 37.3032 52.3588 37.3024 53.7867 37.3063C56.7903 37.3143 62.0166 37.3244 64.7677 37.3354C65.9359 37.3401 67.1342 37.3435 67.5883 37.3576C68.0151 37.3591 68.2481 37.3476 68.3596 37.3472C68.3609 37.3472 68.3621 37.3472 68.3634 37.3472C68.7224 37.346 69.629 37.3561 69.829 37.3559C69.8589 37.3559 69.6748 37.347 70.1601 37.3506C70.2033 37.3509 70.1634 37.3566 70.5721 37.3575C70.6785 37.3577 72.0453 37.3516 72.436 37.3519C73.7359 37.3529 76.8403 37.3659 78.3945 37.3688C78.6322 37.3693 78.7691 37.3664 79.0201 37.3669C79.1498 37.3671 79.3442 37.3709 79.3841 37.371C79.5589 37.3712 80.3228 37.3575 80.0486 37.387C80.8461 37.3865 80.6111 37.3763 80.6292 37.3699C81.4949 37.3708 81.9122 37.3854 82.1383 37.3712C82.7397 37.3727 83.3412 37.3742 83.9426 37.3757L83.7383 37.58C83.7473 33.924 83.7561 30.2679 83.7647 26.6119C83.7626 26.6107 83.7605 26.6094 83.7585 26.6081C83.7693 25.3533 83.7563 24.9228 83.7696 24.2064C83.7679 23.7646 83.7662 23.3229 83.7646 22.8812C83.7741 19.4443 83.7818 16.0099 83.7889 12.58L83.9426 12.7337C76.0425 12.7178 68.1664 12.7048 60.3396 12.6881C59.8658 12.6871 59.7475 12.6843 58.9663 12.6827C58.1037 12.6809 56.8904 12.6812 55.7535 12.6788C54.7563 12.6766 53.2851 12.6714 52.1731 12.6688C51.9221 12.6683 51.7405 12.6692 51.7122 12.6692C51.5461 12.6688 51.5377 12.6666 51.3766 12.6662C51.1837 12.6658 50.9508 12.6669 50.7281 12.6663C49.8957 12.6642 48.9887 12.6629 48.8833 12.6626C48.3756 12.6614 48.2636 12.6592 48.2218 12.6591C47.6571 12.6578 47.8688 12.6599 47.7282 12.6595C46.9985 12.6575 46.4826 12.6524 45.4836 12.6543C45.5108 12.6528 45.538 12.6514 45.5652 12.6499C44.8007 12.6476 45.3057 12.6525 45.1494 12.6529C45.0857 12.6531 43.44 12.6493 43.313 12.649C42.871 12.6478 42.8592 12.646 42.821 12.6459C42.7279 12.6457 41.6158 12.6455 41.0456 12.6428C40.371 12.6397 41.165 12.6377 40.9975 12.6367C40.9693 12.6365 40.263 12.6356 40.1682 12.6344C40.0635 12.6331 40.6743 12.6341 40.6649 12.6336C40.6582 12.6332 39.6442 12.6292 39.8386 12.6279C39.9949 12.6265 41.3706 12.6307 41.662 12.6304C41.7102 12.6303 41.6194 12.6281 41.662 12.6281C41.8332 12.6281 45.0029 12.6326 45.1479 12.6332C44.9829 12.634 44.8178 12.6348 44.6528 12.6356C44.8722 12.6361 45.0917 12.6365 45.3112 12.637C44.9991 12.6373 44.6871 12.6377 44.3751 12.638C44.8388 12.6474 46.2355 12.6411 46.2931 12.6365C46.318 12.6345 45.4642 12.6281 46.2588 12.626C46.138 12.6253 46.0172 12.6246 45.8964 12.624C45.6474 12.6245 45.3984 12.6251 45.1494 12.6256C45.3153 12.6264 45.4811 12.6271 45.6469 12.6279C45.5858 12.6284 45.5248 12.6289 45.4638 12.6295C44.9984 12.6298 44.533 12.6301 44.0676 12.6304C43.8283 12.6296 43.878 12.628 43.7136 12.6274C41.6624 12.6205 43.0004 12.6275 41.6575 12.6249C41.4657 12.6238 41.274 12.6227 41.0822 12.6216C41.1498 12.6252 40.5551 12.6222 39.8356 12.6227C39.9215 12.6217 40.0075 12.6207 40.0934 12.6197C39.0512 12.6189 36.9385 12.6112 37.5086 12.6175C37.2698 12.6167 37.031 12.6159 36.7922 12.6151C36.5905 12.6158 36.3889 12.6164 36.1872 12.617C35.9085 12.6165 35.6297 12.616 35.351 12.6156C35.3497 12.6151 35.3485 12.6146 35.3472 12.6142C35.5695 12.6145 35.7917 12.6147 36.014 12.615C35.8472 12.6134 35.6803 12.6118 35.5135 12.6102C35.3495 12.6102 35.1855 12.6103 35.0214 12.6103C35.7095 12.6124 34.8023 12.6135 34.5827 12.6149C34.0027 12.6148 33.6321 12.612 33.4376 12.6117C33.3461 12.6116 32.2692 12.6139 32.6914 12.6103C32.1373 12.6101 31.5831 12.6099 31.029 12.6096C30.8123 12.609 30.5956 12.6084 30.3789 12.6079C30.8492 12.6067 29.4864 12.603 30.4903 12.6034C31.24 12.6037 31.4247 12.6056 31.7805 12.606C32.1011 12.6063 32.2707 12.6053 32.6197 12.6056C34.9668 12.6078 36.8787 12.6101 39.1077 12.6132C39.5481 12.6138 39.9487 12.6135 40.2445 12.6139C40.5785 12.6144 40.1601 12.616 40.5855 12.616C41.0324 12.616 41.129 12.6144 41.247 12.6144C41.3204 12.6145 41.5531 12.6163 41.7673 12.6165C42.6475 12.6175 43.9372 12.6174 44.0623 12.6175C44.2035 12.6176 46.6927 12.6219 46.8119 12.6224C46.8751 12.6226 46.744 12.6291 47.2925 12.6226C47.4637 12.6227 47.6348 12.6227 47.806 12.6228C47.7783 12.6241 47.7506 12.6254 47.7228 12.6268C48.7368 12.6228 48.3881 12.6252 49.3654 12.626C51.7059 12.6276 55.1583 12.6327 57.7181 12.6351C58.2897 12.6356 58.5075 12.6338 59.1837 12.6344C59.812 12.6348 61.4524 12.6432 61.0956 12.6338C62.4935 12.6432 62.7182 12.6296 63.418 12.639C63.5027 12.6379 63.5874 12.6367 63.6721 12.6355C64.4317 12.6418 64.6661 12.6372 65.4955 12.6373C65.8529 12.6374 65.4409 12.643 66.1623 12.637C66.3002 12.6376 66.438 12.6383 66.5758 12.6389C66.5438 12.6404 66.5117 12.6419 66.4797 12.6433C67.2809 12.643 67.3325 12.6438 67.2411 12.6381C67.6279 12.6395 68.0147 12.6409 68.4016 12.6424C68.4496 12.6405 68.4977 12.6387 68.5457 12.6368C68.3604 12.6331 59.5776 12.6301 58.3544 12.6301C56.92 12.6251 54.0383 12.6266 52.8795 12.6246C52.4158 12.6238 52.2109 12.6205 51.536 12.6195C50.8614 12.6185 50.0123 12.6204 49.6531 12.6201C48.4563 12.6192 42.7861 12.6133 46.6425 12.6135C46.5316 12.6121 46.4208 12.6107 46.3099 12.6093C44.7774 12.6125 45.3323 12.6102 44.0607 12.6087C43.5254 12.6081 42.2524 12.6097 42.3235 12.6044C43.3175 12.6042 44.3736 12.6067 45.2379 12.6073C45.3236 12.6073 46.347 12.6054 46.8737 12.6065C47.3488 12.6075 47.0217 12.6131 48.0555 12.6073C48.8233 12.6144 49.2672 12.6088 49.47 12.6083C49.8205 12.6074 49.8589 12.6107 50.2093 12.6114C50.5909 12.6121 50.8537 12.6101 50.9058 12.6101C51.4292 12.6104 54.1553 12.612 54.2803 12.6136C54.1707 12.6142 54.0611 12.6148 53.9515 12.6153C54.6594 12.6169 54.5115 12.613 54.6976 12.6127C54.8362 12.6128 54.9748 12.6129 55.1134 12.613C55.0585 12.6138 55.0036 12.6145 54.9486 12.6153C55.7847 12.6158 55.145 12.6125 56.3318 12.6134C57.0854 12.614 57.8638 12.6178 57.9371 12.6176C57.9587 12.6175 57.7214 12.6152 58.0286 12.6151C58.5372 12.615 59.4165 12.6157 59.5148 12.6188C59.7639 12.6186 59.7427 12.6155 59.7758 12.6155C59.9204 12.6153 62.4085 12.6159 62.8542 12.616C64.0893 12.6163 65.4643 12.618 66.8024 12.6183C66.94 12.6183 66.8522 12.6205 66.9901 12.6205C67.2115 12.6205 68.3478 12.6178 68.5175 12.6176C68.9412 12.6172 70.0557 12.6194 70.2311 12.6184C70.256 12.6183 69.8892 12.6149 70.3181 12.6142C70.7942 12.6134 70.5378 12.6175 70.5637 12.6176C71.5327 12.6196 72.1445 12.617 72.806 12.6168C73.0204 12.6167 73.416 12.6203 73.7185 12.6195C73.7533 12.6194 73.6843 12.6162 73.7185 12.6161C74.1756 12.6147 74.6033 12.6208 74.8011 12.6213C75.2851 12.6226 75.0215 12.618 75.0468 12.618C75.3692 12.618 75.8031 12.6199 76.2934 12.62C78.4793 12.6203 80.2631 12.621 82.5869 12.6227C82.8787 12.6229 83.2251 12.6266 83.2697 12.6266C83.4077 12.6267 83.3682 12.6226 83.7672 12.6229C83.8259 12.6229 83.8844 12.623 83.9426 12.623L83.8996 12.58C83.899 13.3548 83.8987 14.0835 83.8982 14.8581C83.8981 15.0258 83.8941 15.0972 83.8939 15.2251C83.8934 15.6538 83.9031 17.116 83.8899 17.14C83.9011 17.9911 83.8906 18.5564 83.8903 19.2412C83.8895 20.8635 83.8904 23.4038 83.8878 25.0212C83.8872 25.3617 83.8834 25.5215 83.8831 25.7109C83.8824 26.0506 83.8833 27.9928 83.8826 28.0943C83.8813 28.2938 83.8644 28.1742 83.8785 29.1998C83.8791 29.8011 83.8721 29.7301 83.8716 29.8544C83.868 30.8235 83.8834 31.7663 83.8688 31.5901C83.8718 32.7185 83.8797 33.4498 83.8653 33.9102C83.8721 33.9042 83.8759 34.4349 83.8728 35.0745C83.8616 34.4196 83.8541 34.5006 83.8577 32.9169C83.8577 32.8919 83.8626 32.9395 83.8627 32.9146C83.8632 32.6884 83.8611 32.2167 83.8617 31.8312C83.8623 31.4457 83.8655 31.6597 83.8655 31.5054C83.8656 31.3641 83.8609 31.3689 83.861 31.1644C83.8614 30.5012 83.8607 29.9144 83.8609 29.537C83.8611 29.2994 83.8653 29.0334 83.8655 28.8489C83.866 28.1357 83.8643 26.6245 83.8655 25.717C83.8658 25.5279 83.87 25.6073 83.8707 25.1936C83.8708 25.1453 83.8665 24.9691 83.8659 24.6069C83.8653 24.2446 83.8677 23.9638 83.8675 23.7311C83.8673 23.5366 83.8633 23.6179 83.8634 23.2191C83.8636 22.8867 83.8697 19.1214 83.8704 18.9169C83.8716 18.6228 83.8768 18.483 83.8763 18.3035C83.8762 18.2719 83.8713 18.2185 83.8711 18.109C83.8681 16.8595 83.8723 14.5609 83.8755 12.58L83.9426 12.647C83.0614 12.6456 82.2431 12.6443 81.608 12.6438C77.2963 12.6401 73.3184 12.639 68.9684 12.6357C68.8909 12.6363 68.8133 12.6369 68.7357 12.6374C69.1754 12.6379 69.6151 12.6383 70.0548 12.6388C70.0576 12.6405 70.0604 12.6423 70.0632 12.6441C70.6577 12.645 70.5789 12.6407 70.5622 12.6381C70.7822 12.6394 71.0022 12.6407 71.2221 12.642C71.4119 12.6359 72.879 12.6415 73.6353 12.6422C74.1273 12.6427 74.7126 12.6408 74.972 12.6412C75.52 12.6421 75.5057 12.6462 75.5488 12.6463C75.6219 12.6465 76.387 12.6436 76.9388 12.6442C77.7547 12.6452 77.843 12.6519 78.9599 12.6474C80.391 12.6522 81.9767 12.6521 83.5192 12.653C83.3839 12.6559 83.6044 12.6564 83.9426 12.6562L83.8664 12.58C83.8666 12.9757 83.8678 13.5324 83.8675 13.8686C83.8631 17.6717 83.8553 22.3461 83.8481 26.1992C83.8472 26.6943 83.8421 27.0685 83.842 27.3444C83.8419 27.494 83.8473 27.5592 83.8464 27.767C83.8462 27.8035 83.841 27.8289 83.8398 28.2156C83.8367 29.1781 83.8429 31.5754 83.8319 32.1822C83.8307 33.9814 83.8295 35.7807 83.8284 37.58L83.9426 37.4657C82.4513 37.4647 80.96 37.4639 79.4688 37.463C79.3861 37.4604 79.3035 37.4579 79.2208 37.4554C78.5957 37.4672 76.1245 37.4571 74.9193 37.4562C72.7984 37.4549 70.0921 37.4561 68.2337 37.4546C67.8299 37.4542 67.499 37.4499 67.1168 37.4496C66.9523 37.4494 66.7477 37.4544 66.5766 37.4542C64.655 37.4526 62.0533 37.4443 60.1168 37.4422C55.7201 37.4376 51.5795 37.4322 47.1247 37.4274C34.3439 37.4138 21.6258 37.4075 8.94263 37.3939L9.12868 37.58C9.1311 35.371 9.13377 33.1631 9.13683 30.9561C9.13711 30.7566 9.14629 30.7666 9.14653 30.612C9.14803 29.6995 9.14261 27.6616 9.14413 26.631C9.1453 25.8099 9.1613 24.5065 9.14696 24.2239C9.12169 27.1412 9.12058 30.2233 9.11171 33.2602C9.11109 33.4761 9.10246 33.5029 9.10228 33.5295C9.09886 34.0212 9.11098 33.7107 9.11083 34.4237C9.1107 34.662 9.0817 36.863 9.10883 36.6011C9.10584 36.7411 9.10303 37.106 9.10059 37.58L8.94263 37.422C10.2531 37.4288 12.397 37.4327 12.9236 37.4306C13.1414 37.4298 12.9872 37.4219 13.0305 37.4216C13.2181 37.42 13.3029 37.4308 13.4707 37.4312C13.9178 37.4322 15.0551 37.4247 15.2712 37.4249C15.7684 37.4255 17.259 37.4353 17.9156 37.4339C18.5173 37.4326 18.4046 37.4217 18.9249 37.4212C19.335 37.4209 18.8883 37.4295 19.8038 37.433C20.2576 37.4348 21.8449 37.4298 22.2307 37.4302C22.6164 37.4305 23.0454 37.4372 23.5773 37.4372C24.3435 37.4372 26.0104 37.4353 26.7901 37.434C26.8366 37.434 26.95 37.4261 27.0647 37.4264C27.3023 37.4269 27.2309 37.4367 27.4103 37.4378C27.5898 37.439 30.6986 37.4406 31.2266 37.4412C31.5905 37.4416 31.8418 37.4362 32.0429 37.4364C32.2007 37.4366 32.2176 37.4445 32.3786 37.4448C32.4285 37.4448 32.8527 37.4383 33.2766 37.4389C33.6771 37.4395 35.1978 37.4473 35.3739 37.4475C35.4886 37.4476 35.3629 37.442 35.702 37.4424C36.011 37.4429 36.214 37.4502 36.3901 37.4504C36.7989 37.451 37.2558 37.4454 37.6894 37.4458C38.9361 37.4468 38.8719 37.4554 38.9467 37.4558C39.1541 37.4567 39.2372 37.4489 39.3053 37.4488C39.5928 37.4484 40.2973 37.4476 40.5535 37.4475C40.8727 37.4474 41.0079 37.455 41.347 37.4553C41.5997 37.4555 42.1101 37.4488 42.6867 37.449C43.9865 37.4493 45.5323 37.4495 46.8088 37.4509C47.1895 37.4514 47.2479 37.4579 47.3643 37.4582C47.9758 37.4596 48.3181 37.4527 48.4926 37.453C49.7377 37.4548 51.9585 37.4679 53.1138 37.4697C53.5842 37.4705 55.6437 37.4673 56.8056 37.4692C56.9386 37.4694 56.8141 37.474 56.962 37.4734C57.3159 37.4719 57.283 37.4623 57.4625 37.4628C57.5491 37.463 57.7466 37.4686 57.9989 37.4693C59.3071 37.4732 60.2067 37.4699 60.8034 37.4707C66.5348 37.4785 72.3792 37.4857 77.7315 37.4909C78.3283 37.4914 79.0683 37.4874 79.9692 37.4927C79.997 37.4952 80.0247 37.4976 80.0524 37.5001C80.0839 37.4977 80.1155 37.4953 80.147 37.493C81.1675 37.4925 81.5532 37.4899 82.5953 37.4937C82.685 37.4941 82.959 37.5051 83.1286 37.4918C83.8372 37.4991 83.7924 37.4965 83.9426 37.4941L83.8568 37.58C83.8557 37.5114 83.8547 37.4021 83.8546 37.1619C83.8544 36.3957 83.858 35.6511 83.8593 34.9081C83.8642 34.5009 83.8737 36.2097 83.8736 36.3211C83.8734 36.5005 83.8667 36.687 83.8662 36.8597C83.8655 37.1201 83.8664 37.3761 83.8667 37.58L83.9426 37.504C83.7458 37.5043 83.5977 37.504 83.5413 37.501C82.8799 37.5068 83.7033 37.5043 83.6207 37.5098C83.1792 37.5072 82.7377 37.5045 82.2962 37.5018C82.0713 37.5212 79.6319 37.4938 79.8014 37.509C79.6074 37.5059 79.4133 37.5027 79.2193 37.4995C78.3684 37.518 77.8679 37.5043 76.7328 37.4975C76.8147 37.5001 76.8966 37.5026 76.9785 37.5052C76.9553 37.5062 75.9535 37.5096 76.3117 37.4991C75.2848 37.5126 75.328 37.4888 74.4074 37.5054C73.8605 37.5073 74.1894 37.4974 73.2104 37.4969C72.6302 37.4965 71.9101 37.5013 71.2618 37.5013C71.1125 37.5012 71.0475 37.4952 70.9147 37.4951C70.7818 37.495 70.717 37.5009 70.5561 37.5009C70.2236 37.501 69.7927 37.4965 69.5849 37.4968C69.3987 37.497 69.1326 37.502 68.6838 37.5026C67.1167 37.5045 67.5901 37.4972 67.3426 37.4944C67.0767 37.4915 66.8855 37.5014 66.3553 37.4999C66.3022 37.4997 66.4397 37.4935 66.2668 37.4936C66.1274 37.4937 66.0573 37.5006 65.5955 37.5016C65.4116 37.5019 62.5567 37.5016 62.1218 37.5014C61.4552 37.5012 59.9704 37.4941 59.2806 37.4937C59.0148 37.4935 58.7307 37.4992 58.4482 37.499C57.5124 37.4982 56.0142 37.4968 54.8273 37.4957C53.7586 37.4948 51.8825 37.4798 51.2972 37.4918C49.7965 37.4924 49.432 37.4814 49.3189 37.4812C49.013 37.4805 48.8714 37.4876 48.4858 37.4877C43.4908 37.4885 36.9132 37.4792 32.1825 37.4765C24.4561 37.4723 16.7 37.4699 8.94263 37.4651L9.05744 37.58C9.05946 34.3194 9.06193 31.0587 9.06527 27.7998C9.06095 27.7703 9.05662 27.7408 9.05229 27.7113C9.04871 29.0129 9.0404 30.5425 9.03805 31.8274C9.03504 33.5428 9.05078 36.0875 9.02198 37.3457C9.01972 36.8354 9.03097 36.0041 9.01638 36.019C9.01557 36.5393 9.01477 37.0596 9.01397 37.58L8.94263 37.5086C9.33452 37.5092 9.72642 37.5098 10.1183 37.5104C10.0911 37.5038 10.0639 37.4971 10.0367 37.4905C10.9891 37.489 11.9633 37.491 12.9191 37.4906C13.0851 37.4905 12.9675 37.4845 13.1121 37.4846C13.2738 37.4846 13.1642 37.4906 13.1945 37.4907C13.6033 37.4909 13.7267 37.4849 13.7766 37.485C13.9046 37.4853 13.8051 37.4911 14.1741 37.4929C14.8587 37.4962 15.3488 37.4813 15.188 37.5065C15.409 37.5066 15.63 37.5067 15.851 37.5068C15.9083 37.5 15.9655 37.4931 16.0227 37.4863C17.3821 37.5146 18.0089 37.4668 18.7601 37.5052C19.0078 37.4995 19.2555 37.4939 19.5032 37.4882C19.6429 37.495 19.7825 37.5018 19.9221 37.5086C19.9493 37.5028 19.9765 37.4971 20.0037 37.4914C21.3384 37.4963 22.7594 37.4902 24.0359 37.4916C24.925 37.4925 25.138 37.4948 25.9257 37.4948C27.6776 37.4948 25.9378 37.5049 27.3936 37.5174C27.3178 37.5106 27.242 37.5038 27.1662 37.497C27.4073 37.4947 27.6484 37.4924 27.8895 37.49C28.0573 37.4956 28.2252 37.5012 28.393 37.5067C29.1376 37.4788 29.6199 37.5019 29.7213 37.5019C29.8032 37.5019 30.0845 37.4852 30.9656 37.4999C30.6002 37.4768 31.6378 37.5002 31.7209 37.5003C31.7999 37.5005 32.8101 37.4959 33.2201 37.4964C33.5426 37.4967 34.2306 37.5019 34.7109 37.5019C35.135 37.502 35.092 37.4944 35.1229 37.4943C35.6448 37.494 35.3178 37.4997 35.6951 37.5002C36.0724 37.5006 36.3651 37.4944 36.4466 37.495C36.4876 37.4953 36.3506 37.5023 36.5381 37.503C37.0419 37.5051 37.9527 37.4995 38.5294 37.5C38.7338 37.5002 38.9915 37.5062 39.2191 37.5065C39.5681 37.5069 39.7312 37.4993 39.934 37.4996C40.0045 37.4998 40.4547 37.5119 41.0143 37.5103C41.1208 37.51 41.4335 37.4853 41.849 37.5207C41.881 37.5158 41.9131 37.5108 41.9451 37.5059C43.8218 37.4949 44.344 37.5345 45.1784 37.5001C46.5411 37.5047 45.6056 37.5177 45.7552 37.5198C45.8519 37.5212 46.2961 37.5177 46.345 37.5179C46.4314 37.5183 46.4166 37.5227 46.5113 37.5227C48.2483 37.5226 47.4771 37.5142 48.0273 37.5094C49.3354 37.498 50.356 37.5252 48.0807 37.5161C48.0807 37.5185 48.0807 37.5209 48.0807 37.5232C48.6409 37.5212 50.0631 37.5229 49.5882 37.5346C49.2142 37.5439 45.8401 37.5368 47.7511 37.5507C48.1849 37.5537 48.4096 37.545 49.161 37.5617C49.6579 37.5626 49.7294 37.5413 50.4023 37.55C50.2917 37.5426 50.181 37.5351 50.0704 37.5276C50.9879 37.5183 52.1199 37.5317 52.8246 37.5278C53.0641 37.5265 53.9268 37.4923 53.7256 37.5268C54.1283 37.5248 56.0245 37.5319 56.3769 37.529C56.4616 37.5283 56.572 37.5103 57.7982 37.5172C57.8834 37.5195 57.9686 37.5218 58.0538 37.524C56.9322 37.5301 58.9129 37.5374 58.375 37.554C58.1922 37.5464 57.3028 37.5415 57.1596 37.5376C56.9153 37.5309 57.6431 37.5227 56.7156 37.5246C56.1309 37.5529 57.8027 37.5404 57.5472 37.5672C58.7649 37.5548 58.8867 37.5667 59.1624 37.5672C60.3408 37.5693 61.0824 37.5666 62.1943 37.5698C62.4652 37.5645 60.4523 37.5565 60.203 37.5587C61.1206 37.5398 59.5413 37.5385 58.8747 37.5498C58.8188 37.5439 58.7628 37.538 58.7069 37.5321C59.5745 37.5357 60.4209 37.5375 61.2803 37.5331C61.3362 37.5353 61.3922 37.5375 61.4481 37.5396C61.2554 37.5428 61.0626 37.546 60.8698 37.5492C61.5845 37.5546 61.1559 37.5378 62.1081 37.5527C62.1376 37.5463 62.1671 37.5398 62.1966 37.5334C63.1095 37.5359 64.0225 37.5384 64.9355 37.5407C65.4108 37.5283 67.1676 37.5338 66.8459 37.5496C67.555 37.5509 66.6796 37.5422 67.3441 37.5385C67.6333 37.5369 68.1986 37.5367 68.3382 37.541C68.2781 37.556 67.4322 37.5577 67.1763 37.5681C67.3316 37.5714 71.2654 37.5613 70.9147 37.5785C71.2288 37.5805 71.0844 37.5717 71.6509 37.5695C73.2383 37.5635 75.6972 37.5805 76.9755 37.5598C75.4744 37.5478 75.0305 37.56 73.8802 37.5604C73.1455 37.5606 68.6659 37.5619 69.6665 37.5463C69.502 37.5483 69.3374 37.5503 69.1729 37.5522C69.0066 37.5475 68.8402 37.5427 68.6739 37.5379C69.1426 37.5374 69.6113 37.5369 70.08 37.5364C70.1919 37.5411 70.3038 37.5458 70.4157 37.5505C70.4673 37.5472 70.519 37.5439 70.5706 37.5406C70.7679 37.54 70.9653 37.5394 71.1626 37.5388C71.1072 37.5428 71.0518 37.5467 70.9963 37.5507C71.3005 37.5514 71.6046 37.5522 71.9088 37.5529C71.8269 37.5476 71.745 37.5424 71.6631 37.5371C73.0956 37.5363 72.6104 37.5394 73.4049 37.5494C73.9981 37.5505 72.9961 37.5402 74.251 37.5382C75.7103 37.5358 74.7529 37.5511 76.6428 37.5483C76.67 37.5458 76.6972 37.5433 76.7245 37.5408C77.14 37.5435 77.5556 37.5461 77.9711 37.5487C77.9162 37.5456 77.8612 37.5425 77.8063 37.5394C78.664 37.5409 79.846 37.5356 80.1302 37.5476C79.2609 37.5415 79.2694 37.5624 79.4955 37.5663C79.7457 37.5705 81.8441 37.5705 83.9426 37.5697L83.9323 37.58C83.9316 35.7651 83.9302 33.9501 83.9301 33.3304C83.9298 31.6217 83.9357 30.3303 83.927 28.7695C83.9194 29.8272 83.9248 33.5465 83.9193 34.2513C83.9187 34.3211 83.901 34.3014 83.9208 34.7502C83.9186 35.6082 83.9196 36.5657 83.9205 37.58L83.9426 37.5579C83.2475 37.5585 82.5258 37.5592 81.7911 37.5588C81.8463 37.5535 81.9015 37.5481 81.9567 37.5428C82.9063 37.5528 83.7954 37.5364 83.9426 37.5443L83.9069 37.58C83.9082 37.555 83.9103 37.5514 83.9132 37.5723C83.9133 37.3513 83.9133 37.1303 83.9134 36.9093C83.9099 36.9093 83.9064 36.9093 83.9029 36.9093C83.9031 36.5762 83.9032 36.243 83.9033 35.9099C83.9068 35.9099 83.9102 35.9099 83.9137 35.9099C83.9138 35.634 83.9139 35.358 83.9139 35.0821C83.9105 35.0534 83.9071 35.0246 83.9037 34.9959C83.911 34.1696 83.8936 31.3528 83.913 32.5911C83.9131 32.203 83.9132 31.8149 83.9134 31.4268C83.9109 31.4281 83.9085 31.4294 83.9061 31.4307C83.9059 31.2638 83.9056 31.097 83.9053 30.9302C83.9075 30.9851 83.9096 31.04 83.9118 31.095C83.9082 30.3305 83.9197 29.6057 83.9125 29.1037C83.9108 29.4348 83.909 29.7659 83.9073 30.097C83.9106 29.462 83.9047 28.2921 83.9047 28.1874C83.9049 27.8683 83.9096 27.7 83.91 27.3543C83.9103 27.0422 83.9067 27.0851 83.9068 27.027C83.9112 25.3434 83.9299 25.985 83.9077 25.199C83.9108 25.1153 83.9138 25.0316 83.9169 24.948C83.9144 24.8366 83.9119 24.7252 83.9094 24.6138C83.9098 24.1166 83.9103 23.6194 83.9107 23.1223C83.9069 23.2881 83.903 23.4539 83.8992 23.6197C83.8979 22.8744 83.9056 22.5269 83.9057 22.4547C83.9063 22.2504 83.9016 22.157 83.9017 22.0938C83.9035 19.0569 83.9068 20.9015 83.9243 19.3839C83.9178 18.8427 83.911 19.3902 83.9042 19.467C83.9077 18.7475 83.9059 18.5229 83.9066 17.7634C83.9068 17.5658 83.9104 17.3532 83.9105 17.2285C83.9106 17.1205 83.907 16.7829 83.9071 16.5236C83.9073 16.0914 83.9098 15.5162 83.9099 14.9245C83.9101 14.5352 83.9089 13.511 83.9086 12.58L83.9426 12.6139C83.697 12.614 83.4578 12.614 83.2384 12.6139C82.7901 12.6137 82.8942 12.6108 82.7784 12.6108C82.7302 12.6108 82.3808 12.6141 82.0933 12.614C79.7479 12.6129 77.3443 12.6098 74.9872 12.6088C73.3267 12.6082 71.6394 12.6098 69.9755 12.6087C69.6214 12.6085 69.8089 12.6065 69.6543 12.6064C69.6012 12.6063 69.5372 12.61 68.9898 12.6082C68.792 12.6076 69.0195 12.6052 68.825 12.605C68.7303 12.6049 68.6901 12.608 68.1368 12.6085C67.1313 12.6093 66.5908 12.6049 66.5011 12.605C66.3318 12.6052 66.3813 12.6077 66.157 12.6077C65.0601 12.6076 64.1444 12.6076 63.1655 12.6073C62.7084 12.6071 59.5567 12.606 59.3836 12.6055C58.9964 12.6044 59.3568 12.6 58.8602 12.5999C58.7211 12.601 58.582 12.6021 58.4429 12.6032C58.6639 12.6042 58.8849 12.6052 59.1059 12.6062C58.4975 12.6044 57.8077 12.6061 57.3572 12.6058C57.274 12.6057 56.5081 12.6033 56.1175 12.6034C56.2835 12.6026 56.4496 12.6019 56.6157 12.6011C56.5569 12.6004 56.4982 12.5997 56.4394 12.599C55.6582 12.5997 54.8319 12.5993 54.0308 12.5988C53.7419 12.5987 53.8396 12.5971 53.5471 12.5969C51.8436 12.596 52.2739 12.6023 50.635 12.5901C51.1883 12.5913 53.2071 12.5902 53.5006 12.5907C53.705 12.591 54.498 12.602 54.2071 12.5909C55.8427 12.5913 54.422 12.5971 55.9496 12.5963C55.9191 12.5949 55.8886 12.5935 55.8581 12.5921C56.3914 12.5913 56.7852 12.5907 57.1093 12.5933C57.218 12.5864 59.0299 12.5908 60.0237 12.5906C61.4598 12.5902 63.0824 12.5886 64.5052 12.5884C64.9954 12.5884 65.273 12.5916 65.3345 12.5916C65.4244 12.5916 65.677 12.5889 65.8564 12.5889C66.5263 12.5888 68.5644 12.5942 69.0714 12.5861C65.0853 12.5857 61.0992 12.5853 57.1131 12.5849C57.6143 12.5882 53.5822 12.5878 53.3777 12.5876C53.1885 12.5875 53.3478 12.5854 53.2915 12.5852C52.8727 12.5843 52.5151 12.5873 52.3821 12.5872C52.2807 12.5872 52.076 12.5858 51.7153 12.5858C51.6492 12.5858 51.6308 12.5872 51.5597 12.5872C51.0892 12.5871 50.6249 12.587 50.1528 12.587C50.1241 12.5869 50.005 12.5849 49.8858 12.5849C49.7663 12.5849 49.6481 12.5869 49.618 12.5869C49.2407 12.5868 48.5938 12.5854 48.2348 12.5853C48.1102 12.5853 48.1966 12.5867 48.057 12.5867C47.6281 12.5866 47.7694 12.5839 47.2391 12.5845C47.0614 12.5847 47.0729 12.5868 46.7325 12.5865C46.4915 12.5862 46.5175 12.5826 46.4792 12.5825C46.4265 12.5823 45.5947 12.5851 45.3226 12.5827C45.9172 12.5766 44.6723 12.5824 44.7321 12.5849C44.4025 12.5842 44.0729 12.5835 43.7433 12.5829C43.6309 12.5835 43.5185 12.5841 43.4061 12.5847C42.0763 12.5818 41.265 12.5834 39.9569 12.5825C39.8937 12.5824 38.7915 12.5811 38.843 12.5804C39.5028 12.5791 40.161 12.579 40.5833 12.5815C41.2781 12.5767 41.29 12.5805 42.412 12.5799C42.7877 12.5797 42.8144 12.5783 42.8576 12.5782C44.3185 12.5775 46.6585 12.5765 47.6427 12.5812C47.9187 12.5799 46.9267 12.5794 47.3124 12.5785C47.5227 12.578 52.5848 12.5761 50.9676 12.582C51.1355 12.5819 51.3033 12.5817 51.4712 12.5816C51.639 12.576 52.4738 12.5772 52.3791 12.5829C52.4581 12.5817 52.5372 12.5806 52.6163 12.5794C52.7726 12.5784 52.9575 12.5779 53.2168 12.5775C54.2097 12.5762 60.117 12.578 60.4311 12.5771C60.4382 12.5755 60.4454 12.5739 60.4525 12.5723C57.8428 12.571 55.311 12.5749 52.4653 12.5714C52.5479 12.5727 52.6306 12.5739 52.7132 12.5752C51.5777 12.5735 50.4422 12.572 49.3067 12.5706C50.5085 12.5683 52.4205 12.5657 53.6822 12.5672C53.9064 12.5675 53.742 12.5694 53.7935 12.5696C53.9282 12.5701 54.0729 12.5669 54.5565 12.5665C55.0403 12.566 56.2556 12.568 56.3669 12.5679C56.5816 12.5677 57.1611 12.5637 57.5266 12.5636C58.007 12.5635 57.685 12.566 57.7814 12.5661C58.1803 12.5662 58.5379 12.5649 58.8503 12.565C59.3142 12.5651 60.2778 12.5693 60.602 12.5626C60.2707 12.5624 59.9393 12.5622 59.6079 12.562C61.4048 12.5589 62.8097 12.5674 64.58 12.5598C64.9822 12.5509 63.5195 12.5528 64.7562 12.5484C64.5317 12.5487 64.3071 12.5489 64.0826 12.5492C64.0299 12.551 63.9773 12.5529 63.9246 12.5547C63.5378 12.5536 63.151 12.5525 62.7642 12.5514C62.8746 12.553 62.9849 12.5545 63.0953 12.556C61.724 12.5578 60.3392 12.5598 59.8604 12.5521C59.8322 12.554 59.804 12.556 59.7758 12.5579C58.5026 12.5562 56.5912 12.5648 56.9483 12.5545C56.888 12.5551 56.8278 12.5557 56.7675 12.5562C55.9979 12.5546 56.3266 12.5585 56.0374 12.5591C55.9548 12.5593 54.4589 12.5579 55.1218 12.5547C53.6625 12.5533 54.1125 12.562 53.7104 12.5625C52.7762 12.5586 51.0958 12.5657 51.8023 12.5588C51.6632 12.5586 51.5241 12.5584 51.3849 12.5582C50.9278 12.5636 50.4772 12.558 49.9819 12.5564C49.8141 12.5564 49.6462 12.5564 49.4784 12.5564C49.366 12.5581 49.2535 12.5598 49.1411 12.5615C47.562 12.5546 48.062 12.575 47.3406 12.5581C47.453 12.557 47.5654 12.5559 47.6778 12.5548C47.9443 12.5541 48.2109 12.5535 48.4774 12.5528C47.4024 12.553 46.3274 12.5534 45.2524 12.5537C43.888 12.5503 43.1115 12.5556 41.5957 12.5535C41.4538 12.554 41.3119 12.5545 41.17 12.555C41.3146 12.5516 41.8651 12.5515 40.8396 12.551C40.7522 12.5488 41.4448 12.5478 41.7605 12.5493C41.8365 12.5497 41.189 12.5521 41.9169 12.5515C42.4117 12.5511 41.5132 12.5491 42.9957 12.5488C42.9407 12.5482 42.8858 12.5477 42.8309 12.5471C42.9916 12.547 43.1523 12.5469 43.313 12.5467C43.456 12.548 43.5989 12.5492 43.7418 12.5505C44.1092 12.5482 44.3154 12.5451 45.1548 12.5449C44.9271 12.546 45.236 12.5487 45.6515 12.5483C45.6515 12.5472 45.6515 12.5461 45.6515 12.545C46.6571 12.5434 46.31 12.5469 47.1461 12.5436C47.2297 12.5444 47.3134 12.5452 47.3971 12.5461C47.8525 12.542 49.5294 12.5376 49.2235 12.5438C49.694 12.5377 50.6819 12.5392 51.0493 12.5436C51.0775 12.5423 51.1057 12.5411 51.1339 12.5398C51.3295 12.5394 51.5251 12.539 51.7206 12.5385C51.8297 12.5392 51.9388 12.5398 52.0479 12.5405C52.1865 12.5396 52.3251 12.5387 52.4637 12.5378C52.5474 12.539 52.6311 12.5402 52.7148 12.5414C52.9375 12.5397 53.1603 12.5379 53.3831 12.5361C53.5194 12.537 53.6557 12.5379 53.792 12.5389C53.8061 12.5361 55.1566 12.5342 55.5338 12.5357C55.6462 12.5347 55.7586 12.5338 55.871 12.5329C55.926 12.5342 55.9809 12.5355 56.0358 12.5368C56.1195 12.5356 56.2032 12.5344 56.2868 12.5333C56.4796 12.5342 56.6724 12.5351 56.8651 12.536C57.6513 12.5284 57.6767 12.5344 57.8562 12.5342C58.189 12.5339 59.3223 12.5283 59.5118 12.5283C59.701 12.5284 59.7924 12.5309 59.9451 12.531C62.4633 12.5327 61.4282 12.5266 61.9333 12.5249C62.2059 12.524 62.3988 12.5263 62.6398 12.5258C63.0521 12.5249 65.1317 12.5193 65.2514 12.5195C65.4256 12.5198 65.0154 12.5328 65.5817 12.5291C65.6005 12.5222 66.8115 12.528 66.2455 12.5189C66.7442 12.5192 67.2429 12.5195 67.7416 12.5199C67.6851 12.5116 68.3001 12.5163 68.9699 12.5151C69.9192 12.5135 72.0563 12.5051 71.9782 12.5145C72.2056 12.5121 72.4329 12.5097 72.6603 12.5073C74.216 12.5085 75.7419 12.5037 77.286 12.5018C79.4463 12.4991 81.6931 12.4969 83.9426 12.4951L84.0277 12.4954L84.0274 12.58C84.0295 15.1024 84.031 17.6282 84.0324 20.0392C84.0325 20.2585 84.0285 20.227 84.0286 20.3848C84.029 21.2143 84.0341 23.3703 84.0345 24.5322C84.0346 24.9044 84.0307 25.0855 84.0306 25.2036C84.0303 25.6042 84.0357 25.5096 84.0357 25.6941C84.0358 25.9852 84.0323 27.5244 84.0322 28.0547C84.0322 28.3172 84.037 28.6278 84.0359 28.9351C84.0358 28.9615 84.0312 28.9127 84.0311 28.9351C84.0311 29.4953 84.0348 29.1583 84.0347 29.3478C84.0346 30.6992 84.0359 32.1436 84.0363 33.6096C84.0365 33.9736 84.0336 34.5308 84.0335 34.8433C84.0335 34.9625 84.037 34.7487 84.0371 35.1607C84.0371 35.3018 84.0323 35.35 84.0322 35.5093C84.0314 36.1957 84.0475 36.4255 84.0353 37.0154C84.0356 37.1865 84.036 37.3768 84.0364 37.58L84.0362 37.674L83.9426 37.6737C82.794 37.6762 81.2304 37.6808 80.3477 37.6817C80.1019 37.682 79.9822 37.679 79.748 37.6793C79.5818 37.6795 79.2893 37.6846 79.0301 37.6849C78.7708 37.6852 78.3614 37.681 77.8628 37.6817C77.3377 37.6823 76.6849 37.6857 76.5665 37.6858C76.4236 37.686 76.357 37.6802 76.2141 37.6804C75.7819 37.6809 74.6248 37.6879 74.0679 37.6891C73.4696 37.6904 73.1104 37.6878 72.9059 37.6881C72.7166 37.6883 72.4958 37.6937 72.4093 37.6938C72.2747 37.694 72.2429 37.688 72.0721 37.6882C71.7929 37.6886 71.505 37.6927 71.0863 37.6932C63.5464 37.7027 56.1539 37.7069 48.8184 37.7085C48.0007 37.7087 47.5386 37.7143 46.3335 37.7131C45.845 37.7126 46.0508 37.7047 45.6705 37.7065C45.501 37.7074 45.5439 37.7134 45.3295 37.7139C44.382 37.7161 43.2781 37.7114 42.8675 37.7119C42.7047 37.7121 42.5185 37.7193 42.1847 37.7197C39.6964 37.723 36.7524 37.7239 34.0746 37.7278C32.6567 37.7298 30.5102 37.7359 28.8828 37.7381C24.3866 37.7441 19.5496 37.7472 15.449 37.7522C13.2772 37.7549 11.1091 37.7583 8.94263 37.7616L8.76048 37.7612L8.76094 37.58C8.75484 33.5697 8.74917 29.5652 8.75165 25.5537C8.73217 28.4443 8.7388 32.3805 8.74009 35.5986C8.74037 36.2562 8.74076 36.9167 8.74124 37.58L8.74074 37.7808L8.94263 37.7813C17.6549 37.7748 26.8275 37.7545 35.6798 37.7452C38.9943 37.7416 43.1733 37.7367 46.802 37.7364C46.9665 37.7363 47.3076 37.7307 47.6633 37.7309C47.7389 37.7309 48.6759 37.7393 48.9916 37.739C48.6924 37.7227 49.9292 37.7362 50.3115 37.7353C50.7937 37.7342 51.7992 37.7249 52.9276 37.7282C53.9515 37.7312 53.6691 37.7377 53.7256 37.738C54.0878 37.7401 54.2142 37.73 54.4916 37.7287C55.6253 37.7234 61.4565 37.7224 63.0839 37.7208C63.5044 37.7204 63.5163 37.7262 63.6111 37.7261C63.862 37.7259 64.2192 37.7197 64.6212 37.7192C65.3459 37.7185 66.1807 37.7229 66.5797 37.7225C67.5338 37.7213 69.3443 37.7129 70.5843 37.7114C70.933 37.7109 70.9117 37.7167 71.0695 37.7165C71.7645 37.7155 73.5745 37.7067 74.4372 37.7057C75.8384 37.704 77.2798 37.7059 78.7043 37.7024C78.7946 37.7047 78.8849 37.707 78.9751 37.7092C79.1176 37.7066 79.2599 37.7039 79.4024 37.7013C80.907 37.7007 82.4286 37.6973 83.9426 37.6943L84.0567 37.6946L84.057 37.58C84.0552 36.6704 84.0535 35.7635 84.0526 34.8647C84.0524 34.5887 84.055 33.2225 84.0547 32.9947C84.0545 32.8052 84.0489 32.6187 84.0494 32.3378C84.05 31.9443 84.0606 32.3146 84.0569 31.6718C84.0559 31.4989 84.0518 31.6665 84.0501 31.3193C84.0495 31.2046 84.0452 28.9785 84.0454 28.8588C84.0457 28.6594 84.0544 28.4815 84.0545 28.43C84.0552 28.1625 84.0484 28.1739 84.0476 27.9944C84.0451 27.4648 84.0488 26.7728 84.0486 26.6867C84.0461 25.6461 84.0387 23.7009 84.0405 22.6088C84.0408 22.4578 84.0455 22.4759 84.0457 22.4493C84.0464 22.2782 84.0409 22.1719 84.0406 22.0091C84.039 21.1331 84.0409 19.7613 84.0408 18.8803C84.0407 18.7788 84.038 18.5647 84.038 18.3836C84.0382 17.3597 84.0425 17.6918 84.0426 17.6337C84.0429 17.4957 84.0382 17.2531 84.0375 16.886C84.0357 15.9402 84.0341 14.1265 84.0332 13.1125C84.033 12.8599 84.0334 12.6926 84.034 12.58L84.0342 12.4888L83.9426 12.4886C83.7164 12.4874 83.7104 12.4853 83.6771 12.4853C83.5706 12.4853 83.2747 12.4894 82.7746 12.4904C81.8123 12.4923 81.9219 12.4886 81.5264 12.4893C81.4931 12.4893 81.551 12.4927 81.1121 12.4936C80.2643 12.4953 78.3598 12.4943 77.4523 12.4956C77.1032 12.4961 77.0216 12.4993 76.6642 12.4998C76.0976 12.5006 74.8188 12.4988 74.7179 12.4989C74.6897 12.499 74.6263 12.5025 74.4601 12.5027C74.2772 12.503 74.0974 12.5014 73.9611 12.5016C73.1849 12.5026 71.8477 12.51 72.2193 12.4976C71.9706 12.5009 71.7219 12.5041 71.4731 12.5073C69.8475 12.5086 68.2682 12.5116 66.6575 12.514C66.2952 12.5145 65.9928 12.5128 65.687 12.5133C65.3813 12.5138 64.0326 12.5186 63.8071 12.5189C63.4049 12.5195 61.119 12.5223 60.8347 12.5224C60.2795 12.5226 59.7409 12.5193 59.5148 12.5203C59.3336 12.5211 59.5012 12.5232 59.1555 12.5242C58.557 12.5259 57.5401 12.5243 57.3572 12.5245C57.2792 12.5246 57.4253 12.5261 56.6942 12.5271C56.3003 12.5276 56.0888 12.526 55.9458 12.5262C55.9014 12.5263 55.968 12.5291 55.1882 12.5295C54.6496 12.5298 54.42 12.5279 54.3635 12.528C54.2786 12.5281 54.0739 12.5306 53.7333 12.5309C52.937 12.5315 51.4813 12.5307 50.725 12.5314C50.5787 12.5315 50.6285 12.534 50.0452 12.5344C49.628 12.5347 49.7009 12.5327 49.5447 12.5328C49.2971 12.5329 48.9281 12.5358 48.3813 12.5363C47.6931 12.5369 42.5833 12.5404 42.3189 12.5403C42.1411 12.5402 41.9348 12.5404 41.8467 12.5396C41.9222 12.5387 41.9977 12.5378 42.0733 12.5368C42.8558 12.5388 42.54 12.5358 42.7477 12.5353C43.0486 12.5346 44.1824 12.5335 44.4567 12.5324C44.5544 12.532 44.3307 12.5304 44.8557 12.5286C45.4191 12.5267 45.6697 12.5299 45.8941 12.5247C46.6936 12.529 47.4616 12.522 46.5357 12.5219C46.0188 12.5217 40.9488 12.528 39.9134 12.5295C39.0739 12.5307 37.5016 12.5344 36.4695 12.5358C35.8628 12.5366 34.3685 12.5388 34.4317 12.5369C33.8931 12.5376 34.4631 12.5384 34.35 12.5388C34.1137 12.5397 32.4327 12.5413 32.1146 12.5419C30.5455 12.5447 28.5653 12.5493 27.0411 12.5502C27.112 12.5497 27.183 12.5493 27.2539 12.5488C27.5964 12.5476 29.1855 12.5458 29.365 12.5437C27.0411 12.5478 24.7172 12.5519 22.3932 12.5561C22.4365 12.5571 19.5541 12.5619 19.4178 12.5618C19.4684 12.5613 19.519 12.5608 19.5696 12.5603C21.1984 12.559 21.0524 12.557 22.1461 12.5563C22.5913 12.5555 22.4569 12.5549 22.6763 12.5544C24.86 12.5486 22.7113 12.5561 24.383 12.5523C23.8798 12.5518 25.2489 12.5488 25.8623 12.5474C26.002 12.547 27.8357 12.5439 28.0535 12.5435C29.2769 12.5411 31.3779 12.5359 32.593 12.5347C33.5504 12.533 34.0774 12.5304 34.9467 12.5283C35.6064 12.5267 35.4173 12.5282 35.7279 12.5276C36.3795 12.5264 36.5939 12.5222 37.0112 12.5267C37.4529 12.5252 37.8947 12.5236 38.3364 12.5221C38.3364 12.5229 38.3364 12.5238 38.3364 12.5247C38.6138 12.5241 38.8913 12.5236 39.1688 12.5231C39.2504 12.5221 39.332 12.521 39.4137 12.52C40.2942 12.5195 39.9266 12.5224 40.0912 12.5247C40.2814 12.5245 40.4716 12.5243 40.6618 12.5242C40.8091 12.5219 40.9563 12.5196 41.1036 12.5173C41.953 12.5158 42.8024 12.5143 43.6518 12.5128C43.7067 12.5137 43.7617 12.5147 43.8166 12.5156C43.8184 12.5145 43.8201 12.5135 43.8219 12.5125C45.2603 12.5095 46.6987 12.5065 48.1371 12.5035C48.5197 12.5008 46.215 12.5041 46.0406 12.5044C45.0697 12.5058 42.4916 12.5127 42.4883 12.5092C41.8848 12.5131 40.0681 12.516 39.5029 12.5144C40.3607 12.5128 41.2185 12.5111 42.0763 12.5095C42.0486 12.5084 42.0209 12.5073 41.9932 12.5062C43.062 12.5085 43.2183 12.5081 44.3171 12.501C44.3181 12.5026 44.3191 12.5043 44.3201 12.5059C45.0863 12.4985 46.4404 12.5057 46.4792 12.4981C46.8872 12.4979 47.2951 12.4976 47.703 12.4974C48.5838 12.4945 47.216 12.4915 50.6647 12.4861C50.9024 12.4858 50.8529 12.488 51.2102 12.4871C51.3133 12.4868 51.9035 12.4823 53.0321 12.4801C53.2083 12.4797 53.2216 12.4817 53.4044 12.4815C53.8266 12.4812 54.6674 12.4754 54.2856 12.4827C55.9576 12.481 55.2647 12.4771 55.7833 12.4737C56.1289 12.4715 56.0594 12.4757 56.3586 12.4741C56.7287 12.4721 56.4571 12.4687 57.9394 12.4671C57.773 12.4678 57.6067 12.4685 57.4404 12.4691C57.5241 12.4701 57.6077 12.471 57.6914 12.4719C58.5374 12.4673 58.4575 12.4715 58.8564 12.4641C59.4714 12.4656 60.0036 12.4647 60.8446 12.4622C62.4786 12.4575 61.6409 12.4517 63.5058 12.4577C63.8079 12.4556 64.11 12.4534 64.4121 12.4513C64.9088 12.4532 64.5071 12.458 65.2483 12.4572C64.6682 12.4507 66.2322 12.4501 66.4965 12.4424C66.5242 12.444 66.5519 12.4456 66.5797 12.4472C66.7452 12.4468 66.9108 12.4465 67.0763 12.4461C67.0768 12.4447 67.0773 12.4434 67.0779 12.442C67.2983 12.4425 67.5188 12.443 67.7393 12.4435C67.9051 12.4418 68.0709 12.44 68.2368 12.4382C68.5094 12.4405 68.782 12.4428 69.0546 12.4451C69.2258 12.4449 69.3969 12.4448 69.5681 12.4446C69.5139 12.4426 69.4597 12.4406 69.4056 12.4386C69.6256 12.4388 69.8455 12.439 70.0655 12.4392C69.8095 12.4363 69.9704 12.4318 70.6553 12.4303C71.2204 12.429 70.5838 12.4379 71.7989 12.432C71.8837 12.4315 72.0337 12.4258 73.1821 12.4221C74.5594 12.4177 73.8904 12.4234 74.1358 12.4229C74.184 12.4229 74.6047 12.419 74.9987 12.4176C75.2223 12.4169 75.4376 12.4186 75.4671 12.4186C75.6051 12.4181 75.6453 12.4147 75.8364 12.4142C76.3216 12.4127 76.9731 12.4127 77.4485 12.4113C77.6646 12.4107 77.8678 12.4082 77.9642 12.408C78.1138 12.4076 78.3036 12.4102 78.4548 12.4098C79.0133 12.4084 79.8609 12.3958 80.1203 12.4097C80.6572 12.395 81.7819 12.4086 81.6996 12.3996C82.2281 12.3996 83.0813 12.3968 83.9426 12.394L84.1291 12.3945L84.1286 12.58C84.1334 14.0565 84.1382 15.5569 84.1275 15.486C84.1437 16.2986 84.1332 16.2259 84.1343 16.5663C84.1354 16.947 84.1377 16.7498 84.1383 17.0523C84.1398 17.7587 84.1402 18.4336 84.1419 19.1367C84.1392 19.0263 84.1366 18.9159 84.134 18.8055C84.135 19.5435 84.1399 19.2894 84.1428 20.0423C84.1481 21.4269 84.1422 20.8434 84.1363 21.0478C84.1423 20.993 84.1453 22.6257 84.1449 22.7919C84.1446 22.891 84.1355 22.4566 84.1404 23.4564C84.1428 23.4017 84.1452 23.3471 84.1475 23.2924C84.1452 23.7479 84.1525 24.9852 84.1522 25.1952C84.152 25.2916 84.1324 25.8072 84.15 26.2793C84.1475 26.3363 84.1451 26.3932 84.1426 26.4502C84.1469 26.9743 84.1513 27.4985 84.1557 28.0226C84.1511 28.1063 84.1465 28.19 84.142 28.2736C84.1423 28.4399 84.1427 28.6063 84.1431 28.7726C84.1471 28.6622 84.1511 28.5518 84.1551 28.4415C84.1555 29.4685 84.1653 30.7231 84.1511 30.9348C84.1543 31.1547 84.1575 31.3747 84.1608 31.5947C84.1562 31.7379 84.1516 31.8811 84.1469 32.0242C84.1504 33.0429 84.1538 33.0597 84.1607 33.7561C84.1567 33.7289 84.1527 33.7017 84.1487 33.6745C84.1553 34.1881 84.1626 35.1258 84.165 35.8672C84.1662 36.2196 84.1619 36.8247 84.1626 36.9078C84.1631 36.9607 84.1727 37.3077 84.1751 37.58L84.1745 37.813L83.9426 37.8125C83.7823 37.8139 83.6478 37.8127 83.6146 37.8057C82.3978 37.817 81.8622 37.8095 81.3685 37.8108C81.0478 37.8116 80.9015 37.8167 80.5392 37.818C80.0206 37.82 79.4986 37.8188 79.1994 37.8198C79.0282 37.8204 78.9962 37.8252 78.8782 37.8257C78.3202 37.8277 78.6471 37.8221 78.0588 37.8238C78.0046 37.8239 77.5745 37.8307 77.0899 37.8311C76.8189 37.8314 76.1179 37.8264 76.0561 37.8265C75.7818 37.8272 76.001 37.8401 75.0635 37.8268C75.0908 37.8293 75.118 37.8318 75.1452 37.8343C73.9849 37.8435 73.8018 37.8325 73.5674 37.8322C73.5375 37.8322 73.255 37.8373 73.086 37.8371C72.8005 37.8367 72.6854 37.8308 72.6221 37.8307C72.3994 37.8303 71.6492 37.8347 71.1588 37.8298C71.2619 37.8472 69.5436 37.8578 69.163 37.8382C68.8588 37.8429 68.5546 37.8477 68.2505 37.8524C68.1129 37.8494 67.9753 37.8463 67.8377 37.8432C67.7541 37.8468 67.6704 37.8504 67.5867 37.854C67.1435 37.8475 66.7002 37.841 66.2569 37.8344C66.2287 37.842 66.2005 37.8497 66.1722 37.8573C66.0481 37.8568 65.924 37.8562 65.7999 37.8556C65.703 37.8498 65.6061 37.844 65.5092 37.8381C65.3541 37.8396 65.199 37.8411 65.0439 37.8426C65.0054 37.8471 64.9671 37.8516 64.9286 37.8561C64.0947 37.8632 64.5232 37.8197 62.9343 37.8607C62.6871 37.8578 62.4399 37.8548 62.1927 37.8518C61.9136 37.8697 61.3904 37.8605 60.9682 37.8634C60.6707 37.8654 60.6869 37.8724 60.2816 37.8735C59.876 37.8746 59.8905 37.8679 59.8589 37.8679C59.5283 37.8682 59.2791 37.8748 59.0365 37.8741C58.9999 37.8741 58.9084 37.8663 58.5993 37.8665C58.2901 37.8666 58.1038 37.8757 57.6433 37.8751C57.4074 37.8748 57.3392 37.8682 57.1299 37.868C56.1326 37.8672 55.1283 37.9049 54.3802 37.8647C54.2116 37.8703 52.9887 37.8919 52.4653 37.8921C51.6513 37.8923 51.9649 37.8832 51.6413 37.8824C51.5948 37.8822 51.3469 37.8856 50.664 37.8867C50.5418 37.8869 50.5701 37.8916 50.5526 37.8917C49.7565 37.8935 48.2104 37.8933 47.336 37.8946C47.2579 37.8947 46.8489 37.9094 46.1558 37.8925C45.1286 37.9087 43.1938 37.8831 41.8391 37.9073C41.6512 37.9082 41.4232 37.9036 41.3401 37.904C40.6237 37.9072 40.8862 37.9223 39.2672 37.903C39.3982 37.9107 39.0195 37.9188 38.4844 37.9195C37.6799 37.9204 38.2514 37.904 37.6047 37.9067C37.6047 37.911 37.6047 37.9153 37.6047 37.9195C36.1172 37.9114 35.8213 37.9305 34.3287 37.9342C33.7918 37.9355 32.9987 37.9276 32.8707 37.9278C32.8212 37.928 32.234 37.94 32.1779 37.9402C31.8621 37.9413 31.6838 37.9368 31.4112 37.9374C30.5103 37.9394 29.4353 37.9561 29.6297 37.9299C29.382 37.9359 29.1343 37.9419 28.8866 37.948C27.9508 37.9225 27.251 37.9623 27.0548 37.9358C26.8875 37.9417 26.7201 37.9477 26.5528 37.9537C22.539 37.9604 18.5251 37.9669 14.5113 37.9732C14.3517 37.9829 12.6014 37.9838 12.5117 37.9825C12.0995 37.9767 12.5348 37.955 11.6938 37.9616C11.6007 37.9709 11.5076 37.9803 11.4146 37.9896C10.3574 37.9951 10.8659 37.9848 10.4487 37.9795C10.2743 37.9811 10.3306 37.9881 10.0947 37.9892C9.77942 37.9906 9.38261 37.9921 8.94263 37.9936L8.52799 37.9925L8.52902 37.58C8.52448 36.2336 8.52002 34.4829 8.51706 33.428C8.51626 33.1458 8.52326 33.1884 8.52308 33.1007C8.52246 32.8598 8.51262 32.3842 8.51145 31.9006C8.50436 28.9103 8.49925 24.6731 8.50007 21.6628C8.50013 21.4583 8.50884 21.433 8.50896 21.295C8.50911 21.1038 8.50102 20.6767 8.5013 20.4756C8.50154 20.2862 8.50797 20.1648 8.50829 19.9622C8.50991 19.0346 8.49557 17.7876 8.51346 16.7952C8.51492 16.7117 8.54901 15.672 8.55139 15.6485C8.56533 15.5105 8.5891 16.4345 8.60724 14.9168C8.62768 16.2732 8.65861 15.8495 8.67198 14.0875C8.67724 14.9713 8.68245 15.855 8.68761 16.7387C8.69138 16.74 8.69514 16.7413 8.69891 16.7426C8.71657 15.9381 8.72198 15.1399 8.72237 13.9166C8.72595 13.9548 8.72953 13.9929 8.7331 14.0311C8.75187 15.1115 8.75637 16.4149 8.78078 17.2377C8.79732 16.031 8.81419 14.8243 8.83139 13.6176C8.83422 13.6778 8.83704 13.7381 8.83986 13.7984C8.84741 14.3768 8.85223 15.6404 8.85911 16.1208C8.88521 17.9555 8.87762 14.515 8.89344 15.0801C8.89336 17.0172 8.8933 18.9543 8.89325 20.8914C8.90411 20.9593 8.93449 13.5072 8.96995 13.584C8.97221 14.1928 8.97446 14.8016 8.97668 15.4105C8.98553 15.1391 8.99442 14.8678 9.00334 14.5964C9.00612 14.6712 9.00889 14.7459 9.01166 14.8207C9.01816 15.8479 9.02456 16.8751 9.03084 17.9022C9.02547 14.7793 9.03072 13.328 9.10167 12.58C9.1034 12.6646 9.10512 12.7493 9.10684 12.834C9.06232 13.5105 9.07468 16.704 9.08188 18.4012C9.09465 18.0553 9.08608 16.5609 9.09391 16.2451C9.09616 16.1556 9.10469 16.4677 9.10935 16.2604C9.12144 15.7185 9.13885 13.4094 9.15305 13.745C9.16222 13.9611 9.1706 17.6764 9.16875 18.4012C9.18712 16.7024 9.19408 14.9521 9.21678 13.2483C9.24377 14.3237 9.27666 15.2762 9.27478 17.2392C9.28823 17.8376 9.3162 13.6819 9.32465 13.5855C9.332 14.3047 9.33924 15.0239 9.3464 15.7431C9.34534 15.1348 9.34427 14.5265 9.34317 13.9182C9.34608 13.9164 9.349 13.9146 9.35191 13.9128C9.36222 15.4886 9.38345 16.9303 9.37771 18.7338C9.39285 18.6756 9.39387 17.5965 9.39522 17.0729ZM31.8651 12.532C31.8288 12.5306 32.49 12.5294 32.8623 12.5286C32.8064 12.5285 32.7504 12.5283 32.6945 12.5282C33.489 12.5267 34.9681 12.5242 35.0229 12.5208C35.5897 12.5191 35.3391 12.5225 35.5219 12.5225C35.5934 12.5225 36.3332 12.5191 36.925 12.5199C37.0656 12.5196 37.2062 12.5193 37.3469 12.519C37.3741 12.5178 37.4013 12.5166 37.4285 12.5153C37.6246 12.5163 37.8206 12.5173 38.0167 12.5183C35.9672 12.5229 33.9177 12.5275 31.8682 12.532C31.8672 12.532 31.8662 12.532 31.8651 12.532ZM52.2944 12.4869C53.0407 12.4863 54.1839 12.4856 53.953 12.481C53.4815 12.4823 53.01 12.4836 52.5385 12.4849C52.4571 12.4856 52.3757 12.4863 52.2944 12.4869ZM66.3439 37.8219C65.7206 37.8102 65.1466 37.8226 64.1825 37.8222C64.1838 37.825 64.185 37.8278 64.1863 37.8306C64.5805 37.823 65.6227 37.8253 66.3439 37.8219ZM13.3455 12.5726C13.2082 12.5728 13.0709 12.573 12.9336 12.5732C13.4921 12.5717 13.592 12.5719 14.2237 12.5707C14.2618 12.5707 14.2486 12.5705 14.2618 12.5705C14.4164 12.5702 14.5594 12.5702 14.699 12.5699C14.9683 12.5694 15.1878 12.5688 15.6649 12.568C16.0338 12.5673 16.0373 12.5677 16.1669 12.5675C16.2774 12.5673 17.372 12.5642 18.0765 12.5634C19.4163 12.5623 13.7545 12.572 13.3455 12.5726ZM9.37445 12.5792C9.50696 12.579 9.63944 12.5787 9.77194 12.5785C9.37352 12.5792 10.1776 12.5779 10.7676 12.5768C10.7493 12.577 9.50115 12.579 8.94263 12.58C9.08656 12.5797 9.23051 12.5795 9.37445 12.5792ZM26.1301 12.5524C25.6117 12.5534 25.6981 12.5516 25.7197 12.551C25.8847 12.5507 26.0498 12.5505 26.2148 12.5502C26.1866 12.5509 26.1584 12.5517 26.1301 12.5524ZM22.2307 12.5591C22.392 12.558 23.5175 12.5557 24.0511 12.5547C24.0744 12.5547 23.9279 12.5555 24.3052 12.5548C24.4185 12.5547 25.5331 12.5505 25.2878 12.5535C24.2693 12.5554 23.2508 12.5573 22.2323 12.5591C22.2318 12.5591 22.2313 12.5591 22.2307 12.5591ZM21.094 12.5604C21.3061 12.5598 21.5182 12.5592 21.7303 12.5586C21.8399 12.5588 21.9495 12.5591 22.0591 12.5593C21.8177 12.5598 21.5764 12.5603 21.3351 12.5607C21.2547 12.5606 21.1743 12.5605 21.094 12.5604ZM12.2156 37.8402C12.265 37.846 12.3143 37.8518 12.3636 37.8577C12.5548 37.861 13.4841 37.8338 13.1899 37.8293C12.8652 37.8329 12.5404 37.8365 12.2156 37.8402ZM8.68919 36.9284C8.69196 36.7351 8.69475 36.5418 8.69755 36.3486C8.68693 36.1263 8.67627 35.904 8.66558 35.6818C8.66011 36.6473 8.65386 37.6747 8.68377 37.509C8.68381 37.5327 8.68384 37.5563 8.68388 37.58L8.68323 37.8381L8.94263 37.8387C9.13997 37.8384 9.33732 37.8381 9.53467 37.8378C9.34856 37.8505 9.3736 37.8546 9.952 37.8616C10.0785 37.8441 10.6766 37.852 11.3611 37.8471C10.8632 37.8469 10.3653 37.8467 9.86731 37.8464C9.86731 37.8434 9.86731 37.8403 9.86731 37.8373C10.9434 37.8368 9.67958 37.8205 8.94263 37.8315L8.69047 37.8309L8.6911 37.58C8.69075 37.5568 8.69038 37.5341 8.68998 37.5121C8.69397 37.4551 8.69797 37.3981 8.70198 37.3412C8.69772 37.2036 8.69346 37.066 8.68919 36.9284ZM84.0837 33.0061C84.0822 33.1437 84.0807 33.2813 84.0792 33.4189C84.102 33.9521 84.0796 32.8665 84.0956 32.0937C84.083 32.349 84.0818 31.1708 84.0808 31.1034C84.0767 31.2389 84.0725 31.3745 84.0683 31.51C84.0734 32.0087 84.0785 32.5074 84.0837 33.0061ZM84.0738 36.9063C84.0786 36.6912 84.082 37.0495 84.0843 37.58L84.0839 37.7219L83.9426 37.7216C83.2966 37.7243 82.3953 37.7252 81.9636 37.7244C81.7724 37.724 81.4316 37.7181 81.2937 37.7191C81.21 37.7216 81.1264 37.7241 81.0427 37.7266C80.9436 37.7185 79.4083 37.7299 78.8035 37.7353C78.7465 37.7324 78.6895 37.7294 78.6326 37.7264C78.4121 37.7279 78.1916 37.7294 77.9711 37.731C77.9988 37.7279 78.0265 37.7247 78.0543 37.7216C77.8874 37.7255 77.7206 37.7295 77.5538 37.7335C76.8989 37.7386 77.3027 37.721 76.8107 37.727C76.2638 37.7337 77.1599 37.7425 77.1433 37.7491C77.5872 37.7467 78.5964 37.7414 79.0468 37.7405C79.3055 37.74 79.0123 37.7519 80.1272 37.737C80.3716 37.7397 80.616 37.7424 80.8604 37.745C81.309 37.7395 81.7576 37.734 82.2062 37.7286C82.2898 37.7326 82.3735 37.7366 82.4572 37.7406C82.5051 37.7412 83.5426 37.7302 83.4872 37.7273C83.6064 37.7293 83.7612 37.7308 83.9426 37.7318L84.0941 37.7322L84.0945 37.58C84.0971 37.1219 84.0969 36.4945 84.0961 35.8435C84.0938 35.756 84.0915 35.6685 84.0892 35.5811C84.0952 36.4601 84.0873 35.8608 84.0835 36.1227C84.0813 36.274 84.0772 36.7367 84.0738 36.9063ZM18.3398 37.8161C16.8637 37.8347 17.7776 37.8198 16.1822 37.8221C16.2935 37.8307 16.4049 37.8394 16.5163 37.848C17.3007 37.8307 18.5915 37.8394 18.3413 37.8161C18.3408 37.8161 18.3403 37.8161 18.3398 37.8161ZM8.65251 31.3651C8.65963 32.2093 8.67378 31.7857 8.68008 32.8558C8.68008 32.8563 8.68008 32.8569 8.68008 32.8574C8.68033 32.304 8.68059 31.7506 8.68086 31.1972C8.6714 31.2532 8.66196 31.3091 8.65251 31.3651ZM52.083 37.7826C52.8925 37.7844 52.7332 37.7793 53.4678 37.7888C54.5615 37.7742 53.6356 37.7775 53.6356 37.7657C53.3856 37.7695 53.1356 37.7733 52.8857 37.7772C52.2796 37.767 52.8544 37.7606 52.8544 37.7595C52.8539 37.7595 52.8534 37.7595 52.8528 37.7595C52.8529 37.756 52.8725 37.7552 52.64 37.7534C52.4543 37.7631 52.2687 37.7728 52.083 37.7826ZM55.5475 37.763C55.27 37.7711 55.1451 37.7812 55.8748 37.785C55.8754 37.785 55.8759 37.785 55.8764 37.785C55.9349 37.7678 56.6346 37.7805 56.9536 37.7788C57.0373 37.7769 57.121 37.7749 57.2047 37.7729C56.6523 37.7697 56.0999 37.7664 55.5475 37.763ZM67.7546 37.7313C67.7577 37.7485 67.1452 37.7511 68.0071 37.7656C68.1744 37.765 68.3418 37.7644 68.5091 37.7638C68.619 37.7599 68.7289 37.756 68.8387 37.7521C70.9614 37.7794 71.5942 37.7266 68.0071 37.7513C68.0066 37.7513 68.0061 37.7513 68.0056 37.7513C67.9219 37.7447 67.8382 37.738 67.7546 37.7313ZM64.0162 37.7377C63.9892 37.747 63.9623 37.7564 63.9353 37.7657C63.4665 37.7439 62.861 37.7664 61.9417 37.7517C61.8586 37.7547 61.7754 37.7577 61.6923 37.7607C61.3487 37.7549 57.9743 37.7577 58.7054 37.7717C59.0245 37.7777 59.7197 37.7678 59.7796 37.7679C59.9823 37.7683 60.2468 37.7762 60.5891 37.7751C60.7869 37.7745 61.2038 37.7642 61.6076 37.7637C62.5102 37.7625 64.1576 37.785 65.3445 37.7594C65.4299 37.7621 65.5154 37.7647 65.6008 37.7674C66.4815 37.7643 66.1875 37.7561 67.0069 37.7651C67.573 37.7211 63.7129 37.7723 64.5167 37.7355C64.5162 37.7355 64.5156 37.7355 64.5151 37.7355C64.3488 37.7363 64.1825 37.737 64.0162 37.7377ZM39.7677 37.7855C39.7145 37.776 38.693 37.7922 38.933 37.7689C38.5996 37.7774 38.2662 37.7859 37.9328 37.7944C37.9353 37.7966 37.9379 37.7987 37.9404 37.8009C38.2718 37.7987 38.6032 37.7965 38.9345 37.7943C38.9358 37.7977 38.9371 37.8011 38.9384 37.8045C39.4321 37.7915 41.4929 37.7938 41.4301 37.8056C41.5402 37.8005 41.6504 37.7953 41.7605 37.7902C42.7462 37.8022 43.5942 37.7866 44.668 37.798C44.7512 37.7938 44.8344 37.7897 44.9175 37.7855C44.9717 37.7887 45.0258 37.7919 45.08 37.795C45.4711 37.7948 45.8623 37.7946 46.2534 37.7944C47.528 37.7796 45.0515 37.7664 44.7512 37.7686C44.7113 37.7689 44.7175 37.7773 44.4681 37.779C44.0253 37.782 41.5465 37.777 40.7801 37.7838C40.7735 37.778 40.7669 37.7723 40.7603 37.7665C40.4294 37.7728 40.0985 37.7791 39.7677 37.7855ZM72.4909 37.7428C72.5469 37.7472 72.6028 37.7517 72.6588 37.7562C73.6243 37.7501 74.2323 37.7531 73.9847 37.7386C73.9842 37.7386 73.9837 37.7386 73.9832 37.7386C73.4858 37.74 72.9883 37.7414 72.4909 37.7428ZM48.6376 12.5206C48.6629 12.5238 49.1245 12.5244 49.721 12.5211C49.6922 12.5202 49.6635 12.5193 49.6348 12.5184C49.3239 12.5217 48.936 12.5174 47.9769 12.5195C47.9769 12.5211 47.9769 12.5227 47.9769 12.5243C48.1971 12.5231 48.4174 12.5218 48.6376 12.5206ZM71.6578 37.742C71.3635 37.737 70.5375 37.7547 71.081 37.7547C71.4965 37.7547 71.8157 37.7447 71.6578 37.742ZM8.66178 28.044C8.66054 28.2622 8.6593 28.4804 8.65807 28.6986C8.66464 28.8123 8.6712 28.9259 8.67775 29.0396C8.67775 29.0391 8.67775 29.0386 8.67775 29.0381C8.67245 28.7067 8.66713 28.3753 8.66178 28.044ZM49.3159 37.7878C50.0559 37.786 50.796 37.7842 51.536 37.7824C51.5434 37.7793 51.5508 37.7763 51.5581 37.7733C50.8168 37.7854 50.5187 37.774 50.3458 37.7735C50.3466 37.7735 50.3474 37.7735 50.3481 37.7735C49.793 37.7719 49.2642 37.7709 48.7391 37.7679C48.9313 37.7746 49.1236 37.7812 49.3159 37.7878ZM46.7791 37.7721C46.9038 37.7939 47.0666 37.7961 48.2035 37.7791C48.1585 37.7765 48.1135 37.7739 48.0685 37.7712C47.4793 37.7737 47.1357 37.7792 47.2391 37.7676C47.0858 37.7691 46.9324 37.7706 46.7791 37.7721ZM58.3681 37.7623C58.2317 37.7561 57.1489 37.7641 57.2077 37.7673C57.231 37.7685 58.6341 37.7745 58.3681 37.7623ZM40.4169 12.534C40.6664 12.534 40.9159 12.534 41.1654 12.534C40.8335 12.5351 40.5016 12.5361 40.1697 12.5371C40.2521 12.5361 40.3345 12.535 40.4169 12.534ZM37.678 12.5445C37.5001 12.5442 38.0784 12.5392 37.015 12.5397C37.7889 12.5385 38.5627 12.5373 39.3366 12.5361C38.9737 12.5373 38.6108 12.5385 38.2479 12.5397C38.3112 12.5408 38.3745 12.542 38.4379 12.5431C38.1846 12.5436 37.9313 12.5441 37.678 12.5445ZM36.8471 12.5426C37.2639 12.5452 35.0695 12.5481 34.865 12.548C34.8195 12.5479 34.603 12.5461 34.5232 12.5457C34.8546 12.5453 35.186 12.5448 35.5173 12.5444C35.4065 12.5439 35.2956 12.5433 35.1847 12.5428C35.5725 12.542 35.9604 12.5412 36.3482 12.5404C36.1824 12.5414 36.0165 12.5423 35.8507 12.5432C36.1829 12.543 36.515 12.5428 36.8471 12.5426ZM45.6515 12.5299C45.374 12.5301 45.0966 12.5304 44.8191 12.5307C44.8745 12.5321 44.93 12.5335 44.9854 12.5349C45.1515 12.5347 45.3176 12.5345 45.4836 12.5343C45.5396 12.5328 45.5955 12.5313 45.6515 12.5299ZM39.9981 12.5392C40.402 12.5325 41.5028 12.5447 40.2163 12.5413C40.0866 12.5409 39.9598 12.5399 39.9981 12.5392ZM34.0426 12.5484C33.1799 12.553 33.3745 12.545 34.1891 12.5462C34.23 12.5463 34.1073 12.5481 34.0426 12.5484ZM27.5744 12.5566C27.5045 12.5567 27.3823 12.555 26.7153 12.5576C26.6052 12.5575 26.4951 12.5575 26.3849 12.5574C26.6427 12.5563 28.8471 12.5527 28.5425 12.5551C28.2051 12.5556 27.9234 12.5562 27.5744 12.5566ZM29.7091 12.5618C30.0399 12.5615 30.3708 12.5611 30.7017 12.5608C30.5926 12.5602 30.4835 12.5596 30.3744 12.559C30.5371 12.5587 30.6999 12.5583 30.8626 12.5579C31.1409 12.5589 31.4191 12.5599 31.6973 12.5609C30.9781 12.5617 30.2589 12.5625 29.5397 12.5632C29.5962 12.5628 29.6526 12.5623 29.7091 12.5618ZM38.5058 12.5565C37.8691 12.5558 37.0891 12.5577 36.0552 12.5583C36.0547 12.5583 36.0542 12.5583 36.0537 12.5583C36.0021 12.5583 35.9107 12.5572 35.7447 12.5573C35.6032 12.5574 32.8109 12.5609 33.0286 12.5589C34.109 12.5563 34.5126 12.5586 34.7719 12.554C34.8246 12.5549 34.8772 12.5557 34.9299 12.5566C35.9688 12.5573 36.2652 12.5538 36.8487 12.5519C36.8464 12.5527 36.8441 12.5534 36.8418 12.5542C37.2314 12.5539 37.621 12.5536 38.0106 12.5533C37.9557 12.5529 37.9008 12.5524 37.8458 12.552C37.9837 12.5518 38.1215 12.5517 38.2593 12.5516C38.5951 12.5535 39.0208 12.5538 38.5058 12.5565ZM28.2084 12.5623C27.9025 12.5664 24.922 12.5662 23.5605 12.5681C24.2753 12.5657 25.3826 12.566 26.1622 12.5654C27.6692 12.5641 26.6275 12.5637 26.8832 12.5629C27.0095 12.5624 27.8643 12.5641 28.2084 12.5623ZM40.8312 12.5535C40.0799 12.5537 39.6593 12.5554 39.0093 12.5537C39.0637 12.5532 39.1182 12.5528 39.1726 12.5523C39.3952 12.5524 41.21 12.5522 40.8312 12.5535ZM21.5655 12.5691C23.0166 12.5688 22.3008 12.5669 23.0555 12.5681C22.5588 12.5687 22.0621 12.5692 21.5655 12.5697C21.5655 12.5695 21.5655 12.5693 21.5655 12.5691ZM69.9969 37.6584C69.3853 37.6583 68.7024 37.6545 68.3367 37.6635C68.7523 37.6646 69.1678 37.6656 69.5833 37.6666C69.7212 37.6639 69.859 37.6611 69.9969 37.6584ZM83.9377 34.0865C83.9359 34.2261 83.9411 34.7783 83.9411 34.8364C83.9411 34.9445 83.9385 34.915 83.9379 34.9165C83.9383 35.6241 83.9463 34.9713 83.9481 35.4948C83.9484 35.5844 83.9444 36.8142 83.9448 37.3145C83.9448 37.4032 83.9449 37.492 83.9449 37.58C83.2676 37.5825 82.6368 37.5821 82.3824 37.5823C81.897 37.5825 80.9959 37.5888 80.1981 37.5892C79.8692 37.5894 79.7544 37.5843 79.4237 37.5844C77.301 37.5853 73.1222 37.5931 71.2389 37.5898C70.7736 37.589 70.3299 37.5817 70.0838 37.5823C69.8898 37.585 69.6958 37.5877 69.5017 37.5904C68.905 37.5662 68.7053 37.5877 68.062 37.5901C67.6534 37.5916 67.4623 37.5843 67.4074 37.5843C67.0435 37.5845 66.8639 37.588 66.5781 37.5886C66.2573 37.5892 65.7964 37.5859 65.6817 37.5865C65.6113 37.5869 65.8361 37.5968 64.5914 37.5968C63.3229 37.5967 62.0706 37.5958 60.7805 37.5955C61.2109 37.6264 61.5814 37.6051 62.1081 37.6039C62.2494 37.6036 62.1598 37.6085 62.2828 37.6082C62.6302 37.6075 63.2953 37.6027 63.5828 37.6038C63.8933 37.6049 63.7872 37.6161 64.181 37.6119C64.2009 37.6116 64.1379 37.6071 64.2306 37.6063C65.1614 37.5986 65.4661 37.6064 66.643 37.6064C67.4228 37.6063 72.1582 37.601 72.3208 37.6038C73.1685 37.6184 68.1786 37.6203 67.5951 37.6193C67.3909 37.6189 67.605 37.6139 67.4189 37.613C67.34 37.6127 66.6306 37.6223 65.9296 37.6234C65.0819 37.6247 63.3783 37.6187 62.5704 37.6191C55.6256 37.6236 48.7772 37.6194 41.8391 37.6212C41.6911 37.6212 41.4963 37.6281 41.0143 37.6283C32.0182 37.6314 22.6944 37.6282 13.5836 37.6348C12.0347 37.6359 10.4958 37.6414 8.94263 37.6411L8.88131 37.641L8.88146 37.58C8.88154 37.1413 8.88208 36.7015 8.88333 36.2601C8.87704 36.0114 8.87072 35.7626 8.86438 35.5139C8.86959 36.1501 8.8561 37.3159 8.85598 37.422C8.85596 37.4385 8.85726 37.4926 8.85873 37.58L8.85852 37.6636L8.94263 37.6639C9.05809 37.6619 9.23163 37.6597 9.45303 37.6598C9.99991 37.66 10.2398 37.6659 10.2846 37.6659C10.4237 37.6658 10.3326 37.6595 10.4655 37.6595C11.4562 37.6593 12.2227 37.6572 13.1319 37.6567C14.159 37.6562 14.6797 37.6674 15.4276 37.6545C15.5123 37.6594 15.597 37.6642 15.6817 37.6691C16.2405 37.6475 19.5682 37.6486 20.9162 37.6491C21.3415 37.6493 21.2669 37.6577 21.4098 37.6576C21.5011 37.6575 21.4651 37.6466 22.5779 37.6483C23.1381 37.6492 23.285 37.6569 23.5659 37.6566C23.7185 37.6563 23.6937 37.6486 23.913 37.6485C25.1812 37.6479 26.2168 37.65 27.4584 37.6508C27.8075 37.6511 27.8113 37.6574 27.8895 37.6573C28.1771 37.6568 28.6774 37.6459 29.4085 37.6457C30.6119 37.6452 33.0104 37.6442 33.9945 37.6488C34.1391 37.6495 34.2589 37.6567 34.3653 37.6565C34.5263 37.6562 34.5895 37.6486 34.6178 37.6486C35.1564 37.6482 34.8324 37.6554 35.1931 37.6535C35.3875 37.6525 35.5903 37.6438 36.0422 37.6427C36.639 37.6411 36.5215 37.6513 36.7708 37.6502C36.7972 37.65 36.805 37.643 37.0501 37.6426C37.9793 37.6414 39.3271 37.6392 40.2064 37.6389C40.459 37.6388 40.6468 37.6433 40.9991 37.6433C41.7088 37.6431 45.7433 37.6385 46.0741 37.6409C46.109 37.6411 45.7503 37.651 46.3221 37.6504C46.4881 37.6463 46.6542 37.6422 46.8203 37.6381C47.098 37.6444 47.3757 37.6507 47.6534 37.6569C47.6434 37.6348 49.2772 37.6309 49.2609 37.6532C49.4397 37.654 49.6185 37.6548 49.7973 37.6556C50.1696 37.64 50.4174 37.6456 51.137 37.6363C51.2491 37.6409 51.3613 37.6455 51.4734 37.6501C51.5017 37.647 51.5299 37.6439 51.5581 37.6408C51.9421 37.6573 52.5719 37.6402 52.6484 37.6401C52.9425 37.6396 53.1635 37.6437 53.3015 37.6435C53.8167 37.6428 54.932 37.6366 55.5338 37.6389C55.5621 37.6391 55.5343 37.646 55.7055 37.6468C56.0143 37.6482 56.0444 37.638 56.4562 37.6497C56.5394 37.6467 56.6225 37.6437 56.7057 37.6406C56.7939 37.6421 56.8822 37.6436 56.9704 37.6451C57.4913 37.6441 58.0121 37.643 58.5329 37.642C58.0592 37.6538 58.6043 37.6599 59.1196 37.6505C59.294 37.6474 59.1393 37.6405 59.1974 37.6394C59.2772 37.638 61.6147 37.6404 61.7693 37.6447C61.8799 37.6425 61.9906 37.6403 62.1012 37.6381C62.1571 37.6423 62.2131 37.6466 62.269 37.6508C62.3301 37.6493 62.3911 37.6478 62.4521 37.6462C63.0605 37.6534 64.6394 37.6354 64.9256 37.6367C65.0785 37.6373 64.941 37.6553 65.674 37.653C65.6995 37.6481 65.7249 37.6432 65.7503 37.6383C65.9182 37.6375 66.086 37.6368 66.2539 37.636C66.5688 37.6363 67.0273 37.6444 67.042 37.6501C67.1404 37.6466 67.2388 37.6431 67.3372 37.6397C67.6015 37.6507 69.0111 37.6458 69.578 37.6387C69.7438 37.6419 69.9096 37.6451 70.0754 37.6482C70.2982 37.6441 70.521 37.64 70.7438 37.636C71.2599 37.6345 70.7147 37.6414 70.8246 37.6419C71.0574 37.6428 72.2432 37.6312 72.1651 37.6449C72.3269 37.6449 72.4886 37.6448 72.6504 37.6448C72.7335 37.6408 72.8167 37.6369 72.8998 37.633C73.1775 37.6462 73.6579 37.6412 74.6432 37.6455C74.7258 37.6424 74.8085 37.6393 74.8911 37.6362C75.1958 37.6404 75.5005 37.6445 75.8051 37.6486C75.8677 37.6436 75.9302 37.6386 75.9928 37.6336C76.1253 37.6328 76.2578 37.632 76.3903 37.6312C76.6595 37.6422 77.1429 37.63 77.389 37.6344C77.748 37.6408 77.4704 37.6488 76.8038 37.6508C76.8537 37.6588 78.8393 37.6537 79.2971 37.6528C79.2668 37.6513 79.2366 37.6498 79.2063 37.6483C78.7381 37.6498 78.2699 37.6513 77.8017 37.6529C77.4094 37.6331 78.6808 37.6377 79.2643 37.6349C79.3176 37.6346 79.62 37.627 80.208 37.6274C80.4358 37.6276 81.3241 37.6379 81.4936 37.6384C82.8628 37.6424 81.856 37.6279 83.1957 37.6404C82.9819 37.6328 83.3831 37.6357 83.9426 37.6363L83.9989 37.6365L83.999 37.58C83.9992 37.4088 83.9992 37.2229 83.9987 37.0352C83.9982 36.8988 83.9896 35.7423 83.9894 35.6642C83.9879 35.1772 83.9968 35.7074 83.9942 35.0027C83.9919 34.9181 83.9896 34.8334 83.9873 34.7487C83.9872 34.5847 83.9871 34.4206 83.987 34.2566C84.0065 33.2612 83.9916 33.0297 83.9896 32.6758C83.9888 32.5328 83.9941 32.7169 83.9928 32.3462C83.9923 32.2066 83.988 32.0518 83.9875 31.6763C83.9861 30.5013 84.0036 30.1024 83.9846 29.0221C83.9872 28.8563 83.9898 28.6904 83.9923 28.5246C83.9891 28.4127 83.9858 28.3008 83.9826 28.1889C83.9914 27.3331 83.9822 27.6421 83.9822 27.3329C83.9821 26.5167 83.9831 24.8463 83.9903 24.7C83.9733 23.9954 83.9916 23.1528 83.9907 22.8751C83.9886 22.71 83.9866 22.545 83.9845 22.3799C83.9864 22.1859 83.9883 21.9918 83.9902 21.7978C83.9743 21.8921 83.9894 20.8872 83.9896 20.7907C83.9897 20.6794 83.9843 19.1337 83.9841 18.5583C83.9839 17.9838 83.9874 16.9825 83.9874 16.8944C83.9873 16.793 83.9827 15.815 83.9824 15.0504C83.9823 14.7228 83.983 13.6058 83.9831 12.58L83.9832 12.5396L83.9426 12.5395C82.8729 12.5394 81.9024 12.5401 82.0299 12.5432C82.2893 12.5448 82.6584 12.5461 82.9775 12.5467C83.1578 12.5471 83.4979 12.5474 83.9426 12.5477L83.9749 12.5478L83.9749 12.58C83.9736 14.5788 83.9727 18.6909 83.9722 19.9065C83.971 22.8867 83.9725 25.9949 83.9718 28.9885C83.9717 29.1646 83.9673 29.1914 83.9672 29.3425C83.9671 29.5719 83.9718 30.154 83.9718 30.3801C83.9717 31.2245 83.9712 32.2519 83.9713 32.704C83.9713 33.7145 83.9687 34.4076 83.9684 35.1721C83.9683 35.4115 83.9746 36.6216 83.9724 37.451C83.972 37.494 83.9716 37.537 83.9712 37.58L83.9712 37.6086L83.9426 37.6086C83.8353 37.6076 83.728 37.6067 83.6207 37.6057C83.7045 37.6054 83.8151 37.6049 83.9426 37.6044L83.967 37.6045L83.9671 37.58C83.9651 37.0578 83.9622 36.2517 83.9617 35.8336C83.9609 35.0593 83.9647 34.6554 83.9645 34.3695C83.9644 34.1302 83.9598 32.907 83.9597 32.35C83.9596 32.1771 83.9644 32.1417 83.9644 31.9937C83.9641 31.1909 83.9637 30.1335 83.9589 29.4371C83.9605 29.7213 83.963 27.9463 83.963 27.8532C83.9629 27.6937 83.9586 27.5206 83.9585 27.1948C83.9584 26.5684 83.9673 26.6478 83.9583 25.865C83.9608 25.6712 83.9633 25.4774 83.9659 25.2837C83.9542 25.2718 83.9693 22.8231 83.9554 22.1266C83.9539 22.1083 83.9497 25.2903 83.9495 25.553C83.9482 27.1287 83.9513 29.4605 83.9493 30.9897C83.9487 31.4499 83.941 32.897 83.9411 33.0061C83.9414 33.1822 83.9458 33.0232 83.946 33.0992C83.9493 34.6562 83.9403 33.8794 83.9377 34.0865ZM36.8487 12.5603C37.3217 12.5601 37.7947 12.5599 38.2677 12.5597C38.2334 12.5606 38.1991 12.5615 38.1647 12.5624C37.9481 12.5622 37.7314 12.562 37.5147 12.5618C37.3481 12.5624 37.1816 12.563 37.015 12.5636C36.9595 12.5625 36.9041 12.5614 36.8487 12.5603ZM35.6829 12.5644C35.2727 12.565 35.2527 12.5634 35.158 12.5634C34.8755 12.5633 34.6311 12.5641 34.3569 12.5643C34.6727 12.5603 35.3455 12.5615 35.6829 12.5644ZM44.1553 12.5613C44.0629 12.561 43.4454 12.556 42.7431 12.5614C42.2177 12.5601 41.6923 12.5589 41.1669 12.5578C42.0595 12.5595 43.2947 12.5563 43.7319 12.556C43.8979 12.5559 43.9296 12.5576 44.0623 12.5576C44.8269 12.5572 45.5703 12.5527 45.6484 12.5585C44.9253 12.5573 44.2734 12.5616 44.1553 12.5613ZM39.5411 12.562C39.4188 12.561 39.2964 12.5601 39.1741 12.5592C39.6161 12.5589 40.0581 12.5586 40.5001 12.5582C40.3806 12.5594 40.261 12.5605 40.1415 12.5617C39.9414 12.5618 39.7412 12.5619 39.5411 12.562ZM73.5445 12.5492C73.2719 12.5493 72.9993 12.5494 72.7267 12.5495C72.7416 12.5511 73.0535 12.5509 73.1684 12.5519C73.1679 12.5519 73.1674 12.5519 73.1669 12.5519C73.2949 12.5531 73.2401 12.5551 73.4728 12.5559C73.4967 12.5537 73.5206 12.5514 73.5445 12.5492ZM8.88286 35.1836C8.88301 34.7266 8.88168 30.5066 8.86554 30.8661C8.85753 31.0473 8.86522 32.4906 8.86526 32.9161C8.86529 33.4898 8.84892 35.039 8.88286 35.1836ZM8.88355 27.7098C8.86704 27.6367 8.86559 30.2741 8.86851 30.5319C8.8708 30.4772 8.87591 30.3928 8.87705 30.3198C8.88251 29.9641 8.87925 28.2784 8.88355 27.7098ZM83.9602 17.449C83.9637 17.2364 83.9672 17.0238 83.9707 16.8112C83.9661 16.8672 83.9615 16.9231 83.9568 16.9791C83.9579 17.1357 83.959 17.2924 83.9602 17.449ZM83.4498 37.6085C79.908 37.6092 76.3661 37.6099 72.8243 37.6105C73.1358 37.6078 73.4474 37.605 73.7589 37.6023C76.8108 37.6026 80.0655 37.6044 83.0126 37.5999C83.1583 37.6028 83.304 37.6056 83.4498 37.6085ZM45.1533 12.5703C46.0607 12.5701 46.8187 12.5682 47.806 12.5706C46.8652 12.5734 46.3994 12.5696 45.4851 12.5734C45.4846 12.5734 45.4841 12.5734 45.4836 12.5734C45.3735 12.5724 45.2634 12.5713 45.1533 12.5703ZM65.4139 12.5659C65.138 12.5683 64.862 12.5706 64.5861 12.5729C64.918 12.5729 65.2498 12.5728 65.5817 12.5728C65.5258 12.5705 65.4698 12.5682 65.4139 12.5659ZM52.5553 37.5874C51.6061 37.5993 49.1779 37.5779 48.4064 37.5924C48.3566 37.5933 48.8152 37.5994 48.0738 37.6114C48.6338 37.6089 49.0292 37.6063 49.071 37.597C49.2373 37.6001 49.4036 37.6033 49.5699 37.6064C49.8458 37.6039 50.1218 37.6015 50.3977 37.5991C50.3678 37.6083 50.3896 37.6078 50.8135 37.6014C51.0068 37.6037 51.2001 37.606 51.3933 37.6083C51.4752 37.6044 51.5571 37.6005 51.639 37.5967C51.8063 37.602 51.9737 37.6074 52.141 37.6127C52.7933 37.6067 52.396 37.5965 52.5553 37.5874ZM55.8779 37.5893C55.7236 37.5873 51.3227 37.5942 53.3228 37.6119C53.8426 37.6112 54.3624 37.6105 54.8823 37.6098C54.4517 37.5806 55.8683 37.6066 55.9847 37.6071C56.5414 37.6098 57.2509 37.6028 57.6548 37.6031C58.0022 37.6033 58.2085 37.6084 58.4528 37.6082C59.285 37.6076 60.5996 37.6071 60.7805 37.5955C60.1336 37.5954 59.4765 37.5953 58.8038 37.5957C58.0923 37.5961 57.4669 37.5849 56.1304 37.6006C55.8 37.5989 55.9178 37.5898 55.8779 37.5893ZM63.7552 12.5725C63.7884 12.5673 62.1089 12.5689 62.0981 12.5709C62.0948 12.5721 62.6418 12.572 62.7199 12.5724C62.7204 12.5724 62.721 12.5724 62.7215 12.5724C62.754 12.5726 62.5888 12.5745 62.8458 12.5751C63.149 12.5742 63.4521 12.5734 63.7552 12.5725ZM13.1098 37.6015C12.9565 37.5954 10.5418 37.5951 8.94263 37.5969L8.9256 37.5969L8.92564 37.58C8.92475 36.8108 8.92336 36.2303 8.9219 36.1807C8.92065 36.1392 8.91656 36.1971 8.9142 36.1807C8.91884 36.6007 8.91999 37.0822 8.91952 37.58L8.91946 37.603L8.94263 37.6031C9.87872 37.604 10.8722 37.6106 11.6221 37.6111C11.9422 37.6113 11.8466 37.6049 11.8647 37.6047C11.8654 37.6047 11.8662 37.6047 11.867 37.6047C12.0487 37.6047 12.8689 37.6202 13.1098 37.6015ZM46.7455 37.5984C46.966 37.6004 47.1865 37.6024 47.407 37.6044C47.4629 37.6004 47.5189 37.5964 47.5748 37.5924C47.5743 37.5924 47.5738 37.5924 47.5733 37.5924C47.2974 37.5944 47.0214 37.5964 46.7455 37.5984ZM39.1062 37.5855C39.1599 37.5885 39.2135 37.5915 39.2672 37.5944C39.8223 37.5948 40.3775 37.5951 40.9327 37.5955C40.8767 37.5972 40.8208 37.5988 40.7648 37.6005C41.6043 37.6048 41.9519 37.5945 42.399 37.5959C42.3985 37.5959 42.398 37.5959 42.3975 37.5959C42.4457 37.5961 42.5039 37.6021 42.6829 37.6023C43.0933 37.6027 44.2695 37.6047 44.4117 37.5987C44.7125 37.5859 42.3453 37.5921 41.9039 37.5916C41.7044 37.5913 41.4645 37.586 41.3431 37.5859C41.2102 37.5858 41.0291 37.593 40.7053 37.5928C40.6106 37.5928 39.5601 37.5843 39.1062 37.5855ZM29.307 37.5954C29.4782 37.6025 29.8356 37.5956 29.9669 37.5967C29.9983 37.597 29.7543 37.603 30.0501 37.6048C30.1338 37.6007 30.2174 37.5966 30.3011 37.5925C29.9697 37.5935 29.6384 37.5944 29.307 37.5954ZM60.9331 12.5752C60.9814 12.5757 61.8831 12.5755 61.9265 12.5751C62.4667 12.5706 60.599 12.5714 60.9331 12.5752ZM38.1769 12.5801C38.5917 12.5837 33.6704 12.58 33.1934 12.5803C33.2172 12.5784 34.388 12.5803 33.7748 12.5777C34.3599 12.5791 35.9774 12.5782 36.3581 12.5787C36.5891 12.5789 36.6474 12.5808 36.6823 12.5808C36.8193 12.5811 38.0307 12.5789 38.1769 12.5801ZM29.127 12.5792C29.5946 12.5795 30.0623 12.5798 30.53 12.5801C29.9781 12.5803 29.4263 12.5804 28.8744 12.5806C28.9586 12.5801 29.0428 12.5797 29.127 12.5792ZM28.5387 12.5799C28.5537 12.5814 26.9662 12.5802 26.549 12.5805C27.0194 12.5782 27.8041 12.5804 28.5387 12.5799ZM54.9517 12.5846C55.6831 12.587 55.9974 12.5764 55.1081 12.581C55.081 12.5812 54.9212 12.5845 54.9517 12.5846ZM52.3295 37.5451C52.2048 37.5449 50.6538 37.5347 50.564 37.5395C50.2802 37.555 51.2979 37.549 51.639 37.5549C52.1892 37.5645 51.38 37.5721 52.7231 37.5666C52.6682 37.5696 52.6133 37.5727 52.5583 37.5758C53.3444 37.5768 53.0871 37.5556 53.2282 37.5529C53.2714 37.5521 53.7628 37.554 53.8515 37.5526C54.9592 37.536 52.4451 37.5453 52.3295 37.5451ZM73.057 12.5876C74.5131 12.5922 73.8867 12.5856 75.3809 12.5862C75.4308 12.5827 73.2465 12.5848 73.057 12.5876ZM66.5079 37.5597C65.002 37.5619 63.7636 37.5536 62.3591 37.5643C62.4505 37.5812 66.8986 37.5638 66.5079 37.5597ZM9.00155 24.3887C8.96758 28.506 8.96566 33.0672 8.96667 37.58L8.94263 37.5559C10.852 37.5554 12.7527 37.5543 14.6075 37.5544C15.2873 37.5545 15.3525 37.5638 15.5985 37.5628C15.7597 37.5622 15.7315 37.5547 15.9456 37.5547C23.6867 37.5544 31.0989 37.547 38.5142 37.5524C38.9812 37.5529 41.2536 37.5668 41.7391 37.5464C42.1063 37.531 40.4739 37.5426 40.2018 37.5425C39.9973 37.5423 39.9886 37.5349 39.8524 37.5348C39.7077 37.5348 39.8272 37.5399 39.6593 37.5399C38.9479 37.5401 38.1717 37.5378 37.5284 37.5381C31.2202 37.5405 25.0832 37.5379 18.8082 37.5353C18.0486 37.535 18.2048 37.5282 18.1666 37.5282C18.1661 37.5282 18.1655 37.5282 18.165 37.5283C15.2733 37.5269 12.0898 37.5336 8.94263 37.5354L8.98722 37.58C8.98654 36.2949 8.98675 35.0159 8.9889 33.7653C8.99474 30.7277 9.00084 27.6902 9.0072 24.6527C9.00532 24.5647 9.00343 24.4767 9.00155 24.3887ZM55.5453 37.5646C55.1663 37.5446 55.0815 37.5647 53.7218 37.5563C53.6112 37.5597 53.5006 37.5632 53.39 37.5666C54.1091 37.5659 54.8284 37.5653 55.5475 37.5646C55.5468 37.5646 55.546 37.5646 55.5453 37.5646ZM46.5647 37.5558C46.3349 37.5269 43.2944 37.5465 41.9253 37.5406C41.6743 37.5554 43.6646 37.5492 44.134 37.5508C44.3684 37.5517 45.6235 37.5668 46.5777 37.5587C46.5733 37.5577 46.569 37.5567 46.5647 37.5558ZM43.326 12.5907C43.5473 12.5906 43.7685 12.5904 43.9898 12.5903C43.4361 12.5893 42.8825 12.5884 42.3289 12.5875C43.2121 12.5882 44.0953 12.5889 44.9785 12.5897C44.814 12.5912 44.6495 12.5927 44.4849 12.5942C44.0986 12.593 43.7123 12.5918 43.326 12.5907ZM46.1916 12.5908C44.6449 12.591 46.2596 12.5871 46.6456 12.5891C46.8766 12.5903 46.3495 12.5908 46.1916 12.5908ZM50.2146 12.595C49.4933 12.5979 48.0355 12.5974 48.5537 12.5916C49.3333 12.5947 49.8358 12.5925 50.9661 12.5946C50.801 12.5957 50.636 12.5969 50.4709 12.598C50.4702 12.598 50.4694 12.598 50.4687 12.598C50.384 12.597 50.2993 12.596 50.2146 12.595ZM45.4851 12.594C44.4721 12.5904 47.4049 12.5925 46.4831 12.5943C46.4399 12.5944 45.525 12.5941 45.4851 12.594ZM9.02813 30.8661C9.01914 30.744 9.01898 31.5232 9.01827 31.7824C9.01514 32.906 9.01842 34.347 9.0167 35.5154C9.01964 35.4275 9.02258 35.3395 9.02553 35.2515C9.02639 33.7897 9.02726 32.3279 9.02813 30.8661ZM10.5334 37.5075C11.3362 37.5078 12.1391 37.5081 12.942 37.5085C13.0168 37.5085 13.3677 37.5014 13.1068 37.4995C12.249 37.5021 11.3912 37.5048 10.5334 37.5075ZM60.6135 37.5284C59.9979 37.5246 61.7705 37.508 61.6907 37.5267C61.3316 37.5272 60.9726 37.5278 60.6135 37.5284ZM66.3416 37.5236C65.9556 37.5251 65.5695 37.5267 65.1835 37.5282C65.183 37.5262 65.1825 37.5241 65.1819 37.522C65.5685 37.5225 65.9551 37.5231 66.3416 37.5236ZM9.0361 27.7098C9.02477 28.1187 9.02606 29.0942 9.02555 29.7026C9.03521 29.2836 9.03104 28.2848 9.0361 27.7098ZM51.3903 37.5164C51.4402 37.5218 48.9915 37.5194 49.8392 37.5101C50.3562 37.5122 50.8733 37.5143 51.3903 37.5164ZM46.4167 37.5056C46.9419 37.5047 47.3487 37.5068 47.2407 37.5156C46.9622 37.5151 46.6837 37.5146 46.4052 37.5141C46.4091 37.5113 46.4129 37.5084 46.4167 37.5056ZM52.9604 12.6014C53.8454 12.6016 54.7304 12.6018 55.6154 12.6019C55.5826 12.6027 55.5498 12.6035 55.517 12.6043C54.6638 12.6042 53.8106 12.604 52.9574 12.6038C52.9584 12.603 52.9594 12.6022 52.9604 12.6014ZM9.06566 27.2093C9.06393 26.6015 9.06218 25.9937 9.06041 25.3859C9.05782 25.9942 9.05525 26.6025 9.0527 27.2108C9.05704 27.2108 9.06138 27.2108 9.06572 27.2108C9.0657 27.2103 9.06568 27.2098 9.06566 27.2093ZM40.8365 12.6028C43.5402 12.6075 40.0904 12.6075 39.377 12.6032C39.3763 12.6032 39.3755 12.6032 39.3748 12.6032C39.3123 12.6029 39.4444 12.6014 39.3404 12.6007C39.6156 12.6016 39.8908 12.6025 40.1659 12.6034C40.4169 12.6027 40.6679 12.602 40.9189 12.6012C41.0016 12.6016 41.0842 12.602 41.1669 12.6025C41.0568 12.6026 40.9467 12.6027 40.8365 12.6028ZM29.925 12.5959C27.4735 12.5939 29.9819 12.5931 31.1953 12.5961C31.1866 12.5966 30.1508 12.5961 29.925 12.5959ZM36.3497 12.6001C36.736 12.6 37.1223 12.6 37.5086 12.5999C37.558 12.6004 37.6073 12.6008 37.6566 12.6013C37.3601 12.6015 37.0636 12.6017 36.767 12.6019C36.6279 12.6013 36.4888 12.6007 36.3497 12.6001ZM49.0542 12.6185C49.6758 12.6198 50.4688 12.6138 48.4728 12.6138C48.4738 12.6145 48.4748 12.6152 48.4759 12.6159C48.5554 12.6159 48.7889 12.6154 48.8016 12.6155C48.8382 12.6157 48.7951 12.618 49.0542 12.6185ZM25.3855 12.6001C25.3157 12.6002 25.2777 12.603 24.5516 12.5991C24.3321 12.599 24.1127 12.5989 23.8932 12.5988C23.8365 12.5981 23.7798 12.5974 23.7231 12.5968C24.5725 12.5982 24.6625 12.5971 24.724 12.5971C25.0064 12.5973 24.7974 12.5977 24.9796 12.5979C25.45 12.5985 26.5188 12.5992 26.034 12.6007C25.8595 12.6013 25.4553 12.6001 25.3855 12.6001ZM27.0464 12.6041C26.9434 12.6036 27.2753 12.6031 27.1975 12.6027C27.1293 12.6024 26.1056 12.6002 26.3827 12.5989C26.5508 12.5991 26.7189 12.5994 26.887 12.5996C26.9439 12.6002 27.0009 12.6007 27.0579 12.6012C27.2206 12.601 27.3834 12.6007 27.5461 12.6005C27.8204 12.6019 28.4041 12.6042 27.7109 12.6043C27.9658 12.6045 28.2206 12.6047 28.4754 12.605C28.6074 12.6045 28.7394 12.6041 28.8714 12.6037C28.8022 12.6045 28.733 12.6053 28.6639 12.6061C28.1247 12.6054 27.5856 12.6047 27.0464 12.6041ZM19.1469 12.5934C19.178 12.5932 19.209 12.593 19.24 12.5928C18.3042 12.592 16.8468 12.5903 17.6745 12.5901C18.9422 12.5914 20.21 12.5927 21.4777 12.594C21.5619 12.5943 21.6461 12.5946 21.7303 12.595C20.7845 12.593 21.0768 12.5969 20.254 12.5948C20.1153 12.5944 20.5178 12.5938 19.6459 12.5934C19.6769 12.5937 19.708 12.594 19.739 12.5943C19.5416 12.594 19.3443 12.5937 19.1469 12.5934ZM11.1017 12.5827C12.7042 12.5849 10.9391 12.5828 10.6432 12.5822C10.6437 12.5822 10.6442 12.5822 10.6447 12.5822C9.83387 12.5809 11.5775 12.5832 11.6839 12.5833C11.8253 12.5835 12.1546 12.5834 12.9236 12.5851C12.3163 12.5843 11.709 12.5835 11.1017 12.5827ZM16.3332 12.5897C16.1986 12.5895 16.2731 12.5894 16.215 12.5893C16.2144 12.5893 16.214 12.5893 16.2134 12.5893C15.3557 12.5883 13.3156 12.5857 13.0945 12.585C13.7294 12.5857 16.5704 12.5889 16.7422 12.5897C16.6058 12.5897 16.4695 12.5897 16.3332 12.5897ZM22.3688 12.5965C22.8954 12.5981 21.71 12.5967 21.3991 12.5959C21.3405 12.5957 21.8233 12.5948 22.3688 12.5965ZM62.7611 12.6563C63.9197 12.6555 62.3975 12.6511 62.9244 12.648C62.7032 12.6481 62.4819 12.6481 62.2607 12.6481C62.4275 12.6508 62.5943 12.6536 62.7611 12.6563ZM77.3028 37.4137C77.0327 37.4124 77.1607 37.4171 77.1372 37.4172C76.9598 37.4168 76.7926 37.4128 76.7245 37.4131C75.4658 37.4186 76.3028 37.4238 76.3155 37.4247C76.3421 37.4292 76.0112 37.4341 76.4696 37.4398C76.7478 37.4386 77.0261 37.4374 77.3043 37.4362C77.4424 37.4388 77.5805 37.4415 77.7186 37.4441C78.2713 37.4395 77.548 37.4372 77.466 37.43C77.4345 37.4271 77.9544 37.4246 77.3028 37.4137ZM64.8371 12.6671C65.0249 12.6633 65.4853 12.6587 65.0332 12.6539C65.0327 12.6539 65.0322 12.6539 65.0316 12.6539C64.948 12.6531 64.6075 12.6522 64.5029 12.651C63.7571 12.6555 64.0428 12.6613 64.8371 12.6671ZM82.2932 37.4081C82.7418 37.4106 83.1904 37.4131 83.639 37.4155C83.6313 37.4199 83.6237 37.4244 83.6161 37.4288C83.376 37.4272 83.136 37.4257 82.8959 37.4241C82.8117 37.426 82.7275 37.4279 82.6433 37.4298C82.9414 37.4354 83.2395 37.4409 83.5375 37.4463C83.6725 37.4458 83.8076 37.4453 83.9426 37.4449L83.8075 37.58C83.8067 37.3559 83.8059 37.1319 83.8052 36.9078C83.8026 37.0729 83.8001 37.2379 83.7975 37.403C83.7962 36.5253 83.8066 36.7164 83.8116 35.99C83.8079 35.7413 83.8043 35.4926 83.8006 35.2438C83.8052 34.8837 83.8097 34.5236 83.8141 34.1635C83.8131 33.5585 83.8102 33.5053 83.8051 33.9125C83.8004 33.6117 83.8089 33.2823 83.8073 32.9199C83.8072 32.89 83.8023 32.9464 83.8023 32.9199C83.8019 31.0466 83.8141 31.1462 83.8151 30.847C83.8157 30.6359 83.8086 29.793 83.8058 29.7797C83.8022 29.7634 83.7842 31.5165 83.7884 28.7711C83.7757 30.1905 83.7835 31.8042 83.8006 30.7608C83.7983 31.21 83.7992 33.1911 83.7985 33.3174C83.7975 33.5015 83.7917 33.437 83.7911 33.6676C83.7908 33.8039 83.8041 34.165 83.7903 35.2438C83.7924 35.3817 83.7945 35.5195 83.7966 35.6573C83.7945 35.7865 83.7924 35.9157 83.7903 36.0449C83.784 35.7789 83.7777 35.5129 83.7715 35.2469C83.7763 36.1764 83.7649 36.9663 83.7694 37.58L83.9426 37.4068C83.8606 37.4074 83.7817 37.4083 83.7061 37.4095C83.1514 37.4072 82.8818 37.4054 83.1202 37.3997C82.9536 37.3994 82.787 37.3991 82.6205 37.3988C82.5114 37.4019 82.4023 37.405 82.2932 37.4081ZM68.2413 12.6662C68.7927 12.6711 68.9909 12.6625 68.9051 12.6619C68.4216 12.6585 67.9544 12.6637 68.2413 12.6662ZM78.3037 37.4235C78.912 37.4285 79.5204 37.4333 80.1287 37.4381C80.1287 37.4332 80.1287 37.4284 80.1287 37.4236C79.5204 37.4235 78.912 37.4235 78.3037 37.4235ZM62.5918 12.6617C62.5358 12.6598 62.4799 12.6578 62.4239 12.6558C61.7576 12.6617 61.0961 12.651 60.7668 12.6526C60.6954 12.6529 60.8396 12.6563 60.9759 12.6572C61.0606 12.6577 62.4737 12.6622 62.5918 12.6617ZM34.8536 12.619C35.1018 12.6188 35.35 12.6185 35.5982 12.6183C35.5845 12.6193 35.5707 12.6203 35.557 12.6213C35.4344 12.6213 35.3118 12.6213 35.1893 12.6213C35.0774 12.6206 34.9655 12.6198 34.8536 12.619ZM37.678 12.6215C38.1207 12.6222 38.5635 12.6229 39.0063 12.6237C37.3175 12.6223 38.7034 12.6248 37.678 12.6248C37.678 12.6237 37.678 12.6226 37.678 12.6215ZM42.1595 12.6306C42.1051 12.6313 42.0506 12.632 41.9962 12.6327C41.5535 12.632 41.1107 12.6313 40.6679 12.6306C40.9479 12.6336 41.2279 12.6367 41.5079 12.6399C41.6702 12.6402 41.8324 12.6405 41.9947 12.6408C42.0496 12.6374 42.1046 12.634 42.1595 12.6306ZM65.3429 37.3742C65.0753 37.3736 64.1441 37.3805 64.184 37.3837C64.5708 37.3882 64.9576 37.3927 65.3445 37.3971C65.3462 37.3916 65.348 37.386 65.3498 37.3805C65.4045 37.3833 65.4591 37.3862 65.5138 37.389C65.7338 37.3873 65.9538 37.3856 66.1738 37.3839C66.2846 37.3889 66.3955 37.3939 66.5064 37.3989C66.6178 37.3936 66.7292 37.3883 66.8406 37.383C65.7784 37.3715 65.815 37.3812 65.5939 37.3808C65.4818 37.3805 65.4109 37.377 65.3712 37.3752C65.3617 37.3749 65.3523 37.3746 65.3429 37.3742ZM78.7241 37.3928C77.4559 37.3893 76.731 37.4013 75.8135 37.3886C76.402 37.4132 80.2019 37.3956 81.5417 37.4167C81.6808 37.4133 81.8199 37.41 81.959 37.4066C81.2295 37.4086 80.724 37.4003 80.3683 37.3986C80.0857 37.3972 80.1152 37.4011 80.0936 37.401C80.0926 37.401 80.0916 37.401 80.0905 37.401C79.429 37.3983 79.2243 37.3942 78.7241 37.3928ZM61.6495 12.6694C61.9903 12.6729 62.5866 12.6736 62.5933 12.6693C62.2614 12.6675 61.9295 12.6657 61.5977 12.6639C61.6658 12.6651 61.5914 12.6688 61.6495 12.6694ZM42.6745 12.639C42.9404 12.6404 43.5687 12.6407 43.2978 12.6378C43.2491 12.6373 42.6233 12.6379 42.9903 12.6342C42.3805 12.6333 42.5232 12.6382 42.6745 12.639ZM83.8079 21.1264C83.8081 20.9026 83.8083 20.6788 83.8084 20.455C83.8058 20.4029 83.8032 20.3507 83.8006 20.2986C83.803 20.5745 83.8055 20.8505 83.8079 21.1264ZM58.7733 12.6673C58.4757 12.6588 57.9674 12.6656 57.4091 12.6583C57.2029 12.6579 56.9966 12.6575 56.7904 12.6571C56.7899 12.6571 56.7894 12.6571 56.7888 12.6571C56.7833 12.6592 56.7777 12.6613 56.7721 12.6634C57.4391 12.6647 58.1062 12.666 58.7733 12.6673ZM83.7777 35.0806C83.78 34.9427 83.7822 34.8049 83.7844 34.6671C83.7825 34.4216 83.7806 34.1762 83.7787 33.9308C83.7768 34.0636 83.775 34.1963 83.7731 34.3291C83.7746 34.5796 83.7762 34.8301 83.7777 35.0806ZM55.1478 12.6616C55.8692 12.6638 56.1405 12.6577 55.218 12.6561C54.8291 12.6555 54.3919 12.6593 55.1478 12.6616ZM51.5612 37.3572C51.8084 37.3592 52.0556 37.3612 52.3028 37.3632C52.3869 37.3594 52.4711 37.3557 52.5553 37.352C52.2239 37.3537 51.8926 37.3555 51.5612 37.3572ZM39.2534 12.6325C39.2824 12.6317 39.3114 12.6309 39.3404 12.63C39.5609 12.6306 39.7814 12.6311 40.0019 12.6317C39.9465 12.6325 39.891 12.6333 39.8356 12.6341C39.6415 12.6336 39.4475 12.6331 39.2534 12.6325ZM53.2244 37.3624C53.422 37.3634 53.6196 37.3645 53.8172 37.3655C53.95 37.3639 54.0827 37.3623 54.2155 37.3606C54.0306 37.3585 53.8457 37.3563 53.6608 37.3542C53.5153 37.3569 53.3699 37.3596 53.2244 37.3624ZM48.3095 12.6489C48.5871 12.6509 49.6959 12.6483 48.6971 12.6456C48.0607 12.6438 48.2679 12.6487 48.3095 12.6489ZM46.8134 12.6477C47.8706 12.6521 47.0779 12.6378 45.8163 12.6439C47.0863 12.645 46.7513 12.6474 46.8134 12.6477ZM37.517 12.6361C37.4904 12.636 37.4685 12.6346 37.2561 12.6341C36.4915 12.6325 35.4821 12.63 34.9352 12.6289C33.6205 12.6264 29.5934 12.6205 29.1224 12.6168C29.0243 12.616 29.25 12.6146 29.2101 12.6144C29.0931 12.614 28.4195 12.6137 28.5441 12.6126C29.205 12.6137 29.866 12.6148 30.5269 12.6159C30.3647 12.6167 30.2025 12.6174 30.0402 12.618C31.6871 12.6205 31.1419 12.6196 31.6157 12.6181C31.8944 12.6195 32.1731 12.6208 32.4518 12.6223C33.0586 12.6224 33.6654 12.6225 34.2722 12.6226C34.1346 12.6231 33.997 12.6236 33.8595 12.624C34.7736 12.627 34.5197 12.6257 35.0199 12.6247C35.0209 12.6255 35.0219 12.6263 35.0229 12.627C35.9056 12.6267 36.0775 12.6294 36.2704 12.6298C36.6659 12.6307 37.1701 12.6215 38.679 12.6341C39.3152 12.6303 39.3007 12.6405 39.6746 12.636C40.7514 12.6438 38.7035 12.6377 37.7344 12.6357C37.7339 12.6357 37.7334 12.6357 37.7329 12.6357C37.6598 12.6355 37.7759 12.6366 37.517 12.6361ZM43.0483 12.6411C42.3964 12.645 44.9718 12.6505 44.1195 12.6411C43.9926 12.6407 43.8657 12.6402 43.7388 12.6397C43.5081 12.6402 43.2774 12.6406 43.0468 12.6411C43.0473 12.6411 43.0478 12.6411 43.0483 12.6411ZM67.2457 12.6903C69.631 12.6911 68.2748 12.6834 67.4669 12.687C67.3058 12.6877 67.2174 12.6888 67.2457 12.6903ZM76.9121 37.3771C76.8773 37.379 76.8425 37.3809 76.8076 37.3828C77.6075 37.3825 79.1543 37.3927 79.1331 37.3798C78.3928 37.3789 77.6524 37.378 76.9121 37.3771ZM83.24 37.381C83.0682 37.38 82.3664 37.3768 82.4511 37.3816C82.7552 37.3855 83.0594 37.3894 83.3636 37.3932C83.5052 37.3914 83.6469 37.3897 83.7885 37.3879C83.5907 37.3868 83.2865 37.3813 83.24 37.381Z" fill="#DCCEBD"/>
<path d="M11.8626 37.58C11.8093 37.58 11.7826 37.5 11.7826 37.34C11.7826 37.18 11.8093 37.1 11.8626 37.1C12.796 37.1 13.5026 37.0333 13.9826 36.9C14.4893 36.7666 14.8626 36.5 15.1026 36.1C15.3426 35.7 15.5293 35.1133 15.6626 34.34L18.9026 15.82C19.0893 14.8333 19.076 14.1933 18.8626 13.9C18.676 13.58 18.1826 13.42 17.3826 13.42H16.7426C15.8093 13.42 14.916 13.6733 14.0626 14.18C13.236 14.6866 12.5026 15.3933 11.8626 16.3C11.2226 17.2066 10.716 18.2733 10.3426 19.5C10.316 19.58 10.2226 19.6066 10.0626 19.58C9.92929 19.5266 9.87596 19.4733 9.90263 19.42C10.0093 19.0466 10.1426 18.54 10.3026 17.9C10.4893 17.2333 10.676 16.5133 10.8626 15.74C11.0493 14.9666 11.2226 14.22 11.3826 13.5C11.5426 12.7533 11.6626 12.1533 11.7426 11.7C11.796 11.62 11.8893 11.5933 12.0226 11.62C12.1826 11.62 12.2493 11.66 12.2226 11.74C12.1693 12.14 12.3426 12.38 12.7426 12.46C13.1426 12.54 13.4893 12.58 13.7826 12.58C14.7693 12.6066 15.916 12.6333 17.2226 12.66C18.556 12.6866 19.8493 12.7 21.1026 12.7C22.7026 12.7 24.0493 12.6866 25.1426 12.66C26.236 12.6066 27.236 12.58 28.1426 12.58C28.8893 12.58 29.4626 12.5266 29.8626 12.42C30.2893 12.2866 30.596 12.0066 30.7826 11.58C30.836 11.5 30.9293 11.4733 31.0626 11.5C31.196 11.5 31.2493 11.5533 31.2226 11.66C31.116 12.06 30.9693 12.6333 30.7826 13.38C30.6226 14.1 30.4493 14.86 30.2626 15.66C30.1026 16.46 29.956 17.2066 29.8226 17.9C29.6893 18.5666 29.596 19.0733 29.5426 19.42C29.516 19.5 29.4226 19.54 29.2626 19.54C29.1026 19.5133 29.036 19.4466 29.0626 19.34C29.3026 18.1666 29.2893 17.14 29.0226 16.26C28.7826 15.3533 28.3293 14.66 27.6626 14.18C27.0226 13.6733 26.196 13.42 25.1826 13.42H24.5426C23.716 13.42 23.1693 13.5933 22.9026 13.94C22.6626 14.2866 22.4626 14.94 22.3026 15.9L19.0626 34.34C18.9293 35.1133 18.9026 35.7 18.9826 36.1C19.0626 36.5 19.3293 36.7666 19.7826 36.9C20.236 37.0333 20.9426 37.1 21.9026 37.1C21.956 37.1 21.9826 37.18 21.9826 37.34C21.9826 37.5 21.956 37.58 21.9026 37.58C21.236 37.58 20.476 37.5666 19.6226 37.54C18.796 37.5133 17.876 37.5 16.8626 37.5C15.9293 37.5 15.036 37.5133 14.1826 37.54C13.3293 37.5666 12.556 37.58 11.8626 37.58ZM33.332 37.94C32.532 37.94 32.012 37.6333 31.772 37.02C31.532 36.38 31.5453 35.38 31.812 34.02L33.452 25.7C33.7187 24.3133 33.5053 23.62 32.812 23.62C32.5453 23.62 32.1987 23.7666 31.772 24.06C31.3453 24.3266 30.8787 24.74 30.372 25.3C30.2653 25.4066 30.1587 25.4066 30.052 25.3C29.9453 25.1666 29.932 25.0466 30.012 24.94C30.972 23.82 31.8253 23.02 32.572 22.54C33.3453 22.0333 34.092 21.78 34.812 21.78C35.612 21.78 36.132 22.0733 36.372 22.66C36.612 23.2466 36.612 24.14 36.372 25.34L34.692 34.02C34.5587 34.7933 34.5587 35.3266 34.692 35.62C34.8253 35.9133 35.0253 36.06 35.292 36.06C35.5853 36.06 35.9187 35.9266 36.292 35.66C36.692 35.3666 37.132 34.9933 37.612 34.54C37.7187 34.4333 37.8253 34.4333 37.932 34.54C38.0387 34.6466 38.0387 34.7533 37.932 34.86C37.0787 35.8466 36.292 36.6066 35.572 37.14C34.852 37.6733 34.1053 37.94 33.332 37.94ZM35.972 17.42C35.332 17.42 34.812 17.2466 34.412 16.9C34.0387 16.5266 33.852 15.9933 33.852 15.3C33.852 14.7133 34.0387 14.2466 34.412 13.9C34.812 13.5266 35.332 13.34 35.972 13.34C36.612 13.34 37.1053 13.5266 37.452 13.9C37.7987 14.2466 37.972 14.7133 37.972 15.3C37.972 16.7133 37.3053 17.42 35.972 17.42ZM43.8948 38.06C43.3081 38.06 42.7481 37.9533 42.2148 37.74C41.6815 37.5266 41.2948 37.14 41.0548 36.58C40.8148 35.9933 40.7881 35.1666 40.9748 34.1L42.5748 25.34C42.7348 24.4333 42.7348 23.8466 42.5748 23.58C42.4415 23.3133 41.9881 23.18 41.2148 23.18C41.1081 23.18 41.0548 23.0866 41.0548 22.9C41.0815 22.7133 41.1348 22.62 41.2148 22.62C42.3881 22.62 43.3481 22.2866 44.0948 21.62C44.8681 20.9266 45.4548 20.1266 45.8548 19.22C45.8815 19.14 46.0148 19.1133 46.2548 19.14C46.4948 19.1666 46.6015 19.2333 46.5748 19.34L44.0948 33.22C43.9081 34.2066 43.9748 34.94 44.2948 35.42C44.6148 35.8733 45.1881 36.1 46.0148 36.1C46.6281 36.1 47.2148 35.9666 47.7748 35.7C48.3615 35.4066 48.9481 35.0066 49.5348 34.5C49.5881 34.4466 49.6681 34.4733 49.7748 34.58C49.9081 34.6866 49.9348 34.78 49.8548 34.86C48.6548 36.0066 47.5881 36.8333 46.6548 37.34C45.7215 37.82 44.8015 38.06 43.8948 38.06ZM49.8948 24.02C49.8415 24.02 49.5615 23.9933 49.0548 23.94C48.5481 23.86 47.9348 23.78 47.2148 23.7C46.5215 23.62 45.8148 23.58 45.0948 23.58L45.1748 22.5C46.0015 22.5 46.8015 22.4733 47.5748 22.42C48.3481 22.3666 49.0281 22.3133 49.6148 22.26C50.2281 22.2066 50.6548 22.18 50.8948 22.18C51.0281 22.18 51.1081 22.2333 51.1348 22.34C51.1881 22.42 51.2015 22.5133 51.1748 22.62C51.1481 22.8333 50.9881 23.1266 50.6948 23.5C50.4281 23.8466 50.1615 24.02 49.8948 24.02ZM54.6079 37.94C53.7813 37.94 53.2479 37.62 53.0079 36.98C52.7946 36.34 52.8079 35.3533 53.0479 34.02L56.8079 13.62C57.0213 12.4466 56.9546 11.7266 56.6079 11.46C56.2613 11.1933 55.5146 11.34 54.3679 11.9C54.2613 11.9533 54.1813 11.9 54.1279 11.74C54.0746 11.58 54.1013 11.4866 54.2079 11.46L60.0479 8.57996C60.1813 8.52662 60.3013 8.55329 60.4079 8.65995C60.5146 8.76662 60.5546 8.84662 60.5279 8.89996L56.0079 34.02C55.8213 34.7933 55.7946 35.3266 55.9279 35.62C56.0879 35.9133 56.2879 36.06 56.5279 36.06C56.8213 36.06 57.1546 35.9133 57.5279 35.62C57.9279 35.3266 58.3546 34.9533 58.8079 34.5C58.9146 34.3933 59.0213 34.3933 59.1279 34.5C59.2346 34.6066 59.2346 34.7133 59.1279 34.82C58.3013 35.8066 57.5279 36.58 56.8079 37.14C56.0879 37.6733 55.3546 37.94 54.6079 37.94ZM66.9736 38.06C65.4802 38.06 64.3069 37.6866 63.4536 36.94C62.6002 36.1666 62.0402 35.18 61.7736 33.98C61.5336 32.78 61.5469 31.5133 61.8136 30.18C62.0002 29.1666 62.3736 28.1533 62.9336 27.14C63.4936 26.1 64.1869 25.1666 65.0136 24.34C65.8669 23.5133 66.8269 22.86 67.8936 22.38C68.9602 21.8733 70.1069 21.62 71.3336 21.62C72.3736 21.62 73.1469 21.8066 73.6536 22.18C74.1869 22.5533 74.4136 23.0866 74.3336 23.78C74.2536 24.4466 73.8936 25.1 73.2536 25.74C72.6402 26.3533 71.8136 26.9133 70.7736 27.42C69.7602 27.9 68.6269 28.3133 67.3736 28.66C66.1202 29.0066 64.8269 29.26 63.4936 29.42L63.5736 28.9C65.5202 28.6066 67.1469 28.1266 68.4536 27.46C69.7869 26.7666 70.5602 25.82 70.7736 24.62C70.9069 23.98 70.8269 23.5 70.5336 23.18C70.2402 22.86 69.8402 22.7 69.3336 22.7C68.6402 22.7 68.0136 22.98 67.4536 23.54C66.8936 24.0733 66.4136 24.8066 66.0136 25.74C65.6402 26.6733 65.3602 27.7133 65.1736 28.86C64.9336 30.2733 64.9069 31.5533 65.0936 32.7C65.3069 33.82 65.7469 34.7266 66.4136 35.42C67.0802 36.0866 67.9602 36.42 69.0536 36.42C69.6136 36.42 70.2269 36.3266 70.8936 36.14C71.5602 35.9533 72.2002 35.6333 72.8136 35.18C72.8669 35.1266 72.9336 35.1533 73.0136 35.26C73.1202 35.3666 73.1469 35.4466 73.0936 35.5C72.0802 36.4333 71.0536 37.1 70.0136 37.5C68.9736 37.8733 67.9602 38.06 66.9736 38.06ZM78.9561 38.02C77.8094 38.02 76.8361 37.7533 76.0361 37.22C75.2361 36.6866 74.8894 36.0333 74.9961 35.26C75.0761 34.8066 75.2627 34.46 75.5561 34.22C75.8761 33.9533 76.2227 33.82 76.5961 33.82C77.0494 33.82 77.3961 33.98 77.6361 34.3C77.9027 34.5933 78.1427 34.94 78.3561 35.34C78.5961 35.7133 78.8761 36.06 79.1961 36.38C79.5427 36.6733 80.0094 36.82 80.5961 36.82C81.1561 36.82 81.5827 36.6733 81.8761 36.38C82.1694 36.06 82.3694 35.58 82.4761 34.94C82.5827 34.0866 82.4494 33.3666 82.0761 32.78C81.7027 32.1666 81.1961 31.62 80.5561 31.14C79.9427 30.66 79.3427 30.1666 78.7561 29.66C78.1694 29.1533 77.7027 28.5933 77.3561 27.98C77.0094 27.34 76.9161 26.5933 77.0761 25.74C77.2094 25.02 77.5427 24.3666 78.0761 23.78C78.6094 23.1666 79.2894 22.6733 80.1161 22.3C80.9427 21.9266 81.8361 21.74 82.7961 21.74C83.9427 21.74 84.8627 21.9533 85.5561 22.38C86.2494 22.78 86.5561 23.3133 86.4761 23.98C86.4227 24.46 86.2227 24.8333 85.8761 25.1C85.5561 25.34 85.2227 25.46 84.8761 25.46C84.3427 25.46 83.9427 25.3266 83.6761 25.06C83.4361 24.7933 83.2361 24.4866 83.0761 24.14C82.9161 23.7666 82.7027 23.4466 82.4361 23.18C82.1961 22.9133 81.7827 22.78 81.1961 22.78C80.6894 22.78 80.3027 22.9133 80.0361 23.18C79.7694 23.4466 79.5961 23.7666 79.5161 24.14C79.3827 24.9133 79.5027 25.5933 79.8761 26.18C80.2494 26.7666 80.7427 27.3133 81.3561 27.82C81.9961 28.3 82.6094 28.8066 83.1961 29.34C83.8094 29.8733 84.2894 30.46 84.6361 31.1C85.0094 31.74 85.1294 32.4866 84.9961 33.34C84.8627 34.0333 84.5161 34.7533 83.9561 35.5C83.4227 36.22 82.7294 36.82 81.8761 37.3C81.0227 37.78 80.0494 38.02 78.9561 38.02Z" fill="#DCCEBD"/>
</g>
<defs>
<filter id="filter0_dii_90_3309" x="0" y="0" width="97.0959" height="48.5599" filterUnits="userSpaceOnUse" color-interpolation-filters="sRGB">
<feFlood flood-opacity="0" result="BackgroundImageFix"/>
<feColorMatrix in="SourceAlpha" type="matrix" values="0 0 0 0 0 0 0 0 0 0 0 0 0 0 0 0 0 0 127 0" result="hardAlpha"/>
<feOffset dx="1" dy="1"/>
<feGaussianBlur stdDeviation="4.75"/>
<feColorMatrix type="matrix" values="0 0 0 0 0 0 0 0 0 0 0 0 0 0 0 0 0 0 0.5 0"/>
<feBlend mode="normal" in2="BackgroundImageFix" result="effect1_dropShadow_90_3309"/>
<feBlend mode="normal" in="SourceGraphic" in2="effect1_dropShadow_90_3309" result="shape"/>
<feColorMatrix in="SourceAlpha" type="matrix" values="0 0 0 0 0 0 0 0 0 0 0 0 0 0 0 0 0 0 127 0" result="hardAlpha"/>
<feOffset dx="-0.5" dy="-0.5"/>
<feComposite in2="hardAlpha" operator="arithmetic" k2="-1" k3="1"/>
<feColorMatrix type="matrix" values="0 0 0 0 0.0862745 0 0 0 0 0.0862745 0 0 0 0 0.0862745 0 0 0 1 0"/>
<feBlend mode="normal" in2="shape" result="effect2_innerShadow_90_3309"/>
<feColorMatrix in="SourceAlpha" type="matrix" values="0 0 0 0 0 0 0 0 0 0 0 0 0 0 0 0 0 0 127 0" result="hardAlpha"/>
<feOffset dx="0.75" dy="0.75"/>
<feComposite in2="hardAlpha" operator="arithmetic" k2="-1" k3="1"/>
<feColorMatrix type="matrix" values="0 0 0 0 1 0 0 0 0 0.909804 0 0 0 0 0.811765 0 0 0 1 0"/>
<feBlend mode="normal" in2="effect2_innerShadow_90_3309" result="effect3_innerShadow_90_3309"/>
</filter>
</defs>
</svg>
