<svg width="136" height="49" viewBox="0 0 136 49" fill="none" xmlns="http://www.w3.org/2000/svg">
<g filter="url(#filter0_dii_90_3309)">
<path d="M12.4726 18.6904C12.5474 24.3803 12.4501 28.2642 12.4286 33.5425C12.4231 34.8452 12.4184 36.1943 12.4141 37.58L12.02 37.1859C22.9946 37.2188 36.2576 37.2198 46.8095 37.2389C55.8046 37.2547 64.9448 37.2739 73.8856 37.2912C74.3441 37.2921 74.6178 37.2991 74.8257 37.2994C76.7833 37.3032 80.066 37.3024 82.0079 37.3063C86.0929 37.3143 93.2007 37.3244 96.9421 37.3354C98.5309 37.3401 100.161 37.3435 100.778 37.3576C101.359 37.3591 101.675 37.3476 101.827 37.3472C101.829 37.3472 101.831 37.3472 101.832 37.3472C102.321 37.346 103.553 37.3561 103.826 37.3559C103.866 37.3559 103.616 37.347 104.276 37.3506C104.335 37.3509 104.28 37.3566 104.836 37.3575C104.981 37.3577 106.84 37.3516 107.371 37.3519C109.139 37.3529 113.361 37.3659 115.475 37.3688C115.798 37.3693 115.984 37.3664 116.325 37.3669C116.502 37.3671 116.766 37.3709 116.82 37.371C117.058 37.3712 118.097 37.3575 117.724 37.387C118.809 37.3865 118.489 37.3763 118.514 37.3699C119.691 37.3708 120.259 37.3854 120.566 37.3712C121.384 37.3727 122.202 37.3742 123.02 37.3757L122.816 37.58C122.825 32.6078 122.833 27.6356 122.842 22.6635C122.84 22.6617 122.838 22.66 122.836 22.6583C122.847 20.9516 122.834 20.3662 122.847 19.3919C122.845 18.7911 122.844 18.1904 122.842 17.5896C122.845 15.9193 122.849 14.2493 122.852 12.58L123.02 12.7484C109.258 12.7241 95.5343 12.7096 81.9199 12.6881C81.2756 12.6871 81.1147 12.6843 80.0522 12.6827C78.879 12.6809 77.229 12.6812 75.6829 12.6788C74.3266 12.6766 72.3257 12.6714 70.8134 12.6688C70.4721 12.6683 70.2251 12.6692 70.1867 12.6692C69.9607 12.6688 69.9494 12.6666 69.7302 12.6662C69.4679 12.6658 69.1511 12.6669 68.8482 12.6663C67.7162 12.6642 66.4826 12.6629 66.3393 12.6626C65.6489 12.6614 65.4965 12.6592 65.4397 12.6591C64.6717 12.6578 64.9596 12.6599 64.7684 12.6595C63.7759 12.6575 63.0744 12.6524 61.7158 12.6543C61.7528 12.6528 61.7898 12.6514 61.8268 12.6499C60.787 12.6476 61.4738 12.6525 61.2613 12.6529C61.1746 12.6531 58.9364 12.6493 58.7638 12.649C58.1626 12.6478 58.1465 12.646 58.0945 12.6459C57.9679 12.6457 56.4555 12.6455 55.68 12.6428C54.7626 12.6397 55.8425 12.6377 55.6147 12.6367C55.5762 12.6365 54.6158 12.6356 54.4868 12.6344C54.3445 12.6331 55.175 12.6341 55.1623 12.6336C55.1532 12.6332 53.7742 12.6292 54.0386 12.6279C54.2511 12.6265 56.1221 12.6307 56.5184 12.6304C56.5839 12.6303 56.4605 12.6281 56.5184 12.6281C56.7512 12.6281 61.062 12.6326 61.2592 12.6332C61.0348 12.634 60.8103 12.6348 60.5858 12.6356C60.8843 12.6361 61.1828 12.6365 61.4813 12.637C61.0569 12.6373 60.6325 12.6377 60.2081 12.638C60.8388 12.6474 62.7384 12.6411 62.8167 12.6365C62.8506 12.6345 61.6894 12.6281 62.77 12.626C62.6057 12.6253 62.4414 12.6246 62.2771 12.624C61.9385 12.6245 61.5999 12.6251 61.2613 12.6256C61.4868 12.6264 61.7123 12.6271 61.9378 12.6279C61.8548 12.6284 61.7718 12.6289 61.6888 12.6295C61.0558 12.6298 60.4229 12.6301 59.79 12.6304C59.4646 12.6296 59.5322 12.628 59.3085 12.6274C56.519 12.6205 58.3385 12.6275 56.5122 12.6249C56.2514 12.6238 55.9906 12.6227 55.7299 12.6216C55.8219 12.6252 55.0129 12.6222 54.0344 12.6227C54.1513 12.6217 54.2682 12.6207 54.3851 12.6197C52.9677 12.6189 50.0943 12.6112 50.8698 12.6175C50.545 12.6167 50.2202 12.6159 49.8954 12.6151C49.6212 12.6158 49.3469 12.6164 49.0726 12.617C48.6936 12.6165 48.3145 12.616 47.9354 12.6156C47.9337 12.6151 47.932 12.6146 47.9302 12.6142C48.2325 12.6145 48.5348 12.6147 48.8371 12.615C48.6102 12.6134 48.3833 12.6118 48.1564 12.6102C47.9333 12.6102 47.7103 12.6103 47.4872 12.6103C48.4229 12.6124 47.1892 12.6135 46.8906 12.6149C46.1017 12.6148 45.5977 12.612 45.3331 12.6117C45.2088 12.6116 43.7442 12.6139 44.3184 12.6103C43.5647 12.6101 42.8111 12.6099 42.0574 12.6096C41.7628 12.609 41.4681 12.6084 41.1734 12.6079C41.8129 12.6067 39.9595 12.603 41.3249 12.6034C42.3444 12.6037 42.5957 12.6056 43.0795 12.606C43.5156 12.6063 43.7462 12.6053 44.2208 12.6056C47.4129 12.6078 50.013 12.6101 53.0446 12.6132C53.6435 12.6138 54.1883 12.6135 54.5906 12.6139C55.0448 12.6144 54.4757 12.616 55.0544 12.616C55.6621 12.616 55.7935 12.6144 55.954 12.6144C56.0538 12.6145 56.3703 12.6163 56.6616 12.6165C57.8586 12.6175 59.6126 12.6174 59.7827 12.6175C59.9748 12.6176 63.3601 12.6219 63.5222 12.6224C63.6081 12.6226 63.4299 12.6291 64.1759 12.6226C64.4087 12.6227 64.6414 12.6227 64.8742 12.6228C64.8365 12.6241 64.7988 12.6254 64.7611 12.6268C66.1401 12.6228 65.6658 12.6252 66.9951 12.626C70.178 12.6276 74.8734 12.6327 78.3547 12.6351C79.1321 12.6356 79.4283 12.6338 80.3479 12.6344C81.2023 12.6348 83.4333 12.6432 82.9481 12.6338C84.8493 12.6432 85.1548 12.6296 86.1066 12.639C86.2217 12.6379 86.3369 12.6367 86.4521 12.6355C87.4852 12.6418 87.804 12.6372 88.9319 12.6373C89.418 12.6374 88.8577 12.643 89.8388 12.637C90.0263 12.6376 90.2137 12.6383 90.4012 12.6389C90.3576 12.6404 90.314 12.6419 90.2704 12.6433C91.36 12.643 91.4303 12.6438 91.306 12.6381C91.832 12.6395 92.3581 12.6409 92.8842 12.6424C92.9495 12.6405 93.0149 12.6387 93.0803 12.6368C92.8282 12.6331 80.8836 12.6301 79.22 12.6301C77.2692 12.6251 73.3502 12.6266 71.7742 12.6246C71.1435 12.6238 70.8648 12.6205 69.947 12.6195C69.0295 12.6185 67.8748 12.6204 67.3862 12.6201C65.7586 12.6192 58.0471 12.6133 63.2919 12.6135C63.1411 12.6121 62.9903 12.6107 62.8395 12.6093C60.7553 12.6125 61.51 12.6102 59.7806 12.6087C59.0527 12.6081 57.3214 12.6097 57.418 12.6044C58.7699 12.6042 60.2061 12.6067 61.3817 12.6073C61.4982 12.6073 62.89 12.6054 63.6063 12.6065C64.2524 12.6075 63.8076 12.6131 65.2135 12.6073C66.2577 12.6144 66.8614 12.6088 67.1372 12.6083C67.6139 12.6074 67.6661 12.6107 68.1426 12.6114C68.6617 12.6121 69.0191 12.6101 69.09 12.6101C69.8018 12.6104 73.5093 12.612 73.6793 12.6136C73.5302 12.6142 73.3811 12.6148 73.2321 12.6153C74.1949 12.6169 73.9937 12.613 74.2468 12.6127C74.4353 12.6128 74.6238 12.6129 74.8123 12.613C74.7376 12.6138 74.6629 12.6145 74.5882 12.6153C75.7253 12.6158 74.8552 12.6125 76.4694 12.6134C77.4943 12.614 78.5529 12.6178 78.6525 12.6176C78.6818 12.6175 78.3592 12.6152 78.777 12.6151C79.4686 12.615 80.6644 12.6157 80.7982 12.6188C81.1369 12.6186 81.1081 12.6155 81.1531 12.6155C81.3497 12.6153 84.7336 12.6159 85.3398 12.616C87.0195 12.6163 88.8895 12.618 90.7094 12.6183C90.8965 12.6183 90.7771 12.6205 90.9646 12.6205C91.2656 12.6205 92.811 12.6178 93.0419 12.6176C93.6181 12.6172 95.1338 12.6194 95.3723 12.6184C95.4062 12.6183 94.9074 12.6149 95.4906 12.6142C96.1381 12.6134 95.7895 12.6175 95.8247 12.6176C97.1425 12.6196 97.9746 12.617 98.8742 12.6168C99.1658 12.6167 99.7038 12.6203 100.115 12.6195C100.163 12.6194 100.069 12.6162 100.115 12.6161C100.737 12.6147 101.319 12.6208 101.588 12.6213C102.246 12.6226 101.887 12.618 101.922 12.618C102.36 12.618 102.95 12.6199 103.617 12.62C106.59 12.6203 109.016 12.621 112.176 12.6227C112.573 12.6229 113.044 12.6266 113.105 12.6266C113.292 12.6267 113.239 12.6226 113.781 12.6229C114.925 12.6236 115.986 12.6238 117.118 12.6244C117.346 12.6245 117.444 12.6285 117.617 12.6286C118.2 12.6292 120.189 12.6195 120.222 12.6327C121.355 12.6218 122.115 12.6315 123.02 12.6323L122.968 12.58C122.968 12.5996 122.968 12.6194 122.968 12.6392C122.967 14.8456 122.968 18.3004 122.965 20.5001C122.965 20.9632 122.961 21.1804 122.96 21.438C122.96 21.9001 122.961 24.5414 122.96 24.6795C122.959 24.9508 122.942 24.7882 122.956 26.183C122.957 27.0007 122.95 26.9041 122.949 27.0732C122.945 28.3912 122.961 29.6734 122.946 29.4338C122.949 30.9683 122.957 31.9629 122.943 32.5891C122.95 32.581 122.953 33.3027 122.95 34.1725C122.939 33.2819 122.932 33.3921 122.935 31.2382C122.935 31.2042 122.94 31.269 122.94 31.235C122.941 30.9275 122.939 30.2859 122.939 29.7617C122.94 29.2373 122.943 29.5285 122.943 29.3186C122.943 29.1265 122.938 29.1329 122.938 28.8548C122.939 27.9529 122.938 27.1547 122.938 26.6416C122.938 26.3184 122.943 25.9566 122.943 25.7057C122.943 24.7358 122.942 22.6806 122.943 21.4464C122.943 21.1892 122.947 21.2971 122.948 20.7346C122.948 20.6688 122.944 20.4292 122.943 19.9366C122.943 19.4439 122.945 19.0619 122.945 18.7455C122.945 18.481 122.941 18.5915 122.941 18.0493C122.941 17.6611 122.946 13.8315 122.947 12.58L123.02 12.6527C122.814 12.6525 122.678 12.6522 122.638 12.6521C122.238 12.651 122.048 12.6458 121.804 12.6462C121.761 12.6464 121.688 12.6513 121.539 12.6515C119.084 12.6557 113.65 12.6454 110.845 12.6438C104.981 12.6401 99.5711 12.639 93.6551 12.6357C93.5496 12.6363 93.4441 12.6369 93.3386 12.6374C93.9366 12.6379 94.5346 12.6383 95.1326 12.6388C95.1364 12.6405 95.1402 12.6423 95.144 12.6441C95.9525 12.645 95.8454 12.6407 95.8226 12.6381C96.1218 12.6394 96.421 12.6407 96.7202 12.642C96.9782 12.6359 98.9735 12.6415 100.002 12.6422C100.671 12.6427 101.467 12.6408 101.82 12.6412C102.565 12.6421 102.546 12.6462 102.604 12.6463C102.704 12.6465 103.744 12.6436 104.495 12.6442C105.604 12.6452 105.725 12.6519 107.243 12.6474C109.19 12.6522 111.346 12.6521 113.444 12.653C113.045 12.6593 114.925 12.6544 115.773 12.6551C118.027 12.657 120.506 12.6596 123.02 12.6624L122.938 12.58C122.934 15.834 122.93 19.1458 122.926 22.1021C122.925 22.7755 122.92 23.2843 122.919 23.6595C122.919 23.863 122.925 23.9518 122.924 24.2344C122.924 24.284 122.918 24.3185 122.917 24.8445C122.914 26.1534 122.92 29.4138 122.909 30.239C122.908 32.686 122.907 35.133 122.906 37.58L123.02 37.4657C120.992 37.4647 118.964 37.4639 116.936 37.463C116.823 37.4604 116.711 37.4579 116.598 37.4554C115.748 37.4672 112.387 37.4571 110.748 37.4562C107.864 37.4549 104.183 37.4561 101.656 37.4546C101.107 37.4542 100.657 37.4499 100.137 37.4496C99.9132 37.4494 99.635 37.4544 99.4022 37.4542C96.7889 37.4526 93.2505 37.4443 90.6169 37.4422C84.6375 37.4376 79.0062 37.4322 72.9476 37.4274C52.5413 37.4112 32.2524 37.406 12.02 37.3858L12.2142 37.58C12.2142 37.5771 12.2142 37.5743 12.2142 37.5715C12.2145 37.3003 12.2237 37.3138 12.2239 37.1036C12.2254 35.8625 12.22 33.091 12.2215 31.6894C12.2227 30.5726 12.2387 28.8001 12.2244 28.4158C12.2054 31.3848 12.2001 34.4795 12.1948 37.58L12.02 37.4051C13.0626 37.4069 14.1058 37.4087 15.1451 37.4109C15.4388 37.4115 15.4753 37.4201 15.5114 37.4203C16.1801 37.4237 15.7578 37.4116 16.7275 37.4117C17.0516 37.4119 20.0449 37.4409 19.6888 37.4137C20.4057 37.4251 25.459 37.4335 26.4342 37.4306C26.7303 37.4298 26.5207 37.4219 26.5795 37.4216C26.8347 37.42 26.95 37.4308 27.1782 37.4312C27.7863 37.4322 29.333 37.4247 29.6269 37.4249C30.3031 37.4255 32.3303 37.4353 33.2232 37.4339C34.0416 37.4326 33.8884 37.4217 34.5959 37.4212C35.1536 37.4209 34.5461 37.4295 35.7913 37.433C36.4084 37.4348 38.5671 37.4298 39.0919 37.4302C39.6163 37.4305 40.1998 37.4372 40.9232 37.4372C41.9653 37.4372 44.2321 37.4353 45.2925 37.434C45.3558 37.434 45.5101 37.4261 45.6661 37.4264C45.9892 37.4269 45.8921 37.4367 46.1361 37.4378C46.3802 37.439 50.6081 37.4406 51.3262 37.4412C51.8211 37.4416 52.1629 37.4362 52.4364 37.4364C52.6511 37.4366 52.674 37.4445 52.8929 37.4448C52.9608 37.4448 53.5377 37.4383 54.1142 37.4389C54.6589 37.4395 56.727 37.4473 56.9666 37.4475C57.1225 37.4476 56.9515 37.442 57.4127 37.4424C57.833 37.4429 58.1091 37.4502 58.3486 37.4504C58.9045 37.451 59.5259 37.4454 60.1157 37.4458C61.8111 37.4468 61.7239 37.4554 61.8256 37.4558C62.1077 37.4567 62.2207 37.4489 62.3133 37.4488C62.7042 37.4484 63.6623 37.4476 64.0108 37.4475C64.4449 37.4474 64.6287 37.455 65.0899 37.4553C65.4336 37.4555 66.1278 37.4488 66.9119 37.449C68.6797 37.4493 70.782 37.4495 72.5181 37.4509C73.0358 37.4514 73.1152 37.4579 73.2734 37.4582C74.1051 37.4596 74.5707 37.4527 74.808 37.453C76.5013 37.4548 79.5216 37.4679 81.0928 37.4697C81.7326 37.4705 84.5335 37.4673 86.1137 37.4692C86.2945 37.4694 86.1252 37.474 86.3264 37.4734C86.8076 37.4719 86.763 37.4623 87.0071 37.4628C87.1248 37.463 87.3935 37.4686 87.7365 37.4693C89.5156 37.4732 90.7391 37.4699 91.5507 37.4707C99.3454 37.4785 107.294 37.4857 114.573 37.4909C115.385 37.4914 116.391 37.4874 117.616 37.4927C117.654 37.4952 117.692 37.4976 117.729 37.5001C117.772 37.4977 117.815 37.4953 117.858 37.493C119.246 37.4925 119.77 37.4899 121.188 37.4937C121.31 37.4941 121.682 37.5051 121.913 37.4918C122.877 37.4991 122.816 37.4965 123.02 37.4941L122.934 37.58C122.933 37.4867 122.932 37.3381 122.932 37.0114C122.932 35.9693 122.935 34.9567 122.937 33.9463C122.942 33.3924 122.951 35.7165 122.951 35.8679C122.951 36.1119 122.944 36.3655 122.944 36.6005C122.943 36.9546 122.944 37.3028 122.944 37.58L123.02 37.504C122.752 37.5043 122.551 37.504 122.474 37.501C121.575 37.5068 122.695 37.5043 122.582 37.5098C121.982 37.5072 121.381 37.5045 120.781 37.5018C120.475 37.5212 117.157 37.4938 117.388 37.509C117.124 37.5059 116.86 37.5027 116.596 37.4995C115.439 37.518 114.758 37.5043 113.215 37.4975C113.326 37.5001 113.437 37.5026 113.549 37.5052C113.517 37.5062 112.155 37.5096 112.642 37.4991C111.245 37.5126 111.304 37.4888 110.052 37.5054C109.308 37.5073 109.756 37.4974 108.424 37.4969C107.635 37.4965 106.656 37.5013 105.774 37.5013C105.571 37.5012 105.483 37.4952 105.302 37.4951C105.121 37.495 105.033 37.5009 104.814 37.5009C104.362 37.501 103.776 37.4965 103.493 37.4968C103.24 37.497 102.878 37.502 102.268 37.5026C100.137 37.5045 100.781 37.4972 100.444 37.4944C100.082 37.4915 99.8223 37.5014 99.1013 37.4999C99.029 37.4997 99.2161 37.4935 98.981 37.4936C98.7913 37.4937 98.6959 37.5006 98.0679 37.5016C97.8178 37.5019 93.9351 37.5016 93.3437 37.5014C92.4372 37.5012 90.4178 37.4941 89.4797 37.4937C89.1181 37.4935 88.7318 37.4992 88.3477 37.499C87.0749 37.4982 85.0373 37.4968 83.4232 37.4957C81.9697 37.4948 79.4182 37.4798 78.6223 37.4918C76.5813 37.4924 76.0856 37.4814 75.9318 37.4812C75.5158 37.4805 75.3232 37.4876 74.7987 37.4877C68.0055 37.4885 59.06 37.4792 52.6263 37.4765C39.1301 37.4711 25.5674 37.4688 12.02 37.4603L12.1397 37.58C12.1406 36.1461 12.1416 34.7124 12.1427 33.279C12.1383 33.2389 12.134 33.1988 12.1297 33.1586C12.1269 34.5451 12.1212 36.1219 12.1177 37.58L12.02 37.4823C12.4235 37.4832 12.8178 37.484 13.1965 37.4845C15.5295 37.4875 18.9902 37.4718 20.7015 37.5006C20.0075 37.5029 18.8768 37.4916 18.8971 37.5062C20.1377 37.5076 21.3783 37.509 22.619 37.5104C22.582 37.5038 22.5449 37.4971 22.5079 37.4905C23.8033 37.489 25.1281 37.491 26.428 37.4906C26.6538 37.4905 26.4939 37.4845 26.6905 37.4846C26.9105 37.4846 26.7613 37.4906 26.8026 37.4907C27.3586 37.4909 27.5264 37.4849 27.5942 37.485C27.7683 37.4853 27.633 37.4911 28.1348 37.4929C29.0658 37.4962 29.7325 37.4813 29.5138 37.5065C29.8144 37.5066 30.1149 37.5067 30.4155 37.5068C30.4933 37.5 30.5711 37.4931 30.6489 37.4863C32.4977 37.5146 33.3502 37.4668 34.3718 37.5052C34.7087 37.4995 35.0456 37.4939 35.3824 37.4882C35.5723 37.495 35.7622 37.5018 35.9521 37.5086C35.9891 37.5028 36.0261 37.4971 36.0631 37.4914C37.8782 37.4963 39.8108 37.4902 41.5468 37.4916C42.7561 37.4925 43.0458 37.4948 44.1169 37.4948C46.4996 37.4948 44.1335 37.5049 46.1133 37.5174C46.0102 37.5106 45.9071 37.5038 45.8041 37.497C46.132 37.4947 46.4598 37.4924 46.7877 37.49C47.016 37.4956 47.2443 37.5012 47.4725 37.5067C48.4851 37.4788 49.1411 37.5019 49.279 37.5019C49.3904 37.5019 49.7729 37.4852 50.9713 37.4999C50.4744 37.4768 51.8855 37.5002 51.9985 37.5003C52.106 37.5005 53.4798 37.4959 54.0374 37.4964C54.476 37.4967 55.4117 37.5019 56.0649 37.5019C56.6416 37.502 56.5831 37.4944 56.6252 37.4943C57.335 37.494 56.8902 37.4997 57.4034 37.5002C57.9165 37.5006 58.3147 37.4944 58.4254 37.495C58.4812 37.4953 58.2948 37.5023 58.5499 37.503C59.235 37.5051 60.4738 37.4995 61.2581 37.5C61.5361 37.5002 61.8865 37.5062 62.196 37.5065C62.6707 37.5069 62.8925 37.4993 63.1683 37.4996C63.2642 37.4998 63.8764 37.5119 64.6375 37.5103C64.7823 37.51 65.2076 37.4853 65.7726 37.5207C65.8162 37.5158 65.8598 37.5108 65.9034 37.5059C68.4557 37.4949 69.1659 37.5345 70.3007 37.5001C72.1539 37.5047 70.8817 37.5177 71.0851 37.5198C71.2166 37.5212 71.8208 37.5177 71.8872 37.5179C72.0048 37.5183 71.9846 37.5227 72.1134 37.5227C74.4758 37.5226 73.4269 37.5142 74.1751 37.5094C75.9542 37.498 77.3422 37.5252 74.2477 37.5161C74.2477 37.5185 74.2477 37.5209 74.2477 37.5232C75.0097 37.5212 76.9439 37.5229 76.298 37.5346C75.7894 37.5439 71.2006 37.5368 73.7995 37.5507C74.3895 37.5537 74.6952 37.545 75.717 37.5617C76.3927 37.5626 76.4901 37.5413 77.4052 37.55C77.2547 37.5426 77.1043 37.5351 76.9538 37.5276C78.2016 37.5183 79.7411 37.5317 80.6995 37.5278C81.0252 37.5265 82.1985 37.4923 81.9249 37.5268C82.4725 37.5248 85.0514 37.5319 85.5306 37.529C85.6458 37.5283 85.7959 37.5103 87.4636 37.5172C87.5795 37.5195 87.6954 37.5218 87.8112 37.524C86.2859 37.5301 88.9796 37.5374 88.248 37.554C87.9994 37.5464 86.7899 37.5415 86.5952 37.5376C86.2629 37.5309 87.2527 37.5227 85.9913 37.5246C85.1961 37.5529 87.4697 37.5404 87.1223 37.5672C88.7784 37.5548 88.9439 37.5667 89.3188 37.5672C90.9215 37.5693 91.9301 37.5666 93.4423 37.5698C93.8108 37.5645 91.0732 37.5565 90.7341 37.5587C91.982 37.5398 89.8342 37.5385 88.9277 37.5498C88.8516 37.5439 88.7755 37.538 88.6994 37.5321C89.8794 37.5357 91.0305 37.5375 92.1992 37.5331C92.2753 37.5353 92.3514 37.5375 92.4275 37.5396C92.1653 37.5428 91.9032 37.546 91.641 37.5492C92.6129 37.5546 92.03 37.5378 93.325 37.5527C93.3651 37.5463 93.4053 37.5398 93.4454 37.5334C94.687 37.5359 95.9287 37.5384 97.1703 37.5407C97.8168 37.5283 100.206 37.5338 99.7685 37.5496C100.733 37.5509 99.5423 37.5422 100.446 37.5385C100.839 37.5369 101.608 37.5367 101.798 37.541C101.716 37.556 100.566 37.5577 100.218 37.5681C100.429 37.5714 105.779 37.5613 105.302 37.5785C105.729 37.5805 105.533 37.5717 106.303 37.5695C108.462 37.5635 111.806 37.5805 113.545 37.5598C111.503 37.5478 110.9 37.56 109.335 37.5604C108.336 37.5606 102.244 37.5619 103.604 37.5463C103.381 37.5483 103.157 37.5503 102.933 37.5522C102.707 37.5475 102.481 37.5427 102.255 37.5379C102.892 37.5374 103.529 37.5369 104.167 37.5364C104.319 37.5411 104.471 37.5458 104.623 37.5505C104.694 37.5472 104.764 37.5439 104.834 37.5406C105.102 37.54 105.371 37.5394 105.639 37.5388C105.564 37.5428 105.488 37.5467 105.413 37.5507C105.827 37.5514 106.24 37.5522 106.654 37.5529C106.543 37.5476 106.431 37.5424 106.32 37.5371C108.268 37.5363 107.608 37.5394 108.689 37.5494C109.495 37.5505 108.133 37.5402 109.839 37.5382C111.824 37.5358 110.522 37.5511 113.092 37.5483C113.129 37.5458 113.166 37.5433 113.203 37.5408C113.768 37.5435 114.334 37.5461 114.899 37.5487C114.824 37.5456 114.749 37.5425 114.675 37.5394C115.841 37.5409 117.449 37.5356 117.835 37.5476C116.653 37.5415 116.664 37.5624 116.972 37.5663C117.312 37.5705 120.166 37.5705 123.02 37.5697L123.01 37.58C123.009 35.1117 123.008 32.6434 123.007 31.8005C123.007 29.4767 123.013 27.7204 123.004 25.5978C122.997 27.0362 123.002 32.0944 122.997 33.0529C122.996 33.1479 122.978 33.1211 122.998 33.7315C122.996 34.8984 122.997 36.2006 122.998 37.58L123.02 37.5579C122.075 37.5585 121.093 37.5592 120.094 37.5588C120.169 37.5535 120.244 37.5481 120.319 37.5428C121.611 37.5528 122.82 37.5364 123.02 37.5443L122.984 37.58C122.986 37.5461 122.988 37.5411 122.991 37.5696C122.991 37.269 122.991 36.9685 122.991 36.6679C122.987 36.6679 122.984 36.6679 122.98 36.6679C122.98 36.2148 122.981 35.7617 122.981 35.3087C122.984 35.3087 122.988 35.3087 122.991 35.3087C122.991 34.9334 122.991 34.5581 122.991 34.1829C122.988 34.1438 122.985 34.1047 122.981 34.0656C122.988 32.9419 122.971 29.111 122.99 30.7951C122.991 30.2673 122.991 29.7395 122.991 29.2117C122.988 29.2135 122.986 29.2152 122.984 29.2169C122.983 28.99 122.983 28.7631 122.983 28.5363C122.985 28.611 122.987 28.6857 122.989 28.7604C122.986 27.7206 122.997 26.735 122.99 26.0522C122.988 26.5026 122.986 26.9529 122.985 27.4032C122.988 26.5395 122.982 24.9485 122.982 24.8061C122.982 24.3721 122.987 24.1432 122.987 23.673C122.988 23.2486 122.984 23.307 122.984 23.2279C122.989 20.9383 123.007 21.8109 122.985 20.7418C122.988 20.628 122.991 20.5142 122.994 20.4005C122.992 20.249 122.989 20.0975 122.987 19.946C122.987 19.2698 122.988 18.5936 122.988 17.9175C122.984 18.143 122.98 18.3685 122.977 18.594C122.975 17.5805 122.983 17.1078 122.983 17.0096C122.984 16.7318 122.979 16.6047 122.979 16.5188C122.981 12.3886 122.984 14.8972 123.002 12.8333C123.001 12.7115 122.999 12.6303 122.998 12.58L123.02 12.6016C122.916 12.6038 122.944 12.6061 123.02 12.6084L122.992 12.58C122.988 12.6887 122.985 12.895 122.982 12.9464C122.982 12.8129 122.982 12.6919 122.983 12.58L123.02 12.6173C122.311 12.6154 121.962 12.6166 121.069 12.616C120.801 12.6158 120.512 12.6121 120.342 12.612C120.195 12.612 119.736 12.6156 119.383 12.6155C118.796 12.6153 118.013 12.6128 117.209 12.6126C116.539 12.6125 114.491 12.6144 113.062 12.6139C112.453 12.6137 112.594 12.6108 112.437 12.6108C112.371 12.6108 111.896 12.6141 111.505 12.614C108.315 12.6129 105.046 12.6098 101.841 12.6088C99.5824 12.6082 97.2876 12.6098 95.0247 12.6087C94.5432 12.6085 94.7981 12.6065 94.5879 12.6064C94.5156 12.6063 94.4287 12.61 93.6841 12.6082C93.4151 12.6076 93.7245 12.6052 93.46 12.605C93.3313 12.6049 93.2766 12.608 92.5241 12.6085C91.1566 12.6093 90.4216 12.6049 90.2995 12.605C90.0693 12.6052 90.1366 12.6077 89.8315 12.6077C88.3398 12.6076 87.0944 12.6076 85.7631 12.6073C85.1415 12.6071 80.8552 12.606 80.6198 12.6055C80.0931 12.6044 80.5833 12.6 79.908 12.5999C79.7188 12.601 79.5296 12.6021 79.3404 12.6032C79.641 12.6042 79.9415 12.6052 80.2421 12.6062C79.4147 12.6044 78.4765 12.6061 77.8639 12.6058C77.7507 12.6057 76.7091 12.6033 76.1778 12.6034C76.4036 12.6026 76.6295 12.6019 76.8553 12.6011C76.7755 12.6004 76.6956 12.5997 76.6157 12.599C75.5533 12.5997 74.4295 12.5993 73.34 12.5988C72.9471 12.5987 73.0799 12.5971 72.6821 12.5969C70.3654 12.596 70.9505 12.6023 68.7216 12.5901C69.4742 12.5913 72.2198 12.5902 72.6188 12.5907C72.8969 12.591 73.9753 12.602 73.5797 12.5909C75.8041 12.5913 73.872 12.5971 75.9495 12.5963C75.908 12.5949 75.8665 12.5935 75.825 12.5921C76.5503 12.5913 77.086 12.5907 77.5267 12.5933C77.6745 12.5864 80.1387 12.5908 81.4903 12.5906C83.4434 12.5902 85.6501 12.5886 87.5851 12.5884C88.2518 12.5884 88.6294 12.5916 88.713 12.5916C88.8353 12.5916 89.1787 12.5889 89.4227 12.5889C90.3338 12.5888 93.1057 12.5942 93.7952 12.5861C88.3741 12.5857 82.953 12.5853 77.5319 12.5849C78.2135 12.5882 72.7298 12.5878 72.4518 12.5876C72.1944 12.5875 72.411 12.5854 72.3345 12.5852C71.7648 12.5843 71.2786 12.5873 71.0977 12.5872C70.9598 12.5872 70.6813 12.5858 70.1909 12.5858C70.1009 12.5858 70.0759 12.5872 69.9792 12.5872C69.3394 12.5871 68.7079 12.587 68.0659 12.587C68.0268 12.5869 67.8648 12.5849 67.7027 12.5849C67.5402 12.5849 67.3795 12.5869 67.3385 12.5869C66.8253 12.5868 65.9456 12.5854 65.4573 12.5853C65.288 12.5853 65.4054 12.5867 65.2156 12.5867C64.6323 12.5866 64.8244 12.5839 64.1033 12.5845C63.8615 12.5847 63.8772 12.5868 63.4143 12.5865C63.0865 12.5862 63.1218 12.5826 63.0698 12.5825C62.998 12.5823 61.8669 12.5851 61.4968 12.5827C62.3054 12.5766 60.6123 12.5824 60.6937 12.5849C60.2455 12.5842 59.7972 12.5835 59.349 12.5829C59.1961 12.5835 59.0432 12.5841 58.8904 12.5847C57.0819 12.5818 55.9785 12.5834 54.1994 12.5825C54.1135 12.5824 52.6144 12.5811 52.6845 12.5804C53.5818 12.5791 54.477 12.579 55.0513 12.5815C55.9962 12.5767 56.0124 12.5805 57.5384 12.5799C58.0493 12.5797 58.0856 12.5783 58.1443 12.5782C60.1313 12.5775 63.3136 12.5765 64.6522 12.5812C65.0274 12.5799 63.6784 12.5794 64.2029 12.5785C64.489 12.578 71.3734 12.5761 69.174 12.582C69.4023 12.5819 69.6306 12.5817 69.8588 12.5816C70.0871 12.576 71.2224 12.5772 71.0936 12.5829C71.2011 12.5817 71.3087 12.5806 71.4163 12.5794C71.6288 12.5784 71.8802 12.5779 72.2328 12.5775C73.5832 12.5762 81.6171 12.578 82.0444 12.5771C82.0541 12.5755 82.0637 12.5739 82.0734 12.5723C78.5242 12.571 75.081 12.5749 71.2108 12.5714C71.3232 12.5727 71.4356 12.5739 71.548 12.5752C70.0037 12.5735 68.4594 12.572 66.9152 12.5706C68.5496 12.5683 71.1499 12.5657 72.8658 12.5672C73.1708 12.5675 72.9472 12.5694 73.0173 12.5696C73.2003 12.5701 73.3972 12.5669 74.0549 12.5665C74.7128 12.566 76.3656 12.568 76.5171 12.5679C76.8091 12.5677 77.5972 12.5637 78.0942 12.5636C78.7476 12.5635 78.3097 12.566 78.4408 12.5661C78.9832 12.5662 79.4696 12.5649 79.8945 12.565C80.5253 12.5651 81.8359 12.5693 82.2768 12.5626C81.8261 12.5624 81.3755 12.5622 80.9248 12.562C83.3686 12.5589 85.2792 12.5674 87.6868 12.5598C88.2339 12.5509 86.2446 12.5528 87.9265 12.5484C87.6211 12.5487 87.3157 12.5489 87.0103 12.5492C86.9387 12.551 86.8671 12.5529 86.7955 12.5547C86.2695 12.5536 85.7434 12.5525 85.2173 12.5514C85.3675 12.553 85.5176 12.5545 85.6677 12.556C83.8027 12.5578 81.9193 12.5598 81.2682 12.5521C81.2299 12.554 81.1915 12.556 81.1531 12.5579C79.4215 12.5562 76.8221 12.5648 77.3077 12.5545C77.2258 12.5551 77.1438 12.5557 77.0618 12.5562C76.0152 12.5546 76.4622 12.5585 76.0688 12.5591C75.9565 12.5593 73.9221 12.5579 74.8237 12.5547C72.839 12.5533 73.451 12.562 72.9042 12.5625C71.6337 12.5586 69.3484 12.5657 70.3091 12.5588C70.12 12.5586 69.9308 12.5584 69.7416 12.5582C69.1199 12.5636 68.5071 12.558 67.8334 12.5564C67.6052 12.5564 67.3769 12.5564 67.1486 12.5564C66.9957 12.5581 66.8429 12.5598 66.69 12.5615C64.5424 12.5546 65.2224 12.575 64.2413 12.5581C64.3941 12.557 64.547 12.5559 64.6999 12.5548C65.0624 12.5541 65.4248 12.5535 65.7873 12.5528C64.3253 12.553 62.8633 12.5534 61.4014 12.5537C59.5457 12.5503 58.4897 12.5556 56.4282 12.5535C56.2352 12.554 56.0422 12.5545 55.8492 12.555C56.0459 12.5516 56.7946 12.5515 55.3999 12.551C55.281 12.5488 56.2229 12.5478 56.6523 12.5493C56.7558 12.5497 55.8751 12.5521 56.865 12.5515C57.538 12.5511 56.3159 12.5491 58.3322 12.5488C58.2574 12.5482 58.1827 12.5477 58.108 12.5471C58.3266 12.547 58.5452 12.5469 58.7638 12.5467C58.9582 12.548 59.1525 12.5492 59.3469 12.5505C59.8465 12.5482 60.127 12.5451 61.2686 12.5449C60.9589 12.546 61.379 12.5487 61.944 12.5483C61.944 12.5472 61.944 12.5461 61.944 12.545C63.3117 12.5434 62.8396 12.5469 63.9767 12.5436C64.0905 12.5444 64.2043 12.5452 64.3181 12.5461C64.9375 12.542 67.218 12.5376 66.8021 12.5438C67.4418 12.5377 68.7854 12.5392 69.285 12.5436C69.3234 12.5423 69.3618 12.5411 69.4002 12.5398C69.6662 12.5394 69.9321 12.539 70.1981 12.5385C70.3465 12.5392 70.4949 12.5398 70.6432 12.5405C70.8317 12.5396 71.0202 12.5387 71.2087 12.5378C71.3225 12.539 71.4363 12.5402 71.5501 12.5414C71.8531 12.5397 72.1561 12.5379 72.459 12.5361C72.6444 12.537 72.8298 12.5379 73.0152 12.5389C73.0344 12.5361 74.871 12.5342 75.384 12.5357C75.5369 12.5347 75.6898 12.5338 75.8427 12.5329C75.9174 12.5342 75.9921 12.5355 76.0668 12.5368C76.1806 12.5356 76.2944 12.5344 76.4081 12.5333C76.6703 12.5342 76.9325 12.5351 77.1946 12.536C78.2639 12.5284 78.2983 12.5344 78.5425 12.5342C78.9951 12.5339 80.5364 12.5283 80.7941 12.5283C81.0514 12.5284 81.1757 12.5309 81.3834 12.531C84.8082 12.5327 83.4004 12.5266 84.0874 12.5249C84.4581 12.524 84.7205 12.5263 85.0482 12.5258C85.6089 12.5249 88.4371 12.5193 88.5999 12.5195C88.8369 12.5198 88.279 12.5328 89.0492 12.5291C89.0747 12.5222 90.7217 12.528 89.9519 12.5189C90.6301 12.5192 91.3084 12.5195 91.9866 12.5199C91.9098 12.5116 92.7461 12.5163 93.6572 12.5151C94.9482 12.5135 97.8547 12.5051 97.7484 12.5145C98.0576 12.5121 98.3668 12.5097 98.676 12.5073C100.792 12.5085 102.867 12.5037 104.967 12.5018C110.818 12.4965 117.136 12.4931 123.02 12.4907L123.109 12.4908L123.109 12.58C123.109 12.9634 123.11 13.345 123.11 13.7245C123.11 14.0228 123.106 13.9799 123.106 14.1946C123.106 15.3226 123.112 18.2548 123.112 19.835C123.112 20.3412 123.108 20.5875 123.108 20.748C123.108 21.2929 123.113 21.1643 123.113 21.4152C123.113 21.811 123.11 23.9045 123.11 24.6255C123.11 24.9825 123.114 25.405 123.113 25.8229C123.113 25.8589 123.109 25.7925 123.109 25.8229C123.108 26.5848 123.112 26.1266 123.112 26.3843C123.112 28.2221 123.113 30.1865 123.114 32.1803C123.114 32.6754 123.111 33.4331 123.111 33.8581C123.111 34.0202 123.114 33.7294 123.115 34.2897C123.115 34.4817 123.11 34.5473 123.11 34.7639C123.109 35.6974 123.125 36.0099 123.113 36.8121C123.113 37.0449 123.113 37.3036 123.114 37.58L123.114 37.6739L123.02 37.6737C121.458 37.6762 119.331 37.6808 118.131 37.6817C117.797 37.682 117.634 37.679 117.315 37.6793C117.089 37.6795 116.692 37.6846 116.339 37.6849C115.986 37.6852 115.43 37.681 114.751 37.6817C114.037 37.6823 113.15 37.6857 112.989 37.6858C112.794 37.686 112.704 37.6802 112.509 37.6804C111.921 37.6809 110.348 37.6879 109.59 37.6891C108.777 37.6904 108.288 37.6878 108.01 37.6881C107.753 37.6883 107.452 37.6937 107.335 37.6938C107.152 37.694 107.108 37.688 106.876 37.6882C106.496 37.6886 106.105 37.6927 105.535 37.6932C95.2811 37.7027 85.2274 37.7069 75.2511 37.7085C74.1389 37.7087 73.5105 37.7143 71.8716 37.7131C71.2072 37.7126 71.4871 37.7047 70.97 37.7065C70.7394 37.7074 70.7977 37.7134 70.5062 37.7139C69.2176 37.7161 67.7162 37.7114 67.1578 37.7119C66.9364 37.7121 66.6833 37.7193 66.2292 37.7197C62.8451 37.723 58.8413 37.7239 55.1995 37.7278C53.2712 37.7298 50.3519 37.7359 48.1387 37.7381C42.0238 37.7441 35.4455 37.7472 29.8687 37.7522C23.9063 37.7575 17.9641 37.7664 12.02 37.77L11.8296 37.7697L11.8299 37.58C11.8285 35.1289 11.8279 32.6776 11.829 30.2243C11.8183 32.3804 11.8156 34.9641 11.8154 37.58L11.815 37.7842L12.02 37.7846C14.1737 37.7847 16.3491 37.7831 18.3254 37.7825C30.9669 37.7781 44.4269 37.7551 57.3826 37.7452C61.8903 37.7416 67.5738 37.7367 72.5087 37.7364C72.7325 37.7363 73.1964 37.7307 73.6802 37.7309C73.7829 37.7309 75.0573 37.7393 75.4866 37.739C75.0797 37.7227 76.7617 37.7362 77.2817 37.7353C77.9374 37.7342 79.3049 37.7249 80.8396 37.7282C82.2321 37.7312 81.8481 37.7377 81.9249 37.738C82.4175 37.7401 82.5893 37.73 82.9667 37.7287C84.5084 37.7234 92.4388 37.7224 94.6521 37.7208C95.2241 37.7204 95.2402 37.7262 95.3691 37.7261C95.7103 37.7259 96.1961 37.7197 96.7429 37.7192C97.7285 37.7185 98.8638 37.7229 99.4064 37.7225C100.704 37.7213 103.166 37.7129 104.853 37.7114C105.327 37.7109 105.298 37.7167 105.513 37.7165C106.458 37.7155 108.919 37.7067 110.093 37.7057C111.998 37.704 113.959 37.7059 115.896 37.7024C116.019 37.7047 116.141 37.707 116.264 37.7092C116.458 37.7066 116.652 37.7039 116.845 37.7013C118.892 37.7007 120.961 37.6973 123.02 37.6943L123.134 37.6945L123.134 37.58C123.133 36.343 123.131 35.1096 123.13 33.8871C123.13 33.5118 123.132 31.6539 123.132 31.344C123.132 31.0863 123.126 30.8327 123.127 30.4506C123.127 29.9155 123.138 30.4191 123.134 29.5448C123.133 29.3097 123.129 29.5376 123.127 29.0654C123.127 28.9094 123.123 25.882 123.123 25.7192C123.123 25.448 123.132 25.2061 123.132 25.136C123.133 24.7722 123.126 24.7877 123.125 24.5436C123.122 23.8233 123.126 22.8822 123.126 22.7651C123.123 21.35 123.116 18.7044 123.118 17.2192C123.118 17.0138 123.123 17.0384 123.123 17.0023C123.124 16.7696 123.118 16.625 123.118 16.4036C123.117 15.3474 123.118 13.7612 123.118 12.58L123.118 12.482L123.02 12.4818C122.869 12.4818 122.724 12.4818 122.589 12.4818C122.451 12.4819 122.159 12.4846 121.913 12.4846C120.52 12.4844 120.972 12.4801 120.893 12.48C120.705 12.4797 120.375 12.4844 119.876 12.4851C118.59 12.4869 116.123 12.4884 114.744 12.4893C113.711 12.49 113.727 12.4853 113.659 12.4853C113.514 12.4853 113.112 12.4894 112.431 12.4904C111.123 12.4923 111.272 12.4886 110.734 12.4893C110.689 12.4893 110.767 12.4927 110.171 12.4936C109.017 12.4953 106.427 12.4943 105.193 12.4956C104.718 12.4961 104.607 12.4993 104.121 12.4998C103.351 12.5006 101.612 12.4988 101.474 12.4989C101.436 12.499 101.35 12.5025 101.124 12.5027C100.875 12.503 100.63 12.5014 100.445 12.5016C99.3895 12.5026 97.5709 12.51 98.0763 12.4976C97.738 12.5009 97.3998 12.5041 97.0615 12.5073C94.8506 12.5086 92.7028 12.5116 90.5122 12.514C90.0195 12.5145 89.6082 12.5128 89.1924 12.5133C88.7766 12.5138 86.9423 12.5186 86.6357 12.5189C86.0887 12.5195 82.9799 12.5223 82.5933 12.5224C81.8382 12.5226 81.1057 12.5193 80.7982 12.5203C80.5518 12.5211 80.7797 12.5232 80.3095 12.5242C79.4956 12.5259 78.1125 12.5243 77.8639 12.5245C77.7577 12.5246 77.9565 12.5261 76.9622 12.5271C76.4264 12.5276 76.1388 12.526 75.9443 12.5262C75.8839 12.5263 75.9745 12.5291 74.914 12.5295C74.1816 12.5298 73.8692 12.5279 73.7924 12.528C73.677 12.5281 73.3986 12.5306 72.9353 12.5309C71.8524 12.5315 69.8726 12.5307 68.8441 12.5314C68.6451 12.5315 68.7128 12.534 67.9196 12.5344C67.3522 12.5347 67.4513 12.5327 67.2389 12.5328C66.9021 12.5329 66.4002 12.5358 65.6566 12.5363C64.7207 12.5369 57.7714 12.5404 57.4118 12.5403C57.1699 12.5402 56.8893 12.5404 56.7695 12.5396C56.8722 12.5387 56.975 12.5378 57.0777 12.5368C58.1419 12.5388 57.7125 12.5358 57.9949 12.5353C58.4041 12.5346 59.9461 12.5335 60.3192 12.5324C60.452 12.532 60.1478 12.5304 60.8618 12.5286C61.628 12.5267 61.9688 12.5299 62.274 12.5247C63.3614 12.529 64.4058 12.522 63.1466 12.5219C62.4437 12.5217 55.5484 12.528 54.1403 12.5295C52.9986 12.5307 50.8603 12.5344 49.4565 12.5358C48.6314 12.5366 46.5992 12.5388 46.6851 12.5369C45.9527 12.5376 46.7278 12.5384 46.5741 12.5388C46.2526 12.5397 43.9665 12.5413 43.5339 12.5419C41.3999 12.5447 38.7069 12.5493 36.6339 12.5502C36.7304 12.5497 36.8269 12.5493 36.9234 12.5488C37.3891 12.5476 39.5503 12.5458 39.7944 12.5437C36.6339 12.5478 33.4734 12.5519 30.3129 12.5561C30.3717 12.5571 26.4516 12.5619 26.2662 12.5618C26.3351 12.5613 26.4039 12.5608 26.4727 12.5603C28.6879 12.559 28.4892 12.557 29.9767 12.5563C30.5822 12.5555 30.3994 12.5549 30.6978 12.5544C33.6677 12.5486 30.7454 12.5561 33.0189 12.5523C32.3346 12.5518 34.1965 12.5488 35.0308 12.5474C35.2207 12.547 37.7146 12.5439 38.0108 12.5435C39.6746 12.5411 42.5319 12.5359 44.1845 12.5347C45.4866 12.533 46.2033 12.5304 47.3855 12.5283C48.2828 12.5267 48.0256 12.5282 48.448 12.5276C49.3342 12.5264 49.6258 12.5222 50.1932 12.5267C50.794 12.5252 51.3948 12.5236 51.9955 12.5221C51.9955 12.5229 51.9955 12.5238 51.9955 12.5247C52.3729 12.5241 52.7502 12.5236 53.1276 12.5231C53.2386 12.5221 53.3496 12.521 53.4606 12.52C54.6582 12.5195 54.1582 12.5224 54.382 12.5247C54.6407 12.5245 54.8994 12.5243 55.1581 12.5242C55.3584 12.5219 55.5586 12.5196 55.7589 12.5173C56.9141 12.5158 58.0693 12.5143 59.2245 12.5128C59.2992 12.5137 59.3739 12.5147 59.4486 12.5156C59.451 12.5145 59.4534 12.5135 59.4559 12.5125C61.4121 12.5095 63.3683 12.5065 65.3245 12.5035C65.8449 12.5008 62.7105 12.5041 62.4732 12.5044C61.1528 12.5058 57.6467 12.5127 57.6422 12.5092C56.8214 12.5131 54.3506 12.516 53.582 12.5144C54.7486 12.5128 55.9152 12.5111 57.0818 12.5095C57.0442 12.5084 57.0064 12.5073 56.9688 12.5062C58.4223 12.5085 58.635 12.5081 60.1293 12.501C60.1307 12.5026 60.132 12.5043 60.1334 12.5059C61.1753 12.4985 63.017 12.5057 63.0698 12.4981C63.6246 12.4979 64.1794 12.4976 64.7341 12.4974C65.9321 12.4945 64.0719 12.4915 68.7621 12.4861C69.0854 12.4858 69.018 12.488 69.504 12.4871C69.6441 12.4868 70.4468 12.4823 71.9818 12.4801C72.2213 12.4797 72.2394 12.4817 72.4881 12.4815C73.0622 12.4812 74.2057 12.4754 73.6865 12.4827C75.9604 12.481 75.018 12.4771 75.7233 12.4737C76.1934 12.4715 76.0988 12.4757 76.5057 12.4741C77.0091 12.4721 76.6397 12.4687 78.6556 12.4671C78.4294 12.4678 78.2032 12.4685 77.977 12.4691C78.0908 12.4701 78.2046 12.471 78.3184 12.4719C79.4689 12.4673 79.3602 12.4715 79.9028 12.4641C80.7392 12.4656 81.4629 12.4647 82.6068 12.4622C84.8289 12.4575 83.6897 12.4517 86.2259 12.4577C86.6368 12.4556 87.0477 12.4534 87.4586 12.4513C88.134 12.4532 87.5877 12.458 88.5958 12.4572C87.8068 12.4507 89.9338 12.4501 90.2933 12.4424C90.331 12.444 90.3687 12.4456 90.4064 12.4472C90.6315 12.4468 90.8567 12.4465 91.0818 12.4461C91.0825 12.4447 91.0832 12.4434 91.0839 12.442C91.3838 12.4425 91.6837 12.443 91.9835 12.4435C92.209 12.4418 92.4345 12.44 92.66 12.4382C93.0308 12.4405 93.4016 12.4428 93.7723 12.4451C94.0051 12.4449 94.2379 12.4448 94.4706 12.4446C94.397 12.4426 94.3233 12.4406 94.2496 12.4386C94.5488 12.4388 94.848 12.439 95.1472 12.4392C94.799 12.4363 95.0178 12.4318 95.9492 12.4303C96.7178 12.429 95.8521 12.4379 97.5046 12.432C97.6199 12.4315 97.8239 12.4258 99.3857 12.4221C101.259 12.4177 100.349 12.4234 100.683 12.4229C100.748 12.4229 101.32 12.419 101.856 12.4176C102.16 12.4169 102.453 12.4186 102.493 12.4186C102.681 12.4181 102.736 12.4147 102.996 12.4142C103.655 12.4127 104.541 12.4127 105.188 12.4113C105.482 12.4107 105.758 12.4082 105.889 12.408C106.093 12.4076 106.351 12.4102 106.557 12.4098C107.316 12.4084 108.469 12.3958 108.822 12.4097C109.552 12.395 111.081 12.4086 110.969 12.3996C112.921 12.3997 118.125 12.3783 117.972 12.3951C119.077 12.3789 118.979 12.3893 119.441 12.3883C119.959 12.3872 119.691 12.3849 120.102 12.3842C121.063 12.3828 121.981 12.3824 122.937 12.3807C122.787 12.3833 122.637 12.386 122.487 12.3886C122.732 12.3884 122.896 12.3879 123.02 12.3873L123.213 12.3876L123.213 12.58C123.215 12.9633 123.218 12.9547 123.22 13.7287C123.226 15.6118 123.22 14.8183 123.214 15.0963C123.22 15.0216 123.223 17.2421 123.222 17.4682C123.222 17.603 123.213 17.0122 123.218 18.3719C123.22 18.2976 123.223 18.2232 123.225 18.1489C123.223 18.7684 123.23 20.4511 123.23 20.7366C123.229 20.8677 123.21 21.569 123.227 22.2111C123.225 22.2885 123.222 22.366 123.22 22.4435C123.224 23.1563 123.229 23.8691 123.233 24.582C123.229 24.6958 123.224 24.8095 123.219 24.9233C123.22 25.1495 123.22 25.3757 123.22 25.6019C123.224 25.4518 123.228 25.3017 123.232 25.1516C123.233 26.5483 123.243 28.2547 123.228 28.5425C123.232 28.8417 123.235 29.1408 123.238 29.44C123.234 29.6347 123.229 29.8294 123.224 30.0242C123.228 31.4095 123.231 31.4324 123.238 32.3795C123.234 32.3425 123.23 32.3055 123.226 32.2685C123.233 32.9671 123.24 34.2423 123.242 35.2505C123.244 35.7298 123.239 36.5528 123.24 36.6658C123.24 36.7377 123.25 37.2096 123.253 37.58L123.252 37.8129L123.02 37.8125C122.802 37.8139 122.619 37.8127 122.574 37.8057C120.919 37.817 120.191 37.8095 119.519 37.8108C119.083 37.8116 118.884 37.8167 118.391 37.818C117.686 37.82 116.976 37.8188 116.569 37.8198C116.336 37.8204 116.293 37.8252 116.132 37.8257C115.374 37.8277 115.818 37.8221 115.018 37.8238C114.944 37.8239 114.359 37.8307 113.7 37.8311C113.332 37.8314 112.378 37.8264 112.294 37.8265C111.921 37.8272 112.219 37.8401 110.944 37.8268C110.981 37.8293 111.018 37.8318 111.055 37.8343C109.478 37.8435 109.228 37.8325 108.91 37.8322C108.869 37.8322 108.485 37.8373 108.255 37.8371C107.867 37.8367 107.71 37.8308 107.624 37.8307C107.321 37.8303 106.301 37.8347 105.634 37.8298C105.774 37.8472 103.437 37.8578 102.92 37.8382C102.506 37.8429 102.092 37.8477 101.679 37.8524C101.492 37.8494 101.304 37.8463 101.117 37.8432C101.004 37.8468 100.89 37.8504 100.776 37.854C100.173 37.8475 99.5703 37.841 98.9675 37.8344C98.9291 37.842 98.8907 37.8497 98.8523 37.8573C98.6835 37.8568 98.5147 37.8562 98.3459 37.8556C98.2142 37.8498 98.0824 37.844 97.9506 37.8381C97.7396 37.8396 97.5287 37.8411 97.3177 37.8426C97.2655 37.8471 97.2132 37.8516 97.161 37.8561C96.0268 37.8632 96.6096 37.8197 94.4487 37.8607C94.1126 37.8578 93.7764 37.8548 93.4402 37.8518C93.0605 37.8697 92.349 37.8605 91.7748 37.8634C91.3703 37.8654 91.3923 37.8724 90.841 37.8735C90.2894 37.8746 90.3091 37.8679 90.2662 37.8679C89.8166 37.8682 89.4776 37.8748 89.1476 37.8741C89.0979 37.8741 88.9734 37.8663 88.5531 37.8665C88.1326 37.8666 87.8792 37.8757 87.253 37.8751C86.9321 37.8748 86.8393 37.8682 86.5547 37.868C85.1983 37.8672 83.8325 37.9049 82.8152 37.8647C82.5859 37.8703 80.9227 37.8919 80.2108 37.8921C79.1038 37.8923 79.5303 37.8832 79.0902 37.8824C79.0269 37.8822 78.6898 37.8856 77.761 37.8867C77.5949 37.8869 77.6334 37.8916 77.6096 37.8917C76.5268 37.8935 74.4242 37.8933 73.235 37.8946C73.1288 37.8947 72.5725 37.9094 71.6299 37.8925C70.2329 37.9087 67.6016 37.8831 65.7592 37.9073C65.5037 37.9082 65.1936 37.9036 65.0806 37.904C64.1062 37.9072 64.4633 37.9223 62.2614 37.903C62.4397 37.9107 61.9245 37.9188 61.1968 37.9195C60.1027 37.9204 60.8799 37.904 60.0005 37.9067C60.0005 37.911 60.0005 37.9153 60.0005 37.9195C57.9775 37.9114 57.575 37.9305 55.545 37.9342C54.8149 37.9355 53.7363 37.9276 53.5622 37.9278C53.4948 37.928 52.6963 37.94 52.6201 37.9402C52.1905 37.9413 51.948 37.9368 51.5773 37.9374C50.3521 37.9394 48.89 37.9561 49.1545 37.9299C48.8176 37.9359 48.4807 37.9419 48.1439 37.948C46.8711 37.9225 45.9193 37.9623 45.6526 37.9358C45.425 37.9417 45.1974 37.9477 44.9698 37.9537C39.511 37.9604 34.0522 37.9669 28.5934 37.9732C28.3764 37.9829 25.996 37.9838 25.8739 37.9825C25.3134 37.9767 25.9054 37.955 24.7616 37.9616C24.635 37.9709 24.5084 37.9803 24.3818 37.9896C22.9442 37.9951 23.6357 37.9848 23.0682 37.9795C22.8311 37.9811 22.9077 37.9881 22.5868 37.9892C20.8461 37.995 17.2769 38.0016 15.3734 38.0055C14.9896 38.0063 15.0475 37.9993 14.9283 37.9995C14.6006 38.0001 13.9538 38.01 13.2961 38.0111C12.8868 38.0118 12.4603 38.0125 12.02 38.0132L11.586 38.0124L11.5868 37.58C11.5808 33.6461 11.5767 28.6145 11.5775 24.9326C11.5775 24.6545 11.5862 24.6201 11.5864 24.4324C11.5865 24.1724 11.5784 23.5915 11.5787 23.3181C11.5789 23.0604 11.5854 22.8954 11.5857 22.6198C11.5873 21.3583 11.573 19.6623 11.5909 18.3127C11.5923 18.1992 11.6264 16.7852 11.6288 16.7532C11.6427 16.5655 11.6665 17.8221 11.6846 15.7581C11.7051 17.6028 11.736 17.0265 11.7494 14.6302C11.7546 15.8321 11.7598 17.034 11.765 18.2359C11.7688 18.2376 11.7725 18.2394 11.7763 18.2411C11.794 17.147 11.7994 16.0615 11.7998 14.3978C11.8033 14.4497 11.8069 14.5016 11.8105 14.5535C11.8293 16.0229 11.8338 17.7955 11.8582 18.9145C11.8747 17.2734 11.8916 15.6322 11.9088 13.9911C11.9116 14.0731 11.9144 14.155 11.9173 14.237C11.9248 15.0237 11.9296 16.7421 11.9365 17.3954C11.9626 19.8907 11.955 15.2116 11.9708 15.9802C11.9708 18.6146 11.9707 21.2491 11.9706 23.8835C11.9815 23.9759 12.0119 13.841 12.0473 13.9454C12.0496 14.7734 12.0518 15.6014 12.0541 16.4294C12.0629 16.0604 12.0718 15.6914 12.0807 15.3223C12.0835 15.424 12.0863 15.5257 12.0891 15.6274C12.0956 17.0243 12.1019 18.4213 12.1082 19.8182C12.1029 15.571 12.1081 13.5973 12.1791 12.58C12.1808 12.6951 12.1825 12.8103 12.1842 12.9255C12.1397 13.8456 12.1521 18.1887 12.1593 20.4968C12.172 20.0264 12.1635 17.9941 12.1713 17.5646C12.1736 17.4429 12.1821 17.8673 12.1867 17.5853C12.1988 16.8484 12.2162 13.708 12.2304 14.1644C12.2396 14.4583 12.248 19.5112 12.2461 20.4968C12.2645 18.1865 12.2715 15.806 12.2942 13.4889C12.3212 14.9515 12.3541 16.2468 12.3522 18.9166C12.3656 19.7303 12.3936 14.0786 12.402 13.9475C12.4094 14.9256 12.4166 15.9037 12.4238 16.8818C12.4227 16.0545 12.4217 15.2272 12.4206 14.3999C12.4235 14.3975 12.4264 14.3951 12.4293 14.3926C12.4396 16.5357 12.4608 18.4964 12.4551 20.9492C12.4702 20.8701 12.4713 19.4025 12.4726 18.6904ZM43.1946 12.532C43.1451 12.5306 44.0444 12.5294 44.5508 12.5286C44.4747 12.5285 44.3986 12.5283 44.3225 12.5282C45.4031 12.5267 47.4147 12.5242 47.4893 12.5208C48.2601 12.5191 47.9193 12.5225 48.1678 12.5225C48.265 12.5225 49.2712 12.5191 50.076 12.5199C50.2673 12.5196 50.4585 12.5193 50.6498 12.519C50.6868 12.5178 50.7238 12.5166 50.7608 12.5153C51.0275 12.5163 51.2941 12.5173 51.5608 12.5183C48.7735 12.5229 45.9861 12.5275 43.1988 12.532C43.1974 12.532 43.196 12.532 43.1946 12.532ZM70.9784 12.4869C71.9934 12.4863 73.5482 12.4856 73.2341 12.481C72.5929 12.4823 71.9517 12.4836 71.3104 12.4849C71.1997 12.4856 71.0891 12.4863 70.9784 12.4869ZM99.0858 37.8219C98.238 37.8102 97.4574 37.8226 96.1462 37.8222C96.148 37.825 96.1497 37.8278 96.1514 37.8306C96.6876 37.823 98.1049 37.8253 99.0858 37.8219ZM18.008 12.5726C17.8212 12.5728 17.6344 12.573 17.4477 12.5732C18.2073 12.5717 18.3432 12.5719 19.2023 12.5707C19.2541 12.5707 19.2361 12.5705 19.2542 12.5705C19.4644 12.5702 19.6588 12.5702 19.8487 12.5699C20.2149 12.5694 20.5135 12.5688 21.1623 12.568C21.664 12.5673 21.6687 12.5677 21.845 12.5675C21.9953 12.5673 23.484 12.5642 24.4421 12.5634C26.2642 12.5623 18.5641 12.572 18.008 12.5726ZM12.6073 12.5792C12.7875 12.579 12.9677 12.5787 13.1479 12.5785C12.606 12.5792 13.6996 12.5779 14.502 12.5768C14.4771 12.577 12.7796 12.579 12.02 12.58C12.2158 12.5797 12.4115 12.5795 12.6073 12.5792ZM35.395 12.5524C34.6899 12.5534 34.8074 12.5516 34.8368 12.551C35.0613 12.5507 35.2857 12.5505 35.5102 12.5502C35.4718 12.5509 35.4334 12.5517 35.395 12.5524ZM30.0919 12.5591C30.3112 12.558 31.8419 12.5557 32.5676 12.5547C32.5993 12.5547 32.3999 12.5555 32.9131 12.5548C33.0672 12.5547 34.583 12.5505 34.2495 12.5535C32.8643 12.5554 31.4791 12.5573 30.0939 12.5591C30.0932 12.5591 30.0925 12.5591 30.0919 12.5591ZM28.5458 12.5604C28.8343 12.5598 29.1227 12.5592 29.4112 12.5586C29.5603 12.5588 29.7093 12.5591 29.8584 12.5593C29.5302 12.5598 29.2019 12.5603 28.8737 12.5607C28.7644 12.5606 28.6551 12.5605 28.5458 12.5604ZM25.4713 37.8402C25.5384 37.846 25.6055 37.8518 25.6726 37.8577C25.9326 37.861 27.1965 37.8338 26.7963 37.8293C26.3547 37.8329 25.913 37.8365 25.4713 37.8402ZM20.1339 37.8334C19.8711 37.8306 19.6082 37.8278 19.3453 37.825C19.043 37.8357 18.7408 37.8463 18.4385 37.857C19.7516 37.8625 21.1488 37.8687 20.9235 37.8388C21.2241 37.8385 21.5246 37.8382 21.8252 37.8378C21.5721 37.8505 21.6061 37.8546 22.3928 37.8616C22.5648 37.8441 23.3782 37.852 24.3092 37.8471C23.632 37.8469 22.9548 37.8467 22.2776 37.8464C22.2776 37.8434 22.2776 37.8403 22.2776 37.8373C23.787 37.8368 21.911 37.8194 20.9277 37.8326C20.8502 37.8286 20.7727 37.8246 20.6953 37.8206C20.5081 37.8249 20.321 37.8291 20.1339 37.8334ZM123.161 31.3596C123.16 31.5467 123.158 31.7338 123.157 31.9209C123.179 32.646 123.157 31.1697 123.173 30.1186C123.16 30.4658 123.159 28.8635 123.158 28.7718C123.154 28.9561 123.15 29.1405 123.146 29.3248C123.151 30.0031 123.156 30.6813 123.161 31.3596ZM123.151 36.6638C123.156 36.3712 123.159 36.8585 123.162 37.58L123.161 37.7218L123.02 37.7216C122.141 37.7243 120.916 37.7252 120.328 37.7244C120.068 37.724 119.605 37.7181 119.417 37.7191C119.304 37.7216 119.19 37.7241 119.076 37.7266C118.941 37.7185 116.853 37.7299 116.031 37.7353C115.953 37.7324 115.876 37.7294 115.798 37.7264C115.498 37.7279 115.199 37.7294 114.899 37.731C114.936 37.7279 114.974 37.7247 115.012 37.7216C114.785 37.7255 114.558 37.7295 114.331 37.7335C113.44 37.7386 113.99 37.721 113.321 37.727C112.577 37.7337 113.796 37.7425 113.773 37.7491C114.377 37.7467 115.749 37.7414 116.362 37.7405C116.714 37.74 116.315 37.7519 117.831 37.737C118.163 37.7397 118.496 37.7424 118.828 37.745C119.438 37.7395 120.048 37.734 120.658 37.7286C120.772 37.7326 120.886 37.7366 121 37.7406C121.065 37.7412 122.476 37.7302 122.401 37.7273C122.563 37.7293 122.773 37.7308 123.02 37.7318L123.172 37.7321L123.172 37.58C123.174 36.957 123.174 36.1038 123.174 35.2184C123.171 35.0994 123.169 34.9804 123.167 34.8615C123.173 36.0569 123.165 35.2418 123.161 35.5981C123.159 35.8039 123.155 36.4332 123.151 36.6638ZM33.8001 37.8161C31.7927 37.8347 33.0356 37.8198 30.8658 37.8221C31.0173 37.8307 31.1688 37.8394 31.3203 37.848C32.3871 37.8307 34.1424 37.8394 33.8022 37.8161C33.8015 37.8161 33.8008 37.8161 33.8001 37.8161ZM12.5677 37.8701C13.716 37.863 13.1398 37.8488 14.5952 37.8425C14.5959 37.8425 14.5966 37.8425 14.5973 37.8425C13.8447 37.8423 13.0921 37.842 12.3395 37.8417C12.4156 37.8512 12.4917 37.8606 12.5677 37.8701ZM79.691 37.7826C80.7919 37.7844 80.5752 37.7793 81.5742 37.7888C83.0616 37.7742 81.8025 37.7775 81.8025 37.7657C81.4625 37.7695 81.1225 37.7733 80.7825 37.7772C79.9583 37.767 80.74 37.7606 80.74 37.7595C80.7393 37.7595 80.7386 37.7595 80.7379 37.7595C80.738 37.756 80.7646 37.7552 80.4484 37.7534C80.1959 37.7631 79.9435 37.7728 79.691 37.7826ZM84.4027 37.763C84.0252 37.7711 83.8554 37.7812 84.8478 37.785C84.8485 37.785 84.8492 37.785 84.8499 37.785C84.9296 37.7678 85.8811 37.7805 86.315 37.7788C86.4288 37.7769 86.5426 37.7749 86.6564 37.7729C85.9052 37.7697 85.1539 37.7664 84.4027 37.763ZM101.004 37.7313C101.008 37.7485 100.176 37.7511 101.348 37.7656C101.575 37.765 101.803 37.7644 102.03 37.7638C102.18 37.7599 102.329 37.756 102.479 37.7521C105.366 37.7794 106.226 37.7266 101.348 37.7513C101.347 37.7513 101.346 37.7513 101.346 37.7513C101.232 37.7447 101.118 37.738 101.004 37.7313ZM95.92 37.7377C95.8834 37.747 95.8467 37.7564 95.8101 37.7657C95.1725 37.7439 94.349 37.7664 93.0988 37.7517C92.9857 37.7547 92.8726 37.7577 92.7595 37.7607C92.2923 37.7549 87.7031 37.7577 88.6973 37.7717C89.1314 37.7777 90.0769 37.7678 90.1583 37.7679C90.434 37.7683 90.7936 37.7762 91.2592 37.7751C91.5282 37.7745 92.0953 37.7642 92.6443 37.7637C93.8718 37.7625 96.1124 37.785 97.7265 37.7594C97.8427 37.7621 97.9589 37.7647 98.0751 37.7674C99.2728 37.7643 98.873 37.7561 99.9874 37.7651C100.757 37.7211 95.5076 37.7723 96.6007 37.7355C96.6 37.7355 96.5993 37.7355 96.5986 37.7355C96.3724 37.7363 96.1462 37.737 95.92 37.7377ZM62.9421 37.7855C62.8698 37.776 61.4805 37.7922 61.8069 37.7689C61.3535 37.7774 60.9001 37.7859 60.4467 37.7944C60.4501 37.7966 60.4536 37.7987 60.457 37.8009C60.9077 37.7987 61.3584 37.7965 61.809 37.7943C61.8107 37.7977 61.8125 37.8011 61.8142 37.8045C62.4858 37.7915 65.2883 37.7938 65.203 37.8056C65.3528 37.8005 65.5025 37.7953 65.6523 37.7902C66.9929 37.8022 68.1462 37.7866 69.6066 37.798C69.7197 37.7938 69.8328 37.7897 69.9459 37.7855C70.0195 37.7887 70.0932 37.7919 70.1669 37.795C70.6988 37.7948 71.2307 37.7946 71.7627 37.7944C73.4962 37.7796 70.128 37.7664 69.7197 37.7686C69.6654 37.7689 69.6738 37.7773 69.3347 37.779C68.7325 37.782 65.3613 37.777 64.319 37.7838C64.31 37.778 64.301 37.7723 64.292 37.7665C63.842 37.7728 63.392 37.7791 62.9421 37.7855ZM107.446 37.7428C107.522 37.7472 107.598 37.7517 107.674 37.7562C108.987 37.7501 109.814 37.7531 109.477 37.7386C109.477 37.7386 109.476 37.7386 109.475 37.7386C108.799 37.74 108.122 37.7414 107.446 37.7428ZM66.0052 12.5206C66.0396 12.5238 66.6674 12.5244 67.4786 12.5211C67.4395 12.5202 67.4004 12.5193 67.3613 12.5184C66.9386 12.5217 66.411 12.5174 65.1066 12.5195C65.1066 12.5211 65.1066 12.5227 65.1066 12.5243C65.4062 12.5231 65.7057 12.5218 66.0052 12.5206ZM106.313 37.742C105.912 37.737 104.789 37.7547 105.528 37.7547C106.093 37.7547 106.527 37.7447 106.313 37.742ZM11.7392 33.611C11.7379 33.9078 11.7367 34.2045 11.7355 34.5013C11.742 34.6559 11.7486 34.8105 11.7551 34.9651C11.7551 34.9644 11.7551 34.9637 11.7551 34.963C11.7498 34.5124 11.7445 34.0617 11.7392 33.611ZM75.9276 37.7878C76.9341 37.786 77.9406 37.7842 78.947 37.7824C78.9571 37.7793 78.9671 37.7763 78.9771 37.7733C77.9689 37.7854 77.5635 37.774 77.3284 37.7735C77.3294 37.7735 77.3305 37.7735 77.3315 37.7735C76.5766 37.7719 75.8574 37.7709 75.1432 37.7679C75.4047 37.7746 75.6661 37.7812 75.9276 37.7878ZM72.4776 37.7721C72.6471 37.7939 72.8686 37.7961 74.4148 37.7791C74.3536 37.7765 74.2923 37.7739 74.2311 37.7712C73.4299 37.7737 72.9626 37.7792 73.1033 37.7676C72.8947 37.7691 72.6862 37.7706 72.4776 37.7721ZM88.2387 37.7623C88.0531 37.7561 86.5805 37.7641 86.6605 37.7673C86.6922 37.7685 88.6004 37.7745 88.2387 37.7623ZM54.8251 12.534C55.1644 12.534 55.5037 12.534 55.843 12.534C55.3916 12.5351 54.9402 12.5361 54.4889 12.5371C54.601 12.5361 54.713 12.535 54.8251 12.534ZM51.1001 12.5445C50.8582 12.5442 51.6446 12.5392 50.1984 12.5397C51.2509 12.5385 52.3034 12.5373 53.3558 12.5361C52.8623 12.5373 52.3687 12.5385 51.8752 12.5397C51.9613 12.5408 52.0474 12.542 52.1335 12.5431C51.7891 12.5436 51.4446 12.5441 51.1001 12.5445ZM49.9701 12.5426C50.5369 12.5452 47.5525 12.5481 47.2745 12.548C47.2125 12.5479 46.9181 12.5461 46.8096 12.5457C47.2603 12.5453 47.711 12.5448 48.1616 12.5444C48.0108 12.5439 47.86 12.5433 47.7092 12.5428C48.2367 12.542 48.7641 12.5412 49.2916 12.5404C49.0661 12.5414 48.8406 12.5423 48.6151 12.5432C49.0668 12.543 49.5185 12.5428 49.9701 12.5426ZM61.944 12.5299C61.5667 12.5301 61.1894 12.5304 60.812 12.5307C60.8874 12.5321 60.9628 12.5335 61.0382 12.5349C61.2641 12.5347 61.4899 12.5345 61.7158 12.5343C61.7918 12.5328 61.868 12.5313 61.944 12.5299ZM54.2554 12.5392C54.8048 12.5325 56.3019 12.5447 54.5522 12.5413C54.3759 12.5409 54.2034 12.5399 54.2554 12.5392ZM46.1559 12.5484C44.9827 12.553 45.2475 12.545 46.3552 12.5462C46.4109 12.5463 46.244 12.5481 46.1559 12.5484ZM37.3592 12.5566C37.2641 12.5567 37.098 12.555 36.1909 12.5576C36.0411 12.5575 35.8913 12.5575 35.7416 12.5574C36.092 12.5563 39.0901 12.5527 38.6759 12.5551C38.217 12.5556 37.8339 12.5562 37.3592 12.5566ZM40.2624 12.5618C40.7124 12.5615 41.1623 12.5611 41.6123 12.5608C41.4639 12.5602 41.3156 12.5596 41.1672 12.559C41.3885 12.5587 41.6099 12.5583 41.8312 12.5579C42.2096 12.5589 42.588 12.5599 42.9664 12.5609C41.9883 12.5617 41.0102 12.5625 40.032 12.5632C40.1088 12.5628 40.1856 12.5623 40.2624 12.5618ZM52.2259 12.5565C51.3601 12.5558 50.2993 12.5577 48.8931 12.5583C48.8924 12.5583 48.8917 12.5583 48.891 12.5583C48.8209 12.5583 48.6966 12.5572 48.4708 12.5573C48.2784 12.5574 44.4809 12.5609 44.777 12.5589C46.2463 12.5563 46.7952 12.5586 47.1479 12.554C47.2195 12.5549 47.2911 12.5557 47.3627 12.5566C48.7756 12.5573 49.1787 12.5538 49.9722 12.5519C49.9691 12.5527 49.966 12.5534 49.9629 12.5542C50.4928 12.5539 51.0226 12.5536 51.5525 12.5533C51.4778 12.5529 51.4031 12.5524 51.3284 12.552C51.5158 12.5518 51.7033 12.5517 51.8908 12.5516C52.3474 12.5535 52.9263 12.5538 52.2259 12.5565ZM38.2214 12.5623C37.8055 12.5664 33.7519 12.5662 31.9004 12.5681C32.8725 12.5657 34.3784 12.566 35.4386 12.5654C37.4882 12.5641 36.0714 12.5637 36.4191 12.5629C36.5909 12.5624 37.7535 12.5641 38.2214 12.5623ZM55.3885 12.5535C54.3667 12.5537 53.7946 12.5554 52.9107 12.5537C52.9847 12.5532 53.0587 12.5528 53.1328 12.5523C53.4355 12.5524 55.9036 12.5522 55.3885 12.5535ZM29.1871 12.5691C31.1606 12.5688 30.1872 12.5669 31.2135 12.5681C30.538 12.5687 29.8626 12.5692 29.1871 12.5697C29.1871 12.5695 29.1871 12.5693 29.1871 12.5691ZM104.054 37.6584C103.222 37.6583 102.293 37.6545 101.796 37.6635C102.361 37.6646 102.926 37.6656 103.491 37.6666C103.679 37.6639 103.866 37.6611 104.054 37.6584ZM123.015 32.8288C123.013 33.0187 123.019 33.7696 123.019 33.8488C123.019 33.9958 123.016 33.9556 123.015 33.9577C123.016 34.92 123.024 34.0322 123.025 34.7442C123.026 34.8659 123.022 36.5385 123.022 37.2189C123.022 37.3396 123.022 37.4603 123.022 37.58C122.102 37.5825 121.244 37.5821 120.898 37.5823C120.238 37.5825 119.012 37.5888 117.927 37.5892C117.48 37.5894 117.324 37.5843 116.874 37.5844C113.987 37.5853 108.304 37.5931 105.743 37.5898C105.11 37.589 104.507 37.5817 104.172 37.5823C103.908 37.585 103.644 37.5877 103.38 37.5904C102.569 37.5662 102.297 37.5877 101.422 37.5901C100.867 37.5916 100.607 37.5843 100.532 37.5843C100.037 37.5845 99.793 37.588 99.4043 37.5886C98.968 37.5892 98.3411 37.5859 98.1851 37.5865C98.0894 37.5869 98.3951 37.5968 96.7024 37.5968C94.9772 37.5967 93.2741 37.5958 91.5196 37.5955C92.1048 37.6264 92.6087 37.6051 93.325 37.6039C93.5172 37.6036 93.3953 37.6085 93.5626 37.6082C94.0351 37.6075 94.9396 37.6027 95.3307 37.6038C95.753 37.6049 95.6087 37.6161 96.1442 37.6119C96.1713 37.6116 96.0856 37.6071 96.2116 37.6063C97.4776 37.5986 97.892 37.6064 99.4925 37.6064C100.553 37.6063 106.993 37.601 107.214 37.6038C108.367 37.6184 101.581 37.6203 100.787 37.6193C100.51 37.6189 100.801 37.6139 100.548 37.613C100.44 37.6127 99.4757 37.6223 98.5223 37.6234C97.3694 37.6247 95.0525 37.6187 93.9538 37.6191C84.5089 37.6236 75.195 37.6194 65.7592 37.6212C65.558 37.6212 65.293 37.6281 64.6375 37.6283C52.4028 37.6314 39.7224 37.6282 27.3317 37.6348C24.6304 37.6362 21.9512 37.6449 19.225 37.6393C18.8867 37.6455 18.5485 37.6519 18.2102 37.6582C19.0754 37.653 20.6608 37.6665 20.8052 37.6666C20.8572 37.6666 21.1853 37.6596 21.7142 37.6598C22.4579 37.66 22.7841 37.6659 22.8452 37.6659C23.0343 37.6658 22.9104 37.6595 23.0911 37.6595C24.4384 37.6593 25.4809 37.6572 26.7175 37.6567C28.1143 37.6562 28.8224 37.6674 29.8396 37.6545C29.9548 37.6594 30.0699 37.6642 30.1851 37.6691C30.9451 37.6475 35.4708 37.6486 37.3041 37.6491C37.8825 37.6493 37.781 37.6577 37.9754 37.6576C38.0995 37.6575 38.0505 37.6466 39.564 37.6483C40.3258 37.6492 40.5256 37.6569 40.9077 37.6566C41.1152 37.6563 41.0815 37.6486 41.3798 37.6485C43.1045 37.6479 44.5129 37.65 46.2015 37.6508C46.6762 37.6511 46.6815 37.6574 46.7877 37.6573C47.1789 37.6568 47.8593 37.6459 48.8536 37.6457C50.4903 37.6452 53.7522 37.6442 55.0906 37.6488C55.2872 37.6495 55.4502 37.6567 55.5948 37.6565C55.8139 37.6562 55.8998 37.6486 55.9383 37.6486C56.6707 37.6482 56.2301 37.6554 56.7206 37.6535C56.9851 37.6525 57.2608 37.6438 57.8755 37.6427C58.6871 37.6411 58.5273 37.6513 58.8664 37.6502C58.9022 37.65 58.9129 37.643 59.2462 37.6426C60.5098 37.6414 62.3429 37.6392 63.5387 37.6389C63.8822 37.6388 64.1377 37.6433 64.6168 37.6433C65.582 37.6431 71.0689 37.6385 71.5189 37.6409C71.5663 37.6411 71.0784 37.651 71.8561 37.6504C72.0819 37.6463 72.3078 37.6422 72.5336 37.6381C72.9113 37.6444 73.289 37.6507 73.6667 37.6569C73.6531 37.6348 75.875 37.6309 75.8529 37.6532C76.0961 37.654 76.3392 37.6548 76.5823 37.6556C77.0887 37.64 77.4258 37.6456 78.4044 37.6363C78.5569 37.6409 78.7094 37.6455 78.8619 37.6501C78.9003 37.647 78.9387 37.6439 78.9771 37.6408C79.4993 37.6573 80.3559 37.6402 80.4598 37.6401C80.8598 37.6396 81.1604 37.6437 81.348 37.6435C82.0487 37.6428 83.5656 37.6366 84.384 37.6389C84.4225 37.6391 84.3846 37.646 84.6175 37.6468C85.0375 37.6482 85.0785 37.638 85.6385 37.6497C85.7516 37.6467 85.8647 37.6437 85.9778 37.6406C86.0978 37.6421 86.2178 37.6436 86.3378 37.6451C87.0462 37.6441 87.7545 37.643 88.4628 37.642C87.8186 37.6538 88.5599 37.6599 89.2607 37.6505C89.4979 37.6474 89.2875 37.6405 89.3666 37.6394C89.4751 37.638 92.6541 37.6404 92.8643 37.6447C93.0148 37.6425 93.1652 37.6403 93.3157 37.6381C93.3918 37.6423 93.4678 37.6466 93.5439 37.6508C93.6269 37.6493 93.71 37.6478 93.793 37.6462C94.6203 37.6534 96.7676 37.6354 97.1569 37.6367C97.3648 37.6373 97.1778 37.6553 98.1747 37.653C98.2093 37.6481 98.2439 37.6432 98.2785 37.6383C98.5068 37.6375 98.735 37.6368 98.9633 37.636C99.3917 37.6363 100.015 37.6444 100.035 37.6501C100.169 37.6466 100.303 37.6431 100.437 37.6397C100.796 37.6507 102.713 37.6458 103.484 37.6387C103.71 37.6419 103.935 37.6451 104.161 37.6482C104.464 37.6441 104.767 37.64 105.07 37.636C105.771 37.6345 105.03 37.6414 105.18 37.6419C105.496 37.6428 107.109 37.6312 107.003 37.6449C107.223 37.6449 107.443 37.6448 107.663 37.6448C107.776 37.6408 107.889 37.6369 108.002 37.633C108.379 37.6462 109.033 37.6412 110.373 37.6455C110.485 37.6424 110.598 37.6393 110.71 37.6362C111.124 37.6404 111.539 37.6445 111.953 37.6486C112.038 37.6436 112.123 37.6386 112.208 37.6336C112.388 37.6328 112.569 37.632 112.749 37.6312C113.115 37.6422 113.772 37.63 114.107 37.6344C114.595 37.6408 114.218 37.6488 113.311 37.6508C113.379 37.6588 116.079 37.6537 116.702 37.6528C116.661 37.6513 116.62 37.6498 116.579 37.6483C115.942 37.6498 115.305 37.6513 114.668 37.6529C114.135 37.6331 115.864 37.6377 116.657 37.6349C116.73 37.6346 117.141 37.627 117.941 37.6274C118.251 37.6276 119.459 37.6379 119.689 37.6384C121.552 37.6424 120.182 37.6279 122.004 37.6404C121.713 37.6328 122.259 37.6357 123.02 37.6363L123.076 37.6364L123.076 37.58C123.077 37.3472 123.077 37.0943 123.076 36.8391C123.076 36.6536 123.067 35.0808 123.067 34.9745C123.065 34.3122 123.074 35.0333 123.072 34.075C123.069 33.9598 123.067 33.8446 123.065 33.7294C123.065 33.5063 123.064 33.2833 123.064 33.0602C123.084 31.7065 123.069 31.3915 123.067 30.9103C123.066 30.7159 123.071 30.9662 123.07 30.462C123.07 30.2722 123.065 30.0617 123.065 29.551C123.063 27.953 123.081 27.4105 123.062 25.9412C123.065 25.7157 123.067 25.4902 123.07 25.2647C123.066 25.1125 123.063 24.9603 123.06 24.8082C123.069 23.6442 123.06 24.0644 123.06 23.644C123.059 22.5339 123.061 20.2622 123.068 20.0632C123.051 19.1049 123.069 17.9591 123.068 17.5813C123.066 17.3568 123.064 17.1324 123.062 16.9079C123.064 16.644 123.066 16.3801 123.068 16.1162C123.052 16.2445 123.067 14.8778 123.067 14.7466C123.067 14.6365 123.064 13.4954 123.063 12.58L123.063 12.5375L123.02 12.5374C122.676 12.538 122.364 12.5384 122.151 12.5385C121.369 12.5387 120.008 12.5351 119.888 12.5352C119.75 12.5353 118.42 12.5398 117.38 12.5402C116.47 12.5404 111.079 12.5372 111.419 12.5432C111.771 12.5448 112.273 12.5461 112.707 12.5467C113.893 12.5485 120.154 12.5495 123.02 12.5502L123.05 12.5502L123.05 12.58C123.05 12.9721 123.05 13.3007 123.05 13.544C123.048 17.5972 123.05 21.8243 123.049 25.8956C123.049 26.1351 123.045 26.1715 123.045 26.377C123.045 26.689 123.049 27.4807 123.049 27.7881C123.049 28.9365 123.049 30.3338 123.049 30.9487C123.049 32.3229 123.046 33.2655 123.046 34.3053C123.046 34.6308 123.052 36.2765 123.05 37.4046C123.049 37.4631 123.049 37.5215 123.049 37.58L123.049 37.6086L123.02 37.6086C122.874 37.6076 122.728 37.6067 122.582 37.6057C122.696 37.6054 122.847 37.6049 123.02 37.6044L123.044 37.6045L123.044 37.58C123.042 36.8699 123.04 35.7736 123.039 35.2049C123.038 34.1518 123.042 33.6025 123.042 33.2137C123.042 32.8883 123.037 31.2247 123.037 30.4672C123.037 30.2321 123.042 30.1839 123.042 29.9827C123.041 28.8908 123.041 27.4528 123.036 26.5057C123.038 26.8922 123.04 24.4782 123.04 24.3516C123.04 24.1346 123.036 23.8992 123.036 23.4562C123.036 22.6043 123.045 22.7123 123.036 21.6476C123.038 21.3841 123.041 21.1205 123.043 20.857C123.032 20.8408 123.047 17.5106 123.033 16.5634C123.031 16.5385 123.027 20.8661 123.027 21.2233C123.026 23.3662 123.029 26.5375 123.027 28.6172C123.026 29.2431 123.018 31.2111 123.019 31.3596C123.019 31.599 123.023 31.3827 123.023 31.4861C123.027 33.6037 123.018 32.5472 123.015 32.8288ZM49.9722 12.5603C50.6155 12.5601 51.2588 12.5599 51.9022 12.5597C51.8555 12.5606 51.8088 12.5615 51.7621 12.5624C51.4674 12.5622 51.1727 12.562 50.8781 12.5618C50.6515 12.5624 50.425 12.563 50.1984 12.5636C50.123 12.5625 50.0476 12.5614 49.9722 12.5603ZM48.3868 12.5644C47.8289 12.565 47.8017 12.5634 47.6729 12.5634C47.2887 12.5633 46.9564 12.5641 46.5834 12.5643C47.013 12.5603 47.9278 12.5615 48.3868 12.5644ZM59.9093 12.5613C59.7835 12.561 58.9438 12.556 57.9887 12.5614C57.2742 12.5601 56.5596 12.5589 55.845 12.5578C57.059 12.5595 58.7389 12.5563 59.3334 12.556C59.5592 12.5559 59.6023 12.5576 59.7827 12.5576C60.8226 12.5572 61.8336 12.5527 61.9399 12.5585C60.9565 12.5573 60.0698 12.5616 59.9093 12.5613ZM53.6339 12.562C53.4675 12.561 53.3012 12.5601 53.1348 12.5592C53.7359 12.5589 54.3371 12.5586 54.9382 12.5582C54.7756 12.5594 54.6131 12.5605 54.4505 12.5617C54.1783 12.5618 53.9061 12.5619 53.6339 12.562ZM99.8786 12.5492C99.5078 12.5493 99.1371 12.5494 98.7663 12.5495C98.7866 12.5511 99.2108 12.5509 99.3671 12.5519C99.3664 12.5519 99.3657 12.5519 99.365 12.5519C99.5391 12.5531 99.4646 12.5551 99.7811 12.5559C99.8136 12.5537 99.8461 12.5514 99.8786 12.5492ZM17.7609 37.6397C17.2267 37.6396 12.9105 37.6405 12.02 37.6511L11.9488 37.651L11.9489 37.58C11.9472 37.4346 11.9452 37.3805 11.9429 37.4491C11.9421 37.475 11.9414 37.5198 11.9409 37.58L11.9408 37.6589L12.02 37.6591C12.5326 37.6635 14.1592 37.6574 14.6772 37.6573C15.4573 37.6573 17.5643 37.6737 17.7609 37.6397ZM11.9609 33.1566C11.9444 33.0571 11.943 36.6439 11.9459 36.9946C11.9482 36.9202 11.9533 36.8054 11.9544 36.7062C11.9599 36.2224 11.9566 33.9298 11.9609 33.1566ZM120.642 12.5624C120.353 12.5589 120.064 12.5554 119.775 12.5519C119.851 12.5565 119.927 12.5611 120.003 12.5658C120.216 12.5647 120.429 12.5635 120.642 12.5624ZM122.35 37.6085C117.533 37.6092 112.716 37.6099 107.899 37.6105C108.323 37.6078 108.746 37.605 109.17 37.6023C113.321 37.6026 117.747 37.6044 121.755 37.5999C121.953 37.6028 122.152 37.6056 122.35 37.6085ZM61.2665 12.5703C62.5007 12.5701 63.5315 12.5682 64.8742 12.5706C63.5947 12.5734 62.9612 12.5696 61.7178 12.5734C61.7171 12.5734 61.7164 12.5734 61.7158 12.5734C61.566 12.5724 61.4162 12.5713 61.2665 12.5703ZM88.8209 12.5659C88.4457 12.5683 88.0704 12.5706 87.6951 12.5729C88.1465 12.5729 88.5978 12.5728 89.0492 12.5728C88.9731 12.5705 88.897 12.5682 88.8209 12.5659ZM80.3333 37.5874C79.0423 37.5993 75.74 37.5779 74.6908 37.5924C74.623 37.5933 75.2467 37.5994 74.2384 37.6114C75 37.6089 75.5378 37.6063 75.5945 37.597C75.8207 37.6001 76.0469 37.6033 76.2731 37.6064C76.6484 37.6039 77.0237 37.6015 77.3989 37.5991C77.3582 37.6083 77.3879 37.6078 77.9644 37.6014C78.2273 37.6037 78.4901 37.606 78.753 37.6083C78.8643 37.6044 78.9757 37.6005 79.0871 37.5967C79.3147 37.602 79.5423 37.6074 79.7698 37.6127C80.6569 37.6067 80.1166 37.5965 80.3333 37.5874ZM84.852 37.5893C84.6421 37.5873 78.657 37.5942 81.3771 37.6119C82.084 37.6112 82.791 37.6105 83.4979 37.6098C82.9124 37.5806 84.839 37.6066 84.9973 37.6071C85.7544 37.6098 86.7193 37.6028 87.2686 37.6031C87.741 37.6033 88.0216 37.6084 88.3539 37.6082C89.4857 37.6076 91.2736 37.6071 91.5196 37.5955C90.6398 37.5954 89.7461 37.5953 88.8312 37.5957C87.8636 37.5961 87.013 37.5849 85.1954 37.6006C84.746 37.5989 84.9062 37.5898 84.852 37.5893ZM86.5652 12.5725C86.6103 12.5673 84.3261 12.5689 84.3115 12.5709C84.307 12.5721 85.0509 12.572 85.1572 12.5724C85.1579 12.5724 85.1585 12.5724 85.1592 12.5724C85.2035 12.5726 84.9788 12.5745 85.3284 12.5751C85.7406 12.5742 86.1529 12.5734 86.5652 12.5725ZM26.6874 37.6015C26.3786 37.5925 19.3248 37.5961 19.1171 37.6007C19.0606 37.6019 19.1393 37.606 19.1171 37.6084C20.7627 37.5951 23.102 37.6104 24.6641 37.6111C25.0995 37.6113 24.9694 37.6049 24.994 37.6047C24.9951 37.6047 24.9961 37.6047 24.9971 37.6047C25.2442 37.6047 26.3597 37.6202 26.6874 37.6015ZM72.4319 37.5984C72.7318 37.6004 73.0317 37.6024 73.3315 37.6044C73.4076 37.6004 73.4837 37.5964 73.5598 37.5924C73.5591 37.5924 73.5584 37.5924 73.5577 37.5924C73.1825 37.5944 72.8072 37.5964 72.4319 37.5984ZM62.0425 37.5855C62.1155 37.5885 62.1884 37.5915 62.2614 37.5944C63.0164 37.5948 63.7715 37.5951 64.5265 37.5955C64.4504 37.5972 64.3743 37.5988 64.2982 37.6005C65.4398 37.6048 65.9126 37.5945 66.5208 37.5959C66.5201 37.5959 66.5194 37.5959 66.5187 37.5959C66.5841 37.5961 66.6633 37.6021 66.9067 37.6023C67.4649 37.6027 69.0646 37.6047 69.2579 37.5987C69.667 37.5859 66.4477 37.5921 65.8474 37.5916C65.5761 37.5913 65.2497 37.586 65.0847 37.5859C64.9039 37.5858 64.6576 37.593 64.2173 37.5928C64.0884 37.5928 62.6598 37.5843 62.0425 37.5855ZM48.7156 37.5954C48.9484 37.6025 49.4345 37.5956 49.6131 37.5967C49.6558 37.597 49.3239 37.603 49.7262 37.6048C49.84 37.6007 49.9538 37.5966 50.0676 37.5925C49.6169 37.5935 49.1662 37.5944 48.7156 37.5954ZM82.7271 12.5752C82.7928 12.5757 84.0191 12.5755 84.0781 12.5751C84.8128 12.5706 82.2727 12.5714 82.7271 12.5752ZM51.7787 12.5801C52.3428 12.5837 45.6497 12.58 45.0011 12.5803C45.0335 12.5784 46.6257 12.5803 45.7917 12.5777C46.5875 12.5791 48.7873 12.5782 49.3051 12.5787C49.6192 12.5789 49.6986 12.5808 49.746 12.5808C49.9324 12.5811 51.5798 12.5789 51.7787 12.5801ZM39.4707 12.5792C40.1068 12.5795 40.7428 12.5798 41.3788 12.5801C40.6283 12.5803 39.8778 12.5804 39.1273 12.5806C39.2417 12.5801 39.3562 12.5797 39.4707 12.5792ZM38.6707 12.5799C38.6911 12.5814 36.5321 12.5802 35.9647 12.5805C36.6044 12.5782 37.6716 12.5804 38.6707 12.5799ZM74.5923 12.5846C75.587 12.587 76.0145 12.5764 74.8051 12.581C74.7683 12.5812 74.5508 12.5845 74.5923 12.5846ZM80.0261 37.5451C79.8566 37.5449 77.7472 37.5347 77.6251 37.5395C77.239 37.555 78.6233 37.549 79.0871 37.5549C79.8354 37.5645 78.7349 37.5721 80.5615 37.5666C80.4868 37.5696 80.4121 37.5727 80.3374 37.5758C81.4065 37.5768 81.0566 37.5556 81.2484 37.5529C81.3071 37.5521 81.9755 37.554 82.0961 37.5526C83.6026 37.536 80.1834 37.5453 80.0261 37.5451ZM99.2156 12.5876C101.196 12.5922 100.344 12.5856 102.376 12.5862C102.444 12.5827 99.4733 12.5848 99.2156 12.5876ZM99.3088 37.5597C97.2608 37.5619 95.5766 37.5536 93.6664 37.5643C93.7907 37.5812 99.8401 37.5638 99.3088 37.5597ZM12.0789 28.6399C12.0616 31.4927 12.0527 34.5022 12.0482 37.58L12.02 37.5518C17.5391 37.5598 23.2775 37.5542 28.7242 37.5544C29.6488 37.5545 29.7374 37.5638 30.072 37.5628C30.2912 37.5622 30.2529 37.5547 30.5441 37.5547C41.072 37.5544 51.1525 37.547 61.2373 37.5524C61.8725 37.5529 64.963 37.5668 65.6232 37.5464C66.1226 37.531 63.9025 37.5426 63.5325 37.5425C63.2544 37.5423 63.2426 37.5349 63.0573 37.5348C62.8606 37.5348 63.0231 37.5399 62.7947 37.5399C61.8272 37.5401 60.7715 37.5378 59.8967 37.5381C51.3176 37.5405 42.9711 37.5379 34.4372 37.5353C33.4042 37.535 33.6166 37.5282 33.5646 37.5282C33.5639 37.5282 33.5632 37.5282 33.5625 37.5283C28.0239 37.5262 21.6984 37.5409 15.832 37.5337C14.5614 37.5319 13.2907 37.5301 12.02 37.5282L12.0718 37.58C12.0759 34.7196 12.0802 31.8593 12.0846 28.9989C12.0827 28.8792 12.0808 28.7596 12.0789 28.6399ZM84.3996 37.5646C83.8842 37.5446 83.769 37.5647 81.9197 37.5563C81.7693 37.5597 81.6188 37.5632 81.4684 37.5666C82.4465 37.5659 83.4246 37.5653 84.4027 37.5646C84.4017 37.5646 84.4006 37.5646 84.3996 37.5646ZM72.186 37.5558C71.8735 37.5269 67.7384 37.5465 65.8764 37.5406C65.5351 37.5554 68.242 37.5492 68.8802 37.5508C69.199 37.5517 70.9061 37.5668 72.2037 37.5587C72.1978 37.5577 72.1919 37.5567 72.186 37.5558ZM58.7814 12.5907C59.0823 12.5906 59.3832 12.5904 59.6841 12.5903C58.9312 12.5893 58.1782 12.5884 57.4253 12.5875C58.6265 12.5882 59.8277 12.5889 61.0289 12.5897C60.8051 12.5912 60.5813 12.5927 60.3575 12.5942C59.8322 12.593 59.3068 12.5918 58.7814 12.5907ZM62.6786 12.5908C60.5751 12.591 62.771 12.5871 63.296 12.5891C63.6103 12.5903 62.8934 12.5908 62.6786 12.5908ZM68.1499 12.595C67.1689 12.5979 65.1863 12.5974 65.8911 12.5916C66.9513 12.5947 67.6347 12.5925 69.1719 12.5946C68.9475 12.5957 68.723 12.5969 68.4985 12.598C68.4975 12.598 68.4965 12.598 68.4954 12.598C68.3802 12.597 68.2651 12.596 68.1499 12.595ZM61.7178 12.594C60.3401 12.5904 64.3288 12.5925 63.075 12.5943C63.0162 12.5944 61.7721 12.5941 61.7178 12.594ZM12.1055 37.4491C12.1028 37.3991 12.1009 37.4603 12.0995 37.58L12.02 37.5004C12.2975 37.5036 12.889 37.5038 13.1353 37.5043C14.6634 37.5074 16.6232 37.5042 18.2123 37.5059C18.0926 37.5029 17.9729 37.5 17.8533 37.4971C15.9089 37.4962 13.9644 37.4954 12.02 37.4945L12.1055 37.58C12.1055 37.5363 12.1055 37.4927 12.1055 37.4491ZM23.1834 37.5075C24.2753 37.5078 25.3672 37.5081 26.4591 37.5085C26.5608 37.5085 27.0382 37.5014 26.6832 37.4995C25.5166 37.5021 24.35 37.5048 23.1834 37.5075ZM91.2924 37.5284C90.4552 37.5246 92.8659 37.508 92.7574 37.5267C92.2691 37.5272 91.7807 37.5278 91.2924 37.5284ZM99.0826 37.5236C98.5576 37.5251 98.0326 37.5267 97.5076 37.5282C97.5069 37.5262 97.5062 37.5241 97.5055 37.522C98.0312 37.5225 98.5569 37.5231 99.0826 37.5236ZM12.1135 33.1566C12.1022 33.7127 12.1035 35.0394 12.1029 35.8668C12.1126 35.2969 12.1084 33.9386 12.1135 33.1566ZM78.7488 37.5164C78.8167 37.5218 75.4865 37.5194 76.6394 37.5101C77.3426 37.5122 78.0457 37.5143 78.7488 37.5164ZM71.9847 37.5056C72.699 37.5047 73.2523 37.5068 73.1053 37.5156C72.7266 37.5151 72.3479 37.5146 71.9692 37.5141C71.9744 37.5113 71.9796 37.5084 71.9847 37.5056ZM71.8842 12.6014C73.0878 12.6016 74.2914 12.6018 75.4951 12.6019C75.4504 12.6027 75.4058 12.6035 75.3612 12.6043C74.2008 12.6042 73.0404 12.604 71.8801 12.6038C71.8815 12.603 71.8828 12.6022 71.8842 12.6014ZM12.1431 32.4759C12.1413 31.6493 12.1396 30.8227 12.1378 29.996C12.1352 30.8233 12.1326 31.6507 12.1301 32.478C12.1344 32.478 12.1388 32.478 12.1431 32.478C12.1431 32.4773 12.1431 32.4766 12.1431 32.4759ZM55.3957 12.6028C59.0727 12.6075 54.381 12.6075 53.4108 12.6032C53.4098 12.6032 53.4088 12.6032 53.4077 12.6032C53.3228 12.6029 53.5024 12.6014 53.361 12.6007C53.7352 12.6016 54.1095 12.6025 54.4837 12.6034C54.8251 12.6027 55.1664 12.602 55.5078 12.6012C55.6202 12.6016 55.7326 12.602 55.845 12.6025C55.6953 12.6026 55.5455 12.6027 55.3957 12.6028ZM40.556 12.5959C37.222 12.5939 40.6334 12.5931 42.2836 12.5961C42.2718 12.5966 40.8632 12.5961 40.556 12.5959ZM49.2936 12.6001C49.819 12.6 50.3444 12.6 50.8698 12.5999C50.9368 12.6004 51.004 12.6008 51.071 12.6013C50.6678 12.6015 50.2645 12.6017 49.8612 12.6019C49.672 12.6013 49.4828 12.6007 49.2936 12.6001ZM66.5717 12.6185C67.4172 12.6198 68.4957 12.6138 65.7811 12.6138C65.7824 12.6145 65.7838 12.6152 65.7852 12.6159C65.8934 12.6159 66.2109 12.6154 66.2283 12.6155C66.278 12.6157 66.2193 12.618 66.5717 12.6185ZM34.3823 12.6001C34.2874 12.6002 34.2357 12.603 33.2482 12.5991C32.9497 12.599 32.6513 12.5989 32.3528 12.5988C32.2757 12.5981 32.1985 12.5974 32.1214 12.5968C33.2766 12.5982 33.3991 12.5971 33.4827 12.5971C33.8667 12.5973 33.5825 12.5977 33.8303 12.5979C34.47 12.5985 35.9236 12.5992 35.2643 12.6007C35.0269 12.6013 34.4773 12.6001 34.3823 12.6001ZM36.6412 12.6041C36.5011 12.6036 36.9524 12.6031 36.8466 12.6027C36.754 12.6024 35.3616 12.6002 35.7385 12.5989C35.9671 12.5991 36.1957 12.5994 36.4243 12.5996C36.5018 12.6002 36.5793 12.6007 36.6567 12.6012C36.8781 12.601 37.0995 12.6007 37.3208 12.6005C37.6938 12.6019 38.4876 12.6042 37.5449 12.6043C37.8915 12.6045 38.238 12.6047 38.5846 12.605C38.7641 12.6045 38.9436 12.6041 39.1231 12.6037C39.029 12.6045 38.935 12.6053 38.8409 12.6061C38.1076 12.6054 37.3744 12.6047 36.6412 12.6041ZM25.8979 12.5934C25.9401 12.5932 25.9823 12.593 26.0245 12.5928C24.7517 12.592 22.7697 12.5903 23.8953 12.5901C25.6195 12.5914 27.3436 12.5927 29.0678 12.594C29.1822 12.5943 29.2967 12.5946 29.4112 12.595C28.1249 12.593 28.5224 12.5969 27.4034 12.5948C27.2148 12.5944 27.7622 12.5938 26.5765 12.5934C26.6187 12.5937 26.6609 12.594 26.7031 12.5943C26.4347 12.594 26.1663 12.5937 25.8979 12.5934ZM14.9564 12.5827C17.1357 12.5849 14.7352 12.5828 14.3328 12.5822C14.3335 12.5822 14.3342 12.5822 14.3349 12.5822C13.2321 12.5809 15.6034 12.5832 15.7481 12.5833C15.9404 12.5835 16.3882 12.5834 17.4342 12.5851C16.6083 12.5843 15.7823 12.5835 14.9564 12.5827ZM22.0712 12.5897C21.8881 12.5895 21.9895 12.5894 21.9104 12.5893C21.9097 12.5893 21.909 12.5893 21.9083 12.5893C20.7418 12.5883 17.9673 12.5857 17.6666 12.585C18.5301 12.5857 22.3938 12.5889 22.6274 12.5897C22.442 12.5897 22.2566 12.5897 22.0712 12.5897ZM30.2797 12.5965C30.9958 12.5981 29.3836 12.5967 28.9609 12.5959C28.8811 12.5957 29.5377 12.5948 30.2797 12.5965ZM85.2132 12.6563C86.7889 12.6555 84.7186 12.6511 85.4352 12.648C85.1343 12.6481 84.8334 12.6481 84.5325 12.6481C84.7594 12.6508 84.9863 12.6536 85.2132 12.6563ZM113.99 37.4137C113.623 37.4124 113.797 37.4171 113.765 37.4172C113.523 37.4168 113.296 37.4128 113.203 37.4131C111.491 37.4186 112.63 37.4238 112.647 37.4247C112.683 37.4292 112.233 37.4341 112.857 37.4398C113.235 37.4386 113.614 37.4374 113.992 37.4362C114.18 37.4388 114.367 37.4415 114.555 37.4441C115.307 37.4395 114.323 37.4372 114.212 37.43C114.169 37.4271 114.876 37.4246 113.99 37.4137ZM88.0365 12.6671C88.292 12.6633 88.9181 12.6587 88.3032 12.6539C88.3025 12.6539 88.3018 12.6539 88.3011 12.6539C88.1874 12.6531 87.7243 12.6522 87.582 12.651C86.5677 12.6555 86.9563 12.6613 88.0365 12.6671ZM120.777 37.4081C121.387 37.4106 121.997 37.4131 122.607 37.4155C122.597 37.4199 122.586 37.4244 122.576 37.4288C122.249 37.4272 121.923 37.4257 121.596 37.4241C121.482 37.426 121.367 37.4279 121.253 37.4298C121.658 37.4354 122.064 37.4409 122.469 37.4463C122.653 37.4458 122.836 37.4453 123.02 37.4449L122.885 37.58C122.884 37.2752 122.883 36.9705 122.883 36.6658C122.88 36.8903 122.877 37.1148 122.875 37.3392C122.874 36.1456 122.884 36.4055 122.889 35.4176C122.885 35.0793 122.882 34.7411 122.878 34.4028C122.883 33.9131 122.887 33.4233 122.892 32.9336C122.89 32.1107 122.888 32.0384 122.882 32.5922C122.878 32.1831 122.886 31.7351 122.885 31.2423C122.885 31.2016 122.88 31.2783 122.88 31.2423C122.879 28.6946 122.892 28.8301 122.892 28.4232C122.893 28.136 122.886 26.9896 122.883 26.9716C122.88 26.9495 122.862 29.3337 122.866 25.5999C122.853 27.5303 122.861 29.725 122.878 28.3059C122.876 28.9169 122.877 31.6111 122.876 31.7829C122.875 32.0333 122.869 31.9455 122.869 32.2592C122.868 32.4445 122.881 32.9357 122.868 34.4028C122.87 34.5903 122.872 34.7778 122.874 34.9652C122.872 35.1409 122.87 35.3166 122.868 35.4923C122.861 35.1305 122.855 34.7688 122.849 34.407C122.854 35.6711 122.842 36.7453 122.847 37.58L123.02 37.4068C122.908 37.4074 122.801 37.4083 122.698 37.4095C121.944 37.4072 121.577 37.4054 121.901 37.3997C121.675 37.3994 121.448 37.3991 121.222 37.3988C121.073 37.4019 120.925 37.405 120.777 37.4081ZM92.6663 12.6662C93.4161 12.6711 93.6857 12.6625 93.569 12.6619C92.9114 12.6585 92.2761 12.6637 92.6663 12.6662ZM115.351 37.4235C116.178 37.4285 117.006 37.4333 117.833 37.4381C117.833 37.4332 117.833 37.4284 117.833 37.4236C117.006 37.4235 116.178 37.4235 115.351 37.4235ZM84.9828 12.6617C84.9068 12.6598 84.8307 12.6578 84.7546 12.6558C83.8484 12.6617 82.9487 12.651 82.5009 12.6526C82.4038 12.6529 82.5999 12.6563 82.7852 12.6572C82.9005 12.6577 84.8223 12.6622 84.9828 12.6617ZM47.2589 12.619C47.5965 12.6188 47.934 12.6185 48.2716 12.6183C48.2529 12.6193 48.2343 12.6203 48.2156 12.6213C48.0489 12.6213 47.8822 12.6213 47.7155 12.6213C47.5633 12.6206 47.4111 12.6198 47.2589 12.619ZM51.1001 12.6215C51.7023 12.6222 52.3044 12.6229 52.9066 12.6237C50.6098 12.6223 52.4947 12.6248 51.1001 12.6248C51.1001 12.6237 51.1001 12.6226 51.1001 12.6215ZM57.195 12.6306C57.1209 12.6313 57.0469 12.632 56.9729 12.6327C56.3707 12.632 55.7686 12.6313 55.1664 12.6306C55.5472 12.6336 55.928 12.6367 56.3088 12.6399C56.5295 12.6402 56.7502 12.6405 56.9708 12.6408C57.0455 12.6374 57.1202 12.634 57.195 12.6306ZM97.7244 37.3742C97.3605 37.3736 96.0941 37.3805 96.1483 37.3837C96.6744 37.3882 97.2004 37.3927 97.7265 37.3971C97.7289 37.3916 97.7313 37.386 97.7338 37.3805C97.8081 37.3833 97.8825 37.3862 97.9568 37.389C98.256 37.3873 98.5552 37.3856 98.8544 37.3839C99.0052 37.3889 99.156 37.3939 99.3068 37.3989C99.4583 37.3936 99.6097 37.3883 99.7612 37.383C98.3167 37.3715 98.3664 37.3812 98.0658 37.3808C97.9133 37.3805 97.8169 37.377 97.7628 37.3752C97.75 37.3749 97.7372 37.3746 97.7244 37.3742ZM115.923 37.3928C114.198 37.3893 113.212 37.4013 111.964 37.3886C112.765 37.4132 117.933 37.3956 119.755 37.4167C119.944 37.4133 120.133 37.41 120.322 37.4066C119.33 37.4086 118.643 37.4003 118.159 37.3986C117.775 37.3972 117.815 37.4011 117.785 37.401C117.784 37.401 117.783 37.401 117.781 37.401C116.882 37.3983 116.603 37.3942 115.923 37.3928ZM83.7014 12.6694C84.1649 12.6729 84.9759 12.6736 84.9849 12.6693C84.5336 12.6675 84.0822 12.6657 83.6309 12.6639C83.7235 12.6651 83.6223 12.6688 83.7014 12.6694ZM57.8953 12.639C58.257 12.6404 59.1115 12.6407 58.743 12.6378C58.6768 12.6373 57.8257 12.6379 58.3249 12.6342C57.4956 12.6333 57.6897 12.6382 57.8953 12.639ZM122.885 15.2031C122.885 14.8988 122.886 14.5944 122.886 14.29C122.883 14.2191 122.881 14.1482 122.878 14.0773C122.88 14.4526 122.883 14.8279 122.885 15.2031ZM79.7897 12.6673C79.385 12.6588 78.6938 12.6656 77.9344 12.6583C77.654 12.6579 77.3735 12.6575 77.093 12.6571C77.0923 12.6571 77.0916 12.6571 77.0909 12.6571C77.0833 12.6592 77.0757 12.6613 77.0681 12.6634C77.9753 12.6647 78.8825 12.666 79.7897 12.6673ZM122.855 34.1808C122.857 33.9933 122.86 33.8059 122.862 33.6184C122.86 33.2846 122.858 32.9509 122.856 32.6171C122.854 32.7977 122.852 32.9782 122.85 33.1588C122.852 33.4994 122.854 33.8401 122.855 34.1808ZM74.859 12.6616C75.8401 12.6638 76.2091 12.6577 74.9545 12.6561C74.4255 12.6555 73.8311 12.6593 74.859 12.6616ZM78.9813 37.3572C79.3174 37.3592 79.6536 37.3612 79.9898 37.3632C80.1043 37.3594 80.2188 37.3557 80.3333 37.352C79.8826 37.3537 79.4319 37.3555 78.9813 37.3572ZM53.2427 12.6325C53.2822 12.6317 53.3216 12.6309 53.361 12.63C53.6609 12.6306 53.9608 12.6311 54.2606 12.6317C54.1852 12.6325 54.1098 12.6333 54.0344 12.6341C53.7705 12.6336 53.5066 12.6331 53.2427 12.6325ZM81.2432 37.3624C81.512 37.3634 81.7807 37.3645 82.0494 37.3655C82.23 37.3639 82.4105 37.3623 82.5911 37.3606C82.3396 37.3585 82.0882 37.3563 81.8367 37.3542C81.6389 37.3569 81.4411 37.3596 81.2432 37.3624ZM65.559 12.6489C65.9365 12.6509 67.4445 12.6483 66.0861 12.6456C65.2206 12.6438 65.5024 12.6487 65.559 12.6489ZM63.5243 12.6477C64.9621 12.6521 63.884 12.6378 62.1682 12.6439C63.8955 12.645 63.4398 12.6474 63.5243 12.6477ZM50.8812 12.6361C50.845 12.636 50.8152 12.6346 50.5263 12.6341C49.4864 12.6325 48.1137 12.63 47.3699 12.6289C45.5819 12.6264 40.105 12.6205 39.4645 12.6168C39.3311 12.616 39.6381 12.6146 39.5838 12.6144C39.4246 12.614 38.5085 12.6137 38.678 12.6126C39.5769 12.6137 40.4758 12.6148 41.3747 12.6159C41.154 12.6167 40.9334 12.6174 40.7127 12.618C42.9525 12.6205 42.2111 12.6196 42.8553 12.6181C43.2344 12.6195 43.6135 12.6208 43.9926 12.6223C44.8178 12.6224 45.643 12.6225 46.4683 12.6226C46.2811 12.6231 46.094 12.6236 45.9069 12.624C47.1502 12.627 46.8048 12.6257 47.4851 12.6247C47.4865 12.6255 47.4879 12.6263 47.4893 12.627C48.6897 12.6267 48.9235 12.6294 49.1857 12.6298C49.7237 12.6307 50.4094 12.6215 52.4614 12.6341C53.3267 12.6303 53.307 12.6405 53.8155 12.636C55.2799 12.6438 52.4948 12.6377 51.1769 12.6357C51.1762 12.6357 51.1755 12.6357 51.1748 12.6357C51.0754 12.6355 51.2332 12.6366 50.8812 12.6361ZM58.4037 12.6411C57.5172 12.645 61.0197 12.6505 59.8605 12.6411C59.6879 12.6407 59.5154 12.6402 59.3428 12.6397C59.0291 12.6402 58.7154 12.6406 58.4017 12.6411C58.4024 12.6411 58.4031 12.6411 58.4037 12.6411ZM91.3122 12.6903C94.5562 12.6911 92.7118 12.6834 91.6131 12.687C91.3939 12.6877 91.2738 12.6888 91.3122 12.6903ZM113.459 37.3771C113.411 37.379 113.364 37.3809 113.316 37.3828C114.404 37.3825 116.508 37.3927 116.479 37.3798C115.472 37.3789 114.465 37.378 113.459 37.3771ZM122.064 37.381C121.831 37.38 120.876 37.3768 120.992 37.3816C121.405 37.3855 121.819 37.3894 122.232 37.3932C122.425 37.3914 122.618 37.3897 122.81 37.3879C122.541 37.3868 122.128 37.3813 122.064 37.381Z" fill="#DCCEBD"/>
<path d="M8.66002 37.58C8.55335 37.58 8.50002 37.5 8.50002 37.34C8.50002 37.18 8.55335 37.1 8.66002 37.1C9.35335 37.1 10.18 36.74 11.14 36.02C12.1267 35.2733 13.1 34.0333 14.06 32.3L25.3 12.22C25.3534 12.1133 25.4734 12.0733 25.66 12.1C25.8734 12.1266 25.9934 12.18 26.02 12.26L30.1 34.22C30.2334 34.94 30.3667 35.5133 30.5 35.94C30.6334 36.3666 30.8734 36.6733 31.22 36.86C31.5667 37.02 32.1 37.1 32.82 37.1C32.9267 37.1 32.98 37.18 32.98 37.34C32.98 37.5 32.9267 37.58 32.82 37.58C32.1534 37.58 31.4734 37.5533 30.78 37.5C30.0867 37.4466 29.3267 37.42 28.5 37.42C27.7 37.42 26.98 37.4466 26.34 37.5C25.7 37.5533 25.0467 37.58 24.38 37.58C24.2734 37.58 24.22 37.5 24.22 37.34C24.22 37.18 24.2734 37.1 24.38 37.1C25.4734 37.1 26.1667 36.9 26.46 36.5C26.78 36.1 26.8334 35.34 26.62 34.22L23.34 16.66L25.18 14.26L15.22 32.38C14.5534 33.5533 14.18 34.4866 14.1 35.18C14.0467 35.8733 14.26 36.3666 14.74 36.66C15.2467 36.9533 16.0067 37.1 17.02 37.1C17.1267 37.1 17.18 37.18 17.18 37.34C17.18 37.5 17.1134 37.58 16.98 37.58C16.3934 37.58 15.6734 37.5533 14.82 37.5C13.9667 37.4466 13.14 37.42 12.34 37.42C11.5667 37.42 10.9267 37.4466 10.42 37.5C9.94002 37.5533 9.35335 37.58 8.66002 37.58ZM18.38 25.3L18.98 24.26H26.46L26.54 25.3H18.38ZM39.2816 38.1C38.1349 38.1 37.3349 37.6733 36.8816 36.82C36.4549 35.9666 36.4282 34.6333 36.8016 32.82L38.2016 25.7C38.3349 24.9 38.3349 24.3666 38.2016 24.1C38.0949 23.8066 37.9082 23.66 37.6416 23.66C37.3482 23.66 37.0149 23.8066 36.6416 24.1C36.2682 24.3933 35.8416 24.7666 35.3616 25.22C35.2549 25.3266 35.1482 25.3266 35.0416 25.22C34.9349 25.1133 34.9349 25.0066 35.0416 24.9C35.8949 23.8866 36.6682 23.1133 37.3616 22.58C38.0816 22.0466 38.8149 21.78 39.5616 21.78C40.3082 21.78 40.8282 22.0866 41.1216 22.7C41.4149 23.2866 41.4016 24.2866 41.0816 25.7L39.8416 32.06C39.5482 33.42 39.5082 34.4333 39.7216 35.1C39.9616 35.74 40.4016 36.06 41.0416 36.06C41.8416 36.06 42.6682 35.54 43.5216 34.5C44.4016 33.46 45.2149 31.94 45.9616 29.94C46.7349 27.9133 47.3749 25.4466 47.8816 22.54L48.5216 22.58C47.9882 25.7266 47.2549 28.4733 46.3216 30.82C45.3882 33.14 44.3216 34.94 43.1216 36.22C41.9216 37.4733 40.6416 38.1 39.2816 38.1ZM47.3216 37.94C46.5482 37.94 46.0416 37.6466 45.8016 37.06C45.5882 36.4733 45.5882 35.58 45.8016 34.38L47.8816 22.54C47.9882 22.06 48.6149 21.82 49.7616 21.82C50.2416 21.82 50.5616 21.86 50.7216 21.94C50.8816 21.9933 50.9616 22.0466 50.9616 22.1C50.9616 22.2066 50.8949 22.5666 50.7616 23.18C50.6282 23.7666 50.4949 24.4066 50.3616 25.1L48.7216 34.02C48.4816 35.4066 48.6949 36.1 49.3616 36.1C49.6282 36.1 49.9749 35.9666 50.4016 35.7C50.8282 35.4066 51.2949 34.98 51.8016 34.42C51.8816 34.3133 51.9749 34.3266 52.0816 34.46C52.2149 34.5666 52.2282 34.6733 52.1216 34.78C51.1882 35.9 50.3482 36.7133 49.6016 37.22C48.8549 37.7 48.0949 37.94 47.3216 37.94ZM57.9488 38.06C57.3621 38.06 56.8021 37.9533 56.2688 37.74C55.7354 37.5266 55.3488 37.14 55.1088 36.58C54.8688 35.9933 54.8421 35.1666 55.0288 34.1L56.6288 25.34C56.7888 24.4333 56.7888 23.8466 56.6288 23.58C56.4954 23.3133 56.0421 23.18 55.2688 23.18C55.1621 23.18 55.1088 23.0866 55.1088 22.9C55.1354 22.7133 55.1888 22.62 55.2688 22.62C56.4421 22.62 57.4021 22.2866 58.1488 21.62C58.9221 20.9266 59.5088 20.1266 59.9088 19.22C59.9354 19.14 60.0688 19.1133 60.3088 19.14C60.5488 19.1666 60.6554 19.2333 60.6288 19.34L58.1488 33.22C57.9621 34.2066 58.0288 34.94 58.3488 35.42C58.6688 35.8733 59.2421 36.1 60.0688 36.1C60.6821 36.1 61.2688 35.9666 61.8288 35.7C62.4154 35.4066 63.0021 35.0066 63.5888 34.5C63.6421 34.4466 63.7221 34.4733 63.8288 34.58C63.9621 34.6866 63.9888 34.78 63.9088 34.86C62.7088 36.0066 61.6421 36.8333 60.7088 37.34C59.7754 37.82 58.8554 38.06 57.9488 38.06ZM63.9488 24.02C63.8954 24.02 63.6154 23.9933 63.1088 23.94C62.6021 23.86 61.9888 23.78 61.2688 23.7C60.5754 23.62 59.8688 23.58 59.1488 23.58L59.2288 22.5C60.0554 22.5 60.8554 22.4733 61.6288 22.42C62.4021 22.3666 63.0821 22.3133 63.6688 22.26C64.2821 22.2066 64.7088 22.18 64.9488 22.18C65.0821 22.18 65.1621 22.2333 65.1888 22.34C65.2421 22.42 65.2554 22.5133 65.2288 22.62C65.2021 22.8333 65.0421 23.1266 64.7488 23.5C64.4821 23.8466 64.2154 24.02 63.9488 24.02ZM67.3819 37.9C66.9019 37.9 66.5819 37.8733 66.4219 37.82C66.2619 37.7666 66.1819 37.7 66.1819 37.62C66.1819 37.5133 66.2486 37.1666 66.3819 36.58C66.5419 35.9666 66.6752 35.3133 66.7819 34.62L70.6619 13.62C70.8752 12.4466 70.7952 11.7266 70.4219 11.46C70.0752 11.1933 69.3286 11.34 68.1819 11.9C68.0752 11.9533 67.9952 11.9 67.9419 11.74C67.8886 11.58 67.9152 11.4866 68.0219 11.46L73.8619 8.57996C73.9952 8.52662 74.1152 8.55329 74.2219 8.65995C74.3286 8.76662 74.3686 8.84662 74.3419 8.89996L69.3019 37.18C69.1686 37.66 68.5286 37.9 67.3819 37.9ZM77.6619 37.94C76.8619 37.94 76.3419 37.62 76.1019 36.98C75.8886 36.34 75.9019 35.3533 76.1419 34.02L77.3019 27.66C77.5686 26.3 77.5952 25.3 77.3819 24.66C77.1686 23.9933 76.7419 23.66 76.1019 23.66C75.3019 23.66 74.4619 24.18 73.5819 25.22C72.7286 26.26 71.9152 27.7933 71.1419 29.82C70.3952 31.82 69.7819 34.2733 69.3019 37.18L68.6219 37.14C69.1819 33.9666 69.9152 31.22 70.8219 28.9C71.7552 26.58 72.8219 24.7933 74.0219 23.54C75.2486 22.26 76.5286 21.62 77.8619 21.62C79.0086 21.62 79.7952 22.0466 80.2219 22.9C80.6486 23.7266 80.7019 25.06 80.3819 26.9L79.0619 34.02C78.9286 34.7933 78.9152 35.3266 79.0219 35.62C79.1552 35.9133 79.3552 36.06 79.6219 36.06C79.9152 36.06 80.2486 35.9133 80.6219 35.62C81.0219 35.3266 81.4486 34.9533 81.9019 34.5C82.0086 34.3933 82.1152 34.3933 82.2219 34.5C82.3286 34.6066 82.3286 34.7133 82.2219 34.82C81.3952 35.8066 80.6219 36.58 79.9019 37.14C79.1819 37.6733 78.4352 37.94 77.6619 37.94ZM89.5422 38.14C88.1289 38.14 86.9955 37.7666 86.1422 37.02C85.2889 36.2466 84.7155 35.2333 84.4222 33.98C84.1555 32.7266 84.1689 31.3533 84.4622 29.86C84.7555 28.26 85.3289 26.8466 86.1822 25.62C87.0355 24.3666 88.0622 23.3933 89.2622 22.7C90.4622 21.98 91.7555 21.62 93.1422 21.62C94.6089 21.62 95.7689 21.9933 96.6222 22.74C97.5022 23.4866 98.0755 24.4866 98.3422 25.74C98.6355 26.9666 98.6222 28.34 98.3022 29.86C97.9822 31.62 97.3555 33.1266 96.4222 34.38C95.4889 35.6333 94.4089 36.58 93.1822 37.22C91.9822 37.8333 90.7689 38.14 89.5422 38.14ZM90.9022 37.14C91.8355 37.14 92.6622 36.6466 93.3822 35.66C94.1289 34.6733 94.6489 33.3266 94.9422 31.62C95.1555 30.5 95.2489 29.4066 95.2222 28.34C95.1955 27.2733 95.0489 26.3 94.7822 25.42C94.5155 24.54 94.1289 23.8466 93.6222 23.34C93.1422 22.8333 92.5555 22.58 91.8622 22.58C90.9822 22.58 90.1689 23.0466 89.4222 23.98C88.7022 24.9133 88.1689 26.3 87.8222 28.14C87.6089 29.2866 87.5155 30.4066 87.5422 31.5C87.5955 32.5666 87.7555 33.5266 88.0222 34.38C88.2889 35.2066 88.6622 35.8733 89.1422 36.38C89.6489 36.8866 90.2355 37.14 90.9022 37.14ZM104.473 37.18L104.073 37.14C104.34 35.78 104.646 34.3933 104.993 32.98C105.366 31.54 105.766 30.1533 106.193 28.82C106.646 27.4866 107.14 26.3 107.673 25.26C108.206 24.1933 108.766 23.3533 109.353 22.74C109.966 22.1 110.593 21.78 111.233 21.78C111.633 21.78 112.046 21.8866 112.473 22.1C112.9 22.3133 113.246 22.6066 113.513 22.98C113.78 23.3266 113.873 23.7133 113.793 24.14C113.74 24.4866 113.566 24.82 113.273 25.14C113.006 25.46 112.646 25.62 112.193 25.62C111.793 25.62 111.46 25.5133 111.193 25.3C110.953 25.0866 110.713 24.8733 110.473 24.66C110.26 24.4466 110.02 24.34 109.753 24.34C109.433 24.34 109.073 24.6466 108.673 25.26C108.273 25.8466 107.86 26.62 107.433 27.58C107.006 28.54 106.593 29.5933 106.193 30.74C105.82 31.8866 105.486 33.0333 105.193 34.18C104.9 35.3 104.66 36.3 104.473 37.18ZM102.593 37.9C102.113 37.9 101.793 37.8733 101.633 37.82C101.473 37.7666 101.393 37.7 101.393 37.62C101.393 37.5133 101.473 37.1533 101.633 36.54C101.793 35.9266 101.926 35.2866 102.033 34.62L103.553 26.22C103.686 25.5533 103.726 25.0333 103.673 24.66C103.646 24.2866 103.566 24.02 103.433 23.86C103.3 23.7 103.126 23.62 102.913 23.62C102.62 23.62 102.273 23.7666 101.873 24.06C101.473 24.3266 101.033 24.7 100.553 25.18C100.473 25.26 100.38 25.2466 100.273 25.14C100.166 25.0333 100.153 24.9266 100.233 24.82C101.14 23.7533 101.966 22.98 102.713 22.5C103.46 22.02 104.193 21.78 104.913 21.78C105.473 21.78 105.886 21.9266 106.153 22.22C106.446 22.4866 106.62 22.9266 106.673 23.54C106.726 24.1266 106.673 24.9133 106.513 25.9L104.473 37.18C104.42 37.66 103.793 37.9 102.593 37.9ZM117.698 38.02C116.551 38.02 115.578 37.7533 114.778 37.22C113.978 36.6866 113.631 36.0333 113.738 35.26C113.818 34.8066 114.004 34.46 114.298 34.22C114.618 33.9533 114.964 33.82 115.338 33.82C115.791 33.82 116.138 33.98 116.378 34.3C116.644 34.5933 116.884 34.94 117.098 35.34C117.338 35.7133 117.618 36.06 117.938 36.38C118.284 36.6733 118.751 36.82 119.338 36.82C119.898 36.82 120.324 36.6733 120.618 36.38C120.911 36.06 121.111 35.58 121.218 34.94C121.324 34.0866 121.191 33.3666 120.818 32.78C120.444 32.1666 119.938 31.62 119.298 31.14C118.684 30.66 118.084 30.1666 117.498 29.66C116.911 29.1533 116.444 28.5933 116.098 27.98C115.751 27.34 115.658 26.5933 115.818 25.74C115.951 25.02 116.284 24.3666 116.818 23.78C117.351 23.1666 118.031 22.6733 118.858 22.3C119.684 21.9266 120.578 21.74 121.538 21.74C122.684 21.74 123.604 21.9533 124.298 22.38C124.991 22.78 125.298 23.3133 125.218 23.98C125.164 24.46 124.964 24.8333 124.618 25.1C124.298 25.34 123.964 25.46 123.618 25.46C123.084 25.46 122.684 25.3266 122.418 25.06C122.178 24.7933 121.978 24.4866 121.818 24.14C121.658 23.7666 121.444 23.4466 121.178 23.18C120.938 22.9133 120.524 22.78 119.938 22.78C119.431 22.78 119.044 22.9133 118.778 23.18C118.511 23.4466 118.338 23.7666 118.258 24.14C118.124 24.9133 118.244 25.5933 118.618 26.18C118.991 26.7666 119.484 27.3133 120.098 27.82C120.738 28.3 121.351 28.8066 121.938 29.34C122.551 29.8733 123.031 30.46 123.378 31.1C123.751 31.74 123.871 32.4866 123.738 33.34C123.604 34.0333 123.258 34.7533 122.698 35.5C122.164 36.22 121.471 36.82 120.618 37.3C119.764 37.78 118.791 38.02 117.698 38.02Z" fill="#DCCEBD"/>
</g>
<defs>
<filter id="filter0_dii_90_3309" x="0" y="0" width="135.837" height="48.64" filterUnits="userSpaceOnUse" color-interpolation-filters="sRGB">
<feFlood flood-opacity="0" result="BackgroundImageFix"/>
<feColorMatrix in="SourceAlpha" type="matrix" values="0 0 0 0 0 0 0 0 0 0 0 0 0 0 0 0 0 0 127 0" result="hardAlpha"/>
<feOffset dx="1" dy="1"/>
<feGaussianBlur stdDeviation="4.75"/>
<feColorMatrix type="matrix" values="0 0 0 0 0 0 0 0 0 0 0 0 0 0 0 0 0 0 0.5 0"/>
<feBlend mode="normal" in2="BackgroundImageFix" result="effect1_dropShadow_90_3309"/>
<feBlend mode="normal" in="SourceGraphic" in2="effect1_dropShadow_90_3309" result="shape"/>
<feColorMatrix in="SourceAlpha" type="matrix" values="0 0 0 0 0 0 0 0 0 0 0 0 0 0 0 0 0 0 127 0" result="hardAlpha"/>
<feOffset dx="-0.5" dy="-0.5"/>
<feComposite in2="hardAlpha" operator="arithmetic" k2="-1" k3="1"/>
<feColorMatrix type="matrix" values="0 0 0 0 0.0862745 0 0 0 0 0.0862745 0 0 0 0 0.0862745 0 0 0 1 0"/>
<feBlend mode="normal" in2="shape" result="effect2_innerShadow_90_3309"/>
<feColorMatrix in="SourceAlpha" type="matrix" values="0 0 0 0 0 0 0 0 0 0 0 0 0 0 0 0 0 0 127 0" result="hardAlpha"/>
<feOffset dx="0.75" dy="0.75"/>
<feComposite in2="hardAlpha" operator="arithmetic" k2="-1" k3="1"/>
<feColorMatrix type="matrix" values="0 0 0 0 1 0 0 0 0 0.909804 0 0 0 0 0.811765 0 0 0 1 0"/>
<feBlend mode="normal" in2="effect2_innerShadow_90_3309" result="effect3_innerShadow_90_3309"/>
</filter>
</defs>
</svg>
