<svg
    width="182"
    height="108"
    viewBox="0 0 182 108"
    fill="none"
    xmlns="http://www.w3.org/2000/svg"
>
<path
        d="M79.8445 67.6789C80.5353 67.5205 81.5899 66.6393 82.1229 66.1379C82.736 65.5615 82.4066 64.8217 82.8296 64.3314L83.1564 64.3131C83.5539 64.6539 83.0442 64.8146 83.3445 65.4009C84.1595 65.6062 88.3358 62.7879 89.4534 62.42C92.5201 61.4109 91.0981 63.7326 91.3287 65.394C91.351 65.5555 91.8792 65.6941 92.0899 65.7827L92.0483 65.9606C91.6738 66.0261 91.4672 66.049 91.1102 66.2037C90.9255 66.7183 90.4369 68.5027 90.7931 68.9211C91.3545 68.7943 92.1624 67.6008 92.7362 67.247C95.8566 65.3229 99.7221 61.6574 103.667 62.1902C105.633 62.4556 106.196 64.7304 107.047 66.1508C106.928 66.9843 106.607 69.2864 106.983 69.9764L107.185 70.0013C107.76 69.5439 108.449 67.9158 108.678 67.7446C110.515 66.3728 115.788 63.5453 117.742 62.7322C118.208 62.533 118.701 62.4033 119.205 62.3471C119.591 62.3071 119.986 62.3006 120.298 62.5521C120.542 63.0623 120.409 63.781 120.267 64.3118L119.908 64.4147C119.714 65.3451 120.431 65.0868 119.642 65.7304C119.557 66.2822 119.171 68.3669 119.271 68.7944C119.612 68.846 119.714 68.8364 120.054 68.587C120.845 68.0049 121.576 67.1841 122.331 66.582C122.834 66.1798 123.881 65.8354 124.461 65.4477C126.721 63.9366 129.01 61.9249 131.942 62.2854C132.783 62.3889 133.358 62.6676 134.084 63.076C134.837 64.2632 135.434 65.3999 135.499 66.8352C135.716 71.5473 134.246 78.1885 131.729 82.1178C131.483 81.5991 131.746 81.561 131.533 81.0772C131.043 81.654 130.931 82.1341 130.516 82.7729C130.027 83.5234 128.873 83.9642 128.838 84.7854C129.203 84.7195 129.707 84.03 129.947 83.7132C129.813 84.3111 129.286 84.6803 129.355 85.1589C127.169 87.1566 123.017 90.5034 120.191 91.3765C119.351 91.6358 116.807 91.5189 115.798 91.4728C115.218 91.4459 114.639 91.4076 114.061 91.3577C113.215 94.7035 112.698 98.053 111.785 101.391C111.416 102.738 111.246 104.037 110.653 105.344C113.184 105.637 115.685 105.625 118.216 105.82C118.409 105.835 118.533 105.936 118.661 106.069L118.581 106.277C117.264 106.799 117.627 107.231 116.41 108.004C115.362 107.845 114.388 107.89 113.335 107.879C109.388 107.841 105.329 107.984 101.388 107.747C101.105 106.958 102.026 106.318 102.574 105.844C103.139 105.747 105.298 105.606 105.477 105.154C107.851 99.1478 108.835 92.6978 110.42 86.4688C111.816 80.9838 113.497 75.3178 113.708 69.6319C113.808 66.9715 108.14 70.1126 106.969 70.3509C106.185 72.3617 106.47 73.1232 105.313 75.4926C106.184 75.9436 107.009 76.3778 107.907 76.7805L107.898 77.0049C107.002 77.4975 106.255 76.9754 105.449 76.5445C104.836 76.9337 103.508 82.0714 102.599 83.0396C100.997 84.746 97.0045 88.8581 94.6763 89.138C94.1654 89.327 94.3032 89.1962 94.0807 89.5922C94.1149 89.9565 94.2172 90.3255 94.0765 90.6025C92.9432 90.4326 91.6991 91.146 90.5647 91.3494C89.4783 91.5442 87.9027 91.5226 86.7908 91.3588C86.0213 91.2456 86.4331 90.9706 85.8079 90.8032C85.3431 91.7047 81.9141 104.573 82.3322 105.163C82.7657 105.776 89.1179 105.294 89.9405 106.088C89.5361 106.349 88.7826 106.774 88.5475 107.168C88.3594 107.613 87.6349 107.792 87.2182 107.819C84.431 107.995 81.6332 107.794 78.8469 107.678C77.9732 107.642 73.2781 107.782 72.8887 107.461C73.0805 105.155 75.0881 105.743 76.6346 105.333C77.4138 105.127 77.5394 103.545 77.7242 102.783L78.9293 97.946C79.5372 95.5691 80.438 92.749 80.9497 90.2907C81.0057 90.0217 80.6549 89.3663 80.5195 89.0786L80.691 88.8633C81.0362 88.7876 81.1201 88.7933 81.3937 88.5874C82.3914 85.2641 83.2173 80.3028 83.6191 76.7825C83.6602 76.421 83.4444 76.2467 83.2299 75.9644L83.5479 75.9362C84.7429 75.1471 85.1866 70.8113 85.3707 69.3476C85.023 69.0673 84.4086 68.5573 84.0452 68.3349C83.2592 67.8542 82.3519 68.7413 81.6889 69.04C81.3305 69.2015 80.7958 69.358 80.3933 69.4772C79.804 69.0354 80.187 68.5756 79.8445 67.6789ZM118.312 87.4761C120.041 87.9114 121.888 88.1813 123.482 87.104C126.702 84.9281 128.806 80.0929 129.731 76.5009C130.701 72.7348 130.353 71.023 129.833 67.4783C129.099 67.214 128.778 67.0738 127.975 67.0806C127.034 67.4438 126.012 67.443 125.119 67.8069C123.767 68.3582 118.824 71.5482 118.294 72.7714C117.917 73.6397 115.509 86.0214 115.665 86.4841C115.726 86.6655 116.531 86.9227 116.747 86.9962C117.239 87.1638 117.799 87.3992 118.312 87.4761ZM89.8249 87.4877C90.0757 87.8897 90.4221 87.9466 90.8769 87.8151L91.0759 87.5782C91.4133 87.5046 92.3394 87.5674 92.7555 87.5356C93.3565 87.4899 93.8872 87.4007 94.4801 87.3034C97.7319 84.6627 99.3074 81.9373 100.335 77.9801C100.718 76.5038 101.387 74.9053 101.509 73.238C101.594 71.8073 101.68 68.6423 100.706 67.5268C99.3763 66.003 97.129 67.7751 96.0026 68.2975C93.9673 69.2417 92.5284 69.9477 90.7679 71.4205C89.063 72.8468 89.274 75.0476 88.6819 77.0173C88.2465 78.9357 87.2699 81.7156 87.1379 83.6151C87.2318 83.7355 87.2844 83.8225 87.3665 83.9525C87.5008 84.165 87.2259 84.3852 87.0714 84.6222C86.8072 85.0276 86.6469 85.4571 86.4758 85.9121C87.6975 86.176 88.8428 86.7148 89.8249 87.4877Z"
        fill="#DCCEBD"
    />
<path
        d="M93.0713 74.079C93.4487 73.6943 93.3309 73.4312 93.5139 73.2324C94.5917 72.0618 95.2429 72.6156 95.4201 74.009C94.5557 73.742 93.9468 73.9156 93.0713 74.079Z"
        fill="#DCCEBD"
    />
<path
        d="M95.4203 74.009L95.3383 74.258C94.7009 74.5245 93.5022 74.8087 92.8975 74.3846L92.9416 74.1279L93.0715 74.079C93.947 73.9156 94.5559 73.742 95.4203 74.009Z"
        fill="#DCCEBD"
    />
<path
        d="M95.7908 78.0528L95.2953 77.7755C95.2096 77.3614 95.0269 77.1113 94.8625 76.7014L94.9762 76.5702C95.5275 76.7136 95.3738 77.2421 96.0944 77.7733L95.7908 78.0528Z"
        fill="#DCCEBD"
    />
<path
        d="M96.0945 77.7733C96.4829 78.1324 96.6575 78.1821 97.158 78.3423L97.2673 78.506L97.1363 78.7787C96.6332 78.7483 96.2376 78.3762 95.791 78.0528L96.0945 77.7733Z"
        fill="#DCCEBD"
    />
<path
        d="M98.3839 77.3434L98.748 77.522C98.8732 77.9142 98.6424 78.3436 98.4867 78.7594L98.1675 78.7001C98.0391 78.305 98.2596 77.7689 98.3839 77.3434Z"
        fill="#DCCEBD"
    />
<path
        d="M89.8247 87.4877C89.9506 87.0497 90.0113 86.5564 90.309 86.2841C90.8327 86.6345 90.677 87.2596 91.0757 87.5782L90.8768 87.8151C90.4219 87.9466 90.0755 87.8897 89.8247 87.4877Z"
        fill="#DCCEBD"
    />
<path
        d="M41.803 38.838C43.1447 35.0987 43.4106 31.8533 44.1568 28.0096C44.5028 26.2267 45.2927 24.1604 45.6415 22.329C45.7994 21.9542 45.5935 20.0767 45.7351 19.8405C47.1472 17.3768 47.3645 15.0105 48.0863 12.2491C49.3777 7.30794 53.1791 4.26842 57.3307 1.70481C58.909 0.730166 62.8342 0.446229 64.6066 0.983412C65.4772 1.80213 63.4972 3.76149 62.8776 4.40999C62.3656 4.06165 62.5036 4.03788 61.9958 4.07555C61.7843 4.51871 61.8624 4.45779 61.9859 5.04369C60.624 4.70937 57.0552 4.25089 55.9638 5.15981C54.0422 6.76009 52.9062 12.2686 52.3552 14.644C51.664 17.6238 51.2167 20.074 50.3265 22.9736C49.8792 24.6352 50.061 26.0079 48.9974 27.4559C48.843 27.6663 48.5211 30.5581 48.3281 30.9993C47.8913 33.5301 45.8147 40.719 46.9477 42.9529C48.4484 44.1505 51.2932 41.2689 52.6238 41.0689C53.0979 41.0173 53.2308 40.9936 53.3109 40.55C53.9289 39.8106 55.399 39.4732 55.9707 37.7987C56.2334 37.0288 57.6064 32.3906 57.4237 31.9427L57.5022 31.691C58.147 30.4077 59.8609 28.1065 58.9464 26.8462C59.0246 26.1798 59.1131 26.0747 59.5197 25.5278C59.8317 25.7607 59.9129 25.8507 60.315 25.8501C60.7645 25.6871 60.8384 25.4617 61.1529 25.1133C61.9392 24.2421 63.0789 23.6929 64.0348 23.0358C67.0733 20.9472 68.7765 19.4095 72.6277 19.2695C74.8377 19.1988 77.0784 19.5572 79.2541 19.9138C80.305 20.0861 80.9851 19.768 81.8463 20.5517C81.9946 21.6227 80.4727 22.0054 79.9053 23.6833C78.7246 27.1747 78.2218 30.4121 77.6194 33.9921C77.3533 35.5732 75.5975 40.7515 76.3271 42.4153C77.4585 43.6433 81.9077 40.1722 82.8507 39.2983C83.6409 37.099 83.7665 34.675 84.537 32.6838C84.9226 31.6869 86.5268 27.951 87.1045 27.2216C89.2909 24.4604 93.1226 21.8722 96.2784 20.264C97.2485 19.7697 98.882 19.5359 99.902 19.9581C101.472 20.6081 101.926 22.0991 102.556 23.5504C102.56 23.8005 102.552 24.4673 102.609 24.6692C102.278 26.8823 100.176 26.89 98.3274 27.347C98.1838 26.6314 98.0748 26.1125 98.0162 25.3798C96.2128 23.5063 96.0309 22.9454 93.287 23.8662C92.6001 24.6686 91.5145 25.9405 91.0723 26.8801C89.1407 30.9828 86.4253 39.9907 89.4138 43.9784C90.1506 44.3018 91.0689 44.7574 91.8431 44.8372C95.8662 45.2514 99.2737 42.0946 102.371 40.0146C102.647 39.8294 103.012 39.7938 103.306 39.9415C103.54 40.5169 103.205 41.4284 103.015 41.9955C100.937 42.9231 100.367 44.101 98.1349 44.9559C97.9476 44.5698 98.0368 44.5911 97.7353 44.4559C97.2031 44.8734 97.0734 44.8984 96.3959 44.9026C96.6127 45.2757 96.7297 45.169 97.0151 45.6679C95.493 46.6241 94.5364 47.2243 93.2568 48.4809C92.8853 48.5599 92.3063 48.8029 91.9913 49.0195C90.4413 48.4351 89.6623 49.1466 88.0815 49.0799C86.6773 49.0208 85.4146 48.344 84.1786 47.7341C83.6343 46.486 83.5487 46.7663 82.9946 46.0976C82.5708 45.5862 82.808 42.0785 82.8804 41.3879C81.7944 42.6562 79.4509 44.1582 77.9601 44.945C77.7988 44.8186 77.7364 44.7734 77.5925 44.6216C77.1607 44.7476 76.7671 44.7972 76.5423 45.1709L76.5284 45.4713C76.6801 45.5784 76.8497 45.6329 77.0232 45.7014C76.7821 45.887 76.5376 46.0683 76.2899 46.2452C74.1434 47.7822 72.6993 48.8197 70.0088 48.3738C70.0229 46.8247 70.8993 42.5002 70.4403 41.4962L70.2483 41.4662L69.8868 41.9479C69.3424 41.5331 69.8673 41.3976 68.9588 41.3406C68.4099 41.7548 68.4721 42.304 68.585 42.9509C67.5919 43.8962 66.5725 44.3644 65.3816 45.2277C63.3259 46.7183 59.162 50.0633 56.5923 48.0322C55.9864 47.5533 55.6049 44.238 55.5082 43.3706C55.4258 42.7762 55.6657 41.7882 55.4492 41.1916C54.554 41.1266 52.0922 43.6285 51.3746 44.2113C50.9219 44.3071 50.9372 44.2335 50.6395 44.5105C51.0367 44.7767 51.0572 44.683 51.6287 44.6842L52.0683 45.0801L51.8809 45.5358L51.5911 45.6506L51.4304 45.5826L51.2945 45.4049C50.8441 45.3205 50.4135 45.1635 50.0174 44.9323C49.7037 44.9506 49.5617 45.1149 49.3079 45.3157C48.8592 45.7083 48.4707 46.0602 47.977 46.401C47.3607 46.0785 46.8128 46.2591 46.3941 46.8022L46.4166 47.0678L46.8877 47.2682C45.3364 48.6667 43.2068 48.8875 41.4337 47.7629C40.2765 43.8875 41.2557 43.6073 41.7034 39.8601C41.2509 39.7859 40.9878 39.7733 40.6023 39.5226L40.5579 39.3122C40.8944 38.9858 41.3373 38.9421 41.803 38.838ZM62.6533 43.7777C64.2469 43.2582 70.7706 39.5676 71.2512 38.3162C72.8361 34.1903 73.9424 28.7969 74.2375 24.3719C74.2373 24.3769 74.7811 24.1646 74.9534 23.8638C74.5386 23.1191 72.6168 23.0873 71.8564 22.9971C69.7551 22.7481 68.2524 22.8728 66.2726 23.5939C65.7943 23.6107 65.3918 23.5839 64.9687 23.8041C64.66 24.5457 65.2842 24.3121 64.8013 24.8791L64.6162 24.8719L64.4368 24.4999C64.1967 24.7865 63.7712 25.9604 64.1007 26.2567L64.265 25.8951C64.4858 25.9809 64.4036 25.9087 64.5147 26.1234C62.8131 30.0026 61.0948 34.1306 60.9437 38.4163C60.8683 40.5592 60.4894 42.5926 62.6533 43.7777Z"
        fill="#DCCEBD"
    />
<path
        d="M64.5147 26.1235C64.4035 25.9088 64.4858 25.981 64.265 25.8951L64.1007 26.2567C63.7711 25.9605 64.1966 24.7866 64.4368 24.4999L64.6162 24.8719L64.8012 24.8792C65.2841 24.3121 64.6599 24.5458 64.9687 23.8041C65.3918 23.584 65.7943 23.6107 66.2726 23.594C65.7926 24.2682 64.9876 25.5418 64.5147 26.1235Z"
        fill="#DCCEBD"
    />
<path
        d="M24.7847 7.39612C26.0653 7.26624 28.2094 7.81136 28.6169 6.69788C29.1699 7.3104 28.6882 7.3043 29.8651 7.35132C32.3565 7.45094 34.6807 8.10633 37.0759 8.74717C37.4667 8.50247 37.81 8.22919 38.2629 8.20776C38.634 8.89848 37.4249 9.32722 38.5508 10.2624C38.5503 10.7633 38.9492 11.0875 39.3095 11.3783L40.0245 15.1578C39.2603 16.9872 38.7783 17.9768 37.6982 19.6325L37.4197 19.163C37.1294 19.1929 35.0553 21.3355 34.7515 21.709C34.6999 21.7722 34.6493 21.8364 34.5995 21.9012L35.1134 21.4609C34.5511 22.1609 33.811 22.5102 33.5033 23.1205L33.4005 23.1857C32.6012 23.6862 30.6028 24.4749 30.3415 25.1406C30.732 25.6602 31.2834 25.1459 31.6824 25.3148C35.021 26.7284 38.1603 27.239 38.2728 31.6068L40.0411 30.3725C39.6233 31.4585 39.1608 32.523 38.752 33.6086C38.1166 35.2959 37.8019 37.1407 36.8018 38.6726C35.701 40.3208 34.1008 41.7 33.0272 43.3795C31.5302 43.8194 30.3781 44.3283 28.9525 44.9524C28.7726 44.8093 28.7199 44.7737 28.5705 44.5873C28.0933 44.5649 27.4939 44.6065 27.1496 44.9695L27.1987 45.1115C27.6863 45.2567 27.8601 45.2313 28.3641 45.2081C27.0706 45.8014 24.4582 47.0905 23.1375 47.3596C18.3265 48.3112 13.2889 47.8275 8.40561 47.8663C7.24103 47.8755 2.03926 48.0796 1.54661 47.4798C3.30784 45.8071 3.61601 44.3919 6.08821 44.1937C8.59906 43.9924 12.3784 41.8759 12.7335 39.0964C11.8233 38.7933 12.0516 37.6036 11.8716 36.7851C11.6512 35.7821 11.0678 36.0323 10.4756 35.6032C10.8749 35.3582 11.1806 35.3659 11.647 35.3222C12.0089 32.9267 11.5463 30.8576 11.4097 28.4761C11.3786 27.9332 11.8287 27.1982 11.849 26.6662C11.885 25.7249 11.6189 24.6963 12.0205 23.8106L12.1989 23.7889L12.0011 23.8503L12.2419 23.8663C12.7414 25.1712 12.1714 27.1247 12.2167 28.476C12.3278 31.7814 11.8415 36.0665 12.8665 39.1348C13.9609 36.0983 14.3169 34.1485 15.0005 31.0969C15.7726 27.6495 18.1318 23.2442 17.3733 19.5821C17.6009 19.3524 18.1518 18.7722 18.243 18.4977C18.6764 17.1942 20.8016 10.3942 20.2111 9.61647C19.4888 9.52984 19.5589 9.89637 19.0256 9.93832C15.4901 10.2164 11.0141 11.9137 8.44238 14.3639C5.80489 17.081 5.76216 21.1416 6.05711 24.644C6.33354 27.9263 6.80832 27.5845 3.86381 28.7865L3.796 28.7755C3.52404 28.7295 3.48278 28.7185 3.23049 28.6156C2.47656 28.7631 2.49959 28.9985 2.1844 29.6915C1.97524 29.6517 1.94569 29.6754 1.73296 29.7028C1.38331 30.1611 1.43702 30.6642 1.41177 31.2757L1.24314 31.429L1.08871 31.2863C0.914864 28.7974 -0.0281369 27.7062 0.000645114 25.3267C0.016244 24.0367 0.437844 22.7671 0.690375 21.5895C1.56391 17.5158 4.05402 14.2655 7.50524 12.0037C8.05091 11.6462 9.00752 10.9489 9.58553 10.5549C9.67789 10.295 9.75755 10.0708 9.82447 9.88247L10.0659 9.77558C10.2257 9.85013 10.6671 10.0657 10.8285 10.0251C14.0821 9.20461 17.6879 7.47561 21.0878 7.8489C21.4557 7.91592 21.6355 7.72369 21.8953 7.49808L22.1983 7.43314C23.0193 7.5086 24.0758 7.71901 24.7847 7.39612ZM29.1934 9.39061C27.8454 9.37814 26.9965 9.36398 25.6449 9.18916C25.4798 10.8589 25.1462 12.4835 24.9817 14.1178C24.8646 15.2829 25.6172 16.122 25.0634 17.5311L24.8792 17.6226C24.5916 17.1488 24.51 16.5799 24.2242 16.499C23.9266 17.2166 23.7676 18.2861 23.5264 19.0723C22.8574 21.2538 22.3254 23.6108 21.5498 25.7464C23.4916 24.8576 23.6838 24.7095 25.7136 25.3758L25.3555 23.6611C25.7215 23.2108 26.1324 22.5998 26.7896 22.662C27.5828 23.4882 26.8401 24.5749 27.4049 24.5169C28.2876 24.3922 29.1695 23.4809 29.7309 22.8C30.4263 21.9562 30.0281 22.3728 30.8398 21.9931C32.4463 21.2419 33.4444 17.7091 33.6874 16.2567C33.0215 16.1622 31.5868 15.852 31.0478 16.2827C31.096 16.7577 31.5129 17.0221 31.8911 17.2862C31.5803 17.8188 30.4841 17.7816 29.9448 17.6374L29.7905 17.4714C30.4741 15.3516 31.922 15.2934 33.9781 15.2939L33.9523 15.2403C33.417 14.0982 33.6011 12.466 33.0116 11.9759C32.2824 12.1926 33.0206 12.6508 31.4634 12.4521L31.2466 12.273C31.4407 11.6703 32.0797 10.8418 32.0434 10.4798C31.5292 10.0495 30.064 9.38424 29.3922 9.4058L29.1934 9.39061ZM12.8757 42.8835L11.8854 44.3357C18.9748 44.207 27.2443 47.503 31.1388 39.4434C32.4765 36.6751 32.6162 35.2368 32.4969 32.1874C31.8927 31.3651 31.5353 30.62 30.7954 29.8614C28.5448 27.5539 24.5254 27.375 21.504 27.3427C20.8421 29.3562 20.468 31.4942 19.6964 33.5002C19.3122 34.4994 18.5728 36.221 18.5219 37.2392C17.0808 38.2268 16.6984 39.6164 15.4451 40.5056L15.2475 40.2676C14.5019 40.4116 14.315 40.4856 13.8595 41.1966C13.5492 41.6813 13.003 42.3851 12.8757 42.8835Z"
        fill="#DCCEBD"
    />
<path
        d="M23.3877 41.3563L23.5639 41.082C24.1178 41.5064 24.1795 41.6338 24.2558 42.3494L24.1835 42.4394C23.6927 42.0081 23.9387 41.7805 23.3877 41.3563Z"
        fill="#DCCEBD"
    />
<path
        d="M23.3875 41.3564C22.9822 41.1354 22.6788 41.0795 22.5215 40.7406C22.9049 40.6798 23.1978 40.8948 23.5638 41.0821L23.3875 41.3564Z"
        fill="#DCCEBD"
    />
<path
        d="M26.8617 15.3216C27.4326 15.3347 27.9362 15.2234 28.2145 15.7559C28.1809 16.1183 27.385 17.0368 27.054 17.1795C26.6485 17.2211 26.3585 17.6743 26.0278 17.6289C26.7935 16.8486 26.8515 16.3213 26.8617 15.3216Z"
        fill="#DCCEBD"
    />
<path
        d="M27.3534 11.1793L27.5889 11.2782C27.6734 12.0356 27.7293 12.3176 27.5621 13.0807C27.275 13.3893 27.422 13.2961 26.9334 13.3843L26.4147 13.1404C25.9355 12.447 26.8376 11.6047 27.3534 11.1793Z"
        fill="#DCCEBD"
    />
<path
        d="M28.4247 17.6975C28.7346 17.7882 29.4198 18.3441 29.7051 18.5705L29.6484 18.8257C29.0399 18.9087 28.6837 18.9204 28.2426 18.4139C28.1857 17.927 28.1405 18.1187 28.4247 17.6975Z"
        fill="#DCCEBD"
    />
<path
        d="M25.2612 18.1746C25.5666 18.158 25.6079 18.1557 25.883 18.2861C26.1895 18.6557 26.2055 19.286 26.2673 19.7832C25.5857 19.5027 25.2426 18.8946 25.2612 18.1746Z"
        fill="#DCCEBD"
    />
<path
        d="M12.876 42.8835C13.0033 42.3852 13.5494 41.6813 13.8597 41.1966C14.3152 40.4856 14.5021 40.4116 15.2478 40.2677L15.4453 40.5056C14.7908 41.0878 13.4162 42.4893 12.876 42.8835Z"
        fill="#DCCEBD"
    />
<path
        d="M29.1936 9.39062L29.3923 9.40582C29.4961 9.80625 29.6542 10.1914 29.4758 10.5545L29.2927 10.5267C29.0666 10.1104 29.1379 9.86379 29.1936 9.39062Z"
        fill="#DCCEBD"
    />
<path
        d="M36.9479 50.934C37.0661 51.0048 37.2338 51.0774 37.3618 51.1383C41.7126 49.7161 46.6682 50.63 51.1727 50.3185C51.7217 50.2806 52.5202 50.4531 53.0778 50.5423C54.0334 50.5811 55.7209 51.0453 56.6357 51.3798C58.3396 52.3167 59.9902 53.2585 60.5397 55.2902C60.9344 56.7494 60.8618 59.4282 60.3006 60.805C60.1107 61.829 60.2226 62.1345 59.485 62.8986L59.5302 63.0174L59.8306 63.1511L59.8354 63.3026C59.5674 63.5821 58.2026 65.3401 58.1126 65.643L58.1621 65.8877C58.7429 66.0916 58.8958 66.0085 59.1009 66.3936L59.0498 66.797C58.5103 66.6935 58.3424 66.6414 57.8066 66.7415C57.5267 66.2873 57.6441 66.3114 57.2454 66.2094C56.301 66.9456 56.9964 67.9372 56.6764 68.8352C55.6364 69.302 55.3979 68.369 55.0149 68.7163C53.634 69.9682 52.3324 70.7571 50.4638 71.2838C50.3382 71.4498 50.2116 71.6103 50.0977 71.7846C49.7267 71.6906 49.3536 71.6055 48.9786 71.5293L48.9131 71.2668L49.2504 70.8839L49.2242 70.9836L49.2232 70.8908C48.7647 71.1018 48.2528 71.3029 47.8833 71.6388C47.8449 72.0983 47.9398 72.6096 47.773 72.9153C47.4557 73.1964 47.4303 73.2852 47.2678 73.6644L47.0941 73.7486C47.0876 73.4265 47.1365 73.3869 47.3012 73.0936C47.2565 72.9811 47.2058 72.778 47.1241 72.7491C46.6633 72.5863 44.9409 73.0824 44.4397 73.229L44.4306 73.3874L45.0833 73.8356L45.0507 73.9664C44.3054 74.0733 44.2814 73.6751 44.0668 73.6821C42.858 73.7212 41.4489 73.7787 40.2516 73.8046C39.6424 75.0756 39.6604 76.2456 39.3191 77.5166C38.4819 80.6355 37.8619 84.4357 37.0089 87.4832C38.7629 87.4133 40.6154 87.3842 42.3421 87.2228C43.7112 87.0948 43.7228 86.1656 45.303 86.8636C45.8256 87.0946 47.6072 86.8369 48.2776 87.1577L48.2593 87.3139L48.1911 87.3617C46.9529 87.4962 46.2611 87.5354 45.0173 87.5173C44.9954 87.9311 44.9103 88.326 45.1329 88.6396L45.3184 88.7413C41.9779 89.8829 37.8006 90.4037 34.2666 90.1512C34.1055 90.7132 34.161 90.8602 33.7989 91.2155C33.4428 90.948 33.3017 90.3163 33.1473 89.857C32.8426 90.1865 32.4249 90.6752 32.0695 90.9165C31.5134 90.8475 31.2956 90.295 31.1582 90.2805C30.3541 90.1955 28.9648 90.1085 28.1986 90.1424L27.3627 90.1624C26.5556 90.2493 19.0387 90.3101 18.6841 90.0378L18.7484 89.8083L19.0883 89.644C19.4688 89.6682 19.3448 89.7104 19.6555 89.5475C19.6957 89.1755 19.7135 89.0629 19.8129 88.706L19.8369 88.6215C19.9072 88.5044 19.9812 88.3892 20.0725 88.2871C21.3484 86.8609 28.9966 87.5364 31.1613 87.3834C32.0384 85.2657 35.3525 73.2954 34.9868 71.5295C34.8448 70.843 35.3891 70.6148 35.687 70.0802C36.1854 69.1864 36.5556 67.0505 36.9804 65.8977C37.3216 65.2523 37.4631 65.3866 37.1487 64.7015C37.1278 64.5555 37.0744 64.388 37.1251 64.276C37.6684 63.0752 39.6018 54.5522 39.5598 53.6838C38.3287 51.8159 32.9283 54.5089 31.5362 55.4728C28.7266 57.418 26.388 61.8605 26.3704 65.2971C26.8263 65.5308 27.9542 66.0767 28.3358 66.3247C27.5173 66.913 27.5698 66.2267 26.8224 66.6393L26.8622 66.8318C26.6882 68.0733 27.4699 70.1868 27.8587 71.463L27.6933 71.6342C26.1903 71.0939 23.546 73.3063 22.3778 73.7488C21.5784 73.2601 20.8961 69.5015 20.903 68.4621C20.9155 66.6081 21.4223 64.5442 21.8688 62.7444C21.9595 62.3789 21.1585 62.3867 20.9026 61.9199C21.2381 61.2952 21.7976 61.6243 21.9139 61.473C24.6858 57.8648 27.5624 54.6592 31.7989 52.7498C32.3233 52.5134 35.3795 51.3977 35.881 51.3839C36.1757 51.3712 36.2081 51.0644 36.9479 50.934ZM42.1935 65.4587C41.7904 65.761 41.3641 66.4393 41.7071 66.8988L42.031 66.8231C42.2211 66.0824 42.0321 66.159 42.5107 65.8053C42.8359 65.9589 43.0635 66.0259 43.2448 66.3415C43.1466 67.1698 42.067 67.2924 41.6276 67.8736C41.273 68.3426 41.4327 69.2209 41.2834 69.7871C41.1082 70.4521 40.8008 70.3669 40.8853 70.9777C41.4533 71.2148 43.6295 71.0575 44.3372 71.0025C44.9324 70.9562 44.9005 70.8615 45.209 70.4588C45.6392 70.4263 45.5337 70.4618 45.9705 70.8089C47.5907 71.0225 52.1975 67.7692 52.4784 65.8868C52.5221 65.5941 52.2452 65.345 52.074 65.1177C52.5844 64.3505 52.8717 65.1149 53.471 64.9677C54.7471 61.6996 55.6146 55.3622 51.819 53.2368C51.0732 52.8191 48.3433 52.2962 47.5068 52.526C46.6617 53.6131 46.5312 51.9128 45.3285 52.4127C45.1115 52.7282 45.0894 52.9628 45.0583 53.3348C44.8239 56.145 43.0818 58.6272 43.0627 61.5121C43.0611 61.7588 43.3999 62.4019 43.5198 62.63C43.4714 62.9231 42.4686 64.7587 42.1935 65.4587Z"
        fill="#DCCEBD"
    />
<path
        d="M49.6361 56.6956C50.0678 56.6091 51.1378 56.5054 51.3312 56.9713C50.9881 57.2663 50.2116 57.2517 49.7232 57.2904C48.6562 57.168 48.8347 57.6917 48.0721 57.6007L48.0337 57.4157C48.4144 56.8709 48.8016 56.9813 49.6361 56.6956Z"
        fill="#DCCEBD"
    />
<path
        d="M45.2532 69.0498C45.0166 68.6206 43.8518 67.2018 43.8639 67.245C44.7082 66.6822 45.4426 68.1175 45.8403 68.7246C45.5873 68.952 45.5747 68.9828 45.2532 69.0498Z"
        fill="#DCCEBD"
    />
<path
        d="M47.6519 64.2658C48.5753 63.9307 49.2516 64.1325 50.0303 63.7499C50.1144 64.1762 49.3483 64.9174 49.0419 65.2002L48.745 64.7015L48.5447 64.5363C48.1235 64.5075 48.0097 64.5188 47.6519 64.2658Z"
        fill="#DCCEBD"
    />
<path
        d="M50.973 61.5627C52.1022 61.7565 52.5861 62.5069 52.125 63.5954C51.4928 62.013 51.1966 62.663 50.7363 61.8811L50.973 61.5627Z"
        fill="#DCCEBD"
    />
<path
        d="M47.7493 66.3354C47.8238 66.3647 47.9125 66.4426 47.9823 66.4951C47.9003 67.2146 47.897 67.6138 47.9069 68.3234C47.6773 68.3632 47.6936 68.3595 47.4793 68.2642C47.2846 67.8487 47.6313 66.8334 47.7493 66.3354Z"
        fill="#DCCEBD"
    />
<path
        d="M50.2723 65.9739C50.6509 66.0526 51.1467 66.1383 51.3593 66.4511L51.2754 66.7171C50.8509 66.7814 50.6677 66.842 50.265 66.6665C50.0946 66.3175 50.1272 66.4722 50.2723 65.9739Z"
        fill="#DCCEBD"
    />
<path
        d="M51.7866 57.1216C52.3301 57.3217 52.6394 58.1448 52.9337 58.6963C52.7444 58.6497 52.5546 58.5761 52.3701 58.5106C52.0747 57.995 51.9804 57.688 51.7866 57.1216Z"
        fill="#DCCEBD"
    />
<path
        d="M46.0591 57.2556L46.5147 57.2948L46.7006 57.5168C46.6895 57.9736 46.7075 58.1414 46.7723 58.5921L46.4774 58.5448C46.3034 58.0935 46.1933 57.721 46.0591 57.2556Z"
        fill="#DCCEBD"
    />
<path
        d="M45.8402 68.7246C46.0965 69.0005 46.4586 69.2302 46.5486 69.5694C45.9773 69.5086 45.8234 69.1658 45.2532 69.0498C45.5746 68.9828 45.5872 68.952 45.8402 68.7246Z"
        fill="#DCCEBD"
    />
<path
        d="M47.6207 64.8384L48.4378 65.1207L48.3337 65.4834C47.8932 65.451 47.5321 65.4534 47.1265 65.2765L47.1688 65.0897L47.6207 64.8384Z"
        fill="#DCCEBD"
    />
<path
        d="M48.9062 55.3712C49.3251 55.4669 50.1834 55.7858 50.5541 55.997C49.8545 56.2939 49.2659 56.036 48.9062 55.3712Z"
        fill="#DCCEBD"
    />
<path
        d="M47.6206 64.8384L47.6516 64.2657C48.0095 64.5188 48.1233 64.5075 48.5445 64.5363L48.7447 64.7015L48.4377 65.1208L47.6206 64.8384Z"
        fill="#DCCEBD"
    />
<path
        d="M45.298 61.3828C45.2645 61.97 44.7489 62.2024 44.2804 62.3736L44.2456 62.1932C44.4634 61.7926 44.8913 61.614 45.298 61.3828Z"
        fill="#DCCEBD"
    />
<path
        d="M43.688 60.48C44.3058 60.4674 44.4352 60.4566 44.9942 60.7C44.3392 60.8973 44.208 60.9552 43.688 60.48Z"
        fill="#DCCEBD"
    />
<path
        d="M48.7448 64.7015L49.0417 65.2002C48.7435 65.3589 48.6616 65.4094 48.3337 65.4834L48.4378 65.1208L48.7448 64.7015Z"
        fill="#DCCEBD"
    />
<path
        d="M42.1934 65.4587L42.5106 65.8054C42.032 66.1591 42.221 66.0824 42.031 66.8232L41.707 66.8989C41.364 66.4394 41.7903 65.7611 42.1934 65.4587Z"
        fill="#DCCEBD"
    />
<path
        d="M111.81 17.7395C112.896 14.8361 112.504 11.418 115.208 9.02479C120.044 4.74347 122.516 1.33912 129.368 1.46647C129.464 1.99238 129.339 2.10252 129.44 2.51052C128.655 3.20319 128.761 3.93066 127.731 4.59709L127.855 4.9579L127.503 4.95829L127.434 5.09597C127.658 5.2013 127.881 5.1374 128.131 5.10104L128.22 5.38093C127.349 6.26634 125.997 5.22377 125.085 5.28508C118.973 5.69642 118.252 11.1651 116.902 15.8827C117.039 16.4025 117.231 16.4573 116.953 16.9361C116.806 17.1899 116.358 17.7318 116.301 17.9902C115.435 21.9141 114.431 25.7997 113.513 29.7112C113.331 30.486 113.112 31.2728 112.961 32.0486C115.233 30.2165 117.391 28.2617 119.58 26.3386C122.337 23.9169 126.205 19.2103 129.948 18.3679C130.893 18.7298 132.965 19.4744 133.638 20.1048C133.872 20.7704 133.471 21.2609 133.128 21.7994C132.778 21.5312 132.934 21.5784 132.541 21.5742C131.929 22.0909 131.655 22.4323 131.441 23.2067L131.491 23.4935L131.594 23.5537L131.78 23.0955C131.955 23.2277 131.972 23.2206 132.056 23.4305L131.474 24.2498L131.074 23.8788C130.268 23.9601 130.32 24.9201 130.296 25.5998L130.089 25.5933C129.7 24.8605 128.4 24.1024 127.704 23.7499C126.505 23.1437 122.838 25.8524 122.364 26.8246C122.497 27.111 122.655 27.1799 122.917 27.3588L122.802 27.5406C122.172 27.4241 122.364 26.7755 121.419 27.3285C121.191 27.4624 120.836 27.9017 120.534 28.13C120.171 28.1797 120.075 28.3123 119.796 28.5542C119.614 28.7924 119.347 29.123 119.185 29.3621L118.918 29.0108L118.838 29.0683C118.346 28.9918 118.542 28.9647 118.093 29.1652C117.912 29.523 117.93 29.3656 118.026 29.7555L118.459 29.9976C117.495 30.7565 117.766 31.5588 118.572 32.3551C119.688 33.4589 119.389 33.8796 119.777 35.2214C120.477 36.5911 121.151 37.7362 121.788 39.1628C124.374 44.9492 127.96 55.2025 135.008 56.6672C137.915 57.2711 141.077 54.0992 142.573 51.883L142.759 51.9074C143.057 52.4567 143.948 56.1311 143.739 56.4312C141.673 59.3976 133.691 58.3586 131.283 58.2812C130.756 58.0189 130.561 57.472 130.135 57.3077C129.201 56.9321 127.995 56.6478 127.156 56.0733C125.664 55.0523 123.351 53.3695 122.277 51.8927C121.324 50.2548 120.104 48.3438 119.29 46.6599C118.46 44.9413 117.588 42.8639 116.925 41.0801C116.205 39.1429 113.999 35.7852 113.674 33.9367C113.234 34.3339 112.673 34.7682 112.502 35.3145C111.777 37.622 110.951 40.783 110.679 43.1579C111.01 43.8634 111.357 43.3504 111.433 43.9317C111.135 44.3659 110.498 44.2091 110.317 44.5635C109.624 45.915 110.157 47.6012 108.146 47.9942C106.918 48.2345 106.703 47.8435 105.515 48.6542C105.196 49.1514 105.363 49.2522 105.224 49.6658C104.937 49.1433 104.968 47.5825 104.962 46.9103C105.718 42.4813 107.082 38.2883 108.184 33.9596C108.331 33.3837 109.442 27.5665 109.407 27.1294C109.211 26.9912 109.132 26.9564 109.009 26.7456C109.123 26.6941 109.245 26.6422 109.35 26.5733C110.468 25.8401 110.894 20.8734 111.274 19.378C111.468 19.1411 111.713 18.1005 111.81 17.7395Z"
        fill="#DCCEBD"
    />
<path
        d="M77.9117 82.6326C77.7289 83.4252 76.9832 84.1449 76.4091 84.7517C73.8997 87.4043 67.2873 91.4057 63.6912 91.5225C62.0953 91.5743 60.6798 91.2627 59.4898 90.1273C58.0403 88.7441 57.4849 86.881 57.4442 84.9326C57.3377 79.8353 59.4681 71.0798 63.0531 67.3693C65.2371 65.109 69.3776 62.3144 72.4929 61.6646C73.0558 61.5473 73.6652 61.5597 74.2387 61.55C74.7005 61.9748 75.7515 62.6374 76.3578 63.1254C79.9342 70.839 70.6722 74.6886 65.7518 78.422C65.4596 78.6438 65.2266 78.7865 64.9533 79.0445C65.0539 79.5422 65.4926 79.3 65.809 79.8482C65.5567 80.1732 65.6893 80.0802 65.3136 80.2129C64.7221 79.8626 65.0263 79.6234 64.5977 79.3068C62.1482 80.4837 63.0397 80.8445 62.9087 82.7747L62.824 83.021C62.6494 84.2298 64.0641 85.9814 64.7677 86.896C69.0878 88.3958 71.5024 85.5264 74.8633 83.5332C75.4865 83.1636 75.7399 82.9375 76.1783 82.3564C76.64 82.4716 77.3297 82.7195 77.7414 82.5685L77.9117 82.6326ZM63.6054 74.7443C64.0814 74.8397 64.5479 74.8691 64.8716 75.2118L64.9159 75.4498C64.4128 75.9238 63.7111 75.7179 63.0876 75.6291C63.0199 76.3356 62.7023 77.6876 63.6546 77.8044C64.2454 77.5752 64.4278 77.3068 64.783 76.787L65.0346 76.2903C67.0589 75.6605 69.6067 73.057 70.7867 71.3176C70.2664 71.2722 69.7004 71.2867 69.3131 70.9545L69.3396 70.7656C70.0399 70.4814 70.4224 70.649 71.1752 70.8206C71.5698 69.6884 72.5851 66.1997 70.8432 65.4893C70.6758 65.4209 69.5592 65.2644 69.3902 65.2974C67.8402 65.7269 66.8691 66.3896 66.0751 67.8516C64.9912 69.8474 64.14 72.5255 63.6054 74.7443Z"
        fill="#DCCEBD"
    />
<path
        d="M64.8184 73.0524C65.2629 72.9879 65.3349 73.0034 65.7599 73.0835C66.1363 73.4336 66.0302 73.2756 66.1315 73.8176C65.6662 73.5685 65.268 73.3294 64.8184 73.0524Z"
        fill="#DCCEBD"
    />
<path
        d="M139.384 91.3921C138.971 90.5971 137.998 89.7916 137.537 88.9557C136.091 86.3401 136.972 80.4448 137.686 77.6729C138.702 73.7286 140.135 69.5647 143.196 66.7806C143.755 66.272 144.756 65.6134 145.408 65.1647C146.25 64.6019 147.143 63.9082 148.021 63.4195C150.154 62.1828 154.469 61.1736 155.845 63.9375C157.874 68.0112 153.935 73.0845 150.563 74.8168C147.633 74.5613 148.499 76.0218 147.445 76.3447C147.447 76.6754 147.46 76.756 147.537 77.0779C146.763 77.775 143.477 79.9202 142.562 80.2942C141.532 82.1721 141.862 84.7988 143.239 86.4197C143.87 87.1638 144.774 87.621 145.748 87.6872C148.367 87.8904 151.597 85.7281 153.515 84.1788C154.222 83.7028 154.988 83.3412 155.674 82.8338C156.087 82.5283 156.37 81.8024 156.919 81.848C157.809 83.9113 153.011 87.2934 151.61 88.184C147.142 91.0241 144.773 92.5969 139.384 91.3921ZM145.916 67.2913L145.563 66.6093C145.308 66.7067 144.886 67.4004 144.783 67.6553C145.127 67.6387 145.299 67.5693 145.559 67.7158C144.725 69.3012 141.545 76.7615 142.492 78.3211C142.978 78.3037 149.275 72.9366 149.807 71.8401C151.392 68.5815 152.493 65.5655 147.89 65.5022C147.087 66.0008 146.554 66.6089 145.916 67.2913Z"
        fill="#DCCEBD"
    />
<path
        d="M145.559 67.7158C145.299 67.5693 145.127 67.6387 144.783 67.6553C144.886 67.4005 145.308 66.7068 145.562 66.6094L145.916 67.2914C145.807 67.4824 145.755 67.6387 145.559 67.7158Z"
        fill="#DCCEBD"
    />
<path
        d="M170.655 63.9363C170.543 63.9828 170.356 64.0299 170.338 64.1111C170.227 64.6073 169.843 66.2227 169.929 66.6436C172.06 66.5221 175.598 61.4802 179.174 62.4407C179.698 62.5817 180.435 62.578 181.018 62.984C181.162 63.5012 179.274 68.7952 178.967 69.7922C178.137 69.1489 177.858 69.0534 177.442 68.0838C175.255 67.6375 174.863 67.553 172.694 68.1666C168.715 69.2916 169.097 72.2911 168.058 75.5839C166.585 80.248 165.566 84.9185 164.458 89.6614C163.549 90.053 162.56 90.356 161.616 90.6641C160.924 90.0934 160.486 90.406 159.741 90.6777L159.555 90.5541L159.518 89.7604C159.677 88.9108 160.073 87.6111 160.324 86.5584C160.881 84.2131 161.241 82.8858 161.873 80.3431C162.747 76.8281 164.676 72.1659 164.623 68.514C164.551 68.2101 164.251 68.0133 164.038 67.8734C162.436 66.8218 159.751 69.8928 158.418 69.1068C158.314 68.8869 158.242 68.0603 158.405 67.9269C160.856 65.9462 164.164 64.8004 166.963 63.2858C168.496 62.4565 170.125 61.5596 170.912 63.6596L170.655 63.9363Z"
        fill="#DCCEBD"
    />
<path
        d="M170.704 100.96C170.009 101.26 167.673 101.153 166.809 101.149C164.475 101.129 162.141 101.122 159.808 101.128C147.13 101.147 134.452 101.054 121.776 100.85C120.729 100.838 112.873 100.913 112.646 100.759C112.945 100.567 113.43 100.428 113.776 100.429C117.282 100.436 120.821 100.452 124.322 100.483L137.745 100.486L170.355 100.554L170.704 100.96Z"
        fill="#DCCEBD"
    />
<path
        d="M41.3589 100.172C43.6738 100.097 47.2732 100.196 49.6762 100.21L62.1425 100.229L71.3974 100.267C72.4353 100.265 77.0044 100.075 77.5511 100.525L77.5111 100.671C76.9561 100.817 70.8953 100.693 69.8718 100.69L46.7141 100.628C45.564 100.622 44.4613 100.626 43.3126 100.698C42.7533 100.734 41.9344 100.957 41.4889 100.735L41.3589 100.172Z"
        fill="#DCCEBD"
    />
<path
        d="M170.783 8.61784C171.17 8.58953 171.768 8.66057 172.056 8.93398C172.172 9.13023 172.131 16.2777 172.13 17.0098L172.094 40.3569C172.092 41.0515 172.134 41.81 172.217 42.5006C172.279 43.0217 172.559 43.4559 172.544 43.9731C172.268 44.2383 172.192 44.3333 171.824 44.4772C171.459 44.0764 171.687 38.381 171.685 37.2721L171.738 15.7157C171.742 13.8296 171.83 11.2138 171.685 9.30051C171.67 9.11971 170.985 8.73811 170.783 8.61784Z"
        fill="#DCCEBD"
    />
<path
        d="M169.792 47.6334C170.001 47.2145 171.569 45.1271 171.912 44.8877C172.087 45.7471 171.392 45.9834 171.879 47.2281C171.55 47.1051 171.446 47.0573 171.098 47.0237L170.859 47.1691C170.992 47.7319 171.365 47.8124 171.872 47.9955C171.879 48.0181 171.887 48.0403 171.895 48.0632C171.907 48.101 171.917 48.1396 171.929 48.1774C172.176 48.9422 172.07 55.8016 172.107 57.2151C172.131 58.1633 172.278 59.1238 172.276 60.0679C172.273 60.5953 171.9 62.5823 171.582 62.8952L171.403 62.7957C171.269 62.268 171.461 61.836 171.49 61.3046C171.629 58.6071 171.512 55.7425 171.486 53.0315C169.148 51.3778 170.623 51.1901 171.572 49.5019C172.121 48.5222 170.517 47.921 169.792 47.6334ZM171.318 52.3935C171.452 51.909 171.652 51.2532 171.494 50.7741L171.269 50.6189C170.981 51.2231 170.838 51.2849 170.873 51.8966C171.022 52.075 171.147 52.2346 171.318 52.3935Z"
        fill="#DCCEBD"
    />
<path
        d="M171.269 50.6189L171.494 50.7741C171.652 51.2532 171.452 51.909 171.318 52.3935C171.147 52.2346 171.022 52.075 170.873 51.8966C170.838 51.2849 170.981 51.2231 171.269 50.6189Z"
        fill="#DCCEBD"
    />
<path
        d="M171.031 74.7015C171.168 74.8148 171.273 74.9364 171.442 74.9496C171.39 79.6425 171.296 84.6807 171.348 89.3518C171.387 91.875 171.408 94.3985 171.412 96.922C171.413 97.6862 171.452 99.8902 171.318 100.554C171.065 100.764 170.996 100.81 170.704 100.96L170.354 100.554C170.691 100.475 170.723 100.481 170.984 100.271C171.14 98.7978 171.038 94.3049 171.047 92.6025L171.031 74.7015Z"
        fill="#DCCEBD"
    />
<path
        d="M11.5492 50.5118C11.8927 50.6109 12.1436 50.6663 12.4556 50.8519C11.9678 51.4886 11.9252 54.4098 12.1445 55.1631C12.4703 55.1901 12.7084 54.8756 13.1153 54.6363C13.4476 55.6251 12.3248 54.763 12.1328 56.6469C11.9276 58.6613 12.4599 63.4979 11.7419 65.0035C11.2555 64.4688 11.6276 52.3279 11.5492 50.5118Z"
        fill="#DCCEBD"
    />
<path
        d="M11.5746 70.5068C11.744 69.6956 11.5066 68.8002 12.0761 68.218C12.303 68.7366 12.1168 69.2794 12.0973 69.8482C12.0597 71.1086 12.0301 72.3691 12.0083 73.6298C11.9836 75.0478 12.1014 82.9223 11.88 83.6956L11.7228 83.7962C11.3312 83.2985 11.5184 71.9005 11.5746 70.5068Z"
        fill="#DCCEBD"
    />
<path
        d="M159.604 17.4459C159.698 17.3581 159.803 17.2577 159.922 17.1448C160.926 17.1774 161.594 17.1622 162.538 17.0593C165.14 18.8707 162.745 20.3513 161.675 19.3514C160.862 18.5918 161.095 18.2813 159.604 17.4459Z"
        fill="#DCCEBD"
    />
<path
        d="M154.918 52.3139C156.801 51.7541 156.672 53.9101 155.968 54.9884C154.709 55.0136 153.322 54.6389 153.96 52.8315C154.103 52.4267 154.495 52.4283 154.918 52.3139ZM155.527 54.779C155.673 54.2715 155.462 53.3354 155.257 52.8613C155.071 52.7604 155.007 52.7126 154.795 52.6665C154.604 53.7575 154.286 54.3468 155.527 54.779Z"
        fill="#DCCEBD"
    />
<path
        d="M12.1483 12.8514C12.9103 13.3164 11.9836 21.6781 12.5456 22.867C13.1449 23.1241 13.3524 22.9987 13.976 23.1182L13.9873 23.3357L13.7291 23.5264C12.5389 23.0126 12.1843 23.9704 11.6433 23.1317C12.4605 20.5005 11.4161 15.469 12.1483 12.8514Z"
        fill="#DCCEBD"
    />
<path
        d="M45.3719 13.9023C45.7723 13.8839 46.0486 13.8454 46.4314 13.9835C46.6676 14.5743 45.8927 16.6421 45.8768 17.4111C45.872 17.6433 45.6872 17.6883 45.4824 17.8073C44.4175 16.6342 43.3623 16.5823 44.7667 14.9285C44.9733 14.6853 45.2272 14.193 45.3719 13.9023Z"
        fill="#DCCEBD"
    />
<path
        d="M165.071 48.2998C165.488 48.4314 166.119 49.0456 166.466 49.3476C166.396 50.3225 166.415 51.6181 165.37 52.0648C164.618 52.0328 163.653 51.3167 164.229 50.5592C165.315 50.5329 164.853 51.0961 165.523 51.3288C165.694 50.9241 165.705 50.3257 165.739 49.8729C164.883 49.9201 164.263 50.1991 163.988 50.204C163.988 49.7994 164.783 48.7347 165.071 48.2998Z"
        fill="#DCCEBD"
    />
<path
        d="M82.3408 7.62829C83.2169 7.52256 93.5901 7.58854 93.8235 7.72895L93.7501 7.84C92.0045 8.29628 84.7516 8.02625 82.6021 7.90533C82.4715 7.89805 82.4363 7.77272 82.3408 7.62829Z"
        fill="#DCCEBD"
    />
<path
        d="M137.254 17.4662L137.472 17.4822C138.109 18.083 137.201 19.8423 136.72 20.3311L136.611 20.1783C136.21 20.0394 135.833 19.9469 135.525 19.6586C135.272 19.2836 135.427 18.6386 135.485 18.1578C136.059 17.8922 136.659 17.6837 137.254 17.4662Z"
        fill="#DCCEBD"
    />
<path
        d="M146.007 30.085C146.816 30.0734 148.953 30.0378 148.78 31.4712C148.751 31.7109 148.668 31.6993 148.467 31.8393L148.177 31.7764C147.454 31.5932 145.204 31.2752 145.009 30.507C145.252 30.1829 145.609 30.1634 146.007 30.085Z"
        fill="#DCCEBD"
    />
<path
        d="M49.1828 95.8005C50.3893 95.6352 50.4176 95.8982 51.0513 96.831C51.0638 97.2756 51.1578 98.2544 50.7213 98.4882C50.2736 97.978 50.2716 97.31 49.4871 96.3001C49.5774 96.6602 49.6095 96.8183 49.6512 97.1907C48.92 97.4682 48.7791 97.5588 48.537 98.2957L48.5069 98.3891L48.3317 98.4217C48.0655 98.044 48.0057 97.3646 48.2892 97.1056C48.7325 96.7009 48.8476 96.1639 49.1828 95.8005Z"
        fill="#DCCEBD"
    />
<path
        d="M160.252 38.1351C161.007 38.0834 161.734 39.1513 160.997 39.9974C160.567 40.2787 160.291 40.2308 159.776 40.2244C159.329 40.0674 158.833 39.9301 158.603 39.5272C158.579 38.584 159.412 38.2038 160.252 38.1351ZM160.893 39.6485C160.454 38.7492 159.835 38.9965 158.904 39.0665C159.395 39.8333 160.074 39.8341 160.893 39.6485Z"
        fill="#DCCEBD"
    />
<path
        d="M151.776 49.0377C152.527 49.2598 153.959 50.3934 153.879 51.2533L153.282 51.5702C153.12 52.0394 153.115 52.2413 152.645 52.3443C151.697 51.7944 151.689 49.9961 151.776 49.0377Z"
        fill="#DCCEBD"
    />
<path
        d="M159.604 17.4458C159.512 17.434 159.322 17.3709 159.224 17.3419C158.941 16.6222 158.36 15.9123 158.955 15.3039C160.316 14.9183 160.817 16.5366 162.538 17.0593C161.594 17.1621 160.926 17.1773 159.922 17.1447C159.803 17.2576 159.698 17.358 159.604 17.4458Z"
        fill="#DCCEBD"
    />
<path
        d="M149.159 26.1806C149.217 26.1766 149.429 26.2306 149.501 26.2466C149.686 26.5486 149.666 26.4204 149.64 26.7448C149.107 27.3675 148.185 28.4053 147.446 28.725L146.8 28.5336C146.433 28.1616 146.508 28.3372 146.459 27.8795C146.815 27.0559 148.32 26.5587 149.159 26.1806Z"
        fill="#DCCEBD"
    />
<path
        d="M94.638 100.695C92.3501 100.748 85.7499 100.922 83.9324 100.499L83.9163 100.41C87.4796 100.106 91.0541 100.584 94.3892 100.335C94.5473 100.503 94.6128 100.511 94.638 100.695Z"
        fill="#DCCEBD"
    />
<path
        d="M94.3892 100.335C96.1704 100.449 104.933 100.125 105.76 100.609L105.681 100.74C104.845 100.864 101.998 100.741 100.968 100.717C98.9044 100.67 96.6715 100.765 94.6379 100.695C94.6127 100.511 94.5472 100.503 94.3892 100.335Z"
        fill="#DCCEBD"
    />
<path
        d="M103.233 100.633C103.76 100.533 104.696 100.373 105.177 100.629C104.797 100.746 103.689 100.653 103.233 100.633Z"
        fill="#DCCEBD"
    />
<path
        d="M148.121 20.4904C148.576 20.6391 149.373 21.0182 149.779 21.2485C149.964 21.5706 149.923 21.4234 149.889 21.843C149.577 22.1536 149.521 22.2788 149.319 22.6507C147.285 22.9137 147.033 22.0506 148.121 20.4904Z"
        fill="#DCCEBD"
    />
<path
        d="M58.9463 26.8462C58.8627 26.5345 58.8306 26.4322 58.6895 26.1427C58.4506 27.0168 57.0091 27.1463 56.6323 26.3929C56.7604 24.8707 58.6867 24.5903 59.5196 25.5278C59.113 26.0747 59.0245 26.1798 58.9463 26.8462Z"
        fill="#DCCEBD"
    />
<path
        d="M157.848 44.8763C158.394 45.0219 159.828 45.2675 160.082 45.8945C160.211 46.2139 160.335 46.6889 160.194 47.0195C159.755 47.291 159.352 47.3003 158.864 47.1733C158.136 46.748 158.286 45.8089 157.898 44.9782L157.848 44.8763Z"
        fill="#DCCEBD"
    />
<path
        d="M131.809 47.7531C132.191 47.7301 132.687 47.6563 132.93 47.963C132.756 48.2564 132.418 48.3286 132.05 48.4999C131.666 49.3072 132.407 49.3701 131.661 50.0437C130.878 49.6271 129.947 49.1642 130.398 48.1541C130.75 47.7935 131.296 47.8059 131.809 47.7531Z"
        fill="#DCCEBD"
    />
<path
        d="M112.955 42.7629L113.451 43.5508C113.409 44.2252 113.321 44.8996 113.503 45.547L113.668 45.6762C114.148 45.4462 114.246 45.2677 114.513 44.8021L114.821 44.7029C114.834 45.1864 114.482 46.1138 114.053 46.3759C112.907 46.5353 112.166 45.0336 112.699 44.1822C113.053 43.6152 112.479 43.5191 112.955 42.7629Z"
        fill="#DCCEBD"
    />
<path
        d="M133.5 35.3708C133.915 35.3503 134.278 35.2781 134.513 35.6499C134.322 36.2713 133.37 36.919 132.817 37.1984C132.737 37.2111 132.404 37.3318 132.307 37.3652C131.9 37.2852 132.043 37.3713 131.774 37.0271C131.7 36.0597 132.779 35.6298 133.5 35.3708Z"
        fill="#DCCEBD"
    />
<path
        d="M33.5034 23.1205C33.8111 22.5102 34.5512 22.1609 35.1134 21.4609L34.5996 21.9012C34.6494 21.8363 34.7 21.7722 34.7516 21.7089C35.0554 21.3355 37.1295 19.1928 37.4198 19.163L37.6982 19.6325C36.873 20.8975 34.8919 22.5106 33.5034 23.1205Z"
        fill="#DCCEBD"
    />
<path
        d="M120.254 31.6332C120.402 31.6106 120.928 31.537 121.044 31.5734C121.826 31.8173 123.16 33.1375 123.005 33.9974C120.81 33.6448 121.69 33.066 120.35 31.9915L120.258 31.9194L120.254 31.6332Z"
        fill="#DCCEBD"
    />
<path
        d="M65.7971 7.763C65.6929 7.78703 65.5879 7.80729 65.4823 7.82366C64.5371 7.97666 55.9262 7.98601 55.5283 7.69949L55.6482 7.56623C56.8281 7.35322 64.2296 7.53298 65.6675 7.63182L65.7971 7.763Z"
        fill="#DCCEBD"
    />
<path
        d="M31.7533 79.0894C32.1132 79.0947 32.243 79.073 32.5435 79.2773C32.6716 80.0246 31.2162 81.1092 30.6516 82.4813C30.2884 82.4007 30.002 82.3314 29.7764 82.0435C29.9535 81.8366 30.8519 80.8263 30.9182 80.6943C31.267 80.0001 31.2351 79.7847 31.7533 79.0894Z"
        fill="#DCCEBD"
    />
<path
        d="M129.355 85.159C129.286 84.6803 129.813 84.3112 129.947 83.7132C129.707 84.03 129.203 84.7196 128.838 84.7854C128.873 83.9643 130.027 83.5235 130.516 82.773C130.931 82.1341 131.043 81.6541 131.533 81.0773C131.746 81.5611 131.483 81.5991 131.729 82.1179C131.498 82.6221 129.781 85.047 129.355 85.159Z"
        fill="#DCCEBD"
    />
<path
        d="M73.0654 56.1503C72.852 55.5723 72.6904 55.6666 72.634 54.9868L72.6996 54.9631C73.4663 55.5945 74.8887 56.7566 75.2152 57.6624L75.1909 58.0411C74.7745 58.3671 73.9875 58.384 73.4842 58.2545C73.8434 57.872 74.0961 58.0081 74.4186 57.595C73.8579 57.1326 73.5254 56.7021 73.0654 56.1503Z"
        fill="#DCCEBD"
    />
<path
        d="M111.274 19.378C110.811 18.4509 109.771 17.5918 109.685 17.1079L109.938 16.7851C110.769 16.4891 111.383 17.1647 111.809 17.7395C111.713 18.1005 111.468 19.1411 111.274 19.378Z"
        fill="#DCCEBD"
    />
<path
        d="M18.9458 56.8171C19.2516 56.8945 19.2603 56.906 19.5106 57.1068C19.6723 57.6631 19.9613 58.0379 20.2812 58.5137L20.2445 58.6469C19.8625 58.7236 19.4766 58.6316 19.0903 58.5684C18.6402 58.718 18.0778 59.019 17.7388 58.6194C17.7964 58.2452 18.6726 57.112 18.9458 56.8171Z"
        fill="#DCCEBD"
    />
<path
        d="M152.639 39.2823C153.778 39.1508 155.331 39.9052 154.558 41.3887C154.374 41.7419 153.978 41.6764 153.595 41.6873C153.249 41.668 153.358 41.7251 153.152 41.5114C153.458 41.1766 153.584 41.3548 154.063 41.1525C153.719 40.3959 152.78 40.093 152.639 39.2823Z"
        fill="#DCCEBD"
    />
<path
        d="M23.3112 82.5896C23.4775 82.76 23.655 82.8921 23.8411 83.0394C24.0943 83.0735 24.3461 83.1184 24.5957 83.1734C25.2763 83.3273 27.057 83.6537 27.3922 84.1821L27.3052 84.3843C26.8251 84.53 26.962 84.4828 26.397 84.2499C25.8035 84.5511 26.1844 84.6053 25.6159 84.914L25.5899 84.8828C26.2244 82.787 24.2019 83.9827 23.3292 83.5311C23.1036 83.1077 23.1909 83.18 23.3112 82.5896Z"
        fill="#DCCEBD"
    />
<path
        d="M80.3931 69.4773C80.1808 69.7316 79.5812 70.0365 79.2296 70.0353C78.0891 69.4333 78.9566 68.1438 79.8444 67.679C80.1869 68.5757 79.8039 69.0355 80.3931 69.4773Z"
        fill="#DCCEBD"
    />
<path
        d="M171.031 74.7016C171.031 73.7743 170.896 70.0538 171.244 69.6074C171.822 70.4154 171.575 73.9026 171.442 74.9496C171.273 74.9364 171.168 74.8148 171.031 74.7016Z"
        fill="#DCCEBD"
    />
<path
        d="M49.3079 45.3157C49.5617 45.1149 49.7036 44.9506 50.0173 44.9323C50.4134 45.1634 50.844 45.3205 51.2944 45.4049L51.4303 45.5826C50.7824 45.6015 50.804 45.5009 50.3404 45.8077L50.2812 46.0657C50.8319 46.5968 51.126 46.4111 51.8389 46.2356L51.9093 47.0239C50.8144 47.5229 49.6401 46.3 49.3079 45.3157Z"
        fill="#DCCEBD"
    />
<path
        d="M40.4353 7.62198C41.3403 7.58444 48.4106 7.46521 48.7861 7.67029L48.7987 7.82589C48.0646 8.03968 46.2704 7.95435 45.4403 7.9437C44.5883 7.60159 41.4689 8.13164 40.4353 7.62198Z"
        fill="#DCCEBD"
    />
<path
        d="M41.6909 11.123C42.414 11.61 43.4646 11.7339 42.4411 12.6199C42.2032 12.8259 42.1398 13.081 42.0899 13.3814C41.6457 13.3333 41.3624 13.3273 40.955 13.1383L40.9097 12.9169C41.4628 12.2313 41.5709 12.0756 41.6822 11.1966L41.6909 11.123Z"
        fill="#DCCEBD"
    />
<path
        d="M36.9803 65.8977C36.8386 65.4932 35.0166 63.9248 34.7622 63.5301L34.8756 63.2675C35.2265 63.0672 35.2742 63.0664 35.675 63.129C36.4229 63.73 36.0383 64.5573 36.944 64.9278L37.1487 64.7015C37.463 65.3866 37.3215 65.2524 36.9803 65.8977Z"
        fill="#DCCEBD"
    />
<path
        d="M45.0172 87.5174C46.261 87.5355 46.9528 87.4962 48.191 87.3618C47.1048 88.1684 46.6155 88.3441 45.3183 88.7414L45.1328 88.6397C44.9102 88.3261 44.9952 87.9312 45.0172 87.5174Z"
        fill="#DCCEBD"
    />
<path
        d="M161.85 52.4769C162.372 52.4971 162.753 52.4893 162.985 53.0001C162.872 53.3479 162.847 53.4329 162.559 53.6412L161.951 54.0793L161.93 54.2022L161.716 54.3393L161.445 54.2177C160.923 53.3913 161.154 53.0123 161.85 52.4769Z"
        fill="#DCCEBD"
    />
<path
        d="M113.951 43.5378C114.514 43.4656 115.526 43.3554 116.033 43.5925L116.266 43.8675C116.202 44.4753 115.849 44.5688 115.336 44.8311C115.149 44.7824 115.004 44.7583 114.837 44.6579C114.416 44.3651 114.034 44.0674 113.951 43.5378Z"
        fill="#DCCEBD"
    />
<path
        d="M16.7889 84.1847C17.8828 84.4369 18.9431 85.3678 18.2698 86.4935C17.9654 86.2665 18.0353 86.1602 17.9368 85.6942L17.7855 85.441C16.8472 85.1234 16.7875 85.5512 16.0874 85.4453C16.3021 85.0266 16.5554 84.596 16.7889 84.1847Z"
        fill="#DCCEBD"
    />
<path
        d="M79.6311 58.8549C79.8189 58.863 80.0565 58.8949 80.2482 58.9154C80.6738 60.0313 81.4301 59.2379 81.9685 60.4018C81.9087 60.9141 81.9902 60.734 81.6908 61.1109C80.9929 59.8834 80.6589 60.5996 79.9823 60.2443C79.7606 59.7882 79.7868 59.9838 79.8605 59.5056C79.7325 59.2387 79.7051 59.142 79.6311 58.8549Z"
        fill="#DCCEBD"
    />
<path
        d="M76.2993 49.3402C77.285 49.4655 77.4263 51.0809 77.9134 51.6619C78.1151 51.9025 78.0982 51.8758 78.1681 52.2239C77.7691 52.3086 77.6394 52.3527 77.2223 52.2889C76.4018 51.5065 77.0752 50.937 76.2993 49.3402Z"
        fill="#DCCEBD"
    />
<path
        d="M156.443 42.3101C156.965 42.4614 158.05 42.6631 158.201 43.2073C157.904 43.4803 157.639 43.4846 157.247 43.5498L157.168 43.5495C157.017 44.024 156.978 43.9952 156.609 44.2366L156.399 44.1447C156.117 43.4209 156.171 43.018 156.443 42.3101Z"
        fill="#DCCEBD"
    />
<path
        d="M147.537 77.0778C147.46 76.756 147.447 76.6753 147.445 76.3446C148.499 76.0218 147.633 74.5612 150.563 74.8167C149.958 75.0787 147.943 76.6028 147.537 77.0778Z"
        fill="#DCCEBD"
    />
<path
        d="M59.8353 63.3027L59.8305 63.1511L59.5301 63.0175L59.4849 62.8986C60.2225 62.1345 60.1106 61.829 60.3005 60.8051C60.7108 61.5008 61.4579 62.498 60.7628 63.2059C60.4152 63.2775 60.1882 63.351 59.8353 63.3027Z"
        fill="#DCCEBD"
    />
<path
        d="M129.44 2.5105C129.642 2.84793 129.596 2.97327 129.542 3.35097L129.644 3.52631C129.135 4.2695 128.808 4.70032 128.219 5.38091L128.131 5.10101C127.88 5.13738 127.658 5.20128 127.434 5.09595L127.502 4.95827L127.854 4.95788L127.731 4.59707C128.761 3.93064 128.654 3.20316 129.44 2.5105Z"
        fill="#DCCEBD"
    />
<path
        d="M156.792 24.9441C156.943 24.957 157.092 24.9742 157.242 24.9959C158.049 25.1164 158.581 25.4021 158.338 26.2959C157.874 26.7779 157.926 26.6485 157.192 26.8542L157.023 26.9181L156.818 26.7966C157.149 26.0486 157.455 26.4114 157.659 25.8755C157.36 25.8885 157.257 25.9206 157.001 25.7918C156.782 25.4662 156.803 25.3252 156.792 24.9441Z"
        fill="#DCCEBD"
    />
<path
        d="M78.3679 87.5417C78.7793 87.5912 78.8939 87.5947 79.2869 87.7727C79.3408 88.0143 78.7097 88.41 78.6917 88.805C78.6709 89.2584 78.9975 89.7611 78.9939 90.1569C78.01 89.4658 78.7327 89.2585 77.2852 88.552L77.5371 88.5774L77.6004 88.324C77.9957 88.0405 78.072 87.9206 78.3679 87.5417Z"
        fill="#DCCEBD"
    />
<path
        d="M13.5056 81.7957C14.6255 81.7041 15.0333 82.1024 15.8308 82.8613L15.7716 83.1007L15.3399 83.2722C14.8248 83.354 14.5727 83.4287 14.0739 83.275L13.9899 83.0907L14.3252 82.4456C14.1727 82.163 13.997 82.1888 13.6104 82.0544L13.5056 81.7957Z"
        fill="#DCCEBD"
    />
<path
        d="M47.7729 72.9153C47.9397 72.6097 47.8448 72.0983 47.8832 71.6388C48.2527 71.3029 48.7646 71.1019 49.2231 70.8908L49.2241 70.9837L49.2504 70.8839L48.9131 71.2668L48.9785 71.5293C49.3535 71.6055 49.7266 71.6906 50.0976 71.7846L50.0116 71.9896C48.2862 72.1109 49.1189 72.7144 47.7729 72.9153Z"
        fill="#DCCEBD"
    />
<path
        d="M159.518 89.7603L159.555 90.554L159.741 90.6776C160.486 90.4059 160.924 90.0933 161.616 90.664C160.985 91.018 159.747 91.9683 159.203 91.3242C159.111 90.8317 159.359 90.2528 159.518 89.7603Z"
        fill="#DCCEBD"
    />
<path
        d="M53.0779 50.5423C55.0405 50.3562 55.5379 49.051 56.6358 51.3798C55.721 51.0454 54.0334 50.5812 53.0779 50.5423Z"
        fill="#DCCEBD"
    />
<path
        d="M100.593 88.0863C101.143 88.0129 102.446 87.9908 102.69 88.561C102.32 88.912 102.294 88.8222 101.711 88.9453C101.607 89.4557 101.683 89.5041 101.376 89.8193C101.117 89.587 100.666 88.4198 100.593 88.0863Z"
        fill="#DCCEBD"
    />
<path
        d="M150.736 7.16504C151.315 7.23998 152.244 7.37766 152.685 7.76523L152.659 7.97759L152.254 8.18722C151.662 8.20878 150.463 8.40672 150.151 7.87628C150.27 7.48637 150.422 7.4087 150.736 7.16504Z"
        fill="#DCCEBD"
    />
<path
        d="M36.3989 100.292C37.1264 100.275 40.9696 100.318 41.3586 100.172L41.4886 100.735C40.872 100.455 37.1309 100.659 36.2568 100.692L36.3989 100.292Z"
        fill="#DCCEBD"
    />
<path
        d="M32.7087 61.1532C32.7452 61.1581 34.3737 61.7079 34.4399 61.7466C34.5567 62.1728 34.5076 62.0635 34.2437 62.5681C34.0716 62.9354 34.1377 62.9431 33.8239 63.1416C33.2235 62.6523 32.7646 61.9202 32.7087 61.1532Z"
        fill="#DCCEBD"
    />
<path
        d="M18.2339 48.8723L18.3167 48.842C18.5202 48.9747 18.4627 48.9485 18.5888 49.196C18.4117 50.3179 17.4017 49.2614 16.8428 50.7664C16.5616 50.5825 16.5138 50.2043 16.5012 49.8964C17.0811 48.7697 17.4274 49.3199 18.2339 48.8723Z"
        fill="#DCCEBD"
    />
<path
        d="M39.8261 19.5681C40.496 19.6188 41.4163 19.7225 41.6557 20.3913C41.5538 20.8773 41.5454 20.9981 41.2649 21.4158C40.9693 21.1492 41.0302 21.0961 40.9236 20.7771C40.7387 20.2242 40.2034 20.672 39.6188 20.2968C39.5464 19.8959 39.5765 20.0047 39.8261 19.5681Z"
        fill="#DCCEBD"
    />
<path
        d="M28.3357 66.3247C28.7082 66.7242 28.8958 66.8766 29.0487 67.3947L29.0127 67.6935C28.1777 67.9475 27.238 66.8436 26.862 66.8318L26.8223 66.6393C27.5696 66.2266 27.5171 66.9129 28.3357 66.3247Z"
        fill="#DCCEBD"
    />
<path
        d="M12.4011 77.8515C12.4705 77.8405 12.5992 77.8176 12.6663 77.8315C14.5067 78.214 14.4851 77.7906 15.641 79.1828L15.5161 79.2072C14.8959 79.3324 12.7361 78.339 12.4011 77.8515Z"
        fill="#DCCEBD"
    />
<path
        d="M113.451 43.5508L113.951 43.5377C114.034 44.0674 114.416 44.3651 114.837 44.6578L114.821 44.7029L114.513 44.8021C114.246 45.2678 114.148 45.4462 113.667 45.6762L113.503 45.547C113.321 44.8997 113.409 44.2252 113.451 43.5508Z"
        fill="#DCCEBD"
    />
<path
        d="M11.4644 96.1793C11.8634 94.784 11.0706 91.7763 11.79 90.4851C12.0804 91.3383 11.6724 94.901 11.8156 96.2405L11.4644 96.1793Z"
        fill="#DCCEBD"
    />
<path
        d="M68.8862 55.2839C69.2821 55.3885 70.9898 57.0533 71.1506 57.2843C69.3382 57.1936 69.1174 56.8547 68.8862 55.2839Z"
        fill="#DCCEBD"
    />
<path
        d="M25.5715 51.416C25.7606 51.5415 25.7994 51.6779 25.8989 51.8828L25.8041 52.0952C25.4695 52.2892 24.4013 52.382 23.9271 52.4659C23.7561 52.4523 23.7884 52.4368 23.6204 52.3349C23.625 51.9649 23.5871 52.1122 23.8158 51.7701C24.2538 51.4912 25.0292 51.4725 25.5715 51.416Z"
        fill="#DCCEBD"
    />
<path
        d="M8.9132 62.3165C9.85854 62.4526 10.0314 63.061 9.67324 63.8712C9.2386 64.1885 9.27153 64.08 8.61102 64.0714C8.40877 63.8725 8.46752 63.994 8.46427 63.6807C8.67386 63.5482 8.88564 63.4192 9.09949 63.2939L9.07869 63.107C8.87521 63.0306 8.67247 62.9524 8.47053 62.872C8.55133 62.5259 8.59666 62.5786 8.9132 62.3165Z"
        fill="#DCCEBD"
    />
<path
        d="M104.556 21.1652C105.139 21.3402 105.214 21.296 105.515 21.7031C105.577 22.1551 105.192 22.8933 105 23.3484C104.707 23.3452 104.821 23.3873 104.578 23.1472C104.468 22.3584 104.258 21.8017 104.556 21.1652Z"
        fill="#DCCEBD"
    />
<path
        d="M37.4609 59.5176C37.6543 59.601 37.6672 59.6605 37.8142 59.8306C37.8542 60.659 37.2896 61.0324 36.5583 61.2485C36.1436 60.911 36.2293 61.0755 36.1477 60.6394C36.3254 60.2821 37.0661 59.8367 37.4609 59.5176Z"
        fill="#DCCEBD"
    />
<path
        d="M71.7085 8.07253C73.9238 7.08088 74.2454 7.76237 75.9189 7.91836C75.4963 8.16903 73.3124 7.8955 72.6408 8.18397C72.4416 8.26957 71.9353 8.40503 71.7204 8.44724L71.7085 8.07253Z"
        fill="#DCCEBD"
    />
<path
        d="M19.0885 89.6441L19.067 89.3329C18.6865 88.8983 18.62 88.5119 18.604 87.9629L18.7771 87.8577C19.2196 87.9443 19.5042 88.2993 19.8371 88.6215L19.8131 88.7061C19.7137 89.063 19.6959 89.1756 19.6557 89.5476C19.345 89.7104 19.469 89.6682 19.0885 89.6441Z"
        fill="#DCCEBD"
    />
<path
        d="M11.5543 85.2914C12.1469 85.566 11.8002 87.871 11.7273 88.5251L11.5804 88.6411L11.2398 88.3597C10.9671 88.1974 10.8198 88.1578 10.5232 88.0566L10.5775 87.8702L11.3996 87.4809C11.5745 87.0279 11.5041 85.8978 11.5543 85.2914Z"
        fill="#DCCEBD"
    />
<path
        d="M167.191 4.47278L167.526 4.62877C167.991 5.17687 167.738 6.63766 167.677 7.38774C166.88 7.04952 167.078 5.15635 167.191 4.47278Z"
        fill="#DCCEBD"
    />
<path
        d="M167.641 52.827C167.849 52.8921 168.062 52.986 168.265 53.0693L168.261 53.1976C167.991 53.3864 167.735 53.4837 167.482 53.631C167.085 53.8612 167.231 54.3826 166.71 54.6681C166.381 54.4873 166.103 54.3768 165.889 54.0769C165.996 53.8087 166.388 53.7061 166.678 53.6128C167.245 53.4298 167.261 53.2806 167.641 52.827Z"
        fill="#DCCEBD"
    />
<path
        d="M119.796 28.5542C120.075 28.3122 120.171 28.1796 120.534 28.13C121.039 28.8959 121.031 28.9549 120.827 29.966L120.669 30.122C119.854 29.6612 120.345 29.1611 119.796 28.5542Z"
        fill="#DCCEBD"
    />
<path
        d="M132.056 23.4305C131.972 23.2206 131.955 23.2277 131.779 23.0955L131.594 23.5537L131.491 23.4935L131.44 23.2067C131.655 22.4323 131.929 22.0909 132.541 21.5742C132.934 21.5783 132.778 21.5312 133.128 21.7994C132.906 22.218 132.396 23.1164 132.056 23.4305Z"
        fill="#DCCEBD"
    />
<path
        d="M115.947 46.2535C116.183 46.3389 116.417 46.4465 116.647 46.5472L116.775 46.9113C116.651 47.6607 116.383 47.5981 115.767 47.7373C115.423 47.7986 115.38 47.7949 115.044 47.6977L115.042 47.5151L115.683 46.9317C115.761 46.6685 115.836 46.5051 115.947 46.2535Z"
        fill="#DCCEBD"
    />
<path
        d="M112.955 42.763C113.21 42.2391 113.415 41.468 113.77 41.2148C114.184 41.1492 114.336 41.2038 114.733 41.2929C114.503 41.762 114.406 41.7372 114.231 42.2982C113.759 42.7252 113.643 42.6337 112.955 42.763Z"
        fill="#DCCEBD"
    />
<path
        d="M82.125 13.474C83.2433 13.6071 83.8253 14.009 83.8769 15.1707L83.448 14.831C82.9873 14.8197 82.921 14.7793 82.5152 14.5831C82.2347 14.2754 82.2062 13.8887 82.125 13.474Z"
        fill="#DCCEBD"
    />
<path
        d="M29.4325 73.704L30.0053 73.6949C30.4239 73.9687 30.9536 74.3159 31.2145 74.7453L31.0038 74.8312L30.6176 74.6249C29.6323 74.0891 28.6975 74.3835 27.5186 74.4803C28.2786 74.059 28.6098 73.9625 29.4325 73.704Z"
        fill="#DCCEBD"
    />
<path
        d="M34.8955 55.1788C35.5095 55.1416 36.1306 54.9797 36.4354 55.5948C36.1037 55.9352 36.1807 55.8356 35.6308 55.933C35.4764 56.256 35.4525 56.3123 35.2 56.5637L34.9555 56.5605C34.6742 56.2256 34.6952 55.5563 34.8955 55.1788Z"
        fill="#DCCEBD"
    />
<path
        d="M73.0655 56.1503C73.5256 56.7021 73.8581 57.1326 74.4188 57.595C74.0963 58.0081 73.8435 57.872 73.4844 58.2545L72.958 58.3367C73.0727 57.8302 73.1014 57.0776 73.1392 56.5421L73.0655 56.1503Z"
        fill="#DCCEBD"
    />
<path
        d="M11.561 66.3986C11.5387 66.2359 11.5657 66.0666 11.5797 65.8988C12.0515 65.5442 12.782 65.0951 13.3744 65.0482L13.5224 65.3027C13.217 65.999 12.7196 65.8838 12.0298 66.017C12.0016 66.3737 11.9909 67.1148 11.8135 67.372C11.6035 67.0061 11.6065 66.8081 11.561 66.3986Z"
        fill="#DCCEBD"
    />
<path
        d="M81.629 62.4908C81.9043 62.5023 81.9612 62.4829 82.1768 62.6335C82.1803 63.4321 81.615 64.1058 80.7758 63.9301C80.3957 63.5986 80.5065 63.7424 80.3857 63.2027C80.4322 62.8414 80.4616 62.8049 80.7042 62.5303L80.8423 62.5629C80.9767 62.865 81.1066 63.1691 81.2319 63.475L81.4439 63.4842L81.5591 63.2988L81.4086 62.734L81.629 62.4908Z"
        fill="#DCCEBD"
    />
<path
        d="M11.5043 7.46753C12.4453 7.72574 12.8167 8.0307 12.675 8.99573C12.0622 8.93157 11.872 8.9578 11.4347 8.61323C11.2847 8.23657 11.4149 7.86601 11.5043 7.46753Z"
        fill="#DCCEBD"
    />
<path
        d="M119.598 52.697L119.894 52.8717C119.932 53.0865 119.97 53.2603 120.022 53.4722C120.251 53.6391 120.432 53.7486 120.676 53.8926C120.542 54.1791 120.28 54.2318 119.939 54.4108C119.553 54.5089 119.407 54.4047 119.184 54.1516C119.127 53.7252 119.428 53.1224 119.598 52.697Z"
        fill="#DCCEBD"
    />
<path
        d="M29.3425 69.0836C29.752 69.1756 29.9529 69.1986 30.3153 69.4303C30.2693 69.6359 29.7663 69.8691 29.4752 70.1193C29.4768 70.5552 29.9072 70.8711 30.0994 71.3477C29.739 71.2932 29.1522 71.2471 28.9355 70.9876C29.2793 70.4453 29.4047 70.2022 29.1877 69.5861L29.1504 69.4834L29.3425 69.0836Z"
        fill="#DCCEBD"
    />
<path
        d="M108.69 18.9307C108.875 18.9982 108.999 19.1806 109.135 19.3356L109.109 19.5945C108.688 20.1232 107.822 20.2788 107.196 20.3803L107.05 20.2769C106.987 19.6609 107.28 19.767 107.833 19.6393C108.416 19.5046 108.359 19.3988 108.69 18.9307Z"
        fill="#DCCEBD"
    />
<path
        d="M22.8271 74.9611C23.0291 74.9532 23.231 74.9477 23.4331 74.9449C23.8762 74.9393 24.3417 74.9424 24.662 75.2557C24.2922 75.5695 24.2924 75.4875 23.7535 75.597C23.7728 75.9292 23.7507 75.9487 23.6111 76.2617L23.4407 76.2904C23.0738 75.969 22.9711 75.4374 22.8271 74.9611Z"
        fill="#DCCEBD"
    />
<path
        d="M82.0947 69.7367C82.6482 69.754 82.7843 69.7614 83.1596 70.0804C83.3517 70.4899 83.3287 70.7758 83.3416 71.227C82.8778 71.2063 82.7315 71.2319 82.3711 70.9385C82.1133 70.5909 82.1304 70.1763 82.0947 69.7367Z"
        fill="#DCCEBD"
    />
<path
        d="M93.0551 32.2493C93.2806 32.3011 93.5187 32.3907 93.7401 32.4654C93.923 33.004 93.1056 32.4279 92.7134 33.7016C92.4063 33.8499 92.5618 33.8337 92.2318 33.7534C91.9279 32.948 92.4254 32.5688 93.0551 32.2493Z"
        fill="#DCCEBD"
    />
<path
        d="M133.615 13.447C133.858 13.5466 133.881 13.5968 134.067 13.7935C134.323 14.6174 134.211 15.0461 133.961 15.8713L133.702 15.8636C133.303 15.4301 133.551 14.0241 133.615 13.447Z"
        fill="#DCCEBD"
    />
<path
        d="M129.368 1.46643C129.92 1.47003 129.778 1.39462 130.204 1.66416C130.378 2.29994 130.252 2.48191 129.911 3.08261C129.826 3.23315 129.738 3.38109 129.644 3.52629L129.542 3.35095C129.596 2.97325 129.642 2.84792 129.44 2.51048C129.339 2.10248 129.464 1.99234 129.368 1.46643Z"
        fill="#DCCEBD"
    />
<path
        d="M21.0878 7.84887C20.6871 7.34064 20.4966 7.19348 20.5641 6.57771L20.7853 6.48315C21.4118 6.63499 21.5488 6.96359 21.8953 7.49806C21.6356 7.72366 21.4557 7.91589 21.0878 7.84887Z"
        fill="#DCCEBD"
    />
<path
        d="M68.5849 42.9509C68.472 42.3039 68.4098 41.7548 68.9587 41.3406C69.8672 41.3976 69.3422 41.5331 69.8867 41.9479C69.4076 42.3731 69.1155 42.5897 68.5849 42.9509Z"
        fill="#DCCEBD"
    />
<path
        d="M116.54 24.9191C116.927 24.9112 117.035 24.893 117.394 25.0561C117.582 25.5259 117.361 25.9362 117.21 26.5133C117.048 26.5425 116.883 26.5074 116.718 26.486C116.452 26.1118 116.537 25.4251 116.54 24.9191Z"
        fill="#DCCEBD"
    />
<path
        d="M34.0394 68.4017L34.2967 68.498C34.6983 69.1245 34.7124 69.5609 34.2227 70.0914C33.8759 69.9999 33.819 69.9986 33.5242 69.8066C33.3869 69.2866 33.7159 68.9604 34.0394 68.4017Z"
        fill="#DCCEBD"
    />
<path
        d="M114.03 50.1127L114.226 50.211C114.295 50.6906 115.224 51.4737 115.617 51.8143L115.675 51.864L115.439 52.0295C115.281 51.9708 114.968 51.5257 114.892 51.5033C114.524 51.3947 114.048 51.3786 113.717 51.1624C113.788 50.7461 113.886 50.5063 114.03 50.1127Z"
        fill="#DCCEBD"
    />
<path
        d="M136.355 6.7858C137.503 6.62877 137.95 7.40794 137.762 8.44843C136.645 8.15996 137.392 7.91214 136.537 7.18804C136.428 7.09609 136.41 6.94542 136.355 6.7858Z"
        fill="#DCCEBD"
    />
<path
        d="M91.9912 49.0196C92.3062 48.8029 92.8852 48.5599 93.2567 48.481C93.1866 49.1562 93.5701 49.1413 93.5706 49.9375L93.4354 50.0646C92.8755 49.7324 92.464 49.2814 91.9912 49.0196Z"
        fill="#DCCEBD"
    />
<path
        d="M94.0764 90.6026C94.2172 90.3256 94.1149 89.9566 94.0807 89.5923C94.3032 89.1963 94.1654 89.327 94.6762 89.1381C94.9986 89.6882 95.1863 90.2971 94.5769 90.7409C94.3564 90.7077 94.2392 90.7233 94.0764 90.6026Z"
        fill="#DCCEBD"
    />
<path
        d="M19.5049 80.0969C20.277 80.2998 20.1674 80.4261 20.6742 81.2854L20.5156 81.503C20.0426 81.5532 19.7906 81.6358 19.4331 81.3321C19.3872 80.8901 19.4502 80.5361 19.5049 80.0969Z"
        fill="#DCCEBD"
    />
<path
        d="M6.21983 57.2173C7.10492 57.4915 6.59084 57.9616 7.34805 58.4516L7.23769 58.5807C6.75338 58.8425 6.67464 58.9708 6.21653 58.7285C6.0285 58.3099 6.16187 57.6946 6.21983 57.2173Z"
        fill="#DCCEBD"
    />
<path
        d="M119.643 65.7305C120.431 65.0869 119.714 65.3452 119.908 64.4148L120.267 64.3119L120.666 64.7566C120.902 65.0162 120.92 65.0725 120.964 65.4278C120.626 65.8575 120.151 65.7613 119.643 65.7305Z"
        fill="#DCCEBD"
    />
<path
        d="M76.1785 82.3563C76.6498 82.0214 76.9141 81.7831 77.4776 81.6752C77.9054 81.8318 77.7788 81.7223 78.0001 82.0613C77.9792 82.1772 77.9055 82.5386 77.9119 82.6325L77.7416 82.5684C77.3299 82.7194 76.6402 82.4715 76.1785 82.3563Z"
        fill="#DCCEBD"
    />
<path
        d="M52.6239 41.069C52.6662 40.8671 52.4841 39.9757 52.5237 39.3337L52.6618 39.2367C53.0754 39.6958 53.0881 39.9523 53.311 40.5501C53.2308 40.9936 53.098 41.0174 52.6239 41.069Z"
        fill="#DCCEBD"
    />
<path
        d="M11.5492 50.5118C11.5071 50.0756 11.4187 49.7194 11.6592 49.3612C12.1999 49.2803 12.3719 49.8752 12.5962 50.3121C12.5756 50.5193 12.5898 50.7086 12.4556 50.8519C12.1437 50.6663 11.8927 50.6109 11.5492 50.5118Z"
        fill="#DCCEBD"
    />
<path
        d="M67.2492 7.71938L67.3583 7.7299C68.8997 7.86901 68.3492 7.26466 70.1056 8.05863L69.961 8.42581C68.828 7.85446 68.0022 8.10578 66.781 8.07916C67.1577 7.91394 67.1161 8.0046 67.2492 7.71938Z"
        fill="#DCCEBD"
    />
<path
        d="M30.5869 63.1254C31.1887 63.5611 30.9 64.8725 30.5321 65.4222C29.8509 64.8479 30.3059 63.7666 30.5869 63.1254Z"
        fill="#DCCEBD"
    />
<path
        d="M75.5338 9.8147L75.8873 10.1034C76.0576 10.8232 76.0856 11.4539 75.6943 12.0896C75.5422 12.0206 75.4965 11.9618 75.3687 11.8526C75.2232 11.2554 75.4135 10.4197 75.5338 9.8147Z"
        fill="#DCCEBD"
    />
<path
        d="M40.6113 81.5537C41.6784 81.5035 41.5156 81.8901 41.6364 82.5718C41.8521 82.7564 42.0352 82.913 42.1854 83.0416C41.2411 83.2471 40.7133 82.3839 40.6113 81.5537Z"
        fill="#DCCEBD"
    />
<path
        d="M97.0152 45.6679C96.7298 45.169 96.6128 45.2756 96.396 44.9026C97.0735 44.8983 97.2032 44.8734 97.7353 44.4558C98.0369 44.591 97.9477 44.5697 98.135 44.9559C97.6663 45.3665 97.5859 45.4168 97.0152 45.6679Z"
        fill="#DCCEBD"
    />
<path
        d="M129.627 45.9843C129.703 46.0122 129.826 46.2588 129.885 46.3536C129.89 46.5272 129.804 46.6646 129.73 46.8265C129.168 47.1236 129.356 47.0454 128.6 46.8576L128.303 46.82L128.268 46.629C128.739 46.2597 129.095 46.3733 129.627 45.9843Z"
        fill="#DCCEBD"
    />
<path
        d="M96.8948 29.5666C97.5476 29.4958 98.3308 29.458 98.8315 29.9161L98.7935 30.2515C98.0893 30.2245 96.9893 30.3791 96.8948 29.5666Z"
        fill="#DCCEBD"
    />
<path
        d="M73.1391 56.5421C73.1013 57.0776 73.0726 57.8302 72.9579 58.3367C72.5613 58.1024 72.4082 58.0003 72.0549 57.7063L72.0566 57.4301C72.5455 56.9697 72.5189 56.8929 73.1391 56.5421Z"
        fill="#DCCEBD"
    />
<path
        d="M130.296 25.5997C130.32 24.9201 130.268 23.9601 131.074 23.8788L131.474 24.2497C131.021 25.1241 130.787 25.0081 130.296 25.5997Z"
        fill="#DCCEBD"
    />
<path
        d="M167.215 1.24548C167.666 1.29694 168.269 1.41789 168.652 1.66254L168.61 1.82589L168.291 1.8941C167.926 2.06541 167.537 2.31613 167.172 2.24691C167.013 1.80119 167.105 1.78709 167.215 1.24548Z"
        fill="#DCCEBD"
    />
<path
        d="M56.8049 73.8309C57.1768 73.8215 57.4098 73.7765 57.7351 73.9483C57.7542 74.382 57.603 74.4518 57.3292 74.8988C56.9395 74.8204 56.744 74.8148 56.4563 74.5285C56.4884 74.0917 56.4785 74.2206 56.8049 73.8309Z"
        fill="#DCCEBD"
    />
<path
        d="M46.8876 47.2682L46.4165 47.0678L46.394 46.8022C46.8127 46.2591 47.3606 46.0785 47.9769 46.401C47.5991 46.7117 47.2848 47.1244 46.8876 47.2682Z"
        fill="#DCCEBD"
    />
<path
        d="M102.556 23.5504C103.029 25.222 104.134 24.3698 104.013 25.5636L103.78 25.7853L103.575 25.7141C103.269 25.0667 103.291 24.9055 102.609 24.6692C102.552 24.4673 102.56 23.8004 102.556 23.5504Z"
        fill="#DCCEBD"
    />
<path
        d="M18.5298 74.7887C18.5867 74.7947 18.6436 74.8016 18.7003 74.8091C19.1344 74.8669 19.5861 74.9531 19.8508 75.3015L19.6852 75.5336C19.3775 75.7572 19.2174 75.9217 18.8319 75.9127C18.5259 75.5142 18.6034 75.3672 18.5298 74.7887Z"
        fill="#DCCEBD"
    />
<path
        d="M15.1186 54.2463C16.0053 54.5408 15.7367 55.3822 15.5673 56.0716L15.3255 56.0891L15.1177 55.8892C14.943 55.3629 15.0557 54.8024 15.1186 54.2463Z"
        fill="#DCCEBD"
    />
<path
        d="M45.4405 7.94377C44.746 8.03378 39.8761 8.02573 39.5151 7.78233C39.844 7.57101 39.9492 7.58686 40.3256 7.61348L40.4355 7.62205C41.4691 8.13171 44.5885 7.60166 45.4405 7.94377Z"
        fill="#DCCEBD"
    />
<path
        d="M57.8066 66.7415C58.3424 66.6414 58.5103 66.6934 59.0499 66.797C58.9031 67.1695 58.8674 68.3733 58.8378 68.8378C58.4257 67.8445 58.8423 67.1379 57.8066 66.7415Z"
        fill="#DCCEBD"
    />
<path
        d="M77.0232 45.7014C76.8497 45.6328 76.68 45.5784 76.5283 45.4713L76.5422 45.1709C76.767 44.7972 77.1606 44.7476 77.5924 44.6216C77.7364 44.7734 77.7987 44.8186 77.96 44.945C77.6106 45.3537 77.5162 45.5022 77.0232 45.7014Z"
        fill="#DCCEBD"
    />
<path
        d="M111.559 47.0266C112 47.0312 112.061 47.101 112.327 47.337L112.295 47.6006L111.959 47.8627C111.471 47.8714 111.189 47.9449 110.84 47.6503C111.067 47.2246 111.082 47.313 111.559 47.0266Z"
        fill="#DCCEBD"
    />
<path
        d="M104.962 46.9103C104.968 47.5824 104.937 49.1432 105.224 49.6657C105.104 49.8537 105.063 49.8455 104.857 49.9302L104.68 49.7978C104.438 48.9481 104.76 47.7665 104.962 46.9103Z"
        fill="#DCCEBD"
    />
<path
        d="M62.9089 82.7746C63.5112 82.4406 63.4064 82.3828 64.0073 82.4006L64.3196 82.6145L64.3098 82.8919C63.7777 83.3142 63.4836 83.1413 62.8242 83.0209L62.9089 82.7746Z"
        fill="#DCCEBD"
    />
<path
        d="M12.0299 66.0171C12.0552 66.2808 12.0677 68.2017 12.0761 68.2181C11.5066 68.8002 11.744 69.6956 11.5746 70.5069C11.5185 69.8964 11.5579 67.1863 11.5611 66.3987C11.6066 66.8082 11.6036 67.0061 11.8136 67.372C11.991 67.1149 12.0017 66.3737 12.0299 66.0171Z"
        fill="#DCCEBD"
    />
<path
        d="M96.3784 47.8373C96.8851 47.8677 97.3814 47.9787 97.8131 48.2473C98.0757 48.6467 98.0329 48.4551 97.9399 48.9766C97.3034 48.7826 96.5279 48.5085 96.3784 47.8373Z"
        fill="#DCCEBD"
    />
<path
        d="M91.3382 97.6545C91.5753 97.6826 91.6552 97.7173 91.8741 97.7931C92.1377 98.1887 91.9831 98.8536 91.9365 99.3712C91.275 99.0675 91.0797 98.2998 91.3382 97.6545Z"
        fill="#DCCEBD"
    />
<path
        d="M12.3633 67.5993C12.8677 67.5895 13.7715 67.6451 14.1214 68.0218L13.9429 68.074C13.359 68.3262 13.2808 68.4314 12.7047 68.304C12.4511 68.0155 12.4233 67.9772 12.3633 67.5993Z"
        fill="#DCCEBD"
    />
<path
        d="M88.4053 97.7009C89.1144 97.6435 89.9119 97.7148 90.3256 98.3329C89.5689 98.4232 88.4771 98.6403 88.4053 97.7009Z"
        fill="#DCCEBD"
    />
<path
        d="M148.056 8.63117C147.397 8.63792 145.524 8.71611 144.977 8.43492C145.286 8.21269 145.417 8.27191 145.844 8.2323C146.365 8.30529 147.836 8.33854 148.036 8.53454L148.056 8.63117Z"
        fill="#DCCEBD"
    />
<path
        d="M134.446 26.9868C134.738 27.0334 134.752 27.0358 135.012 27.1775C135.226 27.6681 135.138 28.3767 134.769 28.7739C134.21 28.3259 134.569 28.0313 134.261 27.2722L134.446 26.9868Z"
        fill="#DCCEBD"
    />
<path
        d="M47.0756 78.1926C48.1805 78.4155 47.4294 79.7456 47.1573 80.4643L47.038 80.4419C46.8802 80.0896 47.1943 79.0678 47.0756 78.1926Z"
        fill="#DCCEBD"
    />
<path
        d="M27.3628 90.1625L28.1987 90.1425C28.1833 90.6797 28.2207 91.0419 27.9458 91.4966L27.7609 91.5284C27.4457 91.2093 27.4283 90.6265 27.3628 90.1625Z"
        fill="#DCCEBD"
    />
<path
        d="M87.2007 56.6996L87.3784 56.6788C87.717 57.1121 87.7722 57.0486 87.8377 57.5231L87.6662 57.6562C87.1829 57.6148 86.7003 57.4357 86.4775 56.9732L86.6042 56.7891L87.2007 56.6996Z"
        fill="#DCCEBD"
    />
<path
        d="M118.459 29.9976L118.026 29.7555C117.93 29.3656 117.912 29.523 118.093 29.1652C118.542 28.9646 118.345 28.9918 118.837 29.0683L118.918 29.0107L119.185 29.3621C118.998 29.5533 118.689 29.9186 118.459 29.9976Z"
        fill="#DCCEBD"
    />
<path
        d="M45.8555 83.7163C46.3604 83.8755 46.3605 83.9962 46.4325 84.469C46.1932 85.0664 46.3465 84.8764 45.8341 85.2444L45.5043 85.1094C45.3582 84.7172 45.6734 84.1871 45.8555 83.7163Z"
        fill="#DCCEBD"
    />
<path
        d="M124.584 32.3597L125.149 32.4051C125.626 32.7183 125.825 33.1958 126.066 33.7148C125.885 33.754 125.655 33.7652 125.467 33.7813C125.165 33.548 125.161 33.0401 124.584 32.3597Z"
        fill="#DCCEBD"
    />
<path
        d="M126.629 16.3089C127.103 16.2605 127.411 16.2064 127.883 16.2899C128.239 16.559 128.127 16.41 128.252 16.9365C127.789 16.9504 127.492 16.9561 127.031 16.9153C126.649 16.6424 126.762 16.798 126.629 16.3089Z"
        fill="#DCCEBD"
    />
<path
        d="M15.7522 59.4817C16.2956 59.521 16.3586 59.629 16.5398 60.0899L16.438 60.3194L16.1261 60.4175C15.7665 60.3042 15.4268 60.231 15.1558 59.9677L15.2302 59.7378L15.7522 59.4817Z"
        fill="#DCCEBD"
    />
<path
        d="M28.3644 45.2082C27.8604 45.2313 27.6866 45.2567 27.199 45.1115L27.1499 44.9696C27.4942 44.6065 28.0936 44.565 28.5708 44.5873C28.7202 44.7737 28.7729 44.8093 28.9528 44.9524C28.8397 45.005 28.4663 45.1904 28.3644 45.2082Z"
        fill="#DCCEBD"
    />
<path
        d="M25.7362 80.8926C25.9731 80.9661 26.2583 81.0683 26.4998 81.0949C26.6324 81.3531 26.6021 81.2157 26.5635 81.5256C26.0363 81.764 25.3059 81.6706 24.9717 81.176C25.2933 80.9088 25.2779 80.9796 25.7362 80.8926Z"
        fill="#DCCEBD"
    />
<path
        d="M102.803 44.3054L103.044 44.3997C103.044 44.8004 102.62 44.7746 102.167 45.4568L102.107 45.5492C101.741 45.3745 101.683 45.0821 101.775 44.7349C102.291 44.3106 102.09 44.4328 102.803 44.3054Z"
        fill="#DCCEBD"
    />
<path
        d="M2.18457 29.6915C2.49976 28.9985 2.47673 28.7631 3.23066 28.6156C3.48294 28.7185 3.52421 28.7295 3.79617 28.7755L3.86398 28.7865C3.23858 29.2851 2.99608 29.5357 2.18457 29.6915Z"
        fill="#DCCEBD"
    />
<path
        d="M96.5633 97.6783C97.0277 97.7937 97.4632 97.8012 97.6736 98.1322C97.5177 98.2222 97.4885 98.2374 97.3674 98.3633L97.2795 98.4563C97.1291 98.8113 97.1764 98.8518 96.8906 99.0635L96.7101 98.8939C96.6004 98.4052 96.5305 98.1814 96.5633 97.6783Z"
        fill="#DCCEBD"
    />
<path
        d="M36.2571 100.692C35.6909 100.703 34.4042 100.849 34.106 100.577L34.1727 100.342C34.7194 100.187 35.3965 100.462 36.2762 100.313L36.3992 100.292L36.2571 100.692Z"
        fill="#DCCEBD"
    />
<path
        d="M71.2925 89.6456C71.6704 89.6162 71.8381 89.5719 72.1714 89.7699C72.3383 90.2529 72.1906 90.483 72.0667 91.0375L71.9518 91.0605C71.6816 90.7959 71.2905 90.033 71.2925 89.6456Z"
        fill="#DCCEBD"
    />
<path
        d="M62.7246 21.4581C63.2163 21.4783 63.3164 21.4968 63.789 21.6357C64.2024 22.0446 64.0814 21.92 64.2359 22.5452C63.3792 22.1013 62.9442 22.4946 62.7246 21.4581Z"
        fill="#DCCEBD"
    />
<path
        d="M86.771 8.91615L86.8711 8.90459C87.2681 8.86043 88.0177 8.80419 88.3326 9.05382C88.1535 9.36268 88.0029 9.34489 87.615 9.51789L87.3807 9.85299L87.1208 9.71674C86.8918 9.39165 86.8233 9.31969 86.771 8.91615Z"
        fill="#DCCEBD"
    />
<path
        d="M159.051 55.281C159.643 55.2258 160.322 55.0162 160.654 55.5551L160.529 55.9428C160 55.8559 159.38 55.8422 159.004 55.5503L159.051 55.281Z"
        fill="#DCCEBD"
    />
<path
        d="M100.919 31.4901C101.415 31.4448 102.192 31.3618 102.495 31.796L102.366 32.059C102.289 32.0652 102.211 32.0712 102.133 32.0767C101.579 32.1161 101.273 32.1981 100.889 31.8651L100.919 31.4901Z"
        fill="#DCCEBD"
    />
<path
        d="M145.844 8.23229C146.755 8.23242 148.616 8.19813 149.459 8.37698L149.425 8.51128C148.736 8.76948 148.585 8.5318 148.056 8.63116L148.036 8.53453C147.836 8.33853 146.365 8.30528 145.844 8.23229Z"
        fill="#DCCEBD"
    />
<path
        d="M132.06 2.33716L132.238 2.27832L132.414 2.39028C132.372 2.93332 132.364 3.00618 132.065 3.45753C131.675 3.70275 131.861 3.65378 131.327 3.58144C131.564 3.30881 131.666 3.22114 131.764 2.86851C131.578 2.54744 131.684 2.65628 131.252 2.49133L132.06 2.33716Z"
        fill="#DCCEBD"
    />
<path
        d="M35.8466 49.9109L36.1249 50.243C36.4064 50.8601 36.2387 50.5811 36.948 50.934C36.2082 51.0644 36.1757 51.3712 35.881 51.3839C35.7532 50.7467 35.6758 50.5267 35.8466 49.9109Z"
        fill="#DCCEBD"
    />
<path
        d="M18.8091 50.7256C19.4934 51.1319 19.3231 51.8647 19.129 52.4878C18.8845 52.3941 18.8582 52.3294 18.683 52.1212C18.5522 51.7149 18.719 51.1612 18.8091 50.7256Z"
        fill="#DCCEBD"
    />
<path
        d="M12.5122 88.8101C13.0016 88.9258 12.9181 88.8317 13.2203 89.1545C13.2315 89.5406 13.2101 89.8495 13.1855 90.2333L12.8596 90.2862C12.4806 89.8756 12.5308 89.3922 12.5122 88.8101Z"
        fill="#DCCEBD"
    />
<path
        d="M38.551 10.2624C38.722 10.4397 38.822 10.5515 38.9744 10.745C39.2988 10.449 39.3862 10.3528 39.7852 10.1559C40.0749 10.5722 39.5794 11.0455 39.3097 11.3783C38.9494 11.0875 38.5505 10.7633 38.551 10.2624Z"
        fill="#DCCEBD"
    />
<path
        d="M77.0681 61.3997C77.8987 61.1762 79.0771 61.1793 79.5685 61.9792C78.9747 61.9366 77.5991 61.6478 77.0681 61.3997Z"
        fill="#DCCEBD"
    />
<path
        d="M80.6967 76.7389C80.6074 76.6605 81.849 77.8511 81.6951 77.652L81.5416 77.7814C81.0013 77.8922 80.9876 77.9813 80.5303 77.8331C80.428 77.3885 80.5565 77.2411 80.6967 76.7389Z"
        fill="#DCCEBD"
    />
<path
        d="M171.872 47.9956C171.365 47.8125 170.992 47.7319 170.859 47.1691L171.098 47.0238C171.446 47.0573 171.55 47.1051 171.88 47.2281C171.878 47.4337 171.89 47.8061 171.872 47.9956Z"
        fill="#DCCEBD"
    />
<path
        d="M22.1985 7.43319C22.5536 7.37409 23.1082 7.41799 23.4632 7.35188C23.9805 7.25564 23.7724 6.81468 24.2339 6.58557L24.4205 7.23057L24.7848 7.39617C24.0759 7.71906 23.0195 7.50865 22.1985 7.43319Z"
        fill="#DCCEBD"
    />
<path
        d="M141.758 8.78998C141.226 8.68244 140.196 8.71906 139.815 8.36345L139.818 8.36059L139.995 8.45891L140.114 8.29551C140.641 8.23291 141.313 8.32383 141.853 8.37461L141.758 8.78998Z"
        fill="#DCCEBD"
    />
<path
        d="M59.1473 10.1931C59.4911 10.2531 59.8176 10.3881 60.1213 10.4347C60.4119 10.6197 60.3141 10.5251 60.4767 10.8353L60.2963 10.9971C59.8187 11.0967 59.7563 11.0659 59.3206 10.8749C59.0535 10.5491 59.1178 10.7143 59.1473 10.1931Z"
        fill="#DCCEBD"
    />
<path
        d="M30.029 78.1486C30.4265 78.133 30.7974 78.0782 31.1437 78.2723L31.1693 78.4781L30.892 78.7544C30.398 78.6854 30.0814 78.6683 29.6313 78.4481L29.632 78.3008L30.029 78.1486Z"
        fill="#DCCEBD"
    />
<path
        d="M110.369 78.2648C111.082 78.147 111.863 78.0017 112.197 78.6894C111.375 78.7621 110.954 78.9167 110.369 78.2648Z"
        fill="#DCCEBD"
    />
<path
        d="M142.597 8.34101L142.592 7.98006C142.953 7.85512 143.609 8.07747 143.872 8.34386L143.811 8.54973L143.882 8.55544C143.568 8.70805 143.408 8.70026 143.065 8.73338L142.962 8.44167L142.597 8.34101Z"
        fill="#DCCEBD"
    />
<path
        d="M52.1263 79.7769C51.6662 80.407 51.924 80.8842 51.5071 81.1991C51.486 80.6809 51.6598 79.0454 52.1288 78.7937L52.3265 79.0158L52.0118 79.1326C51.9106 79.4916 51.9131 79.3384 52.1263 79.7769Z"
        fill="#DCCEBD"
    />
<path
        d="M48.9761 80.4873C49.6623 80.8554 49.3564 81.7425 49.1826 82.3215C48.6563 81.9006 48.8728 81.0688 48.9761 80.4873Z"
        fill="#DCCEBD"
    />
<path
        d="M23.339 91.9229C23.6785 92.0774 23.5673 91.9832 23.7806 92.2696C23.6216 92.5941 23.0093 92.7868 22.6349 92.9494L22.4516 93.0023L22.3938 92.8525C22.596 92.499 23.0158 92.1933 23.339 91.9229Z"
        fill="#DCCEBD"
    />
<path
        d="M66.3799 93.2688C66.9764 93.3359 67.1218 93.3511 67.6727 93.5742L67.7005 93.7225L67.3852 93.8391C67.0042 93.9543 66.8285 94.0533 66.4559 93.9326C66.2756 93.6005 66.3236 93.7374 66.3799 93.2688Z"
        fill="#DCCEBD"
    />
<path
        d="M27.5083 79.3246C27.9028 79.2839 28.203 79.2724 28.5968 79.2629C29.0178 79.4969 28.8891 79.3705 29.0617 79.9033C28.2724 79.8935 28.0051 79.936 27.5083 79.3246Z"
        fill="#DCCEBD"
    />
<path
        d="M139.493 12.3622L139.81 12.4004L139.859 12.5696C139.605 12.985 139.407 13.0564 138.979 13.2893C138.87 13.2663 138.753 13.1814 138.65 13.1202L138.629 12.942C138.828 12.6303 139.157 12.519 139.493 12.3622Z"
        fill="#DCCEBD"
    />
<path
        d="M29.417 61.4954L29.6761 61.6151L29.7028 61.8227C29.3736 62.1574 28.9394 62.2718 28.4949 62.4366L28.1746 62.2825C28.262 62.0261 29.0417 61.7159 29.417 61.4954Z"
        fill="#DCCEBD"
    />
<path
        d="M61.9857 5.04369C61.8622 4.45779 61.7841 4.5187 61.9956 4.07554C62.5034 4.03788 62.3654 4.06165 62.8774 4.40999C62.6318 4.75925 62.368 4.85198 61.9857 5.04369Z"
        fill="#DCCEBD"
    />
<path
        d="M81.1028 54.4019C81.626 54.4556 81.5842 54.3752 81.9639 54.6495C81.9312 54.9953 81.96 54.8736 81.6731 55.1795C81.2736 55.1508 81.1401 55.1562 80.7608 54.9881L80.7451 54.7747L81.1028 54.4019Z"
        fill="#DCCEBD"
    />
<path
        d="M13.6702 72.6812L13.9433 72.8018C14.0203 73.2434 13.9475 74.0253 13.7281 74.4352L13.4218 74.2517C13.3088 73.8662 13.564 73.1663 13.6702 72.6812Z"
        fill="#DCCEBD"
    />
<path
        d="M136.375 23.5167C136.974 23.8071 136.98 24.9422 137.179 25.6681L136.945 25.6884C136.647 25.3946 136.498 24.0765 136.375 23.5167Z"
        fill="#DCCEBD"
    />
<path
        d="M20.4536 58.4787C21.0945 58.47 21.8328 58.8444 22.1808 59.3868C21.2514 59.3602 21.0496 59.1696 20.4536 58.4787Z"
        fill="#DCCEBD"
    />
<path
        d="M8.9668 36.0206L9.41949 36.1348C9.66736 36.4594 9.57496 36.9599 9.55198 37.3875C9.27019 37.3947 9.37646 37.4118 9.11377 37.2472C8.96732 36.8436 8.98147 36.4503 8.9668 36.0206Z"
        fill="#DCCEBD"
    />
<path
        d="M45.9147 9.07629C46.3283 9.15942 46.2446 9.07954 46.4932 9.33502C46.3539 9.68596 46.2869 9.64492 45.931 9.88261C45.4602 9.78234 45.5465 9.8678 45.2256 9.57219C45.4321 9.21358 45.4637 9.28904 45.9147 9.07629Z"
        fill="#DCCEBD"
    />
<path
        d="M10.6144 26.3921C11.04 26.4457 10.9806 26.3692 11.2236 26.6099C10.95 26.9714 10.9973 26.8724 10.5052 27.0468C10.1034 27.0036 10.0761 27.0697 9.81689 26.8327C10.0942 26.4705 10.0962 26.5617 10.6144 26.3921Z"
        fill="#DCCEBD"
    />
<path
        d="M57.4237 31.9428C56.9926 31.8287 56.3021 31.4553 56.4182 30.936C56.8998 30.953 57.1349 31.3148 57.5022 31.691L57.4237 31.9428Z"
        fill="#DCCEBD"
    />
<path
        d="M106.988 49.1117C107.439 49.1547 107.279 49.0829 107.603 49.3628L107.577 49.5869L107.263 49.7932C106.868 49.7143 106.701 49.6977 106.338 49.4965C106.47 49.2242 106.629 49.2459 106.988 49.1117Z"
        fill="#DCCEBD"
    />
<path
        d="M8.2749 16.3002C8.74525 16.301 9.31506 16.2414 9.68679 16.4996L9.70913 16.8139C9.14101 16.7961 8.72821 16.8752 8.28675 16.6101L8.2749 16.3002Z"
        fill="#DCCEBD"
    />
<path
        d="M13.5798 100.286C14.0049 100.326 14.4471 100.283 14.7748 100.55C14.3853 100.753 13.5927 100.711 13.1265 100.718L13.5798 100.286Z"
        fill="#DCCEBD"
    />
<path
        d="M6.21436 52.4963C6.98599 52.631 7.33197 52.5753 7.6127 53.3258C6.86409 53.1938 6.37742 53.2695 6.21436 52.4963Z"
        fill="#DCCEBD"
    />
<path
        d="M102.983 14.641C103.066 14.6937 103.196 14.8428 103.271 14.9206L103.223 15.0879C102.877 15.2917 102.524 15.2451 102.123 15.2368C102.04 15.174 101.966 15.0645 101.898 14.9787C102.18 14.7352 102.572 14.7244 102.983 14.641Z"
        fill="#DCCEBD"
    />
<path
        d="M110.83 60.3184C111.111 60.3817 111.095 60.3789 111.293 60.5944C111.128 60.9366 111.14 60.8475 110.719 61.0209C110.376 60.9396 110.262 60.9304 109.981 60.7227C110.201 60.4434 110.433 60.4477 110.83 60.3184Z"
        fill="#DCCEBD"
    />
<path
        d="M132.05 44.8992C132.539 44.8674 132.798 44.8259 133.273 44.9556L133.376 45.1655L133.206 45.4653C132.777 45.402 132.416 45.3793 132.037 45.1693L132.05 44.8992Z"
        fill="#DCCEBD"
    />
<path
        d="M59.1475 10.1932C59.3763 9.82824 59.4368 9.67562 59.8409 9.49561L60.019 9.61458C60.1777 10.506 59.7215 9.82122 60.1215 10.4348C59.8178 10.3882 59.4913 10.2532 59.1475 10.1932Z"
        fill="#DCCEBD"
    />
<path
        d="M99.6733 7.64549C100.351 7.51236 101.221 7.37898 101.756 7.85591C101.179 7.9602 100.176 7.98709 99.6733 7.64549Z"
        fill="#DCCEBD"
    />
<path
        d="M83.2297 75.9643C82.9362 75.5837 82.5247 75.1185 82.3999 74.6719L82.5439 74.5906C83.4009 74.8619 82.9264 75.5049 83.5477 75.9362L83.2297 75.9643Z"
        fill="#DCCEBD"
    />
<path
        d="M54.3143 83.7688L54.5047 83.9391C54.6519 84.462 54.5439 85.0996 54.358 85.6042L54.3253 85.5527C53.9395 84.9606 54.1461 84.4163 54.3143 83.7688Z"
        fill="#DCCEBD"
    />
<path
        d="M25.7357 53.6381C26.1344 53.9769 25.9588 54.8021 25.7862 55.2241C25.6013 55.1157 25.5852 55.0698 25.4544 54.9031C25.4283 54.3648 25.5432 54.1468 25.7357 53.6381Z"
        fill="#DCCEBD"
    />
<path
        d="M70.1055 8.05872C70.8027 8.15483 71.0049 8.14301 71.7084 8.07261L71.7203 8.44733C71.1581 8.48239 70.4961 8.56383 69.9609 8.4259L70.1055 8.05872Z"
        fill="#DCCEBD"
    />
<path
        d="M162.359 37.6262C162.753 37.5593 162.936 37.5041 163.332 37.6001C163.533 37.9201 163.488 37.7715 163.379 38.2774C162.932 38.167 162.676 38.1374 162.324 37.8401L162.359 37.6262Z"
        fill="#DCCEBD"
    />
<path
        d="M104.074 18.4005C104.513 18.3761 104.922 18.2727 105.167 18.6646L105.03 19.0188C104.627 19.012 104.239 18.9771 103.964 18.6572L104.074 18.4005Z"
        fill="#DCCEBD"
    />
<path
        d="M17.4042 54.5315C17.8128 55.2936 17.8813 55.299 17.4783 56.0432C17.3671 55.9735 17.281 55.8607 17.1889 55.7603C17.0867 55.2823 17.2383 54.9937 17.4042 54.5315Z"
        fill="#DCCEBD"
    />
<path
        d="M46.1232 5.1366C46.5498 5.14971 46.9663 5.10945 47.3063 5.34779L47.3578 5.64431C46.922 5.64366 46.2257 5.72886 45.9678 5.3822L46.1232 5.1366Z"
        fill="#DCCEBD"
    />
<path
        d="M25.7363 80.8926C25.8908 80.5525 25.9405 80.3243 26.2627 80.1622C26.5589 80.4449 26.5969 80.5527 26.465 80.9796L26.4999 81.0949C26.2585 81.0683 25.9732 80.9661 25.7363 80.8926Z"
        fill="#DCCEBD"
    />
<path
        d="M76.8975 57.1799C77.5408 57.216 77.9007 57.2093 78.2905 57.7947C77.9338 57.8855 77.8434 57.8661 77.4741 57.8315C77.1157 57.6609 77.0757 57.5228 76.8975 57.1799Z"
        fill="#DCCEBD"
    />
<path
        d="M87.2009 56.6996C87.1247 56.2328 86.9821 55.8016 87.2293 55.4244L87.4157 55.4252C87.636 55.822 87.488 56.2314 87.3785 56.6788L87.2009 56.6996Z"
        fill="#DCCEBD"
    />
<path
        d="M105.232 23.4935L105.538 23.6546C105.805 23.9979 105.81 24.478 105.865 24.9241L105.468 24.773C105.192 24.41 105.243 23.9633 105.232 23.4935Z"
        fill="#DCCEBD"
    />
<path
        d="M44.6656 78.7717C44.9344 78.69 44.803 78.6912 45.0733 78.7684L44.9943 78.9461C44.5558 79.2538 44.4776 79.2999 43.9716 79.4716L43.8103 79.5919L43.7012 79.496C43.9456 79.0996 44.2511 78.9883 44.6656 78.7717Z"
        fill="#DCCEBD"
    />
<path
        d="M64.213 4.88916C64.3924 4.94618 64.5584 5.06892 64.7194 5.17191L64.7623 5.46038L64.4997 5.79068C64.2055 5.6882 64.0482 5.61066 63.7703 5.46896L63.7753 5.27179L64.213 4.88916Z"
        fill="#DCCEBD"
    />
<path
        d="M79.3398 48.024C80.1667 47.8362 80.395 47.9269 81.1572 48.3079C80.3619 48.4075 79.9434 48.5715 79.3398 48.024Z"
        fill="#DCCEBD"
    />
<path
        d="M27.3521 97.8839C28.0438 97.8226 28.4544 97.6905 28.9223 98.2337C28.2589 98.2848 27.6539 98.512 27.3521 97.8839Z"
        fill="#DCCEBD"
    />
<path
        d="M52.1016 17.7452C52.7377 17.7193 53.0784 17.6131 53.4187 18.1869C53.021 18.2689 52.8641 18.2569 52.471 18.2474C52.106 18.014 52.2024 18.1499 52.1016 17.7452Z"
        fill="#DCCEBD"
    />
<path
        d="M14.8093 64.113C14.9354 64.1013 15.0617 64.0924 15.1882 64.086C15.7014 64.0619 15.948 64.1232 16.3018 64.4441C15.4711 64.6035 15.2437 64.8291 14.8093 64.113Z"
        fill="#DCCEBD"
    />
<path
        d="M89.4108 58.0192L89.6951 58.1464C89.9368 58.5544 89.8237 58.9913 89.7688 59.4757L89.52 59.4436C89.3317 59.0624 89.3982 58.4636 89.4108 58.0192Z"
        fill="#DCCEBD"
    />
<path
        d="M5.5957 54.5075C6.07937 54.4271 6.3937 54.3869 6.8037 54.6021L6.90786 54.9537C6.42859 54.9619 6.11634 55.0052 5.68563 54.7957L5.5957 54.5075Z"
        fill="#DCCEBD"
    />
<path
        d="M66.0756 91.7924L66.6443 92.0894L66.7023 92.3185L66.3854 92.6543C66.0493 92.5843 65.9678 92.56 65.6559 92.4174L65.6431 92.1972L66.0756 91.7924Z"
        fill="#DCCEBD"
    />
<path
        d="M95.4261 56.2843C95.8519 56.5368 95.9646 56.5093 96.1633 56.8821C95.7379 57.1013 95.1096 56.7892 94.7104 56.6064L95.4261 56.2843Z"
        fill="#DCCEBD"
    />
<path
        d="M62.1426 48.4656C62.4309 48.4732 62.5192 48.5003 62.8025 48.5677L62.9137 48.7789L62.6626 49.5874L62.604 49.7395L62.4439 49.6591L62.1426 48.4656Z"
        fill="#DCCEBD"
    />
<path
        d="M52.0683 45.0801C52.2046 45.9034 52.0964 46.225 51.9093 47.0239L51.8389 46.2356C51.7965 46.0363 51.6825 45.8368 51.5911 45.6507L51.8808 45.5358L52.0683 45.0801Z"
        fill="#DCCEBD"
    />
<path
        d="M147.712 47.2515C147.932 47.2799 148.208 47.3494 148.429 47.398L148.519 47.6055L148.225 47.9414C147.982 48.0441 147.954 48.0432 147.689 48.0725C147.515 47.7492 147.613 47.6971 147.712 47.2515Z"
        fill="#DCCEBD"
    />
<path
        d="M69.1778 83.8291C69.5717 83.8081 70.1672 83.8088 70.4894 84.0385L70.372 84.2585C69.953 84.2975 69.4479 84.3558 69.1187 84.1146L69.1778 83.8291Z"
        fill="#DCCEBD"
    />
<path
        d="M173.033 10.3144C173.661 10.2521 174.033 10.1579 174.273 10.7855C173.568 10.8403 173.291 10.9946 173.033 10.3144Z"
        fill="#DCCEBD"
    />
<path
        d="M36.2263 97.8585C36.7842 97.8714 36.9227 97.8694 37.4544 98.022L37.5025 98.2674C37.002 98.3312 36.6978 98.4539 36.3245 98.2366L36.2263 97.8585Z"
        fill="#DCCEBD"
    />
<path
        d="M41.1751 22.1904C41.35 22.3023 41.3796 22.4445 41.461 22.6402C41.4462 23.0603 41.3268 23.1751 41.0872 23.5074L40.8599 23.1269C40.8373 22.6768 40.9432 22.5623 41.1751 22.1904Z"
        fill="#DCCEBD"
    />
<path
        d="M153.353 9.32776L153.771 9.55518C153.908 9.98198 153.778 10.0291 153.575 10.5597L153.563 10.567L153.428 10.5066C153.292 10.0206 153.188 9.80248 153.353 9.32776Z"
        fill="#DCCEBD"
    />
<path
        d="M35.7801 66.1815C35.9414 66.2359 36.0312 66.2962 36.1793 66.3779C36.3483 66.7253 36.2123 67.0317 36.1067 67.4038L35.815 67.2797C35.5764 66.8455 35.6937 66.7905 35.7801 66.1815Z"
        fill="#DCCEBD"
    />
<path
        d="M63.9683 16.3043C64.1205 16.3247 64.3263 16.3817 64.4809 16.4186C64.7508 16.8741 64.6516 17.0675 64.6469 17.665C64.0471 17.3675 64.5788 17.27 63.9683 16.3043Z"
        fill="#DCCEBD"
    />
<path
        d="M40.019 41.2416L40.3088 41.3631C40.5257 41.7147 40.4864 42.165 40.5022 42.599L40.2148 42.5247C39.959 42.2014 40.0185 41.6738 40.019 41.2416Z"
        fill="#DCCEBD"
    />
<path
        d="M86.8286 18.4091C87.3081 18.7727 87.3512 19.3495 87.1121 19.8627C86.5914 19.4867 86.8081 19.0472 86.8286 18.4091Z"
        fill="#DCCEBD"
    />
<path
        d="M20.4418 55.3433C20.7926 55.6743 20.7818 56.3344 20.6087 56.7525L20.2862 56.5714C20.1259 56.2017 20.3239 55.7477 20.4418 55.3433Z"
        fill="#DCCEBD"
    />
<path
        d="M135.74 43.9258C136.258 43.6779 136.718 44.0837 137.022 44.4692C136.636 44.4667 136.189 44.2858 135.816 44.1602L135.74 43.9258Z"
        fill="#DCCEBD"
    />
<path
        d="M13.3806 17.8611C13.8443 17.8302 14.1552 17.7786 14.5985 17.922L14.6184 18.1383C14.1542 18.2297 13.8305 18.3786 13.4759 18.1861L13.3806 17.8611Z"
        fill="#DCCEBD"
    />
<path
        d="M11.4643 96.1793L11.8155 96.2405C11.8418 96.7361 11.8664 96.8642 11.7089 97.341L11.5499 97.3874C11.3254 96.9447 11.403 96.6747 11.4643 96.1793Z"
        fill="#DCCEBD"
    />
<path
        d="M170.912 63.6595C171.348 63.9602 171.538 63.9743 171.693 64.382C171.339 64.4312 171.1 64.2739 170.8 64.0495C170.751 64.0126 170.703 63.9748 170.655 63.9362L170.912 63.6595Z"
        fill="#DCCEBD"
    />
<path
        d="M36.2114 5.14355C36.4858 5.16888 36.5487 5.20434 36.8095 5.3037L36.8843 5.54242L36.6757 5.87298C36.4426 5.84427 36.1932 5.79881 35.9595 5.76128L35.8816 5.59866L36.2114 5.14355Z"
        fill="#DCCEBD"
    />
<path
        d="M33.6556 72.0822L33.9555 72.3488C34.0764 72.8653 34.0253 72.751 33.8679 73.3188L33.5726 72.9886C33.465 72.4422 33.4774 72.6329 33.6556 72.0822Z"
        fill="#DCCEBD"
    />
<path
        d="M142.597 8.34106L142.962 8.44172L143.065 8.73344C142.644 8.76331 142.183 8.77266 141.758 8.78994L141.853 8.37457C142.209 8.47277 142.251 8.46978 142.597 8.34106Z"
        fill="#DCCEBD"
    />
<path
        d="M133.626 3.84485L133.958 4.12825C134.117 4.53024 134.002 4.73065 133.863 5.13355L133.673 4.99431C133.463 4.6548 133.573 4.24982 133.626 3.84485Z"
        fill="#DCCEBD"
    />
<path
        d="M50.9504 26.571C51.5509 26.538 51.5573 26.4413 52.0005 26.6918L52.0477 27.0146C51.455 27.0394 51.1833 27.1468 50.9504 26.571Z"
        fill="#DCCEBD"
    />
<path
        d="M65.1819 83.9921C65.476 84.5643 65.5669 84.8349 65.2836 85.4369C64.8115 84.9692 65.0237 84.5759 65.1819 83.9921Z"
        fill="#DCCEBD"
    />
<path
        d="M65.6675 7.63177C66.1626 7.61502 66.8042 7.54813 67.2493 7.71944C67.1162 8.00466 67.1578 7.91401 66.7811 8.07922L65.7971 7.76295L65.6675 7.63177Z"
        fill="#DCCEBD"
    />
<path
        d="M145.967 0.0905391C146.573 0.00998581 146.981 -0.159797 147.333 0.375866C146.815 0.432728 146.593 0.479682 146.087 0.365502L145.967 0.0905391Z"
        fill="#DCCEBD"
    />
<path
        d="M127.845 40.5206C128.116 41.1086 128.147 41.3833 127.893 41.9691C127.436 41.3734 127.57 41.1494 127.845 40.5206Z"
        fill="#DCCEBD"
    />
<path
        d="M42.6535 81.5687L42.9347 81.7113L42.9374 81.9173L42.3499 82.3031L41.9404 82.0266L41.9842 81.8621L42.6535 81.5687Z"
        fill="#DCCEBD"
    />
<path
        d="M68.7495 77.9357L69.1267 78.1847L69.1554 78.3997L68.747 78.7454C68.4998 78.6457 68.4359 78.5942 68.2144 78.4421L68.2532 78.2431L68.7495 77.9357Z"
        fill="#DCCEBD"
    />
<path
        d="M44.2783 94.2328C44.854 94.2187 44.8777 94.1232 45.2849 94.3804L45.3009 94.6894C44.7137 94.7117 44.4799 94.826 44.2783 94.2328Z"
        fill="#DCCEBD"
    />
<path
        d="M21.1562 100.374C21.8323 100.281 22.2008 100.206 22.7828 100.561C22.0808 100.682 21.7611 100.739 21.1562 100.374Z"
        fill="#DCCEBD"
    />
<path
        d="M94.7104 56.6064C94.3411 56.5779 94.2559 56.6331 93.9932 56.4345C94.4235 56.232 94.9442 56.2801 95.426 56.2843L94.7104 56.6064Z"
        fill="#DCCEBD"
    />
<path
        d="M51.6286 44.6842C51.0571 44.683 51.0366 44.7767 50.6394 44.5106C50.9371 44.2335 50.9218 44.3072 51.3745 44.2113L51.6286 44.6842Z"
        fill="#DCCEBD"
    />
<path
        d="M43.1518 84.9592C43.4964 85.3119 43.4721 85.6451 43.4876 86.1165L43.0862 85.8316C42.9445 85.3761 42.9967 85.4863 43.1518 84.9592Z"
        fill="#DCCEBD"
    />
<path
        d="M31.6394 100.371C32.0133 100.315 32.3549 100.225 32.702 100.374L32.8037 100.651C32.3457 100.684 31.9105 100.793 31.6394 100.371Z"
        fill="#DCCEBD"
    />
<path
        d="M68.8371 15.7042L69.0406 15.8475C68.9737 16.2109 68.7715 16.2513 68.4039 16.5388L68.1953 16.4595C68.2712 16.096 68.5039 16.002 68.8371 15.7042Z"
        fill="#DCCEBD"
    />
<path
        d="M13.1266 100.718C12.7008 100.627 12.7582 100.707 12.5017 100.448C12.8393 100.196 13.1613 100.262 13.5799 100.286L13.1266 100.718Z"
        fill="#DCCEBD"
    />
<path
        d="M137.312 1.4209L137.536 1.57306C137.746 1.98473 137.671 1.91831 137.606 2.45538L137.389 2.45771C137.186 2.04418 137.279 1.95053 137.312 1.4209Z"
        fill="#DCCEBD"
    />
<path
        d="M35.8467 49.9109C36.1271 49.5827 36.1277 49.4544 36.4675 49.4067C36.4941 49.7827 36.338 49.9382 36.125 50.2431L35.8467 49.9109Z"
        fill="#DCCEBD"
    />
<path
        d="M79.87 57.3196C80.2675 57.4406 80.2365 57.3576 80.3818 57.6223L80.1832 57.9617L79.5451 57.6747L79.5112 57.5196L79.87 57.3196Z"
        fill="#DCCEBD"
    />
<path
        d="M169.956 58.3916C170.629 58.3338 170.804 58.2291 171.232 58.7731C170.686 58.8246 170.435 58.6445 169.956 58.3916Z"
        fill="#DCCEBD"
    />
<path
        d="M108.659 3.07007L108.899 3.22943C109.105 3.6574 109.036 3.55791 108.949 4.1051C108.575 3.88989 108.659 3.43309 108.659 3.07007Z"
        fill="#DCCEBD"
    />
<path
        d="M118.46 48.1626C118.782 48.2305 118.831 48.2622 119.115 48.4317L119.095 48.7347L119.019 48.7484C118.696 48.5347 118.667 48.4925 118.46 48.1626Z"
        fill="#DCCEBD"
    />
<path
        d="M52.1266 79.7769C51.9134 79.3384 51.9109 79.4915 52.0121 79.1325L52.3268 79.0157C52.273 79.2663 52.2269 79.5442 52.1266 79.7769Z"
        fill="#DCCEBD"
    />
</svg>
