<svg width="199" height="119" viewBox="0 0 199 119" fill="none" xmlns="http://www.w3.org/2000/svg">
<path d="M87.3767 74.2287C88.1326 74.055 89.2868 73.0885 89.8701 72.5386C90.541 71.9064 90.1805 71.095 90.6434 70.5572L91.0011 70.5371C91.436 70.9109 90.8783 71.0872 91.2069 71.7302C92.0988 71.9554 96.669 68.8643 97.8921 68.4609C101.248 67.3541 99.692 69.9005 99.9443 71.7226C99.9687 71.8998 100.547 72.0518 100.777 72.149L100.732 72.3442C100.322 72.4159 100.096 72.441 99.7052 72.6107C99.5031 73.1751 98.9683 75.1322 99.3582 75.5911C99.9725 75.452 100.857 74.143 101.485 73.755C104.899 71.6447 109.13 67.6244 113.447 68.2088C115.599 68.4999 116.214 70.9948 117.146 72.5527C117.016 73.4668 116.664 75.9918 117.075 76.7485L117.296 76.7758C117.926 76.2741 118.68 74.4885 118.93 74.3007C120.941 72.7962 126.711 69.6951 128.849 68.8032C129.36 68.5848 129.899 68.4425 130.45 68.3809C130.872 68.337 131.305 68.3299 131.647 68.6058C131.913 69.1653 131.768 69.9535 131.613 70.5357L131.219 70.6486C131.008 71.6691 131.792 71.3857 130.929 72.0916C130.836 72.6969 130.413 74.9832 130.523 75.4522C130.895 75.5087 131.008 75.4982 131.379 75.2247C132.245 74.5862 133.045 73.686 133.871 73.0256C134.422 72.5845 135.568 72.2068 136.202 71.7816C138.675 70.1242 141.181 67.9179 144.389 68.3132C145.31 68.4267 145.938 68.7324 146.733 69.1803C147.557 70.4824 148.211 71.7292 148.282 73.3033C148.519 78.4714 146.91 85.7553 144.156 90.0649C143.887 89.496 144.174 89.4542 143.941 88.9236C143.405 89.5562 143.283 90.0827 142.828 90.7834C142.294 91.6065 141.03 92.09 140.992 92.9906C141.391 92.9184 141.943 92.1621 142.206 91.8147C142.059 92.4705 141.482 92.8754 141.558 93.4003C139.165 95.5913 134.622 99.2621 131.529 100.22C130.61 100.504 127.826 100.376 126.722 100.325C126.087 100.296 125.454 100.254 124.821 100.199C123.896 103.869 123.329 107.542 122.33 111.203C121.927 112.68 121.74 114.105 121.092 115.539C123.861 115.86 126.599 115.847 129.368 116.061C129.579 116.077 129.715 116.188 129.855 116.334L129.768 116.562C128.327 117.134 128.724 117.609 127.392 118.456C126.245 118.282 125.179 118.331 124.027 118.32C119.707 118.278 115.266 118.434 110.953 118.174C110.643 117.309 111.651 116.608 112.251 116.087C112.869 115.981 115.231 115.826 115.427 115.33C118.026 108.743 119.102 101.669 120.837 94.8369C122.365 88.8212 124.203 82.6068 124.435 76.3707C124.544 73.4529 118.342 76.8979 117.061 77.1593C116.202 79.3646 116.514 80.1998 115.248 82.7986C116.201 83.2932 117.104 83.7694 118.087 84.2111L118.077 84.4571C117.096 84.9975 116.279 84.4248 115.397 83.9523C114.726 84.3791 113.272 90.0141 112.278 91.0759C110.525 92.9474 106.156 97.4575 103.608 97.7644C103.049 97.9717 103.199 97.8283 102.956 98.2626C102.993 98.6622 103.105 99.0669 102.951 99.3707C101.711 99.1844 100.35 99.9668 99.1082 100.19C97.9194 100.404 96.1951 100.38 94.9783 100.2C94.1362 100.076 94.5869 99.7745 93.9026 99.5908C93.3941 100.58 89.6415 114.693 90.0991 115.341C90.5735 116.013 97.525 115.484 98.4251 116.355C97.9826 116.641 97.158 117.108 96.9007 117.539C96.6949 118.027 95.902 118.224 95.4461 118.253C92.3958 118.446 89.3341 118.226 86.285 118.099C85.3288 118.059 80.1908 118.212 79.7646 117.861C79.9746 115.332 82.1716 115.976 83.864 115.527C84.7167 115.301 84.8541 113.566 85.0564 112.73L86.3751 107.425C87.0404 104.818 88.0262 101.725 88.5862 99.0287C88.6474 98.7337 88.2635 98.0149 88.1154 97.6994L88.303 97.4632C88.6808 97.3801 88.7727 97.3864 89.072 97.1606C90.1639 93.5157 91.0677 88.0743 91.5073 84.2133C91.5524 83.8168 91.3162 83.6256 91.0815 83.316L91.4295 83.285C92.7372 82.4196 93.2228 77.6642 93.4242 76.0589C93.0437 75.7515 92.3714 75.1921 91.9737 74.9482C91.1135 74.421 90.1207 75.3939 89.3951 75.7216C89.0029 75.8986 88.4177 76.0703 87.9773 76.201C87.3324 75.7164 87.7515 75.2121 87.3767 74.2287ZM129.473 95.9418C131.366 96.4191 133.387 96.7151 135.131 95.5337C138.654 93.1472 140.958 87.8441 141.97 83.9044C143.031 79.7739 142.651 77.8964 142.081 74.0087C141.278 73.7188 140.926 73.565 140.048 73.5725C139.018 73.9708 137.9 73.97 136.922 74.3691C135.443 74.9737 130.034 78.4724 129.453 79.8141C129.041 80.7663 126.405 94.3463 126.576 94.8537C126.643 95.0527 127.524 95.3348 127.76 95.4154C128.299 95.5992 128.912 95.8574 129.473 95.9418ZM98.2986 95.9545C98.5731 96.3953 98.9521 96.4577 99.4499 96.3136L99.6677 96.0537C100.037 95.973 101.05 96.0419 101.506 96.007C102.163 95.9569 102.744 95.859 103.393 95.7523C106.952 92.8561 108.676 89.8669 109.8 85.5268C110.22 83.9076 110.952 82.1544 111.085 80.3257C111.178 78.7566 111.272 75.2854 110.207 74.0618C108.751 72.3906 106.292 74.3342 105.059 74.9072C102.832 75.9428 101.257 76.717 99.3306 78.3324C97.4648 79.8967 97.6958 82.3105 97.0478 84.4708C96.5714 86.5748 95.5026 89.6237 95.3581 91.7071C95.4609 91.8392 95.5184 91.9346 95.6083 92.0772C95.7552 92.3102 95.4545 92.5517 95.2853 92.8117C94.9962 93.2563 94.8208 93.7274 94.6336 94.2264C95.9706 94.5158 97.2239 95.1067 98.2986 95.9545Z" fill="#DCCEBD"/>
<path d="M101.852 81.2483C102.265 80.8263 102.136 80.5377 102.336 80.3198C103.515 79.0358 104.228 79.6433 104.422 81.1715C103.476 80.8786 102.81 81.0691 101.852 81.2483Z" fill="#DCCEBD"/>
<path d="M104.422 81.1712L104.332 81.4443C103.635 81.7366 102.323 82.0483 101.661 81.5832L101.709 81.3015L101.852 81.248C102.81 81.0688 103.476 80.8783 104.422 81.1712Z" fill="#DCCEBD"/>
<path d="M104.827 85.6066L104.285 85.3024C104.191 84.8483 103.991 84.5739 103.812 84.1243L103.936 83.9805C104.539 84.1377 104.371 84.7174 105.16 85.3L104.827 85.6066Z" fill="#DCCEBD"/>
<path d="M105.16 85.2998C105.585 85.6937 105.776 85.7481 106.324 85.9239L106.443 86.1034L106.3 86.4025C105.749 86.3692 105.316 85.9611 104.828 85.6064L105.16 85.2998Z" fill="#DCCEBD"/>
<path d="M107.665 84.8286L108.063 85.0245C108.201 85.4547 107.948 85.9256 107.778 86.3816L107.428 86.3167C107.288 85.8833 107.529 85.2953 107.665 84.8286Z" fill="#DCCEBD"/>
<path d="M98.2986 95.9544C98.4363 95.474 98.5028 94.933 98.8286 94.6343C99.4017 95.0186 99.2313 95.7042 99.6676 96.0537L99.4499 96.3135C98.9521 96.4577 98.573 96.3953 98.2986 95.9544Z" fill="#DCCEBD"/>
<path d="M45.7464 42.5969C47.2147 38.4957 47.5057 34.9363 48.3222 30.7206C48.7009 28.7651 49.5654 26.4988 49.947 24.4903C50.1198 24.0792 49.8945 22.02 50.0495 21.7609C51.5948 19.0589 51.8326 16.4635 52.6224 13.4348C54.0357 8.01554 58.1957 4.68187 62.7389 1.87017C64.4662 0.801205 68.7617 0.489791 70.7013 1.07896C71.654 1.97691 69.4873 4.12588 68.8091 4.83714C68.2488 4.45509 68.3999 4.42902 67.8442 4.47033C67.6128 4.95638 67.6982 4.88957 67.8334 5.53217C66.3429 5.1655 62.4375 4.66264 61.2431 5.65952C59.1402 7.41467 57.8971 13.4562 57.2941 16.0615C56.5377 19.3297 56.0482 22.017 55.074 25.1973C54.5845 27.0196 54.7834 28.5252 53.6195 30.1133C53.4505 30.3441 53.0983 33.5157 52.8871 33.9997C52.4091 36.7753 50.1366 44.6599 51.3764 47.11C53.0187 48.4235 56.1319 45.2631 57.5881 45.0437C58.1069 44.9871 58.2523 44.9611 58.34 44.4746C59.0163 43.6636 60.6251 43.2935 61.2506 41.457C61.5382 40.6126 63.0407 35.5256 62.8407 35.0343L62.9267 34.7582C63.6323 33.3508 65.5079 30.8268 64.5071 29.4446C64.5927 28.7137 64.6895 28.5984 65.1345 27.9986C65.4759 28.254 65.5647 28.3527 66.0048 28.3521C66.4967 28.1734 66.5776 27.9261 66.9217 27.544C67.7822 26.5884 69.0294 25.9862 70.0756 25.2655C73.4007 22.9747 75.2645 21.2882 79.4791 21.1347C81.8976 21.0572 84.3497 21.4502 86.7306 21.8414C87.8806 22.0303 88.6249 21.6814 89.5674 22.541C89.7297 23.7156 88.0641 24.1353 87.4433 25.9756C86.1511 29.8049 85.6009 33.3556 84.9417 37.282C84.6505 39.0161 82.7291 44.6955 83.5274 46.5203C84.7656 47.8672 89.6346 44.0602 90.6665 43.1018C91.5313 40.6896 91.6687 38.0311 92.5119 35.8471C92.9339 34.7538 94.6894 30.6563 95.3216 29.8563C97.7143 26.8279 101.907 23.9893 105.361 22.2254C106.423 21.6832 108.21 21.4268 109.326 21.8899C111.045 22.6028 111.541 24.2381 112.231 25.8299C112.235 26.1041 112.226 26.8355 112.289 27.057C111.926 29.4842 109.626 29.4926 107.603 29.9939C107.446 29.209 107.327 28.6399 107.263 27.8363C105.289 25.7815 105.09 25.1663 102.087 26.1762C101.336 27.0563 100.148 28.4513 99.6637 29.4818C97.5499 33.9816 94.5784 43.8612 97.8488 48.2348C98.6551 48.5895 99.66 49.0892 100.507 49.1767C104.91 49.6309 108.639 46.1686 112.028 43.8874C112.33 43.6843 112.73 43.6452 113.052 43.8072C113.308 44.4383 112.941 45.438 112.733 46.0599C110.459 47.0773 109.835 48.3692 107.393 49.3069C107.188 48.8833 107.285 48.9067 106.955 48.7584C106.373 49.2164 106.231 49.2437 105.49 49.2484C105.727 49.6576 105.855 49.5406 106.167 50.0878C104.501 51.1365 103.455 51.7948 102.054 53.173C101.648 53.2596 101.014 53.5261 100.669 53.7637C98.9732 53.1227 98.1207 53.9031 96.3907 53.83C94.8541 53.7652 93.4723 53.0229 92.1197 52.3539C91.524 50.9851 91.4304 51.2925 90.824 50.559C90.3602 49.9982 90.6198 46.151 90.6991 45.3935C89.5105 46.7846 86.946 48.4319 85.3145 49.2949C85.138 49.1563 85.0698 49.1067 84.9123 48.9402C84.4397 49.0784 84.009 49.1328 83.763 49.5426L83.7478 49.8721C83.9138 49.9896 84.0994 50.0493 84.2893 50.1245C84.0254 50.3281 83.7579 50.527 83.4868 50.721C81.1377 52.4066 79.5574 53.5445 76.6131 53.0555C76.6286 51.3565 77.5876 46.6135 77.0853 45.5124L76.8752 45.4794L76.4796 46.0078C75.8838 45.5528 76.4583 45.4042 75.4641 45.3417C74.8634 45.796 74.9315 46.3983 75.055 47.1078C73.9682 48.1446 72.8526 48.6581 71.5494 49.605C69.2998 51.2398 64.7431 54.9085 61.9309 52.6808C61.2678 52.1556 60.8504 48.5195 60.7445 47.5681C60.6544 46.9162 60.9169 45.8326 60.68 45.1783C59.7004 45.1069 57.0063 47.851 56.221 48.4902C55.7255 48.5953 55.7423 48.5145 55.4165 48.8184C55.8512 49.1103 55.8736 49.0076 56.499 49.0088L56.9802 49.443L56.7751 49.9429L56.458 50.0688L56.282 49.9942L56.1333 49.7993C55.6404 49.7067 55.1692 49.5345 54.7357 49.2809C54.3924 49.301 54.2371 49.4812 53.9593 49.7014C53.4683 50.1321 53.0431 50.518 52.5029 50.8918C51.8284 50.5381 51.2288 50.7362 50.7707 51.3318L50.7953 51.6231L51.3108 51.8429C49.6131 53.3767 47.2826 53.6189 45.3422 52.3855C44.0759 48.135 45.1475 47.8278 45.6374 43.7179C45.1422 43.6365 44.8543 43.6227 44.4324 43.3478L44.3838 43.117C44.7521 42.759 45.2367 42.711 45.7464 42.5969ZM68.5637 48.0147C70.3077 47.4449 77.4467 43.3971 77.9728 42.0246C79.7071 37.4994 80.9178 31.5841 81.2408 26.7309C81.2405 26.7363 81.8356 26.5035 82.0242 26.1736C81.5702 25.3568 79.4672 25.3219 78.635 25.223C76.3355 24.95 74.691 25.0867 72.5244 25.8776C72.0011 25.896 71.5606 25.8666 71.0975 26.1081C70.7597 26.9215 71.4428 26.6652 70.9143 27.2872L70.7118 27.2792L70.5155 26.8712C70.2527 27.1856 69.787 28.4731 70.1476 28.798L70.3274 28.4014C70.5691 28.4956 70.4791 28.4164 70.6008 28.6519C68.7386 32.9065 66.8582 37.4339 66.6929 42.1344C66.6103 44.4847 66.1957 46.7148 68.5637 48.0147Z" fill="#DCCEBD"/>
<path d="M70.6008 28.6517C70.4791 28.4162 70.5691 28.4954 70.3275 28.4013L70.1477 28.7979C69.7871 28.4729 70.2527 27.1854 70.5155 26.871L70.7118 27.279L70.9143 27.287C71.4428 26.6651 70.7597 26.9213 71.0976 26.1079C71.5606 25.8665 72.0011 25.8958 72.5245 25.8774C71.9993 26.6169 71.1183 28.0138 70.6008 28.6517Z" fill="#DCCEBD"/>
<path d="M27.1229 8.11201C28.5243 7.96956 30.8707 8.56743 31.3166 7.34619C31.9218 8.018 31.3946 8.0113 32.6825 8.06287C35.409 8.17213 37.9525 8.89094 40.5736 9.5938C41.0013 9.32542 41.377 9.0257 41.8726 9.0022C42.2787 9.75976 40.9555 10.23 42.1877 11.2556C42.1871 11.8051 42.6236 12.1606 43.0179 12.4796L43.8004 16.6248C42.9641 18.6312 42.4366 19.7166 41.2546 21.5326L40.9498 21.0176C40.6322 21.0504 38.3624 23.4004 38.0299 23.8099C37.9735 23.8793 37.9181 23.9497 37.8636 24.0208L38.4259 23.5379C37.8106 24.3057 37.0007 24.6887 36.664 25.3581L36.5514 25.4296C35.6767 25.9785 33.4898 26.8436 33.2039 27.5737C33.6313 28.1436 34.2346 27.5795 34.6713 27.7647C38.3249 29.3152 41.7603 29.8751 41.8834 34.6657L43.8186 33.3119C43.3613 34.503 42.8552 35.6705 42.4079 36.8611C41.7125 38.7117 41.3682 40.7351 40.2737 42.4152C39.069 44.2229 37.3178 45.7356 36.143 47.5777C34.5047 48.0601 33.2439 48.6183 31.6839 49.3028C31.487 49.1458 31.4293 49.1067 31.2658 48.9023C30.7436 48.8778 30.0877 48.9234 29.7109 49.3216L29.7646 49.4773C30.2982 49.6365 30.4884 49.6086 31.04 49.5832C29.6245 50.234 26.7655 51.6478 25.3203 51.943C20.0554 52.9866 14.5426 52.4561 9.19859 52.4987C7.92414 52.5088 2.23164 52.7326 1.69252 52.0747C3.6199 50.2402 3.95714 48.6881 6.66257 48.4707C9.41029 48.2499 13.5462 45.9285 13.9348 42.88C12.9387 42.5477 13.1886 41.2428 12.9916 40.3451C12.7504 39.2451 12.1119 39.5194 11.4639 39.0488C11.9008 38.7801 12.2354 38.7885 12.7458 38.7406C13.1418 36.1133 12.6355 33.844 12.4861 31.232C12.452 30.6365 12.9447 29.8304 12.9668 29.2469C13.0062 28.2146 12.715 27.0863 13.1545 26.115L13.3498 26.0912L13.1333 26.1586L13.3968 26.1761C13.9435 27.6073 13.3196 29.7498 13.3692 31.2318C13.4908 34.8571 12.9586 39.5569 14.0803 42.9222C15.278 39.5918 15.6676 37.4533 16.4156 34.1064C17.2606 30.3254 19.8424 25.4937 19.0123 21.4773C19.2613 21.2253 19.8643 20.589 19.9641 20.288C20.4384 18.8583 22.764 11.4002 22.1178 10.5472C21.3274 10.4522 21.404 10.8542 20.8204 10.9002C16.9515 11.2052 12.0532 13.0668 9.23883 15.7541C6.35252 18.7341 6.30576 23.1877 6.62853 27.0291C6.93104 30.629 7.45062 30.2541 4.22832 31.5725L4.15412 31.5603C3.8565 31.5099 3.81134 31.4978 3.53526 31.385C2.7102 31.5468 2.7354 31.8049 2.39048 32.5651C2.16158 32.5213 2.12925 32.5474 1.89644 32.5774C1.51381 33.08 1.57259 33.6319 1.54496 34.3025L1.36042 34.4706L1.19142 34.3141C1.00117 31.5844 -0.0307913 30.3875 0.000705974 27.7778C0.0177765 26.363 0.47915 24.9705 0.755504 23.6789C1.71145 19.211 4.43647 15.6462 8.21328 13.1655C8.81043 12.7733 9.85729 12.0086 10.4898 11.5764C10.5909 11.2914 10.6781 11.0455 10.7513 10.839L11.0155 10.7217C11.1904 10.8035 11.6734 11.04 11.8501 10.9954C15.4106 10.0955 19.3566 8.19919 23.0773 8.6086C23.4798 8.68211 23.6766 8.47128 23.9609 8.22384L24.2925 8.15261C25.191 8.23538 26.3471 8.46615 27.1229 8.11201ZM31.9475 10.2995C30.4723 10.2858 29.5433 10.2703 28.0642 10.0786C27.8836 11.9099 27.5184 13.6917 27.3385 15.4842C27.2103 16.762 28.034 17.6824 27.4279 19.2278L27.2263 19.3281C26.9115 18.8085 26.8222 18.1845 26.5096 18.0958C26.1838 18.8828 26.0098 20.0559 25.7459 20.9182C25.0137 23.3108 24.4315 25.8959 23.5828 28.2381C25.7078 27.2633 25.9181 27.1009 28.1394 27.8317L27.7476 25.951C28.1481 25.4571 28.5977 24.787 29.3169 24.8553C30.1849 25.7614 29.3722 26.9533 29.9903 26.8896C30.9563 26.7529 31.9214 25.7534 32.5357 25.0065C33.2967 24.0812 32.8609 24.538 33.7492 24.1216C35.5073 23.2977 36.5995 19.423 36.8654 17.8301C36.1367 17.7264 34.5667 17.3862 33.9768 17.8586C34.0295 18.3795 34.4858 18.6696 34.8997 18.9592C34.5596 19.5434 33.3599 19.5025 32.7698 19.3444L32.6009 19.1623C33.349 16.8373 34.9335 16.7735 37.1835 16.7741L37.1554 16.7153C36.5695 15.4627 36.7711 13.6725 36.1259 13.135C35.3279 13.3726 36.1357 13.8752 34.4316 13.6572L34.1944 13.4608C34.4068 12.7998 35.1061 11.8911 35.0664 11.4941C34.5037 11.0222 32.9003 10.2925 32.165 10.3162L31.9475 10.2995ZM14.0904 47.0336L13.0066 48.6264C20.7648 48.4852 29.8145 52.1002 34.0764 43.2606C35.5403 40.2244 35.6932 38.6469 35.5626 35.3024C34.9014 34.4006 34.5104 33.5833 33.7006 32.7514C31.2377 30.2206 26.8392 30.0243 23.5327 29.989C22.8083 32.1972 22.399 34.5421 21.5545 36.7423C21.1341 37.8382 20.3249 39.7264 20.2692 40.8431C18.6922 41.9263 18.2738 43.4504 16.9022 44.4256L16.686 44.1646C15.87 44.3225 15.6654 44.4037 15.167 45.1835C14.8274 45.7151 14.2297 46.487 14.0904 47.0336Z" fill="#DCCEBD"/>
<path d="M25.5938 45.359L25.7866 45.0581C26.3927 45.5235 26.4602 45.6632 26.5438 46.4482L26.4646 46.5469C25.9275 46.0738 26.1967 45.8242 25.5938 45.359Z" fill="#DCCEBD"/>
<path d="M25.5938 45.3588C25.1502 45.1164 24.8181 45.055 24.646 44.6834C25.0656 44.6167 25.3861 44.8525 25.7866 45.0579L25.5938 45.3588Z" fill="#DCCEBD"/>
<path d="M29.3957 16.8044C30.0205 16.8188 30.5716 16.6967 30.8762 17.2807C30.8393 17.6782 29.9683 18.6856 29.6062 18.8422C29.1624 18.8877 28.845 19.3848 28.4832 19.335C29.321 18.4792 29.3846 17.9008 29.3957 16.8044Z" fill="#DCCEBD"/>
<path d="M29.9338 12.2617L30.1915 12.3701C30.284 13.2009 30.3451 13.5102 30.1622 14.3471C29.8479 14.6855 30.0088 14.5834 29.4741 14.6801L28.9066 14.4126C28.3821 13.6521 29.3694 12.7282 29.9338 12.2617Z" fill="#DCCEBD"/>
<path d="M31.1063 19.4106C31.4454 19.5101 32.1953 20.1198 32.5074 20.3681L32.4455 20.648C31.7795 20.739 31.3897 20.7518 30.907 20.1964C30.8447 19.6624 30.7953 19.8726 31.1063 19.4106Z" fill="#DCCEBD"/>
<path d="M27.6441 19.9336C27.9783 19.9154 28.0235 19.9128 28.3245 20.0558C28.6599 20.4612 28.6774 21.1526 28.7451 21.6979C27.9991 21.3902 27.6238 20.7232 27.6441 19.9336Z" fill="#DCCEBD"/>
<path d="M14.0903 47.0335C14.2296 46.4869 14.8273 45.715 15.1669 45.1834C15.6653 44.4036 15.8699 44.3224 16.6859 44.1646L16.9021 44.4255C16.1858 45.064 14.6815 46.6012 14.0903 47.0335Z" fill="#DCCEBD"/>
<path d="M31.9475 10.2998L32.1649 10.3165C32.2785 10.7557 32.4515 11.178 32.2563 11.5763L32.0559 11.5458C31.8085 11.0893 31.8865 10.8188 31.9475 10.2998Z" fill="#DCCEBD"/>
<path d="M40.4334 55.8633C40.5627 55.9409 40.7462 56.0206 40.8862 56.0874C45.6475 54.5275 51.0707 55.5298 56.0001 55.1882C56.6009 55.1466 57.4748 55.3358 58.085 55.4337C59.1307 55.4763 60.9774 55.9854 61.9785 56.3522C63.8432 57.3798 65.6494 58.4128 66.2508 60.641C66.6828 62.2415 66.6033 65.1795 65.9892 66.6895C65.7813 67.8126 65.9037 68.1477 65.0965 68.9857L65.146 69.1161L65.4748 69.2626L65.48 69.4289C65.1868 69.7354 63.6932 71.6635 63.5947 71.9957L63.6489 72.2641C64.2845 72.4878 64.4518 72.3966 64.6762 72.819L64.6204 73.2614C64.0299 73.1479 63.8462 73.0908 63.2599 73.2006C62.9536 72.7024 63.082 72.7288 62.6457 72.617C61.6122 73.4244 62.3732 74.512 62.023 75.4969C60.8849 76.0089 60.6239 74.9855 60.2048 75.3664C58.6936 76.7395 57.2693 77.6048 55.2243 78.1824C55.0869 78.3645 54.9483 78.5405 54.8237 78.7317C54.4177 78.6286 54.0094 78.5353 53.599 78.4517L53.5274 78.1638L53.8965 77.7438L53.8678 77.8532L53.8667 77.7514C53.3649 77.9828 52.8048 78.2034 52.4004 78.5717C52.3583 79.0757 52.4622 79.6366 52.2797 79.9718C51.9325 80.2802 51.9046 80.3775 51.7268 80.7934L51.5368 80.8857C51.5297 80.5325 51.5831 80.489 51.7633 80.1674C51.7144 80.044 51.659 79.8212 51.5696 79.7896C51.0653 79.6109 49.1804 80.1551 48.6319 80.3159L48.622 80.4896L49.3362 80.9812L49.3005 81.1246C48.485 81.2419 48.4587 80.8051 48.2239 80.8128C46.901 80.8557 45.359 80.9188 44.0488 80.9471C43.382 82.3412 43.4018 83.6244 43.0282 85.0184C42.112 88.4391 41.4336 92.6071 40.5001 95.9495C42.4196 95.8728 44.4469 95.8409 46.3364 95.6639C47.8347 95.5236 47.8474 94.5044 49.5767 95.27C50.1485 95.5233 52.0982 95.2406 52.8319 95.5925L52.8119 95.7639L52.7373 95.8163C51.3823 95.9637 50.6251 96.0067 49.264 95.9869C49.24 96.4408 49.1469 96.8739 49.3905 97.2179L49.5935 97.3294C45.9379 98.5814 41.3665 99.1527 37.4991 98.8757C37.3228 99.4921 37.3836 99.6534 36.9873 100.043C36.5976 99.7497 36.4432 99.0568 36.2742 98.5531C35.9408 98.9145 35.4837 99.4504 35.0948 99.7151C34.4862 99.6394 34.2478 99.0334 34.0974 99.0175C33.2174 98.9243 31.6972 98.8289 30.8587 98.866L29.9439 98.888C29.0607 98.9833 20.8346 99.05 20.4465 98.7514L20.5169 98.4997L20.8889 98.3195C21.3053 98.346 21.1696 98.3923 21.5096 98.2136C21.5536 97.8056 21.5731 97.6821 21.6818 97.2907L21.7081 97.1979C21.785 97.0696 21.866 96.9432 21.966 96.8313C23.3622 95.267 31.732 96.0079 34.1008 95.8401C35.0607 93.5174 38.6874 80.3887 38.2873 78.4519C38.1318 77.6989 38.7275 77.4487 39.0535 76.8623C39.5989 75.8821 40.004 73.5395 40.4689 72.2751C40.8423 71.5672 40.9971 71.7145 40.6531 70.9631C40.6303 70.803 40.5718 70.6193 40.6273 70.4964C41.2218 69.1794 43.3377 59.8316 43.2916 58.8792C41.9444 56.8306 36.0346 59.7842 34.5112 60.8413C31.4365 62.9748 28.8772 67.8472 28.858 71.6164C29.3569 71.8726 30.5912 72.4714 31.0088 72.7435C30.1131 73.3886 30.1705 72.6359 29.3526 73.0885L29.3961 73.2996C29.2058 74.6613 30.0612 76.9793 30.4867 78.379L30.3056 78.5668C28.6609 77.9742 25.7671 80.4007 24.4887 80.886C23.6139 80.35 22.8672 76.2277 22.8748 75.0877C22.8884 73.0543 23.443 70.7906 23.9317 68.8166C24.0309 68.4158 23.1544 68.4243 22.8744 67.9123C23.2415 67.2271 23.8538 67.5881 23.981 67.4222C27.0145 63.4648 30.1624 59.949 34.7986 57.8548C35.3725 57.5955 38.717 56.3719 39.2658 56.3568C39.5883 56.3428 39.6238 56.0063 40.4334 55.8633ZM46.1738 71.7936C45.7327 72.1252 45.2662 72.8691 45.6415 73.3731L45.996 73.29C46.204 72.4776 45.9972 72.5617 46.5209 72.1738C46.8768 72.3422 47.1259 72.4157 47.3243 72.7618C47.2168 73.6702 46.0354 73.8047 45.5546 74.4422C45.1665 74.9566 45.3412 75.9199 45.1779 76.5409C44.9862 77.2703 44.6497 77.1769 44.7423 77.8467C45.3638 78.1068 47.7453 77.9343 48.5198 77.8739C49.1711 77.8232 49.1362 77.7193 49.4738 77.2776C49.9446 77.242 49.8291 77.2808 50.3072 77.6616C52.0802 77.8958 57.1216 74.3277 57.429 72.2631C57.4768 71.9422 57.1737 71.6689 56.9864 71.4196C57.545 70.5782 57.8594 71.4165 58.5152 71.2551C59.9117 67.6707 60.861 60.7201 56.7074 58.389C55.8913 57.9309 52.9038 57.3573 51.9883 57.6093C51.0636 58.8017 50.9208 56.9368 49.6046 57.4851C49.3671 57.8311 49.3429 58.0884 49.3089 58.4964C49.0524 61.5786 47.1459 64.301 47.125 67.465C47.1233 67.7357 47.494 68.441 47.6252 68.6911C47.5723 69.0126 46.4749 71.0259 46.1738 71.7936Z" fill="#DCCEBD"/>
<path d="M54.3185 62.1825C54.7909 62.0876 55.9618 61.9738 56.1735 62.4848C55.7981 62.8084 54.9483 62.7923 54.4138 62.8348C53.2462 62.7006 53.4415 63.2749 52.607 63.1751L52.5649 62.9722C52.9815 62.3747 53.4052 62.4957 54.3185 62.1825Z" fill="#DCCEBD"/>
<path d="M49.5222 75.7325C49.2633 75.2617 47.9886 73.7057 48.0018 73.753C48.9258 73.1357 49.7295 74.71 50.1647 75.3758C49.8878 75.6252 49.874 75.659 49.5222 75.7325Z" fill="#DCCEBD"/>
<path d="M52.147 70.4853C53.1576 70.1177 53.8977 70.3391 54.7498 69.9194C54.8419 70.387 54.0034 71.1999 53.6681 71.5101L53.3432 70.9632L53.124 70.782C52.6631 70.7504 52.5386 70.7627 52.147 70.4853Z" fill="#DCCEBD"/>
<path d="M55.7817 67.5205C57.0174 67.733 57.547 68.556 57.0424 69.7499C56.3505 68.0144 56.0264 68.7272 55.5227 67.8697L55.7817 67.5205Z" fill="#DCCEBD"/>
<path d="M52.2537 72.7554C52.3351 72.7874 52.4322 72.8729 52.5087 72.9304C52.4189 73.7196 52.4153 74.1574 52.4261 74.9357C52.1748 74.9793 52.1927 74.9754 51.9582 74.8708C51.7451 74.4151 52.1245 73.3015 52.2537 72.7554Z" fill="#DCCEBD"/>
<path d="M55.0148 72.3584C55.4291 72.4447 55.9717 72.5387 56.2044 72.8818L56.1125 73.1735C55.648 73.244 55.4475 73.3105 55.0069 73.1181C54.8204 72.7353 54.8561 72.905 55.0148 72.3584Z" fill="#DCCEBD"/>
<path d="M56.6719 62.6499C57.2666 62.8694 57.6051 63.7721 57.9272 64.377C57.72 64.3259 57.5123 64.2452 57.3104 64.1733C56.9871 63.6079 56.8839 63.2711 56.6719 62.6499Z" fill="#DCCEBD"/>
<path d="M50.4041 62.7969L50.9027 62.8399L51.1061 63.0834C51.094 63.5844 51.1136 63.7684 51.1845 64.2627L50.8619 64.2109C50.6714 63.7158 50.5509 63.3073 50.4041 62.7969Z" fill="#DCCEBD"/>
<path d="M50.1647 75.3755C50.4451 75.6781 50.8414 75.93 50.9399 76.302C50.3146 76.2353 50.1462 75.8594 49.5222 75.7322C49.874 75.6587 49.8878 75.6249 50.1647 75.3755Z" fill="#DCCEBD"/>
<path d="M52.1128 71.1133L53.007 71.423L52.8932 71.8207C52.411 71.7852 52.0159 71.7878 51.572 71.5938L51.6184 71.3889L52.1128 71.1133Z" fill="#DCCEBD"/>
<path d="M53.52 60.73C53.9784 60.835 54.9176 61.1847 55.3233 61.4163C54.5578 61.742 53.9136 61.4591 53.52 60.73Z" fill="#DCCEBD"/>
<path d="M52.113 71.1134L52.147 70.4854C52.5386 70.7628 52.6631 70.7505 53.1241 70.7821L53.3432 70.9633L53.0072 71.4231L52.113 71.1134Z" fill="#DCCEBD"/>
<path d="M49.5714 67.3232C49.5347 67.9673 48.9705 68.2221 48.4578 68.4099L48.4197 68.212C48.658 67.7727 49.1262 67.5768 49.5714 67.3232Z" fill="#DCCEBD"/>
<path d="M47.8091 66.333C48.4852 66.3192 48.6268 66.3074 49.2385 66.5743C48.5218 66.7907 48.3782 66.8543 47.8091 66.333Z" fill="#DCCEBD"/>
<path d="M53.3432 70.9634L53.6681 71.5103C53.3418 71.6843 53.2521 71.7397 52.8933 71.8209L53.0072 71.4232L53.3432 70.9634Z" fill="#DCCEBD"/>
<path d="M46.1738 71.7935L46.5209 72.1737C45.9971 72.5616 46.2039 72.4775 45.996 73.2899L45.6415 73.373C45.2661 72.869 45.7326 72.1251 46.1738 71.7935Z" fill="#DCCEBD"/>
<path d="M122.357 19.4567C123.546 16.2723 123.117 12.5234 126.076 9.89855C131.368 5.2029 134.074 1.4691 141.572 1.60878C141.677 2.18558 141.54 2.30638 141.651 2.75386C140.791 3.51356 140.908 4.31143 139.781 5.04236L139.916 5.43809L139.531 5.43851L139.455 5.58951C139.701 5.70504 139.944 5.63496 140.219 5.59507L140.315 5.90205C139.363 6.87315 137.883 5.72969 136.885 5.79692C130.196 6.24807 129.407 12.246 127.931 17.4202C128.079 17.9903 128.29 18.0504 127.986 18.5754C127.825 18.8538 127.335 19.4481 127.272 19.7316C126.325 24.0352 125.226 28.2968 124.221 32.5869C124.022 33.4366 123.782 34.2996 123.618 35.1505C126.104 33.141 128.465 30.9971 130.861 28.8878C133.878 26.2318 138.111 21.0698 142.207 20.1458C143.24 20.5427 145.509 21.3594 146.245 22.0509C146.501 22.7808 146.062 23.3188 145.687 23.9094C145.304 23.6153 145.475 23.667 145.044 23.6624C144.375 24.2291 144.075 24.6036 143.84 25.4529L143.896 25.7674L144.008 25.8335L144.211 25.331C144.403 25.476 144.422 25.4681 144.514 25.6983L143.877 26.5969L143.439 26.1901C142.557 26.2793 142.614 27.3321 142.588 28.0776L142.361 28.0705C141.936 27.2667 140.513 26.4352 139.751 26.0486C138.439 25.3838 134.426 28.3546 133.907 29.4209C134.053 29.735 134.226 29.8106 134.512 30.0068L134.386 30.2062C133.698 30.0785 133.908 29.3671 132.874 29.9736C132.623 30.1205 132.235 30.6023 131.905 30.8527C131.508 30.9071 131.402 31.0525 131.097 31.3179C130.898 31.5792 130.606 31.9417 130.428 32.204L130.136 31.8187L130.048 31.8818C129.51 31.7979 129.725 31.7681 129.234 31.988C129.035 32.3805 129.055 32.2078 129.16 32.6355L129.634 32.901C128.579 33.7334 128.876 34.6133 129.757 35.4867C130.979 36.6972 130.652 37.1586 131.076 38.6303C131.843 40.1326 132.579 41.3884 133.277 42.9531C136.107 49.2995 140.031 60.5451 147.745 62.1516C150.926 62.8138 154.385 59.335 156.023 56.9043L156.226 56.9311C156.553 57.5335 157.528 61.5635 157.299 61.8927C155.038 65.1462 146.303 64.0066 143.668 63.9217C143.091 63.6341 142.878 63.0342 142.412 62.854C141.39 62.442 140.069 62.1302 139.151 61.5001C137.518 60.3803 134.988 58.5347 133.812 56.915C132.769 55.1185 131.434 53.0226 130.544 51.1758C129.635 49.2908 128.681 47.0125 127.955 45.056C127.167 42.9313 124.753 39.2487 124.397 37.2213C123.916 37.6569 123.303 38.1333 123.115 38.7324C122.322 41.2632 121.417 44.7301 121.12 47.3348C121.483 48.1086 121.861 47.5459 121.945 48.1836C121.619 48.6598 120.922 48.4878 120.724 48.8764C119.966 50.3588 120.549 52.2081 118.348 52.6392C117.004 52.9027 116.769 52.4739 115.469 53.3631C115.119 53.9084 115.302 54.019 115.15 54.4725C114.837 53.8994 114.87 52.1876 114.864 51.4504C115.69 46.5928 117.183 41.994 118.39 37.2464C118.551 36.6147 119.766 30.2346 119.727 29.7552C119.513 29.6037 119.427 29.5655 119.292 29.3343C119.417 29.2777 119.55 29.2209 119.665 29.1453C120.889 28.3411 121.355 22.8937 121.771 21.2537C121.984 20.9939 122.252 19.8525 122.357 19.4567Z" fill="#DCCEBD"/>
<path d="M85.2616 90.6297C85.0617 91.4989 84.2455 92.2882 83.6173 92.9538C80.8712 95.8631 73.6349 100.252 69.6996 100.38C67.9532 100.437 66.4041 100.095 65.1018 98.8496C63.5156 97.3326 62.9078 95.2891 62.8633 93.1522C62.7468 87.5617 65.0781 77.9588 69.0013 73.8893C71.3913 71.4102 75.9225 68.3452 79.3316 67.6325C79.9476 67.5038 80.6145 67.5174 81.2422 67.5068C81.7475 67.9727 82.8976 68.6994 83.5611 69.2346C87.475 77.6947 77.3391 81.9169 71.9546 86.0115C71.6348 86.2548 71.3798 86.4114 71.0807 86.6943C71.1909 87.2402 71.6709 86.9745 72.0171 87.5758C71.7411 87.9322 71.8862 87.8302 71.475 87.9758C70.8277 87.5916 71.1606 87.3292 70.6916 86.982C68.011 88.2728 68.9867 88.6685 68.8432 90.7855L68.7506 91.0556C68.5595 92.3814 70.1077 94.3025 70.8776 95.3057C75.6054 96.9506 78.2477 93.8035 81.9257 91.6174C82.6077 91.212 82.885 90.964 83.3647 90.3267C83.87 90.453 84.6247 90.725 85.0753 90.5593L85.2616 90.6297ZM69.6057 81.978C70.1266 82.0825 70.6371 82.1149 70.9913 82.4907L71.0398 82.7518C70.4893 83.2716 69.7214 83.0458 69.0391 82.9484C68.9649 83.7233 68.6174 85.2061 69.6595 85.3341C70.3061 85.0829 70.5057 84.7884 70.8944 84.2183L71.1697 83.6736C73.3851 82.9828 76.1732 80.1274 77.4645 78.2197C76.8951 78.1698 76.2757 78.1858 75.8518 77.8214L75.8808 77.6142C76.6472 77.3026 77.0658 77.4863 77.8896 77.6745C78.3214 76.4327 79.4325 72.6065 77.5263 71.8273C77.3431 71.7523 76.1212 71.5807 75.9363 71.6169C74.24 72.088 73.1773 72.8147 72.3084 74.4182C71.1223 76.6071 70.1907 79.5445 69.6057 81.978Z" fill="#DCCEBD"/>
<path d="M70.9331 80.122C71.4196 80.0514 71.4984 80.0683 71.9635 80.1562C72.3754 80.5401 72.2592 80.3669 72.3701 80.9613C71.861 80.6881 71.4252 80.4259 70.9331 80.122Z" fill="#DCCEBD"/>
<path d="M152.533 100.237C152.081 99.3646 151.017 98.4811 150.512 97.5643C148.93 94.6956 149.894 88.2298 150.676 85.1896C151.787 80.8636 153.355 76.2968 156.705 73.2433C157.316 72.6855 158.412 71.9631 159.126 71.4709C160.047 70.8537 161.024 70.0928 161.985 69.5569C164.319 68.2005 169.041 67.0936 170.548 70.125C172.768 74.5929 168.457 80.1572 164.767 82.0571C161.56 81.7769 162.508 83.3788 161.354 83.7329C161.357 84.0956 161.371 84.184 161.455 84.537C160.608 85.3016 157.012 87.6545 156.011 88.0646C154.884 90.1243 155.245 93.0051 156.752 94.7829C157.443 95.599 158.432 96.1005 159.498 96.1731C162.363 96.3959 165.898 94.0244 167.998 92.3252C168.771 91.8031 169.609 91.4065 170.36 90.85C170.812 90.5149 171.122 89.7187 171.723 89.7687C172.697 92.0317 167.446 95.7412 165.912 96.718C161.023 99.8328 158.43 101.558 152.533 100.237ZM159.681 73.8034L159.295 73.0554C159.016 73.1622 158.554 73.9231 158.442 74.2026C158.819 74.1843 159.006 74.1083 159.29 74.269C158.378 76.0077 154.898 84.19 155.935 85.9006C156.466 85.8815 163.357 79.995 163.94 78.7924C165.674 75.2184 166.879 71.9105 161.842 71.8411C160.963 72.388 160.379 73.055 159.681 73.8034Z" fill="#DCCEBD"/>
<path d="M159.29 74.2692C159.006 74.1085 158.819 74.1846 158.442 74.2028C158.554 73.9233 159.016 73.1625 159.295 73.0557L159.681 73.8037C159.562 74.0132 159.505 74.1846 159.29 74.2692Z" fill="#DCCEBD"/>
<path d="M186.754 70.1238C186.632 70.1748 186.427 70.2265 186.407 70.3155C186.286 70.8597 185.866 72.6315 185.959 73.0931C188.292 72.9599 192.164 67.43 196.077 68.4834C196.651 68.6381 197.457 68.634 198.095 69.0793C198.253 69.6466 196.186 75.4529 195.851 76.5464C194.942 75.8408 194.637 75.7361 194.182 74.6727C191.788 74.1832 191.359 74.0905 188.985 74.7635C184.632 75.9974 185.05 79.2872 183.913 82.8986C182.301 88.0141 181.185 93.1365 179.973 98.3384C178.978 98.7679 177.896 99.1003 176.863 99.4382C176.105 98.8122 175.626 99.1551 174.81 99.4531L174.607 99.3175L174.567 98.447C174.741 97.5152 175.174 96.0897 175.448 94.9351C176.058 92.3628 176.452 90.9071 177.144 88.1183C178.101 84.2632 180.211 79.1498 180.153 75.1445C180.075 74.8112 179.747 74.5954 179.513 74.4419C177.76 73.2885 174.822 76.6568 173.363 75.7947C173.25 75.5535 173.17 74.6469 173.349 74.5006C176.031 72.3282 179.651 71.0715 182.714 69.4104C184.392 68.5008 186.174 67.5171 187.035 69.8204L186.754 70.1238Z" fill="#DCCEBD"/>
<path d="M186.808 110.73C186.047 111.059 183.49 110.942 182.545 110.937C179.991 110.916 177.437 110.909 174.884 110.915C161.01 110.936 147.136 110.834 133.264 110.61C132.118 110.597 123.521 110.679 123.273 110.511C123.599 110.3 124.131 110.148 124.51 110.148C128.346 110.156 132.219 110.173 136.05 110.208L150.739 110.211L186.426 110.285L186.808 110.73Z" fill="#DCCEBD"/>
<path d="M45.2603 109.866C47.7935 109.784 51.7326 109.892 54.3622 109.908L68.0046 109.929L78.1326 109.971C79.2684 109.968 84.2686 109.759 84.8669 110.254L84.8231 110.414C84.2157 110.573 77.5831 110.437 76.4631 110.434L51.1207 110.367C49.862 110.36 48.6553 110.364 47.3983 110.444C46.7862 110.482 45.8901 110.727 45.4025 110.484L45.2603 109.866Z" fill="#DCCEBD"/>
<path d="M186.895 9.45214C187.318 9.42109 187.972 9.49901 188.287 9.79887C188.414 10.0141 188.37 17.8533 188.368 18.6563L188.329 44.2627C188.327 45.0246 188.373 45.8565 188.464 46.6139C188.532 47.1854 188.838 47.6616 188.822 48.2289C188.519 48.5198 188.437 48.6239 188.033 48.7817C187.634 48.3421 187.884 42.0956 187.881 40.8794L187.939 17.2369C187.943 15.1683 188.04 12.2993 187.881 10.2009C187.865 10.0026 187.115 9.58405 186.895 9.45214Z" fill="#DCCEBD"/>
<path d="M185.81 52.2434C186.039 51.784 187.754 49.4945 188.13 49.2319C188.322 50.1745 187.561 50.4337 188.094 51.7988C187.733 51.6639 187.619 51.6115 187.239 51.5747L186.977 51.7341C187.123 52.3514 187.531 52.4397 188.086 52.6405C188.094 52.6653 188.103 52.6897 188.111 52.7147C188.124 52.7562 188.135 52.7985 188.148 52.84C188.418 53.6789 188.303 61.202 188.343 62.7523C188.37 63.7922 188.531 64.8457 188.528 65.8812C188.525 66.4597 188.117 68.6389 187.769 68.9821L187.573 68.8729C187.426 68.2942 187.637 67.8204 187.668 67.2376C187.82 64.279 187.692 61.1372 187.664 58.1638C185.105 56.3501 186.72 56.1443 187.757 54.2927C188.359 53.2182 186.603 52.5588 185.81 52.2434ZM187.48 57.4641C187.627 56.9328 187.845 56.2135 187.672 55.688L187.426 55.5178C187.111 56.1805 186.954 56.2483 186.993 56.9191C187.156 57.1148 187.293 57.2899 187.48 57.4641Z" fill="#DCCEBD"/>
<path d="M187.426 55.5176L187.672 55.6878C187.846 56.2133 187.627 56.9326 187.48 57.4639C187.293 57.2897 187.156 57.1146 186.993 56.9189C186.954 56.2481 187.111 56.1803 187.426 55.5176Z" fill="#DCCEBD"/>
<path d="M187.166 81.9312C187.315 82.0554 187.43 82.1887 187.615 82.2032C187.558 87.3503 187.456 92.876 187.513 97.9992C187.556 100.767 187.578 103.534 187.583 106.302C187.584 107.14 187.627 109.557 187.48 110.285C187.203 110.516 187.128 110.566 186.808 110.73L186.426 110.285C186.794 110.199 186.829 110.205 187.115 109.975C187.285 108.359 187.173 103.432 187.183 101.564L187.166 81.9312Z" fill="#DCCEBD"/>
<path d="M12.6383 55.4004C13.0143 55.5091 13.2889 55.5698 13.6303 55.7733C13.0964 56.4716 13.0498 59.6755 13.2899 60.5017C13.6464 60.5314 13.9069 60.1865 14.3522 59.924C14.7159 61.0084 13.4872 60.063 13.2771 62.1291C13.0525 64.3386 13.635 69.6432 12.8493 71.2945C12.317 70.708 12.7242 57.3922 12.6383 55.4004Z" fill="#DCCEBD"/>
<path d="M12.6663 77.3306C12.8516 76.4408 12.5918 75.4588 13.2151 74.8203C13.4634 75.3891 13.2595 75.9844 13.2382 76.6082C13.1971 77.9906 13.1647 79.3731 13.1409 80.7559C13.1139 82.311 13.2428 90.9476 13.0004 91.7958L12.8284 91.906C12.3999 91.3601 12.6047 78.8591 12.6663 77.3306Z" fill="#DCCEBD"/>
<path d="M174.661 19.1344C174.763 19.0381 174.879 18.928 175.009 18.8042C176.108 18.8399 176.839 18.8233 177.872 18.7104C180.719 20.6971 178.098 22.321 176.927 21.2243C176.037 20.3912 176.293 20.0506 174.661 19.1344Z" fill="#DCCEBD"/>
<path d="M169.533 57.3769C171.594 56.7629 171.452 59.1276 170.681 60.3103C169.304 60.3379 167.786 59.9269 168.484 57.9446C168.64 57.5007 169.069 57.5024 169.533 57.3769ZM170.199 60.0806C170.359 59.5239 170.128 58.4973 169.904 57.9773C169.7 57.8667 169.629 57.8142 169.398 57.7637C169.189 58.9603 168.841 59.6066 170.199 60.0806Z" fill="#DCCEBD"/>
<path d="M13.2941 14.0952C14.128 14.6052 13.1139 23.7761 13.7289 25.08C14.3847 25.362 14.6118 25.2244 15.2942 25.3555L15.3066 25.5941L15.024 25.8032C13.7215 25.2397 13.3335 26.2903 12.7415 25.3703C13.6358 22.4845 12.4929 16.9661 13.2941 14.0952Z" fill="#DCCEBD"/>
<path d="M49.6519 15.2482C50.0901 15.228 50.3924 15.1858 50.8114 15.3372C51.0698 15.9852 50.2219 18.2531 50.2045 19.0965C50.1993 19.3512 49.997 19.4005 49.7729 19.531C48.6075 18.2444 47.4528 18.1875 48.9897 16.3737C49.2157 16.1069 49.4936 15.567 49.6519 15.2482Z" fill="#DCCEBD"/>
<path d="M180.643 52.9741C181.1 53.1184 181.79 53.7921 182.17 54.1233C182.093 55.1925 182.115 56.6135 180.97 57.1035C180.147 57.0683 179.091 56.283 179.722 55.4522C180.911 55.4233 180.405 56.041 181.138 56.2962C181.326 55.8524 181.337 55.1961 181.374 54.6995C180.437 54.7512 179.759 55.0572 179.458 55.0626C179.458 54.6189 180.328 53.4511 180.643 52.9741Z" fill="#DCCEBD"/>
<path d="M90.1084 8.36673C91.0671 8.25077 102.419 8.32314 102.674 8.47713L102.594 8.59893C100.684 9.09936 92.7466 8.8032 90.3944 8.67058C90.2514 8.6626 90.2129 8.52514 90.1084 8.36673Z" fill="#DCCEBD"/>
<path d="M150.202 19.1567L150.441 19.1743C151.137 19.8332 150.144 21.7628 149.618 22.2989L149.499 22.1313C149.059 21.979 148.647 21.8776 148.31 21.5613C148.033 21.1501 148.202 20.4427 148.266 19.9153C148.895 19.624 149.551 19.3953 150.202 19.1567Z" fill="#DCCEBD"/>
<path d="M159.781 32.9966C160.666 32.9839 163.004 32.9449 162.815 34.517C162.784 34.7798 162.693 34.7672 162.473 34.9207L162.156 34.8518C161.364 34.6508 158.902 34.3021 158.689 33.4594C158.955 33.104 159.346 33.0827 159.781 32.9966Z" fill="#DCCEBD"/>
<path d="M53.8223 105.072C55.1426 104.89 55.1736 105.179 55.8671 106.202C55.8807 106.69 55.9836 107.763 55.5059 108.019C55.016 107.46 55.0138 106.727 54.1553 105.62C54.2541 106.015 54.2892 106.188 54.3348 106.596C53.5348 106.901 53.3805 107 53.1156 107.808L53.0826 107.911L52.8909 107.947C52.5996 107.532 52.5341 106.787 52.8444 106.503C53.3295 106.059 53.4555 105.47 53.8223 105.072Z" fill="#DCCEBD"/>
<path d="M175.37 41.8257C176.196 41.769 176.992 42.9403 176.185 43.8682C175.714 44.1767 175.413 44.1242 174.848 44.1172C174.36 43.945 173.817 43.7944 173.565 43.3525C173.539 42.318 174.45 41.9011 175.37 41.8257ZM176.071 43.4856C175.59 42.4992 174.914 42.7705 173.895 42.8472C174.432 43.6883 175.175 43.6891 176.071 43.4856Z" fill="#DCCEBD"/>
<path d="M166.094 53.7837C166.916 54.0273 168.484 55.2706 168.396 56.2136L167.742 56.5612C167.565 57.0759 167.56 57.2973 167.045 57.4102C166.008 56.8071 165.999 54.8348 166.094 53.7837Z" fill="#DCCEBD"/>
<path d="M174.661 19.1343C174.56 19.1214 174.353 19.0522 174.245 19.0204C173.935 18.2311 173.299 17.4524 173.95 16.7852C175.44 16.3622 175.989 18.1372 177.872 18.7104C176.839 18.8232 176.108 18.8399 175.009 18.8041C174.879 18.9279 174.763 19.038 174.661 19.1343Z" fill="#DCCEBD"/>
<path d="M163.23 28.7146C163.294 28.7102 163.526 28.7694 163.604 28.787C163.807 29.1182 163.785 28.9776 163.756 29.3334C163.174 30.0163 162.164 31.1545 161.356 31.5052L160.649 31.2953C160.247 30.8873 160.329 31.0799 160.275 30.5779C160.665 29.6746 162.312 29.1293 163.23 28.7146Z" fill="#DCCEBD"/>
<path d="M103.566 110.44C101.062 110.499 93.8394 110.689 91.8504 110.225L91.8328 110.128C95.7323 109.794 99.644 110.318 103.294 110.045C103.467 110.23 103.538 110.238 103.566 110.44Z" fill="#DCCEBD"/>
<path d="M103.293 110.045C105.243 110.17 114.832 109.814 115.737 110.346L115.651 110.489C114.735 110.625 111.62 110.49 110.493 110.464C108.235 110.413 105.791 110.516 103.566 110.44C103.538 110.238 103.466 110.229 103.293 110.045Z" fill="#DCCEBD"/>
<path d="M112.971 110.372C113.548 110.262 114.572 110.087 115.099 110.368C114.683 110.495 113.471 110.394 112.971 110.372Z" fill="#DCCEBD"/>
<path d="M162.095 22.4736C162.592 22.6367 163.465 23.0526 163.909 23.3051C164.112 23.6584 164.066 23.497 164.029 23.9571C163.688 24.2979 163.627 24.4352 163.405 24.843C161.179 25.1315 160.904 24.1849 162.095 22.4736Z" fill="#DCCEBD"/>
<path d="M64.5071 29.4444C64.4156 29.1025 64.3805 28.9903 64.2261 28.6727C63.9646 29.6314 62.3872 29.7735 61.9749 28.9472C62.115 27.2777 64.223 26.9702 65.1345 27.9984C64.6895 28.5982 64.5927 28.7135 64.5071 29.4444Z" fill="#DCCEBD"/>
<path d="M172.74 49.2192C173.336 49.3789 174.906 49.6483 175.184 50.3359C175.325 50.6862 175.461 51.2072 175.306 51.5698C174.826 51.8676 174.385 51.8778 173.851 51.7385C173.055 51.272 173.219 50.242 172.794 49.3309L172.74 49.2192Z" fill="#DCCEBD"/>
<path d="M144.244 52.3746C144.662 52.3494 145.205 52.2685 145.471 52.6048C145.28 52.9266 144.911 53.0058 144.507 53.1937C144.088 54.0792 144.898 54.1481 144.082 54.8869C143.225 54.43 142.206 53.9223 142.699 52.8145C143.084 52.4189 143.683 52.4326 144.244 52.3746Z" fill="#DCCEBD"/>
<path d="M123.611 46.9014L124.153 47.7655C124.107 48.5051 124.011 49.2448 124.211 49.9548L124.391 50.0966C124.916 49.8443 125.024 49.6486 125.316 49.1379L125.653 49.029C125.667 49.5594 125.282 50.5765 124.812 50.864C123.558 51.0387 122.747 49.3917 123.33 48.4579C123.719 47.8361 123.09 47.7307 123.611 46.9014Z" fill="#DCCEBD"/>
<path d="M146.095 38.7942C146.548 38.7717 146.946 38.6925 147.203 39.1003C146.994 39.7818 145.952 40.4922 145.347 40.7987C145.259 40.8126 144.895 40.945 144.788 40.9816C144.343 40.8938 144.5 40.9883 144.206 40.6108C144.125 39.5498 145.306 39.0783 146.095 38.7942Z" fill="#DCCEBD"/>
<path d="M36.6641 25.3581C37.0008 24.6887 37.8107 24.3057 38.426 23.5378L37.8637 24.0208C37.9181 23.9497 37.9736 23.8793 38.03 23.8099C38.3624 23.4004 40.6322 21.0503 40.9499 21.0176L41.2546 21.5325C40.3515 22.92 38.1835 24.6891 36.6641 25.3581Z" fill="#DCCEBD"/>
<path d="M131.598 34.6946C131.76 34.6698 132.336 34.5892 132.463 34.6291C133.318 34.8966 134.779 36.3445 134.609 37.2876C132.207 36.9009 133.17 36.2661 131.703 35.0876L131.603 35.0086L131.598 34.6946Z" fill="#DCCEBD"/>
<path d="M72.0041 8.51459C71.8902 8.54094 71.7752 8.56317 71.6596 8.58111C70.6253 8.74892 61.202 8.75918 60.7666 8.44493L60.8978 8.29878C62.189 8.06515 70.2887 8.26231 71.8623 8.37071L72.0041 8.51459Z" fill="#DCCEBD"/>
<path d="M34.7489 86.7437C35.1428 86.7495 35.2848 86.7257 35.6137 86.9498C35.7538 87.7695 34.1612 88.9589 33.5433 90.4638C33.1457 90.3755 32.8323 90.2994 32.5854 89.9837C32.7793 89.7568 33.7625 88.6487 33.835 88.5039C34.2167 87.7425 34.1818 87.5063 34.7489 86.7437Z" fill="#DCCEBD"/>
<path d="M141.558 93.4005C141.482 92.8756 142.059 92.4707 142.206 91.8149C141.943 92.1623 141.391 92.9186 140.992 92.9908C141.03 92.0903 142.294 91.6068 142.828 90.7837C143.283 90.083 143.405 89.5565 143.941 88.9238C144.174 89.4545 143.887 89.4962 144.156 90.0651C143.903 90.6181 142.024 93.2777 141.558 93.4005Z" fill="#DCCEBD"/>
<path d="M79.9581 61.5842C79.7246 60.9503 79.5478 61.0537 79.4861 60.3081L79.5579 60.2822C80.3969 60.9747 81.9534 62.2492 82.3107 63.2427L82.2842 63.6581C81.8285 64.0156 80.9673 64.0341 80.4165 63.8921C80.8095 63.4726 81.0861 63.6219 81.439 63.1687C80.8254 62.6616 80.4616 62.1895 79.9581 61.5842Z" fill="#DCCEBD"/>
<path d="M121.771 21.2533C121.264 20.2365 120.127 19.2943 120.032 18.7635L120.309 18.4095C121.219 18.0849 121.891 18.8258 122.357 19.4563C122.252 19.8522 121.984 20.9935 121.771 21.2533Z" fill="#DCCEBD"/>
<path d="M20.7327 62.3159C21.0675 62.4008 21.077 62.4134 21.3509 62.6336C21.5278 63.2437 21.8441 63.6548 22.1942 64.1766L22.1539 64.3228C21.7359 64.4068 21.3136 64.306 20.8909 64.2366C20.3983 64.4007 19.7828 64.7309 19.4119 64.2926C19.475 63.8822 20.4338 62.6393 20.7327 62.3159Z" fill="#DCCEBD"/>
<path d="M167.038 43.084C168.285 42.9398 169.985 43.7672 169.139 45.3943C168.937 45.7816 168.504 45.7098 168.084 45.7218C167.706 45.7005 167.826 45.7632 167.6 45.5289C167.935 45.1616 168.073 45.3571 168.598 45.1352C168.221 44.3054 167.193 43.9732 167.038 43.084Z" fill="#DCCEBD"/>
<path d="M25.5102 90.5825C25.6922 90.7694 25.8864 90.9143 26.0901 91.0758C26.3672 91.1133 26.6427 91.1624 26.9159 91.2228C27.6607 91.3916 29.6094 91.7496 29.9762 92.3291L29.881 92.5509C29.3556 92.7108 29.5055 92.6589 28.8872 92.4035C28.2376 92.7338 28.6545 92.7932 28.0324 93.1318L28.0039 93.0977C28.6983 90.799 26.4849 92.1105 25.5299 91.6151C25.283 91.1508 25.3785 91.2301 25.5102 90.5825Z" fill="#DCCEBD"/>
<path d="M87.9774 76.2009C87.745 76.4798 87.0889 76.8142 86.7042 76.8129C85.4561 76.1526 86.4054 74.7384 87.3769 74.2285C87.7517 75.212 87.3326 75.7163 87.9774 76.2009Z" fill="#DCCEBD"/>
<path d="M187.166 81.9309C187.166 80.9139 187.018 76.8334 187.399 76.3438C188.032 77.2299 187.762 81.0546 187.615 82.2029C187.431 82.1884 187.315 82.0551 187.166 81.9309Z" fill="#DCCEBD"/>
<path d="M53.9592 49.7013C54.237 49.481 54.3923 49.3008 54.7356 49.2808C55.1691 49.5343 55.6403 49.7066 56.1332 49.7991L56.2819 49.994C55.5729 50.0148 55.5965 49.9044 55.0892 50.2409L55.0244 50.5239C55.6271 51.1064 55.9488 50.9027 56.729 50.7103L56.8061 51.5748C55.6079 52.1221 54.3228 50.7809 53.9592 49.7013Z" fill="#DCCEBD"/>
<path d="M44.2498 8.35994C45.2402 8.31877 52.9775 8.188 53.3884 8.41294L53.4022 8.58359C52.5988 8.81807 50.6353 8.72448 49.727 8.7128C48.7945 8.33758 45.3809 8.91892 44.2498 8.35994Z" fill="#DCCEBD"/>
<path d="M45.6237 12.1997C46.415 12.7338 47.5648 12.8697 46.4447 13.8415C46.1843 14.0674 46.115 14.3472 46.0604 14.6767C45.5743 14.6238 45.2643 14.6173 44.8184 14.41L44.7688 14.1671C45.3742 13.4153 45.4924 13.2445 45.6142 12.2803L45.6237 12.1997Z" fill="#DCCEBD"/>
<path d="M40.4689 72.2751C40.3138 71.8313 38.3199 70.1112 38.0415 69.6783L38.1656 69.3903C38.5496 69.1706 38.6018 69.1697 39.0404 69.2384C39.8589 69.8975 39.438 70.805 40.4291 71.2112L40.6531 70.9631C40.9971 71.7145 40.8423 71.5672 40.4689 72.2751Z" fill="#DCCEBD"/>
<path d="M49.2641 95.9871C50.6252 96.0069 51.3823 95.9638 52.7373 95.8164C51.5486 96.701 51.0132 96.8938 49.5936 97.3295L49.3906 97.218C49.147 96.874 49.2401 96.4409 49.2641 95.9871Z" fill="#DCCEBD"/>
<path d="M177.119 57.5557C177.69 57.5777 178.107 57.5692 178.361 58.1295C178.237 58.5109 178.21 58.6041 177.895 58.8326L177.23 59.3131L177.207 59.4479L176.972 59.5983L176.675 59.4649C176.104 58.5585 176.357 58.1429 177.119 57.5557Z" fill="#DCCEBD"/>
<path d="M124.701 47.7515C125.317 47.6723 126.425 47.5515 126.98 47.8115L127.234 48.1132C127.164 48.7797 126.778 48.8823 126.217 49.1701C126.012 49.1166 125.853 49.0901 125.67 48.98C125.21 48.6589 124.792 48.3324 124.701 47.7515Z" fill="#DCCEBD"/>
<path d="M18.3727 92.332C19.5697 92.6087 20.7301 93.6296 19.9933 94.8643C19.6601 94.6153 19.7366 94.4987 19.6289 93.9876L19.4633 93.71C18.4365 93.3615 18.3711 93.8308 17.605 93.7147C17.8399 93.2554 18.1171 92.7832 18.3727 92.332Z" fill="#DCCEBD"/>
<path d="M87.1433 64.5508C87.3488 64.5598 87.6088 64.5947 87.8186 64.6172C88.2844 65.8411 89.112 64.9709 89.7012 66.2474C89.6358 66.8094 89.7249 66.6118 89.3973 67.0252C88.6336 65.6789 88.268 66.4643 87.5276 66.0747C87.285 65.5744 87.3137 65.789 87.3943 65.2645C87.2543 64.9717 87.2243 64.8657 87.1433 64.5508Z" fill="#DCCEBD"/>
<path d="M83.4971 54.1152C84.5757 54.2527 84.7304 56.0244 85.2634 56.6616C85.4841 56.9255 85.4657 56.8962 85.5421 57.278C85.1055 57.3708 84.9636 57.4193 84.5071 57.3493C83.6092 56.4912 84.3462 55.8665 83.4971 54.1152Z" fill="#DCCEBD"/>
<path d="M171.202 46.4048C171.773 46.5707 172.96 46.792 173.126 47.3888C172.801 47.6883 172.511 47.693 172.081 47.7645L171.995 47.7642C171.83 48.2846 171.787 48.253 171.383 48.5178L171.153 48.4169C170.845 47.6232 170.904 47.1813 171.202 46.4048Z" fill="#DCCEBD"/>
<path d="M161.455 84.5371C161.371 84.1841 161.357 84.0956 161.354 83.7329C162.508 83.3788 161.56 81.7769 164.767 82.0571C164.105 82.3445 161.9 84.0161 161.455 84.5371Z" fill="#DCCEBD"/>
<path d="M65.4799 69.4288L65.4747 69.2626L65.1459 69.116L65.0964 68.9856C65.9036 68.1476 65.7812 67.8125 65.989 66.6895C66.4381 67.4526 67.2556 68.5462 66.4949 69.3227C66.1146 69.4012 65.8661 69.4818 65.4799 69.4288Z" fill="#DCCEBD"/>
<path d="M141.651 2.75391C141.872 3.124 141.822 3.26146 141.762 3.67571L141.874 3.86802C141.317 4.68314 140.959 5.15565 140.315 5.9021L140.219 5.59511C139.944 5.635 139.701 5.70509 139.455 5.58956L139.531 5.43856L139.916 5.43813L139.781 5.0424C140.908 4.31148 140.791 3.5136 141.651 2.75391Z" fill="#DCCEBD"/>
<path d="M171.584 27.3584C171.749 27.3725 171.912 27.3914 172.076 27.4152C172.96 27.5474 173.541 27.8607 173.275 28.841C172.768 29.3697 172.825 29.2278 172.022 29.4533L171.837 29.5234L171.612 29.3902C171.975 28.5698 172.309 28.9677 172.532 28.3799C172.205 28.3942 172.093 28.4294 171.813 28.2882C171.572 27.9311 171.595 27.7764 171.584 27.3584Z" fill="#DCCEBD"/>
<path d="M85.7608 96.0137C86.2111 96.0679 86.3364 96.0718 86.7665 96.267C86.8255 96.5319 86.1349 96.966 86.1151 97.3992C86.0924 97.8965 86.4498 98.4478 86.4459 98.8819C85.3692 98.124 86.16 97.8966 84.5759 97.1217L84.8517 97.1496L84.9209 96.8717C85.3536 96.5607 85.437 96.4292 85.7608 96.0137Z" fill="#DCCEBD"/>
<path d="M14.7795 89.7115C16.005 89.611 16.4513 90.0479 17.3241 90.8803L17.2592 91.1428L16.7869 91.3309C16.2232 91.4206 15.9473 91.5025 15.4014 91.334L15.3096 91.1319L15.6764 90.4243C15.5096 90.1143 15.3172 90.1427 14.8942 89.9952L14.7795 89.7115Z" fill="#DCCEBD"/>
<path d="M52.2798 79.9721C52.4623 79.6369 52.3584 79.0761 52.4005 78.5721C52.8048 78.2037 53.365 77.9832 53.8667 77.7517L53.8679 77.8535L53.8966 77.7441L53.5275 78.1641L53.5991 78.452C54.0094 78.5356 54.4178 78.6289 54.8237 78.732L54.7296 78.9568C52.8415 79.0899 53.7527 79.7517 52.2798 79.9721Z" fill="#DCCEBD"/>
<path d="M174.567 98.4473L174.607 99.3178L174.81 99.4534C175.626 99.1554 176.105 98.8125 176.863 99.4384C176.172 99.8268 174.817 100.869 174.222 100.163C174.121 99.6224 174.392 98.9874 174.567 98.4473Z" fill="#DCCEBD"/>
<path d="M58.085 55.4337C60.2328 55.2295 60.777 53.798 61.9785 56.3522C60.9774 55.9854 59.1307 55.4763 58.085 55.4337Z" fill="#DCCEBD"/>
<path d="M110.082 96.6112C110.685 96.5307 112.11 96.5065 112.378 97.1319C111.972 97.5168 111.944 97.4183 111.307 97.5534C111.192 98.1131 111.276 98.1662 110.94 98.5119C110.656 98.2571 110.163 96.977 110.082 96.6112Z" fill="#DCCEBD"/>
<path d="M164.956 7.85889C165.59 7.94108 166.606 8.09208 167.089 8.51716L167.061 8.75007L166.618 8.97998C165.969 9.00363 164.658 9.22073 164.316 8.63895C164.446 8.21131 164.612 8.12613 164.956 7.85889Z" fill="#DCCEBD"/>
<path d="M39.8327 109.998C40.6288 109.979 44.8346 110.026 45.2603 109.866L45.4026 110.484C44.7278 110.177 40.6338 110.4 39.6772 110.437L39.8327 109.998Z" fill="#DCCEBD"/>
<path d="M35.7942 67.0713C35.8341 67.0767 37.6162 67.6797 37.6887 67.7221C37.8165 68.1895 37.7628 68.0697 37.474 68.6232C37.2856 69.026 37.358 69.0344 37.0146 69.2521C36.3575 68.7155 35.8553 67.9125 35.7942 67.0713Z" fill="#DCCEBD"/>
<path d="M19.9537 53.602L20.0444 53.5688C20.2671 53.7143 20.2042 53.6857 20.3422 53.957C20.1483 55.1875 19.043 54.0288 18.4314 55.6794C18.1237 55.4777 18.0714 55.0629 18.0576 54.7253C18.6923 53.4895 19.0712 54.0929 19.9537 53.602Z" fill="#DCCEBD"/>
<path d="M43.583 21.4619C44.3161 21.5175 45.3233 21.6313 45.5852 22.3648C45.4737 22.8978 45.4646 23.0303 45.1576 23.4884C44.8341 23.196 44.9007 23.1377 44.784 22.7879C44.5818 22.1814 43.9959 22.6726 43.3561 22.2611C43.277 21.8215 43.3099 21.9407 43.583 21.4619Z" fill="#DCCEBD"/>
<path d="M31.0087 72.7437C31.4164 73.1818 31.6217 73.3489 31.789 73.9172L31.7497 74.245C30.8359 74.5234 29.8075 73.3127 29.396 73.2998L29.3525 73.0887C30.1704 72.6361 30.113 73.3888 31.0087 72.7437Z" fill="#DCCEBD"/>
<path d="M13.5708 85.3856C13.6467 85.3735 13.7876 85.3484 13.861 85.3637C15.875 85.7832 15.8514 85.3188 17.1164 86.8457L16.9796 86.8725C16.3009 87.0098 13.9374 85.9202 13.5708 85.3856Z" fill="#DCCEBD"/>
<path d="M124.153 47.7659L124.701 47.7515C124.792 48.3324 125.21 48.6589 125.67 48.98L125.653 49.0294L125.316 49.1382C125.024 49.6489 124.916 49.8447 124.391 50.0969L124.211 49.9552C124.011 49.2452 124.107 48.5055 124.153 47.7659Z" fill="#DCCEBD"/>
<path d="M12.5457 105.487C12.9823 103.957 12.1147 100.658 12.902 99.2422C13.2198 100.178 12.7734 104.085 12.93 105.555L12.5457 105.487Z" fill="#DCCEBD"/>
<path d="M75.3848 60.6343C75.818 60.749 77.6868 62.5749 77.8628 62.8282C75.8794 62.7287 75.6378 62.3571 75.3848 60.6343Z" fill="#DCCEBD"/>
<path d="M27.9836 56.3921C28.1905 56.5297 28.233 56.6793 28.3419 56.9041L28.2381 57.137C27.872 57.3498 26.7031 57.4515 26.1841 57.5435C25.9969 57.5287 26.0323 57.5116 25.8484 57.3999C25.8535 56.9941 25.812 57.1556 26.0623 56.7804C26.5416 56.4746 27.3901 56.4541 27.9836 56.3921Z" fill="#DCCEBD"/>
<path d="M9.75392 68.3477C10.7884 68.4969 10.9776 69.1642 10.5857 70.0528C10.11 70.4008 10.1461 70.2817 9.42324 70.2723C9.20191 70.0542 9.2662 70.1874 9.26264 69.8438C9.49201 69.6985 9.72376 69.5571 9.95779 69.4196L9.93503 69.2146C9.71235 69.1309 9.49049 69.0451 9.26949 68.9569C9.35792 68.5773 9.40752 68.6351 9.75392 68.3477Z" fill="#DCCEBD"/>
<path d="M114.419 23.2139C115.057 23.4059 115.14 23.3573 115.469 23.8039C115.537 24.2996 115.115 25.1092 114.905 25.6083C114.584 25.6049 114.71 25.6511 114.444 25.3877C114.323 24.5226 114.093 23.912 114.419 23.2139Z" fill="#DCCEBD"/>
<path d="M40.9948 65.2778C41.2064 65.3693 41.2205 65.4345 41.3814 65.6211C41.4251 66.5297 40.8073 66.9393 40.0069 67.1763C39.5531 66.8061 39.6469 66.9865 39.5576 66.5082C39.7521 66.1163 40.5627 65.6278 40.9948 65.2778Z" fill="#DCCEBD"/>
<path d="M78.4731 8.85406C80.8974 7.76644 81.2493 8.51388 83.0808 8.68497C82.6183 8.9599 80.2284 8.6599 79.4934 8.97629C79.2754 9.07016 78.7213 9.21874 78.4862 9.26504L78.4731 8.85406Z" fill="#DCCEBD"/>
<path d="M20.8888 98.3196L20.8654 97.9783C20.4489 97.5017 20.3761 97.0779 20.3586 96.4757L20.5481 96.3604C21.0324 96.4554 21.3438 96.8447 21.7081 97.1981L21.6818 97.2908C21.5731 97.6823 21.5536 97.8058 21.5095 98.2138C21.1695 98.3924 21.3053 98.3461 20.8888 98.3196Z" fill="#DCCEBD"/>
<path d="M12.644 93.5459C13.2925 93.847 12.9131 96.3751 12.8334 97.0925L12.6726 97.2197L12.2998 96.9112C12.0014 96.7331 11.8403 96.6897 11.5156 96.5787L11.575 96.3743L12.4748 95.9474C12.6661 95.4505 12.589 94.211 12.644 93.5459Z" fill="#DCCEBD"/>
<path d="M182.963 4.90576L183.33 5.07685C183.839 5.67799 183.562 7.28015 183.495 8.10281C182.624 7.73187 182.84 5.65549 182.963 4.90576Z" fill="#DCCEBD"/>
<path d="M183.456 57.9395C183.684 58.0108 183.917 58.1138 184.139 58.2051L184.134 58.3459C183.839 58.553 183.559 58.6597 183.282 58.8212C182.848 59.0737 183.007 59.6456 182.437 59.9587C182.078 59.7604 181.774 59.6392 181.539 59.3103C181.656 59.0161 182.085 58.9036 182.402 58.8013C183.023 58.6006 183.04 58.4369 183.456 57.9395Z" fill="#DCCEBD"/>
<path d="M131.097 31.3178C131.403 31.0524 131.508 30.907 131.905 30.8525C132.458 31.6926 132.449 31.7573 132.225 32.8662L132.053 33.0373C131.161 32.5319 131.698 31.9835 131.097 31.3178Z" fill="#DCCEBD"/>
<path d="M144.514 25.6979C144.422 25.4677 144.403 25.4756 144.211 25.3306L144.008 25.8331L143.896 25.767L143.84 25.4525C144.075 24.6032 144.375 24.2287 145.044 23.662C145.475 23.6666 145.304 23.6149 145.687 23.909C145.444 24.3682 144.886 25.3535 144.514 25.6979Z" fill="#DCCEBD"/>
<path d="M126.886 50.73C127.143 50.8236 127.4 50.9417 127.651 51.0521L127.791 51.4514C127.656 52.2733 127.362 52.2046 126.688 52.3574C126.311 52.4246 126.265 52.4205 125.897 52.3139L125.895 52.1136L126.596 51.4737C126.681 51.1851 126.764 51.0059 126.886 50.73Z" fill="#DCCEBD"/>
<path d="M123.611 46.9016C123.89 46.327 124.114 45.4812 124.503 45.2036C124.956 45.1317 125.122 45.1915 125.557 45.2892C125.305 45.8037 125.199 45.7765 125.007 46.3918C124.491 46.8602 124.364 46.7597 123.611 46.9016Z" fill="#DCCEBD"/>
<path d="M89.8723 14.7783C91.0961 14.9243 91.733 15.3651 91.7894 16.6392L91.3201 16.2667C90.816 16.2543 90.7435 16.21 90.2993 15.9947C89.9924 15.6573 89.9611 15.2332 89.8723 14.7783Z" fill="#DCCEBD"/>
<path d="M32.209 80.8371L32.8358 80.8271C33.2939 81.1274 33.8736 81.5082 34.1591 81.9792L33.9286 82.0733L33.5059 81.8471C32.4276 81.2595 31.4047 81.5823 30.1145 81.6886C30.9463 81.2264 31.3087 81.1206 32.209 80.8371Z" fill="#DCCEBD"/>
<path d="M38.1873 60.5188C38.8592 60.478 39.5389 60.3004 39.8725 60.975C39.5095 61.3484 39.5938 61.2391 38.992 61.346C38.823 61.7003 38.7968 61.7619 38.5205 62.0377L38.253 62.0342C37.9451 61.6669 37.9682 60.9329 38.1873 60.5188Z" fill="#DCCEBD"/>
<path d="M79.9583 61.5845C80.4617 62.1898 80.8256 62.6618 81.4392 63.169C81.0862 63.6221 80.8097 63.4728 80.4166 63.8923L79.8406 63.9825C79.9661 63.4269 79.9975 62.6016 80.0388 62.0142L79.9583 61.5845Z" fill="#DCCEBD"/>
<path d="M12.6514 72.8248C12.627 72.6463 12.6565 72.4607 12.6719 72.2767C13.1881 71.8878 13.9876 71.3952 14.6359 71.3438L14.7978 71.6228C14.4637 72.3865 13.9193 72.2601 13.1644 72.4063C13.1335 72.7975 13.1219 73.6103 12.9277 73.8924C12.6979 73.4911 12.7012 73.274 12.6514 72.8248Z" fill="#DCCEBD"/>
<path d="M89.3295 68.5386C89.6308 68.5511 89.6931 68.5299 89.929 68.695C89.9329 69.5709 89.3142 70.3098 88.3958 70.1171C87.9799 69.7535 88.1012 69.9112 87.969 69.3193C88.0199 68.923 88.052 68.883 88.3175 68.5819L88.4686 68.6176C88.6157 68.949 88.7578 69.2825 88.895 69.6179L89.127 69.628L89.253 69.4248L89.0883 68.8052L89.3295 68.5386Z" fill="#DCCEBD"/>
<path d="M12.5894 8.19043C13.6192 8.47362 14.0255 8.8081 13.8705 9.86652C13.1999 9.79615 12.9918 9.82493 12.5132 9.447C12.349 9.03389 12.4915 8.62747 12.5894 8.19043Z" fill="#DCCEBD"/>
<path d="M130.881 57.7969L131.204 57.9885C131.247 58.2241 131.288 58.4147 131.345 58.647C131.596 58.8301 131.794 58.9502 132.061 59.1081C131.914 59.4224 131.627 59.4802 131.254 59.6765C130.832 59.7841 130.672 59.6698 130.428 59.3922C130.365 58.9245 130.695 58.2634 130.881 57.7969Z" fill="#DCCEBD"/>
<path d="M32.1106 75.7695C32.5588 75.8704 32.7786 75.8956 33.1752 76.1497C33.1249 76.3752 32.5744 76.6311 32.2559 76.9054C32.2576 77.3835 32.7286 77.73 32.939 78.2528C32.5445 78.1929 31.9024 78.1424 31.6653 77.8577C32.0415 77.263 32.1787 76.9963 31.9412 76.3207L31.9004 76.208L32.1106 75.7695Z" fill="#DCCEBD"/>
<path d="M118.944 20.7627C119.146 20.8368 119.282 21.0368 119.431 21.2069L119.402 21.4908C118.942 22.0707 117.994 22.2413 117.309 22.3526L117.148 22.2392C117.079 21.5636 117.401 21.6799 118.005 21.5399C118.644 21.3922 118.581 21.2761 118.944 20.7627Z" fill="#DCCEBD"/>
<path d="M24.9805 82.2158C25.2015 82.2071 25.4224 82.2011 25.6435 82.198C26.1285 82.1919 26.6379 82.1953 26.9884 82.5389C26.5838 82.8831 26.5839 82.7932 25.9942 82.9133C26.0154 83.2777 25.9912 83.299 25.8384 83.6423L25.6519 83.6738C25.2504 83.3212 25.138 82.7382 24.9805 82.2158Z" fill="#DCCEBD"/>
<path d="M89.8391 76.4858C90.4448 76.5048 90.5937 76.5129 91.0045 76.8628C91.2147 77.3119 91.1895 77.6255 91.2036 78.1203C90.6961 78.0977 90.536 78.1257 90.1416 77.8039C89.8594 77.4227 89.8782 76.968 89.8391 76.4858Z" fill="#DCCEBD"/>
<path d="M101.834 35.3706C102.081 35.4274 102.341 35.5257 102.583 35.6076C102.784 36.1984 101.889 35.5665 101.46 36.9635C101.124 37.1262 101.294 37.1084 100.933 37.0203C100.6 36.137 101.145 35.721 101.834 35.3706Z" fill="#DCCEBD"/>
<path d="M146.22 14.7485C146.485 14.8578 146.511 14.9128 146.714 15.1286C146.994 16.0322 146.872 16.5024 146.599 17.4074L146.315 17.399C145.879 16.9235 146.15 15.3814 146.22 14.7485Z" fill="#DCCEBD"/>
<path d="M141.572 1.60835C142.176 1.6123 142.021 1.52959 142.487 1.82522C142.678 2.52252 142.54 2.7221 142.166 3.38094C142.074 3.54604 141.977 3.7083 141.875 3.86756L141.762 3.67525C141.822 3.261 141.872 3.12353 141.651 2.75344C141.541 2.30595 141.677 2.18515 141.572 1.60835Z" fill="#DCCEBD"/>
<path d="M23.0772 8.60872C22.6387 8.05131 22.4302 7.88991 22.5041 7.21454L22.7462 7.11084C23.4317 7.27737 23.5817 7.63777 23.9609 8.22396C23.6766 8.4714 23.4798 8.68223 23.0772 8.60872Z" fill="#DCCEBD"/>
<path d="M75.055 47.1079C74.9314 46.3984 74.8634 45.7961 75.464 45.3418C76.4583 45.4043 75.8838 45.5529 76.4796 46.0079C75.9552 46.4743 75.6356 46.7118 75.055 47.1079Z" fill="#DCCEBD"/>
<path d="M127.534 27.3306C127.957 27.3219 128.076 27.3019 128.469 27.4809C128.675 27.9961 128.433 28.4461 128.267 29.079C128.09 29.1111 127.91 29.0726 127.729 29.0491C127.438 28.6387 127.531 27.8856 127.534 27.3306Z" fill="#DCCEBD"/>
<path d="M37.2503 75.0215L37.5318 75.127C37.9713 75.8142 37.9867 76.2929 37.4508 76.8746C37.0713 76.7744 37.0091 76.7729 36.6864 76.5623C36.5362 75.992 36.8962 75.6342 37.2503 75.0215Z" fill="#DCCEBD"/>
<path d="M124.787 54.9624L125.002 55.0702C125.077 55.5963 126.094 56.4552 126.524 56.8287L126.587 56.8832L126.33 57.0647C126.156 57.0003 125.814 56.5121 125.731 56.4876C125.328 56.3685 124.807 56.3509 124.445 56.1137C124.522 55.6571 124.629 55.3942 124.787 54.9624Z" fill="#DCCEBD"/>
<path d="M149.219 7.44253C150.475 7.27031 150.964 8.12488 150.758 9.26606C149.536 8.94968 150.353 8.67788 149.418 7.88371C149.298 7.78285 149.278 7.61761 149.219 7.44253Z" fill="#DCCEBD"/>
<path d="M100.669 53.7636C101.014 53.526 101.648 53.2595 102.054 53.1729C101.978 53.9135 102.397 53.8971 102.398 54.7703L102.25 54.9098C101.637 54.5454 101.187 54.0508 100.669 53.7636Z" fill="#DCCEBD"/>
<path d="M102.951 99.3709C103.105 99.0671 102.993 98.6624 102.956 98.2628C103.2 97.8285 103.049 97.9719 103.608 97.7646C103.961 98.3681 104.166 99.0359 103.499 99.5227C103.258 99.4862 103.13 99.5033 102.951 99.3709Z" fill="#DCCEBD"/>
<path d="M21.3447 87.8486C22.1897 88.0711 22.0697 88.2096 22.6243 89.1521L22.4508 89.3908C21.9331 89.4458 21.6574 89.5364 21.2661 89.2034C21.2159 88.7186 21.2849 88.3303 21.3447 87.8486Z" fill="#DCCEBD"/>
<path d="M6.80643 62.7549C7.77502 63.0556 7.21245 63.5713 8.04108 64.1086L7.92031 64.2502C7.39031 64.5374 7.30415 64.6781 6.80282 64.4123C6.59705 63.9532 6.743 63.2784 6.80643 62.7549Z" fill="#DCCEBD"/>
<path d="M130.929 72.0915C131.792 71.3857 131.008 71.669 131.219 70.6485L131.613 70.5356L132.049 71.0234C132.308 71.3082 132.327 71.3698 132.375 71.7596C132.005 72.2308 131.485 72.1253 130.929 72.0915Z" fill="#DCCEBD"/>
<path d="M83.365 90.3266C83.8808 89.9594 84.1701 89.698 84.7866 89.5796C85.2548 89.7514 85.1163 89.6313 85.3584 90.0031C85.3356 90.1302 85.255 90.5266 85.2619 90.6296L85.0756 90.5592C84.625 90.7249 83.8703 90.453 83.365 90.3266Z" fill="#DCCEBD"/>
<path d="M57.588 45.0438C57.6343 44.8224 57.435 43.8447 57.4784 43.1406L57.6295 43.0342C58.082 43.5377 58.096 43.8191 58.3399 44.4747C58.2522 44.9611 58.1068 44.9872 57.588 45.0438Z" fill="#DCCEBD"/>
<path d="M12.6385 55.4C12.5924 54.9215 12.4956 54.5309 12.7589 54.1381C13.3506 54.0493 13.5388 54.7017 13.7842 55.181C13.7618 55.4082 13.7773 55.6159 13.6304 55.773C13.289 55.5694 13.0144 55.5087 12.6385 55.4Z" fill="#DCCEBD"/>
<path d="M73.5932 8.46649L73.7126 8.47803C75.3993 8.63059 74.797 7.96776 76.7191 8.83857L76.5609 9.24129C75.3209 8.61464 74.4172 8.89028 73.0808 8.86108C73.493 8.67988 73.4475 8.77931 73.5932 8.46649Z" fill="#DCCEBD"/>
<path d="M33.4724 69.2344C34.1309 69.7123 33.815 71.1506 33.4124 71.7535C32.6669 71.1236 33.1648 69.9377 33.4724 69.2344Z" fill="#DCCEBD"/>
<path d="M82.6593 10.7646L83.0462 11.0813C83.2325 11.8708 83.2632 12.5625 82.835 13.2597C82.6685 13.1841 82.6185 13.1195 82.4786 12.9997C82.3194 12.3447 82.5277 11.4282 82.6593 10.7646Z" fill="#DCCEBD"/>
<path d="M44.4424 89.4462C45.6102 89.3912 45.4319 89.8151 45.5641 90.5629C45.8002 90.7653 46.0006 90.9371 46.1649 91.0781C45.1316 91.3035 44.554 90.3567 44.4424 89.4462Z" fill="#DCCEBD"/>
<path d="M106.167 50.0877C105.855 49.5405 105.727 49.6575 105.49 49.2483C106.231 49.2436 106.373 49.2163 106.955 48.7583C107.285 48.9066 107.188 48.8832 107.393 49.3067C106.88 49.7572 106.792 49.8123 106.167 50.0877Z" fill="#DCCEBD"/>
<path d="M141.856 50.4346C141.939 50.4652 142.074 50.7357 142.138 50.8397C142.143 51.03 142.049 51.1807 141.968 51.3584C141.353 51.6842 141.559 51.5984 140.732 51.3924L140.406 51.3512L140.368 51.1417C140.884 50.7367 141.273 50.8612 141.856 50.4346Z" fill="#DCCEBD"/>
<path d="M106.036 32.4282C106.75 32.3505 107.607 32.3091 108.155 32.8115L108.114 33.1793C107.343 33.1497 106.139 33.3193 106.036 32.4282Z" fill="#DCCEBD"/>
<path d="M80.0387 62.0142C79.9973 62.6015 79.9659 63.4269 79.8404 63.9824C79.4065 63.7254 79.2389 63.6135 78.8523 63.291L78.8541 62.9881C79.3891 62.4831 79.36 62.3989 80.0387 62.0142Z" fill="#DCCEBD"/>
<path d="M142.588 28.0774C142.613 27.332 142.557 26.2791 143.439 26.1899L143.877 26.5968C143.381 27.5558 143.125 27.4286 142.588 28.0774Z" fill="#DCCEBD"/>
<path d="M182.99 1.36621C183.483 1.42265 184.143 1.5553 184.562 1.82362L184.517 2.00279L184.167 2.0776C183.768 2.26548 183.343 2.54047 182.943 2.46454C182.768 1.97569 182.869 1.96024 182.99 1.36621Z" fill="#DCCEBD"/>
<path d="M62.1637 80.9759C62.5707 80.9655 62.8256 80.9162 63.1817 81.1047C63.2026 81.5803 63.0371 81.6568 62.7375 82.1472C62.311 82.0611 62.0971 82.055 61.7822 81.741C61.8173 81.262 61.8065 81.4033 62.1637 80.9759Z" fill="#DCCEBD"/>
<path d="M51.3106 51.8429L50.7951 51.6231L50.7705 51.3318C51.2286 50.7362 51.8283 50.5381 52.5027 50.8918C52.0892 51.2325 51.7453 51.6853 51.3106 51.8429Z" fill="#DCCEBD"/>
<path d="M112.231 25.8296C112.749 27.6629 113.957 26.7283 113.825 28.0376L113.57 28.2808L113.346 28.2027C113.011 27.4926 113.035 27.3158 112.289 27.0567C112.226 26.8352 112.235 26.1038 112.231 25.8296Z" fill="#DCCEBD"/>
<path d="M20.2776 82.0264C20.3398 82.0329 20.4021 82.0405 20.4642 82.0487C20.9392 82.1121 21.4336 82.2067 21.7233 82.5888L21.542 82.8433C21.2053 83.0886 21.0301 83.269 20.6082 83.2592C20.2733 82.8221 20.3582 82.6608 20.2776 82.0264Z" fill="#DCCEBD"/>
<path d="M16.5447 59.4961C17.5151 59.819 17.2211 60.7418 17.0358 61.498L16.7711 61.5172L16.5437 61.298C16.3525 60.7208 16.4759 60.1059 16.5447 59.4961Z" fill="#DCCEBD"/>
<path d="M49.7271 8.71293C48.9671 8.81165 43.6377 8.80282 43.2427 8.53586C43.6026 8.30409 43.7177 8.32147 44.1296 8.35067L44.2499 8.36007C45.381 8.91905 48.7946 8.33771 49.7271 8.71293Z" fill="#DCCEBD"/>
<path d="M63.2598 73.2006C63.8461 73.0907 64.0299 73.1478 64.6203 73.2614C64.4597 73.6699 64.4206 74.9903 64.3882 75.4997C63.9372 74.4103 64.3932 73.6353 63.2598 73.2006Z" fill="#DCCEBD"/>
<path d="M84.2893 50.1243C84.0994 50.0491 83.9138 49.9894 83.7478 49.8719L83.763 49.5424C84.009 49.1325 84.4397 49.0781 84.9123 48.9399C85.0698 49.1065 85.138 49.156 85.3146 49.2946C84.9322 49.7429 84.8289 49.9058 84.2893 50.1243Z" fill="#DCCEBD"/>
<path d="M122.084 51.5776C122.566 51.5826 122.633 51.6593 122.924 51.9181L122.889 52.2071L122.521 52.4946C121.987 52.5041 121.678 52.5848 121.296 52.2617C121.545 51.7947 121.561 51.8917 122.084 51.5776Z" fill="#DCCEBD"/>
<path d="M114.864 51.4502C114.87 52.1874 114.837 53.8992 115.15 54.4723C115.019 54.6784 114.975 54.6695 114.749 54.7624L114.555 54.6172C114.29 53.6853 114.643 52.3892 114.864 51.4502Z" fill="#DCCEBD"/>
<path d="M68.8434 90.7855C69.5025 90.4191 69.3878 90.3557 70.0454 90.3752L70.3871 90.6098L70.3765 90.9141C69.7942 91.3772 69.4724 91.1876 68.7507 91.0556L68.8434 90.7855Z" fill="#DCCEBD"/>
<path d="M13.1645 72.4062C13.1922 72.6954 13.2059 74.8023 13.2151 74.8202C12.5918 75.4587 12.8517 76.4408 12.6663 77.3305C12.6049 76.661 12.648 73.6886 12.6515 72.8248C12.7013 73.2739 12.698 73.491 12.9278 73.8923C13.122 73.6103 13.1337 72.7974 13.1645 72.4062Z" fill="#DCCEBD"/>
<path d="M105.47 52.4668C106.025 52.5001 106.568 52.6219 107.04 52.9165C107.328 53.3546 107.281 53.1444 107.179 53.7164C106.483 53.5036 105.634 53.203 105.47 52.4668Z" fill="#DCCEBD"/>
<path d="M99.955 107.105C100.215 107.136 100.302 107.174 100.541 107.257C100.83 107.691 100.661 108.421 100.61 108.988C99.8859 108.655 99.6721 107.813 99.955 107.105Z" fill="#DCCEBD"/>
<path d="M13.5293 74.1412C14.0814 74.1306 15.0703 74.1915 15.4532 74.6046L15.258 74.6619C14.6189 74.9385 14.5333 75.0539 13.903 74.9142C13.6254 74.5978 13.595 74.5558 13.5293 74.1412Z" fill="#DCCEBD"/>
<path d="M96.7451 107.156C97.5212 107.093 98.3939 107.172 98.8466 107.849C98.0185 107.948 96.8237 108.187 96.7451 107.156Z" fill="#DCCEBD"/>
<path d="M162.024 9.46677C161.302 9.47417 159.252 9.55993 158.654 9.25152C158.992 9.00779 159.135 9.07274 159.603 9.0293C160.173 9.10935 161.782 9.14582 162.001 9.36078L162.024 9.46677Z" fill="#DCCEBD"/>
<path d="M147.129 29.5986C147.449 29.6498 147.465 29.6523 147.749 29.8078C147.984 30.3458 147.887 31.123 147.483 31.5586C146.871 31.0673 147.264 30.7442 146.927 29.9116L147.129 29.5986Z" fill="#DCCEBD"/>
<path d="M51.5165 85.7598C52.7257 86.0042 51.9037 87.4631 51.6059 88.2513L51.4754 88.2268C51.3027 87.8403 51.6464 86.7196 51.5165 85.7598Z" fill="#DCCEBD"/>
<path d="M29.9438 98.8881L30.8586 98.8662C30.8417 99.4554 30.8827 99.8527 30.5819 100.351L30.3795 100.386C30.0345 100.036 30.0155 99.3971 29.9438 98.8881Z" fill="#DCCEBD"/>
<path d="M95.4269 62.1869L95.6214 62.1641C95.9919 62.6393 96.0523 62.5696 96.124 63.09L95.9363 63.236C95.4074 63.1906 94.8793 62.9941 94.6355 62.4869L94.7741 62.285L95.4269 62.1869Z" fill="#DCCEBD"/>
<path d="M129.634 32.9007L129.16 32.6352C129.055 32.2075 129.035 32.3802 129.234 31.9877C129.725 31.7678 129.51 31.7976 130.048 31.8815L130.136 31.8184L130.428 32.2037C130.224 32.4134 129.886 32.8141 129.634 32.9007Z" fill="#DCCEBD"/>
<path d="M50.1815 91.8184C50.734 91.993 50.7341 92.1253 50.8129 92.6439C50.5511 93.2991 50.7188 93.0907 50.1581 93.4943L49.7972 93.3463C49.6373 92.9161 49.9822 92.3347 50.1815 91.8184Z" fill="#DCCEBD"/>
<path d="M136.337 35.4917L136.956 35.5414C137.477 35.885 137.695 36.4087 137.959 36.9779C137.76 37.0209 137.509 37.0332 137.303 37.0508C136.973 36.795 136.969 36.2379 136.337 35.4917Z" fill="#DCCEBD"/>
<path d="M138.575 17.8873C139.094 17.8343 139.431 17.7749 139.947 17.8665C140.337 18.1617 140.214 17.9983 140.351 18.5756C139.845 18.5909 139.519 18.5971 139.015 18.5524C138.597 18.2531 138.72 18.4238 138.575 17.8873Z" fill="#DCCEBD"/>
<path d="M17.2381 65.2383C17.8328 65.2814 17.9018 65.3998 18.1001 65.9054L17.9886 66.1571L17.6473 66.2647C17.2538 66.1404 16.8821 66.0601 16.5854 65.7713L16.6669 65.5192L17.2381 65.2383Z" fill="#DCCEBD"/>
<path d="M31.0401 49.5833C30.4884 49.6086 30.2982 49.6366 29.7647 49.4773L29.7109 49.3216C30.0877 48.9235 30.7437 48.8779 31.2659 48.9024C31.4294 49.1068 31.4871 49.1458 31.6839 49.3028C31.5601 49.3605 31.1515 49.5638 31.0401 49.5833Z" fill="#DCCEBD"/>
<path d="M28.164 88.7212C28.4233 88.8018 28.7354 88.9139 28.9996 88.9431C29.1447 89.2263 29.1116 89.0756 29.0694 89.4155C28.4925 89.6769 27.6931 89.5745 27.3274 89.032C27.6793 88.739 27.6625 88.8166 28.164 88.7212Z" fill="#DCCEBD"/>
<path d="M112.502 48.5933L112.765 48.6967C112.765 49.1361 112.301 49.1078 111.806 49.8561L111.74 49.9574C111.34 49.7658 111.275 49.4451 111.376 49.0643C111.941 48.599 111.721 48.733 112.502 48.5933Z" fill="#DCCEBD"/>
<path d="M2.39038 32.5653C2.7353 31.8052 2.7101 31.5471 3.53516 31.3853C3.81124 31.4981 3.8564 31.5102 4.15402 31.5606L4.22823 31.5727C3.54383 32.1196 3.27845 32.3944 2.39038 32.5653Z" fill="#DCCEBD"/>
<path d="M105.673 107.131C106.181 107.258 106.657 107.266 106.888 107.629C106.717 107.728 106.685 107.744 106.553 107.883L106.456 107.985C106.292 108.374 106.344 108.418 106.031 108.651L105.833 108.465C105.713 107.929 105.637 107.683 105.673 107.131Z" fill="#DCCEBD"/>
<path d="M39.6773 110.437C39.0577 110.449 37.6496 110.609 37.3232 110.31L37.3963 110.052C37.9946 109.883 38.7355 110.184 39.6982 110.021L39.8328 109.998L39.6773 110.437Z" fill="#DCCEBD"/>
<path d="M78.0178 98.3214C78.4314 98.2892 78.6149 98.2406 78.9797 98.4577C79.1623 98.9875 79.0007 99.2399 78.8651 99.8481L78.7393 99.8733C78.4437 99.5831 78.0157 98.7463 78.0178 98.3214Z" fill="#DCCEBD"/>
<path d="M68.6418 23.5352C69.18 23.5572 69.2894 23.5776 69.8067 23.7299C70.2591 24.1783 70.1266 24.0417 70.2957 24.7275C69.3582 24.2406 68.8822 24.6719 68.6418 23.5352Z" fill="#DCCEBD"/>
<path d="M94.9568 9.77951L95.0664 9.76683C95.5007 9.7184 96.3212 9.65672 96.6657 9.93051C96.4697 10.2693 96.305 10.2497 95.8804 10.4395L95.624 10.807L95.3396 10.6576C95.089 10.301 95.0141 10.2221 94.9568 9.77951Z" fill="#DCCEBD"/>
<path d="M174.056 60.6309C174.704 60.5703 175.447 60.3405 175.81 60.9316L175.673 61.3568C175.095 61.2615 174.415 61.2464 174.004 60.9263L174.056 60.6309Z" fill="#DCCEBD"/>
<path d="M110.44 34.5379C110.983 34.4882 111.833 34.3972 112.164 34.8734L112.023 35.1619C111.938 35.1687 111.853 35.1753 111.768 35.1813C111.161 35.2246 110.826 35.3145 110.407 34.9492L110.44 34.5379Z" fill="#DCCEBD"/>
<path d="M159.603 9.02917C160.6 9.02931 162.636 8.9917 163.559 9.18786L163.522 9.33515C162.767 9.61835 162.602 9.35766 162.024 9.46664L162.001 9.36065C161.782 9.14569 160.173 9.10923 159.603 9.02917Z" fill="#DCCEBD"/>
<path d="M144.518 2.56355L144.713 2.49902L144.906 2.62182C144.859 3.21741 144.851 3.29733 144.524 3.79235C144.097 4.0613 144.301 4.00759 143.716 3.92825C143.975 3.62924 144.087 3.53308 144.194 3.14633C143.991 2.79418 144.107 2.91356 143.634 2.73264L144.518 2.56355Z" fill="#DCCEBD"/>
<path d="M39.2282 54.7412L39.5328 55.1055C39.8408 55.7823 39.6573 55.4763 40.4335 55.8633C39.6239 56.0063 39.5884 56.3428 39.2659 56.3568C39.126 55.6579 39.0413 55.4166 39.2282 54.7412Z" fill="#DCCEBD"/>
<path d="M20.5832 55.6348C21.3319 56.0804 21.1456 56.8841 20.9332 57.5676C20.6656 57.4647 20.6369 57.3938 20.4451 57.1654C20.302 56.7198 20.4845 56.1126 20.5832 55.6348Z" fill="#DCCEBD"/>
<path d="M13.6921 97.4048C14.2277 97.5317 14.1363 97.4286 14.4671 97.7826C14.4793 98.2061 14.4558 98.5448 14.429 98.9658L14.0724 99.0238C13.6576 98.5735 13.7125 98.0433 13.6921 97.4048Z" fill="#DCCEBD"/>
<path d="M42.1877 11.256C42.3748 11.4504 42.4842 11.5731 42.6511 11.7853C43.006 11.4607 43.1017 11.3551 43.5383 11.1392C43.8554 11.5957 43.3132 12.1148 43.018 12.4799C42.6237 12.161 42.1872 11.8054 42.1877 11.256Z" fill="#DCCEBD"/>
<path d="M84.3384 67.3419C85.2473 67.0968 86.5369 67.1002 87.0746 67.9776C86.4248 67.9308 84.9194 67.614 84.3384 67.3419Z" fill="#DCCEBD"/>
<path d="M88.3094 84.1657C88.2117 84.0797 89.5704 85.3855 89.402 85.1671L89.234 85.309C88.6427 85.4305 88.6277 85.5283 88.1273 85.3657C88.0153 84.8781 88.156 84.7164 88.3094 84.1657Z" fill="#DCCEBD"/>
<path d="M188.086 52.6405C187.531 52.4397 187.123 52.3514 186.977 51.7341L187.239 51.5747C187.62 51.6115 187.733 51.6639 188.094 51.7988C188.093 52.0243 188.106 52.4327 188.086 52.6405Z" fill="#DCCEBD"/>
<path d="M24.2925 8.15279C24.6811 8.08797 25.288 8.13612 25.6765 8.06361C26.2426 7.95805 26.0149 7.47443 26.5199 7.22314L26.7241 7.93056L27.1228 8.11219C26.3471 8.46632 25.1909 8.23555 24.2925 8.15279Z" fill="#DCCEBD"/>
<path d="M155.131 9.64079C154.549 9.52284 153.422 9.56301 153.005 9.17298L153.008 9.16984L153.201 9.27768L153.332 9.09847C153.909 9.02981 154.644 9.12953 155.235 9.18523L155.131 9.64079Z" fill="#DCCEBD"/>
<path d="M64.7272 11.1797C65.1034 11.2455 65.4607 11.3935 65.793 11.4446C66.111 11.6475 66.004 11.5438 66.1819 11.884L65.9845 12.0615C65.4619 12.1707 65.3936 12.137 64.9168 11.9274C64.6245 11.5701 64.6949 11.7513 64.7272 11.1797Z" fill="#DCCEBD"/>
<path d="M32.8617 85.7119C33.2967 85.6948 33.7026 85.6347 34.0815 85.8475L34.1095 86.0733L33.8061 86.3763C33.2655 86.3006 32.919 86.2818 32.4265 86.0404L32.4272 85.8788L32.8617 85.7119Z" fill="#DCCEBD"/>
<path d="M120.781 85.8391C121.561 85.7099 122.416 85.5505 122.781 86.3048C121.882 86.3846 121.421 86.5541 120.781 85.8391Z" fill="#DCCEBD"/>
<path d="M156.05 9.14844L156.044 8.75256C156.439 8.61552 157.157 8.8594 157.444 9.15157L157.377 9.37736L157.455 9.38362C157.111 9.55101 156.937 9.54246 156.561 9.57879L156.449 9.25884L156.05 9.14844Z" fill="#DCCEBD"/>
<path d="M57.0438 87.4973C56.5402 88.1883 56.8224 88.7117 56.3661 89.0572C56.3431 88.4888 56.5333 86.695 57.0465 86.4189L57.2628 86.6625L56.9184 86.7906C56.8077 87.1843 56.8104 87.0164 57.0438 87.4973Z" fill="#DCCEBD"/>
<path d="M53.5963 88.2769C54.3472 88.6806 54.0125 89.6535 53.8223 90.2886C53.2464 89.8269 53.4833 88.9146 53.5963 88.2769Z" fill="#DCCEBD"/>
<path d="M25.5404 100.819C25.912 100.988 25.7903 100.885 26.0237 101.199C25.8497 101.555 25.1797 101.766 24.7699 101.945L24.5694 102.003L24.5061 101.839C24.7274 101.451 25.1868 101.115 25.5404 100.819Z" fill="#DCCEBD"/>
<path d="M72.642 102.295C73.2948 102.369 73.4539 102.385 74.0568 102.63L74.0873 102.793L73.7422 102.92C73.3253 103.047 73.133 103.155 72.7252 103.023C72.5279 102.659 72.5805 102.809 72.642 102.295Z" fill="#DCCEBD"/>
<path d="M30.1033 87.0013C30.5349 86.9565 30.8636 86.944 31.2945 86.9336C31.7552 87.1902 31.6143 87.0516 31.8032 87.6359C30.9395 87.6252 30.6469 87.6718 30.1033 87.0013Z" fill="#DCCEBD"/>
<path d="M152.653 13.5586L153 13.6005L153.054 13.7861C152.775 14.2417 152.559 14.32 152.09 14.5754C151.97 14.5502 151.843 14.457 151.73 14.3899L151.708 14.1945C151.925 13.8526 152.285 13.7305 152.653 13.5586Z" fill="#DCCEBD"/>
<path d="M32.1919 67.4468L32.4755 67.5781L32.5046 67.8058C32.1445 68.1729 31.6693 68.2984 31.1828 68.4791L30.8323 68.31C30.9279 68.0288 31.7812 67.6887 32.1919 67.4468Z" fill="#DCCEBD"/>
<path d="M67.8334 5.53184C67.6982 4.88924 67.6128 4.95605 67.8442 4.47001C68.4 4.42869 68.2489 4.45476 68.8092 4.83682C68.5404 5.21987 68.2517 5.32158 67.8334 5.53184Z" fill="#DCCEBD"/>
<path d="M88.7537 59.667C89.3263 59.726 89.2805 59.6378 89.6961 59.9387C89.6603 60.3179 89.6918 60.1844 89.3779 60.5199C88.9406 60.4884 88.7945 60.4944 88.3795 60.31L88.3623 60.076L88.7537 59.667Z" fill="#DCCEBD"/>
<path d="M14.9597 79.7148L15.2586 79.8472C15.3429 80.3315 15.2631 81.1891 15.0231 81.6387L14.6879 81.4374C14.5643 81.0146 14.8436 80.2469 14.9597 79.7148Z" fill="#DCCEBD"/>
<path d="M149.24 25.793C149.895 26.1115 149.902 27.3564 150.12 28.1525L149.864 28.1748C149.538 27.8525 149.375 26.4069 149.24 25.793Z" fill="#DCCEBD"/>
<path d="M22.3831 64.1383C23.0844 64.1288 23.8924 64.5395 24.2732 65.1344C23.2561 65.1052 23.0353 64.8962 22.3831 64.1383Z" fill="#DCCEBD"/>
<path d="M9.8125 39.5068L10.3079 39.6321C10.5792 39.988 10.478 40.5371 10.4529 41.006C10.1445 41.0138 10.2608 41.0326 9.97334 40.8522C9.81307 40.4094 9.82856 39.9781 9.8125 39.5068Z" fill="#DCCEBD"/>
<path d="M50.2459 9.95508C50.6984 10.0462 50.6069 9.95864 50.8789 10.2388C50.7264 10.6237 50.6531 10.5787 50.2636 10.8394C49.7484 10.7294 49.8429 10.8232 49.4917 10.499C49.7177 10.1056 49.7522 10.1884 50.2459 9.95508Z" fill="#DCCEBD"/>
<path d="M11.6154 28.9463C12.0812 29.0051 12.0161 28.9212 12.2821 29.1852C11.9827 29.5816 12.0344 29.4731 11.4959 29.6644C11.0562 29.617 11.0263 29.6895 10.7427 29.4295C11.0462 29.0323 11.0483 29.1323 11.6154 28.9463Z" fill="#DCCEBD"/>
<path d="M62.8408 35.0343C62.369 34.9092 61.6134 34.4997 61.7405 33.9302C62.2675 33.9488 62.5248 34.3456 62.9268 34.7582L62.8408 35.0343Z" fill="#DCCEBD"/>
<path d="M117.081 53.8647C117.574 53.9119 117.4 53.8331 117.754 54.1401L117.726 54.386L117.382 54.6122C116.949 54.5257 116.767 54.5075 116.369 54.2868C116.514 53.9881 116.688 54.0119 117.081 53.8647Z" fill="#DCCEBD"/>
<path d="M9.05518 17.878C9.56989 17.8789 10.1935 17.8135 10.6003 18.0967L10.6247 18.4414C10.003 18.4219 9.55124 18.5087 9.06814 18.2179L9.05518 17.878Z" fill="#DCCEBD"/>
<path d="M14.8608 109.992C15.326 110.036 15.81 109.988 16.1686 110.281C15.7423 110.504 14.875 110.458 14.3647 110.465L14.8608 109.992Z" fill="#DCCEBD"/>
<path d="M6.80029 57.5771C7.64472 57.7249 8.02334 57.6638 8.33056 58.4868C7.51133 58.3421 6.97874 58.4252 6.80029 57.5771Z" fill="#DCCEBD"/>
<path d="M112.698 16.0581C112.789 16.1159 112.932 16.2795 113.014 16.3648L112.961 16.5483C112.583 16.7718 112.196 16.7207 111.757 16.7115C111.666 16.6427 111.585 16.5226 111.511 16.4285C111.82 16.1614 112.249 16.1496 112.698 16.0581Z" fill="#DCCEBD"/>
<path d="M121.285 66.1558C121.593 66.2253 121.576 66.2221 121.792 66.4585C121.612 66.8338 121.625 66.7361 121.164 66.9263C120.789 66.8371 120.663 66.827 120.356 66.5992C120.598 66.2929 120.851 66.2976 121.285 66.1558Z" fill="#DCCEBD"/>
<path d="M144.507 49.2447C145.043 49.2098 145.326 49.1642 145.846 49.3065L145.958 49.5367L145.772 49.8655C145.303 49.7961 144.908 49.7712 144.493 49.5408L144.507 49.2447Z" fill="#DCCEBD"/>
<path d="M64.7273 11.1797C64.9777 10.7794 65.044 10.612 65.4862 10.4146L65.681 10.545C65.8547 11.5227 65.3555 10.7717 65.7932 11.4446C65.4609 11.3935 65.1035 11.2455 64.7273 11.1797Z" fill="#DCCEBD"/>
<path d="M109.076 8.38557C109.818 8.23956 110.77 8.09326 111.356 8.61634C110.724 8.73073 109.626 8.76022 109.076 8.38557Z" fill="#DCCEBD"/>
<path d="M91.0814 83.3163C90.7602 82.8988 90.3099 82.3886 90.1733 81.8987L90.331 81.8096C91.2688 82.1072 90.7496 82.8124 91.4294 83.2854L91.0814 83.3163Z" fill="#DCCEBD"/>
<path d="M59.4382 91.8755L59.6465 92.0622C59.8077 92.6358 59.6894 93.335 59.4861 93.8885L59.4502 93.8321C59.0281 93.1826 59.2541 92.5856 59.4382 91.8755Z" fill="#DCCEBD"/>
<path d="M28.1635 58.8291C28.5998 59.2008 28.4076 60.1058 28.2187 60.5686C28.0163 60.4498 27.9987 60.3993 27.8556 60.2166C27.827 59.6261 27.9528 59.3871 28.1635 58.8291Z" fill="#DCCEBD"/>
<path d="M76.7192 8.83887C77.4822 8.94428 77.7035 8.93132 78.4733 8.85411L78.4864 9.26508C77.8711 9.30355 77.1466 9.39287 76.561 9.24158L76.7192 8.83887Z" fill="#DCCEBD"/>
<path d="M177.676 41.2678C178.107 41.1945 178.307 41.1339 178.74 41.2392C178.961 41.5902 178.911 41.4272 178.792 41.9821C178.303 41.861 178.023 41.8285 177.637 41.5025L177.676 41.2678Z" fill="#DCCEBD"/>
<path d="M113.892 20.1815C114.372 20.1547 114.82 20.0413 115.088 20.4711L114.938 20.8595C114.497 20.8521 114.072 20.8138 113.772 20.4629L113.892 20.1815Z" fill="#DCCEBD"/>
<path d="M19.0458 59.8091C19.4929 60.645 19.568 60.6508 19.1269 61.4671C19.0052 61.3906 18.911 61.2669 18.8102 61.1568C18.6984 60.6326 18.8642 60.3161 19.0458 59.8091Z" fill="#DCCEBD"/>
<path d="M50.4743 5.63379C50.9411 5.64818 51.3969 5.60402 51.7691 5.86542L51.8253 6.19063C51.3485 6.18992 50.5865 6.28337 50.3042 5.90317L50.4743 5.63379Z" fill="#DCCEBD"/>
<path d="M28.1638 88.7209C28.3328 88.348 28.3873 88.0977 28.7399 87.9199C29.064 88.2299 29.1056 88.3481 28.9612 88.8164L28.9994 88.9429C28.7352 88.9137 28.4231 88.8016 28.1638 88.7209Z" fill="#DCCEBD"/>
<path d="M84.1519 62.7139C84.8559 62.7535 85.2497 62.7461 85.6763 63.3881C85.286 63.4877 85.187 63.4664 84.7829 63.4285C84.3906 63.2414 84.3469 63.0899 84.1519 62.7139Z" fill="#DCCEBD"/>
<path d="M95.4271 62.1872C95.3438 61.6752 95.1877 61.2023 95.4582 60.7886L95.6622 60.7894C95.9033 61.2246 95.7414 61.6736 95.6215 62.1644L95.4271 62.1872Z" fill="#DCCEBD"/>
<path d="M115.159 25.7676L115.494 25.9442C115.787 26.3207 115.791 26.8474 115.852 27.3365L115.417 27.1709C115.115 26.7727 115.171 26.2828 115.159 25.7676Z" fill="#DCCEBD"/>
<path d="M48.8791 86.3948C49.1733 86.3052 49.0295 86.3065 49.3253 86.3912L49.2388 86.5861C48.759 86.9236 48.6734 86.9742 48.1197 87.1625L47.9431 87.2944L47.8237 87.1893C48.0912 86.7545 48.4255 86.6324 48.8791 86.3948Z" fill="#DCCEBD"/>
<path d="M70.2707 5.3623C70.467 5.42484 70.6486 5.55946 70.8249 5.67242L70.8718 5.98881L70.5844 6.35107C70.2624 6.23867 70.0903 6.15363 69.7861 5.99821L69.7917 5.78197L70.2707 5.3623Z" fill="#DCCEBD"/>
<path d="M86.8245 52.6715C87.7293 52.4656 87.9792 52.5651 88.8132 52.9829C87.9429 53.0922 87.485 53.2721 86.8245 52.6715Z" fill="#DCCEBD"/>
<path d="M29.9321 107.357C30.6891 107.289 31.1384 107.144 31.6506 107.74C30.9245 107.796 30.2625 108.046 29.9321 107.357Z" fill="#DCCEBD"/>
<path d="M57.0164 19.4625C57.7125 19.4342 58.0854 19.3176 58.4578 19.947C58.0225 20.0369 57.8508 20.0238 57.4206 20.0134C57.0212 19.7574 57.1267 19.9064 57.0164 19.4625Z" fill="#DCCEBD"/>
<path d="M16.2063 70.3175C16.3443 70.3047 16.4825 70.2949 16.6209 70.2879C17.1825 70.2614 17.4524 70.3286 17.8396 70.6806C16.9305 70.8554 16.6816 71.1029 16.2063 70.3175Z" fill="#DCCEBD"/>
<path d="M97.8455 63.6343L98.1566 63.7739C98.4211 64.2213 98.2973 64.7005 98.2372 65.2317L97.965 65.1965C97.7589 64.7784 97.8317 64.1217 97.8455 63.6343Z" fill="#DCCEBD"/>
<path d="M6.12329 59.7827C6.65259 59.6945 6.99657 59.6504 7.44526 59.8864L7.55923 60.272C7.03475 60.281 6.69304 60.3286 6.22171 60.0988L6.12329 59.7827Z" fill="#DCCEBD"/>
<path d="M72.3088 100.676L72.9312 101.002L72.9946 101.253L72.6478 101.621C72.2801 101.544 72.1908 101.518 71.8495 101.361L71.8354 101.12L72.3088 100.676Z" fill="#DCCEBD"/>
<path d="M104.428 61.7314C104.894 62.0084 105.017 61.9782 105.235 62.3871C104.769 62.6275 104.082 62.2852 103.645 62.0847L104.428 61.7314Z" fill="#DCCEBD"/>
<path d="M68.0049 53.1562C68.3204 53.1647 68.4171 53.1943 68.7271 53.2682L68.8487 53.4998L68.574 54.3866L68.5099 54.5534L68.3346 54.4652L68.0049 53.1562Z" fill="#DCCEBD"/>
<path d="M56.9802 49.4429C57.1295 50.3459 57.0111 50.6986 56.8062 51.5748L56.7292 50.7103C56.6829 50.4916 56.5581 50.2728 56.458 50.0687L56.7751 49.9427L56.9802 49.4429Z" fill="#DCCEBD"/>
<path d="M161.647 51.8242C161.887 51.8554 162.19 51.9316 162.432 51.9849L162.53 52.2125L162.209 52.5809C161.943 52.6936 161.911 52.6926 161.621 52.7247C161.431 52.3701 161.539 52.313 161.647 51.8242Z" fill="#DCCEBD"/>
<path d="M75.7036 91.942C76.1347 91.9189 76.7864 91.9198 77.139 92.1716L77.0105 92.4129C76.552 92.4557 75.9992 92.5196 75.6389 92.2551L75.7036 91.942Z" fill="#DCCEBD"/>
<path d="M189.356 11.3131C190.044 11.2447 190.451 11.1414 190.714 11.8297C189.942 11.8899 189.639 12.0591 189.356 11.3131Z" fill="#DCCEBD"/>
<path d="M39.6436 107.329C40.254 107.343 40.4057 107.341 40.9874 107.508L41.0402 107.778C40.4924 107.847 40.1595 107.982 39.751 107.744L39.6436 107.329Z" fill="#DCCEBD"/>
<path d="M45.0594 24.3384C45.2507 24.461 45.2831 24.617 45.3723 24.8317C45.356 25.2924 45.2254 25.4183 44.9632 25.7828L44.7144 25.3655C44.6897 24.8719 44.8056 24.7462 45.0594 24.3384Z" fill="#DCCEBD"/>
<path d="M167.82 10.2305L168.278 10.4799C168.427 10.948 168.285 10.9997 168.063 11.5816L168.05 11.5896L167.902 11.5234C167.753 10.9903 167.639 10.7511 167.82 10.2305Z" fill="#DCCEBD"/>
<path d="M39.1551 72.5864C39.3316 72.6461 39.4299 72.7122 39.592 72.8018C39.7769 73.1829 39.6281 73.5189 39.5126 73.927L39.1933 73.7909C38.9322 73.3146 39.0606 73.2544 39.1551 72.5864Z" fill="#DCCEBD"/>
<path d="M70.0027 17.8823C70.1693 17.9047 70.3945 17.9672 70.5637 18.0077C70.859 18.5073 70.7505 18.7194 70.7453 19.3747C70.089 19.0484 70.6709 18.9415 70.0027 17.8823Z" fill="#DCCEBD"/>
<path d="M43.7943 45.2329L44.1114 45.3662C44.3488 45.7519 44.3057 46.2457 44.3231 46.7217L44.0085 46.6402C43.7286 46.2856 43.7937 45.707 43.7943 45.2329Z" fill="#DCCEBD"/>
<path d="M95.0195 20.1909C95.5443 20.5898 95.5915 21.2224 95.3298 21.7852C94.76 21.3728 94.997 20.8908 95.0195 20.1909Z" fill="#DCCEBD"/>
<path d="M22.3701 60.6992C22.754 61.0623 22.7422 61.7863 22.5527 62.2448L22.1998 62.0462C22.0244 61.6407 22.241 61.1428 22.3701 60.6992Z" fill="#DCCEBD"/>
<path d="M148.545 48.177C149.112 47.9052 149.615 48.3502 149.948 48.773C149.526 48.7703 149.037 48.5719 148.629 48.4341L148.545 48.177Z" fill="#DCCEBD"/>
<path d="M14.6428 19.5896C15.1502 19.5557 15.4905 19.4991 15.9756 19.6564L15.9974 19.8936C15.4894 19.9939 15.1352 20.1571 14.7472 19.946L14.6428 19.5896Z" fill="#DCCEBD"/>
<path d="M12.5456 105.487L12.9299 105.554C12.9586 106.098 12.9857 106.238 12.8132 106.761L12.6393 106.812C12.3935 106.327 12.4785 106.031 12.5456 105.487Z" fill="#DCCEBD"/>
<path d="M187.035 69.8203C187.513 70.1501 187.72 70.1655 187.89 70.6126C187.503 70.6666 187.241 70.4941 186.913 70.248C186.859 70.2075 186.806 70.166 186.754 70.1237L187.035 69.8203Z" fill="#DCCEBD"/>
<path d="M39.6272 5.6416C39.9276 5.66938 39.9964 5.70827 40.2818 5.81724L40.3636 6.07907L40.1354 6.44161C39.8802 6.41013 39.6073 6.36027 39.3516 6.3191L39.2664 6.14075L39.6272 5.6416Z" fill="#DCCEBD"/>
<path d="M36.8303 79.0581L37.1585 79.3506C37.2909 79.9171 37.2349 79.7917 37.0626 80.4144L36.7395 80.0523C36.6217 79.453 36.6353 79.6621 36.8303 79.0581Z" fill="#DCCEBD"/>
<path d="M156.05 9.14844L156.449 9.25884L156.561 9.57878C156.101 9.61155 155.596 9.6218 155.132 9.64075L155.235 9.18519C155.625 9.29288 155.67 9.28961 156.05 9.14844Z" fill="#DCCEBD"/>
<path d="M146.233 4.21729L146.595 4.52812C146.77 4.969 146.643 5.18881 146.491 5.63069L146.284 5.47799C146.053 5.10562 146.174 4.66145 146.233 4.21729Z" fill="#DCCEBD"/>
<path d="M55.7568 29.1429C56.4139 29.1067 56.4209 29.0006 56.906 29.2754L56.9576 29.6293C56.309 29.6566 56.0117 29.7744 55.7568 29.1429Z" fill="#DCCEBD"/>
<path d="M71.3312 92.1206C71.653 92.7482 71.7525 93.045 71.4425 93.7052C70.9258 93.1923 71.158 92.7609 71.3312 92.1206Z" fill="#DCCEBD"/>
<path d="M71.8621 8.37034C72.4039 8.35196 73.106 8.2786 73.5931 8.46649C73.4474 8.77932 73.4929 8.67989 73.0807 8.86109L72.0039 8.51422L71.8621 8.37034Z" fill="#DCCEBD"/>
<path d="M159.737 0.099301C160.401 0.0109522 160.847 -0.175261 161.232 0.41224C160.665 0.474605 160.422 0.526102 159.869 0.400873L159.737 0.099301Z" fill="#DCCEBD"/>
<path d="M139.906 44.4424C140.202 45.0873 140.236 45.3886 139.959 46.031C139.458 45.3777 139.605 45.132 139.906 44.4424Z" fill="#DCCEBD"/>
<path d="M46.6773 89.4629L46.985 89.6193L46.988 89.8452L46.3451 90.2683L45.897 89.965L45.9449 89.7847L46.6773 89.4629Z" fill="#DCCEBD"/>
<path d="M75.235 85.478L75.6478 85.7511L75.6792 85.987L75.2323 86.3661C74.9618 86.2568 74.8919 86.2003 74.6494 86.0335L74.6919 85.8152L75.235 85.478Z" fill="#DCCEBD"/>
<path d="M48.4553 103.353C49.0853 103.337 49.1113 103.232 49.5569 103.514L49.5744 103.853C48.9318 103.878 48.6759 104.003 48.4553 103.353Z" fill="#DCCEBD"/>
<path d="M23.1519 110.088C23.8917 109.986 24.2949 109.904 24.9318 110.293C24.1636 110.426 23.8138 110.489 23.1519 110.088Z" fill="#DCCEBD"/>
<path d="M103.645 62.0846C103.241 62.0534 103.148 62.1139 102.86 61.8961C103.331 61.674 103.901 61.7268 104.428 61.7313L103.645 62.0846Z" fill="#DCCEBD"/>
<path d="M56.499 49.0089C55.8736 49.0076 55.8512 49.1103 55.4165 48.8184C55.7423 48.5146 55.7255 48.5954 56.221 48.4902L56.499 49.0089Z" fill="#DCCEBD"/>
<path d="M47.2227 93.1812C47.5998 93.5679 47.5732 93.9334 47.5901 94.4504L47.1509 94.138C46.9958 93.6384 47.053 93.7592 47.2227 93.1812Z" fill="#DCCEBD"/>
<path d="M34.624 110.085C35.0332 110.023 35.4071 109.924 35.7868 110.089L35.8981 110.392C35.397 110.428 34.9207 110.548 34.624 110.085Z" fill="#DCCEBD"/>
<path d="M75.3307 17.2241L75.5534 17.3812C75.4802 17.7798 75.2589 17.8241 74.8567 18.1395L74.6284 18.0525C74.7114 17.6538 74.9661 17.5508 75.3307 17.2241Z" fill="#DCCEBD"/>
<path d="M14.3647 110.465C13.8988 110.366 13.9616 110.453 13.6809 110.168C14.0503 109.893 14.4027 109.965 14.8608 109.992L14.3647 110.465Z" fill="#DCCEBD"/>
<path d="M150.266 1.55859L150.511 1.72548C150.741 2.17699 150.658 2.10414 150.587 2.69318L150.35 2.69575C150.128 2.24219 150.229 2.13949 150.266 1.55859Z" fill="#DCCEBD"/>
<path d="M39.228 54.7415C39.5349 54.3815 39.5356 54.2408 39.9074 54.1885C39.9366 54.6009 39.7657 54.7714 39.5326 55.1057L39.228 54.7415Z" fill="#DCCEBD"/>
<path d="M87.4045 62.8667C87.8396 62.9995 87.8057 62.9084 87.9647 63.1988L87.7474 63.571L87.0491 63.2562L87.012 63.0861L87.4045 62.8667Z" fill="#DCCEBD"/>
<path d="M185.989 64.0426C186.726 63.9792 186.917 63.8644 187.385 64.461C186.788 64.5176 186.514 64.32 185.989 64.0426Z" fill="#DCCEBD"/>
<path d="M118.91 3.36719L119.172 3.54198C119.397 4.01136 119.322 3.90224 119.227 4.50239C118.817 4.26635 118.909 3.76534 118.91 3.36719Z" fill="#DCCEBD"/>
<path d="M129.635 52.8237C129.988 52.8982 130.041 52.933 130.352 53.1189L130.33 53.4512L130.247 53.4662C129.893 53.2319 129.861 53.1856 129.635 52.8237Z" fill="#DCCEBD"/>
<path d="M57.0439 87.4974C56.8106 87.0164 56.8079 87.1844 56.9186 86.7907L57.263 86.6626C57.2041 86.9374 57.1537 87.2422 57.0439 87.4974Z" fill="#DCCEBD"/>
</svg>
