<svg width="199" height="119" viewBox="0 0 199 119" fill="none" xmlns="http://www.w3.org/2000/svg">
<g filter="url(#filter0_ii_12_6869)">
<path d="M87.3767 74.2284C88.1326 74.0548 89.2868 73.0882 89.8701 72.5384C90.541 71.9062 90.1805 71.0947 90.6434 70.557L91.0011 70.5369C91.436 70.9107 90.8783 71.0869 91.2069 71.7299C92.0988 71.9552 96.669 68.8641 97.8921 68.4607C101.248 67.3538 99.692 69.9003 99.9443 71.7224C99.9687 71.8996 100.547 72.0516 100.777 72.1487L100.732 72.3439C100.322 72.4157 100.096 72.4408 99.7052 72.6104C99.5031 73.1748 98.9683 75.132 99.3582 75.5908C99.9725 75.4518 100.857 74.1428 101.485 73.7548C104.899 71.6445 109.13 67.6242 113.447 68.2085C115.599 68.4997 116.214 70.9946 117.146 72.5525C117.016 73.4666 116.664 75.9915 117.075 76.7482L117.296 76.7756C117.926 76.2739 118.68 74.4882 118.93 74.3005C120.941 72.7959 126.711 69.6949 128.849 68.803C129.36 68.5846 129.899 68.4423 130.45 68.3806C130.872 68.3367 131.305 68.3296 131.647 68.6055C131.913 69.1651 131.768 69.9533 131.613 70.5355L131.219 70.6483C131.008 71.6688 131.792 71.3855 130.929 72.0913C130.836 72.6966 130.413 74.983 130.523 75.4519C130.895 75.5085 131.008 75.4979 131.379 75.2244C132.245 74.586 133.045 73.6858 133.871 73.0254C134.422 72.5842 135.568 72.2066 136.202 71.7814C138.675 70.1239 141.181 67.9176 144.389 68.3129C145.31 68.4265 145.938 68.7322 146.733 69.1801C147.557 70.4822 148.211 71.7289 148.282 73.303C148.519 78.4712 146.91 85.7551 144.156 90.0647C143.887 89.4957 144.174 89.454 143.941 88.9233C143.405 89.556 143.283 90.0825 142.828 90.7832C142.294 91.6063 141.03 92.0898 140.992 92.9904C141.391 92.9181 141.943 92.1618 142.206 91.8144C142.059 92.4703 141.482 92.8751 141.558 93.4C139.165 95.5911 134.622 99.2618 131.529 100.219C130.61 100.504 127.826 100.375 126.722 100.325C126.087 100.295 125.454 100.253 124.821 100.199C123.896 103.868 123.329 107.542 122.33 111.203C121.927 112.68 121.74 114.105 121.092 115.539C123.861 115.86 126.599 115.846 129.368 116.061C129.579 116.077 129.715 116.188 129.855 116.334L129.768 116.562C128.327 117.134 128.724 117.608 127.392 118.456C126.245 118.282 125.179 118.33 124.027 118.319C119.707 118.278 115.266 118.434 110.953 118.174C110.643 117.309 111.651 116.607 112.251 116.087C112.869 115.98 115.231 115.826 115.427 115.33C118.026 108.743 119.102 101.669 120.837 94.8367C122.365 88.8209 124.203 82.6066 124.435 76.3705C124.544 73.4526 118.342 76.8977 117.061 77.1591C116.202 79.3644 116.514 80.1996 115.248 82.7983C116.201 83.2929 117.104 83.7691 118.087 84.2109L118.077 84.4569C117.096 84.9972 116.279 84.4246 115.397 83.9521C114.726 84.3788 113.272 90.0138 112.278 91.0756C110.525 92.9472 106.156 97.4572 103.608 97.7642C103.049 97.9715 103.199 97.828 102.956 98.2624C102.993 98.6619 103.105 99.0666 102.951 99.3705C101.711 99.1842 100.35 99.9665 99.1082 100.19C97.9194 100.403 96.1951 100.38 94.9783 100.2C94.1362 100.076 94.5869 99.7742 93.9026 99.5906C93.3941 100.579 89.6415 114.693 90.0991 115.341C90.5735 116.012 97.525 115.484 98.4251 116.354C97.9826 116.641 97.158 117.107 96.9007 117.539C96.6949 118.027 95.902 118.224 95.4461 118.253C92.3958 118.446 89.3341 118.226 86.285 118.099C85.3288 118.059 80.1908 118.212 79.7646 117.861C79.9746 115.331 82.1716 115.976 83.864 115.527C84.7167 115.3 84.8541 113.565 85.0564 112.73L86.3751 107.425C87.0404 104.818 88.0262 101.725 88.5862 99.0285C88.6474 98.7334 88.2635 98.0146 88.1154 97.6991L88.303 97.4629C88.6808 97.3799 88.7727 97.3861 89.072 97.1604C90.1639 93.5154 91.0677 88.074 91.5073 84.213C91.5524 83.8166 91.3162 83.6254 91.0815 83.3157L91.4295 83.2848C92.7372 82.4194 93.2228 77.6639 93.4242 76.0586C93.0437 75.7512 92.3714 75.1918 91.9737 74.9479C91.1135 74.4207 90.1207 75.3937 89.3951 75.7213C89.0029 75.8984 88.4177 76.07 87.9773 76.2008C87.3324 75.7162 87.7515 75.2119 87.3767 74.2284ZM129.473 95.9415C131.366 96.4189 133.387 96.7149 135.131 95.5334C138.654 93.1469 140.958 87.8438 141.97 83.9042C143.031 79.7736 142.651 77.8961 142.081 74.0085C141.278 73.7186 140.926 73.5647 140.048 73.5723C139.018 73.9706 137.9 73.9697 136.922 74.3689C135.443 74.9734 130.034 78.4722 129.453 79.8138C129.041 80.7661 126.405 94.3461 126.576 94.8535C126.643 95.0525 127.524 95.3345 127.76 95.4152C128.299 95.5989 128.912 95.8572 129.473 95.9415ZM98.2986 95.9542C98.5731 96.3951 98.9521 96.4575 99.4499 96.3133L99.6677 96.0535C100.037 95.9727 101.05 96.0417 101.506 96.0068C102.163 95.9566 102.744 95.8588 103.393 95.7521C106.952 92.8559 108.676 89.8667 109.8 85.5266C110.22 83.9073 110.952 82.1542 111.085 80.3255C111.178 78.7564 111.272 75.2851 110.207 74.0616C108.751 72.3904 106.292 74.334 105.059 74.9069C102.832 75.9425 101.257 76.7168 99.3306 78.3322C97.4648 79.8964 97.6958 82.3103 97.0478 84.4706C96.5714 86.5746 95.5026 89.6235 95.3581 91.7069C95.4609 91.8389 95.5184 91.9344 95.6083 92.077C95.7552 92.31 95.4545 92.5515 95.2853 92.8114C94.9962 93.256 94.8208 93.7271 94.6336 94.2261C95.9706 94.5156 97.2239 95.1065 98.2986 95.9542Z" fill="#DCCEBD"/>
<path d="M101.852 81.248C102.265 80.8261 102.136 80.5375 102.336 80.3195C103.515 79.0356 104.228 79.643 104.422 81.1712C103.476 80.8784 102.81 81.0688 101.852 81.248Z" fill="#DCCEBD"/>
<path d="M104.422 81.1712L104.332 81.4443C103.635 81.7366 102.323 82.0483 101.661 81.5832L101.709 81.3015L101.852 81.248C102.81 81.0688 103.476 80.8783 104.422 81.1712Z" fill="#DCCEBD"/>
<path d="M104.827 85.6063L104.285 85.3022C104.191 84.848 103.991 84.5737 103.812 84.1241L103.936 83.9802C104.539 84.1375 104.371 84.7171 105.16 85.2998L104.827 85.6063Z" fill="#DCCEBD"/>
<path d="M105.16 85.2998C105.585 85.6937 105.776 85.7481 106.324 85.9239L106.443 86.1034L106.3 86.4025C105.749 86.3692 105.316 85.9611 104.828 85.6064L105.16 85.2998Z" fill="#DCCEBD"/>
<path d="M107.665 84.8281L108.063 85.024C108.201 85.4542 107.948 85.9252 107.778 86.3811L107.428 86.3162C107.288 85.8828 107.529 85.2948 107.665 84.8281Z" fill="#DCCEBD"/>
<path d="M98.2986 95.9544C98.4363 95.474 98.5028 94.933 98.8286 94.6343C99.4017 95.0186 99.2313 95.7042 99.6676 96.0537L99.4499 96.3135C98.9521 96.4577 98.573 96.3953 98.2986 95.9544Z" fill="#DCCEBD"/>
<path d="M45.7464 42.5967C47.2147 38.4955 47.5057 34.936 48.3222 30.7203C48.7009 28.7649 49.5654 26.4986 49.947 24.49C50.1198 24.0789 49.8945 22.0198 50.0495 21.7606C51.5948 19.0586 51.8326 16.4633 52.6224 13.4346C54.0357 8.01529 58.1957 4.68163 62.7389 1.86992C64.4662 0.800961 68.7617 0.489547 70.7013 1.07871C71.654 1.97666 69.4873 4.12564 68.8091 4.8369C68.2488 4.45484 68.3999 4.42878 67.8442 4.47009C67.6128 4.95613 67.6982 4.88932 67.8334 5.53192C66.3429 5.16525 62.4375 4.6624 61.2431 5.65928C59.1402 7.41443 57.8971 13.456 57.2941 16.0613C56.5377 19.3294 56.0482 22.0168 55.074 25.197C54.5845 27.0194 54.7834 28.525 53.6195 30.113C53.4505 30.3438 53.0983 33.5155 52.8871 33.9994C52.4091 36.7751 50.1366 44.6597 51.3764 47.1097C53.0187 48.4233 56.1319 45.2628 57.5881 45.0434C58.1069 44.9869 58.2523 44.9608 58.34 44.4743C59.0163 43.6634 60.6251 43.2933 61.2506 41.4568C61.5382 40.6123 63.0407 35.5254 62.8407 35.034L62.9267 34.758C63.6323 33.3505 65.5079 30.8266 64.5071 29.4444C64.5927 28.7134 64.6895 28.5982 65.1345 27.9983C65.4759 28.2538 65.5647 28.3525 66.0048 28.3519C66.4967 28.1731 66.5776 27.9258 66.9217 27.5438C67.7822 26.5882 69.0294 25.9859 70.0756 25.2652C73.4007 22.9745 75.2645 21.288 79.4791 21.1344C81.8976 21.0569 84.3497 21.45 86.7306 21.8411C87.8806 22.03 88.6249 21.6812 89.5674 22.5407C89.7297 23.7154 88.0641 24.135 87.4433 25.9754C86.1511 29.8046 85.6009 33.3554 84.9417 37.2818C84.6505 39.0159 82.7291 44.6953 83.5274 46.5201C84.7656 47.867 89.6346 44.06 90.6665 43.1015C91.5313 40.6894 91.6687 38.0308 92.5119 35.8469C92.9339 34.7536 94.6894 30.6561 95.3216 29.8561C97.7143 26.8277 101.907 23.989 105.361 22.2252C106.423 21.683 108.21 21.4266 109.326 21.8897C111.045 22.6025 111.541 24.2379 112.231 25.8296C112.235 26.1039 112.226 26.8352 112.289 27.0567C111.926 29.484 109.626 29.4924 107.603 29.9937C107.446 29.2087 107.327 28.6397 107.263 27.8361C105.289 25.7812 105.09 25.1661 102.087 26.1759C101.336 27.056 100.148 28.451 99.6637 29.4815C97.5499 33.9813 94.5784 43.8609 97.8488 48.2345C98.6551 48.5892 99.66 49.0889 100.507 49.1764C104.91 49.6307 108.639 46.1684 112.028 43.8872C112.33 43.684 112.73 43.645 113.052 43.807C113.308 44.438 112.941 45.4378 112.733 46.0597C110.459 47.0771 109.835 48.369 107.393 49.3066C107.188 48.8831 107.285 48.9065 106.955 48.7582C106.373 49.2161 106.231 49.2435 105.49 49.2482C105.727 49.6573 105.855 49.5404 106.167 50.0875C104.501 51.1363 103.455 51.7945 102.054 53.1728C101.648 53.2594 101.014 53.5259 100.669 53.7635C98.9732 53.1225 98.1207 53.9028 96.3907 53.8297C94.8541 53.7649 93.4723 53.0226 92.1197 52.3537C91.524 50.9848 91.4304 51.2922 90.824 50.5588C90.3602 49.9979 90.6198 46.1507 90.6991 45.3933C89.5105 46.7844 86.946 48.4317 85.3145 49.2946C85.138 49.156 85.0698 49.1065 84.9123 48.9399C84.4397 49.0781 84.009 49.1325 83.763 49.5424L83.7478 49.8719C83.9138 49.9894 84.0994 50.0491 84.2893 50.1243C84.0254 50.3278 83.7579 50.5267 83.4868 50.7207C81.1377 52.4064 79.5574 53.5443 76.6131 53.0552C76.6286 51.3562 77.5876 46.6133 77.0853 45.5121L76.8752 45.4792L76.4796 46.0076C75.8838 45.5526 76.4583 45.404 75.4641 45.3415C74.8634 45.7957 74.9315 46.398 75.055 47.1076C73.9682 48.1443 72.8526 48.6579 71.5494 49.6048C69.2998 51.2395 64.7431 54.9083 61.9309 52.6806C61.2678 52.1554 60.8504 48.5193 60.7445 47.5678C60.6544 46.916 60.9169 45.8323 60.68 45.1781C59.7004 45.1067 57.0063 47.8507 56.221 48.4899C55.7255 48.5951 55.7423 48.5143 55.4165 48.8181C55.8512 49.11 55.8736 49.0073 56.499 49.0086L56.9802 49.4428L56.7751 49.9427L56.458 50.0686L56.282 49.9939L56.1333 49.7991C55.6404 49.7065 55.1692 49.5342 54.7357 49.2807C54.3924 49.3008 54.2371 49.481 53.9593 49.7012C53.4683 50.1318 53.0431 50.5177 52.5029 50.8915C51.8284 50.5378 51.2288 50.736 50.7707 51.3316L50.7953 51.6229L51.3108 51.8427C49.6131 53.3765 47.2826 53.6186 45.3422 52.3853C44.0759 48.1348 45.1475 47.8275 45.6374 43.7176C45.1422 43.6363 44.8543 43.6225 44.4324 43.3475L44.3838 43.1168C44.7521 42.7588 45.2367 42.7108 45.7464 42.5967ZM68.5637 48.0144C70.3077 47.4446 77.4467 43.3968 77.9728 42.0243C79.7071 37.4992 80.9178 31.5839 81.2408 26.7306C81.2405 26.7361 81.8356 26.5033 82.0242 26.1734C81.5702 25.3566 79.4672 25.3217 78.635 25.2228C76.3355 24.9497 74.691 25.0865 72.5244 25.8774C72.0011 25.8957 71.5606 25.8664 71.0975 26.1079C70.7597 26.9213 71.4428 26.665 70.9143 27.2869L70.7118 27.2789L70.5155 26.871C70.2527 27.1854 69.787 28.4728 70.1476 28.7978L70.3274 28.4012C70.5691 28.4953 70.4791 28.4161 70.6008 28.6516C68.7386 32.9062 66.8582 37.4337 66.6929 42.1341C66.6103 44.4845 66.1957 46.7145 68.5637 48.0144Z" fill="#DCCEBD"/>
<path d="M70.6008 28.6515C70.4791 28.416 70.5691 28.4952 70.3275 28.401L70.1477 28.7976C69.7871 28.4727 70.2527 27.1852 70.5155 26.8708L70.7118 27.2788L70.9143 27.2868C71.4428 26.6648 70.7597 26.9211 71.0976 26.1077C71.5606 25.8662 72.0011 25.8956 72.5245 25.8772C71.9993 26.6167 71.1183 28.0136 70.6008 28.6515Z" fill="#DCCEBD"/>
<path d="M27.1229 8.11201C28.5243 7.96956 30.8707 8.56743 31.3166 7.34619C31.9218 8.018 31.3946 8.0113 32.6825 8.06287C35.409 8.17213 37.9525 8.89094 40.5736 9.5938C41.0013 9.32542 41.377 9.0257 41.8726 9.0022C42.2787 9.75976 40.9555 10.23 42.1877 11.2556C42.1871 11.8051 42.6236 12.1606 43.0179 12.4796L43.8004 16.6248C42.9641 18.6312 42.4366 19.7166 41.2546 21.5326L40.9498 21.0176C40.6322 21.0504 38.3624 23.4004 38.0299 23.8099C37.9735 23.8793 37.9181 23.9497 37.8636 24.0208L38.4259 23.5379C37.8106 24.3057 37.0007 24.6887 36.664 25.3581L36.5514 25.4296C35.6767 25.9785 33.4898 26.8436 33.2039 27.5737C33.6313 28.1436 34.2346 27.5795 34.6713 27.7647C38.3249 29.3152 41.7603 29.8751 41.8834 34.6657L43.8186 33.3119C43.3613 34.503 42.8552 35.6705 42.4079 36.8611C41.7125 38.7117 41.3682 40.7351 40.2737 42.4152C39.069 44.2229 37.3178 45.7356 36.143 47.5777C34.5047 48.0601 33.2439 48.6183 31.6839 49.3028C31.487 49.1458 31.4293 49.1067 31.2658 48.9023C30.7436 48.8778 30.0877 48.9234 29.7109 49.3216L29.7646 49.4773C30.2982 49.6365 30.4884 49.6086 31.04 49.5832C29.6245 50.234 26.7655 51.6478 25.3203 51.943C20.0554 52.9866 14.5426 52.4561 9.19859 52.4987C7.92414 52.5088 2.23164 52.7326 1.69252 52.0747C3.6199 50.2402 3.95714 48.6881 6.66257 48.4707C9.41029 48.2499 13.5462 45.9285 13.9348 42.88C12.9387 42.5477 13.1886 41.2428 12.9916 40.3451C12.7504 39.2451 12.1119 39.5194 11.4639 39.0488C11.9008 38.7801 12.2354 38.7885 12.7458 38.7406C13.1418 36.1133 12.6355 33.844 12.4861 31.232C12.452 30.6365 12.9447 29.8304 12.9668 29.2469C13.0062 28.2146 12.715 27.0863 13.1545 26.115L13.3498 26.0912L13.1333 26.1586L13.3968 26.1761C13.9435 27.6073 13.3196 29.7498 13.3692 31.2318C13.4908 34.8571 12.9586 39.5569 14.0803 42.9222C15.278 39.5918 15.6676 37.4533 16.4156 34.1064C17.2606 30.3254 19.8424 25.4937 19.0123 21.4773C19.2613 21.2253 19.8643 20.589 19.9641 20.288C20.4384 18.8583 22.764 11.4002 22.1178 10.5472C21.3274 10.4522 21.404 10.8542 20.8204 10.9002C16.9515 11.2052 12.0532 13.0668 9.23883 15.7541C6.35252 18.7341 6.30576 23.1877 6.62853 27.0291C6.93104 30.629 7.45062 30.2541 4.22832 31.5725L4.15412 31.5603C3.8565 31.5099 3.81134 31.4978 3.53526 31.385C2.7102 31.5468 2.7354 31.8049 2.39048 32.5651C2.16158 32.5213 2.12925 32.5474 1.89644 32.5774C1.51381 33.08 1.57259 33.6319 1.54496 34.3025L1.36042 34.4706L1.19142 34.3141C1.00117 31.5844 -0.0307913 30.3875 0.000705974 27.7778C0.0177765 26.363 0.47915 24.9705 0.755504 23.6789C1.71145 19.211 4.43647 15.6462 8.21328 13.1655C8.81043 12.7733 9.85729 12.0086 10.4898 11.5764C10.5909 11.2914 10.6781 11.0455 10.7513 10.839L11.0155 10.7217C11.1904 10.8035 11.6734 11.04 11.8501 10.9954C15.4106 10.0955 19.3566 8.19919 23.0773 8.6086C23.4798 8.68211 23.6766 8.47128 23.9609 8.22384L24.2925 8.15261C25.191 8.23538 26.3471 8.46615 27.1229 8.11201ZM31.9475 10.2995C30.4723 10.2858 29.5433 10.2703 28.0642 10.0786C27.8836 11.9099 27.5184 13.6917 27.3385 15.4842C27.2103 16.762 28.034 17.6824 27.4279 19.2278L27.2263 19.3281C26.9115 18.8085 26.8222 18.1845 26.5096 18.0958C26.1838 18.8828 26.0098 20.0559 25.7459 20.9182C25.0137 23.3108 24.4315 25.8959 23.5828 28.2381C25.7078 27.2633 25.9181 27.1009 28.1394 27.8317L27.7476 25.951C28.1481 25.4571 28.5977 24.787 29.3169 24.8553C30.1849 25.7614 29.3722 26.9533 29.9903 26.8896C30.9563 26.7529 31.9214 25.7534 32.5357 25.0065C33.2967 24.0812 32.8609 24.538 33.7492 24.1216C35.5073 23.2977 36.5995 19.423 36.8654 17.8301C36.1367 17.7264 34.5667 17.3862 33.9768 17.8586C34.0295 18.3795 34.4858 18.6696 34.8997 18.9592C34.5596 19.5434 33.3599 19.5025 32.7698 19.3444L32.6009 19.1623C33.349 16.8373 34.9335 16.7735 37.1835 16.7741L37.1554 16.7153C36.5695 15.4627 36.7711 13.6725 36.1259 13.135C35.3279 13.3726 36.1357 13.8752 34.4316 13.6572L34.1944 13.4608C34.4068 12.7998 35.1061 11.8911 35.0664 11.4941C34.5037 11.0222 32.9003 10.2925 32.165 10.3162L31.9475 10.2995ZM14.0904 47.0336L13.0066 48.6264C20.7648 48.4852 29.8145 52.1002 34.0764 43.2606C35.5403 40.2244 35.6932 38.6469 35.5626 35.3024C34.9014 34.4006 34.5104 33.5833 33.7006 32.7514C31.2377 30.2206 26.8392 30.0243 23.5327 29.989C22.8083 32.1972 22.399 34.5421 21.5545 36.7423C21.1341 37.8382 20.3249 39.7264 20.2692 40.8431C18.6922 41.9263 18.2738 43.4504 16.9022 44.4256L16.686 44.1646C15.87 44.3225 15.6654 44.4037 15.167 45.1835C14.8274 45.7151 14.2297 46.487 14.0904 47.0336Z" fill="#DCCEBD"/>
<path d="M25.5938 45.3585L25.7866 45.0576C26.3927 45.523 26.4602 45.6628 26.5438 46.4477L26.4646 46.5464C25.9275 46.0733 26.1967 45.8237 25.5938 45.3585Z" fill="#DCCEBD"/>
<path d="M25.5938 45.3585C25.1502 45.1162 24.8181 45.0548 24.646 44.6831C25.0656 44.6165 25.3861 44.8522 25.7866 45.0577L25.5938 45.3585Z" fill="#DCCEBD"/>
<path d="M29.3957 16.8044C30.0205 16.8188 30.5716 16.6967 30.8762 17.2807C30.8393 17.6782 29.9683 18.6856 29.6062 18.8422C29.1624 18.8877 28.845 19.3848 28.4832 19.335C29.321 18.4792 29.3846 17.9008 29.3957 16.8044Z" fill="#DCCEBD"/>
<path d="M29.9338 12.2612L30.1915 12.3696C30.284 13.2004 30.3451 13.5097 30.1622 14.3466C29.8479 14.6851 30.0088 14.5829 29.4741 14.6796L28.9066 14.4121C28.3821 13.6516 29.3694 12.7278 29.9338 12.2612Z" fill="#DCCEBD"/>
<path d="M31.1063 19.4102C31.4454 19.5096 32.1953 20.1193 32.5074 20.3676L32.4455 20.6475C31.7795 20.7385 31.3897 20.7513 30.907 20.1959C30.8447 19.6619 30.7953 19.8721 31.1063 19.4102Z" fill="#DCCEBD"/>
<path d="M27.6441 19.9333C27.9783 19.9151 28.0235 19.9125 28.3245 20.0556C28.6599 20.461 28.6774 21.1523 28.7451 21.6976C27.9991 21.3899 27.6238 20.723 27.6441 19.9333Z" fill="#DCCEBD"/>
<path d="M14.0903 47.0335C14.2296 46.4869 14.8273 45.715 15.1669 45.1834C15.6653 44.4036 15.8699 44.3224 16.6859 44.1646L16.9021 44.4255C16.1858 45.064 14.6815 46.6012 14.0903 47.0335Z" fill="#DCCEBD"/>
<path d="M31.9475 10.2993L32.1649 10.316C32.2785 10.7552 32.4515 11.1775 32.2563 11.5758L32.0559 11.5453C31.8085 11.0888 31.8865 10.8183 31.9475 10.2993Z" fill="#DCCEBD"/>
<path d="M40.4334 55.8631C40.5627 55.9407 40.7462 56.0203 40.8862 56.0871C45.6475 54.5273 51.0707 55.5296 56.0001 55.188C56.6009 55.1464 57.4748 55.3356 58.085 55.4334C59.1307 55.476 60.9774 55.9851 61.9785 56.352C63.8432 57.3796 65.6494 58.4125 66.2508 60.6408C66.6828 62.2412 66.6033 65.1793 65.9892 66.6893C65.7813 67.8124 65.9037 68.1474 65.0965 68.9855L65.146 69.1158L65.4748 69.2624L65.48 69.4286C65.1868 69.7352 63.6932 71.6633 63.5947 71.9955L63.6489 72.2639C64.2845 72.4875 64.4518 72.3963 64.6762 72.8187L64.6204 73.2612C64.0299 73.1476 63.8462 73.0905 63.2599 73.2003C62.9536 72.7022 63.082 72.7285 62.6457 72.6167C61.6122 73.4241 62.3732 74.5118 62.023 75.4967C60.8849 76.0086 60.6239 74.9853 60.2048 75.3662C58.6936 76.7393 57.2693 77.6045 55.2243 78.1822C55.0869 78.3642 54.9483 78.5403 54.8237 78.7315C54.4177 78.6283 54.0094 78.535 53.599 78.4514L53.5274 78.1635L53.8965 77.7436L53.8678 77.853L53.8667 77.7511C53.3649 77.9826 52.8048 78.2031 52.4004 78.5715C52.3583 79.0755 52.4622 79.6363 52.2797 79.9715C51.9325 80.2799 51.9046 80.3772 51.7268 80.7932L51.5368 80.8855C51.5297 80.5322 51.5831 80.4888 51.7633 80.1671C51.7144 80.0437 51.659 79.8209 51.5696 79.7893C51.0653 79.6107 49.1804 80.1549 48.6319 80.3157L48.622 80.4893L49.3362 80.9809L49.3005 81.1244C48.485 81.2416 48.4587 80.8049 48.2239 80.8126C46.901 80.8554 45.359 80.9185 44.0488 80.9469C43.382 82.3409 43.4018 83.6241 43.0282 85.0182C42.112 88.4389 41.4336 92.6069 40.5001 95.9492C42.4196 95.8726 44.4469 95.8407 46.3364 95.6636C47.8347 95.5233 47.8474 94.5042 49.5767 95.2697C50.1485 95.523 52.0982 95.2404 52.8319 95.5922L52.8119 95.7636L52.7373 95.816C51.3823 95.9635 50.6251 96.0065 49.264 95.9867C49.24 96.4406 49.1469 96.8736 49.3905 97.2176L49.5935 97.3292C45.9379 98.5812 41.3665 99.1524 37.4991 98.8755C37.3228 99.4919 37.3836 99.6531 36.9873 100.043C36.5976 99.7494 36.4432 99.0565 36.2742 98.5528C35.9408 98.9142 35.4837 99.4501 35.0948 99.7148C34.4862 99.6392 34.2478 99.0332 34.0974 99.0172C33.2174 98.9241 31.6972 98.8286 30.8587 98.8658L29.9439 98.8877C29.0607 98.983 20.8346 99.0497 20.4465 98.7511L20.5169 98.4994L20.8889 98.3192C21.3053 98.3457 21.1696 98.392 21.5096 98.2134C21.5536 97.8054 21.5731 97.6819 21.6818 97.2904L21.7081 97.1977C21.785 97.0693 21.866 96.943 21.966 96.831C23.3622 95.2668 31.732 96.0076 34.1008 95.8398C35.0607 93.5172 38.6874 80.3885 38.2873 78.4517C38.1318 77.6987 38.7275 77.4484 39.0535 76.8621C39.5989 75.8819 40.004 73.5392 40.4689 72.2748C40.8423 71.567 40.9971 71.7143 40.6531 70.9628C40.6303 70.8027 40.5718 70.6191 40.6273 70.4962C41.2218 69.1792 43.3377 59.8314 43.2916 58.8789C41.9444 56.8303 36.0346 59.7839 34.5112 60.841C31.4365 62.9746 28.8772 67.847 28.858 71.6161C29.3569 71.8724 30.5912 72.4711 31.0088 72.7432C30.1131 73.3884 30.1705 72.6357 29.3526 73.0882L29.3961 73.2993C29.2058 74.661 30.0612 76.979 30.4867 78.3788L30.3056 78.5665C28.6609 77.9739 25.7671 80.4004 24.4887 80.8858C23.6139 80.3497 22.8672 76.2275 22.8748 75.0874C22.8884 73.054 23.443 70.7903 23.9317 68.8164C24.0309 68.4155 23.1544 68.4241 22.8744 67.9121C23.2415 67.2269 23.8538 67.5879 23.981 67.4219C27.0145 63.4646 30.1624 59.9487 34.7986 57.8545C35.3725 57.5953 38.717 56.3716 39.2658 56.3565C39.5883 56.3426 39.6238 56.0061 40.4334 55.8631ZM46.1738 71.7933C45.7327 72.125 45.2662 72.8689 45.6415 73.3729L45.996 73.2898C46.204 72.4774 45.9972 72.5614 46.5209 72.1735C46.8768 72.3419 47.1259 72.4154 47.3243 72.7616C47.2168 73.67 46.0354 73.8045 45.5546 74.442C45.1665 74.9564 45.3412 75.9196 45.1779 76.5407C44.9862 77.2701 44.6497 77.1766 44.7423 77.8464C45.3638 78.1065 47.7453 77.934 48.5198 77.8736C49.1711 77.8229 49.1362 77.7191 49.4738 77.2773C49.9446 77.2417 49.8291 77.2806 50.3072 77.6614C52.0802 77.8956 57.1216 74.3274 57.429 72.2629C57.4768 71.9419 57.1737 71.6687 56.9864 71.4194C57.545 70.5779 57.8594 71.4163 58.5152 71.2549C59.9117 67.6705 60.861 60.7198 56.7074 58.3887C55.8913 57.9306 52.9038 57.3571 51.9883 57.6091C51.0636 58.8014 50.9208 56.9366 49.6046 57.4849C49.3671 57.8309 49.3429 58.0882 49.3089 58.4961C49.0524 61.5784 47.1459 64.3008 47.125 67.4648C47.1233 67.7355 47.494 68.4407 47.6252 68.6909C47.5723 69.0124 46.4749 71.0257 46.1738 71.7933Z" fill="#DCCEBD"/>
<path d="M54.3185 62.1822C54.7909 62.0874 55.9618 61.9735 56.1735 62.4845C55.7981 62.8082 54.9483 62.7921 54.4138 62.8345C53.2462 62.7003 53.4415 63.2747 52.607 63.1748L52.5649 62.972C52.9815 62.3744 53.4052 62.4955 54.3185 62.1822Z" fill="#DCCEBD"/>
<path d="M49.5222 75.732C49.2633 75.2612 47.9886 73.7052 48.0018 73.7525C48.9258 73.1352 49.7295 74.7095 50.1647 75.3753C49.8878 75.6247 49.874 75.6585 49.5222 75.732Z" fill="#DCCEBD"/>
<path d="M52.147 70.485C53.1576 70.1175 53.8977 70.3389 54.7498 69.9192C54.8419 70.3867 54.0034 71.1997 53.6681 71.5098L53.3432 70.9629L53.124 70.7817C52.6631 70.7501 52.5386 70.7625 52.147 70.485Z" fill="#DCCEBD"/>
<path d="M55.7817 67.5205C57.0174 67.733 57.547 68.556 57.0424 69.7499C56.3505 68.0144 56.0264 68.7272 55.5227 67.8697L55.7817 67.5205Z" fill="#DCCEBD"/>
<path d="M52.2537 72.7549C52.3351 72.7869 52.4322 72.8724 52.5087 72.93C52.4189 73.7191 52.4153 74.1569 52.4261 74.9353C52.1748 74.9788 52.1927 74.9749 51.9582 74.8703C51.7451 74.4146 52.1245 73.301 52.2537 72.7549Z" fill="#DCCEBD"/>
<path d="M55.0148 72.3584C55.4291 72.4447 55.9717 72.5387 56.2044 72.8818L56.1125 73.1735C55.648 73.244 55.4475 73.3105 55.0069 73.1181C54.8204 72.7353 54.8561 72.905 55.0148 72.3584Z" fill="#DCCEBD"/>
<path d="M56.6719 62.6494C57.2666 62.8689 57.6051 63.7717 57.9272 64.3765C57.72 64.3254 57.5123 64.2447 57.3104 64.1728C56.9871 63.6074 56.8839 63.2706 56.6719 62.6494Z" fill="#DCCEBD"/>
<path d="M50.4041 62.7964L50.9027 62.8394L51.1061 63.0829C51.094 63.5839 51.1136 63.7679 51.1845 64.2622L50.8619 64.2104C50.6714 63.7153 50.5509 63.3068 50.4041 62.7964Z" fill="#DCCEBD"/>
<path d="M50.1647 75.3755C50.4451 75.6781 50.8414 75.93 50.9399 76.302C50.3146 76.2353 50.1462 75.8594 49.5222 75.7322C49.874 75.6587 49.8878 75.6249 50.1647 75.3755Z" fill="#DCCEBD"/>
<path d="M52.1128 71.113L53.007 71.4227L52.8932 71.8205C52.411 71.785 52.0159 71.7875 51.572 71.5935L51.6184 71.3887L52.1128 71.113Z" fill="#DCCEBD"/>
<path d="M53.52 60.7297C53.9784 60.8347 54.9176 61.1844 55.3233 61.4161C54.5578 61.7417 53.9136 61.4588 53.52 60.7297Z" fill="#DCCEBD"/>
<path d="M52.113 71.1132L52.147 70.4851C52.5386 70.7626 52.6631 70.7502 53.1241 70.7818L53.3432 70.963L53.0072 71.4229L52.113 71.1132Z" fill="#DCCEBD"/>
<path d="M49.5714 67.3232C49.5347 67.9673 48.9705 68.2221 48.4578 68.4099L48.4197 68.212C48.658 67.7727 49.1262 67.5768 49.5714 67.3232Z" fill="#DCCEBD"/>
<path d="M47.8091 66.333C48.4852 66.3192 48.6268 66.3074 49.2385 66.5743C48.5218 66.7907 48.3782 66.8543 47.8091 66.333Z" fill="#DCCEBD"/>
<path d="M53.3432 70.9629L53.6681 71.5098C53.3418 71.6838 53.2521 71.7393 52.8933 71.8205L53.0072 71.4227L53.3432 70.9629Z" fill="#DCCEBD"/>
<path d="M46.1738 71.7935L46.5209 72.1737C45.9971 72.5616 46.2039 72.4775 45.996 73.2899L45.6415 73.373C45.2661 72.869 45.7326 72.1251 46.1738 71.7935Z" fill="#DCCEBD"/>
<path d="M122.357 19.4562C123.546 16.2718 123.117 12.5229 126.076 9.89806C131.368 5.20241 134.074 1.46861 141.572 1.60829C141.677 2.18509 141.54 2.30589 141.651 2.75337C140.791 3.51307 140.908 4.31095 139.781 5.04187L139.916 5.4376L139.531 5.43803L139.455 5.58903C139.701 5.70455 139.944 5.63447 140.219 5.59458L140.315 5.90157C139.363 6.87266 137.883 5.7292 136.885 5.79644C130.196 6.24758 129.407 12.2455 127.931 17.4197C128.079 17.9898 128.29 18.0499 127.986 18.575C127.825 18.8533 127.335 19.4476 127.272 19.7311C126.325 24.0347 125.226 28.2963 124.221 32.5864C124.022 33.4361 123.782 34.2991 123.618 35.15C126.104 33.1405 128.465 30.9966 130.861 28.8874C133.878 26.2313 138.111 21.0693 142.207 20.1454C143.24 20.5422 145.509 21.3589 146.245 22.0504C146.501 22.7803 146.062 23.3183 145.687 23.9089C145.304 23.6148 145.475 23.6665 145.044 23.6619C144.375 24.2286 144.075 24.6031 143.84 25.4524L143.896 25.7669L144.008 25.833L144.211 25.3305C144.403 25.4755 144.422 25.4676 144.514 25.6979L143.877 26.5964L143.439 26.1896C142.557 26.2788 142.614 27.3316 142.588 28.0771L142.361 28.07C141.936 27.2662 140.513 26.4348 139.751 26.0481C138.439 25.3833 134.426 28.3542 133.907 29.4204C134.053 29.7345 134.226 29.8102 134.512 30.0063L134.386 30.2058C133.698 30.078 133.908 29.3666 132.874 29.9731C132.623 30.12 132.235 30.6018 131.905 30.8522C131.508 30.9066 131.402 31.0521 131.097 31.3174C130.898 31.5787 130.606 31.9412 130.428 32.2035L130.136 31.8182L130.048 31.8813C129.51 31.7974 129.725 31.7676 129.234 31.9875C129.035 32.38 129.055 32.2073 129.16 32.635L129.634 32.9005C128.579 33.7329 128.876 34.6128 129.757 35.4862C130.979 36.6967 130.652 37.1581 131.076 38.6298C131.843 40.1321 132.579 41.388 133.277 42.9527C136.107 49.299 140.031 60.5446 147.745 62.1511C150.926 62.8133 154.385 59.3345 156.023 56.9038L156.226 56.9306C156.553 57.5331 157.528 61.563 157.299 61.8922C155.038 65.1457 146.303 64.0061 143.668 63.9212C143.091 63.6336 142.878 63.0337 142.412 62.8535C141.39 62.4415 140.069 62.1297 139.151 61.4996C137.518 60.3798 134.988 58.5342 133.812 56.9145C132.769 55.1181 131.434 53.0222 130.544 51.1753C129.635 49.2903 128.681 47.012 127.955 45.0555C127.167 42.9309 124.753 39.2482 124.397 37.2208C123.916 37.6564 123.303 38.1328 123.115 38.7319C122.322 41.2627 121.417 44.7296 121.12 47.3343C121.483 48.1081 121.861 47.5454 121.945 48.1831C121.619 48.6593 120.922 48.4873 120.724 48.8759C119.966 50.3583 120.549 52.2076 118.348 52.6387C117.004 52.9022 116.769 52.4734 115.469 53.3626C115.119 53.9079 115.302 54.0185 115.15 54.472C114.837 53.899 114.87 52.1871 114.864 51.4499C115.69 46.5923 117.183 41.9935 118.39 37.2459C118.551 36.6142 119.766 30.2341 119.727 29.7547C119.513 29.6032 119.427 29.565 119.292 29.3338C119.417 29.2772 119.55 29.2204 119.665 29.1448C120.889 28.3406 121.355 22.8933 121.771 21.2532C121.984 20.9934 122.252 19.852 122.357 19.4562Z" fill="#DCCEBD"/>
<path d="M85.2616 90.6294C85.0617 91.4987 84.2455 92.288 83.6173 92.9535C80.8712 95.8628 73.6349 100.251 69.6996 100.38C67.9532 100.436 66.4041 100.095 65.1018 98.8493C63.5156 97.3324 62.9078 95.2889 62.8633 93.152C62.7468 87.5614 65.0781 77.9586 69.0013 73.889C71.3913 71.4099 75.9225 68.3449 79.3316 67.6322C79.9476 67.5036 80.6145 67.5171 81.2422 67.5066C81.7475 67.9724 82.8976 68.6992 83.5611 69.2344C87.475 77.6945 77.3391 81.9166 71.9546 86.0113C71.6348 86.2546 71.3798 86.4111 71.0807 86.694C71.1909 87.2399 71.6709 86.9742 72.0171 87.5755C71.7411 87.9319 71.8862 87.8299 71.475 87.9755C70.8277 87.5913 71.1606 87.3289 70.6916 86.9818C68.011 88.2725 68.9867 88.6683 68.8432 90.7853L68.7506 91.0553C68.5595 92.3812 70.1077 94.3023 70.8776 95.3054C75.6054 96.9503 78.2477 93.8033 81.9257 91.6172C82.6077 91.2118 82.885 90.9638 83.3647 90.3264C83.87 90.4528 84.6247 90.7247 85.0753 90.559L85.2616 90.6294ZM69.6057 81.9777C70.1266 82.0823 70.6371 82.1146 70.9913 82.4904L71.0398 82.7515C70.4893 83.2713 69.7214 83.0456 69.0391 82.9481C68.9649 83.7231 68.6174 85.2058 69.6595 85.3339C70.3061 85.0826 70.5057 84.7882 70.8944 84.2181L71.1697 83.6733C73.3851 82.9826 76.1732 80.1271 77.4645 78.2194C76.8951 78.1696 76.2757 78.1855 75.8518 77.8211L75.8808 77.614C76.6472 77.3023 77.0658 77.4861 77.8896 77.6742C78.3214 76.4325 79.4325 72.6062 77.5263 71.827C77.3431 71.7521 76.1212 71.5804 75.9363 71.6166C74.24 72.0877 73.1773 72.8145 72.3084 74.4179C71.1223 76.6069 70.1907 79.5442 69.6057 81.9777Z" fill="#DCCEBD"/>
<path d="M70.9331 80.1218C71.4196 80.0511 71.4984 80.0681 71.9635 80.156C72.3754 80.5399 72.2592 80.3667 72.3701 80.9611C71.861 80.6879 71.4252 80.4256 70.9331 80.1218Z" fill="#DCCEBD"/>
<path d="M152.533 100.237C152.081 99.3646 151.017 98.4811 150.512 97.5643C148.93 94.6956 149.894 88.2298 150.676 85.1896C151.787 80.8636 153.355 76.2968 156.705 73.2433C157.316 72.6855 158.412 71.9631 159.126 71.4709C160.047 70.8537 161.024 70.0928 161.985 69.5569C164.319 68.2005 169.041 67.0936 170.548 70.125C172.768 74.5929 168.457 80.1572 164.767 82.0571C161.56 81.7769 162.508 83.3788 161.354 83.7329C161.357 84.0956 161.371 84.184 161.455 84.537C160.608 85.3016 157.012 87.6545 156.011 88.0646C154.884 90.1243 155.245 93.0051 156.752 94.7829C157.443 95.599 158.432 96.1005 159.498 96.1731C162.363 96.3959 165.898 94.0244 167.998 92.3252C168.771 91.8031 169.609 91.4065 170.36 90.85C170.812 90.5149 171.122 89.7187 171.723 89.7687C172.697 92.0317 167.446 95.7412 165.912 96.718C161.023 99.8328 158.43 101.558 152.533 100.237ZM159.681 73.8034L159.295 73.0554C159.016 73.1622 158.554 73.9231 158.442 74.2026C158.819 74.1843 159.006 74.1083 159.29 74.269C158.378 76.0077 154.898 84.19 155.935 85.9006C156.466 85.8815 163.357 79.995 163.94 78.7924C165.674 75.2184 166.879 71.9105 161.842 71.8411C160.963 72.388 160.379 73.055 159.681 73.8034Z" fill="#DCCEBD"/>
<path d="M159.29 74.269C159.006 74.1083 158.819 74.1844 158.442 74.2026C158.554 73.9231 159.016 73.1623 159.295 73.0554L159.681 73.8034C159.562 74.013 159.505 74.1844 159.29 74.269Z" fill="#DCCEBD"/>
<path d="M186.754 70.1235C186.632 70.1745 186.427 70.2262 186.407 70.3153C186.286 70.8594 185.866 72.6313 185.959 73.0928C188.292 72.9596 192.164 67.4298 196.077 68.4832C196.651 68.6379 197.457 68.6338 198.095 69.0791C198.253 69.6463 196.186 75.4527 195.851 76.5461C194.942 75.8406 194.637 75.7359 194.182 74.6725C191.788 74.183 191.359 74.0903 188.985 74.7632C184.632 75.9971 185.05 79.2869 183.913 82.8984C182.301 88.0138 181.185 93.1362 179.973 98.3382C178.978 98.7677 177.896 99.1 176.863 99.4379C176.105 98.812 175.626 99.1549 174.81 99.4529L174.607 99.3173L174.567 98.4467C174.741 97.5149 175.174 96.0894 175.448 94.9349C176.058 92.3626 176.452 90.9069 177.144 88.1181C178.101 84.2629 180.211 79.1496 180.153 75.1443C180.075 74.8109 179.747 74.5951 179.513 74.4417C177.76 73.2883 174.822 76.6565 173.363 75.7944C173.25 75.5532 173.17 74.6467 173.349 74.5004C176.031 72.328 179.651 71.0713 182.714 69.4101C184.392 68.5006 186.174 67.5168 187.035 69.8201L186.754 70.1235Z" fill="#DCCEBD"/>
<path d="M186.808 110.73C186.047 111.059 183.49 110.942 182.545 110.937C179.991 110.916 177.437 110.909 174.884 110.915C161.01 110.936 147.136 110.834 133.264 110.609C132.118 110.597 123.521 110.679 123.273 110.511C123.599 110.299 124.131 110.147 124.51 110.148C128.346 110.155 132.219 110.173 136.05 110.207L150.739 110.21L186.426 110.285L186.808 110.73Z" fill="#DCCEBD"/>
<path d="M45.2603 109.866C47.7935 109.783 51.7326 109.892 54.3622 109.908L68.0046 109.928L78.1326 109.971C79.2684 109.968 84.2686 109.759 84.8669 110.253L84.8231 110.413C84.2157 110.573 77.5831 110.437 76.4631 110.434L51.1207 110.366C49.862 110.359 48.6553 110.364 47.3983 110.443C46.7862 110.482 45.8901 110.727 45.4025 110.484L45.2603 109.866Z" fill="#DCCEBD"/>
<path d="M186.895 9.4519C187.318 9.42084 187.972 9.49876 188.287 9.79863C188.414 10.0139 188.37 17.853 188.368 18.656L188.329 44.2625C188.327 45.0243 188.373 45.8562 188.464 46.6137C188.532 47.1852 188.838 47.6614 188.822 48.2286C188.519 48.5195 188.437 48.6237 188.033 48.7815C187.634 48.3419 187.884 42.0954 187.881 40.8791L187.939 17.2366C187.943 15.1681 188.04 12.2991 187.881 10.2006C187.865 10.0023 187.115 9.58381 186.895 9.4519Z" fill="#DCCEBD"/>
<path d="M185.81 52.2431C186.039 51.7837 187.754 49.4942 188.13 49.2317C188.322 50.1743 187.561 50.4334 188.094 51.7985C187.733 51.6636 187.619 51.6112 187.239 51.5745L186.977 51.7339C187.123 52.3511 187.531 52.4394 188.086 52.6403C188.094 52.6651 188.103 52.6894 188.111 52.7145C188.124 52.756 188.135 52.7983 188.148 52.8397C188.418 53.6786 188.303 61.2018 188.343 62.7521C188.37 63.792 188.531 64.8454 188.528 65.8809C188.525 66.4594 188.117 68.6387 187.769 68.9818L187.573 68.8727C187.426 68.2939 187.637 67.8201 187.668 67.2374C187.82 64.2788 187.692 61.137 187.664 58.1636C185.105 56.3499 186.72 56.144 187.757 54.2924C188.359 53.2179 186.603 52.5585 185.81 52.2431ZM187.48 57.4639C187.627 56.9325 187.845 56.2133 187.672 55.6878L187.426 55.5175C187.111 56.1802 186.954 56.248 186.993 56.9188C187.156 57.1146 187.293 57.2896 187.48 57.4639Z" fill="#DCCEBD"/>
<path d="M187.426 55.5176L187.672 55.6878C187.846 56.2133 187.627 56.9326 187.48 57.4639C187.293 57.2897 187.156 57.1146 186.993 56.9189C186.954 56.2481 187.111 56.1803 187.426 55.5176Z" fill="#DCCEBD"/>
<path d="M187.166 81.9307C187.315 82.0549 187.43 82.1882 187.615 82.2027C187.558 87.3498 187.456 92.8755 187.513 97.9987C187.556 100.766 187.578 103.534 187.583 106.302C187.584 107.14 187.627 109.557 187.48 110.284C187.203 110.515 187.128 110.566 186.808 110.73L186.426 110.284C186.794 110.199 186.829 110.205 187.115 109.974C187.285 108.359 187.173 103.431 187.183 101.564L187.166 81.9307Z" fill="#DCCEBD"/>
<path d="M12.6383 55.4001C13.0143 55.5088 13.2889 55.5695 13.6303 55.7731C13.0964 56.4714 13.0498 59.6753 13.2899 60.5015C13.6464 60.5311 13.9069 60.1863 14.3522 59.9237C14.7159 61.0082 13.4872 60.0627 13.2771 62.1289C13.0525 64.3383 13.635 69.6429 12.8493 71.2942C12.317 70.7078 12.7242 57.3919 12.6383 55.4001Z" fill="#DCCEBD"/>
<path d="M12.6663 77.3301C12.8516 76.4404 12.5918 75.4583 13.2151 74.8198C13.4634 75.3886 13.2595 75.9839 13.2382 76.6077C13.1971 77.9901 13.1647 79.3726 13.1409 80.7554C13.1139 82.3105 13.2428 90.9471 13.0004 91.7953L12.8284 91.9055C12.3999 91.3597 12.6047 78.8586 12.6663 77.3301Z" fill="#DCCEBD"/>
<path d="M174.661 19.1341C174.763 19.0378 174.879 18.9277 175.009 18.8039C176.108 18.8397 176.839 18.823 177.872 18.7102C180.719 20.6968 178.098 22.3208 176.927 21.2241C176.037 20.391 176.293 20.0504 174.661 19.1341Z" fill="#DCCEBD"/>
<path d="M169.533 57.3767C171.594 56.7627 171.452 59.1274 170.681 60.31C169.304 60.3377 167.786 59.9267 168.484 57.9443C168.64 57.5004 169.069 57.5022 169.533 57.3767ZM170.199 60.0804C170.359 59.5237 170.128 58.497 169.904 57.9771C169.7 57.8664 169.629 57.814 169.398 57.7634C169.189 58.96 168.841 59.6063 170.199 60.0804Z" fill="#DCCEBD"/>
<path d="M13.2941 14.0952C14.128 14.6052 13.1139 23.7761 13.7289 25.08C14.3847 25.362 14.6118 25.2244 15.2942 25.3555L15.3066 25.5941L15.024 25.8032C13.7215 25.2397 13.3335 26.2903 12.7415 25.3703C13.6358 22.4845 12.4929 16.9661 13.2941 14.0952Z" fill="#DCCEBD"/>
<path d="M49.6519 15.2477C50.0901 15.2275 50.3924 15.1853 50.8114 15.3367C51.0698 15.9847 50.2219 18.2526 50.2045 19.096C50.1993 19.3507 49.997 19.4 49.7729 19.5305C48.6075 18.2439 47.4528 18.1871 48.9897 16.3732C49.2157 16.1064 49.4936 15.5665 49.6519 15.2477Z" fill="#DCCEBD"/>
<path d="M180.643 52.9739C181.1 53.1182 181.79 53.7918 182.17 54.123C182.093 55.1923 182.115 56.6132 180.97 57.1033C180.147 57.0681 179.091 56.2828 179.722 55.452C180.911 55.4231 180.405 56.0407 181.138 56.296C181.326 55.8521 181.337 55.1958 181.374 54.6993C180.437 54.751 179.759 55.057 179.458 55.0624C179.458 54.6186 180.328 53.4508 180.643 52.9739Z" fill="#DCCEBD"/>
<path d="M90.1084 8.36649C91.0671 8.25053 102.419 8.32289 102.674 8.47688L102.594 8.59868C100.684 9.09912 92.7466 8.80296 90.3944 8.67034C90.2514 8.66236 90.2129 8.52489 90.1084 8.36649Z" fill="#DCCEBD"/>
<path d="M150.202 19.1565L150.441 19.174C151.137 19.833 150.144 21.7625 149.618 22.2987L149.499 22.131C149.059 21.9788 148.647 21.8773 148.31 21.5611C148.033 21.1498 148.202 20.4424 148.266 19.9151C148.895 19.6237 149.551 19.3951 150.202 19.1565Z" fill="#DCCEBD"/>
<path d="M159.781 32.9964C160.666 32.9837 163.004 32.9447 162.815 34.5168C162.784 34.7796 162.693 34.7669 162.473 34.9205L162.156 34.8515C161.364 34.6505 158.902 34.3018 158.689 33.4592C158.955 33.1038 159.346 33.0824 159.781 32.9964Z" fill="#DCCEBD"/>
<path d="M53.8223 105.071C55.1426 104.89 55.1736 105.179 55.8671 106.202C55.8807 106.689 55.9836 107.763 55.5059 108.019C55.016 107.46 55.0138 106.727 54.1553 105.619C54.2541 106.014 54.2892 106.188 54.3348 106.596C53.5348 106.901 53.3805 107 53.1156 107.808L53.0826 107.911L52.8909 107.946C52.5996 107.532 52.5341 106.787 52.8444 106.503C53.3295 106.059 53.4555 105.47 53.8223 105.071Z" fill="#DCCEBD"/>
<path d="M175.37 41.8257C176.196 41.769 176.992 42.9403 176.185 43.8682C175.714 44.1767 175.413 44.1242 174.848 44.1172C174.36 43.945 173.817 43.7944 173.565 43.3525C173.539 42.318 174.45 41.9011 175.37 41.8257ZM176.071 43.4856C175.59 42.4992 174.914 42.7705 173.895 42.8472C174.432 43.6883 175.175 43.6891 176.071 43.4856Z" fill="#DCCEBD"/>
<path d="M166.094 53.7834C166.916 54.027 168.484 55.2704 168.396 56.2134L167.742 56.561C167.565 57.0757 167.56 57.297 167.045 57.41C166.008 56.8069 165.999 54.8346 166.094 53.7834Z" fill="#DCCEBD"/>
<path d="M174.661 19.1341C174.56 19.1211 174.353 19.0519 174.245 19.0201C173.935 18.2308 173.299 17.4522 173.95 16.7849C175.44 16.362 175.989 18.1369 177.872 18.7102C176.839 18.823 176.108 18.8397 175.009 18.8039C174.879 18.9277 174.763 19.0378 174.661 19.1341Z" fill="#DCCEBD"/>
<path d="M163.23 28.7141C163.294 28.7097 163.526 28.7689 163.604 28.7865C163.807 29.1177 163.785 28.9771 163.756 29.3329C163.174 30.0158 162.164 31.154 161.356 31.5047L160.649 31.2948C160.247 30.8868 160.329 31.0794 160.275 30.5774C160.665 29.6741 162.312 29.1288 163.23 28.7141Z" fill="#DCCEBD"/>
<path d="M103.566 110.44C101.062 110.498 93.8394 110.688 91.8504 110.225L91.8328 110.128C95.7323 109.793 99.644 110.318 103.294 110.045C103.467 110.229 103.538 110.238 103.566 110.44Z" fill="#DCCEBD"/>
<path d="M103.293 110.045C105.243 110.17 114.832 109.814 115.737 110.346L115.651 110.489C114.735 110.625 111.62 110.49 110.493 110.464C108.235 110.413 105.791 110.516 103.566 110.44C103.538 110.238 103.466 110.229 103.293 110.045Z" fill="#DCCEBD"/>
<path d="M112.971 110.372C113.548 110.262 114.572 110.087 115.099 110.367C114.683 110.495 113.471 110.394 112.971 110.372Z" fill="#DCCEBD"/>
<path d="M162.095 22.4734C162.592 22.6365 163.465 23.0523 163.909 23.3049C164.112 23.6582 164.066 23.4968 164.029 23.9569C163.688 24.2976 163.627 24.435 163.405 24.8428C161.179 25.1313 160.904 24.1847 162.095 22.4734Z" fill="#DCCEBD"/>
<path d="M64.5071 29.4442C64.4156 29.1023 64.3805 28.99 64.2261 28.6725C63.9646 29.6312 62.3872 29.7732 61.9749 28.947C62.115 27.2775 64.223 26.9699 65.1345 27.9981C64.6895 28.598 64.5927 28.7132 64.5071 29.4442Z" fill="#DCCEBD"/>
<path d="M172.74 49.2192C173.336 49.3789 174.906 49.6483 175.184 50.3359C175.325 50.6862 175.461 51.2072 175.306 51.5698C174.826 51.8676 174.385 51.8778 173.851 51.7385C173.055 51.272 173.219 50.242 172.794 49.3309L172.74 49.2192Z" fill="#DCCEBD"/>
<path d="M144.244 52.3743C144.662 52.3491 145.205 52.2682 145.471 52.6045C145.28 52.9263 144.911 53.0055 144.507 53.1934C144.088 54.0789 144.898 54.1479 144.082 54.8866C143.225 54.4298 142.206 53.9221 142.699 52.8142C143.084 52.4186 143.683 52.4323 144.244 52.3743Z" fill="#DCCEBD"/>
<path d="M123.611 46.9014L124.153 47.7655C124.107 48.5051 124.011 49.2448 124.211 49.9548L124.391 50.0966C124.916 49.8443 125.024 49.6486 125.316 49.1379L125.653 49.029C125.667 49.5594 125.282 50.5765 124.812 50.864C123.558 51.0387 122.747 49.3917 123.33 48.4579C123.719 47.8361 123.09 47.7307 123.611 46.9014Z" fill="#DCCEBD"/>
<path d="M146.095 38.7937C146.548 38.7712 146.946 38.692 147.203 39.0999C146.994 39.7813 145.952 40.4918 145.347 40.7982C145.259 40.8121 144.895 40.9445 144.788 40.9811C144.343 40.8933 144.5 40.9878 144.206 40.6103C144.125 39.5493 145.306 39.0778 146.095 38.7937Z" fill="#DCCEBD"/>
<path d="M36.6641 25.3581C37.0008 24.6887 37.8107 24.3057 38.426 23.5378L37.8637 24.0208C37.9181 23.9497 37.9736 23.8793 38.03 23.8099C38.3624 23.4004 40.6322 21.0503 40.9499 21.0176L41.2546 21.5325C40.3515 22.92 38.1835 24.6891 36.6641 25.3581Z" fill="#DCCEBD"/>
<path d="M131.598 34.6946C131.76 34.6698 132.336 34.5892 132.463 34.6291C133.318 34.8966 134.779 36.3445 134.609 37.2876C132.207 36.9009 133.17 36.2661 131.703 35.0876L131.603 35.0086L131.598 34.6946Z" fill="#DCCEBD"/>
<path d="M72.0041 8.5141C71.8902 8.54046 71.7752 8.56268 71.6596 8.58063C70.6253 8.74844 61.202 8.75869 60.7666 8.44444L60.8978 8.29829C62.189 8.06467 70.2887 8.26182 71.8623 8.37022L72.0041 8.5141Z" fill="#DCCEBD"/>
<path d="M34.7489 86.7432C35.1428 86.749 35.2848 86.7252 35.6137 86.9493C35.7538 87.769 34.1612 88.9584 33.5433 90.4633C33.1457 90.375 32.8323 90.2989 32.5854 89.9832C32.7793 89.7563 33.7625 88.6482 33.835 88.5034C34.2167 87.742 34.1818 87.5059 34.7489 86.7432Z" fill="#DCCEBD"/>
<path d="M141.558 93.4C141.482 92.8751 142.059 92.4703 142.206 91.8144C141.943 92.1618 141.391 92.9181 140.992 92.9903C141.03 92.0898 142.294 91.6063 142.828 90.7832C143.283 90.0825 143.405 89.556 143.941 88.9233C144.174 89.454 143.887 89.4957 144.156 90.0647C143.903 90.6177 142.024 93.2772 141.558 93.4Z" fill="#DCCEBD"/>
<path d="M79.9581 61.5842C79.7246 60.9503 79.5478 61.0537 79.4861 60.3081L79.5579 60.2822C80.3969 60.9747 81.9534 62.2492 82.3107 63.2427L82.2842 63.6581C81.8285 64.0156 80.9673 64.0341 80.4165 63.8921C80.8095 63.4726 81.0861 63.6219 81.439 63.1687C80.8254 62.6616 80.4616 62.1895 79.9581 61.5842Z" fill="#DCCEBD"/>
<path d="M121.771 21.2533C121.264 20.2365 120.127 19.2943 120.032 18.7635L120.309 18.4095C121.219 18.0849 121.891 18.8258 122.357 19.4563C122.252 19.8522 121.984 20.9935 121.771 21.2533Z" fill="#DCCEBD"/>
<path d="M20.7327 62.3154C21.0675 62.4003 21.077 62.4129 21.3509 62.6331C21.5278 63.2432 21.8441 63.6543 22.1942 64.1761L22.1539 64.3223C21.7359 64.4063 21.3136 64.3055 20.8909 64.2361C20.3983 64.4002 19.7828 64.7304 19.4119 64.2921C19.475 63.8817 20.4338 62.6388 20.7327 62.3154Z" fill="#DCCEBD"/>
<path d="M167.038 43.0837C168.285 42.9396 169.985 43.7669 169.139 45.394C168.937 45.7814 168.504 45.7096 168.084 45.7215C167.706 45.7003 167.826 45.763 167.6 45.5286C167.935 45.1614 168.073 45.3569 168.598 45.1349C168.221 44.3051 167.193 43.9729 167.038 43.0837Z" fill="#DCCEBD"/>
<path d="M25.5102 90.5823C25.6922 90.7692 25.8864 90.914 26.0901 91.0756C26.3672 91.1131 26.6427 91.1622 26.9159 91.2226C27.6607 91.3914 29.6094 91.7494 29.9762 92.3289L29.881 92.5507C29.3556 92.7105 29.5055 92.6587 28.8872 92.4032C28.2376 92.7336 28.6545 92.793 28.0324 93.1316L28.0039 93.0974C28.6983 90.7988 26.4849 92.1102 25.5299 91.6149C25.283 91.1505 25.3785 91.2299 25.5102 90.5823Z" fill="#DCCEBD"/>
<path d="M87.9774 76.2009C87.745 76.4798 87.0889 76.8142 86.7042 76.8129C85.4561 76.1526 86.4054 74.7384 87.3769 74.2285C87.7517 75.212 87.3326 75.7163 87.9774 76.2009Z" fill="#DCCEBD"/>
<path d="M187.166 81.9306C187.166 80.9137 187.018 76.8331 187.399 76.3435C188.032 77.2297 187.762 81.0544 187.615 82.2027C187.431 82.1882 187.315 82.0548 187.166 81.9306Z" fill="#DCCEBD"/>
<path d="M53.9592 49.701C54.237 49.4808 54.3923 49.3006 54.7356 49.2805C55.1691 49.5341 55.6403 49.7063 56.1332 49.7989L56.2819 49.9938C55.5729 50.0146 55.5965 49.9042 55.0892 50.2406L55.0244 50.5237C55.6271 51.1062 55.9488 50.9025 56.729 50.71L56.8061 51.5746C55.6079 52.1219 54.3228 50.7807 53.9592 49.701Z" fill="#DCCEBD"/>
<path d="M44.2498 8.3597C45.2402 8.31853 52.9775 8.18776 53.3884 8.41269L53.4022 8.58335C52.5988 8.81783 50.6353 8.72423 49.727 8.71255C48.7945 8.33733 45.3809 8.91868 44.2498 8.3597Z" fill="#DCCEBD"/>
<path d="M45.6237 12.1995C46.415 12.7335 47.5648 12.8694 46.4447 13.8412C46.1843 14.0672 46.115 14.3469 46.0604 14.6764C45.5743 14.6236 45.2643 14.617 44.8184 14.4098L44.7688 14.1669C45.3742 13.415 45.4924 13.2442 45.6142 12.2801L45.6237 12.1995Z" fill="#DCCEBD"/>
<path d="M40.4689 72.2748C40.3138 71.8311 38.3199 70.111 38.0415 69.6781L38.1656 69.39C38.5496 69.1704 38.6018 69.1695 39.0404 69.2382C39.8589 69.8973 39.438 70.8047 40.4291 71.211L40.6531 70.9628C40.9971 71.7143 40.8423 71.567 40.4689 72.2748Z" fill="#DCCEBD"/>
<path d="M49.2641 95.9868C50.6252 96.0066 51.3823 95.9636 52.7373 95.8162C51.5486 96.7008 51.0132 96.8935 49.5936 97.3293L49.3906 97.2177C49.147 96.8737 49.2401 96.4407 49.2641 95.9868Z" fill="#DCCEBD"/>
<path d="M177.119 57.5554C177.69 57.5775 178.107 57.569 178.361 58.1292C178.237 58.5107 178.21 58.6039 177.895 58.8324L177.23 59.3128L177.207 59.4476L176.972 59.598L176.675 59.4647C176.104 58.5583 176.357 58.1426 177.119 57.5554Z" fill="#DCCEBD"/>
<path d="M124.701 47.751C125.317 47.6718 126.425 47.551 126.98 47.811L127.234 48.1127C127.164 48.7792 126.778 48.8818 126.217 49.1696C126.012 49.1161 125.853 49.0896 125.67 48.9795C125.21 48.6584 124.792 48.3319 124.701 47.751Z" fill="#DCCEBD"/>
<path d="M18.3727 92.3315C19.5697 92.6082 20.7301 93.6291 19.9933 94.8638C19.6601 94.6148 19.7366 94.4982 19.6289 93.9871L19.4633 93.7095C18.4365 93.361 18.3711 93.8303 17.605 93.7142C17.8399 93.2549 18.1171 92.7827 18.3727 92.3315Z" fill="#DCCEBD"/>
<path d="M87.1433 64.5505C87.3488 64.5595 87.6088 64.5944 87.8186 64.6169C88.2844 65.8409 89.112 64.9706 89.7012 66.2471C89.6358 66.8091 89.7249 66.6115 89.3973 67.0249C88.6336 65.6786 88.268 66.4641 87.5276 66.0745C87.285 65.5742 87.3137 65.7887 87.3943 65.2642C87.2543 64.9715 87.2243 64.8655 87.1433 64.5505Z" fill="#DCCEBD"/>
<path d="M83.4971 54.1152C84.5757 54.2527 84.7304 56.0244 85.2634 56.6616C85.4841 56.9255 85.4657 56.8962 85.5421 57.278C85.1055 57.3708 84.9636 57.4193 84.5071 57.3493C83.6092 56.4912 84.3462 55.8665 83.4971 54.1152Z" fill="#DCCEBD"/>
<path d="M171.202 46.4045C171.773 46.5705 172.96 46.7917 173.126 47.3886C172.801 47.688 172.511 47.6927 172.081 47.7642L171.995 47.764C171.83 48.2843 171.787 48.2527 171.383 48.5175L171.153 48.4167C170.845 47.6229 170.904 47.181 171.202 46.4045Z" fill="#DCCEBD"/>
<path d="M161.455 84.5371C161.371 84.1841 161.357 84.0956 161.354 83.7329C162.508 83.3788 161.56 81.7769 164.767 82.0571C164.105 82.3445 161.9 84.0161 161.455 84.5371Z" fill="#DCCEBD"/>
<path d="M65.4799 69.4288L65.4747 69.2626L65.1459 69.116L65.0964 68.9856C65.9036 68.1476 65.7812 67.8125 65.989 66.6895C66.4381 67.4526 67.2556 68.5462 66.4949 69.3227C66.1146 69.4012 65.8661 69.4818 65.4799 69.4288Z" fill="#DCCEBD"/>
<path d="M141.651 2.75342C141.872 3.12351 141.822 3.26097 141.762 3.67523L141.874 3.86754C141.317 4.68265 140.959 5.15516 140.315 5.90161L140.219 5.59463C139.944 5.63451 139.701 5.7046 139.455 5.58907L139.531 5.43807L139.916 5.43764L139.781 5.04191C140.908 4.31099 140.791 3.51312 141.651 2.75342Z" fill="#DCCEBD"/>
<path d="M171.584 27.3582C171.749 27.3723 171.912 27.3912 172.076 27.415C172.96 27.5472 173.541 27.8604 173.275 28.8408C172.768 29.3694 172.825 29.2276 172.022 29.4531L171.837 29.5231L171.612 29.3899C171.975 28.5696 172.309 28.9674 172.532 28.3797C172.205 28.3939 172.093 28.4291 171.813 28.2879C171.572 27.9308 171.595 27.7761 171.584 27.3582Z" fill="#DCCEBD"/>
<path d="M85.7608 96.0137C86.2111 96.0679 86.3364 96.0718 86.7665 96.267C86.8255 96.5319 86.1349 96.966 86.1151 97.3992C86.0924 97.8965 86.4498 98.4478 86.4459 98.8819C85.3692 98.124 86.16 97.8966 84.5759 97.1217L84.8517 97.1496L84.9209 96.8717C85.3536 96.5607 85.437 96.4292 85.7608 96.0137Z" fill="#DCCEBD"/>
<path d="M14.7795 89.7112C16.005 89.6108 16.4513 90.0477 17.3241 90.88L17.2592 91.1426L16.7869 91.3306C16.2232 91.4204 15.9473 91.5023 15.4014 91.3337L15.3096 91.1316L15.6764 90.4241C15.5096 90.1141 15.3172 90.1424 14.8942 89.995L14.7795 89.7112Z" fill="#DCCEBD"/>
<path d="M52.2798 79.9716C52.4623 79.6364 52.3584 79.0756 52.4005 78.5716C52.8048 78.2032 53.365 77.9827 53.8667 77.7512L53.8679 77.8531L53.8966 77.7437L53.5275 78.1636L53.5991 78.4515C54.0094 78.5351 54.4178 78.6284 54.8237 78.7316L54.7296 78.9563C52.8415 79.0894 53.7527 79.7512 52.2798 79.9716Z" fill="#DCCEBD"/>
<path d="M174.567 98.4468L174.607 99.3173L174.81 99.4529C175.626 99.1549 176.105 98.812 176.863 99.438C176.172 99.8263 174.817 100.868 174.222 100.162C174.121 99.6219 174.392 98.987 174.567 98.4468Z" fill="#DCCEBD"/>
<path d="M58.085 55.4334C60.2328 55.2293 60.777 53.7978 61.9785 56.352C60.9774 55.9851 59.1307 55.476 58.085 55.4334Z" fill="#DCCEBD"/>
<path d="M110.082 96.6109C110.685 96.5305 112.11 96.5063 112.378 97.1316C111.972 97.5165 111.944 97.4181 111.307 97.5531C111.192 98.1128 111.276 98.166 110.94 98.5117C110.656 98.2568 110.163 96.9768 110.082 96.6109Z" fill="#DCCEBD"/>
<path d="M164.956 7.8584C165.59 7.94059 166.606 8.09159 167.089 8.51667L167.061 8.74958L166.618 8.9795C165.969 9.00314 164.658 9.22024 164.316 8.63847C164.446 8.21082 164.612 8.12564 164.956 7.8584Z" fill="#DCCEBD"/>
<path d="M39.8327 109.997C40.6288 109.979 44.8346 110.026 45.2603 109.866L45.4026 110.484C44.7278 110.176 40.6338 110.4 39.6772 110.436L39.8327 109.997Z" fill="#DCCEBD"/>
<path d="M35.7942 67.0713C35.8341 67.0767 37.6162 67.6797 37.6887 67.7221C37.8165 68.1895 37.7628 68.0697 37.474 68.6232C37.2856 69.026 37.358 69.0344 37.0146 69.2521C36.3575 68.7155 35.8553 67.9125 35.7942 67.0713Z" fill="#DCCEBD"/>
<path d="M19.9537 53.6018L20.0444 53.5686C20.2671 53.714 20.2042 53.6854 20.3422 53.9568C20.1483 55.1873 19.043 54.0286 18.4314 55.6792C18.1237 55.4775 18.0714 55.0626 18.0576 54.725C18.6923 53.4893 19.0712 54.0927 19.9537 53.6018Z" fill="#DCCEBD"/>
<path d="M43.583 21.4619C44.3161 21.5175 45.3233 21.6313 45.5852 22.3648C45.4737 22.8978 45.4646 23.0303 45.1576 23.4884C44.8341 23.196 44.9007 23.1377 44.784 22.7879C44.5818 22.1814 43.9959 22.6726 43.3561 22.2611C43.277 21.8215 43.3099 21.9407 43.583 21.4619Z" fill="#DCCEBD"/>
<path d="M31.0087 72.7434C31.4164 73.1816 31.6217 73.3487 31.789 73.9169L31.7497 74.2447C30.8359 74.5232 29.8075 73.3125 29.396 73.2995L29.3525 73.0884C30.1704 72.6359 30.113 73.3886 31.0087 72.7434Z" fill="#DCCEBD"/>
<path d="M13.5708 85.3856C13.6467 85.3735 13.7876 85.3484 13.861 85.3637C15.875 85.7832 15.8514 85.3188 17.1164 86.8457L16.9796 86.8725C16.3009 87.0098 13.9374 85.9202 13.5708 85.3856Z" fill="#DCCEBD"/>
<path d="M124.153 47.7654L124.701 47.751C124.792 48.3319 125.21 48.6584 125.67 48.9795L125.653 49.0289L125.316 49.1378C125.024 49.6484 124.916 49.8442 124.391 50.0965L124.211 49.9547C124.011 49.2447 124.107 48.505 124.153 47.7654Z" fill="#DCCEBD"/>
<path d="M12.5457 105.487C12.9823 103.957 12.1147 100.658 12.902 99.2417C13.2198 100.177 12.7734 104.085 12.93 105.554L12.5457 105.487Z" fill="#DCCEBD"/>
<path d="M75.3848 60.634C75.818 60.7487 77.6868 62.5747 77.8628 62.8279C75.8794 62.7285 75.6378 62.3568 75.3848 60.634Z" fill="#DCCEBD"/>
<path d="M27.9836 56.3918C28.1905 56.5295 28.233 56.679 28.3419 56.9038L28.2381 57.1367C27.872 57.3496 26.7031 57.4513 26.1841 57.5433C25.9969 57.5285 26.0323 57.5114 25.8484 57.3997C25.8535 56.9938 25.812 57.1554 26.0623 56.7802C26.5416 56.4743 27.3901 56.4538 27.9836 56.3918Z" fill="#DCCEBD"/>
<path d="M9.75392 68.3472C10.7884 68.4965 10.9776 69.1637 10.5857 70.0523C10.11 70.4003 10.1461 70.2812 9.42324 70.2718C9.20191 70.0538 9.2662 70.1869 9.26264 69.8433C9.49201 69.698 9.72376 69.5566 9.95779 69.4191L9.93503 69.2141C9.71235 69.1304 9.49049 69.0446 9.26949 68.9564C9.35792 68.5768 9.40752 68.6346 9.75392 68.3472Z" fill="#DCCEBD"/>
<path d="M114.419 23.2134C115.057 23.4054 115.14 23.3568 115.469 23.8034C115.537 24.2991 115.115 25.1087 114.905 25.6079C114.584 25.6044 114.71 25.6506 114.444 25.3872C114.323 24.5221 114.093 23.9115 114.419 23.2134Z" fill="#DCCEBD"/>
<path d="M40.9948 65.2773C41.2064 65.3688 41.2205 65.434 41.3814 65.6207C41.4251 66.5292 40.8073 66.9388 40.0069 67.1758C39.5531 66.8056 39.6469 66.9861 39.5576 66.5077C39.7521 66.1158 40.5627 65.6273 40.9948 65.2773Z" fill="#DCCEBD"/>
<path d="M78.4731 8.85382C80.8974 7.7662 81.2493 8.51364 83.0808 8.68472C82.6183 8.95966 80.2284 8.65966 79.4934 8.97604C79.2754 9.06992 78.7213 9.21849 78.4862 9.26479L78.4731 8.85382Z" fill="#DCCEBD"/>
<path d="M20.8888 98.3194L20.8654 97.9781C20.4489 97.5014 20.3761 97.0776 20.3586 96.4755L20.5481 96.3601C21.0324 96.4551 21.3438 96.8444 21.7081 97.1979L21.6818 97.2906C21.5731 97.6821 21.5536 97.8056 21.5095 98.2135C21.1695 98.3922 21.3053 98.3459 20.8888 98.3194Z" fill="#DCCEBD"/>
<path d="M12.644 93.5454C13.2925 93.8466 12.9131 96.3746 12.8334 97.092L12.6726 97.2192L12.2998 96.9107C12.0014 96.7326 11.8403 96.6892 11.5156 96.5782L11.575 96.3738L12.4748 95.9469C12.6661 95.45 12.589 94.2105 12.644 93.5454Z" fill="#DCCEBD"/>
<path d="M182.963 4.90552L183.33 5.0766C183.839 5.67775 183.562 7.27991 183.495 8.10257C182.624 7.73162 182.84 5.65524 182.963 4.90552Z" fill="#DCCEBD"/>
<path d="M183.456 57.9395C183.684 58.0108 183.917 58.1138 184.139 58.2051L184.134 58.3459C183.839 58.553 183.559 58.6597 183.282 58.8212C182.848 59.0737 183.007 59.6456 182.437 59.9587C182.078 59.7604 181.774 59.6392 181.539 59.3103C181.656 59.0161 182.085 58.9036 182.402 58.8013C183.023 58.6006 183.04 58.4369 183.456 57.9395Z" fill="#DCCEBD"/>
<path d="M131.097 31.3175C131.403 31.0522 131.508 30.9067 131.905 30.8523C132.458 31.6923 132.449 31.757 132.225 32.866L132.053 33.0371C131.161 32.5317 131.698 31.9832 131.097 31.3175Z" fill="#DCCEBD"/>
<path d="M144.514 25.6979C144.422 25.4677 144.403 25.4756 144.211 25.3306L144.008 25.8331L143.896 25.767L143.84 25.4525C144.075 24.6032 144.375 24.2287 145.044 23.662C145.475 23.6666 145.304 23.6149 145.687 23.909C145.444 24.3682 144.886 25.3535 144.514 25.6979Z" fill="#DCCEBD"/>
<path d="M126.886 50.7297C127.143 50.8233 127.4 50.9414 127.651 51.0518L127.791 51.4511C127.656 52.2731 127.362 52.2044 126.688 52.3571C126.311 52.4243 126.265 52.4202 125.897 52.3137L125.895 52.1134L126.596 51.4735C126.681 51.1849 126.764 51.0057 126.886 50.7297Z" fill="#DCCEBD"/>
<path d="M123.611 46.9014C123.89 46.3267 124.114 45.481 124.503 45.2033C124.956 45.1314 125.122 45.1912 125.557 45.289C125.305 45.8035 125.199 45.7763 125.007 46.3915C124.491 46.8599 124.364 46.7595 123.611 46.9014Z" fill="#DCCEBD"/>
<path d="M89.8723 14.7781C91.0961 14.9241 91.733 15.3648 91.7894 16.6389L91.3201 16.2664C90.816 16.254 90.7435 16.2097 90.2993 15.9945C89.9924 15.657 89.9611 15.2329 89.8723 14.7781Z" fill="#DCCEBD"/>
<path d="M32.209 80.8366L32.8358 80.8267C33.2939 81.1269 33.8736 81.5077 34.1591 81.9787L33.9286 82.0728L33.5059 81.8466C32.4276 81.259 31.4047 81.5818 30.1145 81.6881C30.9463 81.226 31.3087 81.1201 32.209 80.8366Z" fill="#DCCEBD"/>
<path d="M38.1873 60.5185C38.8592 60.4778 39.5389 60.3001 39.8725 60.9748C39.5095 61.3482 39.5938 61.2389 38.992 61.3457C38.823 61.7 38.7968 61.7617 38.5205 62.0375L38.253 62.0339C37.9451 61.6667 37.9682 60.9326 38.1873 60.5185Z" fill="#DCCEBD"/>
<path d="M79.9583 61.5842C80.4617 62.1895 80.8256 62.6616 81.4392 63.1687C81.0862 63.6219 80.8097 63.4726 80.4166 63.8921L79.8406 63.9823C79.9661 63.4267 79.9975 62.6013 80.0388 62.014L79.9583 61.5842Z" fill="#DCCEBD"/>
<path d="M12.6514 72.8243C12.627 72.6458 12.6565 72.4602 12.6719 72.2762C13.1881 71.8873 13.9876 71.3947 14.6359 71.3433L14.7978 71.6223C14.4637 72.386 13.9193 72.2597 13.1644 72.4058C13.1335 72.797 13.1219 73.6098 12.9277 73.8919C12.6979 73.4906 12.7012 73.2735 12.6514 72.8243Z" fill="#DCCEBD"/>
<path d="M89.3295 68.5383C89.6308 68.5509 89.6931 68.5296 89.929 68.6947C89.9329 69.5707 89.3142 70.3096 88.3958 70.1168C87.9799 69.7533 88.1012 69.911 87.969 69.3191C88.0199 68.9228 88.052 68.8828 88.3175 68.5816L88.4686 68.6174C88.6157 68.9487 88.7578 69.2822 88.895 69.6177L89.127 69.6278L89.253 69.4245L89.0883 68.805L89.3295 68.5383Z" fill="#DCCEBD"/>
<path d="M12.5894 8.19019C13.6192 8.47338 14.0255 8.80786 13.8705 9.86628C13.1999 9.79591 12.9918 9.82468 12.5132 9.44676C12.349 9.03364 12.4915 8.62723 12.5894 8.19019Z" fill="#DCCEBD"/>
<path d="M130.881 57.7969L131.204 57.9885C131.247 58.2241 131.288 58.4147 131.345 58.647C131.596 58.8301 131.794 58.9502 132.061 59.1081C131.914 59.4224 131.627 59.4802 131.254 59.6765C130.832 59.7841 130.672 59.6698 130.428 59.3922C130.365 58.9245 130.695 58.2634 130.881 57.7969Z" fill="#DCCEBD"/>
<path d="M32.1106 75.769C32.5588 75.8699 32.7786 75.8951 33.1752 76.1492C33.1249 76.3748 32.5744 76.6306 32.2559 76.905C32.2576 77.383 32.7286 77.7295 32.939 78.2523C32.5445 78.1924 31.9024 78.1419 31.6653 77.8572C32.0415 77.2625 32.1787 76.9958 31.9412 76.3202L31.9004 76.2075L32.1106 75.769Z" fill="#DCCEBD"/>
<path d="M118.944 20.7627C119.146 20.8368 119.282 21.0368 119.431 21.2069L119.402 21.4908C118.942 22.0707 117.994 22.2413 117.309 22.3526L117.148 22.2392C117.079 21.5636 117.401 21.6799 118.005 21.5399C118.644 21.3922 118.581 21.2761 118.944 20.7627Z" fill="#DCCEBD"/>
<path d="M24.9805 82.2153C25.2015 82.2066 25.4224 82.2007 25.6435 82.1975C26.1285 82.1914 26.6379 82.1948 26.9884 82.5384C26.5838 82.8826 26.5839 82.7927 25.9942 82.9128C26.0154 83.2772 25.9912 83.2985 25.8384 83.6418L25.6519 83.6733C25.2504 83.3208 25.138 82.7377 24.9805 82.2153Z" fill="#DCCEBD"/>
<path d="M89.8391 76.4854C90.4448 76.5043 90.5937 76.5124 91.0045 76.8623C91.2147 77.3114 91.1895 77.625 91.2036 78.1198C90.6961 78.0972 90.536 78.1253 90.1416 77.8035C89.8594 77.4223 89.8782 76.9676 89.8391 76.4854Z" fill="#DCCEBD"/>
<path d="M101.834 35.3701C102.081 35.427 102.341 35.5252 102.583 35.6072C102.784 36.1979 101.889 35.566 101.46 36.963C101.124 37.1257 101.294 37.1079 100.933 37.0199C100.6 36.1365 101.145 35.7205 101.834 35.3701Z" fill="#DCCEBD"/>
<path d="M146.22 14.7483C146.485 14.8576 146.511 14.9125 146.714 15.1284C146.994 16.0319 146.872 16.5022 146.599 17.4072L146.315 17.3988C145.879 16.9233 146.15 15.3812 146.22 14.7483Z" fill="#DCCEBD"/>
<path d="M141.572 1.60835C142.176 1.6123 142.021 1.52959 142.487 1.82522C142.678 2.52252 142.54 2.7221 142.166 3.38094C142.074 3.54604 141.977 3.7083 141.875 3.86756L141.762 3.67525C141.822 3.261 141.872 3.12353 141.651 2.75344C141.541 2.30595 141.677 2.18515 141.572 1.60835Z" fill="#DCCEBD"/>
<path d="M23.0772 8.60848C22.6387 8.05106 22.4302 7.88967 22.5041 7.2143L22.7462 7.1106C23.4317 7.27712 23.5817 7.63753 23.9609 8.22372C23.6766 8.47116 23.4798 8.68198 23.0772 8.60848Z" fill="#DCCEBD"/>
<path d="M75.055 47.1074C74.9314 46.3979 74.8634 45.7956 75.464 45.3413C76.4583 45.4038 75.8838 45.5524 76.4796 46.0074C75.9552 46.4738 75.6356 46.7113 75.055 47.1074Z" fill="#DCCEBD"/>
<path d="M127.534 27.3306C127.957 27.3219 128.076 27.3019 128.469 27.4809C128.675 27.9961 128.433 28.4461 128.267 29.079C128.09 29.1111 127.91 29.0726 127.729 29.0491C127.438 28.6387 127.531 27.8856 127.534 27.3306Z" fill="#DCCEBD"/>
<path d="M37.2503 75.0212L37.5318 75.1268C37.9713 75.814 37.9867 76.2926 37.4508 76.8744C37.0713 76.7741 37.0091 76.7727 36.6864 76.562C36.5362 75.9918 36.8962 75.6339 37.2503 75.0212Z" fill="#DCCEBD"/>
<path d="M124.787 54.9624L125.002 55.0702C125.077 55.5963 126.094 56.4552 126.524 56.8287L126.587 56.8832L126.33 57.0647C126.156 57.0003 125.814 56.5121 125.731 56.4876C125.328 56.3685 124.807 56.3509 124.445 56.1137C124.522 55.6571 124.629 55.3942 124.787 54.9624Z" fill="#DCCEBD"/>
<path d="M149.219 7.44253C150.475 7.27031 150.964 8.12488 150.758 9.26606C149.536 8.94968 150.353 8.67788 149.418 7.88371C149.298 7.78285 149.278 7.61761 149.219 7.44253Z" fill="#DCCEBD"/>
<path d="M100.669 53.7634C101.014 53.5257 101.648 53.2592 102.054 53.1726C101.978 53.9132 102.397 53.8968 102.398 54.7701L102.25 54.9095C101.637 54.5451 101.187 54.0505 100.669 53.7634Z" fill="#DCCEBD"/>
<path d="M102.951 99.3707C103.105 99.0668 102.993 98.6621 102.956 98.2626C103.2 97.8282 103.049 97.9717 103.608 97.7644C103.961 98.3678 104.166 99.0356 103.499 99.5224C103.258 99.4859 103.13 99.503 102.951 99.3707Z" fill="#DCCEBD"/>
<path d="M21.3447 87.8481C22.1897 88.0707 22.0697 88.2091 22.6243 89.1516L22.4508 89.3903C21.9331 89.4453 21.6574 89.5359 21.2661 89.2029C21.2159 88.7181 21.2849 88.3298 21.3447 87.8481Z" fill="#DCCEBD"/>
<path d="M6.80643 62.7544C7.77502 63.0551 7.21245 63.5708 8.04108 64.1081L7.92031 64.2497C7.39031 64.5369 7.30415 64.6776 6.80282 64.4118C6.59705 63.9527 6.743 63.2779 6.80643 62.7544Z" fill="#DCCEBD"/>
<path d="M130.929 72.0915C131.792 71.3857 131.008 71.669 131.219 70.6485L131.613 70.5356L132.049 71.0234C132.308 71.3082 132.327 71.3698 132.375 71.7596C132.005 72.2308 131.485 72.1253 130.929 72.0915Z" fill="#DCCEBD"/>
<path d="M83.365 90.3264C83.8808 89.9591 84.1701 89.6977 84.7866 89.5793C85.2548 89.7511 85.1163 89.6311 85.3584 90.0029C85.3356 90.1299 85.255 90.5264 85.2619 90.6294L85.0756 90.559C84.625 90.7247 83.8703 90.4527 83.365 90.3264Z" fill="#DCCEBD"/>
<path d="M57.588 45.0433C57.6343 44.8219 57.435 43.8442 57.4784 43.1401L57.6295 43.0337C58.082 43.5373 58.096 43.8186 58.3399 44.4742C58.2522 44.9606 58.1068 44.9867 57.588 45.0433Z" fill="#DCCEBD"/>
<path d="M12.6385 55.4C12.5924 54.9215 12.4956 54.5309 12.7589 54.1381C13.3506 54.0493 13.5388 54.7017 13.7842 55.181C13.7618 55.4082 13.7773 55.6159 13.6304 55.773C13.289 55.5694 13.0144 55.5087 12.6385 55.4Z" fill="#DCCEBD"/>
<path d="M73.5932 8.46649L73.7126 8.47803C75.3993 8.63059 74.797 7.96776 76.7191 8.83857L76.5609 9.24129C75.3209 8.61464 74.4172 8.89028 73.0808 8.86108C73.493 8.67988 73.4475 8.77931 73.5932 8.46649Z" fill="#DCCEBD"/>
<path d="M33.4724 69.2344C34.1309 69.7123 33.815 71.1506 33.4124 71.7535C32.6669 71.1236 33.1648 69.9377 33.4724 69.2344Z" fill="#DCCEBD"/>
<path d="M82.6593 10.7644L83.0462 11.0811C83.2325 11.8705 83.2632 12.5623 82.835 13.2595C82.6685 13.1838 82.6185 13.1193 82.4786 12.9995C82.3194 12.3445 82.5277 11.4279 82.6593 10.7644Z" fill="#DCCEBD"/>
<path d="M44.4424 89.4459C45.6102 89.3909 45.4319 89.8149 45.5641 90.5626C45.8002 90.765 46.0006 90.9368 46.1649 91.0779C45.1316 91.3032 44.554 90.3565 44.4424 89.4459Z" fill="#DCCEBD"/>
<path d="M106.167 50.0874C105.855 49.5403 105.727 49.6572 105.49 49.2481C106.231 49.2434 106.373 49.216 106.955 48.7581C107.285 48.9063 107.188 48.883 107.393 49.3065C106.88 49.7569 106.792 49.8121 106.167 50.0874Z" fill="#DCCEBD"/>
<path d="M141.856 50.4343C141.939 50.465 142.074 50.7355 142.138 50.8395C142.143 51.0298 142.049 51.1805 141.968 51.3581C141.353 51.6839 141.559 51.5982 140.732 51.3922L140.406 51.351L140.368 51.1415C140.884 50.7365 141.273 50.861 141.856 50.4343Z" fill="#DCCEBD"/>
<path d="M106.036 32.4279C106.75 32.3503 107.607 32.3088 108.155 32.8112L108.114 33.1791C107.343 33.1494 106.139 33.3191 106.036 32.4279Z" fill="#DCCEBD"/>
<path d="M80.0387 62.0139C79.9973 62.6012 79.9659 63.4266 79.8404 63.9822C79.4065 63.7252 79.2389 63.6132 78.8523 63.2907L78.8541 62.9879C79.3891 62.4829 79.36 62.3987 80.0387 62.0139Z" fill="#DCCEBD"/>
<path d="M142.588 28.0772C142.613 27.3317 142.557 26.2789 143.439 26.1897L143.877 26.5965C143.381 27.5555 143.125 27.4283 142.588 28.0772Z" fill="#DCCEBD"/>
<path d="M182.99 1.36597C183.483 1.42241 184.143 1.55506 184.562 1.82338L184.517 2.00254L184.167 2.07736C183.768 2.26524 183.343 2.54023 182.943 2.4643C182.768 1.97545 182.869 1.95999 182.99 1.36597Z" fill="#DCCEBD"/>
<path d="M62.1637 80.9759C62.5707 80.9655 62.8256 80.9162 63.1817 81.1047C63.2026 81.5803 63.0371 81.6568 62.7375 82.1472C62.311 82.0611 62.0971 82.055 61.7822 81.741C61.8173 81.262 61.8065 81.4033 62.1637 80.9759Z" fill="#DCCEBD"/>
<path d="M51.3106 51.8427L50.7951 51.6229L50.7705 51.3316C51.2286 50.736 51.8283 50.5378 52.5027 50.8916C52.0892 51.2323 51.7453 51.685 51.3106 51.8427Z" fill="#DCCEBD"/>
<path d="M112.231 25.8296C112.749 27.6629 113.957 26.7283 113.825 28.0376L113.57 28.2808L113.346 28.2027C113.011 27.4926 113.035 27.3158 112.289 27.0567C112.226 26.8352 112.235 26.1038 112.231 25.8296Z" fill="#DCCEBD"/>
<path d="M20.2776 82.0264C20.3398 82.0329 20.4021 82.0405 20.4642 82.0487C20.9392 82.1121 21.4336 82.2067 21.7233 82.5888L21.542 82.8433C21.2053 83.0886 21.0301 83.269 20.6082 83.2592C20.2733 82.8221 20.3582 82.6608 20.2776 82.0264Z" fill="#DCCEBD"/>
<path d="M16.5447 59.4958C17.5151 59.8188 17.2211 60.7416 17.0358 61.4977L16.7711 61.517L16.5437 61.2977C16.3525 60.7205 16.4759 60.1057 16.5447 59.4958Z" fill="#DCCEBD"/>
<path d="M49.7271 8.71244C48.9671 8.81116 43.6377 8.80233 43.2427 8.53537C43.6026 8.3036 43.7177 8.32098 44.1296 8.35018L44.2499 8.35958C45.381 8.91857 48.7946 8.33722 49.7271 8.71244Z" fill="#DCCEBD"/>
<path d="M63.2598 73.2003C63.8461 73.0905 64.0299 73.1476 64.6203 73.2611C64.4597 73.6697 64.4206 74.9901 64.3882 75.4995C63.9372 74.41 64.3932 73.6351 63.2598 73.2003Z" fill="#DCCEBD"/>
<path d="M84.2893 50.1243C84.0994 50.0491 83.9138 49.9894 83.7478 49.8719L83.763 49.5424C84.009 49.1325 84.4397 49.0781 84.9123 48.9399C85.0698 49.1065 85.138 49.156 85.3146 49.2946C84.9322 49.7429 84.8289 49.9058 84.2893 50.1243Z" fill="#DCCEBD"/>
<path d="M122.084 51.5776C122.566 51.5826 122.633 51.6593 122.924 51.9181L122.889 52.2071L122.521 52.4946C121.987 52.5041 121.678 52.5848 121.296 52.2617C121.545 51.7947 121.561 51.8917 122.084 51.5776Z" fill="#DCCEBD"/>
<path d="M114.864 51.45C114.87 52.1871 114.837 53.899 115.15 54.4721C115.019 54.6782 114.975 54.6692 114.749 54.7621L114.555 54.6169C114.29 53.685 114.643 52.389 114.864 51.45Z" fill="#DCCEBD"/>
<path d="M68.8434 90.7852C69.5025 90.4189 69.3878 90.3555 70.0454 90.375L70.3871 90.6096L70.3765 90.9139C69.7942 91.377 69.4724 91.1874 68.7507 91.0553L68.8434 90.7852Z" fill="#DCCEBD"/>
<path d="M13.1645 72.4058C13.1922 72.6949 13.2059 74.8018 13.2151 74.8198C12.5918 75.4582 12.8517 76.4403 12.6663 77.33C12.6049 76.6605 12.648 73.6881 12.6515 72.8243C12.7013 73.2734 12.698 73.4905 12.9278 73.8918C13.122 73.6098 13.1337 72.7969 13.1645 72.4058Z" fill="#DCCEBD"/>
<path d="M105.47 52.4666C106.025 52.4999 106.568 52.6217 107.04 52.9163C107.328 53.3543 107.281 53.1442 107.179 53.7161C106.483 53.5033 105.634 53.2027 105.47 52.4666Z" fill="#DCCEBD"/>
<path d="M99.955 107.105C100.215 107.136 100.302 107.174 100.541 107.257C100.83 107.691 100.661 108.42 100.61 108.988C99.8859 108.655 99.6721 107.813 99.955 107.105Z" fill="#DCCEBD"/>
<path d="M13.5293 74.1412C14.0814 74.1306 15.0703 74.1915 15.4532 74.6046L15.258 74.6619C14.6189 74.9385 14.5333 75.0539 13.903 74.9142C13.6254 74.5978 13.595 74.5558 13.5293 74.1412Z" fill="#DCCEBD"/>
<path d="M96.7451 107.156C97.5212 107.093 98.3939 107.171 98.8466 107.849C98.0185 107.948 96.8237 108.186 96.7451 107.156Z" fill="#DCCEBD"/>
<path d="M162.024 9.46652C161.302 9.47393 159.252 9.55969 158.654 9.25128C158.992 9.00754 159.135 9.0725 159.603 9.02905C160.173 9.10911 161.782 9.14558 162.001 9.36054L162.024 9.46652Z" fill="#DCCEBD"/>
<path d="M147.129 29.5984C147.449 29.6495 147.465 29.6521 147.749 29.8075C147.984 30.3455 147.887 31.1228 147.483 31.5584C146.871 31.0671 147.264 30.744 146.927 29.9114L147.129 29.5984Z" fill="#DCCEBD"/>
<path d="M51.5165 85.7598C52.7257 86.0042 51.9037 87.4631 51.6059 88.2513L51.4754 88.2268C51.3027 87.8403 51.6464 86.7196 51.5165 85.7598Z" fill="#DCCEBD"/>
<path d="M29.9438 98.8879L30.8586 98.866C30.8417 99.4551 30.8827 99.8524 30.5819 100.351L30.3795 100.386C30.0345 100.036 30.0155 99.3969 29.9438 98.8879Z" fill="#DCCEBD"/>
<path d="M95.4269 62.1866L95.6214 62.1638C95.9919 62.639 96.0523 62.5694 96.124 63.0898L95.9363 63.2358C95.4074 63.1903 94.8793 62.9939 94.6355 62.4866L94.7741 62.2848L95.4269 62.1866Z" fill="#DCCEBD"/>
<path d="M129.634 32.9005L129.16 32.6349C129.055 32.2073 129.035 32.3799 129.234 31.9875C129.725 31.7675 129.51 31.7973 130.048 31.8812L130.136 31.8181L130.428 32.2034C130.224 32.4131 129.886 32.8139 129.634 32.9005Z" fill="#DCCEBD"/>
<path d="M50.1815 91.8179C50.734 91.9925 50.7341 92.1249 50.8129 92.6434C50.5511 93.2987 50.7188 93.0903 50.1581 93.4938L49.7972 93.3458C49.6373 92.9156 49.9822 92.3343 50.1815 91.8179Z" fill="#DCCEBD"/>
<path d="M136.337 35.4915L136.956 35.5412C137.477 35.8848 137.695 36.4084 137.959 36.9777C137.76 37.0207 137.509 37.0329 137.303 37.0506C136.973 36.7948 136.969 36.2376 136.337 35.4915Z" fill="#DCCEBD"/>
<path d="M138.575 17.887C139.094 17.8341 139.431 17.7747 139.947 17.8662C140.337 18.1614 140.214 17.998 140.351 18.5754C139.845 18.5906 139.519 18.5969 139.015 18.5522C138.597 18.2529 138.72 18.4235 138.575 17.887Z" fill="#DCCEBD"/>
<path d="M17.2381 65.238C17.8328 65.2812 17.9018 65.3996 18.1001 65.9051L17.9886 66.1569L17.6473 66.2644C17.2538 66.1402 16.8821 66.0598 16.5854 65.7711L16.6669 65.519L17.2381 65.238Z" fill="#DCCEBD"/>
<path d="M31.0401 49.583C30.4884 49.6084 30.2982 49.6363 29.7647 49.4771L29.7109 49.3214C30.0877 48.9232 30.7437 48.8776 31.2659 48.9021C31.4294 49.1065 31.4871 49.1456 31.6839 49.3026C31.5601 49.3603 31.1515 49.5635 31.0401 49.583Z" fill="#DCCEBD"/>
<path d="M28.164 88.7209C28.4233 88.8016 28.7354 88.9137 28.9996 88.9429C29.1447 89.2261 29.1116 89.0754 29.0694 89.4153C28.4925 89.6767 27.6931 89.5742 27.3274 89.0318C27.6793 88.7388 27.6625 88.8164 28.164 88.7209Z" fill="#DCCEBD"/>
<path d="M112.502 48.593L112.765 48.6964C112.765 49.1359 112.301 49.1076 111.806 49.8559L111.74 49.9571C111.34 49.7655 111.275 49.4449 111.376 49.0641C111.941 48.5987 111.721 48.7328 112.502 48.593Z" fill="#DCCEBD"/>
<path d="M2.39038 32.5648C2.7353 31.8047 2.7101 31.5466 3.53516 31.3848C3.81124 31.4976 3.8564 31.5097 4.15402 31.5601L4.22823 31.5722C3.54383 32.1191 3.27845 32.3939 2.39038 32.5648Z" fill="#DCCEBD"/>
<path d="M105.673 107.131C106.181 107.258 106.657 107.266 106.888 107.629C106.717 107.728 106.685 107.744 106.553 107.882L106.456 107.984C106.292 108.374 106.344 108.418 106.031 108.65L105.833 108.464C105.713 107.928 105.637 107.683 105.673 107.131Z" fill="#DCCEBD"/>
<path d="M39.6773 110.436C39.0577 110.449 37.6496 110.609 37.3232 110.31L37.3963 110.052C37.9946 109.882 38.7355 110.184 39.6982 110.021L39.8328 109.997L39.6773 110.436Z" fill="#DCCEBD"/>
<path d="M78.0178 98.3209C78.4314 98.2887 78.6149 98.2402 78.9797 98.4572C79.1623 98.987 79.0007 99.2395 78.8651 99.8476L78.7393 99.8728C78.4437 99.5826 78.0157 98.7459 78.0178 98.3209Z" fill="#DCCEBD"/>
<path d="M68.6418 23.5347C69.18 23.5567 69.2894 23.5771 69.8067 23.7294C70.2591 24.1778 70.1266 24.0412 70.2957 24.727C69.3582 24.2401 68.8822 24.6714 68.6418 23.5347Z" fill="#DCCEBD"/>
<path d="M94.9568 9.77902L95.0664 9.76634C95.5007 9.71791 96.3212 9.65623 96.6657 9.93002C96.4697 10.2688 96.305 10.2493 95.8804 10.439L95.624 10.8065L95.3396 10.6571C95.089 10.3005 95.0141 10.2216 94.9568 9.77902Z" fill="#DCCEBD"/>
<path d="M174.056 60.6306C174.704 60.5701 175.447 60.3403 175.81 60.9313L175.673 61.3566C175.095 61.2612 174.415 61.2462 174.004 60.9261L174.056 60.6306Z" fill="#DCCEBD"/>
<path d="M110.44 34.5375C110.983 34.4877 111.833 34.3967 112.164 34.8729L112.023 35.1614C111.938 35.1682 111.853 35.1748 111.768 35.1808C111.161 35.2241 110.826 35.314 110.407 34.9487L110.44 34.5375Z" fill="#DCCEBD"/>
<path d="M159.603 9.02892C160.6 9.02907 162.636 8.99146 163.559 9.18762L163.522 9.33491C162.767 9.6181 162.602 9.35742 162.024 9.46639L162.001 9.36041C161.782 9.14545 160.173 9.10898 159.603 9.02892Z" fill="#DCCEBD"/>
<path d="M144.518 2.56331L144.713 2.49878L144.906 2.62157C144.859 3.21717 144.851 3.29708 144.524 3.7921C144.097 4.06105 144.301 4.00735 143.716 3.928C143.975 3.62899 144.087 3.53284 144.194 3.14608C143.991 2.79394 144.107 2.91331 143.634 2.7324L144.518 2.56331Z" fill="#DCCEBD"/>
<path d="M39.2282 54.741L39.5328 55.1052C39.8408 55.782 39.6573 55.476 40.4335 55.8631C39.6239 56.0061 39.5884 56.3426 39.2659 56.3565C39.126 55.6576 39.0413 55.4163 39.2282 54.741Z" fill="#DCCEBD"/>
<path d="M20.5832 55.6345C21.3319 56.0801 21.1456 56.8838 20.9332 57.5673C20.6656 57.4645 20.6369 57.3935 20.4451 57.1652C20.302 56.7196 20.4845 56.1123 20.5832 55.6345Z" fill="#DCCEBD"/>
<path d="M13.6921 97.4045C14.2277 97.5315 14.1363 97.4283 14.4671 97.7823C14.4793 98.2058 14.4558 98.5446 14.429 98.9655L14.0724 99.0235C13.6576 98.5732 13.7125 98.043 13.6921 97.4045Z" fill="#DCCEBD"/>
<path d="M42.1877 11.2555C42.3748 11.4499 42.4842 11.5726 42.6511 11.7848C43.006 11.4602 43.1017 11.3546 43.5383 11.1387C43.8554 11.5952 43.3132 12.1143 43.018 12.4794C42.6237 12.1605 42.1872 11.8049 42.1877 11.2555Z" fill="#DCCEBD"/>
<path d="M84.3384 67.3417C85.2473 67.0965 86.5369 67.0999 87.0746 67.9773C86.4248 67.9306 84.9194 67.6138 84.3384 67.3417Z" fill="#DCCEBD"/>
<path d="M88.3094 84.1652C88.2117 84.0792 89.5704 85.385 89.402 85.1667L89.234 85.3085C88.6427 85.43 88.6277 85.5278 88.1273 85.3652C88.0153 84.8776 88.156 84.7159 88.3094 84.1652Z" fill="#DCCEBD"/>
<path d="M188.086 52.6403C187.531 52.4394 187.123 52.3511 186.977 51.7339L187.239 51.5745C187.62 51.6112 187.733 51.6636 188.094 51.7985C188.093 52.024 188.106 52.4325 188.086 52.6403Z" fill="#DCCEBD"/>
<path d="M24.2925 8.15254C24.6811 8.08773 25.288 8.13588 25.6765 8.06337C26.2426 7.95781 26.0149 7.47419 26.5199 7.2229L26.7241 7.93032L27.1228 8.11194C26.3471 8.46608 25.1909 8.23531 24.2925 8.15254Z" fill="#DCCEBD"/>
<path d="M155.131 9.64054C154.549 9.52259 153.422 9.56277 153.005 9.17273L153.008 9.1696L153.201 9.27743L153.332 9.09823C153.909 9.02957 154.644 9.12928 155.235 9.18498L155.131 9.64054Z" fill="#DCCEBD"/>
<path d="M64.7272 11.1797C65.1034 11.2455 65.4607 11.3935 65.793 11.4446C66.111 11.6475 66.004 11.5438 66.1819 11.884L65.9845 12.0615C65.4619 12.1707 65.3936 12.137 64.9168 11.9274C64.6245 11.5701 64.6949 11.7513 64.7272 11.1797Z" fill="#DCCEBD"/>
<path d="M32.8617 85.7114C33.2967 85.6943 33.7026 85.6342 34.0815 85.847L34.1095 86.0728L33.8061 86.3758C33.2655 86.3001 32.919 86.2813 32.4265 86.0399L32.4272 85.8783L32.8617 85.7114Z" fill="#DCCEBD"/>
<path d="M120.781 85.8389C121.561 85.7097 122.416 85.5503 122.781 86.3046C121.882 86.3843 121.421 86.5538 120.781 85.8389Z" fill="#DCCEBD"/>
<path d="M156.05 9.14819L156.044 8.75232C156.439 8.61528 157.157 8.85916 157.444 9.15133L157.377 9.37711L157.455 9.38338C157.111 9.55076 156.937 9.54222 156.561 9.57854L156.449 9.25859L156.05 9.14819Z" fill="#DCCEBD"/>
<path d="M57.0438 87.4973C56.5402 88.1883 56.8224 88.7117 56.3661 89.0572C56.3431 88.4888 56.5333 86.695 57.0465 86.4189L57.2628 86.6625L56.9184 86.7906C56.8077 87.1843 56.8104 87.0164 57.0438 87.4973Z" fill="#DCCEBD"/>
<path d="M53.5963 88.2764C54.3472 88.6801 54.0125 89.653 53.8223 90.2881C53.2464 89.8264 53.4833 88.9141 53.5963 88.2764Z" fill="#DCCEBD"/>
<path d="M25.5404 100.819C25.912 100.988 25.7903 100.885 26.0237 101.199C25.8497 101.555 25.1797 101.766 24.7699 101.945L24.5694 102.003L24.5061 101.838C24.7274 101.451 25.1868 101.115 25.5404 100.819Z" fill="#DCCEBD"/>
<path d="M72.642 102.295C73.2948 102.369 73.4539 102.385 74.0568 102.63L74.0873 102.793L73.7422 102.92C73.3253 103.047 73.133 103.155 72.7252 103.023C72.5279 102.659 72.5805 102.809 72.642 102.295Z" fill="#DCCEBD"/>
<path d="M30.1033 87.0013C30.5349 86.9565 30.8636 86.944 31.2945 86.9336C31.7552 87.1902 31.6143 87.0516 31.8032 87.6359C30.9395 87.6252 30.6469 87.6718 30.1033 87.0013Z" fill="#DCCEBD"/>
<path d="M152.653 13.5586L153 13.6005L153.054 13.7861C152.775 14.2417 152.559 14.32 152.09 14.5754C151.97 14.5502 151.843 14.457 151.73 14.3899L151.708 14.1945C151.925 13.8526 152.285 13.7305 152.653 13.5586Z" fill="#DCCEBD"/>
<path d="M32.1919 67.4465L32.4755 67.5779L32.5046 67.8055C32.1445 68.1726 31.6693 68.2981 31.1828 68.4789L30.8323 68.3098C30.9279 68.0286 31.7812 67.6884 32.1919 67.4465Z" fill="#DCCEBD"/>
<path d="M67.8334 5.53184C67.6982 4.88924 67.6128 4.95605 67.8442 4.47001C68.4 4.42869 68.2489 4.45476 68.8092 4.83682C68.5404 5.21987 68.2517 5.32158 67.8334 5.53184Z" fill="#DCCEBD"/>
<path d="M88.7537 59.6665C89.3263 59.7255 89.2805 59.6373 89.6961 59.9382C89.6603 60.3174 89.6918 60.1839 89.3779 60.5194C88.9406 60.4879 88.7945 60.4939 88.3795 60.3095L88.3623 60.0755L88.7537 59.6665Z" fill="#DCCEBD"/>
<path d="M14.9597 79.7148L15.2586 79.8472C15.3429 80.3315 15.2631 81.1891 15.0231 81.6387L14.6879 81.4374C14.5643 81.0146 14.8436 80.2469 14.9597 79.7148Z" fill="#DCCEBD"/>
<path d="M149.24 25.7925C149.895 26.111 149.902 27.3559 150.12 28.1521L149.864 28.1743C149.538 27.8521 149.375 26.4064 149.24 25.7925Z" fill="#DCCEBD"/>
<path d="M22.3831 64.1379C23.0844 64.1283 23.8924 64.539 24.2732 65.1339C23.2561 65.1047 23.0353 64.8957 22.3831 64.1379Z" fill="#DCCEBD"/>
<path d="M9.8125 39.5066L10.3079 39.6318C10.5792 39.9878 10.478 40.5368 10.4529 41.0058C10.1445 41.0136 10.2608 41.0324 9.97334 40.8519C9.81307 40.4092 9.82856 39.9778 9.8125 39.5066Z" fill="#DCCEBD"/>
<path d="M50.2459 9.95459C50.6984 10.0458 50.6069 9.95815 50.8789 10.2384C50.7264 10.6233 50.6531 10.5782 50.2636 10.8389C49.7484 10.729 49.8429 10.8227 49.4917 10.4985C49.7177 10.1052 49.7522 10.1879 50.2459 9.95459Z" fill="#DCCEBD"/>
<path d="M11.6154 28.946C12.0812 29.0049 12.0161 28.921 12.2821 29.1849C11.9827 29.5814 12.0344 29.4728 11.4959 29.6641C11.0562 29.6167 11.0263 29.6892 10.7427 29.4292C11.0462 29.0321 11.0483 29.1321 11.6154 28.946Z" fill="#DCCEBD"/>
<path d="M62.8408 35.0338C62.369 34.9088 61.6134 34.4992 61.7405 33.9297C62.2675 33.9483 62.5248 34.3451 62.9268 34.7578L62.8408 35.0338Z" fill="#DCCEBD"/>
<path d="M117.081 53.8645C117.574 53.9117 117.4 53.8329 117.754 54.1399L117.726 54.3857L117.382 54.6119C116.949 54.5255 116.767 54.5072 116.369 54.2866C116.514 53.9879 116.688 54.0117 117.081 53.8645Z" fill="#DCCEBD"/>
<path d="M9.05518 17.8778C9.56989 17.8786 10.1935 17.8132 10.6003 18.0964L10.6247 18.4412C10.003 18.4217 9.55124 18.5084 9.06814 18.2177L9.05518 17.8778Z" fill="#DCCEBD"/>
<path d="M14.8608 109.991C15.326 110.035 15.81 109.988 16.1686 110.281C15.7423 110.504 14.875 110.458 14.3647 110.465L14.8608 109.991Z" fill="#DCCEBD"/>
<path d="M6.80029 57.5767C7.64472 57.7244 8.02334 57.6633 8.33056 58.4864C7.51133 58.3416 6.97874 58.4247 6.80029 57.5767Z" fill="#DCCEBD"/>
<path d="M112.698 16.0579C112.789 16.1157 112.932 16.2792 113.014 16.3646L112.961 16.548C112.583 16.7715 112.196 16.7204 111.757 16.7113C111.666 16.6425 111.585 16.5224 111.511 16.4282C111.82 16.1611 112.249 16.1493 112.698 16.0579Z" fill="#DCCEBD"/>
<path d="M121.285 66.1555C121.593 66.225 121.576 66.2219 121.792 66.4582C121.612 66.8336 121.625 66.7359 121.164 66.926C120.789 66.8369 120.663 66.8267 120.356 66.599C120.598 66.2927 120.851 66.2974 121.285 66.1555Z" fill="#DCCEBD"/>
<path d="M144.507 49.2444C145.043 49.2095 145.326 49.1639 145.846 49.3062L145.958 49.5364L145.772 49.8652C145.303 49.7959 144.908 49.7709 144.493 49.5406L144.507 49.2444Z" fill="#DCCEBD"/>
<path d="M64.7273 11.1797C64.9777 10.7794 65.044 10.612 65.4862 10.4146L65.681 10.545C65.8547 11.5227 65.3555 10.7717 65.7932 11.4446C65.4609 11.3935 65.1035 11.2455 64.7273 11.1797Z" fill="#DCCEBD"/>
<path d="M109.076 8.38533C109.818 8.23931 110.77 8.09302 111.356 8.6161C110.724 8.73049 109.626 8.75998 109.076 8.38533Z" fill="#DCCEBD"/>
<path d="M91.0814 83.3158C90.7602 82.8983 90.3099 82.3881 90.1733 81.8983L90.331 81.8091C91.2688 82.1067 90.7496 82.8119 91.4294 83.2849L91.0814 83.3158Z" fill="#DCCEBD"/>
<path d="M59.4382 91.8755L59.6465 92.0622C59.8077 92.6358 59.6894 93.335 59.4861 93.8885L59.4502 93.8321C59.0281 93.1826 59.2541 92.5856 59.4382 91.8755Z" fill="#DCCEBD"/>
<path d="M28.1635 58.8289C28.5998 59.2005 28.4076 60.1055 28.2187 60.5683C28.0163 60.4495 27.9987 60.3991 27.8556 60.2163C27.827 59.6259 27.9528 59.3868 28.1635 58.8289Z" fill="#DCCEBD"/>
<path d="M76.7192 8.83862C77.4822 8.94404 77.7035 8.93108 78.4733 8.85387L78.4864 9.26484C77.8711 9.3033 77.1466 9.39262 76.561 9.24134L76.7192 8.83862Z" fill="#DCCEBD"/>
<path d="M177.676 41.2674C178.107 41.194 178.307 41.1334 178.74 41.2387C178.961 41.5897 178.911 41.4268 178.792 41.9816C178.303 41.8605 178.023 41.828 177.637 41.502L177.676 41.2674Z" fill="#DCCEBD"/>
<path d="M113.892 20.1812C114.372 20.1544 114.82 20.041 115.088 20.4708L114.938 20.8593C114.497 20.8519 114.072 20.8136 113.772 20.4627L113.892 20.1812Z" fill="#DCCEBD"/>
<path d="M19.0458 59.8088C19.4929 60.6447 19.568 60.6506 19.1269 61.4668C19.0052 61.3903 18.911 61.2667 18.8102 61.1566C18.6984 60.6324 18.8642 60.3158 19.0458 59.8088Z" fill="#DCCEBD"/>
<path d="M50.4743 5.63379C50.9411 5.64818 51.3969 5.60402 51.7691 5.86542L51.8253 6.19063C51.3485 6.18992 50.5865 6.28337 50.3042 5.90317L50.4743 5.63379Z" fill="#DCCEBD"/>
<path d="M28.1638 88.7209C28.3328 88.348 28.3873 88.0977 28.7399 87.9199C29.064 88.2299 29.1056 88.3481 28.9612 88.8164L28.9994 88.9429C28.7352 88.9137 28.4231 88.8016 28.1638 88.7209Z" fill="#DCCEBD"/>
<path d="M84.1519 62.7136C84.8559 62.7532 85.2497 62.7458 85.6763 63.3878C85.286 63.4874 85.187 63.4662 84.7829 63.4283C84.3906 63.2411 84.3469 63.0897 84.1519 62.7136Z" fill="#DCCEBD"/>
<path d="M95.4271 62.1867C95.3438 61.6747 95.1877 61.2018 95.4582 60.7881L95.6622 60.7889C95.9033 61.2241 95.7414 61.6731 95.6215 62.1639L95.4271 62.1867Z" fill="#DCCEBD"/>
<path d="M115.159 25.7671L115.494 25.9437C115.787 26.3202 115.791 26.8469 115.852 27.3361L115.417 27.1704C115.115 26.7722 115.171 26.2823 115.159 25.7671Z" fill="#DCCEBD"/>
<path d="M48.8791 86.3948C49.1733 86.3052 49.0295 86.3065 49.3253 86.3912L49.2388 86.5861C48.759 86.9236 48.6734 86.9742 48.1197 87.1625L47.9431 87.2944L47.8237 87.1893C48.0912 86.7545 48.4255 86.6324 48.8791 86.3948Z" fill="#DCCEBD"/>
<path d="M70.2707 5.3623C70.467 5.42484 70.6486 5.55946 70.8249 5.67242L70.8718 5.98881L70.5844 6.35107C70.2624 6.23867 70.0903 6.15363 69.7861 5.99821L69.7917 5.78197L70.2707 5.3623Z" fill="#DCCEBD"/>
<path d="M86.8245 52.6715C87.7293 52.4656 87.9792 52.5651 88.8132 52.9829C87.9429 53.0922 87.485 53.2721 86.8245 52.6715Z" fill="#DCCEBD"/>
<path d="M29.9321 107.357C30.6891 107.289 31.1384 107.144 31.6506 107.74C30.9245 107.796 30.2625 108.046 29.9321 107.357Z" fill="#DCCEBD"/>
<path d="M57.0164 19.4625C57.7125 19.4342 58.0854 19.3176 58.4578 19.947C58.0225 20.0369 57.8508 20.0238 57.4206 20.0134C57.0212 19.7574 57.1267 19.9064 57.0164 19.4625Z" fill="#DCCEBD"/>
<path d="M16.2063 70.3175C16.3443 70.3047 16.4825 70.2949 16.6209 70.2879C17.1825 70.2614 17.4524 70.3286 17.8396 70.6806C16.9305 70.8554 16.6816 71.1029 16.2063 70.3175Z" fill="#DCCEBD"/>
<path d="M97.8455 63.6338L98.1566 63.7734C98.4211 64.2208 98.2973 64.7 98.2372 65.2312L97.965 65.1961C97.7589 64.778 97.8317 64.1213 97.8455 63.6338Z" fill="#DCCEBD"/>
<path d="M6.12329 59.7824C6.65259 59.6943 6.99657 59.6501 7.44526 59.8862L7.55923 60.2718C7.03475 60.2807 6.69304 60.3283 6.22171 60.0986L6.12329 59.7824Z" fill="#DCCEBD"/>
<path d="M72.3088 100.676L72.9312 101.001L72.9946 101.253L72.6478 101.621C72.2801 101.544 72.1908 101.517 71.8495 101.361L71.8354 101.12L72.3088 100.676Z" fill="#DCCEBD"/>
<path d="M104.428 61.7312C104.894 62.0081 105.017 61.9779 105.235 62.3869C104.769 62.6272 104.082 62.2849 103.645 62.0845L104.428 61.7312Z" fill="#DCCEBD"/>
<path d="M68.0049 53.1558C68.3204 53.1642 68.4171 53.1938 68.7271 53.2677L68.8487 53.4994L68.574 54.3861L68.5099 54.5529L68.3346 54.4648L68.0049 53.1558Z" fill="#DCCEBD"/>
<path d="M56.9802 49.4426C57.1295 50.3456 57.0111 50.6983 56.8062 51.5746L56.7292 50.71C56.6829 50.4914 56.5581 50.2726 56.458 50.0684L56.7751 49.9425L56.9802 49.4426Z" fill="#DCCEBD"/>
<path d="M161.647 51.8242C161.887 51.8554 162.19 51.9316 162.432 51.9849L162.53 52.2125L162.209 52.5809C161.943 52.6936 161.911 52.6926 161.621 52.7247C161.431 52.3701 161.539 52.313 161.647 51.8242Z" fill="#DCCEBD"/>
<path d="M75.7036 91.9415C76.1347 91.9184 76.7864 91.9193 77.139 92.1711L77.0105 92.4124C76.552 92.4552 75.9992 92.5191 75.6389 92.2546L75.7036 91.9415Z" fill="#DCCEBD"/>
<path d="M189.356 11.3126C190.044 11.2442 190.451 11.1409 190.714 11.8293C189.942 11.8894 189.639 12.0586 189.356 11.3126Z" fill="#DCCEBD"/>
<path d="M39.6436 107.329C40.254 107.343 40.4057 107.341 40.9874 107.508L41.0402 107.777C40.4924 107.847 40.1595 107.982 39.751 107.743L39.6436 107.329Z" fill="#DCCEBD"/>
<path d="M45.0594 24.3379C45.2507 24.4605 45.2831 24.6165 45.3723 24.8312C45.356 25.2919 45.2254 25.4178 44.9632 25.7824L44.7144 25.365C44.6897 24.8714 44.8056 24.7457 45.0594 24.3379Z" fill="#DCCEBD"/>
<path d="M167.82 10.2305L168.278 10.4799C168.427 10.948 168.285 10.9997 168.063 11.5816L168.05 11.5896L167.902 11.5234C167.753 10.9903 167.639 10.7511 167.82 10.2305Z" fill="#DCCEBD"/>
<path d="M39.1551 72.5862C39.3316 72.6459 39.4299 72.712 39.592 72.8016C39.7769 73.1826 39.6281 73.5187 39.5126 73.9268L39.1933 73.7906C38.9322 73.3144 39.0606 73.2541 39.1551 72.5862Z" fill="#DCCEBD"/>
<path d="M70.0027 17.8821C70.1693 17.9044 70.3945 17.967 70.5637 18.0074C70.859 18.507 70.7505 18.7191 70.7453 19.3744C70.089 19.0482 70.6709 18.9412 70.0027 17.8821Z" fill="#DCCEBD"/>
<path d="M43.7943 45.2327L44.1114 45.366C44.3488 45.7516 44.3057 46.2455 44.3231 46.7214L44.0085 46.64C43.7286 46.2854 43.7937 45.7067 43.7943 45.2327Z" fill="#DCCEBD"/>
<path d="M95.0195 20.1907C95.5443 20.5895 95.5915 21.2222 95.3298 21.785C94.76 21.3726 94.997 20.8905 95.0195 20.1907Z" fill="#DCCEBD"/>
<path d="M22.3701 60.6992C22.754 61.0623 22.7422 61.7863 22.5527 62.2448L22.1998 62.0462C22.0244 61.6407 22.241 61.1428 22.3701 60.6992Z" fill="#DCCEBD"/>
<path d="M148.545 48.1768C149.112 47.905 149.615 48.35 149.948 48.7728C149.526 48.7701 149.037 48.5716 148.629 48.4339L148.545 48.1768Z" fill="#DCCEBD"/>
<path d="M14.6428 19.5896C15.1502 19.5557 15.4905 19.4991 15.9756 19.6564L15.9974 19.8936C15.4894 19.9939 15.1352 20.1571 14.7472 19.946L14.6428 19.5896Z" fill="#DCCEBD"/>
<path d="M12.5456 105.487L12.9299 105.554C12.9586 106.098 12.9857 106.238 12.8132 106.761L12.6393 106.812C12.3935 106.327 12.4785 106.03 12.5456 105.487Z" fill="#DCCEBD"/>
<path d="M187.035 69.8201C187.513 70.1498 187.72 70.1652 187.89 70.6124C187.503 70.6664 187.241 70.4939 186.913 70.2477C186.859 70.2073 186.806 70.1658 186.754 70.1235L187.035 69.8201Z" fill="#DCCEBD"/>
<path d="M39.6272 5.64136C39.9276 5.66914 39.9964 5.70802 40.2818 5.817L40.3636 6.07883L40.1354 6.44137C39.8802 6.40989 39.6073 6.36003 39.3516 6.31886L39.2664 6.14051L39.6272 5.64136Z" fill="#DCCEBD"/>
<path d="M36.8303 79.0579L37.1585 79.3503C37.2909 79.9168 37.2349 79.7915 37.0626 80.4141L36.7395 80.052C36.6217 79.4527 36.6353 79.6619 36.8303 79.0579Z" fill="#DCCEBD"/>
<path d="M156.05 9.14819L156.449 9.25859L156.561 9.57854C156.101 9.6113 155.596 9.62156 155.132 9.64051L155.235 9.18495C155.625 9.29264 155.67 9.28936 156.05 9.14819Z" fill="#DCCEBD"/>
<path d="M146.233 4.21704L146.595 4.52787C146.77 4.96876 146.643 5.18856 146.491 5.63045L146.284 5.47774C146.053 5.10537 146.174 4.66121 146.233 4.21704Z" fill="#DCCEBD"/>
<path d="M55.7568 29.1424C56.4139 29.1062 56.4209 29.0001 56.906 29.2749L56.9576 29.6289C56.309 29.6561 56.0117 29.7739 55.7568 29.1424Z" fill="#DCCEBD"/>
<path d="M71.3312 92.1204C71.653 92.748 71.7525 93.0447 71.4425 93.705C70.9258 93.192 71.158 92.7607 71.3312 92.1204Z" fill="#DCCEBD"/>
<path d="M71.8621 8.37034C72.4039 8.35196 73.106 8.2786 73.5931 8.46649C73.4474 8.77932 73.4929 8.67989 73.0807 8.86109L72.0039 8.51422L71.8621 8.37034Z" fill="#DCCEBD"/>
<path d="M159.737 0.099301C160.401 0.0109522 160.847 -0.175261 161.232 0.41224C160.665 0.474605 160.422 0.526102 159.869 0.400873L159.737 0.099301Z" fill="#DCCEBD"/>
<path d="M139.906 44.4421C140.202 45.087 140.236 45.3883 139.959 46.0308C139.458 45.3775 139.605 45.1317 139.906 44.4421Z" fill="#DCCEBD"/>
<path d="M46.6773 89.4624L46.985 89.6188L46.988 89.8447L46.3451 90.2678L45.897 89.9645L45.9449 89.7842L46.6773 89.4624Z" fill="#DCCEBD"/>
<path d="M75.235 85.4778L75.6478 85.7509L75.6792 85.9868L75.2323 86.3658C74.9618 86.2566 74.8919 86.2 74.6494 86.0332L74.6919 85.815L75.235 85.4778Z" fill="#DCCEBD"/>
<path d="M48.4553 103.352C49.0853 103.337 49.1113 103.232 49.5569 103.514L49.5744 103.853C48.9318 103.877 48.6759 104.003 48.4553 103.352Z" fill="#DCCEBD"/>
<path d="M23.1519 110.088C23.8917 109.985 24.2949 109.904 24.9318 110.292C24.1636 110.426 23.8138 110.488 23.1519 110.088Z" fill="#DCCEBD"/>
<path d="M103.645 62.0843C103.241 62.0531 103.148 62.1137 102.86 61.8959C103.331 61.6738 103.901 61.7265 104.428 61.7311L103.645 62.0843Z" fill="#DCCEBD"/>
<path d="M56.499 49.0084C55.8736 49.0071 55.8512 49.1098 55.4165 48.818C55.7423 48.5141 55.7255 48.5949 56.221 48.4897L56.499 49.0084Z" fill="#DCCEBD"/>
<path d="M47.2227 93.1812C47.5998 93.5679 47.5732 93.9334 47.5901 94.4504L47.1509 94.138C46.9958 93.6384 47.053 93.7592 47.2227 93.1812Z" fill="#DCCEBD"/>
<path d="M34.624 110.084C35.0332 110.023 35.4071 109.924 35.7868 110.088L35.8981 110.391C35.397 110.428 34.9207 110.547 34.624 110.084Z" fill="#DCCEBD"/>
<path d="M75.3307 17.2241L75.5534 17.3812C75.4802 17.7798 75.2589 17.8241 74.8567 18.1395L74.6284 18.0525C74.7114 17.6538 74.9661 17.5508 75.3307 17.2241Z" fill="#DCCEBD"/>
<path d="M14.3647 110.465C13.8988 110.366 13.9616 110.453 13.6809 110.168C14.0503 109.893 14.4027 109.965 14.8608 109.992L14.3647 110.465Z" fill="#DCCEBD"/>
<path d="M150.266 1.55835L150.511 1.72523C150.741 2.17675 150.658 2.1039 150.587 2.69294L150.35 2.6955C150.128 2.24195 150.229 2.13924 150.266 1.55835Z" fill="#DCCEBD"/>
<path d="M39.228 54.741C39.5349 54.381 39.5356 54.2403 39.9074 54.188C39.9366 54.6004 39.7657 54.7709 39.5326 55.1052L39.228 54.741Z" fill="#DCCEBD"/>
<path d="M87.4045 62.8667C87.8396 62.9995 87.8057 62.9084 87.9647 63.1988L87.7474 63.571L87.0491 63.2562L87.012 63.0861L87.4045 62.8667Z" fill="#DCCEBD"/>
<path d="M185.989 64.0424C186.726 63.979 186.917 63.8642 187.385 64.4608C186.788 64.5173 186.514 64.3197 185.989 64.0424Z" fill="#DCCEBD"/>
<path d="M118.91 3.36719L119.172 3.54198C119.397 4.01136 119.322 3.90224 119.227 4.50239C118.817 4.26635 118.909 3.76534 118.91 3.36719Z" fill="#DCCEBD"/>
<path d="M129.635 52.8235C129.988 52.898 130.041 52.9327 130.352 53.1186L130.33 53.451L130.247 53.4659C129.893 53.2316 129.861 53.1853 129.635 52.8235Z" fill="#DCCEBD"/>
<path d="M57.0439 87.4971C56.8106 87.0162 56.8079 87.1842 56.9186 86.7904L57.263 86.6624C57.2041 86.9371 57.1537 87.242 57.0439 87.4971Z" fill="#DCCEBD"/>
</g>
<defs>
<filter id="filter0_ii_12_6869" x="0" y="0" width="198.104" height="118.456" filterUnits="userSpaceOnUse" color-interpolation-filters="sRGB">
<feFlood flood-opacity="0" result="BackgroundImageFix"/>
<feBlend mode="normal" in="SourceGraphic" in2="BackgroundImageFix" result="shape"/>
<feColorMatrix in="SourceAlpha" type="matrix" values="0 0 0 0 0 0 0 0 0 0 0 0 0 0 0 0 0 0 127 0" result="hardAlpha"/>
<feOffset dx="-0.5" dy="-0.5"/>
<feComposite in2="hardAlpha" operator="arithmetic" k2="-1" k3="1"/>
<feColorMatrix type="matrix" values="0 0 0 0 0.0862745 0 0 0 0 0.0862745 0 0 0 0 0.0862745 0 0 0 1 0"/>
<feBlend mode="normal" in2="shape" result="effect1_innerShadow_12_6869"/>
<feColorMatrix in="SourceAlpha" type="matrix" values="0 0 0 0 0 0 0 0 0 0 0 0 0 0 0 0 0 0 127 0" result="hardAlpha"/>
<feOffset dx="0.75" dy="0.75"/>
<feComposite in2="hardAlpha" operator="arithmetic" k2="-1" k3="1"/>
<feColorMatrix type="matrix" values="0 0 0 0 1 0 0 0 0 0.909804 0 0 0 0 0.811765 0 0 0 1 0"/>
<feBlend mode="normal" in2="effect1_innerShadow_12_6869" result="effect2_innerShadow_12_6869"/>
</filter>
</defs>
</svg>
