<?xml version="1.0" encoding="UTF-8" standalone="no"?>
<svg
   width="287"
   height="49"
   viewBox="0 0 287 49"
   fill="none"
   version="1.1"
   id="svg9"
   xmlns="http://www.w3.org/2000/svg"
   xmlns:svg="http://www.w3.org/2000/svg">
  <title
     id="title1">Messages of Things</title>
  <defs
     id="defs6">
    <path
       id="frame-brush"
       d="M10.4726 19.1847C10.5474 25.3348 10.4501 29.5329 10.4286 35.2382C10.4256 36.0045 10.4229 36.7857 10.4203 37.5801L10.02 37.1798C22.2449 37.2191 37.5837 37.2187 49.6454 37.239C59.3681 37.2549 69.2475 37.2741 78.9115 37.2914C79.4071 37.2923 79.7029 37.2992 79.9276 37.2996C82.0435 37.3033 85.5918 37.3026 87.6908 37.3064C92.1062 37.3144 99.7888 37.3245 103.833 37.3355C105.55 37.3402 107.312 37.3436 107.979 37.3577C108.607 37.3592 108.949 37.3477 109.113 37.3473C109.115 37.3473 109.117 37.3473 109.119 37.3474C109.646 37.3461 110.979 37.3562 111.273 37.3561C111.317 37.356 111.046 37.3472 111.76 37.3507C111.823 37.351 111.765 37.3567 112.365 37.3576C112.522 37.3578 114.531 37.3518 115.105 37.3521C117.016 37.353 121.58 37.366 123.864 37.3689C124.214 37.3694 124.415 37.3666 124.784 37.367C124.975 37.3673 125.26 37.371 125.319 37.3711C125.576 37.3713 126.699 37.3576 126.296 37.3871C127.468 37.3867 127.123 37.3764 127.149 37.37C128.422 37.3709 129.035 37.3856 129.368 37.3713C130.252 37.3728 131.136 37.3743 132.02 37.3758L131.816 37.5801C131.825 32.2057 131.833 26.8314 131.842 21.4571C131.84 21.4552 131.838 21.4534 131.836 21.4515C131.847 19.6068 131.834 18.974 131.847 17.9209C131.845 17.2716 131.844 16.6222 131.842 15.9729C131.844 14.8417 131.846 13.7108 131.848 12.5801L132.02 12.752C116.468 12.7254 100.956 12.7108 85.5735 12.6882C84.8771 12.6872 84.7032 12.6844 83.5548 12.6828C82.2867 12.6811 80.5033 12.6814 78.8321 12.6789C77.3661 12.6768 75.2034 12.6715 73.5688 12.669C73.1998 12.6684 72.9329 12.6694 72.8914 12.6693C72.6471 12.6689 72.6348 12.6667 72.3979 12.6663C72.1145 12.6659 71.772 12.667 71.4446 12.6664C70.221 12.6644 68.8877 12.663 68.7328 12.6628C67.9865 12.6615 67.8218 12.6594 67.7604 12.6592C66.9303 12.6579 67.2415 12.66 67.0348 12.6596C65.9621 12.6576 65.2038 12.6525 63.7353 12.6544C63.7753 12.6529 63.8153 12.6515 63.8553 12.65C62.7314 12.6477 63.4737 12.6527 63.244 12.6531C63.1503 12.6532 60.7312 12.6494 60.5445 12.6491C59.8948 12.648 59.8773 12.6461 59.8212 12.646C59.6843 12.6458 58.0495 12.6456 57.2114 12.6429C56.2198 12.6398 57.387 12.6378 57.1407 12.6368C57.0992 12.6367 56.061 12.6358 55.9216 12.6345C55.7678 12.6332 56.6655 12.6342 56.6517 12.6337C56.642 12.6334 55.1514 12.6293 55.4371 12.628C55.6668 12.6266 57.6891 12.6309 58.1176 12.6305C58.1883 12.6305 58.0549 12.6282 58.1176 12.6282C58.3692 12.6282 63.0286 12.6328 63.2418 12.6334C62.9992 12.6342 62.7566 12.635 62.5139 12.6358C62.8365 12.6362 63.1592 12.6366 63.4818 12.6371C63.0231 12.6375 62.5644 12.6378 62.1057 12.6381C62.7874 12.6475 64.8406 12.6412 64.9252 12.6367C64.9619 12.6346 63.7067 12.6282 64.8747 12.6261C64.6972 12.6254 64.5196 12.6248 64.342 12.6241C63.976 12.6246 63.61 12.6252 63.244 12.6257C63.4878 12.6265 63.7315 12.6272 63.9753 12.628C63.8856 12.6285 63.7958 12.629 63.7061 12.6296C63.022 12.6299 62.3379 12.6302 61.6537 12.6305C61.302 12.6297 61.3751 12.6281 61.1333 12.6275C58.1181 12.6207 60.0849 12.6277 58.1108 12.6251C57.829 12.6239 57.5471 12.6228 57.2652 12.6217C57.3647 12.6253 56.4903 12.6223 55.4326 12.6228C55.559 12.6218 55.6854 12.6209 55.8117 12.6199C54.2797 12.619 51.1739 12.6113 52.012 12.6176C51.661 12.6168 51.3099 12.616 50.9589 12.6153C50.6624 12.6159 50.366 12.6165 50.0695 12.6171C49.6598 12.6166 49.2501 12.6161 48.8403 12.6157C48.8385 12.6152 48.8366 12.6148 48.8347 12.6143C49.1615 12.6146 49.4882 12.6149 49.815 12.6152C49.5697 12.6135 49.3245 12.6119 49.0792 12.6103C48.8381 12.6104 48.597 12.6104 48.3559 12.6104C49.3673 12.6126 48.0338 12.6136 47.711 12.6151C46.8583 12.6149 46.3135 12.6122 46.0276 12.6118C45.8932 12.6117 44.3101 12.614 44.9307 12.6104C44.1161 12.6102 43.3015 12.61 42.4869 12.6097C42.1684 12.6091 41.8499 12.6086 41.5314 12.608C42.2226 12.6068 40.2193 12.6031 41.6951 12.6035C42.7972 12.6038 43.0687 12.6057 43.5916 12.6061C44.063 12.6064 44.3123 12.6054 44.8253 12.6058C48.2755 12.608 51.086 12.6102 54.3627 12.6133C55.0101 12.614 55.5989 12.6136 56.0338 12.614C56.5247 12.6145 55.9096 12.6161 56.5351 12.6161C57.192 12.6161 57.334 12.6145 57.5075 12.6146C57.6154 12.6146 57.9575 12.6164 58.2723 12.6167C59.5662 12.6177 61.462 12.6175 61.6459 12.6176C61.8535 12.6178 65.5126 12.622 65.6878 12.6225C65.7807 12.6227 65.588 12.6292 66.3944 12.6227C66.646 12.6228 66.8976 12.6229 67.1492 12.6229C67.1084 12.6242 67.0677 12.6256 67.0269 12.6269C68.5174 12.6229 68.0048 12.6254 69.4416 12.6261C72.882 12.6277 77.9571 12.6329 81.72 12.6352C82.5602 12.6357 82.8804 12.6339 83.8744 12.6345C84.7979 12.635 87.2094 12.6433 86.685 12.6339C88.7399 12.6433 89.0702 12.6297 90.0989 12.6392C90.2234 12.638 90.3478 12.6368 90.4723 12.6356C91.589 12.6419 91.9336 12.6373 93.1528 12.6374C93.6781 12.6375 93.0725 12.6432 94.133 12.6371C94.3356 12.6378 94.5382 12.6384 94.7408 12.6391C94.6937 12.6405 94.6466 12.642 94.5995 12.6434C95.7773 12.6431 95.8532 12.6439 95.7188 12.6382C96.2874 12.6396 96.856 12.641 97.4246 12.6425C97.4953 12.6406 97.5659 12.6388 97.6366 12.637C97.3642 12.6333 84.4535 12.6302 82.6553 12.6302C80.5467 12.6253 76.3107 12.6267 74.6073 12.6247C73.9256 12.6239 73.6244 12.6206 72.6323 12.6196C71.6406 12.6186 70.3924 12.6205 69.8644 12.6202C68.1051 12.6193 59.7699 12.6134 65.4389 12.6137C65.2759 12.6123 65.1129 12.6108 64.9499 12.6095C62.6972 12.6126 63.5129 12.6103 61.6436 12.6089C60.8568 12.6083 58.9854 12.6098 59.0899 12.6046C60.5512 12.6043 62.1035 12.6068 63.3741 12.6074C63.5001 12.6075 65.0045 12.6055 65.7787 12.6066C66.4771 12.6076 65.9963 12.6133 67.5159 12.6074C68.6446 12.6145 69.2971 12.6089 69.5952 12.6084C70.1105 12.6075 70.1669 12.6109 70.682 12.6115C71.243 12.6123 71.6293 12.6102 71.7059 12.6102C72.4753 12.6105 76.4827 12.6121 76.6664 12.6137C76.5053 12.6143 76.3442 12.6149 76.183 12.6154C77.2237 12.6171 77.0062 12.6131 77.2799 12.6128C77.4836 12.6129 77.6874 12.613 77.8911 12.6131C77.8104 12.6139 77.7296 12.6147 77.6489 12.6154C78.8779 12.6159 77.9375 12.6126 79.6822 12.6135C80.79 12.6141 81.9342 12.6179 82.0419 12.6177C82.0736 12.6177 81.7248 12.6153 82.1764 12.6152C82.924 12.6151 84.2166 12.6158 84.3612 12.6189C84.7273 12.6187 84.6961 12.6156 84.7447 12.6156C84.9573 12.6154 88.6148 12.6161 89.2701 12.6162C91.0856 12.6164 93.1069 12.6181 95.0739 12.6184C95.2762 12.6184 95.1471 12.6206 95.3498 12.6206C95.6752 12.6207 97.3456 12.6179 97.5951 12.6177C98.2179 12.6174 99.8563 12.6195 100.114 12.6186C100.151 12.6184 99.6115 12.6151 100.242 12.6143C100.942 12.6135 100.565 12.6176 100.603 12.6177C102.027 12.6198 102.927 12.6171 103.899 12.6169C104.214 12.6168 104.796 12.6204 105.241 12.6196C105.292 12.6195 105.19 12.6163 105.241 12.6162C105.912 12.6148 106.541 12.6209 106.832 12.6214C107.543 12.6227 107.156 12.6181 107.193 12.6181C107.667 12.6182 108.305 12.62 109.026 12.6201C112.239 12.6204 114.861 12.6211 118.277 12.6228C118.706 12.623 119.215 12.6267 119.281 12.6267C119.484 12.6268 119.426 12.6227 120.012 12.623C121.248 12.6237 122.395 12.6239 123.619 12.6245C123.865 12.6246 123.97 12.6286 124.158 12.6288C124.789 12.6293 126.938 12.6196 126.973 12.6328C128.224 12.6216 129.055 12.6321 130.062 12.6324C130.647 12.6326 131.313 12.6327 132.02 12.6328L131.967 12.5801C131.967 14.7568 131.967 17.3242 131.965 19.1187C131.965 19.6193 131.961 19.8541 131.96 20.1326C131.96 20.632 131.961 23.4869 131.96 23.6362C131.959 23.9294 131.942 23.7537 131.956 25.2613C131.957 26.1452 131.95 26.0408 131.949 26.2236C131.945 27.6481 131.961 29.034 131.946 28.775C131.949 30.4337 131.957 31.5087 131.943 32.1856C131.95 32.1768 131.953 32.9568 131.95 33.897C131.939 32.9343 131.932 33.0535 131.935 30.7253C131.935 30.6887 131.94 30.7586 131.94 30.722C131.941 30.3895 131.939 29.696 131.939 29.1294C131.94 28.5627 131.943 28.8774 131.943 28.6505C131.943 28.4428 131.938 28.4498 131.938 28.1492C131.939 27.1743 131.938 26.3116 131.938 25.757C131.938 25.4076 131.943 25.0166 131.943 24.7454C131.943 23.6971 131.942 21.4756 131.943 20.1415C131.943 19.8636 131.947 19.9803 131.948 19.3722C131.948 19.3012 131.944 19.0421 131.943 18.5097C131.943 17.9772 131.945 17.5643 131.945 17.2222C131.945 16.9364 131.941 17.0558 131.941 16.4697C131.941 16.1889 131.943 14.2426 131.945 12.5801L132.02 12.6552C130.789 12.6539 129.713 12.6526 129.585 12.6523C129.153 12.6511 128.948 12.6459 128.684 12.6464C128.637 12.6465 128.559 12.6514 128.398 12.6516C125.744 12.6558 119.871 12.6455 116.838 12.6439C110.5 12.6402 104.652 12.6391 98.2579 12.6359C98.1439 12.6364 98.0299 12.637 97.9159 12.6376C98.5622 12.638 99.2086 12.6384 99.855 12.6389C99.8591 12.6407 99.8632 12.6424 99.8673 12.6442C100.741 12.6451 100.625 12.6408 100.601 12.6383C100.924 12.6395 101.248 12.6408 101.571 12.6421C101.85 12.6361 104.006 12.6416 105.118 12.6424C105.841 12.6428 106.702 12.6409 107.083 12.6413C107.889 12.6422 107.868 12.6464 107.931 12.6465C108.039 12.6466 109.163 12.6437 109.974 12.6444C111.174 12.6453 111.304 12.652 112.945 12.6475C115.049 12.6524 117.38 12.6522 119.648 12.6531C119.216 12.6594 121.248 12.6546 122.164 12.6552C125.204 12.6576 128.623 12.661 132.02 12.6647L131.935 12.5801C131.932 15.4306 131.929 18.2662 131.926 20.8503C131.925 21.5782 131.92 22.1282 131.919 22.5338C131.919 22.7537 131.925 22.8496 131.924 23.1551C131.924 23.2087 131.918 23.246 131.917 23.8145C131.914 25.2293 131.92 28.7534 131.909 29.6453C131.908 32.2902 131.907 34.9352 131.906 37.5801L132.02 37.4658C129.828 37.4649 127.636 37.464 125.443 37.4631C125.322 37.4606 125.2 37.458 125.079 37.4555C124.16 37.4673 120.527 37.4572 118.756 37.4563C115.638 37.455 111.66 37.4562 108.928 37.4547C108.334 37.4544 107.848 37.4501 107.286 37.4497C107.044 37.4496 106.744 37.4545 106.492 37.4543C103.667 37.4527 99.8427 37.4444 96.996 37.4423C90.533 37.4378 84.4462 37.4323 77.8977 37.4276C55.8377 37.4114 33.9048 37.4061 12.033 37.3859C11.7398 37.3856 11.7544 37.3764 11.5272 37.3762C11.1383 37.3757 10.6105 37.3759 10.02 37.3763L10.2238 37.5801C10.2229 36.1335 10.2204 34.311 10.2215 33.2351C10.2227 32.028 10.2387 30.1121 10.2244 29.6967C10.2092 32.2599 10.2028 34.9097 10.1981 37.5801L10.02 37.402C11.8173 37.4051 13.624 37.4075 15.42 37.411C15.7373 37.4116 15.7768 37.4202 15.8159 37.4204C16.5386 37.4238 16.0822 37.4117 17.1303 37.4119C17.4806 37.412 20.7161 37.441 20.3311 37.4139C21.106 37.4252 26.568 37.4336 27.6221 37.4308C27.9422 37.4299 27.7156 37.422 27.7791 37.4217C28.055 37.4202 28.1796 37.4309 28.4262 37.4313C29.0836 37.4323 30.7554 37.4248 31.073 37.425C31.8039 37.4256 33.9951 37.4354 34.9602 37.434C35.8448 37.4327 35.6792 37.4218 36.444 37.4214C37.0468 37.421 36.3902 37.4296 37.736 37.4332C38.403 37.4349 40.7364 37.4299 41.3036 37.4303C41.8704 37.4307 42.5011 37.4373 43.283 37.4373C44.4094 37.4373 46.8596 37.4354 48.0058 37.4341C48.0742 37.4341 48.2409 37.4262 48.4095 37.4265C48.7587 37.4271 48.6539 37.4368 48.9176 37.438C49.1814 37.4391 53.7512 37.4407 54.5274 37.4413C55.0624 37.4417 55.4318 37.4363 55.7274 37.4365C55.9594 37.4367 55.9842 37.4447 56.2209 37.4449C56.2942 37.4449 56.9178 37.4385 57.5409 37.439C58.1297 37.4396 60.3651 37.4474 60.624 37.4476C60.7926 37.4477 60.6078 37.4421 61.1062 37.4426C61.5605 37.443 61.8589 37.4503 62.1179 37.4505C62.7187 37.4511 63.3903 37.4455 64.0278 37.4459C65.8604 37.447 65.7661 37.4555 65.8761 37.4559C66.1809 37.4568 66.3031 37.449 66.4032 37.4489C66.8258 37.4485 67.8613 37.4477 68.238 37.4476C68.7072 37.4475 68.9059 37.4551 69.4044 37.4554C69.7759 37.4556 70.5262 37.4489 71.3738 37.4491C73.2845 37.4495 75.5568 37.4496 77.4333 37.4511C77.9929 37.4515 78.0788 37.458 78.2498 37.4583C79.1487 37.4597 79.652 37.4528 79.9085 37.4531C81.7387 37.455 85.0034 37.468 86.7016 37.4699C87.3932 37.4706 90.4206 37.4674 92.1286 37.4693C92.324 37.4695 92.1411 37.4741 92.3586 37.4735C92.8787 37.472 92.8304 37.4624 93.0943 37.4629C93.2215 37.4632 93.5119 37.4687 93.8827 37.4695C95.8057 37.4734 97.1282 37.47 98.0054 37.4708C106.431 37.4787 115.022 37.4858 122.89 37.491C123.767 37.4916 124.855 37.4875 126.179 37.4928C126.22 37.4953 126.261 37.4978 126.301 37.5002C126.348 37.4978 126.394 37.4955 126.44 37.4931C127.941 37.4926 128.508 37.49 130.039 37.4939C130.171 37.4942 130.574 37.5052 130.823 37.4919C131.865 37.4992 131.799 37.4966 132.02 37.4943L131.934 37.5801C131.933 37.4792 131.932 37.3186 131.932 36.9655C131.932 35.8392 131.935 34.7446 131.937 33.6525C131.942 33.0539 131.951 35.5659 131.951 35.7296C131.951 35.9933 131.944 36.2674 131.944 36.5214C131.943 36.9041 131.944 37.2805 131.944 37.5801L132.02 37.5041C131.731 37.5044 131.513 37.5041 131.43 37.5011C130.458 37.5069 131.668 37.5044 131.547 37.51C130.898 37.5073 130.249 37.5047 129.6 37.5019C129.269 37.5213 125.683 37.4939 125.932 37.5091C125.647 37.506 125.362 37.5028 125.077 37.4996C123.826 37.5181 123.09 37.5044 121.422 37.4976C121.542 37.5002 121.662 37.5028 121.783 37.5053C121.749 37.5064 120.276 37.5097 120.803 37.4992C119.293 37.5127 119.357 37.489 118.003 37.5055C117.199 37.5074 117.683 37.4976 116.244 37.497C115.391 37.4966 114.332 37.5015 113.379 37.5014C113.16 37.5014 113.064 37.4953 112.869 37.4952C112.674 37.4951 112.578 37.501 112.342 37.501C111.853 37.5011 111.22 37.4966 110.914 37.4969C110.64 37.4971 110.249 37.5022 109.59 37.5027C107.286 37.5046 107.982 37.4973 107.618 37.4945C107.227 37.4916 106.946 37.5016 106.167 37.5C106.089 37.4999 106.291 37.4936 106.037 37.4938C105.832 37.4938 105.729 37.5007 105.05 37.5017C104.779 37.5021 100.583 37.5017 99.9434 37.5016C98.9636 37.5014 96.7809 37.4943 95.7669 37.4938C95.3761 37.4936 94.9585 37.4993 94.5433 37.4991C93.1676 37.4983 90.9652 37.4969 89.2205 37.4958C87.6495 37.4949 84.8916 37.4799 84.0313 37.4919C81.8252 37.4925 81.2894 37.4815 81.1232 37.4813C80.6736 37.4806 80.4653 37.4877 79.8985 37.4878C72.5558 37.4887 62.8868 37.4794 55.9327 37.4767C40.6734 37.4709 25.3354 37.4688 10.02 37.4592L10.1409 37.5801C10.1415 36.7044 10.1421 35.8288 10.1427 34.9533C10.1383 34.9099 10.134 34.8666 10.1297 34.8232C10.1281 35.6945 10.1254 36.6354 10.1229 37.5801L10.02 37.4772C11.1498 37.4803 12.2851 37.4834 13.3138 37.4847C15.8354 37.4877 19.576 37.4719 21.4257 37.5007C20.6756 37.503 19.4535 37.4917 19.4754 37.5063C20.8164 37.5077 22.1573 37.5091 23.4983 37.5105C23.4583 37.5039 23.4183 37.4973 23.3783 37.4906C24.7784 37.4892 26.2104 37.4911 27.6154 37.4907C27.8594 37.4906 27.6866 37.4846 27.8991 37.4847C28.1369 37.4848 27.9757 37.4907 28.0203 37.4908C28.6212 37.491 28.8026 37.485 28.876 37.4852C29.0641 37.4855 28.9178 37.4912 29.4603 37.493C30.4666 37.4963 31.1872 37.4814 30.9508 37.5066C31.2757 37.5067 31.6005 37.5068 31.9254 37.5069C32.0095 37.5001 32.0936 37.4932 32.1777 37.4864C34.176 37.5147 35.0974 37.4669 36.2018 37.5053C36.5659 37.4996 36.93 37.494 37.2941 37.4883C37.4994 37.4952 37.7046 37.5019 37.9098 37.5087C37.9498 37.503 37.9898 37.4972 38.0298 37.4915C39.9917 37.4964 42.0807 37.4903 43.9571 37.4917C45.2641 37.4927 45.5773 37.495 46.7351 37.495C49.3104 37.4949 46.7529 37.5051 48.8929 37.5175C48.7815 37.5107 48.6701 37.504 48.5587 37.4972C48.9131 37.4948 49.2675 37.4925 49.6219 37.4902C49.8686 37.4957 50.1153 37.5013 50.3621 37.5068C51.4566 37.4789 52.1656 37.502 52.3146 37.5021C52.435 37.502 52.8485 37.4854 54.1438 37.5001C53.6067 37.4769 55.132 37.5003 55.2542 37.5005C55.3703 37.5006 56.8552 37.4961 57.4579 37.4965C57.932 37.4969 58.9433 37.5021 59.6494 37.5021C60.2728 37.5021 60.2095 37.4945 60.255 37.4944C61.0223 37.4941 60.5415 37.4998 61.0962 37.5003C61.6508 37.5008 62.0811 37.4945 62.2009 37.4951C62.2611 37.4955 62.0597 37.5024 62.3354 37.5032C63.0759 37.5053 64.4149 37.4997 65.2626 37.5002C65.5631 37.5003 65.9418 37.5063 66.2765 37.5066C66.7895 37.507 67.0292 37.4994 67.3273 37.4997C67.431 37.4999 68.0928 37.512 68.9154 37.5104C69.0719 37.5101 69.5316 37.4855 70.1423 37.5208C70.1894 37.5159 70.2365 37.5109 70.2837 37.506C73.0424 37.495 73.81 37.5346 75.0367 37.5002C77.0397 37.5048 75.6646 37.5178 75.8845 37.5199C76.0266 37.5213 76.6796 37.5178 76.7515 37.518C76.8785 37.5185 76.8567 37.5228 76.996 37.5228C79.5494 37.5227 78.4157 37.5143 79.2244 37.5095C81.1474 37.4981 82.6477 37.5253 79.3029 37.5162C79.3029 37.5186 79.3029 37.521 79.3029 37.5234C80.1265 37.5213 82.2172 37.523 81.5191 37.5347C80.9693 37.544 76.0093 37.5369 78.8184 37.5508C79.4562 37.5539 79.7865 37.5451 80.891 37.5618C81.6214 37.5628 81.7266 37.5414 82.7157 37.5501C82.5531 37.5427 82.3905 37.5352 82.2279 37.5277C83.5766 37.5184 85.2406 37.5318 86.2765 37.5279C86.6286 37.5266 87.8967 37.4925 87.6011 37.5269C88.1929 37.5249 90.9804 37.532 91.4983 37.5291C91.6229 37.5284 91.7852 37.5105 93.5877 37.5173C93.713 37.5196 93.8382 37.5219 93.9634 37.5241C92.3148 37.5302 95.2264 37.5375 94.4356 37.5541C94.1669 37.5466 92.8595 37.5417 92.649 37.5378C92.2898 37.531 93.3598 37.5228 91.9963 37.5248C91.1368 37.5531 93.5943 37.5405 93.2188 37.5673C95.0088 37.5549 95.1878 37.5669 95.593 37.5674C97.3253 37.5695 98.4155 37.5668 100.05 37.5699C100.448 37.5647 97.4893 37.5566 97.1228 37.5589C98.4716 37.54 96.15 37.5386 95.1702 37.5499C95.088 37.544 95.0057 37.5382 94.9235 37.5323C96.1989 37.5358 97.4431 37.5376 98.7064 37.5333C98.7886 37.5354 98.8709 37.5376 98.9531 37.5397C98.6697 37.5429 98.3863 37.5461 98.103 37.5493C99.1536 37.5547 98.5235 37.538 99.9232 37.5528C99.9666 37.5464 100.01 37.54 100.053 37.5336C101.395 37.536 102.737 37.5385 104.08 37.5409C104.778 37.5285 107.361 37.5339 106.888 37.5497C107.93 37.5511 106.643 37.5423 107.62 37.5386C108.045 37.537 108.876 37.5368 109.082 37.5411C108.993 37.5561 107.75 37.5578 107.373 37.5683C107.602 37.5716 113.384 37.5614 112.869 37.5786C113.331 37.5807 113.118 37.5718 113.951 37.5696C116.285 37.5636 119.899 37.5806 121.778 37.5599C119.572 37.5479 118.919 37.5601 117.228 37.5605C116.148 37.5607 109.563 37.562 111.034 37.5465C110.792 37.5484 110.55 37.5504 110.308 37.5523C110.064 37.5476 109.82 37.5428 109.575 37.538C110.264 37.5375 110.953 37.537 111.642 37.5365C111.806 37.5412 111.971 37.5459 112.135 37.5506C112.211 37.5473 112.287 37.544 112.363 37.5407C112.653 37.5401 112.943 37.5395 113.233 37.539C113.152 37.5429 113.07 37.5468 112.989 37.5508C113.436 37.5515 113.883 37.5523 114.33 37.553C114.21 37.5478 114.09 37.5425 113.969 37.5372C116.075 37.5364 115.362 37.5395 116.53 37.5495C117.402 37.5507 115.929 37.5404 117.773 37.5383C119.918 37.536 118.511 37.5512 121.289 37.5485C121.329 37.5459 121.369 37.5434 121.409 37.5409C122.02 37.5436 122.631 37.5462 123.242 37.5488C123.161 37.5457 123.08 37.5426 123 37.5395C124.26 37.541 125.998 37.5357 126.416 37.5477C125.138 37.5416 125.15 37.5625 125.483 37.5664C125.851 37.5706 128.935 37.5706 132.02 37.5698L132.01 37.5801C132.009 34.9122 132.008 32.2442 132.007 31.3332C132.007 28.8215 132.013 26.923 132.004 24.6288C131.997 26.1835 132.002 31.6508 131.997 32.6869C131.996 32.7895 131.978 32.7606 131.998 33.4204C131.996 34.6816 131.997 36.0891 131.998 37.5801L132.02 37.558C130.998 37.5587 129.937 37.5593 128.857 37.5589C128.938 37.5536 129.02 37.5482 129.101 37.5429C130.497 37.5529 131.804 37.5365 132.02 37.5444L131.984 37.5801C131.986 37.5434 131.988 37.5381 131.991 37.5689C131.991 37.244 131.991 36.9191 131.991 36.5943C131.987 36.5943 131.984 36.5943 131.98 36.5943C131.98 36.1045 131.981 35.6148 131.981 35.1251C131.984 35.1251 131.988 35.1251 131.991 35.1251C131.991 34.7195 131.991 34.3138 131.991 33.9082C131.988 33.866 131.985 33.8237 131.981 33.7815C131.988 32.5669 131.971 28.4261 131.99 30.2465C131.991 29.676 131.991 29.1055 131.991 28.535C131.988 28.5369 131.986 28.5388 131.984 28.5406C131.983 28.2954 131.983 28.0501 131.983 27.8049C131.985 27.8857 131.987 27.9664 131.989 28.0471C131.986 26.9233 131.997 25.8579 131.99 25.12C131.988 25.6067 131.986 26.0935 131.985 26.5802C131.988 25.6467 131.982 23.927 131.982 23.773C131.982 23.3039 131.987 23.0566 131.987 22.5483C131.988 22.0895 131.984 22.1527 131.984 22.0672C131.989 19.5924 132.007 20.5356 131.985 19.38C131.988 19.257 131.991 19.134 131.994 19.0111C131.992 18.8473 131.989 18.6836 131.987 18.5198C131.987 17.789 131.988 17.0581 131.988 16.3273C131.984 16.571 131.98 16.8147 131.977 17.0585C131.975 15.963 131.983 15.452 131.983 15.3459C131.984 15.0457 131.979 14.9083 131.979 14.8154C131.98 13.659 131.98 12.9841 131.981 12.5801L132.02 12.6191C130.864 12.6166 131.925 12.6113 130.272 12.5984C129.476 12.6049 130.281 12.6117 130.394 12.6185C129.336 12.615 129.006 12.6168 127.89 12.6161C127.599 12.6159 127.287 12.6123 127.103 12.6122C126.945 12.6121 126.448 12.6157 126.067 12.6156C125.432 12.6154 124.586 12.613 123.716 12.6128C122.993 12.6126 120.779 12.6145 119.235 12.614C118.576 12.6138 118.729 12.611 118.559 12.6109C118.488 12.6109 117.974 12.6142 117.551 12.6141C114.104 12.6131 110.57 12.6099 107.106 12.6089C104.665 12.6083 102.184 12.6099 99.7383 12.6089C99.2179 12.6087 99.4934 12.6066 99.2662 12.6065C99.1881 12.6064 99.0941 12.6101 98.2893 12.6084C97.9986 12.6077 98.333 12.6053 98.0471 12.6051C97.9079 12.605 97.8488 12.6082 97.0355 12.6086C95.5573 12.6094 94.7629 12.605 94.6309 12.6051C94.3821 12.6053 94.4548 12.6078 94.1251 12.6078C92.5127 12.6077 91.1666 12.6077 89.7276 12.6074C89.0557 12.6073 84.4227 12.6061 84.1683 12.6056C83.599 12.6046 84.1289 12.6001 83.3989 12.6C83.1944 12.6012 82.9899 12.6023 82.7854 12.6033C83.1103 12.6043 83.4352 12.6053 83.76 12.6063C82.8657 12.6045 81.8517 12.6062 81.1895 12.6059C81.0672 12.6058 79.9413 12.6035 79.367 12.6035C79.6111 12.6028 79.8553 12.602 80.0994 12.6013C80.013 12.6005 79.9267 12.5998 79.8403 12.5991C78.692 12.5998 77.4773 12.5994 76.2997 12.599C75.875 12.5988 76.0185 12.5972 75.5886 12.5971C73.0845 12.5962 73.7169 12.6024 71.3078 12.5902C72.1212 12.5914 75.0889 12.5904 75.5202 12.5908C75.8208 12.5911 76.9864 12.6021 76.5587 12.591C78.9631 12.5915 76.8747 12.5972 79.1203 12.5964C79.0754 12.595 79.0306 12.5936 78.9857 12.5922C79.7697 12.5915 80.3487 12.5908 80.825 12.5934C80.9848 12.5865 83.6483 12.5909 85.1092 12.5907C87.2203 12.5903 89.6055 12.5887 91.697 12.5886C92.4176 12.5885 92.8257 12.5917 92.9161 12.5917C93.0483 12.5917 93.4195 12.589 93.6832 12.589C94.668 12.589 97.6641 12.5944 98.4093 12.5862C92.5498 12.5858 86.6902 12.5854 80.8306 12.585C81.5674 12.5883 75.6402 12.5879 75.3396 12.5877C75.0615 12.5876 75.2956 12.5855 75.2129 12.5854C74.5971 12.5844 74.0715 12.5874 73.8761 12.5874C73.727 12.5873 73.426 12.5859 72.8959 12.5859C72.7986 12.5859 72.7716 12.5873 72.6671 12.5873C71.9756 12.5873 71.2929 12.5872 70.599 12.5871C70.5567 12.5871 70.3816 12.585 70.2064 12.585C70.0308 12.585 69.8571 12.587 69.8128 12.587C69.2581 12.5869 68.3073 12.5855 67.7795 12.5854C67.5964 12.5854 67.7233 12.5869 67.5182 12.5868C66.8877 12.5867 67.0954 12.584 66.3159 12.5846C66.0546 12.5849 66.0715 12.5869 65.5712 12.5866C65.2169 12.5864 65.2551 12.5827 65.1989 12.5826C65.1212 12.5824 63.8986 12.5852 63.4986 12.5828C64.3726 12.5767 62.5426 12.5825 62.6306 12.585C62.1461 12.5843 61.6616 12.5837 61.1771 12.583C61.0118 12.5836 60.8466 12.5842 60.6814 12.5848C58.7266 12.5819 57.534 12.5835 55.611 12.5826C55.5181 12.5825 53.8978 12.5813 53.9736 12.5805C54.9434 12.5792 55.9111 12.5791 56.5317 12.5816C57.5531 12.5768 57.5707 12.5807 59.22 12.58C59.7722 12.5798 59.8115 12.5784 59.875 12.5784C62.0226 12.5776 65.4624 12.5766 66.9092 12.5813C67.3148 12.58 65.8567 12.5796 66.4235 12.5786C66.7328 12.5781 74.1741 12.5762 71.7968 12.5822C72.0435 12.582 72.2902 12.5819 72.537 12.5817C72.7838 12.5761 74.0109 12.5773 73.8716 12.583C73.9878 12.5819 74.1041 12.5807 74.2204 12.5795C74.4501 12.5785 74.7218 12.578 75.103 12.5776C76.5626 12.5763 85.2463 12.5781 85.7081 12.5772C85.7186 12.5756 85.729 12.574 85.7395 12.5724C81.9032 12.5711 78.1816 12.575 73.9983 12.5716C74.1198 12.5728 74.2413 12.5741 74.3628 12.5753C72.6936 12.5737 71.0244 12.5721 69.3552 12.5708C71.1219 12.5684 73.9325 12.5658 75.7871 12.5673C76.1168 12.5676 75.8751 12.5695 75.9509 12.5697C76.1488 12.5702 76.3615 12.567 77.0724 12.5666C77.7836 12.5661 79.5701 12.5681 79.7338 12.568C80.0494 12.5678 80.9012 12.5638 81.4385 12.5637C82.1447 12.5636 81.6713 12.5662 81.8131 12.5662C82.3993 12.5663 82.925 12.565 83.3843 12.5651C84.0661 12.5652 85.4828 12.5695 85.9593 12.5627C85.4722 12.5625 84.9851 12.5623 84.498 12.5621C87.1394 12.559 89.2046 12.5675 91.8069 12.5599C92.3983 12.551 90.248 12.5529 92.066 12.5486C91.7359 12.5488 91.4058 12.5491 91.0757 12.5493C90.9983 12.5512 90.9209 12.553 90.8436 12.5548C90.2749 12.5537 89.7063 12.5526 89.1377 12.5516C89.3 12.5531 89.4622 12.5546 89.6245 12.5561C87.6086 12.558 85.5729 12.5599 84.8692 12.5522C84.8277 12.5542 84.7862 12.5561 84.7447 12.558C82.8731 12.5564 80.0635 12.5649 80.5884 12.5546C80.4998 12.5552 80.4112 12.5558 80.3226 12.5563C79.1912 12.5547 79.6744 12.5587 79.2493 12.5593C79.1279 12.5594 76.9289 12.558 77.9034 12.5548C75.7582 12.5534 76.4197 12.5621 75.8286 12.5627C74.4554 12.5587 71.9852 12.5658 73.0237 12.5589C72.8192 12.5587 72.6147 12.5585 72.4102 12.5583C71.7383 12.5637 71.0759 12.5581 70.3478 12.5565C70.101 12.5565 69.8543 12.5565 69.6076 12.5565C69.4423 12.5582 69.2771 12.5599 69.1118 12.5616C66.7905 12.5547 67.5255 12.5752 66.465 12.5582C66.6303 12.5571 66.7955 12.556 66.9608 12.5549C67.3525 12.5543 67.7443 12.5536 68.1361 12.5529C66.5559 12.5532 64.9757 12.5535 63.3954 12.5538C61.3897 12.5504 60.2482 12.5557 58.02 12.5536C57.8114 12.5541 57.6028 12.5546 57.3942 12.5551C57.6068 12.5517 58.4161 12.5517 56.9086 12.5511C56.7801 12.5489 57.7982 12.5479 58.2622 12.5494C58.3741 12.5498 57.4222 12.5522 58.4922 12.5516C59.2196 12.5512 57.8987 12.5492 60.078 12.5489C59.9972 12.5483 59.9165 12.5478 59.8357 12.5473C60.072 12.5471 60.3083 12.547 60.5445 12.5468C60.7547 12.5481 60.9647 12.5494 61.1748 12.5507C61.7148 12.5483 62.018 12.5452 63.2519 12.545C62.9172 12.5461 63.3713 12.5488 63.982 12.5484C63.982 12.5473 63.982 12.5462 63.982 12.5452C65.4603 12.5435 64.95 12.5471 66.1791 12.5437C66.3021 12.5445 66.425 12.5454 66.548 12.5462C67.2175 12.5421 69.6826 12.5378 69.233 12.5439C69.9245 12.5378 71.3767 12.5393 71.9168 12.5437C71.9583 12.5425 71.9998 12.5412 72.0413 12.54C72.3287 12.5395 72.6162 12.5391 72.9037 12.5386C73.0641 12.5393 73.2244 12.5399 73.3848 12.5406C73.5886 12.5397 73.7923 12.5388 73.9961 12.5379C74.119 12.5391 74.2421 12.5403 74.365 12.5415C74.6925 12.5398 75.02 12.538 75.3475 12.5363C75.5479 12.5372 75.7483 12.5381 75.9486 12.539C75.9693 12.5363 77.9546 12.5343 78.5091 12.5358C78.6743 12.5349 78.8395 12.5339 79.0048 12.533C79.0855 12.5343 79.1663 12.5356 79.247 12.5369C79.37 12.5357 79.493 12.5346 79.616 12.5334C79.8994 12.5343 80.1827 12.5352 80.4661 12.5361C81.6218 12.5286 81.6591 12.5345 81.923 12.5343C82.4122 12.534 84.0782 12.5284 84.3567 12.5284C84.6349 12.5285 84.7692 12.531 84.9937 12.5311C88.6954 12.5329 87.1738 12.5267 87.9164 12.525C88.3171 12.5241 88.6007 12.5264 88.9549 12.5259C89.5609 12.5251 92.6179 12.5194 92.7939 12.5196C93.05 12.5199 92.447 12.5329 93.2795 12.5292C93.3071 12.5223 95.0873 12.5281 94.2552 12.519C94.9883 12.5193 95.7214 12.5197 96.4545 12.52C96.3714 12.5117 97.2754 12.5164 98.2602 12.5152C99.6556 12.5136 102.797 12.5053 102.682 12.5146C103.017 12.5122 103.351 12.5099 103.685 12.5075C105.972 12.5087 108.215 12.5038 110.485 12.5019C117.221 12.4963 124.53 12.4929 131.235 12.4903C131.557 12.4902 131.511 12.4942 131.743 12.4941C131.827 12.4941 131.919 12.494 132.02 12.494L132.106 12.4941L132.106 12.5801C132.107 13.9498 132.112 16.8088 132.112 18.3998C132.112 18.947 132.108 19.2133 132.108 19.3868C132.108 19.9756 132.113 19.8367 132.113 20.1079C132.113 20.5357 132.11 22.7985 132.11 23.5779C132.11 23.9638 132.114 24.4203 132.113 24.8721C132.113 24.911 132.109 24.8392 132.109 24.8721C132.108 25.6956 132.112 25.2003 132.112 25.4789C132.112 27.4653 132.113 29.5886 132.114 31.7437C132.114 32.2788 132.111 33.0978 132.111 33.5572C132.111 33.7324 132.114 33.4181 132.115 34.0237C132.115 34.2312 132.11 34.3021 132.11 34.5363C132.109 35.5453 132.125 35.883 132.113 36.7502C132.113 37.0018 132.113 37.2814 132.114 37.5801L132.114 37.674L132.02 37.6739C130.332 37.6763 128.033 37.6809 126.735 37.6818C126.374 37.6821 126.198 37.6792 125.854 37.6794C125.61 37.6796 125.18 37.6847 124.799 37.685C124.417 37.6853 123.816 37.6812 123.083 37.6818C122.311 37.6825 121.351 37.6858 121.177 37.686C120.967 37.6861 120.869 37.6803 120.659 37.6805C120.024 37.6811 118.323 37.688 117.504 37.6892C116.625 37.6905 116.097 37.6879 115.796 37.6882C115.518 37.6884 115.193 37.6938 115.066 37.6939C114.868 37.6941 114.821 37.6882 114.57 37.6884C114.16 37.6887 113.737 37.6928 113.121 37.6934C102.038 37.7029 91.1706 37.707 80.3874 37.7087C79.1853 37.7088 78.506 37.7144 76.7346 37.7132C76.0164 37.7127 76.319 37.7049 75.76 37.7067C75.5108 37.7075 75.5738 37.7135 75.2587 37.714C73.8659 37.7162 72.2431 37.7116 71.6396 37.712C71.4002 37.7122 71.1266 37.7194 70.6358 37.7199C66.978 37.7231 62.6504 37.724 58.714 37.7279C56.6297 37.73 53.4743 37.736 51.0821 37.7382C44.4726 37.7442 37.3623 37.7473 31.3344 37.7523C24.2136 37.7582 17.1197 37.7685 10.02 37.7711L9.82868 37.7708L9.82901 37.5801C9.8283 35.6046 9.8282 33.6286 9.82904 31.6515C9.8209 33.4232 9.81735 35.462 9.81603 37.5801L9.81569 37.7837L10.02 37.7841C12.9821 37.7859 16.0992 37.7834 18.8574 37.7826C32.5214 37.7783 47.0701 37.7552 61.0737 37.7453C65.946 37.7417 72.0892 37.7368 77.4233 37.7365C77.6652 37.7365 78.1665 37.7308 78.6895 37.731C78.8005 37.7311 80.178 37.7395 80.642 37.7392C80.2022 37.7228 82.0202 37.7363 82.5823 37.7354C83.291 37.7343 84.7691 37.725 86.4279 37.7283C87.9331 37.7313 87.518 37.7378 87.6011 37.7382C88.1334 37.7402 88.3192 37.7301 88.7271 37.7288C90.3935 37.7235 98.9653 37.7225 101.358 37.7209C101.976 37.7205 101.993 37.7264 102.133 37.7263C102.501 37.726 103.027 37.7198 103.618 37.7194C104.683 37.7186 105.91 37.7231 106.496 37.7226C107.899 37.7215 110.56 37.713 112.383 37.7115C112.896 37.7111 112.865 37.7168 113.097 37.7166C114.118 37.7156 116.779 37.7068 118.047 37.7058C120.107 37.7041 122.226 37.706 124.32 37.7025C124.452 37.7048 124.585 37.7071 124.718 37.7094C124.927 37.7067 125.136 37.704 125.346 37.7014C127.558 37.7008 129.794 37.6974 132.02 37.6944L132.134 37.6946L132.134 37.5801C132.133 36.243 132.131 34.91 132.13 33.5886C132.13 33.1829 132.132 31.1747 132.132 30.8397C132.132 30.5612 132.126 30.2871 132.127 29.8741C132.127 29.2957 132.138 29.84 132.134 28.895C132.133 28.6409 132.129 28.8873 132.127 28.3769C132.127 28.2083 132.123 24.9359 132.123 24.76C132.123 24.4669 132.132 24.2054 132.132 24.1297C132.133 23.7364 132.126 23.7532 132.125 23.4893C132.122 22.7108 132.126 21.6935 132.126 21.567C132.123 20.0374 132.116 17.1779 132.118 15.5725C132.118 15.3505 132.123 15.3771 132.123 15.3381C132.124 15.0865 132.118 14.9302 132.118 14.691C132.117 14.0954 132.117 13.344 132.117 12.5801L132.118 12.4828L132.02 12.4826C131.132 12.4824 130.228 12.4819 129.532 12.482C129.382 12.482 129.068 12.4847 128.801 12.4847C127.296 12.4845 127.785 12.4802 127.699 12.4801C127.496 12.4798 127.14 12.4845 126.6 12.4852C125.21 12.487 122.543 12.4886 121.053 12.4895C119.936 12.4901 119.953 12.4855 119.88 12.4854C119.723 12.4854 119.288 12.4895 118.553 12.4905C117.138 12.4925 117.3 12.4888 116.718 12.4894C116.669 12.4895 116.754 12.4929 116.109 12.4937C114.863 12.4954 112.063 12.4944 110.729 12.4957C110.216 12.4962 110.096 12.4995 109.571 12.4999C108.738 12.5007 106.858 12.4989 106.71 12.4991C106.668 12.4991 106.575 12.5027 106.331 12.5029C106.062 12.5031 105.798 12.5015 105.597 12.5017C104.456 12.5027 102.49 12.5101 103.037 12.4977C102.671 12.501 102.305 12.5042 101.94 12.5074C99.5501 12.5088 97.2286 12.5118 94.8608 12.5141C94.3283 12.5147 93.8837 12.513 93.4343 12.5134C92.9849 12.5139 91.0022 12.5188 90.6708 12.519C90.0795 12.5196 86.7193 12.5225 86.3014 12.5226C85.4853 12.5227 84.6935 12.5194 84.3612 12.5204C84.0948 12.5213 84.3412 12.5233 83.8329 12.5243C82.9532 12.526 81.4582 12.5244 81.1895 12.5247C81.0747 12.5248 81.2896 12.5263 80.2149 12.5272C79.6358 12.5277 79.3248 12.5261 79.1147 12.5263C79.0494 12.5264 79.1473 12.5292 78.001 12.5297C77.2093 12.53 76.8717 12.5281 76.7887 12.5281C76.664 12.5282 76.363 12.5307 75.8623 12.531C74.6918 12.5317 72.5518 12.5308 71.4401 12.5315C71.2251 12.5317 71.2982 12.5341 70.4408 12.5346C69.8276 12.5349 69.9347 12.5328 69.7051 12.5329C69.3411 12.5331 68.7986 12.5359 67.9948 12.5364C66.9832 12.537 59.4719 12.5406 59.0832 12.5404C58.8217 12.5403 58.5185 12.5405 58.389 12.5398C58.5 12.5388 58.611 12.5379 58.7221 12.537C59.8724 12.5389 59.4082 12.5359 59.7135 12.5354C60.1558 12.5347 61.8225 12.5337 62.2257 12.5325C62.3693 12.5321 62.0405 12.5305 62.8123 12.5287C63.6404 12.5268 64.0088 12.53 64.3386 12.5248C65.514 12.5291 66.6429 12.5222 65.2818 12.522C64.522 12.5218 57.0691 12.5281 55.547 12.5296C54.313 12.5308 52.0018 12.5345 50.4845 12.5359C49.5926 12.5367 47.3961 12.5389 47.4889 12.537C46.6972 12.5377 47.5351 12.5385 47.3689 12.539C47.0215 12.5398 44.5505 12.5414 44.0829 12.542C41.7762 12.5449 38.8654 12.5495 36.6247 12.5503C36.729 12.5499 36.8333 12.5494 36.9376 12.5489C37.441 12.5477 39.777 12.546 40.0409 12.5438C36.6247 12.5479 33.2086 12.5521 29.7924 12.5562C29.856 12.5572 25.6189 12.562 25.4185 12.5619C25.4929 12.5614 25.5673 12.5609 25.6417 12.5605C28.036 12.5591 27.8213 12.5572 29.4291 12.5564C30.0836 12.5556 29.886 12.555 30.2085 12.5545C33.4186 12.5487 30.26 12.5562 32.7174 12.5524C31.9776 12.552 33.9902 12.5489 34.892 12.5475C35.0972 12.5472 37.7929 12.5441 38.113 12.5436C39.9114 12.5412 42.9998 12.536 44.7861 12.5348C46.1934 12.5331 46.9681 12.5305 48.2459 12.5284C49.2158 12.5268 48.9378 12.5283 49.3944 12.5278C50.3522 12.5265 50.6675 12.5223 51.2808 12.5268C51.9301 12.5253 52.5795 12.5238 53.2289 12.5222C53.2289 12.5231 53.2289 12.5239 53.2289 12.5248C53.6367 12.5243 54.0446 12.5237 54.4524 12.5232C54.5724 12.5222 54.6924 12.5211 54.8124 12.5201C56.1069 12.5196 55.5665 12.5225 55.8084 12.5248C56.088 12.5246 56.3676 12.5245 56.6473 12.5243C56.8637 12.522 57.0802 12.5197 57.2966 12.5174C58.5452 12.5159 59.7939 12.5144 61.0425 12.513C61.1233 12.5139 61.204 12.5148 61.2847 12.5157C61.2873 12.5147 61.29 12.5136 61.2926 12.5126C63.407 12.5096 65.5215 12.5066 67.6359 12.5036C68.1983 12.501 64.8105 12.5042 64.554 12.5045C63.1269 12.506 59.3371 12.5128 59.3322 12.5093C58.4451 12.5132 55.7744 12.5161 54.9437 12.5145C56.2046 12.5129 57.4656 12.5112 58.7266 12.5096C58.6858 12.5085 58.6451 12.5074 58.6043 12.5063C60.1754 12.5086 60.4053 12.5082 62.0205 12.5011C62.022 12.5028 62.0234 12.5044 62.0249 12.5061C63.1511 12.4986 65.1418 12.5058 65.1989 12.4983C65.7985 12.498 66.3981 12.4977 66.9978 12.4975C68.2926 12.4946 66.2819 12.4916 71.3515 12.4862C71.7009 12.4859 71.6281 12.4881 72.1534 12.4872C72.3049 12.4869 73.1725 12.4825 74.8316 12.4802C75.0906 12.4799 75.1101 12.4818 75.3789 12.4817C75.9994 12.4813 77.2355 12.4755 76.6743 12.4828C79.1321 12.4812 78.1135 12.4772 78.8758 12.4739C79.3839 12.4716 79.2816 12.4758 79.7214 12.4742C80.2656 12.4722 79.8663 12.4688 82.0452 12.4672C81.8007 12.4679 81.5562 12.4686 81.3117 12.4692C81.4348 12.4702 81.5577 12.4711 81.6807 12.4721C82.9244 12.4674 82.8069 12.4717 83.3933 12.4643C84.2974 12.4657 85.0796 12.4648 86.316 12.4623C88.7179 12.4576 87.4865 12.4519 90.2278 12.4578C90.672 12.4557 91.1161 12.4536 91.5602 12.4514C92.2903 12.4534 91.6998 12.4582 92.7894 12.4573C91.9366 12.4509 94.2357 12.4502 94.6242 12.4425C94.6649 12.4441 94.7057 12.4457 94.7464 12.4474C94.9898 12.447 95.2332 12.4466 95.4766 12.4462C95.4773 12.4448 95.478 12.4435 95.4788 12.4421C95.8029 12.4426 96.127 12.4431 96.4512 12.4436C96.6949 12.4419 96.9386 12.4401 97.1824 12.4383C97.5831 12.4406 97.9839 12.4429 98.3847 12.4452C98.6363 12.4451 98.8878 12.4449 99.1394 12.4447C99.0598 12.4427 98.9802 12.4407 98.9006 12.4387C99.2239 12.4389 99.5473 12.4391 99.8707 12.4393C99.4944 12.4364 99.7309 12.4319 100.738 12.4304C101.568 12.4291 100.633 12.4381 102.419 12.4321C102.543 12.4317 102.764 12.4259 104.452 12.4223C106.477 12.4179 105.493 12.4235 105.854 12.4231C105.925 12.423 106.543 12.4191 107.122 12.4178C107.451 12.417 107.768 12.4188 107.811 12.4187C108.014 12.4182 108.073 12.4149 108.354 12.4143C109.067 12.4128 110.025 12.4128 110.724 12.4115C111.041 12.4109 111.34 12.4084 111.482 12.4081C111.702 12.4077 111.981 12.4103 112.203 12.4099C113.024 12.4086 114.27 12.3959 114.651 12.4099C115.44 12.3951 117.094 12.4087 116.973 12.3998C119.082 12.3999 124.707 12.3784 124.542 12.3952C125.736 12.379 125.63 12.3895 126.13 12.3884C126.69 12.3873 126.4 12.385 126.844 12.3844C127.883 12.3829 128.875 12.3825 129.908 12.3808C129.746 12.3835 129.584 12.3861 129.422 12.3887C130.506 12.3877 130.133 12.3828 131.24 12.3799C131.57 12.3791 131.825 12.3785 132.02 12.3782L132.222 12.3785L132.222 12.5801C132.224 13.5869 132.219 13.0262 132.214 13.2778C132.22 13.1972 132.223 15.5973 132.222 15.8416C132.222 15.9873 132.213 15.3488 132.218 16.8185C132.22 16.7381 132.223 16.6577 132.225 16.5774C132.223 17.247 132.23 19.0658 132.23 19.3744C132.229 19.5161 132.21 20.2742 132.227 20.9681C132.225 21.0518 132.222 21.1356 132.22 21.2193C132.224 21.9898 132.229 22.7603 132.233 23.5308C132.229 23.6538 132.224 23.7768 132.219 23.8998C132.22 24.1443 132.22 24.3887 132.22 24.6332C132.224 24.471 132.228 24.3087 132.232 24.1465C132.233 25.6562 132.243 27.5006 132.228 27.8116C132.232 28.135 132.235 28.4584 132.238 28.7817C132.234 28.9922 132.229 29.2027 132.224 29.4132C132.228 30.9105 132.231 30.9353 132.238 31.959C132.234 31.919 132.23 31.879 132.226 31.839C132.233 32.5941 132.24 33.9725 132.242 35.0623C132.244 35.5803 132.239 36.4699 132.24 36.592C132.24 36.6698 132.25 37.1798 132.253 37.5801L132.252 37.813L132.02 37.8126C131.784 37.814 131.587 37.8129 131.538 37.8058C129.749 37.8171 128.962 37.8096 128.236 37.8109C127.765 37.8118 127.55 37.8168 127.017 37.8182C126.255 37.8201 125.487 37.819 125.048 37.82C124.796 37.8206 124.749 37.8253 124.575 37.8258C123.755 37.8278 124.236 37.8222 123.371 37.8239C123.291 37.824 122.659 37.8309 121.947 37.8313C121.548 37.8315 120.518 37.8265 120.427 37.8266C120.024 37.8274 120.346 37.8402 118.968 37.827C119.008 37.8294 119.048 37.8319 119.088 37.8344C117.382 37.8436 117.113 37.8326 116.768 37.8323C116.725 37.8323 116.309 37.8374 116.061 37.8372C115.641 37.8368 115.472 37.831 115.379 37.8308C115.051 37.8304 113.949 37.8348 113.228 37.8299C113.379 37.8473 110.853 37.8579 110.294 37.8383C109.847 37.843 109.4 37.8478 108.953 37.8526C108.75 37.8495 108.548 37.8464 108.346 37.8433C108.223 37.8469 108.1 37.8505 107.977 37.8541C107.325 37.8477 106.674 37.8411 106.022 37.8345C105.981 37.8422 105.939 37.8498 105.898 37.8575C105.715 37.8569 105.533 37.8563 105.35 37.8557C105.208 37.8499 105.065 37.8441 104.923 37.8382C104.695 37.8397 104.467 37.8412 104.239 37.8427C104.182 37.8472 104.126 37.8517 104.069 37.8562C102.844 37.8633 103.473 37.8198 101.138 37.8608C100.774 37.8579 100.411 37.8549 100.048 37.8519C99.6373 37.8698 98.8682 37.8606 98.2477 37.8635C97.8103 37.8656 97.8342 37.8725 97.2383 37.8736C96.6421 37.8747 96.6634 37.868 96.617 37.868C96.131 37.8684 95.7646 37.8749 95.408 37.8743C95.3542 37.8742 95.2197 37.8664 94.7653 37.8666C94.3108 37.8668 94.0369 37.8758 93.3601 37.8752C93.0132 37.875 92.913 37.8683 92.6053 37.8682C91.1392 37.8673 89.6629 37.9051 88.5633 37.8648C88.3155 37.8704 86.5177 37.892 85.7483 37.8922C84.5517 37.8924 85.0128 37.8833 84.5371 37.8825C84.4687 37.8824 84.1043 37.8858 83.1004 37.8868C82.9208 37.887 82.9624 37.8917 82.9367 37.8918C81.7663 37.8936 79.4937 37.8934 78.2083 37.8947C78.0935 37.8948 77.4922 37.9095 76.4733 37.8926C74.9634 37.9088 72.1192 37.8832 70.1278 37.9074C69.8517 37.9083 69.5165 37.9038 69.3943 37.9041C68.3411 37.9073 68.7271 37.9224 66.3471 37.9031C66.5398 37.9109 65.983 37.919 65.1964 37.9196C64.0138 37.9206 64.8538 37.9042 63.9033 37.9068C63.9033 37.9111 63.9033 37.9154 63.9033 37.9197C61.7167 37.9115 61.2817 37.9306 59.0875 37.9343C58.2983 37.9356 57.1324 37.9277 56.9443 37.928C56.8715 37.9281 56.0084 37.9401 55.9259 37.9404C55.4617 37.9414 55.1996 37.9369 54.7988 37.9375C53.4745 37.9395 51.8942 37.9562 52.1801 37.9301C51.8159 37.936 51.4518 37.942 51.0877 37.9481C49.712 37.9226 48.6833 37.9624 48.3949 37.9359C48.1489 37.9419 47.903 37.9479 47.657 37.9539C41.7566 37.9606 35.8563 37.967 29.956 37.9733C29.7214 37.9831 27.1484 37.9839 27.0165 37.9826C26.4106 37.9768 27.0506 37.9551 25.8142 37.9617C25.6774 37.971 25.5406 37.9804 25.4037 37.9897C23.8498 37.9952 24.5972 37.9849 23.9839 37.9797C23.7276 37.9812 23.8104 37.9882 23.4635 37.9893C21.582 37.9951 17.7241 38.0017 15.6667 38.0056C15.2518 38.0064 15.3144 37.9994 15.1856 37.9996C14.8314 38.0002 14.1323 38.0101 13.4214 38.0113C12.3751 38.0129 11.225 38.0145 10.02 38.0159L9.58343 38.0152L9.58417 37.5801C9.57965 33.7227 9.57685 29.3036 9.57746 25.9318C9.57752 25.6312 9.58623 25.594 9.58636 25.3912C9.5865 25.1101 9.57842 24.4823 9.57869 24.1867C9.57893 23.9082 9.58536 23.7299 9.58569 23.4319C9.58731 22.0684 9.57297 20.2353 9.59085 18.7765C9.59232 18.6538 9.6264 17.1254 9.62878 17.0908C9.64273 16.888 9.66649 18.2462 9.68463 16.0153C9.70507 18.0092 9.736 17.3863 9.74937 14.7962C9.75464 16.0953 9.75985 17.3944 9.765 18.6935C9.76877 18.6954 9.77253 18.6972 9.7763 18.6991C9.79397 17.5165 9.79937 16.3432 9.79976 14.545C9.80334 14.6011 9.80692 14.6571 9.81049 14.7132C9.82927 16.3015 9.83376 18.2174 9.85817 19.427C9.87471 17.6531 9.89159 15.8792 9.90878 14.1053C9.91161 14.1939 9.91443 14.2825 9.91725 14.3711C9.92481 15.2215 9.92962 17.0789 9.9365 17.7851C9.9626 20.4821 9.95501 15.4245 9.97083 16.2553C9.97075 19.1028 9.97069 21.9504 9.97064 24.7979C9.9815 24.8978 10.0119 13.9432 10.0473 14.056C10.0496 14.951 10.0518 15.8459 10.0541 16.7409C10.0629 16.342 10.0718 15.9431 10.0807 15.5443C10.0835 15.6542 10.0863 15.7641 10.0891 15.874C10.0956 17.3839 10.1019 18.8939 10.1082 20.4038C10.1029 15.8131 10.1081 13.6797 10.1791 12.5801C10.1808 12.7046 10.1825 12.8291 10.1842 12.9535C10.1397 13.9481 10.1521 18.6425 10.1593 21.1373C10.172 20.6288 10.1635 18.4321 10.1713 17.9679C10.1736 17.8363 10.1821 18.2951 10.1867 17.9903C10.1988 17.1937 10.2162 13.7994 10.2304 14.2926C10.2396 14.6103 10.248 20.0719 10.2461 21.1373C10.2645 18.6401 10.2715 16.0671 10.2942 13.5625C10.3212 15.1434 10.3541 16.5435 10.3522 19.4292C10.3656 20.3088 10.3936 14.2 10.402 14.0582C10.4094 15.1155 10.4166 16.1727 10.4238 17.2299C10.4227 16.3357 10.4217 15.4415 10.4206 14.5472C10.4235 14.5446 10.4264 14.542 10.4293 14.5394C10.4396 16.8558 10.4608 18.9751 10.4551 21.6263C10.4702 21.5407 10.4713 19.9544 10.4726 19.1847ZM43.7161 12.5321C43.6626 12.5307 44.6347 12.5295 45.1819 12.5288C45.0997 12.5286 45.0175 12.5284 44.9352 12.5283C46.1032 12.5268 48.2774 12.5243 48.3581 12.5209C49.1913 12.5192 48.8229 12.5227 49.0916 12.5226C49.1966 12.5226 50.2842 12.5192 51.154 12.5201C51.3608 12.5198 51.5675 12.5195 51.7743 12.5191C51.8142 12.5179 51.8543 12.5167 51.8942 12.5155C52.1825 12.5164 52.4707 12.5174 52.7589 12.5185C49.7462 12.5231 46.7334 12.5276 43.7206 12.5321C43.7191 12.5321 43.7176 12.5321 43.7161 12.5321ZM73.7471 12.4871C74.8442 12.4864 76.5248 12.4857 76.1853 12.4811C75.4922 12.4824 74.7991 12.4837 74.106 12.485C73.9863 12.4857 73.8667 12.4864 73.7471 12.4871ZM106.15 37.822C105.234 37.8103 104.39 37.8227 102.973 37.8223C102.975 37.8251 102.976 37.8279 102.978 37.8307C103.558 37.8232 105.09 37.8255 106.15 37.822ZM16.4923 12.5727C16.2905 12.5729 16.0886 12.5731 15.8867 12.5733C16.7077 12.5718 16.8547 12.572 17.7832 12.5709C17.8392 12.5708 17.8197 12.5707 17.8393 12.5706C18.0665 12.5703 18.2766 12.5703 18.4819 12.57C18.8777 12.5696 19.2005 12.569 19.9017 12.5681C20.444 12.5675 20.4491 12.5679 20.6397 12.5676C20.8021 12.5675 22.4112 12.5643 23.4469 12.5635C25.4163 12.5625 17.0934 12.5721 16.4923 12.5727ZM10.6548 12.5793C10.8496 12.5791 11.0443 12.5788 11.2391 12.5786C10.6534 12.5794 11.8354 12.578 12.7027 12.577C12.6758 12.5771 10.841 12.5791 10.02 12.5801C10.2316 12.5798 10.4432 12.5796 10.6548 12.5793ZM35.2856 12.5526C34.5235 12.5535 34.6505 12.5517 34.6823 12.5512C34.9249 12.5509 35.1675 12.5506 35.4101 12.5503C35.3686 12.5511 35.3271 12.5518 35.2856 12.5526ZM29.5535 12.5593C29.7906 12.5581 31.4451 12.5558 32.2295 12.5548C32.2637 12.5548 32.0483 12.5556 32.603 12.5549C32.7695 12.5548 34.408 12.5507 34.0475 12.5536C32.5502 12.5556 31.053 12.5574 29.5558 12.5593C29.5551 12.5593 29.5543 12.5593 29.5535 12.5593ZM27.8825 12.5606C28.1943 12.56 28.5061 12.5593 28.8178 12.5587C28.979 12.5589 29.1401 12.5592 29.3012 12.5594C28.9464 12.5599 28.5917 12.5604 28.2369 12.5609C28.1188 12.5608 28.0006 12.5607 27.8825 12.5606ZM26.5813 37.8403C26.6539 37.8461 26.7264 37.852 26.7989 37.8578C27.0799 37.8611 28.446 37.834 28.0135 37.8295C27.5361 37.8331 27.0587 37.8367 26.5813 37.8403ZM20.8122 37.8335C20.5281 37.8307 20.244 37.828 19.9599 37.8252C19.6331 37.8358 19.3064 37.8464 18.9797 37.8571C20.399 37.8626 21.9093 37.8688 21.6657 37.8389C21.9906 37.8386 22.3155 37.8383 22.6403 37.8379C22.3667 37.8507 22.4035 37.8548 23.2538 37.8617C23.4397 37.8442 24.3189 37.8521 25.3252 37.8473C24.5933 37.847 23.8613 37.8468 23.1293 37.8465C23.1293 37.8435 23.1293 37.8405 23.1293 37.8374C24.7609 37.8369 22.733 37.8196 21.6702 37.8327C21.5865 37.8287 21.5027 37.8247 21.419 37.8207C21.2167 37.825 21.0145 37.8292 20.8122 37.8335ZM132.161 30.8566C132.16 31.0588 132.158 31.2611 132.157 31.4633C132.179 32.2471 132.157 30.6513 132.173 29.5152C132.16 29.8906 132.159 28.1586 132.158 28.0595C132.154 28.2587 132.15 28.458 132.146 28.6573C132.151 29.3904 132.156 30.1235 132.161 30.8566ZM132.151 36.5898C132.156 36.2736 132.159 36.8003 132.162 37.5801L132.161 37.7219L132.02 37.7217C131.07 37.7244 129.745 37.7253 129.111 37.7245C128.83 37.7242 128.329 37.7182 128.126 37.7192C128.003 37.7217 127.88 37.7242 127.757 37.7267C127.611 37.7186 125.355 37.73 124.465 37.7355C124.382 37.7325 124.298 37.7295 124.214 37.7265C123.89 37.728 123.566 37.7296 123.242 37.7311C123.283 37.728 123.323 37.7249 123.364 37.7217C123.119 37.7257 122.874 37.7296 122.628 37.7336C121.666 37.7387 122.259 37.7212 121.536 37.7271C120.732 37.7338 122.049 37.7426 122.025 37.7492C122.677 37.7468 124.161 37.7415 124.823 37.7406C125.203 37.7401 124.773 37.7521 126.411 37.7372C126.771 37.7398 127.13 37.7425 127.489 37.7452C128.149 37.7396 128.808 37.7341 129.467 37.7287C129.59 37.7327 129.713 37.7367 129.836 37.7408C129.907 37.7413 131.432 37.7304 131.35 37.7274C131.526 37.7294 131.753 37.7309 132.02 37.7319L132.172 37.7322L132.172 37.5801C132.174 36.9068 132.174 35.9845 132.174 35.0275C132.171 34.8989 132.169 34.7703 132.167 34.6417C132.173 35.9339 132.165 35.0529 132.161 35.438C132.159 35.6603 132.155 36.3405 132.151 36.5898ZM35.5838 37.8162C33.4141 37.8348 34.7574 37.8199 32.4121 37.8222C32.5759 37.8309 32.7396 37.8395 32.9034 37.8482C34.0565 37.8308 35.9538 37.8395 35.586 37.8162C35.5853 37.8162 35.5845 37.8162 35.5838 37.8162ZM12.6341 37.8702C13.8752 37.8631 13.2524 37.8489 14.8256 37.8426C14.8263 37.8426 14.8271 37.8426 14.8278 37.8426C14.0143 37.8424 13.2009 37.8421 12.3874 37.8418C12.4696 37.8513 12.5519 37.8608 12.6341 37.8702ZM85.1864 37.7828C86.3764 37.7845 86.1421 37.7794 87.222 37.789C88.8297 37.7743 87.4687 37.7776 87.4687 37.7658C87.1012 37.7696 86.7337 37.7735 86.3663 37.7773C85.4753 37.7671 86.3203 37.7607 86.3203 37.7597C86.3195 37.7597 86.3188 37.7597 86.318 37.7597C86.3181 37.7561 86.3469 37.7553 86.0051 37.7535C85.7322 37.7632 85.4593 37.773 85.1864 37.7828ZM90.2793 37.7631C89.8712 37.7712 89.6877 37.7814 90.7604 37.7851C90.7611 37.7851 90.7619 37.7851 90.7626 37.7851C90.8487 37.7679 91.8772 37.7806 92.3462 37.779C92.4692 37.777 92.5922 37.775 92.7152 37.773C91.9032 37.7698 91.0912 37.7665 90.2793 37.7631ZM108.224 37.7314C108.228 37.7486 107.328 37.7512 108.595 37.7657C108.841 37.7651 109.087 37.7645 109.333 37.764C109.494 37.76 109.656 37.7561 109.817 37.7522C112.938 37.7795 113.868 37.7267 108.595 37.7514C108.594 37.7514 108.593 37.7514 108.593 37.7515C108.47 37.7448 108.347 37.7381 108.224 37.7314ZM102.728 37.7378C102.688 37.7472 102.649 37.7565 102.609 37.7659C101.92 37.7441 101.03 37.7665 99.6787 37.7518C99.5565 37.7548 99.4342 37.7578 99.312 37.7608C98.807 37.755 93.8466 37.7579 94.9212 37.7718C95.3904 37.7778 96.4124 37.7679 96.5003 37.768C96.7984 37.7684 97.1871 37.7763 97.6903 37.7753C97.9811 37.7747 98.594 37.7644 99.1875 37.7638C100.514 37.7626 102.936 37.7851 104.681 37.7596C104.806 37.7622 104.932 37.7648 105.058 37.7675C106.352 37.7644 105.92 37.7562 107.124 37.7652C107.957 37.7212 102.282 37.7724 103.464 37.7357C103.463 37.7357 103.462 37.7357 103.462 37.7357C103.217 37.7364 102.973 37.7371 102.728 37.7378ZM67.0828 37.7856C67.0047 37.7762 65.503 37.7924 65.8559 37.769C65.3658 37.7775 64.8757 37.786 64.3856 37.7945C64.3893 37.7967 64.3931 37.7988 64.3968 37.801C64.8839 37.7988 65.371 37.7966 65.8581 37.7944C65.86 37.7978 65.8619 37.8012 65.8637 37.8046C66.5896 37.7916 69.6189 37.7939 69.5266 37.8058C69.6885 37.8006 69.8504 37.7954 70.0122 37.7903C71.4612 37.8023 72.7079 37.7868 74.2864 37.7981C74.4086 37.7939 74.5309 37.7898 74.6531 37.7856C74.7327 37.7888 74.8123 37.792 74.892 37.7951C75.467 37.7949 76.0419 37.7947 76.6169 37.7945C78.4906 37.7797 74.85 37.7665 74.4086 37.7687C74.35 37.769 74.3591 37.7775 73.9925 37.7791C73.3415 37.7822 69.6977 37.7771 68.5711 37.7839C68.5614 37.7781 68.5517 37.7724 68.5419 37.7667C68.0556 37.7729 67.5692 37.7793 67.0828 37.7856ZM115.186 37.7429C115.268 37.7474 115.35 37.7518 115.433 37.7563C116.852 37.7502 117.746 37.7533 117.382 37.7388C117.381 37.7388 117.38 37.7388 117.38 37.7388C116.648 37.7401 115.917 37.7415 115.186 37.7429ZM68.3716 12.5207C68.4089 12.5239 69.0874 12.5245 69.9642 12.5213C69.922 12.5203 69.8797 12.5194 69.8375 12.5185C69.3805 12.5218 68.8103 12.5175 67.4004 12.5196C67.4004 12.5212 67.4004 12.5228 67.4004 12.5244C67.7241 12.5232 68.0479 12.522 68.3716 12.5207ZM113.961 37.7421C113.529 37.7371 112.314 37.7548 113.113 37.7548C113.724 37.7548 114.193 37.7448 113.961 37.7421ZM9.73918 35.3122C9.73793 35.6329 9.73669 35.9537 9.73546 36.2745C9.74203 36.4416 9.74859 36.6087 9.75514 36.7758C9.75514 36.775 9.75514 36.7743 9.75514 36.7735C9.74984 36.2864 9.74452 35.7993 9.73918 35.3122ZM81.1187 37.7879C82.2065 37.7861 83.2944 37.7843 84.3823 37.7825C84.3931 37.7795 84.404 37.7764 84.4148 37.7734C83.325 37.7855 82.8869 37.7741 82.6327 37.7736C82.6338 37.7736 82.635 37.7736 82.6361 37.7736C81.8201 37.772 81.0428 37.771 80.2708 37.7681C80.5534 37.7747 80.836 37.7813 81.1187 37.7879ZM77.3896 37.7722C77.5729 37.794 77.8122 37.7962 79.4835 37.7792C79.4173 37.7766 79.3512 37.774 79.285 37.7714C78.419 37.7738 77.9138 37.7793 78.0659 37.7678C77.8405 37.7692 77.615 37.7707 77.3896 37.7722ZM94.4255 37.7624C94.2249 37.7562 92.6332 37.7642 92.7197 37.7674C92.7539 37.7687 94.8165 37.7746 94.4255 37.7624ZM56.2872 12.5341C56.654 12.5341 57.0207 12.5341 57.3875 12.5342C56.8996 12.5352 56.4117 12.5362 55.9239 12.5372C56.045 12.5362 56.1661 12.5352 56.2872 12.5341ZM52.261 12.5447C51.9996 12.5443 52.8495 12.5394 51.2864 12.5398C52.424 12.5386 53.5616 12.5374 54.6992 12.5362C54.1657 12.5374 53.6322 12.5387 53.0988 12.5398C53.1919 12.541 53.2849 12.5421 53.378 12.5432C53.0057 12.5437 52.6333 12.5442 52.261 12.5447ZM51.0396 12.5427C51.6523 12.5453 48.4265 12.5482 48.1259 12.5481C48.059 12.5481 47.7407 12.5462 47.6235 12.5459C48.1106 12.5454 48.5977 12.545 49.0848 12.5445C48.9218 12.544 48.7589 12.5434 48.5959 12.5429C49.166 12.5421 49.7361 12.5413 50.3062 12.5405C50.0624 12.5415 49.8187 12.5424 49.5749 12.5434C50.0632 12.5431 50.5514 12.5429 51.0396 12.5427ZM63.982 12.53C63.5742 12.5303 63.1663 12.5305 62.7584 12.5308C62.8399 12.5322 62.9214 12.5336 63.0029 12.535C63.247 12.5348 63.4911 12.5346 63.7353 12.5344C63.8175 12.5329 63.8997 12.5315 63.982 12.53ZM55.6715 12.5393C56.2653 12.5326 57.8835 12.5448 55.9923 12.5414C55.8017 12.541 55.6153 12.54 55.6715 12.5393ZM46.9169 12.5485C45.6488 12.5531 45.9349 12.5451 47.1323 12.5463C47.1925 12.5464 47.0121 12.5482 46.9169 12.5485ZM37.4087 12.5567C37.306 12.5568 37.1264 12.5551 36.1458 12.5577C35.984 12.5576 35.8221 12.5576 35.6602 12.5575C36.039 12.5564 39.2796 12.5528 38.8319 12.5552C38.3359 12.5557 37.9218 12.5564 37.4087 12.5567ZM40.5467 12.562C41.0331 12.5616 41.5194 12.5613 42.0058 12.5609C41.8454 12.5603 41.685 12.5597 41.5247 12.5591C41.7639 12.5588 42.0032 12.5584 42.2424 12.5581C42.6514 12.559 43.0604 12.56 43.4694 12.561C42.4122 12.5618 41.3549 12.5626 40.2977 12.5634C40.3807 12.5629 40.4637 12.5624 40.5467 12.562ZM53.4778 12.5566C52.542 12.556 51.3954 12.5578 49.8755 12.5584C49.8748 12.5584 49.874 12.5584 49.8733 12.5584C49.7975 12.5585 49.6631 12.5574 49.4191 12.5574C49.2111 12.5576 45.1063 12.5611 45.4264 12.5591C47.0146 12.5565 47.6079 12.5587 47.9891 12.5542C48.0665 12.555 48.1439 12.5559 48.2213 12.5567C49.7484 12.5574 50.1842 12.5539 51.0419 12.5521C51.0385 12.5528 51.0352 12.5535 51.0318 12.5543C51.6045 12.554 52.1772 12.5537 52.75 12.5534C52.6692 12.553 52.5885 12.5525 52.5077 12.5521C52.7103 12.5519 52.913 12.5518 53.1156 12.5517C53.6091 12.5536 54.2349 12.5539 53.4778 12.5566ZM38.3407 12.5624C37.8911 12.5665 33.5097 12.5664 31.5084 12.5682C32.5591 12.5658 34.1868 12.5661 35.3327 12.5655C37.548 12.5642 36.0168 12.5638 36.3926 12.563C36.5783 12.5626 37.8348 12.5642 38.3407 12.5624ZM56.8962 12.5537C55.7918 12.5538 55.1734 12.5555 54.218 12.5539C54.298 12.5534 54.378 12.5529 54.458 12.5524C54.7852 12.5526 57.453 12.5523 56.8962 12.5537ZM28.5756 12.5692C30.7088 12.5689 29.6566 12.567 30.7659 12.5683C30.0358 12.5688 29.3057 12.5693 28.5756 12.5698C28.5756 12.5696 28.5756 12.5694 28.5756 12.5692ZM111.52 37.6585C110.621 37.6584 109.617 37.6547 109.079 37.6637C109.69 37.6647 110.301 37.6657 110.912 37.6668C111.115 37.664 111.317 37.6613 111.52 37.6585ZM132.015 32.4446C132.013 32.6499 132.019 33.4616 132.019 33.5471C132.019 33.706 132.016 33.6626 132.015 33.6648C132.016 34.705 132.024 33.7454 132.025 34.515C132.026 34.6466 132.022 36.4544 132.022 37.1898C132.022 37.3203 132.022 37.4507 132.022 37.5801C131.028 37.5826 130.1 37.5822 129.727 37.5824C129.013 37.5826 127.688 37.5889 126.516 37.5894C126.032 37.5895 125.863 37.5844 125.377 37.5845C122.257 37.5854 116.114 37.5932 113.346 37.5899C112.662 37.5891 112.009 37.5818 111.648 37.5824C111.362 37.5851 111.077 37.5878 110.792 37.5905C109.915 37.5663 109.621 37.5878 108.676 37.5902C108.075 37.5917 107.794 37.5844 107.713 37.5844C107.178 37.5846 106.914 37.5881 106.494 37.5887C106.023 37.5893 105.345 37.586 105.176 37.5866C105.073 37.5871 105.403 37.5969 103.574 37.5969C101.709 37.5969 99.8682 37.596 97.9718 37.5956C98.6043 37.6265 99.149 37.6052 99.9232 37.604C100.131 37.6037 99.9992 37.6086 100.18 37.6083C100.691 37.6077 101.668 37.6028 102.091 37.6039C102.548 37.6051 102.392 37.6162 102.97 37.612C103 37.6118 102.907 37.6072 103.043 37.6064C104.412 37.5987 104.86 37.6066 106.59 37.6065C107.736 37.6064 114.697 37.6012 114.936 37.6039C116.182 37.6185 108.847 37.6204 107.989 37.6194C107.689 37.619 108.004 37.614 107.73 37.6132C107.614 37.6128 106.571 37.6224 105.541 37.6235C104.295 37.6248 101.79 37.6188 100.603 37.6193C90.3941 37.6237 80.3268 37.6196 70.1278 37.6213C69.9103 37.6213 69.6239 37.6282 68.9154 37.6284C55.6911 37.6315 41.9851 37.6283 28.5922 37.6349C25.6724 37.6364 22.7765 37.645 19.8298 37.6394C19.4642 37.6457 19.0986 37.652 18.7329 37.6583C19.6681 37.6531 21.3818 37.6666 21.5379 37.6667C21.5941 37.6668 21.9486 37.6597 22.5203 37.6599C23.3242 37.6601 23.6768 37.666 23.7428 37.666C23.9472 37.6659 23.8133 37.6596 24.0086 37.6596C25.4649 37.6594 26.5917 37.6573 27.9283 37.6568C29.4381 37.6563 30.2035 37.6676 31.3029 37.6546C31.4274 37.6595 31.5519 37.6644 31.6764 37.6692C32.4979 37.6476 37.3896 37.6488 39.3712 37.6492C39.9964 37.6494 39.8867 37.6578 40.0968 37.6577C40.2309 37.6576 40.178 37.6468 41.8138 37.6484C42.6373 37.6493 42.8533 37.6571 43.2662 37.6567C43.4906 37.6565 43.4542 37.6487 43.7765 37.6486C45.6408 37.6481 47.163 37.6501 48.9882 37.6509C49.5014 37.6512 49.507 37.6575 49.6219 37.6574C50.0447 37.6569 50.7801 37.646 51.8548 37.6458C53.6239 37.6453 57.1497 37.6444 58.5963 37.6489C58.8089 37.6496 58.985 37.6568 59.1413 37.6566C59.3781 37.6564 59.471 37.6488 59.5126 37.6487C60.3043 37.6483 59.828 37.6555 60.3582 37.6536C60.644 37.6526 60.9421 37.6439 61.6064 37.6428C62.4837 37.6413 62.311 37.6514 62.6775 37.6503C62.7162 37.6501 62.7278 37.6431 63.088 37.6427C64.4539 37.6415 66.4352 37.6394 67.7277 37.639C68.099 37.6389 68.3752 37.6435 68.893 37.6434C69.9363 37.6432 75.8669 37.6386 76.3533 37.641C76.4046 37.6412 75.8772 37.6511 76.7178 37.6506C76.9619 37.6464 77.2061 37.6423 77.4502 37.6382C77.8584 37.6446 78.2666 37.6508 78.6749 37.6571C78.6602 37.6349 81.0619 37.631 81.0379 37.6533C81.3007 37.6541 81.5635 37.6549 81.8263 37.6557C82.3736 37.6401 82.738 37.6457 83.7957 37.6364C83.9606 37.641 84.1255 37.6456 84.2903 37.6502C84.3318 37.6471 84.3733 37.644 84.4148 37.6409C84.9793 37.6575 85.9051 37.6403 86.0175 37.6402C86.4498 37.6397 86.7747 37.6438 86.9775 37.6436C87.7349 37.6429 89.3745 37.6367 90.2591 37.6391C90.3006 37.6392 90.2597 37.6462 90.5114 37.6469C90.9654 37.6483 91.0096 37.6382 91.615 37.6498C91.7372 37.6468 91.8595 37.6438 91.9817 37.6408C92.1114 37.6423 92.2412 37.6438 92.3709 37.6453C93.1365 37.6442 93.9021 37.6432 94.6678 37.6421C93.9714 37.6539 94.7727 37.66 95.5302 37.6507C95.7866 37.6475 95.5591 37.6406 95.6446 37.6395C95.7619 37.6381 99.198 37.6405 99.4253 37.6448C99.5879 37.6426 99.7505 37.6404 99.9131 37.6382C99.9953 37.6425 100.078 37.6467 100.16 37.651C100.25 37.6494 100.339 37.6479 100.429 37.6464C101.323 37.6535 103.644 37.6355 104.065 37.6368C104.29 37.6375 104.088 37.6554 105.165 37.6531C105.203 37.6482 105.24 37.6433 105.277 37.6384C105.524 37.6377 105.771 37.6369 106.018 37.6361C106.481 37.6364 107.155 37.6445 107.176 37.6502C107.321 37.6467 107.465 37.6433 107.61 37.6398C107.999 37.6508 110.071 37.646 110.904 37.6388C111.148 37.642 111.392 37.6452 111.635 37.6484C111.963 37.6442 112.29 37.6401 112.618 37.6361C113.376 37.6346 112.575 37.6415 112.737 37.642C113.079 37.643 114.822 37.6313 114.707 37.6451C114.945 37.645 115.183 37.6449 115.42 37.6449C115.543 37.6409 115.665 37.637 115.787 37.6331C116.195 37.6463 116.901 37.6413 118.35 37.6456C118.471 37.6425 118.593 37.6394 118.714 37.6364C119.162 37.6405 119.61 37.6446 120.058 37.6487C120.15 37.6437 120.242 37.6387 120.334 37.6337C120.529 37.6329 120.723 37.6321 120.918 37.6313C121.314 37.6423 122.024 37.6301 122.386 37.6345C122.914 37.6409 122.506 37.6489 121.526 37.6509C121.599 37.6589 124.518 37.6538 125.191 37.6529C125.147 37.6514 125.102 37.6499 125.058 37.6484C124.369 37.6499 123.681 37.6514 122.993 37.653C122.416 37.6332 124.285 37.6379 125.143 37.635C125.221 37.6347 125.666 37.6271 126.53 37.6275C126.865 37.6277 128.171 37.638 128.42 37.6385C130.433 37.6426 128.953 37.628 130.922 37.6405C130.608 37.6329 131.198 37.6358 132.02 37.6365L132.076 37.6365L132.076 37.5801C132.077 37.3285 132.077 37.0552 132.076 36.7793C132.076 36.5788 132.067 34.8787 132.067 34.7639C132.065 34.048 132.074 34.8274 132.072 33.7916C132.069 33.6671 132.067 33.5426 132.065 33.4181C132.065 33.177 132.064 32.9359 132.064 32.6947C132.084 31.2315 132.069 30.8911 132.067 30.3709C132.066 30.1608 132.071 30.4313 132.07 29.8864C132.07 29.6813 132.065 29.4537 132.065 28.9017C132.063 27.1744 132.081 26.5881 132.062 25C132.065 24.7562 132.067 24.5125 132.07 24.2687C132.066 24.1043 132.063 23.9398 132.06 23.7753C132.069 22.5171 132.06 22.9714 132.06 22.5169C132.059 21.3171 132.061 18.8616 132.068 18.6466C132.051 17.6107 132.069 16.3722 132.068 15.9639C132.066 15.7213 132.064 15.4786 132.062 15.236C132.064 14.9508 132.066 14.6655 132.068 14.3803C132.052 14.519 132.067 13.0417 132.067 12.8999C132.067 12.8673 132.067 12.7515 132.066 12.5801L132.067 12.5337L132.02 12.5336C131.329 12.535 129.736 12.5385 129.058 12.5386C128.214 12.5388 126.742 12.5353 126.612 12.5353C126.463 12.5354 125.026 12.54 123.902 12.5403C122.918 12.5405 117.091 12.5373 117.458 12.5433C117.84 12.5449 118.382 12.5462 118.851 12.5469C120.308 12.5488 128.856 12.5499 131.04 12.5505C131.366 12.5506 131.692 12.5507 132.02 12.5507L132.049 12.5508L132.049 12.5801C132.049 16.6594 132.05 20.8773 132.049 24.9506C132.049 25.2095 132.045 25.2489 132.045 25.471C132.045 25.8082 132.049 26.664 132.049 26.9963C132.049 28.2375 132.049 29.7478 132.049 30.4124C132.049 31.8978 132.046 32.9167 132.046 34.0406C132.046 34.3924 132.052 36.1712 132.05 37.3905C132.049 37.4537 132.049 37.5169 132.049 37.5801L132.049 37.6087L132.02 37.6087C131.862 37.6077 131.704 37.6068 131.547 37.6058C131.67 37.6055 131.833 37.605 132.02 37.6046L132.044 37.6046L132.044 37.5801C132.042 36.8126 132.04 35.6276 132.039 35.0129C132.038 33.8747 132.042 33.281 132.042 32.8607C132.042 32.5089 132.037 30.7108 132.037 29.8921C132.037 29.6379 132.042 29.5858 132.042 29.3683C132.041 28.1881 132.041 26.6338 132.036 25.6101C132.038 26.0279 132.04 23.4186 132.04 23.2818C132.04 23.0473 132.036 22.7928 132.036 22.3139C132.036 21.3931 132.045 21.5099 132.036 20.3591C132.038 20.0743 132.041 19.7894 132.043 19.5045C132.032 19.487 132.047 15.8874 132.033 14.8637C132.031 14.8368 132.027 19.5143 132.027 19.9004C132.026 22.2167 132.029 25.6444 132.027 27.8924C132.026 28.5689 132.018 30.6961 132.019 30.8566C132.019 31.1154 132.023 30.8816 132.023 30.9934C132.027 33.2822 132.018 32.1403 132.015 32.4446ZM51.0419 12.5604C51.7372 12.5602 52.4326 12.56 53.1279 12.5599C53.0775 12.5608 53.027 12.5616 52.9765 12.5625C52.658 12.5623 52.3395 12.5621 52.021 12.5619C51.7761 12.5625 51.5312 12.5631 51.2864 12.5637C51.2049 12.5626 51.1234 12.5615 51.0419 12.5604ZM49.3282 12.5645C48.7252 12.5651 48.6958 12.5635 48.5566 12.5635C48.1413 12.5634 47.7821 12.5642 47.379 12.5644C47.8433 12.5604 48.8322 12.5616 49.3282 12.5645ZM61.7827 12.5614C61.6468 12.5612 60.7391 12.5561 59.7068 12.5616C58.9344 12.5603 58.162 12.559 57.3897 12.5579C58.7019 12.5596 60.5176 12.5564 61.1603 12.5561C61.4043 12.5561 61.4508 12.5577 61.6459 12.5577C62.7699 12.5574 63.8627 12.5528 63.9775 12.5587C62.9146 12.5574 61.9562 12.5617 61.7827 12.5614ZM54.9997 12.5621C54.8199 12.5612 54.6401 12.5602 54.4603 12.5593C55.11 12.559 55.7598 12.5587 56.4095 12.5584C56.2338 12.5595 56.0581 12.5607 55.8824 12.5618C55.5882 12.5619 55.2939 12.562 54.9997 12.5621ZM104.985 12.5493C104.584 12.5494 104.183 12.5495 103.783 12.5496C103.805 12.5512 104.263 12.551 104.432 12.552C104.431 12.552 104.43 12.552 104.43 12.552C104.618 12.5532 104.537 12.5552 104.879 12.5561C104.915 12.5538 104.95 12.5516 104.985 12.5493ZM18.2473 37.6398C17.5756 37.6397 11.3722 37.641 11.9006 37.6572C12.167 37.6652 14.2886 37.6575 14.9142 37.6574C15.7574 37.6574 18.0348 37.6738 18.2473 37.6398ZM9.96095 34.821C9.95031 34.7516 9.94589 36.3417 9.94492 37.5801L9.94479 37.655L10.02 37.6552C10.7006 37.6557 11.275 37.6552 11.4094 37.6542C11.3289 37.6519 11.2049 37.6468 11.0976 37.6457C10.9189 37.6438 10.5119 37.6429 10.02 37.6425L9.95753 37.6424L9.95764 37.5801C9.95856 36.6328 9.95811 35.3711 9.96095 34.821ZM127.428 12.5626C127.115 12.559 126.803 12.5555 126.49 12.552C126.572 12.5566 126.654 12.5612 126.737 12.5659C126.967 12.5648 127.197 12.5637 127.428 12.5626ZM131.296 37.6086C126.089 37.6093 120.883 37.61 115.676 37.6107C116.134 37.6079 116.592 37.6051 117.05 37.6024C121.536 37.6028 126.321 37.6045 130.653 37.6001C130.867 37.6029 131.081 37.6058 131.296 37.6086ZM63.2496 12.5704C64.5837 12.5702 65.6979 12.5683 67.1492 12.5707C65.7662 12.5735 65.0814 12.5697 63.7375 12.5735C63.7368 12.5735 63.736 12.5735 63.7353 12.5735C63.5734 12.5725 63.4115 12.5714 63.2496 12.5704ZM93.0328 12.566C92.6271 12.5684 92.2215 12.5707 91.8159 12.573C92.3038 12.573 92.7916 12.573 93.2795 12.5729C93.1973 12.5706 93.115 12.5683 93.0328 12.566ZM85.8806 37.5875C84.4853 37.5994 80.9158 37.578 79.7818 37.5925C79.7085 37.5935 80.3826 37.5995 79.2928 37.6116C80.116 37.609 80.6973 37.6064 80.7587 37.5971C81.0032 37.6003 81.2476 37.6034 81.4921 37.6065C81.8978 37.6041 82.3034 37.6016 82.709 37.5992C82.665 37.6084 82.6971 37.6079 83.3202 37.6016C83.6043 37.6039 83.8885 37.6061 84.1726 37.6084C84.2929 37.6045 84.4133 37.6007 84.5337 37.5968C84.7797 37.6022 85.0257 37.6075 85.2717 37.6128C86.2305 37.6069 85.6465 37.5966 85.8806 37.5875ZM90.7649 37.5895C90.538 37.5875 84.0688 37.5944 87.0089 37.612C87.773 37.6113 88.5372 37.6106 89.3013 37.6099C88.6684 37.5807 90.7508 37.6067 90.9219 37.6072C91.7402 37.6099 92.7832 37.6029 93.3769 37.6032C93.8875 37.6035 94.1908 37.6085 94.55 37.6083C95.7734 37.6077 97.7058 37.6072 97.9718 37.5956C97.0208 37.5955 96.0548 37.5954 95.0659 37.5958C94.0201 37.5963 93.1007 37.585 91.1361 37.6007C90.6503 37.5991 90.8235 37.59 90.7649 37.5895ZM90.5946 12.5726C90.6434 12.5674 88.1744 12.5691 88.1586 12.571C88.1537 12.5722 88.9578 12.5721 89.0727 12.5725C89.0734 12.5725 89.0742 12.5725 89.0749 12.5725C89.1228 12.5727 88.8799 12.5747 89.2577 12.5752C89.7033 12.5743 90.149 12.5735 90.5946 12.5726ZM27.8958 37.6016C27.562 37.5926 19.9377 37.5963 19.7132 37.6008C19.6522 37.6021 19.7372 37.6061 19.7132 37.6085C21.4918 37.5952 24.0204 37.6105 25.7088 37.6112C26.1795 37.6114 26.0388 37.605 26.0654 37.6049C26.0666 37.6049 26.0677 37.6049 26.0688 37.6049C26.3359 37.6049 27.5416 37.6204 27.8958 37.6016ZM77.3403 37.5985C77.6644 37.6005 77.9885 37.6025 78.3126 37.6045C78.3949 37.6005 78.4771 37.5965 78.5594 37.5925C78.5586 37.5925 78.5579 37.5925 78.5571 37.5925C78.1515 37.5945 77.7459 37.5965 77.3403 37.5985ZM66.1105 37.5857C66.1894 37.5886 66.2682 37.5916 66.3471 37.5946C67.1632 37.5949 67.9793 37.5953 68.7954 37.5956C68.7132 37.5973 68.6309 37.5989 68.5487 37.6006C69.7826 37.6049 70.2937 37.5946 70.951 37.596C70.9502 37.596 70.9495 37.596 70.9487 37.596C71.0195 37.5962 71.1051 37.6022 71.3682 37.6024C71.9714 37.6028 73.7006 37.6048 73.9095 37.5988C74.3517 37.586 70.8719 37.5922 70.2231 37.5917C69.9299 37.5914 69.5771 37.5861 69.3988 37.586C69.2034 37.5859 68.9372 37.5931 68.4612 37.5929C68.3219 37.5929 66.7777 37.5844 66.1105 37.5857ZM51.7057 37.5955C51.9573 37.6027 52.4827 37.5957 52.6758 37.5969C52.7219 37.5971 52.3632 37.6031 52.798 37.6049C52.921 37.6008 53.044 37.5967 53.167 37.5926C52.6799 37.5936 52.1928 37.5946 51.7057 37.5955ZM86.4461 12.5753C86.5171 12.5758 87.8426 12.5756 87.9063 12.5752C88.7004 12.5707 85.9549 12.5715 86.4461 12.5753ZM52.9945 12.5802C53.6042 12.5838 46.3698 12.5801 45.6687 12.5804C45.7037 12.5785 47.4247 12.5804 46.5233 12.5778C47.3834 12.5792 49.7612 12.5784 50.3208 12.5788C50.6604 12.579 50.7461 12.5809 50.7974 12.581C50.9988 12.5812 52.7795 12.579 52.9945 12.5802ZM39.691 12.5793C40.3785 12.5796 41.066 12.5799 41.7535 12.5802C40.9422 12.5804 40.131 12.5806 39.3198 12.5807C39.4435 12.5802 39.5673 12.5798 39.691 12.5793ZM38.8263 12.58C38.8483 12.5815 36.5147 12.5803 35.9014 12.5806C36.5928 12.5784 37.7463 12.5805 38.8263 12.58ZM77.6533 12.5848C78.7285 12.5872 79.1905 12.5765 77.8833 12.5811C77.8435 12.5813 77.6085 12.5846 77.6533 12.5848ZM85.5487 37.5453C85.3654 37.5451 83.0854 37.5348 82.9535 37.5396C82.5362 37.5551 84.0324 37.5491 84.5337 37.555C85.3425 37.5646 84.153 37.5723 86.1274 37.5667C86.0466 37.5698 85.9659 37.5728 85.8851 37.5759C87.0407 37.5769 86.6624 37.5557 86.8698 37.553C86.9333 37.5522 87.6557 37.5541 87.7861 37.5528C89.4144 37.5361 85.7187 37.5454 85.5487 37.5453ZM104.268 12.5877C106.409 12.5924 105.488 12.5858 107.684 12.5863C107.758 12.5829 104.547 12.5849 104.268 12.5877ZM106.391 37.5599C104.177 37.5621 102.357 37.5537 100.292 37.5644C100.427 37.5813 106.965 37.564 106.391 37.5599ZM10.0789 29.939C10.0651 32.3947 10.0567 34.9578 10.0515 37.5801L10.02 37.5486C16.5951 37.5614 23.5416 37.5542 30.0973 37.5546C31.0967 37.5546 31.1925 37.5639 31.5542 37.5629C31.791 37.5623 31.7496 37.5548 32.0645 37.5548C43.4438 37.5546 54.3397 37.5471 65.2402 37.5526C65.9268 37.553 69.2672 37.5669 69.9808 37.5465C70.5206 37.5311 68.1209 37.5428 67.721 37.5426C67.4204 37.5424 67.4077 37.535 67.2073 37.535C66.9947 37.5349 67.1704 37.54 66.9236 37.54C65.8778 37.5402 64.7367 37.538 63.7912 37.5382C54.5181 37.5407 45.4966 37.538 36.2724 37.5354C35.1559 37.5351 35.3854 37.5284 35.3292 37.5283C35.3285 37.5283 35.3277 37.5284 35.327 37.5284C29.3404 37.5263 22.5033 37.541 16.1624 37.5338C14.115 37.5311 12.0675 37.5284 10.02 37.5256L10.0745 37.5801C10.0778 35.1624 10.0811 32.7447 10.0846 30.327C10.0827 30.1977 10.0808 30.0683 10.0789 29.939ZM90.2759 37.5647C89.7188 37.5447 89.5942 37.5648 87.5955 37.5564C87.4328 37.5599 87.2702 37.5633 87.1076 37.5667C88.1648 37.5661 89.222 37.5654 90.2793 37.5647C90.2781 37.5647 90.277 37.5647 90.2759 37.5647ZM77.0745 37.5559C76.7367 37.5271 72.2671 37.5466 70.2545 37.5407C69.8856 37.5556 72.8114 37.5493 73.5013 37.5509C73.8458 37.5518 75.691 37.567 77.0935 37.5588C77.0872 37.5578 77.0808 37.5569 77.0745 37.5559ZM60.5636 12.5908C60.8889 12.5907 61.2141 12.5906 61.5393 12.5904C60.7255 12.5894 59.9116 12.5885 59.0978 12.5876C60.3961 12.5883 61.6945 12.589 62.9928 12.5898C62.751 12.5913 62.5091 12.5928 62.2672 12.5943C61.6993 12.5931 61.1315 12.592 60.5636 12.5908ZM64.776 12.5909C62.5024 12.5911 64.8759 12.5872 65.4433 12.5892C65.783 12.5905 65.0082 12.5909 64.776 12.5909ZM70.6898 12.5952C69.6295 12.598 67.4866 12.5976 68.2483 12.5918C69.3943 12.5948 70.1329 12.5926 71.7945 12.5947C71.5519 12.5959 71.3093 12.597 71.0667 12.5982C71.0655 12.5982 71.0644 12.5982 71.0633 12.5982C70.9388 12.5972 70.8143 12.5962 70.6898 12.5952ZM63.7375 12.5941C62.2483 12.5905 66.5596 12.5926 65.2045 12.5945C65.1409 12.5945 63.7962 12.5942 63.7375 12.5941ZM11.9006 37.4946C11.7212 37.5036 12.8666 37.5037 13.2476 37.5044C14.8993 37.5076 17.0175 37.5043 18.7352 37.506C18.6058 37.5031 18.4765 37.5001 18.3471 37.4972C16.1983 37.4963 14.0495 37.4954 11.9006 37.4946ZM24.1084 37.5076C25.2886 37.5079 26.4688 37.5083 27.649 37.5086C27.759 37.5086 28.2749 37.5015 27.8913 37.4996C26.6303 37.5022 25.3694 37.5049 24.1084 37.5076ZM97.7262 37.5285C96.8212 37.5248 99.427 37.5081 99.3097 37.5268C98.7819 37.5274 98.254 37.5279 97.7262 37.5285ZM106.147 37.5237C105.579 37.5253 105.012 37.5268 104.444 37.5284C104.443 37.5263 104.443 37.5242 104.442 37.5221C105.01 37.5226 105.578 37.5232 106.147 37.5237ZM10.1135 34.821C10.1029 35.3852 10.1033 36.6833 10.103 37.5801L10.02 37.4971C10.0786 37.4971 10.1355 37.4971 10.1903 37.4972C10.1391 37.4963 10.0821 37.4956 10.02 37.495L10.1051 37.5801C10.112 36.8948 10.1089 35.5961 10.1135 34.821ZM84.1681 37.5165C84.2414 37.522 80.6418 37.5195 81.888 37.5102C82.648 37.5123 83.4081 37.5144 84.1681 37.5165ZM76.8569 37.5058C77.6289 37.5048 78.2269 37.507 78.0681 37.5157C77.6588 37.5152 77.2494 37.5147 76.8401 37.5142C76.8457 37.5114 76.8513 37.5086 76.8569 37.5058ZM74.7262 12.6016C76.0271 12.6017 77.3281 12.6019 78.6291 12.6021C78.5808 12.6029 78.5326 12.6037 78.4844 12.6045C77.2302 12.6043 75.9759 12.6041 74.7217 12.6039C74.7232 12.6031 74.7247 12.6023 74.7262 12.6016ZM10.1431 34.0852C10.1413 33.1918 10.1396 32.2983 10.1378 31.4048C10.1352 32.299 10.1326 33.1933 10.1301 34.0875C10.1344 34.0875 10.1388 34.0875 10.1431 34.0875C10.1431 34.0867 10.1431 34.086 10.1431 34.0852ZM56.9041 12.6029C60.8785 12.6077 55.8073 12.6076 54.7586 12.6033C54.7575 12.6033 54.7564 12.6033 54.7553 12.6034C54.6635 12.603 54.8576 12.6015 54.7048 12.6008C55.1093 12.6017 55.5138 12.6026 55.9183 12.6035C56.2872 12.6028 56.6562 12.6021 57.0252 12.6013C57.1467 12.6017 57.2682 12.6022 57.3897 12.6026C57.2278 12.6027 57.066 12.6028 56.9041 12.6029ZM40.8641 12.5961C37.2604 12.5941 40.9477 12.5932 42.7314 12.5962C42.7186 12.5967 41.1961 12.5963 40.8641 12.5961ZM50.3084 12.6002C50.8763 12.6002 51.4442 12.6001 52.012 12.6C52.0846 12.6005 52.157 12.601 52.2296 12.6014C51.7937 12.6016 51.3578 12.6018 50.9219 12.602C50.7174 12.6014 50.5129 12.6008 50.3084 12.6002ZM68.984 12.6187C69.8978 12.6199 71.0636 12.6139 68.1294 12.614C68.1309 12.6147 68.1324 12.6154 68.1339 12.6161C68.2509 12.616 68.594 12.6156 68.6128 12.6156C68.6665 12.6158 68.6031 12.6181 68.984 12.6187ZM34.191 12.6002C34.0884 12.6003 34.0326 12.6032 32.9652 12.5992C32.6426 12.5991 32.32 12.599 31.9973 12.5989C31.914 12.5982 31.8306 12.5976 31.7472 12.5969C32.9959 12.5984 33.1283 12.5972 33.2187 12.5972C33.6338 12.5974 33.3266 12.5978 33.5944 12.5981C34.2858 12.5986 35.857 12.5993 35.1443 12.6008C34.8878 12.6014 34.2937 12.6002 34.191 12.6002ZM36.6326 12.6042C36.4812 12.6038 36.969 12.6032 36.8546 12.6028C36.7545 12.6025 35.2496 12.6003 35.6569 12.599C35.904 12.5993 36.1511 12.5995 36.3982 12.5998C36.4819 12.6003 36.5657 12.6008 36.6494 12.6013C36.8887 12.6011 37.1279 12.6008 37.3672 12.6006C37.7704 12.602 38.6284 12.6043 37.6094 12.6044C37.984 12.6046 38.3586 12.6049 38.7332 12.6051C38.9272 12.6047 39.1213 12.6042 39.3153 12.6038C39.2136 12.6046 39.1119 12.6054 39.0102 12.6062C38.2177 12.6056 37.4251 12.6049 36.6326 12.6042ZM25.0204 12.5935C25.066 12.5933 25.1116 12.5931 25.1572 12.5929C23.7815 12.5922 21.6391 12.5904 22.8558 12.5902C24.7194 12.5915 26.583 12.5929 28.4466 12.5941C28.5703 12.5944 28.6941 12.5948 28.8178 12.5951C27.4275 12.5932 27.8572 12.597 26.6477 12.5949C26.4438 12.5946 27.0355 12.5939 25.7538 12.5936C25.7994 12.5939 25.8451 12.5942 25.8907 12.5944C25.6006 12.5941 25.3105 12.5938 25.0204 12.5935ZM13.1939 12.5828C15.5495 12.585 12.9548 12.5829 12.5199 12.5823C12.5206 12.5823 12.5214 12.5823 12.5221 12.5823C11.3301 12.581 13.8933 12.5833 14.0496 12.5834C14.2575 12.5836 14.7415 12.5835 15.8721 12.5852C14.9794 12.5844 14.0867 12.5836 13.1939 12.5828ZM20.8842 12.5898C20.6863 12.5896 20.7958 12.5895 20.7104 12.5894C20.7096 12.5894 20.7089 12.5894 20.7081 12.5894C19.4473 12.5884 16.4483 12.5858 16.1233 12.5851C17.0567 12.5859 21.2328 12.589 21.4853 12.5898C21.285 12.5898 21.0846 12.5898 20.8842 12.5898ZM29.7565 12.5966C30.5306 12.5982 28.788 12.5968 28.3311 12.596C28.2448 12.5959 28.9546 12.5949 29.7565 12.5966ZM89.1332 12.6564C90.8364 12.6557 88.5986 12.6512 89.3732 12.6481C89.048 12.6482 88.7228 12.6482 88.3975 12.6483C88.6428 12.651 88.888 12.6537 89.1332 12.6564ZM122.259 37.4138C121.862 37.4125 122.051 37.4172 122.016 37.4173C121.755 37.4169 121.509 37.4129 121.409 37.4132C119.559 37.4188 120.79 37.4239 120.808 37.4248C120.847 37.4293 120.361 37.4342 121.035 37.4399C121.444 37.4387 121.853 37.4375 122.262 37.4363C122.465 37.4389 122.668 37.4416 122.871 37.4443C123.683 37.4397 122.62 37.4373 122.499 37.4301C122.453 37.4273 123.217 37.4247 122.259 37.4138ZM92.1849 12.6672C92.461 12.6634 93.1378 12.6588 92.4731 12.6541C92.4724 12.6541 92.4716 12.6541 92.4709 12.6541C92.348 12.6532 91.8474 12.6523 91.6937 12.6511C90.5973 12.6556 91.0173 12.6615 92.1849 12.6672ZM129.595 37.4082C130.255 37.4107 130.914 37.4132 131.574 37.4156C131.562 37.4201 131.551 37.4245 131.54 37.4289C131.187 37.4273 130.834 37.4258 130.481 37.4242C130.358 37.4261 130.234 37.428 130.11 37.4299C130.548 37.4355 130.986 37.441 131.424 37.4464C131.623 37.4459 131.822 37.4455 132.02 37.445L131.885 37.5801C131.884 37.2507 131.883 36.9214 131.883 36.592C131.88 36.8346 131.877 37.0773 131.875 37.3199C131.874 36.0297 131.884 36.3106 131.889 35.2428C131.885 34.8772 131.882 34.5116 131.878 34.146C131.883 33.6166 131.887 33.0873 131.892 32.5579C131.89 31.6685 131.888 31.5903 131.882 32.1889C131.878 31.7467 131.886 31.2625 131.885 30.7298C131.885 30.6859 131.88 30.7687 131.88 30.7298C131.879 27.976 131.892 28.1225 131.892 27.6827C131.893 27.3723 131.886 26.1332 131.883 26.1136C131.88 26.0898 131.862 28.6669 131.866 24.631C131.853 26.7176 131.861 29.0898 131.878 27.5559C131.876 28.2163 131.877 31.1285 131.876 31.3141C131.875 31.5848 131.869 31.4899 131.869 31.8289C131.868 32.0293 131.881 32.5601 131.868 34.146C131.87 34.3486 131.872 34.5512 131.874 34.7538C131.872 34.9438 131.87 35.1337 131.868 35.3236C131.861 34.9325 131.855 34.5415 131.849 34.1505C131.854 35.5169 131.842 36.6779 131.847 37.5801L132.02 37.4069C131.899 37.4075 131.784 37.4084 131.672 37.4097C130.857 37.4074 130.461 37.4055 130.811 37.3998C130.566 37.3995 130.321 37.3992 130.076 37.399C129.916 37.402 129.756 37.4051 129.595 37.4082ZM97.1891 12.6663C97.9996 12.6712 98.291 12.6626 98.1648 12.662C97.454 12.6586 96.7673 12.6638 97.1891 12.6663ZM123.731 37.4237C124.625 37.4286 125.519 37.4334 126.414 37.4382C126.414 37.4334 126.414 37.4285 126.414 37.4237C125.519 37.4237 124.625 37.4237 123.731 37.4237ZM88.8843 12.6618C88.802 12.6599 88.7198 12.6579 88.6375 12.656C87.658 12.6618 86.6856 12.6511 86.2016 12.6527C86.0965 12.653 86.3086 12.6564 86.5089 12.6573C86.6335 12.6579 88.7108 12.6623 88.8843 12.6618ZM48.1091 12.6191C48.474 12.6189 48.8389 12.6186 49.2037 12.6184C49.1835 12.6194 49.1633 12.6204 49.1432 12.6215C48.963 12.6215 48.7828 12.6215 48.6026 12.6215C48.4381 12.6207 48.2736 12.6199 48.1091 12.6191ZM52.261 12.6216C52.9119 12.6223 53.5627 12.6231 54.2136 12.6238C51.731 12.6224 53.7684 12.625 52.261 12.6249C52.261 12.6238 52.261 12.6227 52.261 12.6216ZM58.8488 12.6307C58.7688 12.6314 58.6888 12.6321 58.6088 12.6328C57.9579 12.6321 57.3071 12.6314 56.6562 12.6307C57.0678 12.6337 57.4794 12.6368 57.891 12.64C58.1295 12.6403 58.3681 12.6406 58.6066 12.6409C58.6873 12.6375 58.7681 12.6341 58.8488 12.6307ZM104.678 37.3744C104.285 37.3737 102.916 37.3806 102.975 37.3839C103.543 37.3884 104.112 37.3928 104.681 37.3972C104.683 37.3917 104.686 37.3861 104.689 37.3806C104.769 37.3835 104.849 37.3863 104.93 37.3892C105.253 37.3874 105.576 37.3857 105.9 37.384C106.063 37.389 106.226 37.394 106.389 37.399C106.552 37.3937 106.716 37.3884 106.88 37.3831C105.319 37.3716 105.372 37.3814 105.047 37.3809C104.883 37.3807 104.778 37.3771 104.72 37.3753C104.706 37.375 104.692 37.3747 104.678 37.3744ZM124.349 37.3929C122.484 37.3894 121.419 37.4014 120.07 37.3887C120.935 37.4133 126.521 37.3957 128.491 37.4168C128.695 37.4135 128.9 37.4101 129.104 37.4067C128.032 37.4087 127.289 37.4004 126.766 37.3987C126.35 37.3973 126.394 37.4012 126.362 37.4011C126.36 37.4011 126.359 37.4011 126.357 37.4011C125.385 37.3984 125.084 37.3943 124.349 37.3929ZM87.4992 12.6695C88.0002 12.673 88.8767 12.6738 88.8865 12.6694C88.3986 12.6676 87.9108 12.6658 87.4229 12.664C87.5231 12.6652 87.4137 12.6689 87.4992 12.6695ZM59.6058 12.6391C59.9968 12.6405 60.9204 12.6408 60.5221 12.6379C60.4505 12.6374 59.5306 12.6381 60.0701 12.6344C59.1737 12.6335 59.3835 12.6384 59.6058 12.6391ZM131.885 13.3934C131.885 13.1223 131.886 12.8512 131.886 12.5801L132.02 12.7144C131.962 12.7143 131.904 12.7143 131.846 12.7143C131.77 12.7169 131.693 12.7195 131.616 12.7221C131.751 12.7213 131.885 12.7205 132.02 12.7197L131.88 12.5801C131.882 12.8512 131.884 13.1223 131.885 13.3934ZM83.271 12.6674C82.8337 12.6589 82.0865 12.6658 81.2658 12.6584C80.9626 12.658 80.6594 12.6576 80.3562 12.6573C80.3555 12.6573 80.3547 12.6573 80.354 12.6573C80.3457 12.6593 80.3375 12.6614 80.3293 12.6635C81.3099 12.6648 82.2905 12.6661 83.271 12.6674ZM131.855 33.906C131.857 33.7034 131.86 33.5007 131.862 33.2981C131.86 32.9374 131.858 32.5766 131.856 32.2158C131.854 32.411 131.852 32.6061 131.85 32.8013C131.852 33.1695 131.854 33.5377 131.855 33.906ZM77.9416 12.6617C79.002 12.6639 79.4009 12.6578 78.0448 12.6563C77.4731 12.6556 76.8305 12.6594 77.9416 12.6617ZM84.4193 37.3573C84.7827 37.3593 85.146 37.3613 85.5094 37.3633C85.6331 37.3596 85.7569 37.3558 85.8806 37.3521C85.3935 37.3539 84.9064 37.3556 84.4193 37.3573ZM54.5769 12.6327C54.6195 12.6318 54.6622 12.631 54.7048 12.6302C55.0289 12.6307 55.353 12.6312 55.6771 12.6318C55.5956 12.6326 55.5141 12.6334 55.4326 12.6342C55.1474 12.6337 54.8622 12.6332 54.5769 12.6327ZM86.8642 37.3625C87.1547 37.3635 87.4452 37.3646 87.7356 37.3656C87.9308 37.364 88.1259 37.3624 88.3211 37.3608C88.0493 37.3586 87.7775 37.3565 87.5057 37.3543C87.2919 37.357 87.0781 37.3597 86.8642 37.3625ZM67.8894 12.6491C68.2974 12.651 69.9273 12.6485 68.4591 12.6457C67.5236 12.6439 67.8282 12.6488 67.8894 12.6491ZM65.6901 12.6478C67.2441 12.6522 66.0789 12.6379 64.2242 12.644C66.0913 12.6451 65.5988 12.6475 65.6901 12.6478ZM52.0243 12.6362C51.9853 12.6361 51.953 12.6347 51.6408 12.6342C50.5168 12.6326 49.033 12.6301 48.2291 12.629C46.2965 12.6265 40.3766 12.6206 39.6842 12.6169C39.5401 12.6161 39.8719 12.6147 39.8132 12.6145C39.6412 12.6141 38.651 12.6138 38.8341 12.6127C39.8057 12.6138 40.7774 12.6149 41.749 12.616C41.5104 12.6168 41.272 12.6175 41.0334 12.6182C43.4544 12.6206 42.653 12.6197 43.3494 12.6182C43.7591 12.6196 44.1688 12.621 44.5786 12.6224C45.4706 12.6226 46.3625 12.6227 47.2545 12.6227C47.0523 12.6232 46.85 12.6237 46.6478 12.6242C47.9916 12.6272 47.6183 12.6258 48.3536 12.6249C48.3551 12.6256 48.3566 12.6264 48.3581 12.6272C49.6556 12.6269 49.9083 12.6295 50.1918 12.6299C50.7733 12.6308 51.5144 12.6216 53.7324 12.6343C54.6677 12.6304 54.6464 12.6406 55.196 12.6361C56.7789 12.6439 53.7685 12.6378 52.344 12.6358C52.3432 12.6358 52.3425 12.6358 52.3417 12.6358C52.2343 12.6356 52.4049 12.6368 52.0243 12.6362ZM60.1554 12.6412C59.1971 12.6451 62.9828 12.6506 61.73 12.6413C61.5434 12.6408 61.3569 12.6403 61.1703 12.6398C60.8313 12.6403 60.4922 12.6408 60.1531 12.6412C60.1539 12.6412 60.1546 12.6412 60.1554 12.6412ZM95.7255 12.6904C99.232 12.6912 97.2383 12.6835 96.0508 12.6871C95.8138 12.6878 95.684 12.689 95.7255 12.6904ZM121.685 37.3772C121.634 37.3791 121.583 37.381 121.532 37.3829C122.707 37.3826 124.981 37.3928 124.95 37.3799C123.862 37.379 122.773 37.3781 121.685 37.3772ZM130.987 37.3812C130.735 37.3801 129.703 37.3769 129.827 37.3817C130.275 37.3856 130.722 37.3895 131.169 37.3933C131.377 37.3916 131.585 37.3898 131.793 37.388C131.503 37.387 131.055 37.3814 130.987 37.3812Z" />
    <filter
       id="filter0_dii_12_7207"
       x="0"
       y="0"
       width="287"
       height="48.6001"
       filterUnits="userSpaceOnUse"
       color-interpolation-filters="sRGB">
      <feFlood
         flood-opacity="0"
         result="BackgroundImageFix"
         id="feFlood1" />
      <feColorMatrix
         in="SourceAlpha"
         type="matrix"
         values="0 0 0 0 0 0 0 0 0 0 0 0 0 0 0 0 0 0 127 0"
         result="hardAlpha"
         id="feColorMatrix1" />
      <feOffset
         dx="1"
         dy="1"
         id="feOffset1" />
      <feGaussianBlur
         stdDeviation="4.75"
         id="feGaussianBlur1" />
      <feColorMatrix
         type="matrix"
         values="0 0 0 0 0 0 0 0 0 0 0 0 0 0 0 0 0 0 0.5 0"
         id="feColorMatrix2" />
      <feBlend
         mode="normal"
         in2="BackgroundImageFix"
         result="effect1_dropShadow_12_7207"
         id="feBlend2" />
      <feBlend
         mode="normal"
         in="SourceGraphic"
         in2="effect1_dropShadow_12_7207"
         result="shape"
         id="feBlend3" />
      <feColorMatrix
         in="SourceAlpha"
         type="matrix"
         values="0 0 0 0 0 0 0 0 0 0 0 0 0 0 0 0 0 0 127 0"
         result="hardAlpha"
         id="feColorMatrix3" />
      <feOffset
         dx="-0.5"
         dy="-0.5"
         id="feOffset3" />
      <feComposite
         in2="hardAlpha"
         operator="arithmetic"
         k2="-1"
         k3="1"
         id="feComposite3" />
      <feColorMatrix
         type="matrix"
         values="0 0 0 0 0.0862745 0 0 0 0 0.0862745 0 0 0 0 0.0862745 0 0 0 1 0"
         id="feColorMatrix4" />
      <feBlend
         mode="normal"
         in2="shape"
         result="effect2_innerShadow_12_7207"
         id="feBlend4" />
      <feColorMatrix
         in="SourceAlpha"
         type="matrix"
         values="0 0 0 0 0 0 0 0 0 0 0 0 0 0 0 0 0 0 127 0"
         result="hardAlpha"
         id="feColorMatrix5" />
      <feOffset
         dx="0.75"
         dy="0.75"
         id="feOffset5" />
      <feComposite
         in2="hardAlpha"
         operator="arithmetic"
         k2="-1"
         k3="1"
         id="feComposite5" />
      <feColorMatrix
         type="matrix"
         values="0 0 0 0 1 0 0 0 0 0.909804 0 0 0 0 0.811765 0 0 0 1 0"
         id="feColorMatrix6" />
      <feBlend
         mode="normal"
         in2="effect2_innerShadow_12_7207"
         result="effect3_innerShadow_12_7207"
         id="feBlend6" />
    </filter>
  </defs>
  <g
     filter="url(#filter0_dii_12_7207)"
     id="g8">
    <svg
       x="0"
       y="0"
       width="36"
       height="49"
       viewBox="0 0 36 49"
       overflow="hidden"
       version="1.1"
       id="svg6">
      <use
         href="#frame-brush"
         fill="#DCCEBD"
         id="use6" />
    </svg>
    <svg
       x="34"
       y="0"
       width="219"
       height="49"
       viewBox="34 0 77 49"
       overflow="hidden"
       preserveAspectRatio="none"
       version="1.1"
       id="svg7">
      <use
         href="#frame-brush"
         fill="#DCCEBD"
         id="use7" />
    </svg>
    <svg
       x="251"
       y="0"
       width="36"
       height="49"
       viewBox="109 0 36 49"
       overflow="hidden"
       version="1.1"
       id="svg8">
      <use
         href="#frame-brush"
         fill="#DCCEBD"
         id="use8" />
    </svg>
    <path
       d="m 39.22,12.580101 q 0.08,0 0.08,0.24 0,0.24 -0.08,0.24 -1.4,0 -2.08,0.56 -0.68,0.52 -0.92,2.12 l -2.76,18.6 q -0.12,0.72 -0.12,1.24 0,0.92 0.48,1.24 0.48,0.28 1.8,0.28 0.12,0 0.12,0.24 0,0.24 -0.12,0.24 -1.08,0 -1.72,-0.04 l -2.6,-0.04 -2.52,0.04 q -0.64,0.04 -1.76,0.04 -0.12,0 -0.12,-0.24 0,-0.24 0.12,-0.24 1.2,0 1.76,-0.2 0.56,-0.2 0.84,-0.76 0.28,-0.6 0.48,-1.8 l 2.84,-19.12 -11.12,22.08 q -0.08,0.16 -0.28,0.16 -0.2,0 -0.28,-0.2 l -4.48,-21.12 -3,16.52 q -0.16,1.2 -0.16,1.6 0,1.4 0.56,2.12 0.56,0.72 1.64,0.72 0.12,0 0.12,0.24 0,0.24 -0.12,0.24 -0.88,0 -1.36,-0.04 l -2.04,-0.04 -1.8,0.04 q -0.52,0.04 -1.52,0.04 -0.12,0 -0.12,-0.24 0,-0.24 0.12,-0.24 1.36,0 2.32,-1.12 0.96,-1.16 1.36,-3.24 l 3.4,-18.28 q -0.84,-1.4 -2.76,-1.4 -0.08,0 -0.08,-0.24 0,-0.24 0.08,-0.24 0.68,0 1.04,0.04 l 1.4,0.04 2,-0.04 q 0.36,-0.04 0.84,-0.04 0.44,0 0.68,0.4 0.28,0.4 0.56,1.68 l 3.68,17.44 9.24,-18.52 q 0.52,-1 1.44,-1 0.48,0 0.84,0.04 l 1.44,0.04 1.56,-0.04 q 0.36,-0.04 1.08,-0.04 z m 9.520013,9.04 q 1.44,0 2.24,0.52 0.8,0.48 0.8,1.4 0,1.84 -2.72,3.4 -2.68,1.56 -6.48,2.24 -0.16,1.28 -0.16,1.88 0,2.44 1.04,3.92 1.04,1.44 3,1.44 0.92,0 1.92,-0.28 1,-0.32 1.84,-0.96 h 0.04 q 0.12,0 0.2,0.12 0.12,0.12 0.04,0.2 -2.76,2.56 -6.12,2.56 -2.64,0 -4,-1.64 -1.36,-1.64 -1.36,-4.2 0,-0.92 0.2,-2.04 0.4,-2.12 1.72,-4.08 1.36,-2 3.4,-3.24 2.08,-1.24 4.4,-1.24 z m -0.56,3 q 0.08,-0.4 0.08,-0.52 0,-0.68 -0.44,-1.04 -0.44,-0.36 -1.08,-0.36 -1.48,0 -2.56,1.64 -1.04,1.64 -1.52,4.24 5.04,-1.12 5.52,-3.96 z m 8.199971,13.4 q -1.64,0 -2.84,-0.72 -1.16,-0.72 -1.16,-1.76 0,-0.84 0.48,-1.28 0.48,-0.44 1.16,-0.44 0.56,0 0.92,0.36 0.4,0.36 0.76,1 0.52,0.84 1,1.24 0.48,0.4 1.36,0.4 0.84,0 1.24,-0.44 0.44,-0.48 0.6,-1.44 0.04,-0.16 0.04,-0.48 0,-1.2 -0.72,-2.04 -0.68,-0.88 -2.04,-1.92 -1.4,-1.16 -2.08,-2 -0.68,-0.84 -0.68,-2.04 0,-1.2 0.76,-2.28 0.8,-1.08 2.12,-1.76 1.36,-0.68 2.92,-0.68 1.64,0 2.68,0.6 1.04,0.56 1.04,1.48 0,0.76 -0.52,1.2 -0.52,0.44 -1.12,0.44 -0.72,0 -1.08,-0.32 -0.36,-0.32 -0.72,-1 -0.36,-0.68 -0.76,-1 -0.36,-0.36 -1.12,-0.36 -0.72,0 -1.16,0.4 -0.44,0.36 -0.52,0.96 -0.04,0.16 -0.04,0.48 0,1.04 0.68,1.88 0.68,0.84 2,1.92 1.44,1.24 2.16,2.16 0.72,0.88 0.72,2.12 0,1.12 -0.8,2.4 -0.8,1.24 -2.2,2.08 -1.36,0.84 -3.08,0.84 z m 12.200012,0 q -1.64,0 -2.84,-0.72 -1.16,-0.72 -1.16,-1.76 0,-0.84 0.48,-1.28 0.48,-0.44 1.16,-0.44 0.56,0 0.92,0.36 0.4,0.36 0.76,1 0.52,0.84 1,1.24 0.48,0.4 1.36,0.4 0.84,0 1.24,-0.44 0.44,-0.48 0.6,-1.44 0.04,-0.16 0.04,-0.48 0,-1.2 -0.72,-2.04 -0.68,-0.88 -2.04,-1.92 -1.4,-1.16 -2.08,-2 -0.68,-0.84 -0.68,-2.04 0,-1.2 0.76,-2.28 0.8,-1.08 2.12,-1.76 1.36,-0.68 2.92,-0.68 1.64,0 2.68,0.6 1.04,0.56 1.04,1.48 0,0.76 -0.52,1.2 -0.52,0.44 -1.12,0.44 -0.72,0 -1.08,-0.32 -0.36,-0.32 -0.72,-1 -0.36,-0.68 -0.76,-1 -0.36,-0.36 -1.12,-0.36 -0.72,0 -1.16,0.4 -0.44,0.36 -0.52,0.96 -0.04,0.16 -0.04,0.48 0,1.04 0.68,1.88 0.68,0.84 2,1.92 1.44,1.24 2.16,2.16 0.72,0.88 0.72,2.12 0,1.12 -0.8,2.4 -0.8,1.24 -2.2,2.08 -1.36,0.84 -3.08,0.84 z m 24.720033,-3.52 q 0.04,-0.04 0.12,-0.04 0.12,0 0.2,0.16 0.08,0.12 0,0.2 -1.32,1.56 -2.4,2.36 -1.08,0.76 -2.08,0.76 -0.92,0 -1.36,-0.52 -0.44,-0.56 -0.44,-1.72 0,-0.84 0.16,-1.68 l 0.56,-3.2 q -1.6,3.36 -3.8,5.32 -2.16,1.96 -4.2,1.96 -1.24,0 -1.92,-0.72 -0.68,-0.76 -0.68,-2.28 0,-2.76 1.72,-5.92 1.76,-3.2 4.32,-5.36 2.6,-2.2 4.92,-2.2 0.76,0 1.48,0.28 0.76,0.24 1.28,0.76 0.8,-0.68 1.16,-1.36 0.08,-0.08 0.16,-0.08 0.12,0 0.24,0.08 0.12,0.04 0.08,0.08 l -2.32,12.64 q -0.12,0.6 -0.12,1 0,0.48 0.16,0.76 0.16,0.28 0.44,0.28 0.76,0 2.32,-1.56 z m -11.04,1 q 1.28,0 2.64,-1.32 1.4,-1.36 2.44,-3.32 1.04,-1.96 1.4,-3.72 0.12,-0.6 0.12,-1.12 0,-1.2 -0.6,-1.92 -0.6,-0.72 -1.64,-0.72 -1.2,0 -2.44,1.04 -1.2,1.04 -2.12,2.8 -0.92,1.76 -1.28,3.96 -0.16,0.96 -0.16,1.84 0,2.48 1.64,2.48 z m 27.800001,-13.72 q 0.2,0 0.2,0.56 0,0.6 -0.2,1.28 -0.16,0.68 -0.32,0.56 -1.24,-0.8 -3,-0.8 0.88,1.12 0.88,2.88 0,0.8 -0.16,1.48 -0.36,1.76 -1.44,3.12 -1.04,1.32 -2.52,2.08 -1.44,0.72 -2.96,0.72 -0.28,0 -0.840001,-0.08 -0.36,0.6 -0.36,1.2 0,0.92 0.840001,1.6 0.88,0.64 2.6,1.48 1.52,0.72 2.44,1.28 0.96,0.6 1.6,1.48 0.68,0.92 0.68,2.12 0,1.72 -1.2,3.12 -1.2,1.4 -3.2,2.16 -2,0.8 -4.320001,0.8 -2.88,0 -4.52,-1.16 -1.68,-1.12 -1.68,-2.88 0,-1.64 1.44,-3 1.4,-1.36 4.08,-2.84 -1.44,-1.04 -1.44,-2.08 0,-0.88 0.6,-1.64 0.6,-0.8 1.8,-1.76 -1.36,-0.44 -2.08,-1.56 -0.68,-1.16 -0.68,-2.72 0,-0.48 0.16,-1.44 0.48,-2.52 2.44,-4.16 1.960001,-1.68 4.480001,-1.68 1.68,0 2.76,0.84 2.12,-0.96 3.92,-0.96 z m -5.64,6.56 q 0.08,-0.88 0.08,-1.36 0,-1.76 -0.56,-3 -0.52,-1.28 -1.56,-1.28 -1,0 -1.84,1.32 -0.840001,1.28 -1.040001,3.2 -0.12,0.76 -0.12,1.48 0,1.8 0.6,2.96 0.640001,1.16 1.600001,1.16 1,0 1.8,-1.2 0.8,-1.24 1.04,-3.28 z m 0.28,16.16 q 0,-1.44 -1.12,-2.36 -1.12,-0.92 -3.24,-1.96 -1.400001,-0.72 -1.760001,-0.92 -1.28,0.92 -2.08,1.96 -0.76,1.04 -0.76,2.44 0,1.72 1.44,2.84 1.44,1.12 3.600001,1.12 1.96,0 2.92,-0.92 1,-0.88 1,-2.2 z m 15.32004,-22.88 q 1.44,0 2.24,0.52 0.8,0.48 0.8,1.4 0,1.84 -2.72,3.4 -2.68,1.56 -6.48,2.24 -0.16,1.28 -0.16,1.88 0,2.44 1.04,3.92 1.04,1.44 3,1.44 0.92,0 1.92,-0.28 1,-0.32 1.84,-0.96 h 0.04 q 0.12,0 0.2,0.12 0.12,0.12 0.04,0.2 -2.76,2.56 -6.12,2.56 -2.64,0 -4,-1.64 -1.36,-1.64 -1.36,-4.2 0,-0.92 0.2,-2.04 0.4,-2.12 1.72,-4.08 1.36,-2 3.4,-3.24 2.08,-1.24 4.4,-1.24 z m -0.56,3 q 0.08,-0.4 0.08,-0.52 0,-0.68 -0.44,-1.04 -0.44,-0.36 -1.08,-0.36 -1.48,0 -2.56,1.64 -1.04,1.64 -1.52,4.24 5.04,-1.12 5.52,-3.96 z m 8.19997,13.4 q -1.64,0 -2.84,-0.72 -1.16,-0.72 -1.16,-1.76 0,-0.84 0.48,-1.28 0.48,-0.44 1.16,-0.44 0.56,0 0.92,0.36 0.4,0.36 0.76,1 0.52,0.84 1,1.24 0.48,0.4 1.36,0.4 0.84,0 1.24,-0.44 0.44,-0.48 0.6,-1.44 0.04,-0.16 0.04,-0.48 0,-1.2 -0.72,-2.04 -0.68,-0.88 -2.04,-1.92 -1.4,-1.16 -2.08,-2 -0.68,-0.84 -0.68,-2.04 0,-1.2 0.76,-2.28 0.8,-1.08 2.12,-1.76 1.36,-0.68 2.92,-0.68 1.64,0 2.68,0.6 1.04,0.56 1.04,1.48 0,0.76 -0.52,1.2 -0.52,0.44 -1.12,0.44 -0.72,0 -1.08,-0.32 -0.36,-0.32 -0.72,-1 -0.36,-0.68 -0.76,-1 -0.36,-0.36 -1.12,-0.36 -0.72,0 -1.16,0.4 -0.44,0.36 -0.52,0.96 -0.04,0.16 -0.04,0.48 0,1.04 0.68,1.88 0.68,0.84 2,1.92 1.44,1.24 2.16,2.16 0.72,0.88 0.72,2.12 0,1.12 -0.8,2.4 -0.8,1.24 -2.2,2.08 -1.36,0.84 -3.08,0.84 z m 23.84001,0.12 q -2.56,0 -3.96,-1.68 -1.36,-1.68 -1.36,-4.36 0,-1.12 0.24,-2.24 0.44,-2.36 1.68,-4.24 1.28,-1.88 3.12,-2.92 1.84,-1.08 3.88,-1.08 2.6,0 4,1.64 1.4,1.64 1.4,4.32 0,1.08 -0.24,2.28 -0.48,2.56 -1.88,4.44 -1.36,1.88 -3.2,2.88 -1.8,0.96 -3.68,0.96 z m 1.36,-1 q 1.4,0 2.48,-1.48 1.08,-1.48 1.56,-4.04 0.28,-1.36 0.28,-2.88 0,-2.64 -0.92,-4.4 -0.88,-1.76 -2.44,-1.76 -1.36,0 -2.48,1.44 -1.08,1.44 -1.56,4.12 -0.28,1.68 -0.28,2.84 0,2.68 0.88,4.44 0.92,1.72 2.48,1.72 z m 21.44002,-28.6 q 1.64,0 2.56,0.64 0.92,0.64 0.8,1.56 -0.12,0.72 -0.64,1.12 -0.48,0.4 -1.16,0.4 -0.92,0 -1.28,-0.44 -0.32,-0.44 -0.52,-1.28 -0.16,-0.64 -0.36,-0.92 -0.16,-0.32 -0.64,-0.32 -1.36,0 -2.36,2.64 -0.96,2.6 -1.76,8.08 l -0.36,2.44 1.68,-0.12 q 2,-0.16 2.2,-0.16 0.28,0 0.28,0.36 0,0.32 -0.44,0.92 -0.44,0.56 -0.84,0.52 -0.12,0 -1,-0.16 -0.88,-0.16 -2.04,-0.24 l -2.2,14.84 q -0.56,3.88 -1.36,6.08 -0.76,2.2 -1.96,3.12 -1.16,0.96 -2.96,0.96 -1.48,0 -2.36,-0.56 -0.88,-0.52 -0.88,-1.28 0,-0.8 0.52,-1.28 0.52,-0.44 1.24,-0.44 0.84,0 1.16,0.44 0.32,0.44 0.48,1.24 0.12,0.56 0.28,0.84 0.16,0.28 0.56,0.28 0.44,0 0.72,-0.64 0.28,-0.6 0.6,-2.32 0.32,-1.68 0.88,-5.4 l 2.04,-14.12 q 0.08,-0.88 0.08,-1.04 0,-0.76 -0.4,-0.92 -0.4,-0.2 -1.72,-0.2 -0.12,0 -0.12,-0.24 0,-0.32 0.12,-0.32 1.36,0 1.92,-0.36 0.6,-0.4 0.76,-1.4 0.8,-4.92 1.8,-7.52 1.04,-2.64 2.6,-3.72 1.56,-1.08 4.08,-1.08 z m 43.56,25.96 q 0.08,-0.08 0.12,-0.08 0.12,0 0.2,0.16 0.08,0.12 0,0.24 -1.4,1.6 -2.44,2.36 -1.04,0.76 -2.12,0.76 -0.88,0 -1.32,-0.52 -0.4,-0.52 -0.4,-1.56 0,-0.64 0.2,-1.84 l 1.16,-6.36 q 0.2,-1.2 0.2,-1.88 0,-2.12 -1.44,-2.12 -1.16,0 -2.4,1.48 -1.24,1.48 -2.36,4.36 -1.12,2.88 -1.84,6.84 l -0.16,0.84 q -0.2,0.72 -1.92,0.72 -1.2,0 -1.2,-0.28 l 0.16,-0.88 q 0.4,-1.88 0.44,-2.12 l 3.8,-20.72 0.04,-0.2 q 0,-0.28 -0.4,-0.28 h -7.16 q -1.2,0 -1.6,0.48 -0.36,0.44 -0.64,2 l -3.24,18.44 q -0.12,0.72 -0.12,1.24 0,0.92 0.6,1.24 0.64,0.28 2.4,0.28 0.08,0 0.08,0.24 0,0.24 -0.08,0.24 -1.32,0 -2.08,-0.04 l -3,-0.04 -2.88,0.04 q -0.8,0.04 -2.12,0.04 -0.12,0 -0.12,-0.24 0,-0.24 0.12,-0.24 1.44,0 2.16,-0.2 0.72,-0.2 1.04,-0.76 0.36,-0.6 0.6,-1.8 l 3.24,-18.52 q 0.16,-0.64 0.16,-1.2 0,-0.72 -0.4,-0.96 -0.36,-0.24 -1.28,-0.24 h -0.64 q -2.08,0 -3.84,1.68 -1.76,1.68 -2.56,4.4 -0.04,0.12 -0.28,0.08 -0.2,-0.04 -0.16,-0.16 0.32,-1.04 0.92,-3.64 0.64,-2.64 0.92,-4.08 0.04,-0.12 0.28,-0.08 0.24,0 0.2,0.12 -0.12,0.84 1.56,0.84 2.96,0.12 7.32,0.12 4.64,0 6.84,-0.16 2.52,-0.04 4.32,-0.92 1.84,-0.92 3.08,-3.12 0,-0.08 0.2,-0.08 0.12,0 0.24,0.08 0.12,0.04 0.08,0.08 l -3.68,20.68 q 1.4,-3.64 3.24,-5.64 1.88,-2 3.92,-2 1.36,0 2.04,0.8 0.68,0.76 0.68,2.44 0,0.76 -0.2,2.04 l -1.32,7.12 q -0.12,0.64 -0.12,1.04 0,1 0.64,1 0.76,0 2.32,-1.56 z m 5.39997,3.44 q -1.76,0 -1.76,-2.08 0,-0.76 0.24,-1.84 l 1.64,-8.32 q 0.12,-0.56 0.12,-0.96 0,-1.12 -0.76,-1.12 -0.96,0 -2.44,1.68 -0.04,0.04 -0.12,0.04 -0.16,0 -0.24,-0.12 -0.08,-0.16 0,-0.28 1.44,-1.64 2.56,-2.4 1.16,-0.76 2.24,-0.76 1.76,0 1.76,1.96 0,0.6 -0.2,1.6 l -1.64,8.68 q -0.12,0.6 -0.12,1 0,1.04 0.68,1.04 0.68,0 2.32,-1.52 0.08,-0.08 0.16,-0.08 0.12,0 0.2,0.16 0.08,0.12 -0.04,0.24 -1.36,1.6 -2.44,2.36 -1.08,0.72 -2.16,0.72 z m 2.64,-20.52 q -1,0 -1.56,-0.56 -0.56,-0.56 -0.56,-1.56 0,-0.88 0.56,-1.4 0.6,-0.56 1.56,-0.56 0.96,0 1.48,0.56 0.52,0.52 0.52,1.4 0,1 -0.52,1.56 -0.52,0.56 -1.48,0.56 z m 20.71999,17.08 q 0.08,-0.08 0.12,-0.08 0.12,0 0.2,0.16 0.12,0.12 0,0.24 -1.36,1.6 -2.4,2.36 -1.04,0.76 -2.16,0.76 -0.88,0 -1.32,-0.52 -0.4,-0.52 -0.4,-1.56 0,-0.64 0.2,-1.84 l 1.16,-6.36 q 0.2,-0.96 0.2,-1.92 0,-2.08 -1.4,-2.08 -1.2,0 -2.48,1.52 -1.24,1.52 -2.36,4.44 -1.12,2.88 -1.84,6.92 l -0.12,0.64 q -0.2,0.72 -1.92,0.72 -1.2,0 -1.2,-0.28 l 0.16,-0.88 q 0.4,-1.88 0.44,-2.12 l 1.64,-8.92 q 0.08,-0.36 0.08,-0.92 0,-1.16 -0.72,-1.16 -0.88,0 -2.44,1.68 -0.04,0.04 -0.12,0.04 -0.12,0 -0.24,-0.12 -0.08,-0.16 0.04,-0.28 1.4,-1.64 2.52,-2.4 1.16,-0.76 2.28,-0.76 0.88,0 1.28,0.52 0.44,0.48 0.44,1.52 0,0.32 -0.16,1.52 l -0.72,4 q 1.4,-3.68 3.28,-5.68 1.88,-2.04 3.96,-2.04 2.68,0 2.68,3.24 0,0.76 -0.2,2.04 l -1.32,7.12 q -0.12,0.6 -0.12,1 0,1.04 0.68,1.04 0.72,0 2.28,-1.56 z m 16.51999,-12.72 q 0.2,0 0.2,0.56 0,0.6 -0.2,1.28 -0.16,0.68 -0.32,0.56 -1.24,-0.8 -3,-0.8 0.88,1.12 0.88,2.88 0,0.8 -0.16,1.48 -0.36,1.76 -1.44,3.12 -1.04,1.32 -2.52,2.08 -1.44,0.72 -2.96,0.72 -0.28,0 -0.84,-0.08 -0.36,0.6 -0.36,1.2 0,0.92 0.84,1.6 0.88,0.64 2.6,1.48 1.52,0.72 2.44,1.28 0.96,0.6 1.6,1.48 0.68,0.92 0.68,2.12 0,1.72 -1.2,3.12 -1.2,1.4 -3.2,2.16 -2,0.8 -4.32,0.8 -2.88,0 -4.52,-1.16 -1.68,-1.12 -1.68,-2.88 0,-1.64 1.44,-3 1.4,-1.36 4.08,-2.84 -1.44,-1.04 -1.44,-2.08 0,-0.88 0.6,-1.64 0.6,-0.8 1.8,-1.76 -1.36,-0.44 -2.08,-1.56 -0.68,-1.16 -0.68,-2.72 0,-0.48 0.16,-1.44 0.48,-2.52 2.44,-4.16 1.96,-1.68 4.48,-1.68 1.68,0 2.76,0.84 2.12,-0.96 3.92,-0.96 z m -5.64,6.56 q 0.08,-0.88 0.08,-1.36 0,-1.76 -0.56,-3 -0.52,-1.28 -1.56,-1.28 -1,0 -1.84,1.32 -0.84,1.28 -1.04,3.2 -0.12,0.76 -0.12,1.48 0,1.8 0.6,2.96 0.64,1.16 1.6,1.16 1,0 1.8,-1.2 0.8,-1.24 1.04,-3.28 z m 0.28,16.16 q 0,-1.44 -1.12,-2.36 -1.12,-0.92 -3.24,-1.96 -1.4,-0.72 -1.76,-0.92 -1.28,0.92 -2.08,1.96 -0.76,1.04 -0.76,2.44 0,1.72 1.44,2.84 1.44,1.12 3.6,1.12 1.96,0 2.92,-0.92 1,-0.88 1,-2.2 z m 9.36,-6.48 q -1.64,0 -2.84,-0.72 -1.16,-0.72 -1.16,-1.76 0,-0.84 0.48,-1.28 0.48,-0.44 1.16,-0.44 0.56,0 0.92,0.36 0.4,0.36 0.76,1 0.52,0.84 1,1.24 0.48,0.4 1.36,0.4 0.84,0 1.24,-0.44 0.44,-0.48 0.6,-1.44 0.04,-0.16 0.04,-0.48 0,-1.2 -0.72,-2.04 -0.68,-0.88 -2.04,-1.92 -1.4,-1.16 -2.08,-2 -0.68,-0.84 -0.68,-2.04 0,-1.2 0.76,-2.28 0.8,-1.08 2.12,-1.76 1.36,-0.68 2.92,-0.68 1.64,0 2.68,0.6 1.04,0.56 1.04,1.48 0,0.76 -0.52,1.2 -0.52,0.44 -1.12,0.44 -0.72,0 -1.08,-0.32 -0.36,-0.32 -0.72,-1 -0.36,-0.68 -0.76,-1 -0.36,-0.36 -1.12,-0.36 -0.72,0 -1.16,0.4 -0.44,0.36 -0.52,0.96 -0.04,0.16 -0.04,0.48 0,1.04 0.68,1.88 0.68,0.84 2,1.92 1.44,1.24 2.16,2.16 0.72,0.88 0.72,2.12 0,1.12 -0.8,2.4 -0.8,1.24 -2.2,2.08 -1.36,0.84 -3.08,0.84 z"
       id="text8"
       style="font-style:italic;font-weight:600;font-size:40px;font-family:Cormorant;fill:#dccebd"
       aria-label="Messages of Things" />
  </g>
</svg>
